<?xml version='1.0' encoding='UTF-8' standalone='no'?>
<svg height="360pt" viewBox="0 0 480 360" width="480pt" xmlns="http://www.w3.org/2000/svg" xmlns:xlink="http://www.w3.org/1999/xlink">
 <title>Figure 1</title>
 <desc>
Creator: GL2PS 1.4.2, (C) 1999-2020 C. Geuzaine
For: Octave
CreationDate: Sun Jul  5 10:31:15 2026
</desc>
 <defs/>
 <polygon fill="#ffffff" points="0,0 480,0 480,360 0,360"/>
 <g>
  <polygon fill="#ffffff" points="0,360 480,360 480,0 0,0" shape-rendering="crispEdges"/>
  <clipPath id="cp00480360">
   <polygon points="0,360 480,360 480,0 0,0"/>
  </clipPath>
  <g clip-path="url(#cp00480360)">
   <polygon fill="#ffffff" points="62.4,320.4 434.4,320.4 434.4,27 62.4,27" shape-rendering="crispEdges"/>
   <polyline fill="none" points="62.4,320.4 62.4,27" stroke="#262626" stroke-dasharray="16,0" stroke-linecap="butt" stroke-linejoin="miter" stroke-opacity="0.15" stroke-width="0.5"/>
   <polyline fill="none" points="126.538,320.4 126.538,27" stroke="#262626" stroke-dasharray="16,0" stroke-linecap="butt" stroke-linejoin="miter" stroke-opacity="0.15" stroke-width="0.5"/>
   <polyline fill="none" points="190.676,320.4 190.676,27" stroke="#262626" stroke-dasharray="16,0" stroke-linecap="butt" stroke-linejoin="miter" stroke-opacity="0.15" stroke-width="0.5"/>
   <polyline fill="none" points="254.814,320.4 254.814,27" stroke="#262626" stroke-dasharray="16,0" stroke-linecap="butt" stroke-linejoin="miter" stroke-opacity="0.15" stroke-width="0.5"/>
   <polyline fill="none" points="318.952,320.4 318.952,27" stroke="#262626" stroke-dasharray="16,0" stroke-linecap="butt" stroke-linejoin="miter" stroke-opacity="0.15" stroke-width="0.5"/>
   <polyline fill="none" points="383.09,320.4 383.09,27" stroke="#262626" stroke-dasharray="16,0" stroke-linecap="butt" stroke-linejoin="miter" stroke-opacity="0.15" stroke-width="0.5"/>
   <polyline fill="none" points="62.4,320.4 62.4,316.675" stroke="#262626" stroke-linecap="butt" stroke-linejoin="miter" stroke-width="0.5"/>
   <polyline fill="none" points="62.4,27 62.4,30.7251" stroke="#262626" stroke-linecap="butt" stroke-linejoin="miter" stroke-width="0.5"/>
   <polyline fill="none" points="126.538,320.4 126.538,316.675" stroke="#262626" stroke-linecap="butt" stroke-linejoin="miter" stroke-width="0.5"/>
   <polyline fill="none" points="126.538,27 126.538,30.7251" stroke="#262626" stroke-linecap="butt" stroke-linejoin="miter" stroke-width="0.5"/>
   <polyline fill="none" points="190.676,320.4 190.676,316.675" stroke="#262626" stroke-linecap="butt" stroke-linejoin="miter" stroke-width="0.5"/>
   <polyline fill="none" points="190.676,27 190.676,30.7251" stroke="#262626" stroke-linecap="butt" stroke-linejoin="miter" stroke-width="0.5"/>
   <polyline fill="none" points="254.814,320.4 254.814,316.675" stroke="#262626" stroke-linecap="butt" stroke-linejoin="miter" stroke-width="0.5"/>
   <polyline fill="none" points="254.814,27 254.814,30.7251" stroke="#262626" stroke-linecap="butt" stroke-linejoin="miter" stroke-width="0.5"/>
   <polyline fill="none" points="318.952,320.4 318.952,316.675" stroke="#262626" stroke-linecap="butt" stroke-linejoin="miter" stroke-width="0.5"/>
   <polyline fill="none" points="318.952,27 318.952,30.7251" stroke="#262626" stroke-linecap="butt" stroke-linejoin="miter" stroke-width="0.5"/>
   <polyline fill="none" points="383.09,320.4 383.09,316.675" stroke="#262626" stroke-linecap="butt" stroke-linejoin="miter" stroke-width="0.5"/>
   <polyline fill="none" points="383.09,27 383.09,30.7251" stroke="#262626" stroke-linecap="butt" stroke-linejoin="miter" stroke-width="0.5"/>
   <g font-family="FreeSans" font-size="11.6513" font-style="normal" font-weight="normal" transform="translate(59.4,339.15) rotate(-0,3,-10)" xml:space="preserve">
    <text fill="rgb(38,38,38)" x="0 " y="-0">0</text>
   </g>
   <g font-family="FreeSans" font-size="11.6513" font-style="normal" font-weight="normal" transform="translate(123.538,339.15) rotate(-0,3,-10)" xml:space="preserve">
    <text fill="rgb(38,38,38)" x="0 " y="-0">5</text>
   </g>
   <g font-family="FreeSans" font-size="11.6513" font-style="normal" font-weight="normal" transform="translate(184.676,339.15) rotate(-0,6,-10)" xml:space="preserve">
    <text fill="rgb(38,38,38)" x="0 6 " y="-0">10</text>
   </g>
   <g font-family="FreeSans" font-size="11.6513" font-style="normal" font-weight="normal" transform="translate(248.814,339.15) rotate(-0,6,-10)" xml:space="preserve">
    <text fill="rgb(38,38,38)" x="0 6 " y="-0">15</text>
   </g>
   <g font-family="FreeSans" font-size="11.6513" font-style="normal" font-weight="normal" transform="translate(312.952,339.15) rotate(-0,6,-10)" xml:space="preserve">
    <text fill="rgb(38,38,38)" x="0 6 " y="-0">20</text>
   </g>
   <g font-family="FreeSans" font-size="11.6513" font-style="normal" font-weight="normal" transform="translate(377.09,339.15) rotate(-0,6,-10)" xml:space="preserve">
    <text fill="rgb(38,38,38)" x="0 6 " y="-0">25</text>
   </g>
   <polyline fill="none" points="62.4,290.381 434.4,290.381" stroke="#262626" stroke-dasharray="16,0" stroke-linecap="butt" stroke-linejoin="miter" stroke-opacity="0.15" stroke-width="0.5"/>
   <polyline fill="none" points="62.4,211.996 434.4,211.996" stroke="#262626" stroke-dasharray="16,0" stroke-linecap="butt" stroke-linejoin="miter" stroke-opacity="0.15" stroke-width="0.5"/>
   <polyline fill="none" points="62.4,133.611 434.4,133.611" stroke="#262626" stroke-dasharray="16,0" stroke-linecap="butt" stroke-linejoin="miter" stroke-opacity="0.15" stroke-width="0.5"/>
   <polyline fill="none" points="62.4,55.2265 434.4,55.2265" stroke="#262626" stroke-dasharray="16,0" stroke-linecap="butt" stroke-linejoin="miter" stroke-opacity="0.15" stroke-width="0.5"/>
   <polyline fill="none" points="62.4,290.381 66.12,290.381" stroke="#262626" stroke-linecap="butt" stroke-linejoin="miter" stroke-width="0.5"/>
   <polyline fill="none" points="434.4,290.381 430.68,290.381" stroke="#262626" stroke-linecap="butt" stroke-linejoin="miter" stroke-width="0.5"/>
   <polyline fill="none" points="62.4,211.996 66.12,211.996" stroke="#262626" stroke-linecap="butt" stroke-linejoin="miter" stroke-width="0.5"/>
   <polyline fill="none" points="434.4,211.996 430.68,211.996" stroke="#262626" stroke-linecap="butt" stroke-linejoin="miter" stroke-width="0.5"/>
   <polyline fill="none" points="62.4,133.611 66.12,133.611" stroke="#262626" stroke-linecap="butt" stroke-linejoin="miter" stroke-width="0.5"/>
   <polyline fill="none" points="434.4,133.611 430.68,133.611" stroke="#262626" stroke-linecap="butt" stroke-linejoin="miter" stroke-width="0.5"/>
   <polyline fill="none" points="62.4,55.2265 66.12,55.2265" stroke="#262626" stroke-linecap="butt" stroke-linejoin="miter" stroke-width="0.5"/>
   <polyline fill="none" points="434.4,55.2265 430.68,55.2265" stroke="#262626" stroke-linecap="butt" stroke-linejoin="miter" stroke-width="0.5"/>
   <g font-family="FreeSans" font-size="11.6513" font-style="normal" font-weight="normal" transform="translate(46.5743,295.381) rotate(-0,10,-5)" xml:space="preserve">
    <text fill="rgb(38,38,38)" x="0 4 " y="-0">-2</text>
   </g>
   <g font-family="FreeSans" font-size="11.6513" font-style="normal" font-weight="normal" transform="translate(50.5743,216.996) rotate(-0,6,-5)" xml:space="preserve">
    <text fill="rgb(38,38,38)" x="0 " y="-0">0</text>
   </g>
   <g font-family="FreeSans" font-size="11.6513" font-style="normal" font-weight="normal" transform="translate(50.5743,138.611) rotate(-0,6,-5)" xml:space="preserve">
    <text fill="rgb(38,38,38)" x="0 " y="-0">2</text>
   </g>
   <g font-family="FreeSans" font-size="11.6513" font-style="normal" font-weight="normal" transform="translate(50.5743,60.2265) rotate(-0,6,-5)" xml:space="preserve">
    <text fill="rgb(38,38,38)" x="0 " y="-0">4</text>
   </g>
   <polyline fill="none" points="62.4,320.4 434.4,320.4" stroke="#262626" stroke-dasharray="16,0" stroke-linecap="square" stroke-linejoin="miter" stroke-width="0.5"/>
   <polyline fill="none" points="62.4,27 434.4,27" stroke="#262626" stroke-dasharray="16,0" stroke-linecap="square" stroke-linejoin="miter" stroke-width="0.5"/>
   <polyline fill="none" points="62.4,320.4 62.4,27" stroke="#262626" stroke-dasharray="16,0" stroke-linecap="square" stroke-linejoin="miter" stroke-width="0.5"/>
   <polyline fill="none" points="434.4,320.4 434.4,27" stroke="#262626" stroke-dasharray="16,0" stroke-linecap="square" stroke-linejoin="miter" stroke-width="0.5"/>
   <g font-family="FreeSans" font-size="12.8165" font-style="normal" font-weight="normal" transform="translate(225.9,358.15) rotate(-0,22.5,-14)" xml:space="preserve">
    <text fill="rgb(38,38,38)" x="0 8 11 21 28 31 35 41 " y="-3">Time [s]</text>
   </g>
   <g font-family="FreeSans" font-size="12.8165" font-style="normal" font-weight="normal" transform="translate(35.0743,173.7) rotate(-90,6.5,0)" xml:space="preserve">
    <text fill="rgb(38,38,38)" x="0 6 " y="-3">y1</text>
   </g>
   <g font-family="FreeSans" font-size="12.8165" font-style="normal" font-weight="bold" transform="translate(94.4,17) rotate(-0,154,0)" xml:space="preserve">
    <text fill="rgb(0,0,0)" x="0 9 13 24 32 35 42 46 50 58 66 70 78 82 86 94 99 103 111 115 123 130 133 137 147 151 158 166 174 178 182 190 198 205 213 217 221 225 229 236 244 248 255 262 269 273 280 291 295 " y="-3">Simulation of original G and indentified system G</text>
    <text fill="rgb(0,0,0)" font-size="8.97153" x="305 " y="-1">I</text>
   </g>
   <polyline fill="none" points="62.4,211.996 75.2276,211.996 75.2276,211.996 88.0552,211.996 88.0552,249.395 100.883,249.395 100.883,298.447 113.71,298.447 113.71,227.658 126.538,227.658 126.538,180.073 139.366,180.073 139.366,178.143 152.193,178.143 152.193,190.939 165.021,190.939 165.021,127.378 177.848,127.378 177.848,63.138 190.676,63.138 190.676,40.3364 203.503,40.3364 203.503,99.7084 216.331,99.7084 216.331,221.358 229.159,221.358 229.159,240.577 241.986,240.577 241.986,135.123 254.814,135.123 254.814,71.2268 267.641,71.2268 267.641,110.002 280.469,110.002 280.469,180.408 293.297,180.408 293.297,275.859 306.124,275.859 306.124,280.469 318.952,280.469 318.952,222.633 331.779,222.633 331.779,91.9127 344.607,91.9127 344.607,44.2732 357.435,44.2732 357.435,178.378 370.262,178.378 370.262,306.847 383.09,306.847 383.09,210.316 395.917,210.316 395.917,135.874 408.745,135.874 408.745,197.007 421.572,197.007 421.572,230.182 434.4,230.182 434.4,192.577" stroke="#0071bc" stroke-linecap="butt" stroke-linejoin="round" stroke-width="0.5"/>
   <polyline fill="none" points="62.4,211.996 75.2276,211.996 75.2276,212.148 88.0552,212.148 88.0552,249.404 100.883,249.404 100.883,298.739 113.71,298.739 113.71,227.364 126.538,227.364 126.538,180.13 139.366,180.13 139.366,178.13 152.193,178.13 152.193,190.601 165.021,190.601 165.021,126.532 177.848,126.532 177.848,62.768 190.676,62.768 190.676,40.5301 203.503,40.5301 203.503,99.7125 216.331,99.7125 216.331,221.204 229.159,221.204 229.159,240.5 241.986,240.5 241.986,135.465 254.814,135.465 254.814,71.8033 267.641,71.8033 267.641,110.287 280.469,110.287 280.469,179.712 293.297,179.712 293.297,275.881 306.124,275.881 306.124,281.084 318.952,281.084 318.952,223.408 331.779,223.408 331.779,91.7479 344.607,91.7479 344.607,43.6897 357.435,43.6897 357.435,178.073 370.262,178.073 370.262,307.064 383.09,307.064 383.09,210.226 395.917,210.226 395.917,136.411 408.745,136.411 408.745,197.738 421.572,197.738 421.572,229.892 434.4,229.892 434.4,191.633" stroke="#d85218" stroke-linecap="butt" stroke-linejoin="round" stroke-width="0.5"/>
   <polyline fill="none" points="62.4,249.395 75.2276,186.25 88.0552,230.098 100.883,195.959 113.71,214.576 126.538,179.88 139.366,194.775 152.193,178.069 165.021,182.96 177.848,222.893 190.676,214.623 203.503,199.504 216.331,197.034 229.159,201.924 241.986,179.752 254.814,244.558 267.641,210.713 280.469,238.582 293.297,180.645 306.124,180.519 318.952,203.713 331.779,237.266 344.607,182.244 357.435,225.213 370.262,222.78 383.09,202.456 395.917,188.971 408.745,243.514 421.572,210.841 434.4,183.304" stroke="#999999" stroke-dasharray="8,3,2,3" stroke-linecap="butt" stroke-linejoin="round" stroke-width="0.5"/>
  </g>
  <clipPath id="cp00480360">
   <polygon points="0,360 480,360 480,0 0,0"/>
  </clipPath>
  <g clip-path="url(#cp00480360)">
   <polygon fill="#ffffff" points="382.347,82.0316 426.389,82.0316 426.389,35.0105 382.347,35.0105" shape-rendering="crispEdges"/>
   <polyline fill="none" points="382.347,82.0316 426.389,82.0316" stroke="#262626" stroke-dasharray="16,0" stroke-linecap="square" stroke-linejoin="miter" stroke-width="0.5"/>
   <polyline fill="none" points="382.347,35.0105 426.389,35.0105" stroke="#262626" stroke-dasharray="16,0" stroke-linecap="square" stroke-linejoin="miter" stroke-width="0.5"/>
   <polyline fill="none" points="382.347,82.0316 382.347,35.0105" stroke="#262626" stroke-dasharray="16,0" stroke-linecap="square" stroke-linejoin="miter" stroke-width="0.5"/>
   <polyline fill="none" points="426.389,82.0316 426.389,35.0105" stroke="#262626" stroke-dasharray="16,0" stroke-linecap="square" stroke-linejoin="miter" stroke-width="0.5"/>
   <polyline fill="none" points="386.353,44.0158 406.379,44.0158" stroke="#0071bc" stroke-linecap="butt" stroke-linejoin="round" stroke-width="0.5"/>
   <g font-family="FreeSans" font-size="10.4862" font-style="normal" font-weight="normal" transform="translate(410.384,49.0158) rotate(-0,-0,-5)" xml:space="preserve">
    <text fill="rgb(0,0,0)" x="0 " y="-1">G</text>
   </g>
   <polyline fill="none" points="386.353,58.5211 406.379,58.5211" stroke="#d85218" stroke-linecap="butt" stroke-linejoin="round" stroke-width="0.5"/>
   <g font-family="FreeSans" font-size="10.4862" font-style="normal" font-weight="normal" transform="translate(410.384,64.0211) rotate(-0,-0,-5.5)" xml:space="preserve">
    <text fill="rgb(0,0,0)" x="0 " y="-2">G</text>
    <text fill="rgb(0,0,0)" font-size="7.34034" x="8 " y="-0">I</text>
   </g>
   <polyline fill="none" points="386.353,73.0263 406.379,73.0263" stroke="#999999" stroke-dasharray="8,3,2,3" stroke-linecap="butt" stroke-linejoin="round" stroke-width="0.5"/>
   <g font-family="FreeSans" font-size="10.4862" font-style="normal" font-weight="normal" transform="translate(410.384,78.0263) rotate(-0,-0,-5)" xml:space="preserve">
    <text fill="rgb(0,0,0)" x="0 6 " y="-1">u1</text>
   </g>
  </g>
 </g>
</svg>
