<?xml version='1.0' encoding='UTF-8' standalone='no'?>
<svg height="360pt" viewBox="0 0 480 360" width="480pt" xmlns="http://www.w3.org/2000/svg" xmlns:xlink="http://www.w3.org/1999/xlink">
 <title>Figure 1</title>
 <desc>
Creator: GL2PS 1.4.2, (C) 1999-2020 C. Geuzaine
For: Octave
CreationDate: Sun Jun  7 18:59:14 2026
</desc>
 <defs/>
 <polygon fill="#ffffff" points="0,0 480,0 480,360 0,360"/>
 <g>
  <polygon fill="#ffffff" points="0,360 480,360 480,0 0,0" shape-rendering="crispEdges"/>
  <clipPath id="cp00480360">
   <polygon points="0,360 480,360 480,0 0,0"/>
  </clipPath>
  <g clip-path="url(#cp00480360)">
   <polygon fill="#ffffff" points="62.4,320.4 434.4,320.4 434.4,27 62.4,27" shape-rendering="crispEdges"/>
   <polyline fill="none" points="62.4,320.4 62.4,27" stroke="#262626" stroke-dasharray="16,0" stroke-linecap="butt" stroke-linejoin="miter" stroke-opacity="0.15" stroke-width="0.5"/>
   <polyline fill="none" points="126.538,320.4 126.538,27" stroke="#262626" stroke-dasharray="16,0" stroke-linecap="butt" stroke-linejoin="miter" stroke-opacity="0.15" stroke-width="0.5"/>
   <polyline fill="none" points="190.676,320.4 190.676,27" stroke="#262626" stroke-dasharray="16,0" stroke-linecap="butt" stroke-linejoin="miter" stroke-opacity="0.15" stroke-width="0.5"/>
   <polyline fill="none" points="254.814,320.4 254.814,27" stroke="#262626" stroke-dasharray="16,0" stroke-linecap="butt" stroke-linejoin="miter" stroke-opacity="0.15" stroke-width="0.5"/>
   <polyline fill="none" points="318.952,320.4 318.952,27" stroke="#262626" stroke-dasharray="16,0" stroke-linecap="butt" stroke-linejoin="miter" stroke-opacity="0.15" stroke-width="0.5"/>
   <polyline fill="none" points="383.09,320.4 383.09,27" stroke="#262626" stroke-dasharray="16,0" stroke-linecap="butt" stroke-linejoin="miter" stroke-opacity="0.15" stroke-width="0.5"/>
   <polyline fill="none" points="62.4,320.4 62.4,316.675" stroke="#262626" stroke-linecap="butt" stroke-linejoin="miter" stroke-width="0.5"/>
   <polyline fill="none" points="62.4,27 62.4,30.7251" stroke="#262626" stroke-linecap="butt" stroke-linejoin="miter" stroke-width="0.5"/>
   <polyline fill="none" points="126.538,320.4 126.538,316.675" stroke="#262626" stroke-linecap="butt" stroke-linejoin="miter" stroke-width="0.5"/>
   <polyline fill="none" points="126.538,27 126.538,30.7251" stroke="#262626" stroke-linecap="butt" stroke-linejoin="miter" stroke-width="0.5"/>
   <polyline fill="none" points="190.676,320.4 190.676,316.675" stroke="#262626" stroke-linecap="butt" stroke-linejoin="miter" stroke-width="0.5"/>
   <polyline fill="none" points="190.676,27 190.676,30.7251" stroke="#262626" stroke-linecap="butt" stroke-linejoin="miter" stroke-width="0.5"/>
   <polyline fill="none" points="254.814,320.4 254.814,316.675" stroke="#262626" stroke-linecap="butt" stroke-linejoin="miter" stroke-width="0.5"/>
   <polyline fill="none" points="254.814,27 254.814,30.7251" stroke="#262626" stroke-linecap="butt" stroke-linejoin="miter" stroke-width="0.5"/>
   <polyline fill="none" points="318.952,320.4 318.952,316.675" stroke="#262626" stroke-linecap="butt" stroke-linejoin="miter" stroke-width="0.5"/>
   <polyline fill="none" points="318.952,27 318.952,30.7251" stroke="#262626" stroke-linecap="butt" stroke-linejoin="miter" stroke-width="0.5"/>
   <polyline fill="none" points="383.09,320.4 383.09,316.675" stroke="#262626" stroke-linecap="butt" stroke-linejoin="miter" stroke-width="0.5"/>
   <polyline fill="none" points="383.09,27 383.09,30.7251" stroke="#262626" stroke-linecap="butt" stroke-linejoin="miter" stroke-width="0.5"/>
   <g font-family="FreeSans" font-size="11.6513" font-style="normal" font-weight="normal" transform="translate(59.4,339.15) rotate(-0,3,-10)" xml:space="preserve">
    <text fill="rgb(38,38,38)" x="0 " y="-0">0</text>
   </g>
   <g font-family="FreeSans" font-size="11.6513" font-style="normal" font-weight="normal" transform="translate(123.538,339.15) rotate(-0,3,-10)" xml:space="preserve">
    <text fill="rgb(38,38,38)" x="0 " y="-0">5</text>
   </g>
   <g font-family="FreeSans" font-size="11.6513" font-style="normal" font-weight="normal" transform="translate(184.676,339.15) rotate(-0,6,-10)" xml:space="preserve">
    <text fill="rgb(38,38,38)" x="0 6 " y="-0">10</text>
   </g>
   <g font-family="FreeSans" font-size="11.6513" font-style="normal" font-weight="normal" transform="translate(248.814,339.15) rotate(-0,6,-10)" xml:space="preserve">
    <text fill="rgb(38,38,38)" x="0 6 " y="-0">15</text>
   </g>
   <g font-family="FreeSans" font-size="11.6513" font-style="normal" font-weight="normal" transform="translate(312.952,339.15) rotate(-0,6,-10)" xml:space="preserve">
    <text fill="rgb(38,38,38)" x="0 6 " y="-0">20</text>
   </g>
   <g font-family="FreeSans" font-size="11.6513" font-style="normal" font-weight="normal" transform="translate(377.09,339.15) rotate(-0,6,-10)" xml:space="preserve">
    <text fill="rgb(38,38,38)" x="0 6 " y="-0">25</text>
   </g>
   <polyline fill="none" points="62.4,308.512 434.4,308.512" stroke="#262626" stroke-dasharray="16,0" stroke-linecap="butt" stroke-linejoin="miter" stroke-opacity="0.15" stroke-width="0.5"/>
   <polyline fill="none" points="62.4,244.116 434.4,244.116" stroke="#262626" stroke-dasharray="16,0" stroke-linecap="butt" stroke-linejoin="miter" stroke-opacity="0.15" stroke-width="0.5"/>
   <polyline fill="none" points="62.4,179.72 434.4,179.72" stroke="#262626" stroke-dasharray="16,0" stroke-linecap="butt" stroke-linejoin="miter" stroke-opacity="0.15" stroke-width="0.5"/>
   <polyline fill="none" points="62.4,115.324 434.4,115.324" stroke="#262626" stroke-dasharray="16,0" stroke-linecap="butt" stroke-linejoin="miter" stroke-opacity="0.15" stroke-width="0.5"/>
   <polyline fill="none" points="62.4,50.9286 434.4,50.9286" stroke="#262626" stroke-dasharray="16,0" stroke-linecap="butt" stroke-linejoin="miter" stroke-opacity="0.15" stroke-width="0.5"/>
   <polyline fill="none" points="62.4,308.512 66.12,308.512" stroke="#262626" stroke-linecap="butt" stroke-linejoin="miter" stroke-width="0.5"/>
   <polyline fill="none" points="434.4,308.512 430.68,308.512" stroke="#262626" stroke-linecap="butt" stroke-linejoin="miter" stroke-width="0.5"/>
   <polyline fill="none" points="62.4,244.116 66.12,244.116" stroke="#262626" stroke-linecap="butt" stroke-linejoin="miter" stroke-width="0.5"/>
   <polyline fill="none" points="434.4,244.116 430.68,244.116" stroke="#262626" stroke-linecap="butt" stroke-linejoin="miter" stroke-width="0.5"/>
   <polyline fill="none" points="62.4,179.72 66.12,179.72" stroke="#262626" stroke-linecap="butt" stroke-linejoin="miter" stroke-width="0.5"/>
   <polyline fill="none" points="434.4,179.72 430.68,179.72" stroke="#262626" stroke-linecap="butt" stroke-linejoin="miter" stroke-width="0.5"/>
   <polyline fill="none" points="62.4,115.324 66.12,115.324" stroke="#262626" stroke-linecap="butt" stroke-linejoin="miter" stroke-width="0.5"/>
   <polyline fill="none" points="434.4,115.324 430.68,115.324" stroke="#262626" stroke-linecap="butt" stroke-linejoin="miter" stroke-width="0.5"/>
   <polyline fill="none" points="62.4,50.9286 66.12,50.9286" stroke="#262626" stroke-linecap="butt" stroke-linejoin="miter" stroke-width="0.5"/>
   <polyline fill="none" points="434.4,50.9286 430.68,50.9286" stroke="#262626" stroke-linecap="butt" stroke-linejoin="miter" stroke-width="0.5"/>
   <g font-family="FreeSans" font-size="11.6513" font-style="normal" font-weight="normal" transform="translate(46.5743,313.512) rotate(-0,10,-5)" xml:space="preserve">
    <text fill="rgb(38,38,38)" x="0 4 " y="-0">-4</text>
   </g>
   <g font-family="FreeSans" font-size="11.6513" font-style="normal" font-weight="normal" transform="translate(46.5743,249.116) rotate(-0,10,-5)" xml:space="preserve">
    <text fill="rgb(38,38,38)" x="0 4 " y="-0">-2</text>
   </g>
   <g font-family="FreeSans" font-size="11.6513" font-style="normal" font-weight="normal" transform="translate(50.5743,184.72) rotate(-0,6,-5)" xml:space="preserve">
    <text fill="rgb(38,38,38)" x="0 " y="-0">0</text>
   </g>
   <g font-family="FreeSans" font-size="11.6513" font-style="normal" font-weight="normal" transform="translate(50.5743,120.324) rotate(-0,6,-5)" xml:space="preserve">
    <text fill="rgb(38,38,38)" x="0 " y="-0">2</text>
   </g>
   <g font-family="FreeSans" font-size="11.6513" font-style="normal" font-weight="normal" transform="translate(50.5743,55.9286) rotate(-0,6,-5)" xml:space="preserve">
    <text fill="rgb(38,38,38)" x="0 " y="-0">4</text>
   </g>
   <polyline fill="none" points="62.4,320.4 434.4,320.4" stroke="#262626" stroke-dasharray="16,0" stroke-linecap="square" stroke-linejoin="miter" stroke-width="0.5"/>
   <polyline fill="none" points="62.4,27 434.4,27" stroke="#262626" stroke-dasharray="16,0" stroke-linecap="square" stroke-linejoin="miter" stroke-width="0.5"/>
   <polyline fill="none" points="62.4,320.4 62.4,27" stroke="#262626" stroke-dasharray="16,0" stroke-linecap="square" stroke-linejoin="miter" stroke-width="0.5"/>
   <polyline fill="none" points="434.4,320.4 434.4,27" stroke="#262626" stroke-dasharray="16,0" stroke-linecap="square" stroke-linejoin="miter" stroke-width="0.5"/>
   <g font-family="FreeSans" font-size="12.8165" font-style="normal" font-weight="normal" transform="translate(225.9,358.15) rotate(-0,22.5,-14)" xml:space="preserve">
    <text fill="rgb(38,38,38)" x="0 8 11 21 28 31 35 41 " y="-3">Time [s]</text>
   </g>
   <g font-family="FreeSans" font-size="12.8165" font-style="normal" font-weight="normal" transform="translate(35.0743,173.7) rotate(-90,6.5,0)" xml:space="preserve">
    <text fill="rgb(38,38,38)" x="0 6 " y="-3">y1</text>
   </g>
   <g font-family="FreeSans" font-size="12.8165" font-style="normal" font-weight="bold" transform="translate(94.4,17) rotate(-0,154,0)" xml:space="preserve">
    <text fill="rgb(0,0,0)" x="0 9 13 24 32 35 42 46 50 58 66 70 78 82 86 94 99 103 111 115 123 130 133 137 147 151 158 166 174 178 182 190 198 205 213 217 221 225 229 236 244 248 255 262 269 273 280 291 295 " y="-3">Simulation of original G and indentified system G</text>
    <text fill="rgb(0,0,0)" font-size="8.97153" x="305 " y="-1">I</text>
   </g>
   <polyline fill="none" points="62.4,179.72 75.2276,179.72 75.2276,179.72 88.0552,179.72 88.0552,194.521 100.883,194.521 100.883,240.975 113.71,240.975 113.71,285.288 126.538,285.288 126.538,275.703 139.366,275.703 139.366,192.82 152.193,192.82 152.193,166.308 165.021,166.308 165.021,241.46 177.848,241.46 177.848,306.948 190.676,306.948 190.676,217.954 203.503,217.954 203.503,117.514 216.331,117.514 216.331,110.256 229.159,110.256 229.159,116.187 241.986,116.187 241.986,117.969 254.814,117.969 254.814,121.967 267.641,121.967 267.641,136.628 280.469,136.628 280.469,180.703 293.297,180.703 293.297,199.174 306.124,199.174 306.124,227.529 318.952,227.529 318.952,297.65 331.779,297.65 331.779,286.299 344.607,286.299 344.607,117.923 357.435,117.923 357.435,40.5538 370.262,40.5538 370.262,176.346 383.09,176.346 383.09,249.759 395.917,249.759 395.917,192.469 408.745,192.469 408.745,171.243 421.572,171.243 421.572,213.632 434.4,213.632 434.4,290.348" stroke="#0071bc" stroke-linecap="butt" stroke-linejoin="round" stroke-width="0.5"/>
   <polyline fill="none" points="62.4,179.72 75.2276,179.72 75.2276,179.707 88.0552,179.707 88.0552,194.468 100.883,194.468 100.883,240.934 113.71,240.934 113.71,285.29 126.538,285.29 126.538,275.775 139.366,275.775 139.366,192.793 152.193,192.793 152.193,166.204 165.021,166.204 165.021,241.408 177.848,241.408 177.848,307.064 190.676,307.064 190.676,217.974 203.503,217.974 203.503,117.427 216.331,117.427 216.331,110.3 229.159,110.3 229.159,116.255 241.986,116.255 241.986,117.939 254.814,117.939 254.814,121.906 267.641,121.906 267.641,136.595 280.469,136.595 280.469,180.769 293.297,180.769 293.297,199.18 306.124,199.18 306.124,227.41 318.952,227.41 318.952,297.641 331.779,297.641 331.779,286.512 344.607,286.512 344.607,117.969 357.435,117.969 357.435,40.3364 370.262,40.3364 370.262,176.34 383.09,176.34 383.09,249.892 395.917,249.892 395.917,192.398 408.745,192.398 408.745,171.141 421.572,171.141 421.572,213.602 434.4,213.602 434.4,290.433" stroke="#d85218" stroke-linecap="butt" stroke-linejoin="round" stroke-width="0.5"/>
   <polyline fill="none" points="62.4,194.521 75.2276,196.572 88.0552,205.132 100.883,173.166 113.71,184.886 126.538,186.076 139.366,207.27 152.193,170.146 165.021,178.321 177.848,178.437 190.676,149.648 203.503,164.472 216.331,173.64 229.159,167.078 241.986,189.682 254.814,176.996 267.641,189.425 280.469,211.195 293.297,205.855 306.124,154.183 318.952,156.445 331.779,196.517 344.607,166.833 357.435,170.64 370.262,206.8 383.09,176.061 395.917,207.158 408.745,186.709 421.572,202.379 434.4,175.091" stroke="#999999" stroke-dasharray="8,3,2,3" stroke-linecap="butt" stroke-linejoin="round" stroke-width="0.5"/>
  </g>
  <clipPath id="cp00480360">
   <polygon points="0,360 480,360 480,0 0,0"/>
  </clipPath>
  <g clip-path="url(#cp00480360)">
   <polygon fill="#ffffff" points="382.347,82.0316 426.389,82.0316 426.389,35.0105 382.347,35.0105" shape-rendering="crispEdges"/>
   <polyline fill="none" points="382.347,82.0316 426.389,82.0316" stroke="#262626" stroke-dasharray="16,0" stroke-linecap="square" stroke-linejoin="miter" stroke-width="0.5"/>
   <polyline fill="none" points="382.347,35.0105 426.389,35.0105" stroke="#262626" stroke-dasharray="16,0" stroke-linecap="square" stroke-linejoin="miter" stroke-width="0.5"/>
   <polyline fill="none" points="382.347,82.0316 382.347,35.0105" stroke="#262626" stroke-dasharray="16,0" stroke-linecap="square" stroke-linejoin="miter" stroke-width="0.5"/>
   <polyline fill="none" points="426.389,82.0316 426.389,35.0105" stroke="#262626" stroke-dasharray="16,0" stroke-linecap="square" stroke-linejoin="miter" stroke-width="0.5"/>
   <polyline fill="none" points="386.353,44.0158 406.379,44.0158" stroke="#0071bc" stroke-linecap="butt" stroke-linejoin="round" stroke-width="0.5"/>
   <g font-family="FreeSans" font-size="10.4862" font-style="normal" font-weight="normal" transform="translate(410.384,49.0158) rotate(-0,-0,-5)" xml:space="preserve">
    <text fill="rgb(0,0,0)" x="0 " y="-1">G</text>
   </g>
   <polyline fill="none" points="386.353,58.5211 406.379,58.5211" stroke="#d85218" stroke-linecap="butt" stroke-linejoin="round" stroke-width="0.5"/>
   <g font-family="FreeSans" font-size="10.4862" font-style="normal" font-weight="normal" transform="translate(410.384,64.0211) rotate(-0,-0,-5.5)" xml:space="preserve">
    <text fill="rgb(0,0,0)" x="0 " y="-2">G</text>
    <text fill="rgb(0,0,0)" font-size="7.34034" x="8 " y="-0">I</text>
   </g>
   <polyline fill="none" points="386.353,73.0263 406.379,73.0263" stroke="#999999" stroke-dasharray="8,3,2,3" stroke-linecap="butt" stroke-linejoin="round" stroke-width="0.5"/>
   <g font-family="FreeSans" font-size="10.4862" font-style="normal" font-weight="normal" transform="translate(410.384,78.0263) rotate(-0,-0,-5)" xml:space="preserve">
    <text fill="rgb(0,0,0)" x="0 6 " y="-1">u1</text>
   </g>
  </g>
 </g>
</svg>
