<?xml version='1.0' encoding='UTF-8' standalone='no'?>
<svg height="360pt" viewBox="0 0 480 360" width="480pt" xmlns="http://www.w3.org/2000/svg" xmlns:xlink="http://www.w3.org/1999/xlink">
 <title>Figure 1</title>
 <desc>
Creator: GL2PS 1.4.2, (C) 1999-2020 C. Geuzaine
For: Octave
CreationDate: Sun Jun  7 19:46:11 2026
</desc>
 <defs/>
 <polygon fill="#ffffff" points="0,0 480,0 480,360 0,360"/>
 <g>
  <polygon fill="#ffffff" points="0,360 480,360 480,0 0,0" shape-rendering="crispEdges"/>
  <clipPath id="cp00480360">
   <polygon points="0,360 480,360 480,0 0,0"/>
  </clipPath>
  <g clip-path="url(#cp00480360)">
   <polygon fill="#ffffff" points="62.4,320.4 434.4,320.4 434.4,27 62.4,27" shape-rendering="crispEdges"/>
   <polyline fill="none" points="62.4,320.4 62.4,27" stroke="#262626" stroke-dasharray="16,0" stroke-linecap="butt" stroke-linejoin="miter" stroke-opacity="0.15" stroke-width="0.5"/>
   <polyline fill="none" points="126.538,320.4 126.538,27" stroke="#262626" stroke-dasharray="16,0" stroke-linecap="butt" stroke-linejoin="miter" stroke-opacity="0.15" stroke-width="0.5"/>
   <polyline fill="none" points="190.676,320.4 190.676,27" stroke="#262626" stroke-dasharray="16,0" stroke-linecap="butt" stroke-linejoin="miter" stroke-opacity="0.15" stroke-width="0.5"/>
   <polyline fill="none" points="254.814,320.4 254.814,27" stroke="#262626" stroke-dasharray="16,0" stroke-linecap="butt" stroke-linejoin="miter" stroke-opacity="0.15" stroke-width="0.5"/>
   <polyline fill="none" points="318.952,320.4 318.952,27" stroke="#262626" stroke-dasharray="16,0" stroke-linecap="butt" stroke-linejoin="miter" stroke-opacity="0.15" stroke-width="0.5"/>
   <polyline fill="none" points="383.09,320.4 383.09,27" stroke="#262626" stroke-dasharray="16,0" stroke-linecap="butt" stroke-linejoin="miter" stroke-opacity="0.15" stroke-width="0.5"/>
   <polyline fill="none" points="62.4,320.4 62.4,316.675" stroke="#262626" stroke-linecap="butt" stroke-linejoin="miter" stroke-width="0.5"/>
   <polyline fill="none" points="62.4,27 62.4,30.7251" stroke="#262626" stroke-linecap="butt" stroke-linejoin="miter" stroke-width="0.5"/>
   <polyline fill="none" points="126.538,320.4 126.538,316.675" stroke="#262626" stroke-linecap="butt" stroke-linejoin="miter" stroke-width="0.5"/>
   <polyline fill="none" points="126.538,27 126.538,30.7251" stroke="#262626" stroke-linecap="butt" stroke-linejoin="miter" stroke-width="0.5"/>
   <polyline fill="none" points="190.676,320.4 190.676,316.675" stroke="#262626" stroke-linecap="butt" stroke-linejoin="miter" stroke-width="0.5"/>
   <polyline fill="none" points="190.676,27 190.676,30.7251" stroke="#262626" stroke-linecap="butt" stroke-linejoin="miter" stroke-width="0.5"/>
   <polyline fill="none" points="254.814,320.4 254.814,316.675" stroke="#262626" stroke-linecap="butt" stroke-linejoin="miter" stroke-width="0.5"/>
   <polyline fill="none" points="254.814,27 254.814,30.7251" stroke="#262626" stroke-linecap="butt" stroke-linejoin="miter" stroke-width="0.5"/>
   <polyline fill="none" points="318.952,320.4 318.952,316.675" stroke="#262626" stroke-linecap="butt" stroke-linejoin="miter" stroke-width="0.5"/>
   <polyline fill="none" points="318.952,27 318.952,30.7251" stroke="#262626" stroke-linecap="butt" stroke-linejoin="miter" stroke-width="0.5"/>
   <polyline fill="none" points="383.09,320.4 383.09,316.675" stroke="#262626" stroke-linecap="butt" stroke-linejoin="miter" stroke-width="0.5"/>
   <polyline fill="none" points="383.09,27 383.09,30.7251" stroke="#262626" stroke-linecap="butt" stroke-linejoin="miter" stroke-width="0.5"/>
   <g font-family="FreeSans" font-size="11.6513" font-style="normal" font-weight="normal" transform="translate(59.4,339.15) rotate(-0,3,-10)" xml:space="preserve">
    <text fill="rgb(38,38,38)" x="0 " y="-0">0</text>
   </g>
   <g font-family="FreeSans" font-size="11.6513" font-style="normal" font-weight="normal" transform="translate(123.538,339.15) rotate(-0,3,-10)" xml:space="preserve">
    <text fill="rgb(38,38,38)" x="0 " y="-0">5</text>
   </g>
   <g font-family="FreeSans" font-size="11.6513" font-style="normal" font-weight="normal" transform="translate(184.676,339.15) rotate(-0,6,-10)" xml:space="preserve">
    <text fill="rgb(38,38,38)" x="0 6 " y="-0">10</text>
   </g>
   <g font-family="FreeSans" font-size="11.6513" font-style="normal" font-weight="normal" transform="translate(248.814,339.15) rotate(-0,6,-10)" xml:space="preserve">
    <text fill="rgb(38,38,38)" x="0 6 " y="-0">15</text>
   </g>
   <g font-family="FreeSans" font-size="11.6513" font-style="normal" font-weight="normal" transform="translate(312.952,339.15) rotate(-0,6,-10)" xml:space="preserve">
    <text fill="rgb(38,38,38)" x="0 6 " y="-0">20</text>
   </g>
   <g font-family="FreeSans" font-size="11.6513" font-style="normal" font-weight="normal" transform="translate(377.09,339.15) rotate(-0,6,-10)" xml:space="preserve">
    <text fill="rgb(38,38,38)" x="0 6 " y="-0">25</text>
   </g>
   <polyline fill="none" points="62.4,267.108 434.4,267.108" stroke="#262626" stroke-dasharray="16,0" stroke-linecap="butt" stroke-linejoin="miter" stroke-opacity="0.15" stroke-width="0.5"/>
   <polyline fill="none" points="62.4,201.237 434.4,201.237" stroke="#262626" stroke-dasharray="16,0" stroke-linecap="butt" stroke-linejoin="miter" stroke-opacity="0.15" stroke-width="0.5"/>
   <polyline fill="none" points="62.4,135.366 434.4,135.366" stroke="#262626" stroke-dasharray="16,0" stroke-linecap="butt" stroke-linejoin="miter" stroke-opacity="0.15" stroke-width="0.5"/>
   <polyline fill="none" points="62.4,69.4943 434.4,69.4943" stroke="#262626" stroke-dasharray="16,0" stroke-linecap="butt" stroke-linejoin="miter" stroke-opacity="0.15" stroke-width="0.5"/>
   <polyline fill="none" points="62.4,267.108 66.12,267.108" stroke="#262626" stroke-linecap="butt" stroke-linejoin="miter" stroke-width="0.5"/>
   <polyline fill="none" points="434.4,267.108 430.68,267.108" stroke="#262626" stroke-linecap="butt" stroke-linejoin="miter" stroke-width="0.5"/>
   <polyline fill="none" points="62.4,201.237 66.12,201.237" stroke="#262626" stroke-linecap="butt" stroke-linejoin="miter" stroke-width="0.5"/>
   <polyline fill="none" points="434.4,201.237 430.68,201.237" stroke="#262626" stroke-linecap="butt" stroke-linejoin="miter" stroke-width="0.5"/>
   <polyline fill="none" points="62.4,135.366 66.12,135.366" stroke="#262626" stroke-linecap="butt" stroke-linejoin="miter" stroke-width="0.5"/>
   <polyline fill="none" points="434.4,135.366 430.68,135.366" stroke="#262626" stroke-linecap="butt" stroke-linejoin="miter" stroke-width="0.5"/>
   <polyline fill="none" points="62.4,69.4943 66.12,69.4943" stroke="#262626" stroke-linecap="butt" stroke-linejoin="miter" stroke-width="0.5"/>
   <polyline fill="none" points="434.4,69.4943 430.68,69.4943" stroke="#262626" stroke-linecap="butt" stroke-linejoin="miter" stroke-width="0.5"/>
   <g font-family="FreeSans" font-size="11.6513" font-style="normal" font-weight="normal" transform="translate(46.5743,272.108) rotate(-0,10,-5)" xml:space="preserve">
    <text fill="rgb(38,38,38)" x="0 4 " y="-0">-2</text>
   </g>
   <g font-family="FreeSans" font-size="11.6513" font-style="normal" font-weight="normal" transform="translate(50.5743,206.237) rotate(-0,6,-5)" xml:space="preserve">
    <text fill="rgb(38,38,38)" x="0 " y="-0">0</text>
   </g>
   <g font-family="FreeSans" font-size="11.6513" font-style="normal" font-weight="normal" transform="translate(50.5743,140.366) rotate(-0,6,-5)" xml:space="preserve">
    <text fill="rgb(38,38,38)" x="0 " y="-0">2</text>
   </g>
   <g font-family="FreeSans" font-size="11.6513" font-style="normal" font-weight="normal" transform="translate(50.5743,74.4943) rotate(-0,6,-5)" xml:space="preserve">
    <text fill="rgb(38,38,38)" x="0 " y="-0">4</text>
   </g>
   <polyline fill="none" points="62.4,320.4 434.4,320.4" stroke="#262626" stroke-dasharray="16,0" stroke-linecap="square" stroke-linejoin="miter" stroke-width="0.5"/>
   <polyline fill="none" points="62.4,27 434.4,27" stroke="#262626" stroke-dasharray="16,0" stroke-linecap="square" stroke-linejoin="miter" stroke-width="0.5"/>
   <polyline fill="none" points="62.4,320.4 62.4,27" stroke="#262626" stroke-dasharray="16,0" stroke-linecap="square" stroke-linejoin="miter" stroke-width="0.5"/>
   <polyline fill="none" points="434.4,320.4 434.4,27" stroke="#262626" stroke-dasharray="16,0" stroke-linecap="square" stroke-linejoin="miter" stroke-width="0.5"/>
   <g font-family="FreeSans" font-size="12.8165" font-style="normal" font-weight="normal" transform="translate(225.9,358.15) rotate(-0,22.5,-14)" xml:space="preserve">
    <text fill="rgb(38,38,38)" x="0 8 11 21 28 31 35 41 " y="-3">Time [s]</text>
   </g>
   <g font-family="FreeSans" font-size="12.8165" font-style="normal" font-weight="normal" transform="translate(35.0743,173.7) rotate(-90,6.5,0)" xml:space="preserve">
    <text fill="rgb(38,38,38)" x="0 6 " y="-3">y1</text>
   </g>
   <g font-family="FreeSans" font-size="12.8165" font-style="normal" font-weight="bold" transform="translate(94.4,17) rotate(-0,154,0)" xml:space="preserve">
    <text fill="rgb(0,0,0)" x="0 9 13 24 32 35 42 46 50 58 66 70 78 82 86 94 99 103 111 115 123 130 133 137 147 151 158 166 174 178 182 190 198 205 213 217 221 225 229 236 244 248 255 262 269 273 280 291 295 " y="-3">Simulation of original G and indentified system G</text>
    <text fill="rgb(0,0,0)" font-size="8.97153" x="305 " y="-1">I</text>
   </g>
   <polyline fill="none" points="62.4,201.237 75.2276,201.237 75.2276,201.237 88.0552,201.237 88.0552,192.946 100.883,192.946 100.883,188.02 113.71,188.02 113.71,239.485 126.538,239.485 126.538,278.87 139.366,278.87 139.366,225.014 152.193,225.014 152.193,178.301 165.021,178.301 165.021,168.719 177.848,168.719 177.848,162.214 190.676,162.214 190.676,136.922 203.503,136.922 203.503,174.299 216.331,174.299 216.331,231.213 229.159,231.213 229.159,169.332 241.986,169.332 241.986,40.4577 254.814,40.4577 254.814,46.4111 267.641,46.4111 267.641,207.139 280.469,207.139 280.469,226.594 293.297,226.594 293.297,130.515 306.124,130.515 306.124,59.9626 318.952,59.9626 318.952,165.778 331.779,165.778 331.779,289.079 344.607,289.079 344.607,216.122 357.435,216.122 357.435,187.982 370.262,187.982 370.262,273.32 383.09,273.32 383.09,307.064 395.917,307.064 395.917,248.161 408.745,248.161 408.745,166.766 421.572,166.766 421.572,149.82 434.4,149.82 434.4,247.636" stroke="#0071bc" stroke-linecap="butt" stroke-linejoin="round" stroke-width="0.5"/>
   <polyline fill="none" points="62.4,201.237 75.2276,201.237 75.2276,201.246 88.0552,201.246 88.0552,192.896 100.883,192.896 100.883,188.052 113.71,188.052 113.71,239.618 126.538,239.618 126.538,278.779 139.366,278.779 139.366,224.925 152.193,224.925 152.193,178.227 165.021,178.227 165.021,168.69 177.848,168.69 177.848,162.148 190.676,162.148 190.676,136.997 203.503,136.997 203.503,174.52 216.331,174.52 216.331,231.227 229.159,231.227 229.159,169.177 241.986,169.177 241.986,40.3364 254.814,40.3364 254.814,46.7868 267.641,46.7868 267.641,207.307 280.469,207.307 280.469,226.688 293.297,226.688 293.297,130.473 306.124,130.473 306.124,59.9861 318.952,59.9861 318.952,166.072 331.779,166.072 331.779,289.063 344.607,289.063 344.607,216.188 357.435,216.188 357.435,188.135 370.262,188.135 370.262,273.223 383.09,273.223 383.09,306.891 395.917,306.891 395.917,248.157 408.745,248.157 408.745,166.637 421.572,166.637 421.572,149.841 434.4,149.841 434.4,247.611" stroke="#d85218" stroke-linecap="butt" stroke-linejoin="round" stroke-width="0.5"/>
   <polyline fill="none" points="62.4,192.946 75.2276,212.893 88.0552,221.098 100.883,191.828 113.71,211.054 126.538,193.399 139.366,192.291 152.193,177.799 165.021,201.773 177.848,214.778 190.676,186.266 203.503,174.518 216.331,169.245 229.159,224.282 241.986,171.048 254.814,206.633 267.641,177.681 280.469,200.202 293.297,225.723 306.124,169.653 318.952,226.625 331.779,227.891 344.607,204.231 357.435,208.294 370.262,206.93 383.09,178.24 395.917,224.294 408.745,195.005 421.572,202.22 434.4,183.349" stroke="#999999" stroke-dasharray="8,3,2,3" stroke-linecap="butt" stroke-linejoin="round" stroke-width="0.5"/>
  </g>
  <clipPath id="cp00480360">
   <polygon points="0,360 480,360 480,0 0,0"/>
  </clipPath>
  <g clip-path="url(#cp00480360)">
   <polygon fill="#ffffff" points="382.347,82.0316 426.389,82.0316 426.389,35.0105 382.347,35.0105" shape-rendering="crispEdges"/>
   <polyline fill="none" points="382.347,82.0316 426.389,82.0316" stroke="#262626" stroke-dasharray="16,0" stroke-linecap="square" stroke-linejoin="miter" stroke-width="0.5"/>
   <polyline fill="none" points="382.347,35.0105 426.389,35.0105" stroke="#262626" stroke-dasharray="16,0" stroke-linecap="square" stroke-linejoin="miter" stroke-width="0.5"/>
   <polyline fill="none" points="382.347,82.0316 382.347,35.0105" stroke="#262626" stroke-dasharray="16,0" stroke-linecap="square" stroke-linejoin="miter" stroke-width="0.5"/>
   <polyline fill="none" points="426.389,82.0316 426.389,35.0105" stroke="#262626" stroke-dasharray="16,0" stroke-linecap="square" stroke-linejoin="miter" stroke-width="0.5"/>
   <polyline fill="none" points="386.353,44.0158 406.379,44.0158" stroke="#0071bc" stroke-linecap="butt" stroke-linejoin="round" stroke-width="0.5"/>
   <g font-family="FreeSans" font-size="10.4862" font-style="normal" font-weight="normal" transform="translate(410.384,49.0158) rotate(-0,-0,-5)" xml:space="preserve">
    <text fill="rgb(0,0,0)" x="0 " y="-1">G</text>
   </g>
   <polyline fill="none" points="386.353,58.5211 406.379,58.5211" stroke="#d85218" stroke-linecap="butt" stroke-linejoin="round" stroke-width="0.5"/>
   <g font-family="FreeSans" font-size="10.4862" font-style="normal" font-weight="normal" transform="translate(410.384,64.0211) rotate(-0,-0,-5.5)" xml:space="preserve">
    <text fill="rgb(0,0,0)" x="0 " y="-2">G</text>
    <text fill="rgb(0,0,0)" font-size="7.34034" x="8 " y="-0">I</text>
   </g>
   <polyline fill="none" points="386.353,73.0263 406.379,73.0263" stroke="#999999" stroke-dasharray="8,3,2,3" stroke-linecap="butt" stroke-linejoin="round" stroke-width="0.5"/>
   <g font-family="FreeSans" font-size="10.4862" font-style="normal" font-weight="normal" transform="translate(410.384,78.0263) rotate(-0,-0,-5)" xml:space="preserve">
    <text fill="rgb(0,0,0)" x="0 6 " y="-1">u1</text>
   </g>
  </g>
 </g>
</svg>
