<?xml version='1.0' encoding='UTF-8' standalone='no'?>
<svg height="360pt" viewBox="0 0 480 360" width="480pt" xmlns="http://www.w3.org/2000/svg" xmlns:xlink="http://www.w3.org/1999/xlink">
 <title>Figure 1</title>
 <desc>
Creator: GL2PS 1.4.2, (C) 1999-2020 C. Geuzaine
For: Octave
CreationDate: Wed Mar 11 06:48:43 2026
</desc>
 <defs/>
 <polygon fill="#ffffff" points="0,0 480,0 480,360 0,360"/>
 <g>
  <polygon fill="#ffffff" points="0,360 480,360 480,0 0,0" shape-rendering="crispEdges"/>
  <clipPath id="cp00480360">
   <polygon points="0,360 480,360 480,0 0,0"/>
  </clipPath>
  <g clip-path="url(#cp00480360)">
   <polygon fill="#ffffff" points="62.4,320.25 434.4,320.25 434.4,27 62.4,27" shape-rendering="crispEdges"/>
   <polyline fill="none" points="90.3958,320.25 90.3958,27" stroke="#191919" stroke-dasharray="1,3,1,3,1,3,1,3" stroke-linecap="butt" stroke-linejoin="miter" stroke-opacity="0.25" stroke-width="0.5"/>
   <polyline fill="none" points="106.772,320.25 106.772,27" stroke="#191919" stroke-dasharray="1,3,1,3,1,3,1,3" stroke-linecap="butt" stroke-linejoin="miter" stroke-opacity="0.25" stroke-width="0.5"/>
   <polyline fill="none" points="118.392,320.25 118.392,27" stroke="#191919" stroke-dasharray="1,3,1,3,1,3,1,3" stroke-linecap="butt" stroke-linejoin="miter" stroke-opacity="0.25" stroke-width="0.5"/>
   <polyline fill="none" points="127.404,320.25 127.404,27" stroke="#191919" stroke-dasharray="1,3,1,3,1,3,1,3" stroke-linecap="butt" stroke-linejoin="miter" stroke-opacity="0.25" stroke-width="0.5"/>
   <polyline fill="none" points="134.768,320.25 134.768,27" stroke="#191919" stroke-dasharray="1,3,1,3,1,3,1,3" stroke-linecap="butt" stroke-linejoin="miter" stroke-opacity="0.25" stroke-width="0.5"/>
   <polyline fill="none" points="140.994,320.25 140.994,27" stroke="#191919" stroke-dasharray="1,3,1,3,1,3,1,3" stroke-linecap="butt" stroke-linejoin="miter" stroke-opacity="0.25" stroke-width="0.5"/>
   <polyline fill="none" points="146.387,320.25 146.387,27" stroke="#191919" stroke-dasharray="1,3,1,3,1,3,1,3" stroke-linecap="butt" stroke-linejoin="miter" stroke-opacity="0.25" stroke-width="0.5"/>
   <polyline fill="none" points="151.145,320.25 151.145,27" stroke="#191919" stroke-dasharray="1,3,1,3,1,3,1,3" stroke-linecap="butt" stroke-linejoin="miter" stroke-opacity="0.25" stroke-width="0.5"/>
   <polyline fill="none" points="183.396,320.25 183.396,27" stroke="#191919" stroke-dasharray="1,3,1,3,1,3,1,3" stroke-linecap="butt" stroke-linejoin="miter" stroke-opacity="0.25" stroke-width="0.5"/>
   <polyline fill="none" points="199.772,320.25 199.772,27" stroke="#191919" stroke-dasharray="1,3,1,3,1,3,1,3" stroke-linecap="butt" stroke-linejoin="miter" stroke-opacity="0.25" stroke-width="0.5"/>
   <polyline fill="none" points="211.392,320.25 211.392,27" stroke="#191919" stroke-dasharray="1,3,1,3,1,3,1,3" stroke-linecap="butt" stroke-linejoin="miter" stroke-opacity="0.25" stroke-width="0.5"/>
   <polyline fill="none" points="220.404,320.25 220.404,27" stroke="#191919" stroke-dasharray="1,3,1,3,1,3,1,3" stroke-linecap="butt" stroke-linejoin="miter" stroke-opacity="0.25" stroke-width="0.5"/>
   <polyline fill="none" points="227.768,320.25 227.768,27" stroke="#191919" stroke-dasharray="1,3,1,3,1,3,1,3" stroke-linecap="butt" stroke-linejoin="miter" stroke-opacity="0.25" stroke-width="0.5"/>
   <polyline fill="none" points="233.994,320.25 233.994,27" stroke="#191919" stroke-dasharray="1,3,1,3,1,3,1,3" stroke-linecap="butt" stroke-linejoin="miter" stroke-opacity="0.25" stroke-width="0.5"/>
   <polyline fill="none" points="239.387,320.25 239.387,27" stroke="#191919" stroke-dasharray="1,3,1,3,1,3,1,3" stroke-linecap="butt" stroke-linejoin="miter" stroke-opacity="0.25" stroke-width="0.5"/>
   <polyline fill="none" points="244.145,320.25 244.145,27" stroke="#191919" stroke-dasharray="1,3,1,3,1,3,1,3" stroke-linecap="butt" stroke-linejoin="miter" stroke-opacity="0.25" stroke-width="0.5"/>
   <polyline fill="none" points="276.396,320.25 276.396,27" stroke="#191919" stroke-dasharray="1,3,1,3,1,3,1,3" stroke-linecap="butt" stroke-linejoin="miter" stroke-opacity="0.25" stroke-width="0.5"/>
   <polyline fill="none" points="292.772,320.25 292.772,27" stroke="#191919" stroke-dasharray="1,3,1,3,1,3,1,3" stroke-linecap="butt" stroke-linejoin="miter" stroke-opacity="0.25" stroke-width="0.5"/>
   <polyline fill="none" points="304.392,320.25 304.392,27" stroke="#191919" stroke-dasharray="1,3,1,3,1,3,1,3" stroke-linecap="butt" stroke-linejoin="miter" stroke-opacity="0.25" stroke-width="0.5"/>
   <polyline fill="none" points="313.404,320.25 313.404,27" stroke="#191919" stroke-dasharray="1,3,1,3,1,3,1,3" stroke-linecap="butt" stroke-linejoin="miter" stroke-opacity="0.25" stroke-width="0.5"/>
   <polyline fill="none" points="320.768,320.25 320.768,27" stroke="#191919" stroke-dasharray="1,3,1,3,1,3,1,3" stroke-linecap="butt" stroke-linejoin="miter" stroke-opacity="0.25" stroke-width="0.5"/>
   <polyline fill="none" points="326.994,320.25 326.994,27" stroke="#191919" stroke-dasharray="1,3,1,3,1,3,1,3" stroke-linecap="butt" stroke-linejoin="miter" stroke-opacity="0.25" stroke-width="0.5"/>
   <polyline fill="none" points="332.387,320.25 332.387,27" stroke="#191919" stroke-dasharray="1,3,1,3,1,3,1,3" stroke-linecap="butt" stroke-linejoin="miter" stroke-opacity="0.25" stroke-width="0.5"/>
   <polyline fill="none" points="337.145,320.25 337.145,27" stroke="#191919" stroke-dasharray="1,3,1,3,1,3,1,3" stroke-linecap="butt" stroke-linejoin="miter" stroke-opacity="0.25" stroke-width="0.5"/>
   <polyline fill="none" points="369.396,320.25 369.396,27" stroke="#191919" stroke-dasharray="1,3,1,3,1,3,1,3" stroke-linecap="butt" stroke-linejoin="miter" stroke-opacity="0.25" stroke-width="0.5"/>
   <polyline fill="none" points="385.772,320.25 385.772,27" stroke="#191919" stroke-dasharray="1,3,1,3,1,3,1,3" stroke-linecap="butt" stroke-linejoin="miter" stroke-opacity="0.25" stroke-width="0.5"/>
   <polyline fill="none" points="397.392,320.25 397.392,27" stroke="#191919" stroke-dasharray="1,3,1,3,1,3,1,3" stroke-linecap="butt" stroke-linejoin="miter" stroke-opacity="0.25" stroke-width="0.5"/>
   <polyline fill="none" points="406.404,320.25 406.404,27" stroke="#191919" stroke-dasharray="1,3,1,3,1,3,1,3" stroke-linecap="butt" stroke-linejoin="miter" stroke-opacity="0.25" stroke-width="0.5"/>
   <polyline fill="none" points="413.768,320.25 413.768,27" stroke="#191919" stroke-dasharray="1,3,1,3,1,3,1,3" stroke-linecap="butt" stroke-linejoin="miter" stroke-opacity="0.25" stroke-width="0.5"/>
   <polyline fill="none" points="419.994,320.25 419.994,27" stroke="#191919" stroke-dasharray="1,3,1,3,1,3,1,3" stroke-linecap="butt" stroke-linejoin="miter" stroke-opacity="0.25" stroke-width="0.5"/>
   <polyline fill="none" points="425.387,320.25 425.387,27" stroke="#191919" stroke-dasharray="1,3,1,3,1,3,1,3" stroke-linecap="butt" stroke-linejoin="miter" stroke-opacity="0.25" stroke-width="0.5"/>
   <polyline fill="none" points="430.145,320.25 430.145,27" stroke="#191919" stroke-dasharray="1,3,1,3,1,3,1,3" stroke-linecap="butt" stroke-linejoin="miter" stroke-opacity="0.25" stroke-width="0.5"/>
   <polyline fill="none" points="62.4,320.25 62.4,27" stroke="#262626" stroke-dasharray="16,0" stroke-linecap="butt" stroke-linejoin="miter" stroke-opacity="0.15" stroke-width="0.5"/>
   <polyline fill="none" points="155.4,320.25 155.4,27" stroke="#262626" stroke-dasharray="16,0" stroke-linecap="butt" stroke-linejoin="miter" stroke-opacity="0.15" stroke-width="0.5"/>
   <polyline fill="none" points="248.4,320.25 248.4,27" stroke="#262626" stroke-dasharray="16,0" stroke-linecap="butt" stroke-linejoin="miter" stroke-opacity="0.15" stroke-width="0.5"/>
   <polyline fill="none" points="341.4,320.25 341.4,27" stroke="#262626" stroke-dasharray="16,0" stroke-linecap="butt" stroke-linejoin="miter" stroke-opacity="0.15" stroke-width="0.5"/>
   <polyline fill="none" points="434.4,320.25 434.4,27" stroke="#262626" stroke-dasharray="16,0" stroke-linecap="butt" stroke-linejoin="miter" stroke-opacity="0.15" stroke-width="0.5"/>
   <polyline fill="none" points="90.3958,320.25 90.3958,318.388" stroke="#262626" stroke-linecap="butt" stroke-linejoin="miter" stroke-width="0.5"/>
   <polyline fill="none" points="90.3958,27 90.3958,28.8616" stroke="#262626" stroke-linecap="butt" stroke-linejoin="miter" stroke-width="0.5"/>
   <polyline fill="none" points="106.772,320.25 106.772,318.388" stroke="#262626" stroke-linecap="butt" stroke-linejoin="miter" stroke-width="0.5"/>
   <polyline fill="none" points="106.772,27 106.772,28.8616" stroke="#262626" stroke-linecap="butt" stroke-linejoin="miter" stroke-width="0.5"/>
   <polyline fill="none" points="118.392,320.25 118.392,318.388" stroke="#262626" stroke-linecap="butt" stroke-linejoin="miter" stroke-width="0.5"/>
   <polyline fill="none" points="118.392,27 118.392,28.8616" stroke="#262626" stroke-linecap="butt" stroke-linejoin="miter" stroke-width="0.5"/>
   <polyline fill="none" points="127.404,320.25 127.404,318.388" stroke="#262626" stroke-linecap="butt" stroke-linejoin="miter" stroke-width="0.5"/>
   <polyline fill="none" points="127.404,27 127.404,28.8616" stroke="#262626" stroke-linecap="butt" stroke-linejoin="miter" stroke-width="0.5"/>
   <polyline fill="none" points="134.768,320.25 134.768,318.388" stroke="#262626" stroke-linecap="butt" stroke-linejoin="miter" stroke-width="0.5"/>
   <polyline fill="none" points="134.768,27 134.768,28.8616" stroke="#262626" stroke-linecap="butt" stroke-linejoin="miter" stroke-width="0.5"/>
   <polyline fill="none" points="140.994,320.25 140.994,318.388" stroke="#262626" stroke-linecap="butt" stroke-linejoin="miter" stroke-width="0.5"/>
   <polyline fill="none" points="140.994,27 140.994,28.8616" stroke="#262626" stroke-linecap="butt" stroke-linejoin="miter" stroke-width="0.5"/>
   <polyline fill="none" points="146.387,320.25 146.387,318.388" stroke="#262626" stroke-linecap="butt" stroke-linejoin="miter" stroke-width="0.5"/>
   <polyline fill="none" points="146.387,27 146.387,28.8616" stroke="#262626" stroke-linecap="butt" stroke-linejoin="miter" stroke-width="0.5"/>
   <polyline fill="none" points="151.145,320.25 151.145,318.388" stroke="#262626" stroke-linecap="butt" stroke-linejoin="miter" stroke-width="0.5"/>
   <polyline fill="none" points="151.145,27 151.145,28.8616" stroke="#262626" stroke-linecap="butt" stroke-linejoin="miter" stroke-width="0.5"/>
   <polyline fill="none" points="183.396,320.25 183.396,318.388" stroke="#262626" stroke-linecap="butt" stroke-linejoin="miter" stroke-width="0.5"/>
   <polyline fill="none" points="183.396,27 183.396,28.8616" stroke="#262626" stroke-linecap="butt" stroke-linejoin="miter" stroke-width="0.5"/>
   <polyline fill="none" points="199.772,320.25 199.772,318.388" stroke="#262626" stroke-linecap="butt" stroke-linejoin="miter" stroke-width="0.5"/>
   <polyline fill="none" points="199.772,27 199.772,28.8616" stroke="#262626" stroke-linecap="butt" stroke-linejoin="miter" stroke-width="0.5"/>
   <polyline fill="none" points="211.392,320.25 211.392,318.388" stroke="#262626" stroke-linecap="butt" stroke-linejoin="miter" stroke-width="0.5"/>
   <polyline fill="none" points="211.392,27 211.392,28.8616" stroke="#262626" stroke-linecap="butt" stroke-linejoin="miter" stroke-width="0.5"/>
   <polyline fill="none" points="220.404,320.25 220.404,318.388" stroke="#262626" stroke-linecap="butt" stroke-linejoin="miter" stroke-width="0.5"/>
   <polyline fill="none" points="220.404,27 220.404,28.8616" stroke="#262626" stroke-linecap="butt" stroke-linejoin="miter" stroke-width="0.5"/>
   <polyline fill="none" points="227.768,320.25 227.768,318.388" stroke="#262626" stroke-linecap="butt" stroke-linejoin="miter" stroke-width="0.5"/>
   <polyline fill="none" points="227.768,27 227.768,28.8616" stroke="#262626" stroke-linecap="butt" stroke-linejoin="miter" stroke-width="0.5"/>
   <polyline fill="none" points="233.994,320.25 233.994,318.388" stroke="#262626" stroke-linecap="butt" stroke-linejoin="miter" stroke-width="0.5"/>
   <polyline fill="none" points="233.994,27 233.994,28.8616" stroke="#262626" stroke-linecap="butt" stroke-linejoin="miter" stroke-width="0.5"/>
   <polyline fill="none" points="239.387,320.25 239.387,318.388" stroke="#262626" stroke-linecap="butt" stroke-linejoin="miter" stroke-width="0.5"/>
   <polyline fill="none" points="239.387,27 239.387,28.8616" stroke="#262626" stroke-linecap="butt" stroke-linejoin="miter" stroke-width="0.5"/>
   <polyline fill="none" points="244.145,320.25 244.145,318.388" stroke="#262626" stroke-linecap="butt" stroke-linejoin="miter" stroke-width="0.5"/>
   <polyline fill="none" points="244.145,27 244.145,28.8616" stroke="#262626" stroke-linecap="butt" stroke-linejoin="miter" stroke-width="0.5"/>
   <polyline fill="none" points="276.396,320.25 276.396,318.388" stroke="#262626" stroke-linecap="butt" stroke-linejoin="miter" stroke-width="0.5"/>
   <polyline fill="none" points="276.396,27 276.396,28.8616" stroke="#262626" stroke-linecap="butt" stroke-linejoin="miter" stroke-width="0.5"/>
   <polyline fill="none" points="292.772,320.25 292.772,318.388" stroke="#262626" stroke-linecap="butt" stroke-linejoin="miter" stroke-width="0.5"/>
   <polyline fill="none" points="292.772,27 292.772,28.8616" stroke="#262626" stroke-linecap="butt" stroke-linejoin="miter" stroke-width="0.5"/>
   <polyline fill="none" points="304.392,320.25 304.392,318.388" stroke="#262626" stroke-linecap="butt" stroke-linejoin="miter" stroke-width="0.5"/>
   <polyline fill="none" points="304.392,27 304.392,28.8616" stroke="#262626" stroke-linecap="butt" stroke-linejoin="miter" stroke-width="0.5"/>
   <polyline fill="none" points="313.404,320.25 313.404,318.388" stroke="#262626" stroke-linecap="butt" stroke-linejoin="miter" stroke-width="0.5"/>
   <polyline fill="none" points="313.404,27 313.404,28.8616" stroke="#262626" stroke-linecap="butt" stroke-linejoin="miter" stroke-width="0.5"/>
   <polyline fill="none" points="320.768,320.25 320.768,318.388" stroke="#262626" stroke-linecap="butt" stroke-linejoin="miter" stroke-width="0.5"/>
   <polyline fill="none" points="320.768,27 320.768,28.8616" stroke="#262626" stroke-linecap="butt" stroke-linejoin="miter" stroke-width="0.5"/>
   <polyline fill="none" points="326.994,320.25 326.994,318.388" stroke="#262626" stroke-linecap="butt" stroke-linejoin="miter" stroke-width="0.5"/>
   <polyline fill="none" points="326.994,27 326.994,28.8616" stroke="#262626" stroke-linecap="butt" stroke-linejoin="miter" stroke-width="0.5"/>
   <polyline fill="none" points="332.387,320.25 332.387,318.388" stroke="#262626" stroke-linecap="butt" stroke-linejoin="miter" stroke-width="0.5"/>
   <polyline fill="none" points="332.387,27 332.387,28.8616" stroke="#262626" stroke-linecap="butt" stroke-linejoin="miter" stroke-width="0.5"/>
   <polyline fill="none" points="337.145,320.25 337.145,318.388" stroke="#262626" stroke-linecap="butt" stroke-linejoin="miter" stroke-width="0.5"/>
   <polyline fill="none" points="337.145,27 337.145,28.8616" stroke="#262626" stroke-linecap="butt" stroke-linejoin="miter" stroke-width="0.5"/>
   <polyline fill="none" points="369.396,320.25 369.396,318.388" stroke="#262626" stroke-linecap="butt" stroke-linejoin="miter" stroke-width="0.5"/>
   <polyline fill="none" points="369.396,27 369.396,28.8616" stroke="#262626" stroke-linecap="butt" stroke-linejoin="miter" stroke-width="0.5"/>
   <polyline fill="none" points="385.772,320.25 385.772,318.388" stroke="#262626" stroke-linecap="butt" stroke-linejoin="miter" stroke-width="0.5"/>
   <polyline fill="none" points="385.772,27 385.772,28.8616" stroke="#262626" stroke-linecap="butt" stroke-linejoin="miter" stroke-width="0.5"/>
   <polyline fill="none" points="397.392,320.25 397.392,318.388" stroke="#262626" stroke-linecap="butt" stroke-linejoin="miter" stroke-width="0.5"/>
   <polyline fill="none" points="397.392,27 397.392,28.8616" stroke="#262626" stroke-linecap="butt" stroke-linejoin="miter" stroke-width="0.5"/>
   <polyline fill="none" points="406.404,320.25 406.404,318.388" stroke="#262626" stroke-linecap="butt" stroke-linejoin="miter" stroke-width="0.5"/>
   <polyline fill="none" points="406.404,27 406.404,28.8616" stroke="#262626" stroke-linecap="butt" stroke-linejoin="miter" stroke-width="0.5"/>
   <polyline fill="none" points="413.768,320.25 413.768,318.388" stroke="#262626" stroke-linecap="butt" stroke-linejoin="miter" stroke-width="0.5"/>
   <polyline fill="none" points="413.768,27 413.768,28.8616" stroke="#262626" stroke-linecap="butt" stroke-linejoin="miter" stroke-width="0.5"/>
   <polyline fill="none" points="419.994,320.25 419.994,318.388" stroke="#262626" stroke-linecap="butt" stroke-linejoin="miter" stroke-width="0.5"/>
   <polyline fill="none" points="419.994,27 419.994,28.8616" stroke="#262626" stroke-linecap="butt" stroke-linejoin="miter" stroke-width="0.5"/>
   <polyline fill="none" points="425.387,320.25 425.387,318.388" stroke="#262626" stroke-linecap="butt" stroke-linejoin="miter" stroke-width="0.5"/>
   <polyline fill="none" points="425.387,27 425.387,28.8616" stroke="#262626" stroke-linecap="butt" stroke-linejoin="miter" stroke-width="0.5"/>
   <polyline fill="none" points="430.145,320.25 430.145,318.388" stroke="#262626" stroke-linecap="butt" stroke-linejoin="miter" stroke-width="0.5"/>
   <polyline fill="none" points="430.145,27 430.145,28.8616" stroke="#262626" stroke-linecap="butt" stroke-linejoin="miter" stroke-width="0.5"/>
   <polyline fill="none" points="62.4,320.25 62.4,316.526" stroke="#262626" stroke-linecap="butt" stroke-linejoin="miter" stroke-width="0.5"/>
   <polyline fill="none" points="62.4,27 62.4,30.7232" stroke="#262626" stroke-linecap="butt" stroke-linejoin="miter" stroke-width="0.5"/>
   <polyline fill="none" points="155.4,320.25 155.4,316.526" stroke="#262626" stroke-linecap="butt" stroke-linejoin="miter" stroke-width="0.5"/>
   <polyline fill="none" points="155.4,27 155.4,30.7232" stroke="#262626" stroke-linecap="butt" stroke-linejoin="miter" stroke-width="0.5"/>
   <polyline fill="none" points="248.4,320.25 248.4,316.526" stroke="#262626" stroke-linecap="butt" stroke-linejoin="miter" stroke-width="0.5"/>
   <polyline fill="none" points="248.4,27 248.4,30.7232" stroke="#262626" stroke-linecap="butt" stroke-linejoin="miter" stroke-width="0.5"/>
   <polyline fill="none" points="341.4,320.25 341.4,316.526" stroke="#262626" stroke-linecap="butt" stroke-linejoin="miter" stroke-width="0.5"/>
   <polyline fill="none" points="341.4,27 341.4,30.7232" stroke="#262626" stroke-linecap="butt" stroke-linejoin="miter" stroke-width="0.5"/>
   <polyline fill="none" points="434.4,320.25 434.4,316.526" stroke="#262626" stroke-linecap="butt" stroke-linejoin="miter" stroke-width="0.5"/>
   <polyline fill="none" points="434.4,27 434.4,30.7232" stroke="#262626" stroke-linecap="butt" stroke-linejoin="miter" stroke-width="0.5"/>
   <g font-family="FreeSans" font-size="11.6513" font-style="normal" font-weight="normal" transform="translate(52.4,340.996) rotate(-0,10,-12)" xml:space="preserve">
    <text fill="rgb(38,38,38)" x="0 6 " y="-0">10</text>
    <text fill="rgb(38,38,38)" font-size="8.15594" x="12 15 " y="-5">-2</text>
   </g>
   <g font-family="FreeSans" font-size="11.6513" font-style="normal" font-weight="normal" transform="translate(145.4,340.996) rotate(-0,10,-12)" xml:space="preserve">
    <text fill="rgb(38,38,38)" x="0 6 " y="-0">10</text>
    <text fill="rgb(38,38,38)" font-size="8.15594" x="12 15 " y="-5">-1</text>
   </g>
   <g font-family="FreeSans" font-size="11.6513" font-style="normal" font-weight="normal" transform="translate(239.9,340.996) rotate(-0,8.5,-12)" xml:space="preserve">
    <text fill="rgb(38,38,38)" x="0 6 " y="-0">10</text>
    <text fill="rgb(38,38,38)" font-size="8.15594" x="12 " y="-5">0</text>
   </g>
   <g font-family="FreeSans" font-size="11.6513" font-style="normal" font-weight="normal" transform="translate(332.9,340.996) rotate(-0,8.5,-12)" xml:space="preserve">
    <text fill="rgb(38,38,38)" x="0 6 " y="-0">10</text>
    <text fill="rgb(38,38,38)" font-size="8.15594" x="12 " y="-5">1</text>
   </g>
   <g font-family="FreeSans" font-size="11.6513" font-style="normal" font-weight="normal" transform="translate(425.9,340.996) rotate(-0,8.5,-12)" xml:space="preserve">
    <text fill="rgb(38,38,38)" x="0 6 " y="-0">10</text>
    <text fill="rgb(38,38,38)" font-size="8.15594" x="12 " y="-5">2</text>
   </g>
   <polyline fill="none" points="62.4,280.596 434.4,280.596" stroke="#262626" stroke-dasharray="16,0" stroke-linecap="butt" stroke-linejoin="miter" stroke-opacity="0.15" stroke-width="0.5"/>
   <polyline fill="none" points="62.4,236.854 434.4,236.854" stroke="#262626" stroke-dasharray="16,0" stroke-linecap="butt" stroke-linejoin="miter" stroke-opacity="0.15" stroke-width="0.5"/>
   <polyline fill="none" points="62.4,193.111 434.4,193.111" stroke="#262626" stroke-dasharray="16,0" stroke-linecap="butt" stroke-linejoin="miter" stroke-opacity="0.15" stroke-width="0.5"/>
   <polyline fill="none" points="62.4,149.369 434.4,149.369" stroke="#262626" stroke-dasharray="16,0" stroke-linecap="butt" stroke-linejoin="miter" stroke-opacity="0.15" stroke-width="0.5"/>
   <polyline fill="none" points="62.4,105.627 434.4,105.627" stroke="#262626" stroke-dasharray="16,0" stroke-linecap="butt" stroke-linejoin="miter" stroke-opacity="0.15" stroke-width="0.5"/>
   <polyline fill="none" points="62.4,61.8846 434.4,61.8846" stroke="#262626" stroke-dasharray="16,0" stroke-linecap="butt" stroke-linejoin="miter" stroke-opacity="0.15" stroke-width="0.5"/>
   <polyline fill="none" points="62.4,280.596 66.12,280.596" stroke="#262626" stroke-linecap="butt" stroke-linejoin="miter" stroke-width="0.5"/>
   <polyline fill="none" points="434.4,280.596 430.68,280.596" stroke="#262626" stroke-linecap="butt" stroke-linejoin="miter" stroke-width="0.5"/>
   <polyline fill="none" points="62.4,236.854 66.12,236.854" stroke="#262626" stroke-linecap="butt" stroke-linejoin="miter" stroke-width="0.5"/>
   <polyline fill="none" points="434.4,236.854 430.68,236.854" stroke="#262626" stroke-linecap="butt" stroke-linejoin="miter" stroke-width="0.5"/>
   <polyline fill="none" points="62.4,193.111 66.12,193.111" stroke="#262626" stroke-linecap="butt" stroke-linejoin="miter" stroke-width="0.5"/>
   <polyline fill="none" points="434.4,193.111 430.68,193.111" stroke="#262626" stroke-linecap="butt" stroke-linejoin="miter" stroke-width="0.5"/>
   <polyline fill="none" points="62.4,149.369 66.12,149.369" stroke="#262626" stroke-linecap="butt" stroke-linejoin="miter" stroke-width="0.5"/>
   <polyline fill="none" points="434.4,149.369 430.68,149.369" stroke="#262626" stroke-linecap="butt" stroke-linejoin="miter" stroke-width="0.5"/>
   <polyline fill="none" points="62.4,105.627 66.12,105.627" stroke="#262626" stroke-linecap="butt" stroke-linejoin="miter" stroke-width="0.5"/>
   <polyline fill="none" points="434.4,105.627 430.68,105.627" stroke="#262626" stroke-linecap="butt" stroke-linejoin="miter" stroke-width="0.5"/>
   <polyline fill="none" points="62.4,61.8846 66.12,61.8846" stroke="#262626" stroke-linecap="butt" stroke-linejoin="miter" stroke-width="0.5"/>
   <polyline fill="none" points="434.4,61.8846 430.68,61.8846" stroke="#262626" stroke-linecap="butt" stroke-linejoin="miter" stroke-width="0.5"/>
   <g font-family="FreeSans" font-size="11.6513" font-style="normal" font-weight="normal" transform="translate(40.5743,285.596) rotate(-0,16,-5)" xml:space="preserve">
    <text fill="rgb(38,38,38)" x="0 4 10 " y="-0">-60</text>
   </g>
   <g font-family="FreeSans" font-size="11.6513" font-style="normal" font-weight="normal" transform="translate(40.5743,241.854) rotate(-0,16,-5)" xml:space="preserve">
    <text fill="rgb(38,38,38)" x="0 4 10 " y="-0">-50</text>
   </g>
   <g font-family="FreeSans" font-size="11.6513" font-style="normal" font-weight="normal" transform="translate(40.5743,198.111) rotate(-0,16,-5)" xml:space="preserve">
    <text fill="rgb(38,38,38)" x="0 4 10 " y="-0">-40</text>
   </g>
   <g font-family="FreeSans" font-size="11.6513" font-style="normal" font-weight="normal" transform="translate(40.5743,154.369) rotate(-0,16,-5)" xml:space="preserve">
    <text fill="rgb(38,38,38)" x="0 4 10 " y="-0">-30</text>
   </g>
   <g font-family="FreeSans" font-size="11.6513" font-style="normal" font-weight="normal" transform="translate(40.5743,110.627) rotate(-0,16,-5)" xml:space="preserve">
    <text fill="rgb(38,38,38)" x="0 4 10 " y="-0">-20</text>
   </g>
   <g font-family="FreeSans" font-size="11.6513" font-style="normal" font-weight="normal" transform="translate(40.5743,66.8845) rotate(-0,16,-5)" xml:space="preserve">
    <text fill="rgb(38,38,38)" x="0 4 10 " y="-0">-10</text>
   </g>
   <polyline fill="none" points="62.4,320.25 434.4,320.25" stroke="#262626" stroke-dasharray="16,0" stroke-linecap="square" stroke-linejoin="miter" stroke-width="0.5"/>
   <polyline fill="none" points="62.4,27 434.4,27" stroke="#262626" stroke-dasharray="16,0" stroke-linecap="square" stroke-linejoin="miter" stroke-width="0.5"/>
   <polyline fill="none" points="62.4,320.25 62.4,27" stroke="#262626" stroke-dasharray="16,0" stroke-linecap="square" stroke-linejoin="miter" stroke-width="0.5"/>
   <polyline fill="none" points="434.4,320.25 434.4,27" stroke="#262626" stroke-dasharray="16,0" stroke-linecap="square" stroke-linejoin="miter" stroke-width="0.5"/>
   <g font-family="FreeSans" font-size="12.8165" font-style="normal" font-weight="normal" transform="translate(199.4,359.996) rotate(-0,49,-14)" xml:space="preserve">
    <text fill="rgb(38,38,38)" x="0 8 12 19 26 33 40 47 53 59 62 66 70 77 84 88 94 " y="-3">Frequency [rad/s]</text>
   </g>
   <g font-family="FreeSans" font-size="12.8165" font-style="normal" font-weight="normal" transform="translate(-7.92567,173.625) rotate(-90,43.5,0)" xml:space="preserve">
    <text fill="rgb(38,38,38)" x="0 11 18 25 32 35 39 46 53 60 63 67 74 83 " y="-3">Magnitude [dB]</text>
   </g>
   <g font-family="FreeSans" font-size="12.8165" font-style="normal" font-weight="bold" transform="translate(170.4,17) rotate(-0,78,0)" xml:space="preserve">
    <text fill="rgb(0,0,0)" x="0 9 17 25 32 36 47 54 62 70 74 78 86 94 101 105 114 118 125 133 138 145 " y="-3">Bode Magnitude Diagram</text>
   </g>
   <polyline fill="none" points="62.4,193.296 62.7724,192.949 63.1448,192.603 63.5171,192.256 63.8895,191.909 64.2619,191.562 64.6342,191.216 65.0066,190.869 65.379,190.523 65.7514,190.177 66.1237,189.83 66.4961,189.484 66.8685,189.138 67.2408,188.792 67.6132,188.446 67.9856,188.1 68.358,187.755 68.7303,187.409 69.1027,187.063 69.4751,186.718 69.8475,186.372 70.2198,186.027 70.5922,185.682 70.9646,185.336 71.3369,184.991 71.7093,184.646 72.0817,184.301 72.4541,183.957 72.8264,183.612 73.1988,183.267 73.5712,182.923 73.9436,182.578 74.3159,182.234 74.6883,181.89 75.0607,181.546 75.433,181.202 75.8054,180.858 76.1778,180.515 76.5502,180.171 76.9225,179.827 77.2949,179.484 77.6673,179.141 78.0396,178.798 78.412,178.455 78.7844,178.112 79.1568,177.769 79.5291,177.427 79.9015,177.084 80.2739,176.742 80.6463,176.4 81.0186,176.058 81.391,175.716 81.7634,175.375 82.1357,175.033 82.5081,174.692 82.8805,174.351 83.2529,174.01 83.6252,173.669 83.9976,173.328 84.37,172.988 84.7424,172.647 85.1147,172.307 85.4871,171.967 85.8595,171.627 86.2318,171.288 86.6042,170.948 86.9766,170.609 87.349,170.27 87.7213,169.931 88.0937,169.593 88.4661,169.254 88.8385,168.916 89.2108,168.578 89.5832,168.24 89.9556,167.903 90.3279,167.566 90.7003,167.229 91.0727,166.892 91.4451,166.555 91.8174,166.219 92.1898,165.883 92.5622,165.547 92.9346,165.211 93.3069,164.876 93.6793,164.541 94.0517,164.206 94.424,163.872 94.7964,163.538 95.1688,163.204 95.5412,162.87 95.9135,162.537 96.2859,162.204 96.6583,161.871 97.0306,161.538 97.403,161.206 97.7754,160.874 98.1478,160.543 98.5201,160.212 98.8925,159.881 99.2649,159.551 99.6373,159.22 100.01,158.891 100.382,158.561 100.754,158.232 101.127,157.903 101.499,157.575 101.871,157.247 102.244,156.92 102.616,156.593 102.989,156.266 103.361,155.939 103.733,155.614 104.106,155.288 104.478,154.963 104.85,154.638 105.223,154.314 105.595,153.99 105.968,153.667 106.34,153.344 106.712,153.022 107.085,152.7 107.457,152.378 107.829,152.058 108.202,151.737 108.574,151.417 108.947,151.098 109.319,150.779 109.691,150.461 110.064,150.143 110.436,149.825 110.808,149.509 111.181,149.193 111.553,148.877 111.926,148.562 112.298,148.247 112.67,147.934 113.043,147.62 113.415,147.308 113.787,146.996 114.16,146.684 114.532,146.374 114.905,146.064 115.277,145.754 115.649,145.445 116.022,145.137 116.394,144.83 116.766,144.523 117.139,144.217 117.511,143.912 117.883,143.607 118.256,143.303 118.628,143 119.001,142.698 119.373,142.396 119.745,142.095 120.118,141.795 120.49,141.496 120.862,141.198 121.235,140.9 121.607,140.603 121.98,140.307 122.352,140.012 122.724,139.718 123.097,139.424 123.469,139.132 123.841,138.84 124.214,138.549 124.586,138.259 124.959,137.971 125.331,137.682 125.703,137.395 126.076,137.109 126.448,136.824 126.82,136.54 127.193,136.257 127.565,135.974 127.938,135.693 128.31,135.413 128.682,135.134 129.055,134.856 129.427,134.578 129.799,134.302 130.172,134.027 130.544,133.753 130.917,133.481 131.289,133.209 131.661,132.938 132.034,132.669 132.406,132.4 132.778,132.133 133.151,131.867 133.523,131.602 133.896,131.338 134.268,131.076 134.64,130.815 135.013,130.554 135.385,130.295 135.757,130.038 136.13,129.781 136.502,129.526 136.874,129.272 137.247,129.019 137.619,128.768 137.992,128.517 138.364,128.269 138.736,128.021 139.109,127.775 139.481,127.53 139.853,127.286 140.226,127.044 140.598,126.803 140.971,126.563 141.343,126.325 141.715,126.088 142.088,125.852 142.46,125.618 142.832,125.385 143.205,125.154 143.577,124.924 143.95,124.695 144.322,124.468 144.694,124.242 145.067,124.018 145.439,123.795 145.811,123.573 146.184,123.353 146.556,123.134 146.929,122.917 147.301,122.701 147.673,122.487 148.046,122.274 148.418,122.063 148.79,121.853 149.163,121.645 149.535,121.438 149.908,121.232 150.28,121.028 150.652,120.826 151.025,120.625 151.397,120.425 151.769,120.227 152.142,120.03 152.514,119.835 152.887,119.641 153.259,119.449 153.631,119.259 154.004,119.069 154.376,118.882 154.748,118.695 155.121,118.511 155.4,118.373 155.493,118.327 155.865,118.145 156.238,117.965 156.61,117.786 156.983,117.609 157.355,117.433 157.727,117.258 158.1,117.085 158.472,116.913 158.844,116.743 159.217,116.574 159.589,116.407 159.962,116.241 160.334,116.076 160.706,115.913 161.079,115.752 161.451,115.591 161.823,115.432 162.196,115.275 162.568,115.118 162.941,114.964 163.313,114.81 163.685,114.658 164.058,114.507 164.43,114.357 164.802,114.209 165.175,114.062 165.547,113.917 165.92,113.772 166.292,113.629 166.664,113.487 167.037,113.347 167.409,113.207 167.781,113.069 168.154,112.932 168.526,112.796 168.899,112.662 169.271,112.528 169.643,112.396 170.016,112.265 170.388,112.135 170.76,112.006 171.133,111.878 171.505,111.751 171.878,111.625 172.25,111.5 172.622,111.377 172.995,111.254 173.367,111.132 173.739,111.012 174.112,110.892 174.484,110.773 174.856,110.655 175.229,110.538 175.601,110.422 175.974,110.307 176.346,110.192 176.718,110.079 177.091,109.966 177.463,109.854 177.835,109.743 178.208,109.632 178.58,109.522 178.953,109.413 179.325,109.305 179.697,109.197 180.07,109.09 180.442,108.984 180.814,108.878 181.187,108.773 181.559,108.668 181.932,108.564 182.304,108.46 182.676,108.357 183.049,108.254 183.421,108.152 183.793,108.05 184.166,107.949 184.538,107.848 184.911,107.747 185.283,107.647 185.655,107.546 186.028,107.447 186.4,107.347 186.772,107.248 187.145,107.149 187.517,107.05 187.89,106.951 188.262,106.852 188.634,106.754 189.007,106.655 189.379,106.557 189.751,106.458 190.124,106.36 190.496,106.261 190.868,106.163 191.241,106.064 191.613,105.965 191.986,105.866 192.358,105.767 192.73,105.668 193.103,105.568 193.475,105.468 193.847,105.368 194.22,105.268 194.592,105.167 194.965,105.065 195.337,104.963 195.709,104.861 196.082,104.758 196.454,104.655 196.826,104.551 197.199,104.447 197.571,104.342 197.944,104.236 198.316,104.129 198.688,104.022 199.061,103.914 199.433,103.805 199.805,103.695 200.178,103.584 200.55,103.473 200.923,103.36 201.295,103.246 201.667,103.131 202.04,103.015 202.412,102.898 202.784,102.78 203.157,102.66 203.529,102.539 203.902,102.417 204.274,102.293 204.646,102.168 205.019,102.041 205.391,101.913 205.763,101.783 206.136,101.651 206.508,101.518 206.88,101.383 207.253,101.246 207.625,101.107 207.998,100.966 208.37,100.823 208.742,100.678 209.115,100.531 209.487,100.382 209.859,100.23 210.232,100.076 210.604,99.9197 210.977,99.7608 211.349,99.5992 211.721,99.435 212.094,99.268 212.466,99.0983 212.838,98.9256 213.211,98.7499 213.583,98.5711 213.956,98.3891 214.328,98.2039 214.7,98.0153 215.073,97.8232 215.445,97.6276 215.817,97.4283 216.19,97.2251 216.562,97.0181 216.935,96.8071 217.307,96.5919 217.679,96.3725 218.052,96.1487 218.424,95.9204 218.796,95.6875 219.169,95.4497 219.541,95.207 219.914,94.9593 220.286,94.7063 220.658,94.4478 221.031,94.1839 221.403,93.9142 221.775,93.6385 222.148,93.3568 222.52,93.0688 222.893,92.7743 223.265,92.4731 223.637,92.1649 224.01,91.8496 224.382,91.527 224.754,91.1967 225.127,90.8586 225.499,90.5124 225.871,90.1578 226.244,89.7944 226.616,89.4221 226.989,89.0406 227.361,88.6494 227.733,88.2483 228.106,87.8368 228.478,87.4147 228.85,86.9816 229.223,86.537 229.595,86.0805 229.968,85.6117 230.34,85.1301 230.712,84.6353 231.085,84.1266 231.457,83.6037 231.829,83.0659 232.202,82.5126 232.574,81.9432 232.947,81.3571 233.319,80.7535 233.691,80.1319 234.064,79.4913 234.436,78.831 234.808,78.1502 235.181,77.448 235.553,76.7235 235.926,75.9756 236.298,75.2035 236.67,74.406 237.043,73.582 237.415,72.7304 237.787,71.85 238.16,70.9396 238.532,69.9978 238.905,69.0236 239.277,68.0154 239.649,66.9722 240.022,65.8926 240.394,64.7756 240.766,63.6201 241.139,62.4254 241.511,61.1909 241.883,59.9166 242.256,58.603 242.628,57.2513 243.001,55.8638 243.373,54.4443 243.745,52.9982 244.118,51.5333 244.49,50.0603 244.862,48.5936 245.235,47.1519 245.607,45.759 245.98,44.4439 246.352,43.2416 246.724,42.1913 247.097,41.3355 247.469,40.7163 247.841,40.3714 248.214,40.3295 248.4,40.4277 248.586,40.6063 248.959,41.2017 249.331,42.1 249.703,43.2727 250.076,44.6818 250.448,46.2852 250.82,48.0407 251.193,49.9086 251.565,51.8543 251.938,53.8485 252.31,55.8675 252.682,57.8925 253.055,59.9091 253.427,61.9066 253.799,63.8772 254.172,65.8154 254.544,67.7174 254.917,69.5809 255.289,71.4047 255.661,73.1882 256.034,74.9314 256.406,76.6349 256.778,78.2995 257.151,79.926 257.523,81.5156 257.896,83.0695 258.268,84.5889 258.64,86.0752 259.013,87.5294 259.385,88.953 259.757,90.347 260.13,91.7126 260.502,93.0511 260.874,94.3634 261.247,95.6505 261.619,96.9136 261.992,98.1535 262.364,99.3711 262.736,100.567 263.109,101.743 263.481,102.899 263.853,104.035 264.226,105.154 264.598,106.254 264.971,107.338 265.343,108.404 265.715,109.456 266.088,110.491 266.46,111.512 266.832,112.518 267.205,113.511 267.577,114.49 267.95,115.456 268.322,116.409 268.694,117.351 269.067,118.28 269.439,119.198 269.811,120.104 270.184,121 270.556,121.885 270.929,122.76 271.301,123.625 271.673,124.48 272.046,125.326 272.418,126.163 272.79,126.99 273.163,127.809 273.535,128.619 273.908,129.421 274.28,130.215 274.652,131.001 275.025,131.78 275.397,132.551 275.769,133.314 276.142,134.07 276.396,134.582 276.514,134.819 276.887,135.562 277.259,136.297 277.631,137.026 278.004,137.749 278.376,138.465 278.748,139.175 279.121,139.879 279.493,140.577 279.865,141.269 280.238,141.956 280.61,142.636 280.983,143.312 281.355,143.982 281.727,144.647 282.1,145.307 282.472,145.961 282.844,146.611 283.217,147.255 283.589,147.895 283.962,148.531 284.334,149.161 284.706,149.787 285.079,150.409 285.451,151.026 285.823,151.639 286.196,152.248 286.568,152.852 286.941,153.452 287.313,154.049 287.685,154.641 288.058,155.23 288.43,155.814 288.802,156.395 289.175,156.973 289.547,157.546 289.92,158.116 290.292,158.683 290.664,159.246 291.037,159.805 291.409,160.361 291.781,160.914 292.154,161.464 292.526,162.01 292.899,162.554 293.271,163.094 293.643,163.631 294.016,164.165 294.388,164.696 294.76,165.225 295.133,165.75 295.505,166.273 295.878,166.792 296.25,167.31 296.622,167.824 296.995,168.336 297.367,168.845 297.739,169.351 298.112,169.855 298.484,170.357 298.856,170.856 299.229,171.352 299.601,171.847 299.974,172.339 300.346,172.828 300.718,173.315 301.091,173.801 301.463,174.283 301.835,174.764 302.208,175.243 302.58,175.719 302.953,176.194 303.325,176.666 303.697,177.136 304.07,177.605 304.442,178.071 304.814,178.535 305.187,178.998 305.559,179.459 305.932,179.918 306.304,180.375 306.676,180.83 307.049,181.284 307.421,181.736 307.793,182.186 308.166,182.634 308.538,183.081 308.911,183.526 309.283,183.97 309.655,184.412 310.028,184.853 310.4,185.292 310.772,185.729 311.145,186.165 311.517,186.6 311.89,187.033 312.262,187.465 312.634,187.896 313.007,188.325 313.379,188.752 313.751,189.179 314.124,189.604 314.496,190.028 314.868,190.45 315.241,190.872 315.613,191.292 315.986,191.711 316.358,192.129 316.73,192.546 317.103,192.961 317.475,193.375 317.847,193.789 318.22,194.201 318.592,194.612 318.965,195.022 319.337,195.431 319.709,195.839 320.082,196.246 320.454,196.653 320.826,197.058 321.199,197.462 321.571,197.865 321.944,198.267 322.316,198.669 322.688,199.069 323.061,199.469 323.433,199.868 323.805,200.266 324.178,200.663 324.55,201.059 324.923,201.455 325.295,201.85 325.667,202.244 326.04,202.637 326.412,203.029 326.784,203.421 327.157,203.812 327.529,204.202 327.902,204.592 328.274,204.981 328.646,205.369 329.019,205.756 329.391,206.143 329.763,206.529 330.136,206.915 330.508,207.3 330.88,207.684 331.253,208.068 331.625,208.451 331.998,208.834 332.37,209.216 332.742,209.598 333.115,209.978 333.487,210.359 333.859,210.739 334.232,211.118 334.604,211.497 334.977,211.875 335.349,212.253 335.721,212.63 336.094,213.007 336.466,213.383 336.838,213.759 337.211,214.135 337.583,214.51 337.956,214.884 338.328,215.258 338.7,215.632 339.073,216.005 339.445,216.378 339.817,216.751 340.19,217.123 340.562,217.495 340.935,217.866 341.307,218.237 341.679,218.607 342.052,218.978 342.424,219.347 342.796,219.717 343.169,220.086 343.541,220.455 343.914,220.823 344.286,221.192 344.658,221.559 345.031,221.927 345.403,222.294 345.775,222.661 346.148,223.028 346.52,223.394 346.893,223.76 347.265,224.126 347.637,224.491 348.01,224.856 348.382,225.221 348.754,225.586 349.127,225.95 349.499,226.315 349.871,226.679 350.244,227.042 350.616,227.406 350.989,227.769 351.361,228.132 351.733,228.494 352.106,228.857 352.478,229.219 352.85,229.581 353.223,229.943 353.595,230.305 353.968,230.666 354.34,231.027 354.712,231.388 355.085,231.749 355.457,232.11 355.829,232.47 356.202,232.831 356.574,233.191 356.947,233.551 357.319,233.911 357.691,234.27 358.064,234.629 358.436,234.989 358.808,235.348 359.181,235.707 359.553,236.066 359.926,236.424 360.298,236.783 360.67,237.141 361.043,237.499 361.415,237.857 361.787,238.215 362.16,238.573 362.532,238.93 362.905,239.288 363.277,239.645 363.649,240.002 364.022,240.36 364.394,240.716 364.766,241.073 365.139,241.43 365.511,241.787 365.884,242.143 366.256,242.5 366.628,242.856 367.001,243.212 367.373,243.568 367.745,243.924 368.118,244.28 368.49,244.636 368.862,244.991 369.235,245.347 369.607,245.702 369.98,246.058 370.352,246.413 370.724,246.768 371.097,247.123 371.469,247.478 371.841,247.833 372.214,248.188 372.586,248.543 372.959,248.897 373.331,249.252 373.703,249.607 374.076,249.961 374.448,250.315 374.82,250.67 375.193,251.024 375.565,251.378 375.938,251.732 376.31,252.086 376.682,252.44 377.055,252.794 377.427,253.148 377.799,253.501 378.172,253.855 378.544,254.209 378.917,254.562 379.289,254.916 379.661,255.269 380.034,255.623 380.406,255.976 380.778,256.329 381.151,256.682 381.523,257.036 381.896,257.389 382.268,257.742 382.64,258.095 383.013,258.448 383.385,258.801 383.757,259.154 384.13,259.506 384.502,259.859 384.874,260.212 385.247,260.565 385.619,260.917 385.992,261.27 386.364,261.622 386.736,261.975 387.109,262.327 387.481,262.68 387.853,263.032 388.226,263.384 388.598,263.737 388.971,264.089 389.343,264.441 389.715,264.794 390.088,265.146 390.46,265.498 390.832,265.85 391.205,266.202 391.577,266.554 391.95,266.906 392.322,267.258 392.694,267.61 393.067,267.962 393.439,268.314 393.811,268.666 394.184,269.017 394.556,269.369 394.929,269.721 395.301,270.073 395.673,270.424 396.046,270.776 396.418,271.128 396.79,271.479 397.163,271.831 397.535,272.183 397.908,272.534 398.28,272.886 398.652,273.237 399.025,273.589 399.397,273.94 399.769,274.292 400.142,274.643 400.514,274.995 400.887,275.346 401.259,275.697 401.631,276.049 402.004,276.4 402.376,276.751 402.748,277.103 403.121,277.454 403.493,277.805 403.865,278.156 404.238,278.508 404.61,278.859 404.983,279.21 405.355,279.561 405.727,279.912 406.1,280.264 406.472,280.615 406.844,280.966 407.217,281.317 407.589,281.668 407.962,282.019 408.334,282.37 408.706,282.721 409.079,283.072 409.451,283.423 409.823,283.774 410.196,284.125 410.568,284.476 410.941,284.827 411.313,285.178 411.685,285.529 412.058,285.88 412.43,286.231 412.802,286.582 413.175,286.933 413.547,287.283 413.92,287.634 414.292,287.985 414.664,288.336 415.037,288.687 415.409,289.038 415.781,289.389 416.154,289.739 416.526,290.09 416.899,290.441 417.271,290.792 417.643,291.142 418.016,291.493 418.388,291.844 418.76,292.195 419.133,292.545 419.505,292.896 419.878,293.247 420.25,293.598 420.622,293.948 420.995,294.299 421.367,294.65 421.739,295 422.112,295.351 422.484,295.702 422.856,296.052 423.229,296.403 423.601,296.754 423.974,297.104 424.346,297.455 424.718,297.806 425.091,298.156 425.463,298.507 425.835,298.857 426.208,299.208 426.58,299.559 426.953,299.909 427.325,300.26 427.697,300.61 428.07,300.961 428.442,301.312 428.814,301.662 429.187,302.013 429.559,302.363 429.932,302.714 430.304,303.064 430.676,303.415 431.049,303.765 431.421,304.116 431.793,304.466 432.166,304.817 432.538,305.168 432.911,305.518 433.283,305.869 433.655,306.219 434.028,306.57 434.4,306.92" stroke="#0071bc" stroke-linecap="butt" stroke-linejoin="round" stroke-width="0.5"/>
  </g>
  <clipPath id="cp00480360">
   <polygon points="0,360 480,360 480,0 0,0"/>
  </clipPath>
  <g clip-path="url(#cp00480360)">
   <polygon fill="#ffffff" points="386.347,53.0211 426.389,53.0211 426.389,35.0105 386.347,35.0105" shape-rendering="crispEdges"/>
   <polyline fill="none" points="386.347,53.0211 426.389,53.0211" stroke="#262626" stroke-dasharray="16,0" stroke-linecap="square" stroke-linejoin="miter" stroke-width="0.5"/>
   <polyline fill="none" points="386.347,35.0105 426.389,35.0105" stroke="#262626" stroke-dasharray="16,0" stroke-linecap="square" stroke-linejoin="miter" stroke-width="0.5"/>
   <polyline fill="none" points="386.347,53.0211 386.347,35.0105" stroke="#262626" stroke-dasharray="16,0" stroke-linecap="square" stroke-linejoin="miter" stroke-width="0.5"/>
   <polyline fill="none" points="426.389,53.0211 426.389,35.0105" stroke="#262626" stroke-dasharray="16,0" stroke-linecap="square" stroke-linejoin="miter" stroke-width="0.5"/>
   <polyline fill="none" points="390.353,44.0158 410.379,44.0158" stroke="#0071bc" stroke-linecap="butt" stroke-linejoin="round" stroke-width="0.5"/>
   <g font-family="FreeSans" font-size="10.4862" font-style="normal" font-weight="normal" transform="translate(414.384,49.0158) rotate(-0,-0,-5)" xml:space="preserve">
    <text fill="rgb(0,0,0)" x="0 " y="-1">G</text>
   </g>
  </g>
 </g>
</svg>
