<?xml version='1.0' encoding='UTF-8' standalone='no'?>
<svg height="360pt" viewBox="0 0 480 360" width="480pt" xmlns="http://www.w3.org/2000/svg" xmlns:xlink="http://www.w3.org/1999/xlink">
 <title>Figure 1</title>
 <desc>
Creator: GL2PS 1.4.2, (C) 1999-2020 C. Geuzaine
For: Octave
CreationDate: Sun Feb 15 22:27:15 2026
</desc>
 <defs/>
 <polygon fill="#ffffff" points="0,0 480,0 480,360 0,360"/>
 <g>
  <polygon fill="#ffffff" points="0,360 480,360 480,0 0,0" shape-rendering="crispEdges"/>
  <clipPath id="cp00480360">
   <polygon points="0,360 480,360 480,0 0,0"/>
  </clipPath>
  <g clip-path="url(#cp00480360)">
   <polygon fill="#ffffff" points="62.4,320.25 434.4,320.25 434.4,27 62.4,27" shape-rendering="crispEdges"/>
   <polyline fill="none" points="99.7277,320.25 99.7277,27" stroke="#191919" stroke-dasharray="1,3,1,3,1,3,1,3" stroke-linecap="butt" stroke-linejoin="miter" stroke-opacity="0.25" stroke-width="0.5"/>
   <polyline fill="none" points="121.563,320.25 121.563,27" stroke="#191919" stroke-dasharray="1,3,1,3,1,3,1,3" stroke-linecap="butt" stroke-linejoin="miter" stroke-opacity="0.25" stroke-width="0.5"/>
   <polyline fill="none" points="137.055,320.25 137.055,27" stroke="#191919" stroke-dasharray="1,3,1,3,1,3,1,3" stroke-linecap="butt" stroke-linejoin="miter" stroke-opacity="0.25" stroke-width="0.5"/>
   <polyline fill="none" points="149.072,320.25 149.072,27" stroke="#191919" stroke-dasharray="1,3,1,3,1,3,1,3" stroke-linecap="butt" stroke-linejoin="miter" stroke-opacity="0.25" stroke-width="0.5"/>
   <polyline fill="none" points="158.891,320.25 158.891,27" stroke="#191919" stroke-dasharray="1,3,1,3,1,3,1,3" stroke-linecap="butt" stroke-linejoin="miter" stroke-opacity="0.25" stroke-width="0.5"/>
   <polyline fill="none" points="167.192,320.25 167.192,27" stroke="#191919" stroke-dasharray="1,3,1,3,1,3,1,3" stroke-linecap="butt" stroke-linejoin="miter" stroke-opacity="0.25" stroke-width="0.5"/>
   <polyline fill="none" points="174.383,320.25 174.383,27" stroke="#191919" stroke-dasharray="1,3,1,3,1,3,1,3" stroke-linecap="butt" stroke-linejoin="miter" stroke-opacity="0.25" stroke-width="0.5"/>
   <polyline fill="none" points="180.726,320.25 180.726,27" stroke="#191919" stroke-dasharray="1,3,1,3,1,3,1,3" stroke-linecap="butt" stroke-linejoin="miter" stroke-opacity="0.25" stroke-width="0.5"/>
   <polyline fill="none" points="223.728,320.25 223.728,27" stroke="#191919" stroke-dasharray="1,3,1,3,1,3,1,3" stroke-linecap="butt" stroke-linejoin="miter" stroke-opacity="0.25" stroke-width="0.5"/>
   <polyline fill="none" points="245.563,320.25 245.563,27" stroke="#191919" stroke-dasharray="1,3,1,3,1,3,1,3" stroke-linecap="butt" stroke-linejoin="miter" stroke-opacity="0.25" stroke-width="0.5"/>
   <polyline fill="none" points="261.055,320.25 261.055,27" stroke="#191919" stroke-dasharray="1,3,1,3,1,3,1,3" stroke-linecap="butt" stroke-linejoin="miter" stroke-opacity="0.25" stroke-width="0.5"/>
   <polyline fill="none" points="273.072,320.25 273.072,27" stroke="#191919" stroke-dasharray="1,3,1,3,1,3,1,3" stroke-linecap="butt" stroke-linejoin="miter" stroke-opacity="0.25" stroke-width="0.5"/>
   <polyline fill="none" points="282.891,320.25 282.891,27" stroke="#191919" stroke-dasharray="1,3,1,3,1,3,1,3" stroke-linecap="butt" stroke-linejoin="miter" stroke-opacity="0.25" stroke-width="0.5"/>
   <polyline fill="none" points="291.192,320.25 291.192,27" stroke="#191919" stroke-dasharray="1,3,1,3,1,3,1,3" stroke-linecap="butt" stroke-linejoin="miter" stroke-opacity="0.25" stroke-width="0.5"/>
   <polyline fill="none" points="298.383,320.25 298.383,27" stroke="#191919" stroke-dasharray="1,3,1,3,1,3,1,3" stroke-linecap="butt" stroke-linejoin="miter" stroke-opacity="0.25" stroke-width="0.5"/>
   <polyline fill="none" points="304.726,320.25 304.726,27" stroke="#191919" stroke-dasharray="1,3,1,3,1,3,1,3" stroke-linecap="butt" stroke-linejoin="miter" stroke-opacity="0.25" stroke-width="0.5"/>
   <polyline fill="none" points="347.728,320.25 347.728,27" stroke="#191919" stroke-dasharray="1,3,1,3,1,3,1,3" stroke-linecap="butt" stroke-linejoin="miter" stroke-opacity="0.25" stroke-width="0.5"/>
   <polyline fill="none" points="369.563,320.25 369.563,27" stroke="#191919" stroke-dasharray="1,3,1,3,1,3,1,3" stroke-linecap="butt" stroke-linejoin="miter" stroke-opacity="0.25" stroke-width="0.5"/>
   <polyline fill="none" points="385.055,320.25 385.055,27" stroke="#191919" stroke-dasharray="1,3,1,3,1,3,1,3" stroke-linecap="butt" stroke-linejoin="miter" stroke-opacity="0.25" stroke-width="0.5"/>
   <polyline fill="none" points="397.072,320.25 397.072,27" stroke="#191919" stroke-dasharray="1,3,1,3,1,3,1,3" stroke-linecap="butt" stroke-linejoin="miter" stroke-opacity="0.25" stroke-width="0.5"/>
   <polyline fill="none" points="406.891,320.25 406.891,27" stroke="#191919" stroke-dasharray="1,3,1,3,1,3,1,3" stroke-linecap="butt" stroke-linejoin="miter" stroke-opacity="0.25" stroke-width="0.5"/>
   <polyline fill="none" points="415.192,320.25 415.192,27" stroke="#191919" stroke-dasharray="1,3,1,3,1,3,1,3" stroke-linecap="butt" stroke-linejoin="miter" stroke-opacity="0.25" stroke-width="0.5"/>
   <polyline fill="none" points="422.383,320.25 422.383,27" stroke="#191919" stroke-dasharray="1,3,1,3,1,3,1,3" stroke-linecap="butt" stroke-linejoin="miter" stroke-opacity="0.25" stroke-width="0.5"/>
   <polyline fill="none" points="428.726,320.25 428.726,27" stroke="#191919" stroke-dasharray="1,3,1,3,1,3,1,3" stroke-linecap="butt" stroke-linejoin="miter" stroke-opacity="0.25" stroke-width="0.5"/>
   <polyline fill="none" points="62.4,320.25 62.4,27" stroke="#262626" stroke-dasharray="16,0" stroke-linecap="butt" stroke-linejoin="miter" stroke-opacity="0.15" stroke-width="0.5"/>
   <polyline fill="none" points="186.4,320.25 186.4,27" stroke="#262626" stroke-dasharray="16,0" stroke-linecap="butt" stroke-linejoin="miter" stroke-opacity="0.15" stroke-width="0.5"/>
   <polyline fill="none" points="310.4,320.25 310.4,27" stroke="#262626" stroke-dasharray="16,0" stroke-linecap="butt" stroke-linejoin="miter" stroke-opacity="0.15" stroke-width="0.5"/>
   <polyline fill="none" points="434.4,320.25 434.4,27" stroke="#262626" stroke-dasharray="16,0" stroke-linecap="butt" stroke-linejoin="miter" stroke-opacity="0.15" stroke-width="0.5"/>
   <polyline fill="none" points="99.7277,320.25 99.7277,318.388" stroke="#262626" stroke-linecap="butt" stroke-linejoin="miter" stroke-width="0.5"/>
   <polyline fill="none" points="99.7277,27 99.7277,28.8616" stroke="#262626" stroke-linecap="butt" stroke-linejoin="miter" stroke-width="0.5"/>
   <polyline fill="none" points="121.563,320.25 121.563,318.388" stroke="#262626" stroke-linecap="butt" stroke-linejoin="miter" stroke-width="0.5"/>
   <polyline fill="none" points="121.563,27 121.563,28.8616" stroke="#262626" stroke-linecap="butt" stroke-linejoin="miter" stroke-width="0.5"/>
   <polyline fill="none" points="137.055,320.25 137.055,318.388" stroke="#262626" stroke-linecap="butt" stroke-linejoin="miter" stroke-width="0.5"/>
   <polyline fill="none" points="137.055,27 137.055,28.8616" stroke="#262626" stroke-linecap="butt" stroke-linejoin="miter" stroke-width="0.5"/>
   <polyline fill="none" points="149.072,320.25 149.072,318.388" stroke="#262626" stroke-linecap="butt" stroke-linejoin="miter" stroke-width="0.5"/>
   <polyline fill="none" points="149.072,27 149.072,28.8616" stroke="#262626" stroke-linecap="butt" stroke-linejoin="miter" stroke-width="0.5"/>
   <polyline fill="none" points="158.891,320.25 158.891,318.388" stroke="#262626" stroke-linecap="butt" stroke-linejoin="miter" stroke-width="0.5"/>
   <polyline fill="none" points="158.891,27 158.891,28.8616" stroke="#262626" stroke-linecap="butt" stroke-linejoin="miter" stroke-width="0.5"/>
   <polyline fill="none" points="167.192,320.25 167.192,318.388" stroke="#262626" stroke-linecap="butt" stroke-linejoin="miter" stroke-width="0.5"/>
   <polyline fill="none" points="167.192,27 167.192,28.8616" stroke="#262626" stroke-linecap="butt" stroke-linejoin="miter" stroke-width="0.5"/>
   <polyline fill="none" points="174.383,320.25 174.383,318.388" stroke="#262626" stroke-linecap="butt" stroke-linejoin="miter" stroke-width="0.5"/>
   <polyline fill="none" points="174.383,27 174.383,28.8616" stroke="#262626" stroke-linecap="butt" stroke-linejoin="miter" stroke-width="0.5"/>
   <polyline fill="none" points="180.726,320.25 180.726,318.388" stroke="#262626" stroke-linecap="butt" stroke-linejoin="miter" stroke-width="0.5"/>
   <polyline fill="none" points="180.726,27 180.726,28.8616" stroke="#262626" stroke-linecap="butt" stroke-linejoin="miter" stroke-width="0.5"/>
   <polyline fill="none" points="223.728,320.25 223.728,318.388" stroke="#262626" stroke-linecap="butt" stroke-linejoin="miter" stroke-width="0.5"/>
   <polyline fill="none" points="223.728,27 223.728,28.8616" stroke="#262626" stroke-linecap="butt" stroke-linejoin="miter" stroke-width="0.5"/>
   <polyline fill="none" points="245.563,320.25 245.563,318.388" stroke="#262626" stroke-linecap="butt" stroke-linejoin="miter" stroke-width="0.5"/>
   <polyline fill="none" points="245.563,27 245.563,28.8616" stroke="#262626" stroke-linecap="butt" stroke-linejoin="miter" stroke-width="0.5"/>
   <polyline fill="none" points="261.055,320.25 261.055,318.388" stroke="#262626" stroke-linecap="butt" stroke-linejoin="miter" stroke-width="0.5"/>
   <polyline fill="none" points="261.055,27 261.055,28.8616" stroke="#262626" stroke-linecap="butt" stroke-linejoin="miter" stroke-width="0.5"/>
   <polyline fill="none" points="273.072,320.25 273.072,318.388" stroke="#262626" stroke-linecap="butt" stroke-linejoin="miter" stroke-width="0.5"/>
   <polyline fill="none" points="273.072,27 273.072,28.8616" stroke="#262626" stroke-linecap="butt" stroke-linejoin="miter" stroke-width="0.5"/>
   <polyline fill="none" points="282.891,320.25 282.891,318.388" stroke="#262626" stroke-linecap="butt" stroke-linejoin="miter" stroke-width="0.5"/>
   <polyline fill="none" points="282.891,27 282.891,28.8616" stroke="#262626" stroke-linecap="butt" stroke-linejoin="miter" stroke-width="0.5"/>
   <polyline fill="none" points="291.192,320.25 291.192,318.388" stroke="#262626" stroke-linecap="butt" stroke-linejoin="miter" stroke-width="0.5"/>
   <polyline fill="none" points="291.192,27 291.192,28.8616" stroke="#262626" stroke-linecap="butt" stroke-linejoin="miter" stroke-width="0.5"/>
   <polyline fill="none" points="298.383,320.25 298.383,318.388" stroke="#262626" stroke-linecap="butt" stroke-linejoin="miter" stroke-width="0.5"/>
   <polyline fill="none" points="298.383,27 298.383,28.8616" stroke="#262626" stroke-linecap="butt" stroke-linejoin="miter" stroke-width="0.5"/>
   <polyline fill="none" points="304.726,320.25 304.726,318.388" stroke="#262626" stroke-linecap="butt" stroke-linejoin="miter" stroke-width="0.5"/>
   <polyline fill="none" points="304.726,27 304.726,28.8616" stroke="#262626" stroke-linecap="butt" stroke-linejoin="miter" stroke-width="0.5"/>
   <polyline fill="none" points="347.728,320.25 347.728,318.388" stroke="#262626" stroke-linecap="butt" stroke-linejoin="miter" stroke-width="0.5"/>
   <polyline fill="none" points="347.728,27 347.728,28.8616" stroke="#262626" stroke-linecap="butt" stroke-linejoin="miter" stroke-width="0.5"/>
   <polyline fill="none" points="369.563,320.25 369.563,318.388" stroke="#262626" stroke-linecap="butt" stroke-linejoin="miter" stroke-width="0.5"/>
   <polyline fill="none" points="369.563,27 369.563,28.8616" stroke="#262626" stroke-linecap="butt" stroke-linejoin="miter" stroke-width="0.5"/>
   <polyline fill="none" points="385.055,320.25 385.055,318.388" stroke="#262626" stroke-linecap="butt" stroke-linejoin="miter" stroke-width="0.5"/>
   <polyline fill="none" points="385.055,27 385.055,28.8616" stroke="#262626" stroke-linecap="butt" stroke-linejoin="miter" stroke-width="0.5"/>
   <polyline fill="none" points="397.072,320.25 397.072,318.388" stroke="#262626" stroke-linecap="butt" stroke-linejoin="miter" stroke-width="0.5"/>
   <polyline fill="none" points="397.072,27 397.072,28.8616" stroke="#262626" stroke-linecap="butt" stroke-linejoin="miter" stroke-width="0.5"/>
   <polyline fill="none" points="406.891,320.25 406.891,318.388" stroke="#262626" stroke-linecap="butt" stroke-linejoin="miter" stroke-width="0.5"/>
   <polyline fill="none" points="406.891,27 406.891,28.8616" stroke="#262626" stroke-linecap="butt" stroke-linejoin="miter" stroke-width="0.5"/>
   <polyline fill="none" points="415.192,320.25 415.192,318.388" stroke="#262626" stroke-linecap="butt" stroke-linejoin="miter" stroke-width="0.5"/>
   <polyline fill="none" points="415.192,27 415.192,28.8616" stroke="#262626" stroke-linecap="butt" stroke-linejoin="miter" stroke-width="0.5"/>
   <polyline fill="none" points="422.383,320.25 422.383,318.388" stroke="#262626" stroke-linecap="butt" stroke-linejoin="miter" stroke-width="0.5"/>
   <polyline fill="none" points="422.383,27 422.383,28.8616" stroke="#262626" stroke-linecap="butt" stroke-linejoin="miter" stroke-width="0.5"/>
   <polyline fill="none" points="428.726,320.25 428.726,318.388" stroke="#262626" stroke-linecap="butt" stroke-linejoin="miter" stroke-width="0.5"/>
   <polyline fill="none" points="428.726,27 428.726,28.8616" stroke="#262626" stroke-linecap="butt" stroke-linejoin="miter" stroke-width="0.5"/>
   <polyline fill="none" points="62.4,320.25 62.4,316.526" stroke="#262626" stroke-linecap="butt" stroke-linejoin="miter" stroke-width="0.5"/>
   <polyline fill="none" points="62.4,27 62.4,30.7232" stroke="#262626" stroke-linecap="butt" stroke-linejoin="miter" stroke-width="0.5"/>
   <polyline fill="none" points="186.4,320.25 186.4,316.526" stroke="#262626" stroke-linecap="butt" stroke-linejoin="miter" stroke-width="0.5"/>
   <polyline fill="none" points="186.4,27 186.4,30.7232" stroke="#262626" stroke-linecap="butt" stroke-linejoin="miter" stroke-width="0.5"/>
   <polyline fill="none" points="310.4,320.25 310.4,316.526" stroke="#262626" stroke-linecap="butt" stroke-linejoin="miter" stroke-width="0.5"/>
   <polyline fill="none" points="310.4,27 310.4,30.7232" stroke="#262626" stroke-linecap="butt" stroke-linejoin="miter" stroke-width="0.5"/>
   <polyline fill="none" points="434.4,320.25 434.4,316.526" stroke="#262626" stroke-linecap="butt" stroke-linejoin="miter" stroke-width="0.5"/>
   <polyline fill="none" points="434.4,27 434.4,30.7232" stroke="#262626" stroke-linecap="butt" stroke-linejoin="miter" stroke-width="0.5"/>
   <g font-family="FreeSans" font-size="11.6513" font-style="normal" font-weight="normal" transform="translate(52.4,340.996) rotate(-0,10,-12)" xml:space="preserve">
    <text fill="rgb(38,38,38)" x="0 6 " y="-0">10</text>
    <text fill="rgb(38,38,38)" font-size="8.15594" x="12 15 " y="-5">-1</text>
   </g>
   <g font-family="FreeSans" font-size="11.6513" font-style="normal" font-weight="normal" transform="translate(177.9,340.996) rotate(-0,8.5,-12)" xml:space="preserve">
    <text fill="rgb(38,38,38)" x="0 6 " y="-0">10</text>
    <text fill="rgb(38,38,38)" font-size="8.15594" x="12 " y="-5">0</text>
   </g>
   <g font-family="FreeSans" font-size="11.6513" font-style="normal" font-weight="normal" transform="translate(301.9,340.996) rotate(-0,8.5,-12)" xml:space="preserve">
    <text fill="rgb(38,38,38)" x="0 6 " y="-0">10</text>
    <text fill="rgb(38,38,38)" font-size="8.15594" x="12 " y="-5">1</text>
   </g>
   <g font-family="FreeSans" font-size="11.6513" font-style="normal" font-weight="normal" transform="translate(425.9,340.996) rotate(-0,8.5,-12)" xml:space="preserve">
    <text fill="rgb(38,38,38)" x="0 6 " y="-0">10</text>
    <text fill="rgb(38,38,38)" font-size="8.15594" x="12 " y="-5">2</text>
   </g>
   <polyline fill="none" points="62.4,285.494 434.4,285.494" stroke="#262626" stroke-dasharray="16,0" stroke-linecap="butt" stroke-linejoin="miter" stroke-opacity="0.15" stroke-width="0.5"/>
   <polyline fill="none" points="62.4,214.31 434.4,214.31" stroke="#262626" stroke-dasharray="16,0" stroke-linecap="butt" stroke-linejoin="miter" stroke-opacity="0.15" stroke-width="0.5"/>
   <polyline fill="none" points="62.4,143.125 434.4,143.125" stroke="#262626" stroke-dasharray="16,0" stroke-linecap="butt" stroke-linejoin="miter" stroke-opacity="0.15" stroke-width="0.5"/>
   <polyline fill="none" points="62.4,71.9407 434.4,71.9407" stroke="#262626" stroke-dasharray="16,0" stroke-linecap="butt" stroke-linejoin="miter" stroke-opacity="0.15" stroke-width="0.5"/>
   <polyline fill="none" points="62.4,285.494 66.12,285.494" stroke="#262626" stroke-linecap="butt" stroke-linejoin="miter" stroke-width="0.5"/>
   <polyline fill="none" points="434.4,285.494 430.68,285.494" stroke="#262626" stroke-linecap="butt" stroke-linejoin="miter" stroke-width="0.5"/>
   <polyline fill="none" points="62.4,214.31 66.12,214.31" stroke="#262626" stroke-linecap="butt" stroke-linejoin="miter" stroke-width="0.5"/>
   <polyline fill="none" points="434.4,214.31 430.68,214.31" stroke="#262626" stroke-linecap="butt" stroke-linejoin="miter" stroke-width="0.5"/>
   <polyline fill="none" points="62.4,143.125 66.12,143.125" stroke="#262626" stroke-linecap="butt" stroke-linejoin="miter" stroke-width="0.5"/>
   <polyline fill="none" points="434.4,143.125 430.68,143.125" stroke="#262626" stroke-linecap="butt" stroke-linejoin="miter" stroke-width="0.5"/>
   <polyline fill="none" points="62.4,71.9407 66.12,71.9407" stroke="#262626" stroke-linecap="butt" stroke-linejoin="miter" stroke-width="0.5"/>
   <polyline fill="none" points="434.4,71.9407 430.68,71.9407" stroke="#262626" stroke-linecap="butt" stroke-linejoin="miter" stroke-width="0.5"/>
   <g font-family="FreeSans" font-size="11.6513" font-style="normal" font-weight="normal" transform="translate(40.5743,290.494) rotate(-0,16,-5)" xml:space="preserve">
    <text fill="rgb(38,38,38)" x="0 4 10 " y="-0">-80</text>
   </g>
   <g font-family="FreeSans" font-size="11.6513" font-style="normal" font-weight="normal" transform="translate(40.5743,219.31) rotate(-0,16,-5)" xml:space="preserve">
    <text fill="rgb(38,38,38)" x="0 4 10 " y="-0">-60</text>
   </g>
   <g font-family="FreeSans" font-size="11.6513" font-style="normal" font-weight="normal" transform="translate(40.5743,148.125) rotate(-0,16,-5)" xml:space="preserve">
    <text fill="rgb(38,38,38)" x="0 4 10 " y="-0">-40</text>
   </g>
   <g font-family="FreeSans" font-size="11.6513" font-style="normal" font-weight="normal" transform="translate(40.5743,76.9407) rotate(-0,16,-5)" xml:space="preserve">
    <text fill="rgb(38,38,38)" x="0 4 10 " y="-0">-20</text>
   </g>
   <polyline fill="none" points="62.4,320.25 434.4,320.25" stroke="#262626" stroke-dasharray="16,0" stroke-linecap="square" stroke-linejoin="miter" stroke-width="0.5"/>
   <polyline fill="none" points="62.4,27 434.4,27" stroke="#262626" stroke-dasharray="16,0" stroke-linecap="square" stroke-linejoin="miter" stroke-width="0.5"/>
   <polyline fill="none" points="62.4,320.25 62.4,27" stroke="#262626" stroke-dasharray="16,0" stroke-linecap="square" stroke-linejoin="miter" stroke-width="0.5"/>
   <polyline fill="none" points="434.4,320.25 434.4,27" stroke="#262626" stroke-dasharray="16,0" stroke-linecap="square" stroke-linejoin="miter" stroke-width="0.5"/>
   <g font-family="FreeSans" font-size="12.8165" font-style="normal" font-weight="normal" transform="translate(199.4,359.996) rotate(-0,49,-14)" xml:space="preserve">
    <text fill="rgb(38,38,38)" x="0 8 12 19 26 33 40 47 53 59 62 66 70 77 84 88 94 " y="-3">Frequency [rad/s]</text>
   </g>
   <g font-family="FreeSans" font-size="12.8165" font-style="normal" font-weight="normal" transform="translate(-7.92567,173.625) rotate(-90,43.5,0)" xml:space="preserve">
    <text fill="rgb(38,38,38)" x="0 11 18 25 32 35 39 46 53 60 63 67 74 83 " y="-3">Magnitude [dB]</text>
   </g>
   <g font-family="FreeSans" font-size="12.8165" font-style="normal" font-weight="bold" transform="translate(170.4,17) rotate(-0,78,0)" xml:space="preserve">
    <text fill="rgb(0,0,0)" x="0 9 17 25 32 36 47 54 62 70 74 78 86 94 101 105 114 118 125 133 138 145 " y="-3">Bode Magnitude Diagram</text>
   </g>
   <polyline fill="none" points="62.4,43.5461 62.7724,43.5452 63.1448,43.5443 63.5171,43.5433 63.8895,43.5423 64.2619,43.5413 64.6342,43.5403 65.0066,43.5393 65.379,43.5383 65.7513,43.5372 66.1237,43.5362 66.4961,43.5351 66.8685,43.534 67.2408,43.5329 67.6132,43.5318 67.9856,43.5307 68.358,43.5295 68.7303,43.5284 69.1027,43.5272 69.4751,43.526 69.8475,43.5247 70.2198,43.5235 70.5922,43.5223 70.9646,43.521 71.3369,43.5197 71.7093,43.5184 72.0817,43.5171 72.4541,43.5158 72.8264,43.5144 73.1988,43.5131 73.5712,43.5117 73.9436,43.5103 74.3159,43.5088 74.6883,43.5074 75.0607,43.5059 75.433,43.5044 75.8054,43.5029 76.1778,43.5014 76.5502,43.4998 76.9225,43.4983 77.2949,43.4967 77.6673,43.4951 78.0396,43.4934 78.412,43.4918 78.7844,43.4901 79.1568,43.4883 79.5291,43.4866 79.9015,43.4849 80.2739,43.4831 80.6463,43.4813 81.0186,43.4795 81.391,43.4776 81.7634,43.4757 82.1357,43.4738 82.5081,43.4719 82.8805,43.4699 83.2529,43.468 83.6252,43.4659 83.9976,43.4639 84.37,43.4618 84.7424,43.4597 85.1147,43.4576 85.4871,43.4555 85.8595,43.4533 86.2318,43.4511 86.6042,43.4488 86.9766,43.4466 87.3489,43.4442 87.7213,43.4419 88.0937,43.4395 88.4661,43.4372 88.8385,43.4347 89.2108,43.4323 89.5832,43.4297 89.9556,43.4272 90.3279,43.4247 90.7003,43.4221 91.0727,43.4194 91.445,43.4167 91.8174,43.414 92.1898,43.4113 92.5622,43.4085 92.9345,43.4057 93.3069,43.4028 93.6793,43.3999 94.0517,43.397 94.424,43.394 94.7964,43.391 95.1688,43.3879 95.5411,43.3848 95.9135,43.3817 96.2859,43.3785 96.6583,43.3752 97.0306,43.372 97.403,43.3687 97.7754,43.3653 98.1478,43.3619 98.5201,43.3585 98.8925,43.3549 99.2649,43.3514 99.6372,43.3478 100.01,43.3441 100.382,43.3405 100.754,43.3367 101.127,43.3329 101.499,43.3291 101.871,43.3252 102.244,43.3212 102.616,43.3172 102.989,43.3132 103.361,43.3091 103.733,43.3049 104.106,43.3007 104.478,43.2964 104.85,43.2921 105.223,43.2877 105.595,43.2832 105.968,43.2787 106.34,43.2741 106.712,43.2695 107.085,43.2648 107.457,43.26 107.829,43.2552 108.202,43.2503 108.574,43.2454 108.947,43.2404 109.319,43.2353 109.691,43.2301 110.064,43.2249 110.436,43.2196 110.808,43.2143 111.181,43.2088 111.553,43.2033 111.926,43.1978 112.298,43.1921 112.67,43.1864 113.043,43.1806 113.415,43.1747 113.787,43.1688 114.16,43.1628 114.532,43.1566 114.905,43.1505 115.277,43.1442 115.649,43.1378 116.022,43.1314 116.394,43.1249 116.766,43.1183 117.139,43.1116 117.511,43.1048 117.883,43.0979 118.256,43.091 118.628,43.0839 119.001,43.0768 119.373,43.0696 119.745,43.0623 120.118,43.0548 120.49,43.0473 120.862,43.0397 121.235,43.032 121.607,43.0242 121.98,43.0163 122.352,43.0083 122.724,43.0002 123.097,42.992 123.469,42.9836 123.841,42.9752 124.214,42.9667 124.586,42.958 124.959,42.9493 125.331,42.9404 125.703,42.9315 126.076,42.9224 126.448,42.9132 126.82,42.9039 127.193,42.8944 127.565,42.8849 127.938,42.8752 128.31,42.8654 128.682,42.8555 129.055,42.8455 129.427,42.8353 129.799,42.825 130.172,42.8146 130.544,42.8041 130.917,42.7934 131.289,42.7826 131.661,42.7717 132.034,42.7606 132.406,42.7494 132.778,42.7381 133.151,42.7266 133.523,42.715 133.896,42.7032 134.268,42.6914 134.64,42.6794 135.013,42.6672 135.385,42.6548 135.757,42.6424 136.13,42.6298 136.502,42.617 136.874,42.6041 137.247,42.591 137.619,42.5778 137.992,42.5645 138.364,42.5509 138.736,42.5373 139.109,42.5234 139.481,42.5095 139.853,42.4953 140.226,42.481 140.598,42.4665 140.971,42.4519 141.343,42.4371 141.715,42.4221 142.088,42.407 142.46,42.3917 142.832,42.3763 143.205,42.3607 143.577,42.3449 143.95,42.3289 144.322,42.3128 144.694,42.2965 145.067,42.28 145.439,42.2634 145.811,42.2466 146.184,42.2296 146.556,42.2124 146.929,42.1951 147.301,42.1776 147.673,42.1599 148.046,42.142 148.418,42.124 148.79,42.1058 149.163,42.0874 149.535,42.0688 149.908,42.0501 150.28,42.0312 150.652,42.0121 151.025,41.9929 151.397,41.9734 151.769,41.9538 152.142,41.9341 152.514,41.9141 152.887,41.894 153.259,41.8737 153.631,41.8533 154.004,41.8327 154.376,41.8119 154.748,41.791 155.121,41.7698 155.493,41.7486 155.865,41.7272 156.238,41.7056 156.61,41.6839 156.983,41.662 157.355,41.64 157.727,41.6178 158.1,41.5955 158.472,41.5731 158.844,41.5505 159.217,41.5278 159.589,41.505 159.962,41.4821 160.334,41.459 160.706,41.4359 161.079,41.4126 161.451,41.3892 161.823,41.3658 162.196,41.3422 162.568,41.3186 162.941,41.2949 163.313,41.2711 163.685,41.2473 164.058,41.2235 164.43,41.1996 164.802,41.1757 165.175,41.1517 165.547,41.1277 165.92,41.1038 166.292,41.0799 166.664,41.0559 167.037,41.032 167.409,41.0082 167.781,40.9844 168.154,40.9607 168.526,40.9371 168.899,40.9136 169.271,40.8902 169.643,40.8669 170.016,40.8438 170.388,40.8209 170.76,40.7982 171.133,40.7756 171.505,40.7534 171.877,40.7313 172.25,40.7095 172.622,40.688 172.995,40.6669 173.367,40.646 173.739,40.6256 174.112,40.6055 174.484,40.5858 174.856,40.5667 175.229,40.5479 175.601,40.5297 175.974,40.5121 176.346,40.495 176.718,40.4785 177.091,40.4626 177.463,40.4474 177.835,40.433 178.208,40.4193 178.58,40.4064 178.953,40.3943 179.325,40.3831 179.697,40.3728 180.07,40.3635 180.442,40.3553 180.814,40.348 181.187,40.3419 181.559,40.3369 181.932,40.3332 182.304,40.3307 182.676,40.3295 183.049,40.3297 183.421,40.3314 183.793,40.3346 184.166,40.3393 184.538,40.3456 184.911,40.3536 185.283,40.3634 185.655,40.375 186.028,40.3885 186.4,40.4039 186.772,40.4214 187.145,40.441 187.517,40.4627 187.89,40.4867 188.262,40.5131 188.634,40.5418 189.007,40.573 189.379,40.6068 189.751,40.6432 190.124,40.6824 190.496,40.7243 190.868,40.7692 191.241,40.817 191.613,40.868 191.986,40.922 192.358,40.9793 192.73,41.0399 193.103,41.1039 193.475,41.1714 193.847,41.2425 194.22,41.3172 194.592,41.3957 194.965,41.478 195.337,41.5642 195.709,41.6544 196.082,41.7487 196.454,41.8471 196.826,41.9498 197.199,42.0568 197.571,42.1682 197.944,42.284 198.316,42.4044 198.688,42.5293 199.061,42.6589 199.433,42.7933 199.805,42.9324 200.178,43.0764 200.55,43.2252 200.923,43.379 201.295,43.5378 201.667,43.7017 202.04,43.8706 202.412,44.0446 202.784,44.2238 203.157,44.4081 203.529,44.5977 203.902,44.7925 204.274,44.9925 204.646,45.1977 205.019,45.4082 205.064,45.4341 205.391,45.624 205.763,45.845 206.136,46.0713 206.508,46.3027 206.88,46.5395 207.253,46.7814 207.625,47.0285 207.998,47.2807 208.37,47.5381 208.742,47.8006 209.115,48.0681 209.487,48.3406 209.859,48.6181 210.232,48.9005 210.604,49.1877 210.977,49.4797 211.349,49.7765 211.721,50.078 212.094,50.3841 212.466,50.6947 212.838,51.0098 213.211,51.3293 213.583,51.653 213.956,51.9811 214.328,52.3134 214.7,52.6497 215.073,52.9901 215.445,53.3344 215.817,53.6825 216.19,54.0344 216.562,54.39 216.935,54.7491 217.307,55.1118 217.679,55.4779 218.052,55.8474 218.424,56.2201 218.796,56.5959 219.169,56.9749 219.541,57.3569 219.914,57.7418 220.286,58.1295 220.658,58.5199 221.031,58.913 221.403,59.3087 221.775,59.7069 222.148,60.1075 222.52,60.5105 222.893,60.9158 223.265,61.3232 223.637,61.7328 224.01,62.1444 224.382,62.558 224.754,62.9734 225.127,63.3908 225.499,63.8098 225.871,64.2307 226.244,64.6531 226.616,65.0771 226.989,65.5026 227.361,65.9296 227.733,66.3579 228.106,66.7876 228.478,67.2186 228.85,67.6508 229.223,68.0842 229.595,68.5187 229.968,68.9543 230.34,69.3909 230.712,69.8285 231.085,70.267 231.457,70.7064 231.829,71.1466 232.202,71.5877 232.574,72.0295 232.947,72.472 233.319,72.9152 233.691,73.3591 234.064,73.8036 234.436,74.2487 234.808,74.6943 235.181,75.1404 235.553,75.587 235.926,76.0341 236.298,76.4816 236.67,76.9295 237.043,77.3778 237.415,77.8264 237.787,78.2754 238.16,78.7246 238.532,79.1741 238.905,79.6239 239.277,80.0739 239.649,80.5241 240.022,80.9745 240.394,81.4251 240.766,81.8759 241.139,82.3268 241.511,82.7778 241.883,83.2289 242.256,83.6801 242.628,84.1314 243.001,84.5828 243.373,85.0342 243.745,85.4857 244.118,85.9371 244.49,86.3886 244.862,86.8401 245.235,87.2916 245.607,87.7431 245.98,88.1945 246.352,88.6459 246.724,89.0973 247.097,89.5486 247.469,89.9998 247.841,90.451 248.214,90.9021 248.586,91.3531 248.959,91.804 249.331,92.2548 249.703,92.7056 250.076,93.1562 250.448,93.6067 250.82,94.0571 251.193,94.5073 251.565,94.9575 251.938,95.4075 252.31,95.8573 252.682,96.3071 253.055,96.7567 253.427,97.2061 253.799,97.6554 254.172,98.1045 254.544,98.5535 254.917,99.0023 255.289,99.451 255.661,99.8995 256.034,100.348 256.406,100.796 256.778,101.244 257.151,101.692 257.523,102.14 257.896,102.587 258.268,103.035 258.64,103.482 259.013,103.929 259.385,104.376 259.757,104.822 260.13,105.269 260.502,105.715 260.874,106.161 261.247,106.607 261.619,107.053 261.992,107.498 262.364,107.944 262.736,108.389 263.109,108.834 263.481,109.279 263.853,109.724 264.226,110.168 264.598,110.613 264.971,111.057 265.343,111.501 265.715,111.945 266.088,112.389 266.46,112.832 266.832,113.276 267.205,113.719 267.577,114.162 267.95,114.605 268.322,115.047 268.694,115.49 269.067,115.932 269.439,116.374 269.811,116.817 270.184,117.258 270.556,117.7 270.929,118.142 271.301,118.583 271.673,119.024 272.046,119.465 272.418,119.906 272.79,120.347 273.163,120.788 273.535,121.228 273.908,121.669 274.28,122.109 274.652,122.549 275.025,122.989 275.397,123.428 275.769,123.868 276.142,124.308 276.514,124.747 276.887,125.186 277.259,125.625 277.631,126.064 278.004,126.503 278.376,126.941 278.748,127.38 279.121,127.818 279.493,128.256 279.865,128.695 280.238,129.133 280.61,129.57 280.983,130.008 281.355,130.446 281.727,130.883 282.1,131.321 282.472,131.758 282.844,132.195 283.217,132.632 283.589,133.069 283.962,133.505 284.334,133.942 284.706,134.379 285.079,134.815 285.451,135.251 285.823,135.688 286.196,136.124 286.568,136.56 286.941,136.996 287.313,137.431 287.685,137.867 288.058,138.303 288.43,138.738 288.802,139.173 289.175,139.609 289.547,140.044 289.92,140.479 290.292,140.914 290.664,141.349 291.037,141.784 291.409,142.218 291.781,142.653 292.154,143.087 292.526,143.522 292.899,143.956 293.271,144.39 293.643,144.825 294.016,145.259 294.388,145.693 294.76,146.126 295.133,146.56 295.505,146.994 295.878,147.428 296.25,147.861 296.622,148.295 296.995,148.728 297.367,149.162 297.739,149.595 298.112,150.028 298.484,150.461 298.856,150.894 299.229,151.327 299.601,151.76 299.974,152.193 300.346,152.626 300.718,153.058 301.091,153.491 301.463,153.924 301.835,154.356 302.208,154.789 302.58,155.221 302.953,155.653 303.325,156.085 303.697,156.518 304.07,156.95 304.442,157.382 304.814,157.814 305.187,158.246 305.559,158.678 305.932,159.11 306.304,159.541 306.676,159.973 307.049,160.405 307.421,160.836 307.793,161.268 308.166,161.699 308.538,162.131 308.911,162.562 309.283,162.993 309.655,163.425 310.028,163.856 310.4,164.287 310.772,164.718 311.145,165.149 311.517,165.58 311.89,166.011 312.262,166.442 312.634,166.873 313.007,167.304 313.379,167.735 313.751,168.166 314.124,168.597 314.496,169.027 314.868,169.458 315.241,169.888 315.613,170.319 315.986,170.75 316.358,171.18 316.73,171.61 317.103,172.041 317.475,172.471 317.847,172.902 318.22,173.332 318.592,173.762 318.965,174.192 319.337,174.623 319.709,175.053 320.082,175.483 320.454,175.913 320.826,176.343 321.199,176.773 321.571,177.203 321.944,177.633 322.316,178.063 322.688,178.493 323.061,178.922 323.433,179.352 323.805,179.782 324.178,180.212 324.55,180.642 324.923,181.071 325.295,181.501 325.667,181.931 326.04,182.36 326.412,182.79 326.784,183.219 327.157,183.649 327.529,184.078 327.902,184.508 328.274,184.937 328.646,185.367 329.019,185.796 329.391,186.225 329.763,186.655 330.136,187.084 330.508,187.513 330.881,187.943 331.253,188.372 331.625,188.801 331.998,189.23 332.37,189.659 332.742,190.089 333.115,190.518 333.487,190.947 333.859,191.376 334.232,191.805 334.604,192.234 334.977,192.663 335.349,193.092 335.721,193.521 336.094,193.95 336.466,194.379 336.838,194.808 337.211,195.237 337.583,195.666 337.956,196.095 338.328,196.523 338.7,196.952 339.073,197.381 339.445,197.81 339.817,198.239 340.19,198.667 340.562,199.096 340.935,199.525 341.307,199.954 341.679,200.382 342.052,200.811 342.424,201.24 342.796,201.668 343.169,202.097 343.541,202.526 343.914,202.954 344.286,203.383 344.658,203.811 345.031,204.24 345.403,204.669 345.775,205.097 346.148,205.526 346.52,205.954 346.893,206.383 347.265,206.811 347.637,207.24 348.01,207.668 348.382,208.097 348.754,208.525 349.127,208.953 349.499,209.382 349.872,209.81 350.244,210.239 350.616,210.667 350.989,211.095 351.361,211.524 351.733,211.952 352.106,212.38 352.478,212.809 352.85,213.237 353.223,213.665 353.595,214.094 353.968,214.522 354.34,214.95 354.712,215.378 355.085,215.807 355.457,216.235 355.829,216.663 356.202,217.091 356.574,217.52 356.947,217.948 357.319,218.376 357.691,218.804 358.064,219.232 358.436,219.66 358.808,220.089 359.181,220.517 359.553,220.945 359.926,221.373 360.298,221.801 360.67,222.229 361.043,222.657 361.415,223.085 361.787,223.514 362.16,223.942 362.532,224.37 362.905,224.798 363.277,225.226 363.649,225.654 364.022,226.082 364.394,226.51 364.766,226.938 365.139,227.366 365.511,227.794 365.884,228.222 366.256,228.65 366.628,229.078 367.001,229.506 367.373,229.934 367.745,230.362 368.118,230.79 368.49,231.218 368.862,231.646 369.235,232.074 369.607,232.502 369.98,232.93 370.352,233.358 370.724,233.786 371.097,234.214 371.469,234.641 371.841,235.069 372.214,235.497 372.586,235.925 372.959,236.353 373.331,236.781 373.703,237.209 374.076,237.637 374.448,238.065 374.82,238.493 375.193,238.92 375.565,239.348 375.938,239.776 376.31,240.204 376.682,240.632 377.055,241.06 377.427,241.488 377.799,241.915 378.172,242.343 378.544,242.771 378.917,243.199 379.289,243.627 379.661,244.055 380.034,244.482 380.406,244.91 380.778,245.338 381.151,245.766 381.523,246.194 381.896,246.621 382.268,247.049 382.64,247.477 383.013,247.905 383.385,248.333 383.757,248.76 384.13,249.188 384.502,249.616 384.875,250.044 385.247,250.471 385.619,250.899 385.992,251.327 386.364,251.755 386.736,252.182 387.109,252.61 387.481,253.038 387.853,253.466 388.226,253.893 388.598,254.321 388.971,254.749 389.343,255.177 389.715,255.604 390.088,256.032 390.46,256.46 390.832,256.888 391.205,257.315 391.577,257.743 391.95,258.171 392.322,258.598 392.694,259.026 393.067,259.454 393.439,259.882 393.811,260.309 394.184,260.737 394.556,261.165 394.929,261.592 395.301,262.02 395.673,262.448 396.046,262.875 396.418,263.303 396.79,263.731 397.163,264.159 397.535,264.586 397.908,265.014 398.28,265.442 398.652,265.869 399.025,266.297 399.397,266.725 399.769,267.152 400.142,267.58 400.514,268.008 400.887,268.435 401.259,268.863 401.631,269.291 402.004,269.718 402.376,270.146 402.748,270.574 403.121,271.001 403.493,271.429 403.865,271.857 404.238,272.284 404.61,272.712 404.983,273.139 405.355,273.567 405.727,273.995 406.1,274.422 406.472,274.85 406.844,275.278 407.217,275.705 407.589,276.133 407.962,276.561 408.334,276.988 408.706,277.416 409.079,277.844 409.451,278.271 409.823,278.699 410.196,279.126 410.568,279.554 410.941,279.982 411.313,280.409 411.685,280.837 412.058,281.264 412.43,281.692 412.802,282.12 413.175,282.547 413.547,282.975 413.92,283.403 414.292,283.83 414.664,284.258 415.037,284.685 415.409,285.113 415.781,285.541 416.154,285.968 416.526,286.396 416.899,286.823 417.271,287.251 417.643,287.679 418.016,288.106 418.388,288.534 418.76,288.961 419.133,289.389 419.505,289.817 419.878,290.244 420.25,290.672 420.622,291.099 420.995,291.527 421.367,291.955 421.739,292.382 422.112,292.81 422.484,293.237 422.857,293.665 423.229,294.093 423.601,294.52 423.974,294.948 424.346,295.375 424.718,295.803 425.091,296.231 425.463,296.658 425.835,297.086 426.208,297.513 426.58,297.941 426.953,298.368 427.325,298.796 427.697,299.224 428.07,299.651 428.442,300.079 428.814,300.506 429.187,300.934 429.559,301.362 429.932,301.789 430.304,302.217 430.676,302.644 431.049,303.072 431.421,303.499 431.793,303.927 432.166,304.355 432.538,304.782 432.911,305.21 433.283,305.637 433.655,306.065 434.028,306.492 434.4,306.92" stroke="#0071bc" stroke-linecap="butt" stroke-linejoin="round" stroke-width="0.5"/>
  </g>
  <clipPath id="cp00480360">
   <polygon points="0,360 480,360 480,0 0,0"/>
  </clipPath>
  <g clip-path="url(#cp00480360)">
   <polygon fill="#ffffff" points="388.347,52.821 426.389,52.821 426.389,35.0105 388.347,35.0105" shape-rendering="crispEdges"/>
   <polyline fill="none" points="388.347,52.821 426.389,52.821" stroke="#262626" stroke-dasharray="16,0" stroke-linecap="square" stroke-linejoin="miter" stroke-width="0.5"/>
   <polyline fill="none" points="388.347,35.0105 426.389,35.0105" stroke="#262626" stroke-dasharray="16,0" stroke-linecap="square" stroke-linejoin="miter" stroke-width="0.5"/>
   <polyline fill="none" points="388.347,52.821 388.347,35.0105" stroke="#262626" stroke-dasharray="16,0" stroke-linecap="square" stroke-linejoin="miter" stroke-width="0.5"/>
   <polyline fill="none" points="426.389,52.821 426.389,35.0105" stroke="#262626" stroke-dasharray="16,0" stroke-linecap="square" stroke-linejoin="miter" stroke-width="0.5"/>
   <polyline fill="none" points="392.353,43.9158 412.379,43.9158" stroke="#0071bc" stroke-linecap="butt" stroke-linejoin="round" stroke-width="0.5"/>
   <g font-family="FreeSans" font-size="10.4862" font-style="normal" font-weight="normal" transform="translate(416.384,48.4158) rotate(-0,-0,-4.5)" xml:space="preserve">
    <text fill="rgb(0,0,0)" x="0 " y="-2">g</text>
   </g>
  </g>
 </g>
</svg>
