<?xml version='1.0' encoding='UTF-8' standalone='no'?>
<svg height="360pt" viewBox="0 0 480 360" width="480pt" xmlns="http://www.w3.org/2000/svg" xmlns:xlink="http://www.w3.org/1999/xlink">
 <title>Figure 1</title>
 <desc>
Creator: GL2PS 1.4.2, (C) 1999-2020 C. Geuzaine
For: Octave
CreationDate: Sun Feb 15 22:27:14 2026
</desc>
 <defs/>
 <polygon fill="#ffffff" points="0,0 480,0 480,360 0,360"/>
 <g>
  <polygon fill="#ffffff" points="0,360 480,360 480,0 0,0" shape-rendering="crispEdges"/>
  <clipPath id="cp00480360">
   <polygon points="0,360 480,360 480,0 0,0"/>
  </clipPath>
  <g clip-path="url(#cp00480360)">
   <polygon fill="#ffffff" points="62.4,148.717 434.4,148.717 434.4,30.1339 62.4,30.1339" shape-rendering="crispEdges"/>
   <polyline fill="none" points="99.7277,148.717 99.7277,30.1339" stroke="#191919" stroke-dasharray="1,3,1,3,1,3,1,3" stroke-linecap="butt" stroke-linejoin="miter" stroke-opacity="0.25" stroke-width="0.5"/>
   <polyline fill="none" points="121.563,148.717 121.563,30.1339" stroke="#191919" stroke-dasharray="1,3,1,3,1,3,1,3" stroke-linecap="butt" stroke-linejoin="miter" stroke-opacity="0.25" stroke-width="0.5"/>
   <polyline fill="none" points="137.055,148.717 137.055,30.1339" stroke="#191919" stroke-dasharray="1,3,1,3,1,3,1,3" stroke-linecap="butt" stroke-linejoin="miter" stroke-opacity="0.25" stroke-width="0.5"/>
   <polyline fill="none" points="149.072,148.717 149.072,30.1339" stroke="#191919" stroke-dasharray="1,3,1,3,1,3,1,3" stroke-linecap="butt" stroke-linejoin="miter" stroke-opacity="0.25" stroke-width="0.5"/>
   <polyline fill="none" points="158.891,148.717 158.891,30.1339" stroke="#191919" stroke-dasharray="1,3,1,3,1,3,1,3" stroke-linecap="butt" stroke-linejoin="miter" stroke-opacity="0.25" stroke-width="0.5"/>
   <polyline fill="none" points="167.192,148.717 167.192,30.1339" stroke="#191919" stroke-dasharray="1,3,1,3,1,3,1,3" stroke-linecap="butt" stroke-linejoin="miter" stroke-opacity="0.25" stroke-width="0.5"/>
   <polyline fill="none" points="174.383,148.717 174.383,30.1339" stroke="#191919" stroke-dasharray="1,3,1,3,1,3,1,3" stroke-linecap="butt" stroke-linejoin="miter" stroke-opacity="0.25" stroke-width="0.5"/>
   <polyline fill="none" points="180.726,148.717 180.726,30.1339" stroke="#191919" stroke-dasharray="1,3,1,3,1,3,1,3" stroke-linecap="butt" stroke-linejoin="miter" stroke-opacity="0.25" stroke-width="0.5"/>
   <polyline fill="none" points="223.728,148.717 223.728,30.1339" stroke="#191919" stroke-dasharray="1,3,1,3,1,3,1,3" stroke-linecap="butt" stroke-linejoin="miter" stroke-opacity="0.25" stroke-width="0.5"/>
   <polyline fill="none" points="245.563,148.717 245.563,30.1339" stroke="#191919" stroke-dasharray="1,3,1,3,1,3,1,3" stroke-linecap="butt" stroke-linejoin="miter" stroke-opacity="0.25" stroke-width="0.5"/>
   <polyline fill="none" points="261.055,148.717 261.055,30.1339" stroke="#191919" stroke-dasharray="1,3,1,3,1,3,1,3" stroke-linecap="butt" stroke-linejoin="miter" stroke-opacity="0.25" stroke-width="0.5"/>
   <polyline fill="none" points="273.072,148.717 273.072,30.1339" stroke="#191919" stroke-dasharray="1,3,1,3,1,3,1,3" stroke-linecap="butt" stroke-linejoin="miter" stroke-opacity="0.25" stroke-width="0.5"/>
   <polyline fill="none" points="282.891,148.717 282.891,30.1339" stroke="#191919" stroke-dasharray="1,3,1,3,1,3,1,3" stroke-linecap="butt" stroke-linejoin="miter" stroke-opacity="0.25" stroke-width="0.5"/>
   <polyline fill="none" points="291.192,148.717 291.192,30.1339" stroke="#191919" stroke-dasharray="1,3,1,3,1,3,1,3" stroke-linecap="butt" stroke-linejoin="miter" stroke-opacity="0.25" stroke-width="0.5"/>
   <polyline fill="none" points="298.383,148.717 298.383,30.1339" stroke="#191919" stroke-dasharray="1,3,1,3,1,3,1,3" stroke-linecap="butt" stroke-linejoin="miter" stroke-opacity="0.25" stroke-width="0.5"/>
   <polyline fill="none" points="304.726,148.717 304.726,30.1339" stroke="#191919" stroke-dasharray="1,3,1,3,1,3,1,3" stroke-linecap="butt" stroke-linejoin="miter" stroke-opacity="0.25" stroke-width="0.5"/>
   <polyline fill="none" points="347.728,148.717 347.728,30.1339" stroke="#191919" stroke-dasharray="1,3,1,3,1,3,1,3" stroke-linecap="butt" stroke-linejoin="miter" stroke-opacity="0.25" stroke-width="0.5"/>
   <polyline fill="none" points="369.563,148.717 369.563,30.1339" stroke="#191919" stroke-dasharray="1,3,1,3,1,3,1,3" stroke-linecap="butt" stroke-linejoin="miter" stroke-opacity="0.25" stroke-width="0.5"/>
   <polyline fill="none" points="385.055,148.717 385.055,30.1339" stroke="#191919" stroke-dasharray="1,3,1,3,1,3,1,3" stroke-linecap="butt" stroke-linejoin="miter" stroke-opacity="0.25" stroke-width="0.5"/>
   <polyline fill="none" points="397.072,148.717 397.072,30.1339" stroke="#191919" stroke-dasharray="1,3,1,3,1,3,1,3" stroke-linecap="butt" stroke-linejoin="miter" stroke-opacity="0.25" stroke-width="0.5"/>
   <polyline fill="none" points="406.891,148.717 406.891,30.1339" stroke="#191919" stroke-dasharray="1,3,1,3,1,3,1,3" stroke-linecap="butt" stroke-linejoin="miter" stroke-opacity="0.25" stroke-width="0.5"/>
   <polyline fill="none" points="415.192,148.717 415.192,30.1339" stroke="#191919" stroke-dasharray="1,3,1,3,1,3,1,3" stroke-linecap="butt" stroke-linejoin="miter" stroke-opacity="0.25" stroke-width="0.5"/>
   <polyline fill="none" points="422.383,148.717 422.383,30.1339" stroke="#191919" stroke-dasharray="1,3,1,3,1,3,1,3" stroke-linecap="butt" stroke-linejoin="miter" stroke-opacity="0.25" stroke-width="0.5"/>
   <polyline fill="none" points="428.726,148.717 428.726,30.1339" stroke="#191919" stroke-dasharray="1,3,1,3,1,3,1,3" stroke-linecap="butt" stroke-linejoin="miter" stroke-opacity="0.25" stroke-width="0.5"/>
   <polyline fill="none" points="62.4,148.717 62.4,30.1339" stroke="#262626" stroke-dasharray="16,0" stroke-linecap="butt" stroke-linejoin="miter" stroke-opacity="0.15" stroke-width="0.5"/>
   <polyline fill="none" points="186.4,148.717 186.4,30.1339" stroke="#262626" stroke-dasharray="16,0" stroke-linecap="butt" stroke-linejoin="miter" stroke-opacity="0.15" stroke-width="0.5"/>
   <polyline fill="none" points="310.4,148.717 310.4,30.1339" stroke="#262626" stroke-dasharray="16,0" stroke-linecap="butt" stroke-linejoin="miter" stroke-opacity="0.15" stroke-width="0.5"/>
   <polyline fill="none" points="434.4,148.717 434.4,30.1339" stroke="#262626" stroke-dasharray="16,0" stroke-linecap="butt" stroke-linejoin="miter" stroke-opacity="0.15" stroke-width="0.5"/>
   <polyline fill="none" points="99.7277,148.717 99.7277,146.864" stroke="#262626" stroke-linecap="butt" stroke-linejoin="miter" stroke-width="0.5"/>
   <polyline fill="none" points="99.7277,30.1339 99.7277,31.9873" stroke="#262626" stroke-linecap="butt" stroke-linejoin="miter" stroke-width="0.5"/>
   <polyline fill="none" points="121.563,148.717 121.563,146.864" stroke="#262626" stroke-linecap="butt" stroke-linejoin="miter" stroke-width="0.5"/>
   <polyline fill="none" points="121.563,30.1339 121.563,31.9873" stroke="#262626" stroke-linecap="butt" stroke-linejoin="miter" stroke-width="0.5"/>
   <polyline fill="none" points="137.055,148.717 137.055,146.864" stroke="#262626" stroke-linecap="butt" stroke-linejoin="miter" stroke-width="0.5"/>
   <polyline fill="none" points="137.055,30.1339 137.055,31.9873" stroke="#262626" stroke-linecap="butt" stroke-linejoin="miter" stroke-width="0.5"/>
   <polyline fill="none" points="149.072,148.717 149.072,146.864" stroke="#262626" stroke-linecap="butt" stroke-linejoin="miter" stroke-width="0.5"/>
   <polyline fill="none" points="149.072,30.1339 149.072,31.9873" stroke="#262626" stroke-linecap="butt" stroke-linejoin="miter" stroke-width="0.5"/>
   <polyline fill="none" points="158.891,148.717 158.891,146.864" stroke="#262626" stroke-linecap="butt" stroke-linejoin="miter" stroke-width="0.5"/>
   <polyline fill="none" points="158.891,30.1339 158.891,31.9873" stroke="#262626" stroke-linecap="butt" stroke-linejoin="miter" stroke-width="0.5"/>
   <polyline fill="none" points="167.192,148.717 167.192,146.864" stroke="#262626" stroke-linecap="butt" stroke-linejoin="miter" stroke-width="0.5"/>
   <polyline fill="none" points="167.192,30.1339 167.192,31.9873" stroke="#262626" stroke-linecap="butt" stroke-linejoin="miter" stroke-width="0.5"/>
   <polyline fill="none" points="174.383,148.717 174.383,146.864" stroke="#262626" stroke-linecap="butt" stroke-linejoin="miter" stroke-width="0.5"/>
   <polyline fill="none" points="174.383,30.1339 174.383,31.9873" stroke="#262626" stroke-linecap="butt" stroke-linejoin="miter" stroke-width="0.5"/>
   <polyline fill="none" points="180.726,148.717 180.726,146.864" stroke="#262626" stroke-linecap="butt" stroke-linejoin="miter" stroke-width="0.5"/>
   <polyline fill="none" points="180.726,30.1339 180.726,31.9873" stroke="#262626" stroke-linecap="butt" stroke-linejoin="miter" stroke-width="0.5"/>
   <polyline fill="none" points="223.728,148.717 223.728,146.864" stroke="#262626" stroke-linecap="butt" stroke-linejoin="miter" stroke-width="0.5"/>
   <polyline fill="none" points="223.728,30.1339 223.728,31.9873" stroke="#262626" stroke-linecap="butt" stroke-linejoin="miter" stroke-width="0.5"/>
   <polyline fill="none" points="245.563,148.717 245.563,146.864" stroke="#262626" stroke-linecap="butt" stroke-linejoin="miter" stroke-width="0.5"/>
   <polyline fill="none" points="245.563,30.1339 245.563,31.9873" stroke="#262626" stroke-linecap="butt" stroke-linejoin="miter" stroke-width="0.5"/>
   <polyline fill="none" points="261.055,148.717 261.055,146.864" stroke="#262626" stroke-linecap="butt" stroke-linejoin="miter" stroke-width="0.5"/>
   <polyline fill="none" points="261.055,30.1339 261.055,31.9873" stroke="#262626" stroke-linecap="butt" stroke-linejoin="miter" stroke-width="0.5"/>
   <polyline fill="none" points="273.072,148.717 273.072,146.864" stroke="#262626" stroke-linecap="butt" stroke-linejoin="miter" stroke-width="0.5"/>
   <polyline fill="none" points="273.072,30.1339 273.072,31.9873" stroke="#262626" stroke-linecap="butt" stroke-linejoin="miter" stroke-width="0.5"/>
   <polyline fill="none" points="282.891,148.717 282.891,146.864" stroke="#262626" stroke-linecap="butt" stroke-linejoin="miter" stroke-width="0.5"/>
   <polyline fill="none" points="282.891,30.1339 282.891,31.9873" stroke="#262626" stroke-linecap="butt" stroke-linejoin="miter" stroke-width="0.5"/>
   <polyline fill="none" points="291.192,148.717 291.192,146.864" stroke="#262626" stroke-linecap="butt" stroke-linejoin="miter" stroke-width="0.5"/>
   <polyline fill="none" points="291.192,30.1339 291.192,31.9873" stroke="#262626" stroke-linecap="butt" stroke-linejoin="miter" stroke-width="0.5"/>
   <polyline fill="none" points="298.383,148.717 298.383,146.864" stroke="#262626" stroke-linecap="butt" stroke-linejoin="miter" stroke-width="0.5"/>
   <polyline fill="none" points="298.383,30.1339 298.383,31.9873" stroke="#262626" stroke-linecap="butt" stroke-linejoin="miter" stroke-width="0.5"/>
   <polyline fill="none" points="304.726,148.717 304.726,146.864" stroke="#262626" stroke-linecap="butt" stroke-linejoin="miter" stroke-width="0.5"/>
   <polyline fill="none" points="304.726,30.1339 304.726,31.9873" stroke="#262626" stroke-linecap="butt" stroke-linejoin="miter" stroke-width="0.5"/>
   <polyline fill="none" points="347.728,148.717 347.728,146.864" stroke="#262626" stroke-linecap="butt" stroke-linejoin="miter" stroke-width="0.5"/>
   <polyline fill="none" points="347.728,30.1339 347.728,31.9873" stroke="#262626" stroke-linecap="butt" stroke-linejoin="miter" stroke-width="0.5"/>
   <polyline fill="none" points="369.563,148.717 369.563,146.864" stroke="#262626" stroke-linecap="butt" stroke-linejoin="miter" stroke-width="0.5"/>
   <polyline fill="none" points="369.563,30.1339 369.563,31.9873" stroke="#262626" stroke-linecap="butt" stroke-linejoin="miter" stroke-width="0.5"/>
   <polyline fill="none" points="385.055,148.717 385.055,146.864" stroke="#262626" stroke-linecap="butt" stroke-linejoin="miter" stroke-width="0.5"/>
   <polyline fill="none" points="385.055,30.1339 385.055,31.9873" stroke="#262626" stroke-linecap="butt" stroke-linejoin="miter" stroke-width="0.5"/>
   <polyline fill="none" points="397.072,148.717 397.072,146.864" stroke="#262626" stroke-linecap="butt" stroke-linejoin="miter" stroke-width="0.5"/>
   <polyline fill="none" points="397.072,30.1339 397.072,31.9873" stroke="#262626" stroke-linecap="butt" stroke-linejoin="miter" stroke-width="0.5"/>
   <polyline fill="none" points="406.891,148.717 406.891,146.864" stroke="#262626" stroke-linecap="butt" stroke-linejoin="miter" stroke-width="0.5"/>
   <polyline fill="none" points="406.891,30.1339 406.891,31.9873" stroke="#262626" stroke-linecap="butt" stroke-linejoin="miter" stroke-width="0.5"/>
   <polyline fill="none" points="415.192,148.717 415.192,146.864" stroke="#262626" stroke-linecap="butt" stroke-linejoin="miter" stroke-width="0.5"/>
   <polyline fill="none" points="415.192,30.1339 415.192,31.9873" stroke="#262626" stroke-linecap="butt" stroke-linejoin="miter" stroke-width="0.5"/>
   <polyline fill="none" points="422.383,148.717 422.383,146.864" stroke="#262626" stroke-linecap="butt" stroke-linejoin="miter" stroke-width="0.5"/>
   <polyline fill="none" points="422.383,30.1339 422.383,31.9873" stroke="#262626" stroke-linecap="butt" stroke-linejoin="miter" stroke-width="0.5"/>
   <polyline fill="none" points="428.726,148.717 428.726,146.864" stroke="#262626" stroke-linecap="butt" stroke-linejoin="miter" stroke-width="0.5"/>
   <polyline fill="none" points="428.726,30.1339 428.726,31.9873" stroke="#262626" stroke-linecap="butt" stroke-linejoin="miter" stroke-width="0.5"/>
   <polyline fill="none" points="62.4,148.717 62.4,145.01" stroke="#262626" stroke-linecap="butt" stroke-linejoin="miter" stroke-width="0.5"/>
   <polyline fill="none" points="62.4,30.1339 62.4,33.8408" stroke="#262626" stroke-linecap="butt" stroke-linejoin="miter" stroke-width="0.5"/>
   <polyline fill="none" points="186.4,148.717 186.4,145.01" stroke="#262626" stroke-linecap="butt" stroke-linejoin="miter" stroke-width="0.5"/>
   <polyline fill="none" points="186.4,30.1339 186.4,33.8408" stroke="#262626" stroke-linecap="butt" stroke-linejoin="miter" stroke-width="0.5"/>
   <polyline fill="none" points="310.4,148.717 310.4,145.01" stroke="#262626" stroke-linecap="butt" stroke-linejoin="miter" stroke-width="0.5"/>
   <polyline fill="none" points="310.4,30.1339 310.4,33.8408" stroke="#262626" stroke-linecap="butt" stroke-linejoin="miter" stroke-width="0.5"/>
   <polyline fill="none" points="434.4,148.717 434.4,145.01" stroke="#262626" stroke-linecap="butt" stroke-linejoin="miter" stroke-width="0.5"/>
   <polyline fill="none" points="434.4,30.1339 434.4,33.8408" stroke="#262626" stroke-linecap="butt" stroke-linejoin="miter" stroke-width="0.5"/>
   <g font-family="FreeSans" font-size="11.6513" font-style="normal" font-weight="normal" transform="translate(52.4,169.425) rotate(-0,10,-12)" xml:space="preserve">
    <text fill="rgb(38,38,38)" x="0 6 " y="-0">10</text>
    <text fill="rgb(38,38,38)" font-size="8.15594" x="12 15 " y="-5">-2</text>
   </g>
   <g font-family="FreeSans" font-size="11.6513" font-style="normal" font-weight="normal" transform="translate(176.4,169.425) rotate(-0,10,-12)" xml:space="preserve">
    <text fill="rgb(38,38,38)" x="0 6 " y="-0">10</text>
    <text fill="rgb(38,38,38)" font-size="8.15594" x="12 15 " y="-5">-1</text>
   </g>
   <g font-family="FreeSans" font-size="11.6513" font-style="normal" font-weight="normal" transform="translate(301.9,169.425) rotate(-0,8.5,-12)" xml:space="preserve">
    <text fill="rgb(38,38,38)" x="0 6 " y="-0">10</text>
    <text fill="rgb(38,38,38)" font-size="8.15594" x="12 " y="-5">0</text>
   </g>
   <g font-family="FreeSans" font-size="11.6513" font-style="normal" font-weight="normal" transform="translate(425.9,169.425) rotate(-0,8.5,-12)" xml:space="preserve">
    <text fill="rgb(38,38,38)" x="0 6 " y="-0">10</text>
    <text fill="rgb(38,38,38)" font-size="8.15594" x="12 " y="-5">1</text>
   </g>
   <polyline fill="none" points="62.4,143.484 434.4,143.484" stroke="#262626" stroke-dasharray="16,0" stroke-linecap="butt" stroke-linejoin="miter" stroke-opacity="0.15" stroke-width="0.5"/>
   <polyline fill="none" points="62.4,125.504 434.4,125.504" stroke="#262626" stroke-dasharray="16,0" stroke-linecap="butt" stroke-linejoin="miter" stroke-opacity="0.15" stroke-width="0.5"/>
   <polyline fill="none" points="62.4,107.524 434.4,107.524" stroke="#262626" stroke-dasharray="16,0" stroke-linecap="butt" stroke-linejoin="miter" stroke-opacity="0.15" stroke-width="0.5"/>
   <polyline fill="none" points="62.4,89.5437 434.4,89.5437" stroke="#262626" stroke-dasharray="16,0" stroke-linecap="butt" stroke-linejoin="miter" stroke-opacity="0.15" stroke-width="0.5"/>
   <polyline fill="none" points="62.4,71.5635 434.4,71.5635" stroke="#262626" stroke-dasharray="16,0" stroke-linecap="butt" stroke-linejoin="miter" stroke-opacity="0.15" stroke-width="0.5"/>
   <polyline fill="none" points="62.4,53.5834 434.4,53.5834" stroke="#262626" stroke-dasharray="16,0" stroke-linecap="butt" stroke-linejoin="miter" stroke-opacity="0.15" stroke-width="0.5"/>
   <polyline fill="none" points="62.4,35.6033 434.4,35.6033" stroke="#262626" stroke-dasharray="16,0" stroke-linecap="butt" stroke-linejoin="miter" stroke-opacity="0.15" stroke-width="0.5"/>
   <polyline fill="none" points="62.4,143.484 66.12,143.484" stroke="#262626" stroke-linecap="butt" stroke-linejoin="miter" stroke-width="0.5"/>
   <polyline fill="none" points="434.4,143.484 430.68,143.484" stroke="#262626" stroke-linecap="butt" stroke-linejoin="miter" stroke-width="0.5"/>
   <polyline fill="none" points="62.4,125.504 66.12,125.504" stroke="#262626" stroke-linecap="butt" stroke-linejoin="miter" stroke-width="0.5"/>
   <polyline fill="none" points="434.4,125.504 430.68,125.504" stroke="#262626" stroke-linecap="butt" stroke-linejoin="miter" stroke-width="0.5"/>
   <polyline fill="none" points="62.4,107.524 66.12,107.524" stroke="#262626" stroke-linecap="butt" stroke-linejoin="miter" stroke-width="0.5"/>
   <polyline fill="none" points="434.4,107.524 430.68,107.524" stroke="#262626" stroke-linecap="butt" stroke-linejoin="miter" stroke-width="0.5"/>
   <polyline fill="none" points="62.4,89.5437 66.12,89.5437" stroke="#262626" stroke-linecap="butt" stroke-linejoin="miter" stroke-width="0.5"/>
   <polyline fill="none" points="434.4,89.5437 430.68,89.5437" stroke="#262626" stroke-linecap="butt" stroke-linejoin="miter" stroke-width="0.5"/>
   <polyline fill="none" points="62.4,71.5635 66.12,71.5635" stroke="#262626" stroke-linecap="butt" stroke-linejoin="miter" stroke-width="0.5"/>
   <polyline fill="none" points="434.4,71.5635 430.68,71.5635" stroke="#262626" stroke-linecap="butt" stroke-linejoin="miter" stroke-width="0.5"/>
   <polyline fill="none" points="62.4,53.5834 66.12,53.5834" stroke="#262626" stroke-linecap="butt" stroke-linejoin="miter" stroke-width="0.5"/>
   <polyline fill="none" points="434.4,53.5834 430.68,53.5834" stroke="#262626" stroke-linecap="butt" stroke-linejoin="miter" stroke-width="0.5"/>
   <polyline fill="none" points="62.4,35.6033 66.12,35.6033" stroke="#262626" stroke-linecap="butt" stroke-linejoin="miter" stroke-width="0.5"/>
   <polyline fill="none" points="434.4,35.6033 430.68,35.6033" stroke="#262626" stroke-linecap="butt" stroke-linejoin="miter" stroke-width="0.5"/>
   <g font-family="FreeSans" font-size="11.6513" font-style="normal" font-weight="normal" transform="translate(40.5743,148.484) rotate(-0,16,-5)" xml:space="preserve">
    <text fill="rgb(38,38,38)" x="0 4 10 " y="-0">-20</text>
   </g>
   <g font-family="FreeSans" font-size="11.6513" font-style="normal" font-weight="normal" transform="translate(40.5743,130.504) rotate(-0,16,-5)" xml:space="preserve">
    <text fill="rgb(38,38,38)" x="0 4 10 " y="-0">-10</text>
   </g>
   <g font-family="FreeSans" font-size="11.6513" font-style="normal" font-weight="normal" transform="translate(50.5743,112.524) rotate(-0,6,-5)" xml:space="preserve">
    <text fill="rgb(38,38,38)" x="0 " y="-0">0</text>
   </g>
   <g font-family="FreeSans" font-size="11.6513" font-style="normal" font-weight="normal" transform="translate(44.5743,94.5437) rotate(-0,12,-5)" xml:space="preserve">
    <text fill="rgb(38,38,38)" x="0 6 " y="-0">10</text>
   </g>
   <g font-family="FreeSans" font-size="11.6513" font-style="normal" font-weight="normal" transform="translate(44.5743,76.5635) rotate(-0,12,-5)" xml:space="preserve">
    <text fill="rgb(38,38,38)" x="0 6 " y="-0">20</text>
   </g>
   <g font-family="FreeSans" font-size="11.6513" font-style="normal" font-weight="normal" transform="translate(44.5743,58.5834) rotate(-0,12,-5)" xml:space="preserve">
    <text fill="rgb(38,38,38)" x="0 6 " y="-0">30</text>
   </g>
   <g font-family="FreeSans" font-size="11.6513" font-style="normal" font-weight="normal" transform="translate(44.5743,40.6032) rotate(-0,12,-5)" xml:space="preserve">
    <text fill="rgb(38,38,38)" x="0 6 " y="-0">40</text>
   </g>
   <polyline fill="none" points="62.4,148.717 434.4,148.717" stroke="#262626" stroke-dasharray="16,0" stroke-linecap="square" stroke-linejoin="miter" stroke-width="0.5"/>
   <polyline fill="none" points="62.4,30.1339 434.4,30.1339" stroke="#262626" stroke-dasharray="16,0" stroke-linecap="square" stroke-linejoin="miter" stroke-width="0.5"/>
   <polyline fill="none" points="62.4,148.717 62.4,30.1339" stroke="#262626" stroke-dasharray="16,0" stroke-linecap="square" stroke-linejoin="miter" stroke-width="0.5"/>
   <polyline fill="none" points="434.4,148.717 434.4,30.1339" stroke="#262626" stroke-dasharray="16,0" stroke-linecap="square" stroke-linejoin="miter" stroke-width="0.5"/>
   <g font-family="FreeSans" font-size="12.8165" font-style="normal" font-weight="bold" transform="translate(204.9,20.1338) rotate(-0,43.5,0)" xml:space="preserve">
    <text fill="rgb(0,0,0)" x="0 9 17 25 32 36 45 49 56 64 69 76 " y="-3">Bode Diagram</text>
   </g>
   <g font-family="FreeSans" font-size="12.8165" font-style="normal" font-weight="normal" transform="translate(-7.92567,89.4256) rotate(-90,43.5,0)" xml:space="preserve">
    <text fill="rgb(38,38,38)" x="0 11 18 25 32 35 39 46 53 60 63 67 74 83 " y="-3">Magnitude [dB]</text>
   </g>
   <polyline fill="none" points="62.4,35.524 62.7724,35.6309 63.1448,35.7378 63.5171,35.8446 63.8895,35.9515 64.2619,36.0583 64.6342,36.1651 65.0066,36.2719 65.379,36.3787 65.7513,36.4854 66.1237,36.5922 66.4961,36.6989 66.8685,36.8056 67.2408,36.9123 67.6132,37.019 67.9856,37.1257 68.358,37.2323 68.7303,37.3389 69.1027,37.4455 69.4751,37.5521 69.8474,37.6587 70.2198,37.7652 70.5922,37.8718 70.9646,37.9782 71.3369,38.0847 71.7093,38.1912 72.0817,38.2977 72.4541,38.4041 72.8264,38.5105 73.1988,38.6169 73.5712,38.7232 73.9435,38.8296 74.3159,38.9359 74.6883,39.0421 75.0607,39.1484 75.433,39.2546 75.8054,39.3609 76.1778,39.4671 76.5502,39.5732 76.9225,39.6794 77.2949,39.7855 77.6673,39.8916 78.0397,39.9977 78.412,40.1037 78.7844,40.2097 79.1568,40.3157 79.5291,40.4217 79.9015,40.5276 80.2739,40.6335 80.6463,40.7394 81.0186,40.8452 81.391,40.951 81.7634,41.0568 82.1357,41.1626 82.5081,41.2683 82.8805,41.374 83.2529,41.4797 83.6252,41.5853 83.9976,41.6909 84.37,41.7965 84.7424,41.902 85.1147,42.0075 85.4871,42.113 85.8595,42.2184 86.2318,42.3238 86.6042,42.4292 86.9766,42.5345 87.3489,42.6398 87.7213,42.7451 88.0937,42.8503 88.4661,42.9554 88.8385,43.0606 89.2108,43.1657 89.5832,43.2708 89.9556,43.3758 90.3279,43.4808 90.7003,43.5857 91.0727,43.6906 91.445,43.7955 91.8174,43.9003 92.1898,44.0051 92.5622,44.1098 92.9346,44.2145 93.3069,44.3192 93.6793,44.4237 94.0517,44.5283 94.424,44.6328 94.7964,44.7373 95.1688,44.8417 95.5411,44.946 95.9135,45.0504 96.2859,45.1546 96.6583,45.2589 97.0306,45.363 97.403,45.4671 97.7754,45.5712 98.1477,45.6752 98.5201,45.7791 98.8925,45.8831 99.2649,45.9869 99.6372,46.0907 100.01,46.1944 100.382,46.2981 100.754,46.4017 101.127,46.5053 101.499,46.6088 101.871,46.7122 102.244,46.8156 102.616,46.9189 102.989,47.0222 103.361,47.1254 103.733,47.2285 104.106,47.3316 104.478,47.4346 104.85,47.5375 105.223,47.6404 105.595,47.7432 105.968,47.8459 106.34,47.9486 106.712,48.0512 107.085,48.1537 107.457,48.2561 107.829,48.3585 108.202,48.4608 108.574,48.563 108.947,48.6652 109.319,48.7672 109.691,48.8692 110.064,48.9712 110.436,49.073 110.808,49.1747 111.181,49.2764 111.553,49.378 111.926,49.4795 112.298,49.5809 112.67,49.6823 113.043,49.7835 113.415,49.8846 113.787,49.9857 114.16,50.0867 114.532,50.1876 114.905,50.2884 115.277,50.3891 115.649,50.4897 116.022,50.5902 116.394,50.6906 116.766,50.7909 117.139,50.8911 117.511,50.9912 117.883,51.0912 118.256,51.1912 118.628,51.291 119.001,51.3907 119.373,51.4902 119.745,51.5897 120.118,51.6891 120.49,51.7884 120.862,51.8875 121.235,51.9865 121.607,52.0855 121.98,52.1843 122.352,52.283 122.724,52.3816 123.097,52.48 123.469,52.5783 123.841,52.6765 124.214,52.7746 124.586,52.8726 124.959,52.9704 125.331,53.0681 125.703,53.1657 126.076,53.2631 126.448,53.3604 126.82,53.4576 127.193,53.5546 127.565,53.6515 127.938,53.7483 128.31,53.8449 128.682,53.9414 129.055,54.0377 129.427,54.1339 129.799,54.2299 130.172,54.3258 130.544,54.4216 130.917,54.5172 131.289,54.6126 131.661,54.7079 132.034,54.803 132.406,54.898 132.778,54.9928 133.151,55.0874 133.523,55.1819 133.896,55.2762 134.268,55.3704 134.64,55.4643 135.013,55.5581 135.385,55.6518 135.757,55.7452 136.13,55.8385 136.502,55.9316 136.874,56.0246 137.247,56.1173 137.619,56.2099 137.992,56.3022 138.364,56.3944 138.736,56.4865 139.109,56.5782 139.481,56.6699 139.853,56.7613 140.226,56.8525 140.598,56.9435 140.971,57.0344 141.343,57.125 141.715,57.2155 142.088,57.3057 142.46,57.3957 142.832,57.4855 143.205,57.575 143.577,57.6644 143.95,57.7536 144.322,57.8425 144.694,57.9312 145.067,58.0197 145.439,58.108 145.811,58.196 146.184,58.2838 146.556,58.3714 146.929,58.4588 147.301,58.5459 147.673,58.6328 148.046,58.7194 148.418,58.8058 148.79,58.892 149.163,58.9779 149.535,59.0636 149.908,59.149 150.28,59.2342 150.652,59.3191 151.025,59.4037 151.397,59.4882 151.769,59.5723 152.142,59.6562 152.514,59.7398 152.887,59.8232 153.259,59.9062 153.631,59.989 154.004,60.0716 154.376,60.1539 154.748,60.2358 155.121,60.3176 155.493,60.399 155.865,60.4801 156.238,60.561 156.61,60.6416 156.983,60.7219 157.355,60.8019 157.727,60.8816 158.1,60.961 158.472,61.0401 158.844,61.1189 159.217,61.1974 159.589,61.2757 159.962,61.3535 160.334,61.4312 160.706,61.5085 161.079,61.5854 161.451,61.6621 161.823,61.7384 162.196,61.8145 162.568,61.8902 162.941,61.9656 163.313,62.0406 163.685,62.1154 164.058,62.1898 164.43,62.2639 164.802,62.3376 165.175,62.4111 165.547,62.4842 165.92,62.5569 166.292,62.6293 166.664,62.7014 167.037,62.7731 167.409,62.8445 167.781,62.9156 168.154,62.9863 168.526,63.0566 168.899,63.1266 169.271,63.1963 169.643,63.2655 170.016,63.3345 170.388,63.403 170.76,63.4713 171.133,63.5392 171.505,63.6066 171.877,63.6738 172.25,63.7405 172.622,63.8069 172.995,63.873 173.367,63.9386 173.739,64.0039 174.112,64.0688 174.484,64.1334 174.856,64.1976 175.229,64.2614 175.601,64.3248 175.974,64.3878 176.346,64.4505 176.718,64.5128 177.091,64.5747 177.463,64.6362 177.835,64.6973 178.208,64.7581 178.58,64.8184 178.953,64.8784 179.325,64.938 179.697,64.9971 180.07,65.0559 180.442,65.1143 180.814,65.1723 181.187,65.23 181.559,65.2872 181.932,65.344 182.304,65.4005 182.676,65.4565 183.049,65.5121 183.421,65.5674 183.793,65.6222 184.166,65.6766 184.538,65.7307 184.911,65.7843 185.283,65.8375 185.655,65.8904 186.028,65.9428 186.4,65.9948 186.772,66.0464 187.145,66.0977 187.517,66.1485 187.89,66.1989 188.262,66.2489 188.634,66.2985 189.007,66.3477 189.379,66.3965 189.751,66.4449 190.124,66.4928 190.496,66.5404 190.868,66.5876 191.241,66.6343 191.613,66.6807 191.986,66.7266 192.358,66.7721 192.73,66.8173 193.103,66.862 193.475,66.9063 193.847,66.9502 194.22,66.9937 194.592,67.0368 194.965,67.0795 195.337,67.1218 195.709,67.1636 196.082,67.2051 196.454,67.2462 196.826,67.2868 197.199,67.3271 197.571,67.3669 197.944,67.4064 198.316,67.4454 198.688,67.4841 199.061,67.5223 199.433,67.5602 199.805,67.5976 200.178,67.6346 200.55,67.6712 200.923,67.7075 201.295,67.7433 201.667,67.7787 202.04,67.8137 202.412,67.8484 202.784,67.8826 203.157,67.9164 203.529,67.9499 203.902,67.9829 204.274,68.0156 204.646,68.0478 205.019,68.0797 205.391,68.1111 205.763,68.1422 206.136,68.1729 206.508,68.2032 206.88,68.2331 207.253,68.2626 207.625,68.2917 207.998,68.3204 208.37,68.3487 208.742,68.3767 209.115,68.4042 209.487,68.4314 209.859,68.4582 210.232,68.4846 210.604,68.5106 210.977,68.5363 211.349,68.5615 211.721,68.5864 212.094,68.6109 212.466,68.635 212.838,68.6587 213.211,68.6821 213.583,68.705 213.956,68.7276 214.328,68.7498 214.7,68.7717 215.073,68.7931 215.445,68.8142 215.817,68.8349 216.19,68.8553 216.562,68.8752 216.935,68.8948 217.307,68.914 217.679,68.9328 218.052,68.9513 218.424,68.9694 218.796,68.9871 219.169,69.0045 219.541,69.0215 219.914,69.0381 220.286,69.0543 220.658,69.0702 221.031,69.0857 221.403,69.1008 221.775,69.1156 222.148,69.13 222.52,69.144 222.893,69.1577 223.265,69.1709 223.637,69.1839 224.01,69.1964 224.382,69.2086 224.754,69.2204 225.127,69.2319 225.499,69.243 225.871,69.2537 226.244,69.264 226.616,69.274 226.989,69.2836 227.361,69.2929 227.733,69.3017 228.106,69.3102 228.478,69.3184 228.85,69.3261 229.223,69.3335 229.595,69.3405 229.968,69.3472 230.34,69.3535 230.712,69.3594 231.085,69.3649 231.457,69.3701 231.829,69.3749 232.202,69.3793 232.574,69.3833 232.947,69.387 233.319,69.3902 233.691,69.3931 234.064,69.3957 234.436,69.3978 234.808,69.3995 235.181,69.4009 235.553,69.4019 235.926,69.4024 236.298,69.4026 236.67,69.4025 237.043,69.4019 237.415,69.4009 237.787,69.3995 238.16,69.3978 238.532,69.3956 238.905,69.393 239.277,69.39 239.649,69.3867 240.022,69.3828 240.394,69.3787 240.766,69.374 241.139,69.369 241.511,69.3636 241.883,69.3577 242.256,69.3514 242.628,69.3447 243.001,69.3375 243.373,69.33 243.745,69.3219 244.118,69.3135 244.49,69.3046 244.862,69.2952 245.235,69.2854 245.607,69.2752 245.98,69.2645 246.352,69.2533 246.724,69.2417 247.097,69.2296 247.469,69.217 247.841,69.204 248.214,69.1904 248.586,69.1764 248.959,69.1619 249.331,69.1469 249.703,69.1314 250.076,69.1154 250.448,69.0988 250.82,69.0818 251.193,69.0642 251.565,69.0461 251.938,69.0275 252.31,69.0084 252.682,68.9886 253.055,68.9684 253.427,68.9475 253.799,68.9261 254.172,68.9042 254.544,68.8816 254.917,68.8585 255.289,68.8347 255.661,68.8104 256.034,68.7855 256.406,68.7599 256.778,68.7337 257.151,68.7069 257.523,68.6794 257.896,68.6513 258.268,68.6225 258.64,68.593 259.013,68.5629 259.385,68.532 259.757,68.5005 260.13,68.4682 260.502,68.4353 260.874,68.4016 261.247,68.3671 261.619,68.3319 261.992,68.2959 262.364,68.2591 262.736,68.2216 263.109,68.1832 263.481,68.144 263.853,68.1039 264.226,68.0631 264.598,68.0213 264.971,67.9787 265.343,67.9352 265.715,67.8908 266.088,67.8454 266.46,67.7991 266.832,67.7519 267.205,67.7036 267.577,67.6544 267.95,67.6042 268.322,67.5529 268.694,67.5006 269.067,67.4472 269.439,67.3927 269.811,67.3371 270.184,67.2804 270.556,67.2225 270.929,67.1634 271.301,67.1031 271.673,67.0416 272.046,66.9789 272.418,66.9148 272.79,66.8495 273.163,66.7827 273.535,66.7147 273.908,66.6452 274.28,66.5743 274.652,66.502 275.025,66.4282 275.397,66.3528 275.769,66.2759 276.142,66.1974 276.514,66.1173 276.887,66.0355 277.259,65.9519 277.631,65.8667 278.004,65.7796 278.376,65.6907 278.748,65.6 279.121,65.5073 279.493,65.4126 279.865,65.3159 280.238,65.2171 280.61,65.1162 280.983,65.0131 281.355,64.9077 281.727,64.8 282.1,64.69 282.472,64.5775 282.844,64.4626 283.217,64.345 283.589,64.2248 283.962,64.1019 284.334,63.9762 284.706,63.8476 285.079,63.716 285.451,63.5814 285.823,63.4435 286.196,63.3025 286.568,63.1581 286.941,63.0102 287.313,62.8587 287.685,62.7036 288.058,62.5446 288.43,62.3817 288.802,62.2147 289.175,62.0435 289.547,61.8679 289.92,61.6877 290.292,61.5029 290.664,61.3133 291.037,61.1185 291.409,60.9186 291.781,60.7132 292.154,60.5021 292.526,60.2852 292.899,60.0621 293.271,59.8327 293.643,59.5966 294.016,59.3536 294.388,59.1034 294.76,58.8457 295.133,58.58 295.505,58.3061 295.878,58.0236 296.25,57.732 296.622,57.4309 296.995,57.1199 297.367,56.7984 297.739,56.4659 298.112,56.1219 298.484,55.7656 298.856,55.3964 299.229,55.0136 299.601,54.6165 299.974,54.2041 300.346,53.7757 300.718,53.3301 301.091,52.8664 301.463,52.3834 301.835,51.8799 302.208,51.3546 302.58,50.8061 302.953,50.2329 303.325,49.6334 303.697,49.0058 304.07,48.3486 304.442,47.6598 304.814,46.9378 305.187,46.1811 305.559,45.3882 305.932,44.5584 306.304,43.6918 306.676,42.79 307.049,41.8565 307.421,40.8985 307.793,39.9279 308.166,38.9633 308.538,38.0325 308.911,37.1743 309.283,36.4387 309.655,35.8831 310.028,35.5644 310.4,35.5255 310.772,35.7825 311.145,36.3193 311.517,37.093 311.89,38.0468 312.262,39.1231 312.634,40.272 313.007,41.4547 313.379,42.6435 313.751,43.8196 314.124,44.9712 314.496,46.0912 314.868,47.1759 315.241,48.2238 315.613,49.2349 315.986,50.2098 316.358,51.15 316.73,52.0569 317.103,52.9323 317.475,53.778 317.847,54.5958 318.22,55.3872 318.592,56.1539 318.965,56.8974 319.337,57.6191 319.709,58.3203 320.082,59.0023 320.454,59.6661 320.826,60.3128 321.199,60.9435 321.571,61.5589 321.944,62.16 322.316,62.7475 322.688,63.3221 323.061,63.8845 323.433,64.4354 323.805,64.9752 324.178,65.5046 324.55,66.0241 324.923,66.5341 325.295,67.0351 325.667,67.5274 326.04,68.0115 326.412,68.4878 326.784,68.9565 327.157,69.418 327.529,69.8726 327.902,70.3206 328.274,70.7622 328.646,71.1978 329.019,71.6274 329.391,72.0515 329.763,72.4701 330.136,72.8835 330.508,73.2919 330.88,73.6954 331.253,74.0943 331.625,74.4887 331.998,74.8787 332.37,75.2645 332.742,75.6463 333.115,76.0241 333.487,76.3982 333.859,76.7686 334.232,77.1354 334.604,77.4989 334.977,77.8589 335.349,78.2158 335.721,78.5695 336.094,78.9202 336.466,79.268 336.838,79.6129 337.211,79.955 337.583,80.2944 337.956,80.6312 338.328,80.9655 338.7,81.2973 339.073,81.6267 339.445,81.9538 339.817,82.2786 340.19,82.6012 340.562,82.9216 340.935,83.24 341.307,83.5563 341.679,83.8706 342.052,84.183 342.424,84.4935 342.796,84.8021 343.169,85.109 343.541,85.4141 343.914,85.7175 344.286,86.0192 344.658,86.3194 345.031,86.6179 345.403,86.9149 345.775,87.2103 346.148,87.5043 346.52,87.7969 346.893,88.088 347.265,88.3778 347.637,88.6662 348.01,88.9533 348.382,89.2392 348.754,89.5237 349.127,89.8071 349.499,90.0892 349.871,90.3701 350.244,90.65 350.616,90.9287 350.989,91.2063 351.361,91.4828 351.733,91.7582 352.106,92.0327 352.478,92.3061 352.85,92.5785 353.223,92.8499 353.595,93.1204 353.968,93.39 354.34,93.6587 354.712,93.9264 355.085,94.1933 355.457,94.4594 355.829,94.7245 356.202,94.9889 356.574,95.2525 356.947,95.5153 357.319,95.7773 357.691,96.0385 358.064,96.299 358.436,96.5587 358.808,96.8177 359.181,97.0761 359.553,97.3337 359.926,97.5907 360.298,97.847 360.67,98.1026 361.043,98.3576 361.415,98.612 361.787,98.8658 362.16,99.1189 362.532,99.3715 362.905,99.6234 363.277,99.8748 363.649,100.126 364.022,100.376 364.394,100.626 364.766,100.875 365.139,101.124 365.511,101.372 365.884,101.619 366.256,101.867 366.628,102.113 367.001,102.359 367.373,102.605 367.745,102.85 368.118,103.095 368.49,103.34 368.862,103.583 369.235,103.827 369.607,104.07 369.98,104.313 370.352,104.555 370.724,104.797 371.097,105.038 371.469,105.279 371.841,105.52 372.214,105.76 372.586,106 372.959,106.24 373.331,106.479 373.703,106.718 374.076,106.956 374.448,107.194 374.82,107.432 375.193,107.67 375.565,107.907 375.938,108.144 376.31,108.38 376.682,108.617 377.055,108.852 377.427,109.088 377.799,109.323 378.172,109.558 378.544,109.793 378.917,110.028 379.289,110.262 379.661,110.496 380.034,110.73 380.406,110.963 380.778,111.196 381.151,111.429 381.523,111.662 381.896,111.894 382.268,112.126 382.64,112.358 383.013,112.59 383.385,112.821 383.757,113.052 384.13,113.283 384.502,113.514 384.875,113.745 385.247,113.975 385.619,114.205 385.992,114.435 386.364,114.665 386.736,114.895 387.109,115.124 387.481,115.353 387.853,115.582 388.226,115.811 388.598,116.039 388.971,116.268 389.343,116.496 389.715,116.724 390.088,116.952 390.46,117.179 390.832,117.407 391.205,117.634 391.577,117.862 391.95,118.089 392.322,118.315 392.694,118.542 393.067,118.769 393.439,118.995 393.811,119.221 394.184,119.447 394.556,119.673 394.929,119.899 395.301,120.125 395.673,120.35 396.046,120.576 396.418,120.801 396.79,121.026 397.163,121.251 397.535,121.476 397.908,121.701 398.28,121.926 398.652,122.15 399.025,122.374 399.397,122.599 399.769,122.823 400.142,123.047 400.514,123.271 400.887,123.495 401.259,123.718 401.631,123.942 402.004,124.165 402.376,124.389 402.748,124.612 403.121,124.835 403.493,125.058 403.866,125.281 404.238,125.504 404.61,125.727 404.983,125.949 405.355,126.172 405.727,126.394 406.1,126.617 406.472,126.839 406.844,127.061 407.217,127.283 407.589,127.505 407.962,127.727 408.334,127.949 408.706,128.171 409.079,128.393 409.451,128.614 409.823,128.836 410.196,129.057 410.568,129.279 410.941,129.5 411.313,129.721 411.685,129.942 412.058,130.163 412.43,130.384 412.802,130.605 413.175,130.826 413.547,131.047 413.92,131.268 414.292,131.488 414.664,131.709 415.037,131.929 415.409,132.15 415.781,132.37 416.154,132.591 416.526,132.811 416.899,133.031 417.271,133.251 417.643,133.471 418.016,133.692 418.388,133.911 418.76,134.131 419.133,134.351 419.505,134.571 419.878,134.791 420.25,135.011 420.622,135.23 420.995,135.45 421.367,135.669 421.739,135.889 422.112,136.108 422.484,136.328 422.856,136.547 423.229,136.767 423.601,136.986 423.974,137.205 424.346,137.424 424.718,137.643 425.091,137.862 425.463,138.082 425.835,138.301 426.208,138.52 426.58,138.738 426.953,138.957 427.325,139.176 427.697,139.395 428.07,139.614 428.442,139.832 428.814,140.051 429.187,140.27 429.559,140.488 429.932,140.707 430.304,140.926 430.676,141.144 431.049,141.362 431.421,141.581 431.793,141.799 432.166,142.018 432.538,142.236 432.911,142.454 433.283,142.673 433.655,142.891 434.028,143.109 434.4,143.327" stroke="#0071bc" stroke-linecap="butt" stroke-linejoin="round" stroke-width="0.5"/>
  </g>
  <clipPath id="cp00480360">
   <polygon points="0,360 480,360 480,0 0,0"/>
  </clipPath>
  <g clip-path="url(#cp00480360)">
   <polygon fill="#ffffff" points="386.347,56.1549 426.389,56.1549 426.389,38.1444 386.347,38.1444" shape-rendering="crispEdges"/>
   <polyline fill="none" points="386.347,56.1549 426.389,56.1549" stroke="#262626" stroke-dasharray="16,0" stroke-linecap="square" stroke-linejoin="miter" stroke-width="0.5"/>
   <polyline fill="none" points="386.347,38.1444 426.389,38.1444" stroke="#262626" stroke-dasharray="16,0" stroke-linecap="square" stroke-linejoin="miter" stroke-width="0.5"/>
   <polyline fill="none" points="386.347,56.1549 386.347,38.1444" stroke="#262626" stroke-dasharray="16,0" stroke-linecap="square" stroke-linejoin="miter" stroke-width="0.5"/>
   <polyline fill="none" points="426.389,56.1549 426.389,38.1444" stroke="#262626" stroke-dasharray="16,0" stroke-linecap="square" stroke-linejoin="miter" stroke-width="0.5"/>
   <polyline fill="none" points="390.353,47.1496 410.379,47.1496" stroke="#0071bc" stroke-linecap="butt" stroke-linejoin="round" stroke-width="0.5"/>
   <g font-family="FreeSans" font-size="10.4862" font-style="normal" font-weight="normal" transform="translate(414.384,52.1496) rotate(-0,-0,-5)" xml:space="preserve">
    <text fill="rgb(0,0,0)" x="0 " y="-1">G</text>
   </g>
  </g>
  <clipPath id="cp00480360">
   <polygon points="0,360 480,360 480,0 0,0"/>
  </clipPath>
  <g clip-path="url(#cp00480360)">
   <polygon fill="#ffffff" points="62.4,320.284 434.4,320.284 434.4,201.7 62.4,201.7" shape-rendering="crispEdges"/>
   <polyline fill="none" points="99.7277,320.284 99.7277,201.7" stroke="#191919" stroke-dasharray="1,3,1,3,1,3,1,3" stroke-linecap="butt" stroke-linejoin="miter" stroke-opacity="0.25" stroke-width="0.5"/>
   <polyline fill="none" points="121.563,320.284 121.563,201.7" stroke="#191919" stroke-dasharray="1,3,1,3,1,3,1,3" stroke-linecap="butt" stroke-linejoin="miter" stroke-opacity="0.25" stroke-width="0.5"/>
   <polyline fill="none" points="137.055,320.284 137.055,201.7" stroke="#191919" stroke-dasharray="1,3,1,3,1,3,1,3" stroke-linecap="butt" stroke-linejoin="miter" stroke-opacity="0.25" stroke-width="0.5"/>
   <polyline fill="none" points="149.072,320.284 149.072,201.7" stroke="#191919" stroke-dasharray="1,3,1,3,1,3,1,3" stroke-linecap="butt" stroke-linejoin="miter" stroke-opacity="0.25" stroke-width="0.5"/>
   <polyline fill="none" points="158.891,320.284 158.891,201.7" stroke="#191919" stroke-dasharray="1,3,1,3,1,3,1,3" stroke-linecap="butt" stroke-linejoin="miter" stroke-opacity="0.25" stroke-width="0.5"/>
   <polyline fill="none" points="167.192,320.284 167.192,201.7" stroke="#191919" stroke-dasharray="1,3,1,3,1,3,1,3" stroke-linecap="butt" stroke-linejoin="miter" stroke-opacity="0.25" stroke-width="0.5"/>
   <polyline fill="none" points="174.383,320.284 174.383,201.7" stroke="#191919" stroke-dasharray="1,3,1,3,1,3,1,3" stroke-linecap="butt" stroke-linejoin="miter" stroke-opacity="0.25" stroke-width="0.5"/>
   <polyline fill="none" points="180.726,320.284 180.726,201.7" stroke="#191919" stroke-dasharray="1,3,1,3,1,3,1,3" stroke-linecap="butt" stroke-linejoin="miter" stroke-opacity="0.25" stroke-width="0.5"/>
   <polyline fill="none" points="223.728,320.284 223.728,201.7" stroke="#191919" stroke-dasharray="1,3,1,3,1,3,1,3" stroke-linecap="butt" stroke-linejoin="miter" stroke-opacity="0.25" stroke-width="0.5"/>
   <polyline fill="none" points="245.563,320.284 245.563,201.7" stroke="#191919" stroke-dasharray="1,3,1,3,1,3,1,3" stroke-linecap="butt" stroke-linejoin="miter" stroke-opacity="0.25" stroke-width="0.5"/>
   <polyline fill="none" points="261.055,320.284 261.055,201.7" stroke="#191919" stroke-dasharray="1,3,1,3,1,3,1,3" stroke-linecap="butt" stroke-linejoin="miter" stroke-opacity="0.25" stroke-width="0.5"/>
   <polyline fill="none" points="273.072,320.284 273.072,201.7" stroke="#191919" stroke-dasharray="1,3,1,3,1,3,1,3" stroke-linecap="butt" stroke-linejoin="miter" stroke-opacity="0.25" stroke-width="0.5"/>
   <polyline fill="none" points="282.891,320.284 282.891,201.7" stroke="#191919" stroke-dasharray="1,3,1,3,1,3,1,3" stroke-linecap="butt" stroke-linejoin="miter" stroke-opacity="0.25" stroke-width="0.5"/>
   <polyline fill="none" points="291.192,320.284 291.192,201.7" stroke="#191919" stroke-dasharray="1,3,1,3,1,3,1,3" stroke-linecap="butt" stroke-linejoin="miter" stroke-opacity="0.25" stroke-width="0.5"/>
   <polyline fill="none" points="298.383,320.284 298.383,201.7" stroke="#191919" stroke-dasharray="1,3,1,3,1,3,1,3" stroke-linecap="butt" stroke-linejoin="miter" stroke-opacity="0.25" stroke-width="0.5"/>
   <polyline fill="none" points="304.726,320.284 304.726,201.7" stroke="#191919" stroke-dasharray="1,3,1,3,1,3,1,3" stroke-linecap="butt" stroke-linejoin="miter" stroke-opacity="0.25" stroke-width="0.5"/>
   <polyline fill="none" points="347.728,320.284 347.728,201.7" stroke="#191919" stroke-dasharray="1,3,1,3,1,3,1,3" stroke-linecap="butt" stroke-linejoin="miter" stroke-opacity="0.25" stroke-width="0.5"/>
   <polyline fill="none" points="369.563,320.284 369.563,201.7" stroke="#191919" stroke-dasharray="1,3,1,3,1,3,1,3" stroke-linecap="butt" stroke-linejoin="miter" stroke-opacity="0.25" stroke-width="0.5"/>
   <polyline fill="none" points="385.055,320.284 385.055,201.7" stroke="#191919" stroke-dasharray="1,3,1,3,1,3,1,3" stroke-linecap="butt" stroke-linejoin="miter" stroke-opacity="0.25" stroke-width="0.5"/>
   <polyline fill="none" points="397.072,320.284 397.072,201.7" stroke="#191919" stroke-dasharray="1,3,1,3,1,3,1,3" stroke-linecap="butt" stroke-linejoin="miter" stroke-opacity="0.25" stroke-width="0.5"/>
   <polyline fill="none" points="406.891,320.284 406.891,201.7" stroke="#191919" stroke-dasharray="1,3,1,3,1,3,1,3" stroke-linecap="butt" stroke-linejoin="miter" stroke-opacity="0.25" stroke-width="0.5"/>
   <polyline fill="none" points="415.192,320.284 415.192,201.7" stroke="#191919" stroke-dasharray="1,3,1,3,1,3,1,3" stroke-linecap="butt" stroke-linejoin="miter" stroke-opacity="0.25" stroke-width="0.5"/>
   <polyline fill="none" points="422.383,320.284 422.383,201.7" stroke="#191919" stroke-dasharray="1,3,1,3,1,3,1,3" stroke-linecap="butt" stroke-linejoin="miter" stroke-opacity="0.25" stroke-width="0.5"/>
   <polyline fill="none" points="428.726,320.284 428.726,201.7" stroke="#191919" stroke-dasharray="1,3,1,3,1,3,1,3" stroke-linecap="butt" stroke-linejoin="miter" stroke-opacity="0.25" stroke-width="0.5"/>
   <polyline fill="none" points="62.4,320.284 62.4,201.7" stroke="#262626" stroke-dasharray="16,0" stroke-linecap="butt" stroke-linejoin="miter" stroke-opacity="0.15" stroke-width="0.5"/>
   <polyline fill="none" points="186.4,320.284 186.4,201.7" stroke="#262626" stroke-dasharray="16,0" stroke-linecap="butt" stroke-linejoin="miter" stroke-opacity="0.15" stroke-width="0.5"/>
   <polyline fill="none" points="310.4,320.284 310.4,201.7" stroke="#262626" stroke-dasharray="16,0" stroke-linecap="butt" stroke-linejoin="miter" stroke-opacity="0.15" stroke-width="0.5"/>
   <polyline fill="none" points="434.4,320.284 434.4,201.7" stroke="#262626" stroke-dasharray="16,0" stroke-linecap="butt" stroke-linejoin="miter" stroke-opacity="0.15" stroke-width="0.5"/>
   <polyline fill="none" points="99.7277,320.284 99.7277,318.43" stroke="#262626" stroke-linecap="butt" stroke-linejoin="miter" stroke-width="0.5"/>
   <polyline fill="none" points="99.7277,201.7 99.7277,203.553" stroke="#262626" stroke-linecap="butt" stroke-linejoin="miter" stroke-width="0.5"/>
   <polyline fill="none" points="121.563,320.284 121.563,318.43" stroke="#262626" stroke-linecap="butt" stroke-linejoin="miter" stroke-width="0.5"/>
   <polyline fill="none" points="121.563,201.7 121.563,203.553" stroke="#262626" stroke-linecap="butt" stroke-linejoin="miter" stroke-width="0.5"/>
   <polyline fill="none" points="137.055,320.284 137.055,318.43" stroke="#262626" stroke-linecap="butt" stroke-linejoin="miter" stroke-width="0.5"/>
   <polyline fill="none" points="137.055,201.7 137.055,203.553" stroke="#262626" stroke-linecap="butt" stroke-linejoin="miter" stroke-width="0.5"/>
   <polyline fill="none" points="149.072,320.284 149.072,318.43" stroke="#262626" stroke-linecap="butt" stroke-linejoin="miter" stroke-width="0.5"/>
   <polyline fill="none" points="149.072,201.7 149.072,203.553" stroke="#262626" stroke-linecap="butt" stroke-linejoin="miter" stroke-width="0.5"/>
   <polyline fill="none" points="158.891,320.284 158.891,318.43" stroke="#262626" stroke-linecap="butt" stroke-linejoin="miter" stroke-width="0.5"/>
   <polyline fill="none" points="158.891,201.7 158.891,203.553" stroke="#262626" stroke-linecap="butt" stroke-linejoin="miter" stroke-width="0.5"/>
   <polyline fill="none" points="167.192,320.284 167.192,318.43" stroke="#262626" stroke-linecap="butt" stroke-linejoin="miter" stroke-width="0.5"/>
   <polyline fill="none" points="167.192,201.7 167.192,203.553" stroke="#262626" stroke-linecap="butt" stroke-linejoin="miter" stroke-width="0.5"/>
   <polyline fill="none" points="174.383,320.284 174.383,318.43" stroke="#262626" stroke-linecap="butt" stroke-linejoin="miter" stroke-width="0.5"/>
   <polyline fill="none" points="174.383,201.7 174.383,203.553" stroke="#262626" stroke-linecap="butt" stroke-linejoin="miter" stroke-width="0.5"/>
   <polyline fill="none" points="180.726,320.284 180.726,318.43" stroke="#262626" stroke-linecap="butt" stroke-linejoin="miter" stroke-width="0.5"/>
   <polyline fill="none" points="180.726,201.7 180.726,203.553" stroke="#262626" stroke-linecap="butt" stroke-linejoin="miter" stroke-width="0.5"/>
   <polyline fill="none" points="223.728,320.284 223.728,318.43" stroke="#262626" stroke-linecap="butt" stroke-linejoin="miter" stroke-width="0.5"/>
   <polyline fill="none" points="223.728,201.7 223.728,203.553" stroke="#262626" stroke-linecap="butt" stroke-linejoin="miter" stroke-width="0.5"/>
   <polyline fill="none" points="245.563,320.284 245.563,318.43" stroke="#262626" stroke-linecap="butt" stroke-linejoin="miter" stroke-width="0.5"/>
   <polyline fill="none" points="245.563,201.7 245.563,203.553" stroke="#262626" stroke-linecap="butt" stroke-linejoin="miter" stroke-width="0.5"/>
   <polyline fill="none" points="261.055,320.284 261.055,318.43" stroke="#262626" stroke-linecap="butt" stroke-linejoin="miter" stroke-width="0.5"/>
   <polyline fill="none" points="261.055,201.7 261.055,203.553" stroke="#262626" stroke-linecap="butt" stroke-linejoin="miter" stroke-width="0.5"/>
   <polyline fill="none" points="273.072,320.284 273.072,318.43" stroke="#262626" stroke-linecap="butt" stroke-linejoin="miter" stroke-width="0.5"/>
   <polyline fill="none" points="273.072,201.7 273.072,203.553" stroke="#262626" stroke-linecap="butt" stroke-linejoin="miter" stroke-width="0.5"/>
   <polyline fill="none" points="282.891,320.284 282.891,318.43" stroke="#262626" stroke-linecap="butt" stroke-linejoin="miter" stroke-width="0.5"/>
   <polyline fill="none" points="282.891,201.7 282.891,203.553" stroke="#262626" stroke-linecap="butt" stroke-linejoin="miter" stroke-width="0.5"/>
   <polyline fill="none" points="291.192,320.284 291.192,318.43" stroke="#262626" stroke-linecap="butt" stroke-linejoin="miter" stroke-width="0.5"/>
   <polyline fill="none" points="291.192,201.7 291.192,203.553" stroke="#262626" stroke-linecap="butt" stroke-linejoin="miter" stroke-width="0.5"/>
   <polyline fill="none" points="298.383,320.284 298.383,318.43" stroke="#262626" stroke-linecap="butt" stroke-linejoin="miter" stroke-width="0.5"/>
   <polyline fill="none" points="298.383,201.7 298.383,203.553" stroke="#262626" stroke-linecap="butt" stroke-linejoin="miter" stroke-width="0.5"/>
   <polyline fill="none" points="304.726,320.284 304.726,318.43" stroke="#262626" stroke-linecap="butt" stroke-linejoin="miter" stroke-width="0.5"/>
   <polyline fill="none" points="304.726,201.7 304.726,203.553" stroke="#262626" stroke-linecap="butt" stroke-linejoin="miter" stroke-width="0.5"/>
   <polyline fill="none" points="347.728,320.284 347.728,318.43" stroke="#262626" stroke-linecap="butt" stroke-linejoin="miter" stroke-width="0.5"/>
   <polyline fill="none" points="347.728,201.7 347.728,203.553" stroke="#262626" stroke-linecap="butt" stroke-linejoin="miter" stroke-width="0.5"/>
   <polyline fill="none" points="369.563,320.284 369.563,318.43" stroke="#262626" stroke-linecap="butt" stroke-linejoin="miter" stroke-width="0.5"/>
   <polyline fill="none" points="369.563,201.7 369.563,203.553" stroke="#262626" stroke-linecap="butt" stroke-linejoin="miter" stroke-width="0.5"/>
   <polyline fill="none" points="385.055,320.284 385.055,318.43" stroke="#262626" stroke-linecap="butt" stroke-linejoin="miter" stroke-width="0.5"/>
   <polyline fill="none" points="385.055,201.7 385.055,203.553" stroke="#262626" stroke-linecap="butt" stroke-linejoin="miter" stroke-width="0.5"/>
   <polyline fill="none" points="397.072,320.284 397.072,318.43" stroke="#262626" stroke-linecap="butt" stroke-linejoin="miter" stroke-width="0.5"/>
   <polyline fill="none" points="397.072,201.7 397.072,203.553" stroke="#262626" stroke-linecap="butt" stroke-linejoin="miter" stroke-width="0.5"/>
   <polyline fill="none" points="406.891,320.284 406.891,318.43" stroke="#262626" stroke-linecap="butt" stroke-linejoin="miter" stroke-width="0.5"/>
   <polyline fill="none" points="406.891,201.7 406.891,203.553" stroke="#262626" stroke-linecap="butt" stroke-linejoin="miter" stroke-width="0.5"/>
   <polyline fill="none" points="415.192,320.284 415.192,318.43" stroke="#262626" stroke-linecap="butt" stroke-linejoin="miter" stroke-width="0.5"/>
   <polyline fill="none" points="415.192,201.7 415.192,203.553" stroke="#262626" stroke-linecap="butt" stroke-linejoin="miter" stroke-width="0.5"/>
   <polyline fill="none" points="422.383,320.284 422.383,318.43" stroke="#262626" stroke-linecap="butt" stroke-linejoin="miter" stroke-width="0.5"/>
   <polyline fill="none" points="422.383,201.7 422.383,203.553" stroke="#262626" stroke-linecap="butt" stroke-linejoin="miter" stroke-width="0.5"/>
   <polyline fill="none" points="428.726,320.284 428.726,318.43" stroke="#262626" stroke-linecap="butt" stroke-linejoin="miter" stroke-width="0.5"/>
   <polyline fill="none" points="428.726,201.7 428.726,203.553" stroke="#262626" stroke-linecap="butt" stroke-linejoin="miter" stroke-width="0.5"/>
   <polyline fill="none" points="62.4,320.284 62.4,316.577" stroke="#262626" stroke-linecap="butt" stroke-linejoin="miter" stroke-width="0.5"/>
   <polyline fill="none" points="62.4,201.7 62.4,205.407" stroke="#262626" stroke-linecap="butt" stroke-linejoin="miter" stroke-width="0.5"/>
   <polyline fill="none" points="186.4,320.284 186.4,316.577" stroke="#262626" stroke-linecap="butt" stroke-linejoin="miter" stroke-width="0.5"/>
   <polyline fill="none" points="186.4,201.7 186.4,205.407" stroke="#262626" stroke-linecap="butt" stroke-linejoin="miter" stroke-width="0.5"/>
   <polyline fill="none" points="310.4,320.284 310.4,316.577" stroke="#262626" stroke-linecap="butt" stroke-linejoin="miter" stroke-width="0.5"/>
   <polyline fill="none" points="310.4,201.7 310.4,205.407" stroke="#262626" stroke-linecap="butt" stroke-linejoin="miter" stroke-width="0.5"/>
   <polyline fill="none" points="434.4,320.284 434.4,316.577" stroke="#262626" stroke-linecap="butt" stroke-linejoin="miter" stroke-width="0.5"/>
   <polyline fill="none" points="434.4,201.7 434.4,205.407" stroke="#262626" stroke-linecap="butt" stroke-linejoin="miter" stroke-width="0.5"/>
   <g font-family="FreeSans" font-size="11.6513" font-style="normal" font-weight="normal" transform="translate(52.4,340.991) rotate(-0,10,-12)" xml:space="preserve">
    <text fill="rgb(38,38,38)" x="0 6 " y="-0">10</text>
    <text fill="rgb(38,38,38)" font-size="8.15594" x="12 15 " y="-5">-2</text>
   </g>
   <g font-family="FreeSans" font-size="11.6513" font-style="normal" font-weight="normal" transform="translate(176.4,340.991) rotate(-0,10,-12)" xml:space="preserve">
    <text fill="rgb(38,38,38)" x="0 6 " y="-0">10</text>
    <text fill="rgb(38,38,38)" font-size="8.15594" x="12 15 " y="-5">-1</text>
   </g>
   <g font-family="FreeSans" font-size="11.6513" font-style="normal" font-weight="normal" transform="translate(301.9,340.991) rotate(-0,8.5,-12)" xml:space="preserve">
    <text fill="rgb(38,38,38)" x="0 6 " y="-0">10</text>
    <text fill="rgb(38,38,38)" font-size="8.15594" x="12 " y="-5">0</text>
   </g>
   <g font-family="FreeSans" font-size="11.6513" font-style="normal" font-weight="normal" transform="translate(425.9,340.991) rotate(-0,8.5,-12)" xml:space="preserve">
    <text fill="rgb(38,38,38)" x="0 6 " y="-0">10</text>
    <text fill="rgb(38,38,38)" font-size="8.15594" x="12 " y="-5">1</text>
   </g>
   <polyline fill="none" points="62.4,295.323 434.4,295.323" stroke="#262626" stroke-dasharray="16,0" stroke-linecap="butt" stroke-linejoin="miter" stroke-opacity="0.15" stroke-width="0.5"/>
   <polyline fill="none" points="62.4,262.698 434.4,262.698" stroke="#262626" stroke-dasharray="16,0" stroke-linecap="butt" stroke-linejoin="miter" stroke-opacity="0.15" stroke-width="0.5"/>
   <polyline fill="none" points="62.4,230.074 434.4,230.074" stroke="#262626" stroke-dasharray="16,0" stroke-linecap="butt" stroke-linejoin="miter" stroke-opacity="0.15" stroke-width="0.5"/>
   <polyline fill="none" points="62.4,295.323 66.12,295.323" stroke="#262626" stroke-linecap="butt" stroke-linejoin="miter" stroke-width="0.5"/>
   <polyline fill="none" points="434.4,295.323 430.68,295.323" stroke="#262626" stroke-linecap="butt" stroke-linejoin="miter" stroke-width="0.5"/>
   <polyline fill="none" points="62.4,262.698 66.12,262.698" stroke="#262626" stroke-linecap="butt" stroke-linejoin="miter" stroke-width="0.5"/>
   <polyline fill="none" points="434.4,262.698 430.68,262.698" stroke="#262626" stroke-linecap="butt" stroke-linejoin="miter" stroke-width="0.5"/>
   <polyline fill="none" points="62.4,230.074 66.12,230.074" stroke="#262626" stroke-linecap="butt" stroke-linejoin="miter" stroke-width="0.5"/>
   <polyline fill="none" points="434.4,230.074 430.68,230.074" stroke="#262626" stroke-linecap="butt" stroke-linejoin="miter" stroke-width="0.5"/>
   <g font-family="FreeSans" font-size="11.6513" font-style="normal" font-weight="normal" transform="translate(34.5743,300.323) rotate(-0,22,-5)" xml:space="preserve">
    <text fill="rgb(38,38,38)" x="0 4 10 16 " y="-0">-150</text>
   </g>
   <g font-family="FreeSans" font-size="11.6513" font-style="normal" font-weight="normal" transform="translate(34.5743,267.698) rotate(-0,22,-5)" xml:space="preserve">
    <text fill="rgb(38,38,38)" x="0 4 10 16 " y="-0">-100</text>
   </g>
   <g font-family="FreeSans" font-size="11.6513" font-style="normal" font-weight="normal" transform="translate(40.5743,235.074) rotate(-0,16,-5)" xml:space="preserve">
    <text fill="rgb(38,38,38)" x="0 4 10 " y="-0">-50</text>
   </g>
   <polyline fill="none" points="62.4,320.284 434.4,320.284" stroke="#262626" stroke-dasharray="16,0" stroke-linecap="square" stroke-linejoin="miter" stroke-width="0.5"/>
   <polyline fill="none" points="62.4,201.7 434.4,201.7" stroke="#262626" stroke-dasharray="16,0" stroke-linecap="square" stroke-linejoin="miter" stroke-width="0.5"/>
   <polyline fill="none" points="62.4,320.284 62.4,201.7" stroke="#262626" stroke-dasharray="16,0" stroke-linecap="square" stroke-linejoin="miter" stroke-width="0.5"/>
   <polyline fill="none" points="434.4,320.284 434.4,201.7" stroke="#262626" stroke-dasharray="16,0" stroke-linecap="square" stroke-linejoin="miter" stroke-width="0.5"/>
   <g font-family="FreeSans" font-size="12.8165" font-style="normal" font-weight="normal" transform="translate(-3.92567,260.992) rotate(-90,33.5,0)" xml:space="preserve">
    <text fill="rgb(38,38,38)" x="0 8 15 22 28 35 38 42 49 56 63 " y="-3">Phase [deg]</text>
   </g>
   <g font-family="FreeSans" font-size="12.8165" font-style="normal" font-weight="normal" transform="translate(199.4,359.991) rotate(-0,49,-14)" xml:space="preserve">
    <text fill="rgb(38,38,38)" x="0 8 12 19 26 33 40 47 53 59 62 66 70 77 84 88 94 " y="-3">Frequency [rad/s]</text>
   </g>
   <polyline fill="none" points="62.4,252.485 62.7724,252.459 63.1448,252.434 63.5171,252.408 63.8895,252.382 64.2619,252.356 64.6342,252.329 65.0066,252.303 65.379,252.276 65.7513,252.249 66.1237,252.222 66.4961,252.195 66.8685,252.168 67.2408,252.14 67.6132,252.112 67.9856,252.085 68.358,252.056 68.7303,252.028 69.1027,252 69.4751,251.971 69.8474,251.942 70.2198,251.913 70.5922,251.884 70.9646,251.854 71.3369,251.824 71.7093,251.794 72.0817,251.764 72.4541,251.734 72.8264,251.704 73.1988,251.673 73.5712,251.642 73.9435,251.611 74.3159,251.58 74.6883,251.548 75.0607,251.516 75.433,251.484 75.8054,251.452 76.1778,251.42 76.5502,251.387 76.9225,251.354 77.2949,251.321 77.6673,251.288 78.0397,251.254 78.412,251.221 78.7844,251.187 79.1568,251.153 79.5291,251.118 79.9015,251.084 80.2739,251.049 80.6463,251.014 81.0186,250.978 81.391,250.943 81.7634,250.907 82.1357,250.871 82.5081,250.835 82.8805,250.798 83.2529,250.761 83.6252,250.724 83.9976,250.687 84.37,250.65 84.7424,250.612 85.1147,250.574 85.4871,250.536 85.8595,250.497 86.2318,250.458 86.6042,250.419 86.9766,250.38 87.3489,250.34 87.7213,250.301 88.0937,250.261 88.4661,250.22 88.8385,250.18 89.2108,250.139 89.5832,250.098 89.9556,250.056 90.3279,250.015 90.7003,249.973 91.0727,249.931 91.445,249.888 91.8174,249.845 92.1898,249.802 92.5622,249.759 92.9346,249.715 93.3069,249.671 93.6793,249.627 94.0517,249.583 94.424,249.538 94.7964,249.493 95.1688,249.448 95.5411,249.402 95.9135,249.356 96.2859,249.31 96.6583,249.263 97.0306,249.217 97.403,249.17 97.7754,249.122 98.1477,249.074 98.5201,249.026 98.8925,248.978 99.2649,248.929 99.6372,248.88 100.01,248.831 100.382,248.782 100.754,248.732 101.127,248.681 101.499,248.631 101.871,248.58 102.244,248.529 102.616,248.477 102.989,248.425 103.361,248.373 103.733,248.321 104.106,248.268 104.478,248.215 104.85,248.161 105.223,248.107 105.595,248.053 105.968,247.999 106.34,247.944 106.712,247.889 107.085,247.833 107.457,247.777 107.829,247.721 108.202,247.664 108.574,247.607 108.947,247.55 109.319,247.493 109.691,247.435 110.064,247.376 110.436,247.317 110.808,247.258 111.181,247.199 111.553,247.139 111.926,247.079 112.298,247.018 112.67,246.958 113.043,246.896 113.415,246.835 113.787,246.773 114.16,246.71 114.532,246.647 114.905,246.584 115.277,246.521 115.649,246.457 116.022,246.393 116.394,246.328 116.766,246.263 117.139,246.197 117.511,246.131 117.883,246.065 118.256,245.999 118.628,245.932 119.001,245.864 119.373,245.796 119.745,245.728 120.118,245.66 120.49,245.591 120.862,245.521 121.235,245.451 121.607,245.381 121.98,245.31 122.352,245.239 122.724,245.168 123.097,245.096 123.469,245.024 123.841,244.951 124.214,244.878 124.586,244.805 124.959,244.731 125.331,244.656 125.703,244.582 126.076,244.507 126.448,244.431 126.82,244.355 127.193,244.279 127.565,244.202 127.938,244.124 128.31,244.047 128.682,243.969 129.055,243.89 129.427,243.811 129.799,243.732 130.172,243.652 130.544,243.572 130.917,243.491 131.289,243.41 131.661,243.328 132.034,243.246 132.406,243.164 132.778,243.081 133.151,242.998 133.523,242.914 133.896,242.83 134.268,242.745 134.64,242.66 135.013,242.575 135.385,242.489 135.757,242.402 136.13,242.316 136.502,242.228 136.874,242.141 137.247,242.053 137.619,241.964 137.992,241.875 138.364,241.786 138.736,241.696 139.109,241.605 139.481,241.515 139.853,241.423 140.226,241.332 140.598,241.24 140.971,241.147 141.343,241.054 141.715,240.961 142.088,240.867 142.46,240.773 142.832,240.678 143.205,240.583 143.577,240.488 143.95,240.392 144.322,240.295 144.694,240.198 145.067,240.101 145.439,240.003 145.811,239.905 146.184,239.806 146.556,239.707 146.929,239.608 147.301,239.508 147.673,239.408 148.046,239.307 148.418,239.206 148.79,239.104 149.163,239.002 149.535,238.9 149.908,238.797 150.28,238.694 150.652,238.59 151.025,238.486 151.397,238.382 151.769,238.277 152.142,238.172 152.514,238.066 152.887,237.96 153.259,237.853 153.631,237.746 154.004,237.639 154.376,237.531 154.748,237.423 155.121,237.315 155.493,237.206 155.865,237.097 156.238,236.987 156.61,236.877 156.983,236.766 157.355,236.656 157.727,236.545 158.1,236.433 158.472,236.321 158.844,236.209 159.217,236.096 159.589,235.983 159.962,235.87 160.334,235.756 160.706,235.642 161.079,235.528 161.451,235.413 161.823,235.298 162.196,235.183 162.568,235.067 162.941,234.951 163.313,234.835 163.685,234.718 164.058,234.601 164.43,234.484 164.802,234.366 165.175,234.248 165.547,234.13 165.92,234.011 166.292,233.893 166.664,233.774 167.037,233.654 167.409,233.535 167.781,233.415 168.154,233.295 168.526,233.174 168.899,233.053 169.271,232.932 169.643,232.811 170.016,232.69 170.388,232.568 170.76,232.446 171.133,232.324 171.505,232.202 171.877,232.079 172.25,231.956 172.622,231.833 172.995,231.71 173.367,231.587 173.739,231.463 174.112,231.34 174.484,231.216 174.856,231.091 175.229,230.967 175.601,230.843 175.974,230.718 176.346,230.593 176.718,230.468 177.091,230.343 177.463,230.218 177.835,230.093 178.208,229.967 178.58,229.842 178.953,229.716 179.325,229.59 179.697,229.464 180.07,229.339 180.442,229.212 180.814,229.086 181.187,228.96 181.559,228.834 181.932,228.708 182.304,228.581 182.676,228.455 183.049,228.328 183.421,228.202 183.793,228.075 184.166,227.949 184.538,227.822 184.911,227.695 185.283,227.569 185.655,227.442 186.028,227.315 186.4,227.189 186.772,227.062 187.145,226.936 187.517,226.809 187.89,226.683 188.262,226.556 188.634,226.43 189.007,226.304 189.379,226.177 189.751,226.051 190.124,225.925 190.496,225.799 190.868,225.673 191.241,225.547 191.613,225.421 191.986,225.296 192.358,225.17 192.73,225.045 193.103,224.92 193.475,224.794 193.847,224.669 194.22,224.545 194.592,224.42 194.965,224.295 195.337,224.171 195.709,224.047 196.082,223.923 196.454,223.799 196.826,223.675 197.199,223.552 197.571,223.428 197.944,223.305 198.316,223.182 198.688,223.06 199.061,222.937 199.433,222.815 199.805,222.693 200.178,222.571 200.55,222.45 200.923,222.329 201.295,222.208 201.667,222.087 202.04,221.966 202.412,221.846 202.784,221.726 203.157,221.607 203.529,221.487 203.902,221.368 204.274,221.249 204.646,221.131 205.019,221.013 205.391,220.895 205.763,220.777 206.136,220.66 206.508,220.543 206.88,220.427 207.253,220.31 207.625,220.194 207.998,220.079 208.37,219.964 208.742,219.849 209.115,219.734 209.487,219.62 209.859,219.506 210.232,219.393 210.604,219.28 210.977,219.167 211.349,219.055 211.721,218.943 212.094,218.832 212.466,218.72 212.838,218.61 213.211,218.499 213.583,218.39 213.956,218.28 214.328,218.171 214.7,218.062 215.073,217.954 215.445,217.846 215.817,217.739 216.19,217.632 216.562,217.525 216.935,217.419 217.307,217.313 217.679,217.208 218.052,217.103 218.424,216.999 218.796,216.895 219.169,216.791 219.541,216.688 219.914,216.586 220.286,216.483 220.658,216.382 221.031,216.281 221.403,216.18 221.775,216.08 222.148,215.98 222.52,215.88 222.893,215.781 223.265,215.683 223.637,215.585 224.01,215.488 224.382,215.391 224.754,215.294 225.127,215.198 225.499,215.103 225.871,215.008 226.244,214.913 226.616,214.819 226.989,214.726 227.361,214.633 227.733,214.54 228.106,214.448 228.478,214.356 228.85,214.265 229.223,214.175 229.595,214.085 229.968,213.995 230.34,213.906 230.712,213.817 231.085,213.729 231.457,213.642 231.829,213.555 232.202,213.468 232.574,213.382 232.947,213.297 233.319,213.212 233.691,213.128 234.064,213.044 234.436,212.96 234.808,212.877 235.181,212.795 235.553,212.713 235.926,212.632 236.298,212.551 236.67,212.471 237.043,212.391 237.415,212.312 237.787,212.233 238.16,212.155 238.532,212.077 238.905,212 239.277,211.923 239.649,211.847 240.022,211.772 240.394,211.697 240.766,211.622 241.139,211.548 241.511,211.475 241.883,211.402 242.256,211.329 242.628,211.257 243.001,211.186 243.373,211.115 243.745,211.045 244.118,210.975 244.49,210.906 244.862,210.838 245.235,210.769 245.607,210.702 245.98,210.635 246.352,210.568 246.724,210.502 247.097,210.437 247.469,210.372 247.841,210.308 248.214,210.244 248.586,210.181 248.959,210.118 249.331,210.056 249.703,209.995 250.076,209.933 250.448,209.873 250.82,209.813 251.193,209.754 251.565,209.695 251.938,209.637 252.31,209.579 252.682,209.522 253.055,209.465 253.427,209.409 253.799,209.353 254.172,209.299 254.544,209.244 254.917,209.19 255.289,209.137 255.661,209.084 256.034,209.032 256.406,208.981 256.778,208.93 257.151,208.88 257.523,208.83 257.896,208.781 258.268,208.732 258.64,208.684 259.013,208.636 259.385,208.59 259.757,208.543 260.13,208.498 260.502,208.453 260.874,208.408 261.247,208.364 261.619,208.321 261.992,208.278 262.364,208.236 262.736,208.195 263.109,208.154 263.481,208.114 263.853,208.075 264.226,208.036 264.598,207.997 264.971,207.96 265.343,207.923 265.715,207.887 266.088,207.851 266.46,207.816 266.832,207.782 267.205,207.749 267.577,207.716 267.95,207.684 268.322,207.652 268.694,207.622 269.067,207.592 269.439,207.562 269.811,207.534 270.184,207.506 270.556,207.479 270.929,207.453 271.301,207.427 271.673,207.403 272.046,207.379 272.418,207.356 272.79,207.334 273.163,207.312 273.535,207.292 273.908,207.272 274.28,207.254 274.652,207.236 275.025,207.219 275.397,207.203 275.769,207.188 276.142,207.174 276.514,207.161 276.887,207.149 277.259,207.138 277.631,207.128 278.004,207.119 278.376,207.112 278.748,207.105 279.121,207.1 279.493,207.095 279.865,207.092 280.238,207.091 280.61,207.09 280.983,207.091 281.355,207.093 281.727,207.097 282.1,207.102 282.472,207.109 282.844,207.117 283.217,207.127 283.589,207.138 283.962,207.151 284.334,207.166 284.706,207.183 285.079,207.201 285.451,207.222 285.823,207.244 286.196,207.269 286.568,207.295 286.941,207.324 287.313,207.356 287.685,207.39 288.058,207.426 288.43,207.465 288.802,207.507 289.175,207.552 289.547,207.6 289.92,207.652 290.292,207.706 290.664,207.765 291.037,207.826 291.409,207.892 291.781,207.962 292.154,208.037 292.526,208.116 292.899,208.2 293.271,208.289 293.643,208.384 294.016,208.485 294.388,208.591 294.76,208.705 295.133,208.826 295.505,208.954 295.878,209.09 296.25,209.236 296.622,209.39 296.995,209.555 297.367,209.731 297.739,209.918 298.112,210.118 298.484,210.333 298.856,210.562 299.229,210.808 299.601,211.072 299.974,211.356 300.346,211.662 300.718,211.992 301.091,212.349 301.463,212.735 301.835,213.155 302.208,213.612 302.58,214.11 302.953,214.655 303.325,215.254 303.697,215.913 304.07,216.641 304.442,217.448 304.814,218.346 305.187,219.351 305.559,220.479 305.932,221.751 306.304,223.192 306.676,224.831 307.049,226.705 307.421,228.852 307.793,231.32 308.166,234.157 308.538,237.409 308.911,241.111 309.283,245.274 309.655,249.863 310.028,254.787 310.4,259.899 310.772,265.011 311.145,269.937 311.517,274.527 311.89,278.69 312.262,282.394 312.634,285.648 313.007,288.487 313.379,290.957 313.751,293.108 314.124,294.985 314.496,296.628 314.868,298.073 315.241,299.349 315.613,300.482 315.986,301.491 316.358,302.395 316.73,303.208 317.103,303.942 317.475,304.608 317.847,305.213 318.22,305.765 318.592,306.271 318.965,306.736 319.337,307.163 319.709,307.558 320.082,307.924 320.454,308.263 320.826,308.579 321.199,308.873 321.571,309.147 321.944,309.404 322.316,309.644 322.688,309.87 323.061,310.082 323.433,310.281 323.805,310.469 324.178,310.647 324.55,310.815 324.923,310.973 325.295,311.124 325.667,311.266 326.04,311.401 326.412,311.53 326.784,311.652 327.157,311.768 327.529,311.879 327.902,311.984 328.274,312.085 328.646,312.181 329.019,312.273 329.391,312.361 329.763,312.445 330.136,312.526 330.508,312.603 330.88,312.677 331.253,312.747 331.625,312.815 331.998,312.881 332.37,312.943 332.742,313.004 333.115,313.062 333.487,313.117 333.859,313.171 334.232,313.223 334.604,313.272 334.977,313.32 335.349,313.366 335.721,313.411 336.094,313.454 336.466,313.495 336.838,313.535 337.211,313.574 337.583,313.611 337.956,313.647 338.328,313.682 338.7,313.716 339.073,313.748 339.445,313.78 339.817,313.81 340.19,313.84 340.562,313.869 340.935,313.896 341.307,313.923 341.679,313.949 342.052,313.974 342.424,313.998 342.796,314.022 343.169,314.045 343.541,314.067 343.914,314.089 344.286,314.11 344.658,314.13 345.031,314.15 345.403,314.169 345.775,314.187 346.148,314.205 346.52,314.223 346.893,314.24 347.265,314.256 347.637,314.272 348.01,314.288 348.382,314.303 348.754,314.318 349.127,314.332 349.499,314.346 349.871,314.36 350.244,314.373 350.616,314.386 350.989,314.398 351.361,314.41 351.733,314.422 352.106,314.433 352.478,314.445 352.85,314.456 353.223,314.466 353.595,314.476 353.968,314.486 354.34,314.496 354.712,314.506 355.085,314.515 355.457,314.524 355.829,314.533 356.202,314.541 356.574,314.55 356.947,314.558 357.319,314.566 357.691,314.574 358.064,314.581 358.436,314.588 358.808,314.596 359.181,314.603 359.553,314.609 359.926,314.616 360.298,314.623 360.67,314.629 361.043,314.635 361.415,314.641 361.787,314.647 362.16,314.653 362.532,314.658 362.905,314.664 363.277,314.669 363.649,314.674 364.022,314.679 364.394,314.684 364.766,314.689 365.139,314.694 365.511,314.698 365.884,314.703 366.256,314.707 366.628,314.711 367.001,314.715 367.373,314.72 367.745,314.724 368.118,314.727 368.49,314.731 368.862,314.735 369.235,314.738 369.607,314.742 369.98,314.745 370.352,314.749 370.724,314.752 371.097,314.755 371.469,314.758 371.841,314.761 372.214,314.764 372.586,314.767 372.959,314.77 373.331,314.773 373.703,314.776 374.076,314.778 374.448,314.781 374.82,314.784 375.193,314.786 375.565,314.788 375.938,314.791 376.31,314.793 376.682,314.795 377.055,314.798 377.427,314.8 377.799,314.802 378.172,314.804 378.544,314.806 378.917,314.808 379.289,314.81 379.661,314.812 380.034,314.814 380.406,314.815 380.778,314.817 381.151,314.819 381.523,314.821 381.896,314.822 382.268,314.824 382.64,314.825 383.013,314.827 383.385,314.829 383.757,314.83 384.13,314.831 384.502,314.833 384.875,314.834 385.247,314.836 385.619,314.837 385.992,314.838 386.364,314.839 386.736,314.841 387.109,314.842 387.481,314.843 387.853,314.844 388.226,314.845 388.598,314.846 388.971,314.848 389.343,314.849 389.715,314.85 390.088,314.851 390.46,314.852 390.832,314.853 391.205,314.854 391.577,314.854 391.95,314.855 392.322,314.856 392.694,314.857 393.067,314.858 393.439,314.859 393.811,314.86 394.184,314.86 394.556,314.861 394.929,314.862 395.301,314.863 395.673,314.863 396.046,314.864 396.418,314.865 396.79,314.866 397.163,314.866 397.535,314.867 397.908,314.867 398.28,314.868 398.652,314.869 399.025,314.869 399.397,314.87 399.769,314.87 400.142,314.871 400.514,314.872 400.887,314.872 401.259,314.873 401.631,314.873 402.004,314.874 402.376,314.874 402.748,314.875 403.121,314.875 403.493,314.876 403.866,314.876 404.238,314.876 404.61,314.877 404.983,314.877 405.355,314.878 405.727,314.878 406.1,314.879 406.472,314.879 406.844,314.879 407.217,314.88 407.589,314.88 407.962,314.88 408.334,314.881 408.706,314.881 409.079,314.881 409.451,314.882 409.823,314.882 410.196,314.882 410.568,314.883 410.941,314.883 411.313,314.883 411.685,314.884 412.058,314.884 412.43,314.884 412.802,314.884 413.175,314.885 413.547,314.885 413.92,314.885 414.292,314.885 414.664,314.886 415.037,314.886 415.409,314.886 415.781,314.886 416.154,314.887 416.526,314.887 416.899,314.887 417.271,314.887 417.643,314.887 418.016,314.888 418.388,314.888 418.76,314.888 419.133,314.888 419.505,314.888 419.878,314.889 420.25,314.889 420.622,314.889 420.995,314.889 421.367,314.889 421.739,314.889 422.112,314.89 422.484,314.89 422.856,314.89 423.229,314.89 423.601,314.89 423.974,314.89 424.346,314.891 424.718,314.891 425.091,314.891 425.463,314.891 425.835,314.891 426.208,314.891 426.58,314.891 426.953,314.891 427.325,314.892 427.697,314.892 428.07,314.892 428.442,314.892 428.814,314.892 429.187,314.892 429.559,314.892 429.932,314.892 430.304,314.892 430.676,314.892 431.049,314.893 431.421,314.893 431.793,314.893 432.166,314.893 432.538,314.893 432.911,314.893 433.283,314.893 433.655,314.893 434.028,314.893 434.4,314.893" stroke="#0071bc" stroke-linecap="butt" stroke-linejoin="round" stroke-width="0.5"/>
  </g>
 </g>
</svg>
