<?xml version='1.0' encoding='UTF-8' standalone='no'?>
<svg height="314pt" viewBox="0 0 418 314" width="418pt" xmlns="http://www.w3.org/2000/svg" xmlns:xlink="http://www.w3.org/1999/xlink">
 <title>Figure 1</title>
 <desc>
Creator: GL2PS 1.4.2, (C) 1999-2020 C. Geuzaine
For: Octave
CreationDate: Sun Feb  8 20:55:59 2026
</desc>
 <defs/>
 <polygon fill="#ffffff" points="0,0 418,0 418,314 0,314"/>
 <g>
  <polygon fill="#ffffff" points="0,314 418,314 418,0 0,0" shape-rendering="crispEdges"/>
  <clipPath id="cp00418314">
   <polygon points="0,314 418,314 418,0 0,0"/>
  </clipPath>
  <g clip-path="url(#cp00418314)">
   <polygon fill="#ffffff" points="54.4343,279.499 378.946,279.499 378.946,23.5533 54.4343,23.5533" shape-rendering="crispEdges"/>
   <polyline fill="none" points="86.9969,279.499 86.9969,23.5533" stroke="#191919" stroke-dasharray="1,3,1,3,1,3,1,3" stroke-linecap="butt" stroke-linejoin="miter" stroke-opacity="0.25" stroke-width="0.5"/>
   <polyline fill="none" points="106.045,279.499 106.045,23.5533" stroke="#191919" stroke-dasharray="1,3,1,3,1,3,1,3" stroke-linecap="butt" stroke-linejoin="miter" stroke-opacity="0.25" stroke-width="0.5"/>
   <polyline fill="none" points="119.56,279.499 119.56,23.5533" stroke="#191919" stroke-dasharray="1,3,1,3,1,3,1,3" stroke-linecap="butt" stroke-linejoin="miter" stroke-opacity="0.25" stroke-width="0.5"/>
   <polyline fill="none" points="130.042,279.499 130.042,23.5533" stroke="#191919" stroke-dasharray="1,3,1,3,1,3,1,3" stroke-linecap="butt" stroke-linejoin="miter" stroke-opacity="0.25" stroke-width="0.5"/>
   <polyline fill="none" points="138.607,279.499 138.607,23.5533" stroke="#191919" stroke-dasharray="1,3,1,3,1,3,1,3" stroke-linecap="butt" stroke-linejoin="miter" stroke-opacity="0.25" stroke-width="0.5"/>
   <polyline fill="none" points="145.849,279.499 145.849,23.5533" stroke="#191919" stroke-dasharray="1,3,1,3,1,3,1,3" stroke-linecap="butt" stroke-linejoin="miter" stroke-opacity="0.25" stroke-width="0.5"/>
   <polyline fill="none" points="152.122,279.499 152.122,23.5533" stroke="#191919" stroke-dasharray="1,3,1,3,1,3,1,3" stroke-linecap="butt" stroke-linejoin="miter" stroke-opacity="0.25" stroke-width="0.5"/>
   <polyline fill="none" points="157.655,279.499 157.655,23.5533" stroke="#191919" stroke-dasharray="1,3,1,3,1,3,1,3" stroke-linecap="butt" stroke-linejoin="miter" stroke-opacity="0.25" stroke-width="0.5"/>
   <polyline fill="none" points="195.168,279.499 195.168,23.5533" stroke="#191919" stroke-dasharray="1,3,1,3,1,3,1,3" stroke-linecap="butt" stroke-linejoin="miter" stroke-opacity="0.25" stroke-width="0.5"/>
   <polyline fill="none" points="214.216,279.499 214.216,23.5533" stroke="#191919" stroke-dasharray="1,3,1,3,1,3,1,3" stroke-linecap="butt" stroke-linejoin="miter" stroke-opacity="0.25" stroke-width="0.5"/>
   <polyline fill="none" points="227.73,279.499 227.73,23.5533" stroke="#191919" stroke-dasharray="1,3,1,3,1,3,1,3" stroke-linecap="butt" stroke-linejoin="miter" stroke-opacity="0.25" stroke-width="0.5"/>
   <polyline fill="none" points="238.213,279.499 238.213,23.5533" stroke="#191919" stroke-dasharray="1,3,1,3,1,3,1,3" stroke-linecap="butt" stroke-linejoin="miter" stroke-opacity="0.25" stroke-width="0.5"/>
   <polyline fill="none" points="246.778,279.499 246.778,23.5533" stroke="#191919" stroke-dasharray="1,3,1,3,1,3,1,3" stroke-linecap="butt" stroke-linejoin="miter" stroke-opacity="0.25" stroke-width="0.5"/>
   <polyline fill="none" points="254.02,279.499 254.02,23.5533" stroke="#191919" stroke-dasharray="1,3,1,3,1,3,1,3" stroke-linecap="butt" stroke-linejoin="miter" stroke-opacity="0.25" stroke-width="0.5"/>
   <polyline fill="none" points="260.293,279.499 260.293,23.5533" stroke="#191919" stroke-dasharray="1,3,1,3,1,3,1,3" stroke-linecap="butt" stroke-linejoin="miter" stroke-opacity="0.25" stroke-width="0.5"/>
   <polyline fill="none" points="265.826,279.499 265.826,23.5533" stroke="#191919" stroke-dasharray="1,3,1,3,1,3,1,3" stroke-linecap="butt" stroke-linejoin="miter" stroke-opacity="0.25" stroke-width="0.5"/>
   <polyline fill="none" points="303.338,279.499 303.338,23.5533" stroke="#191919" stroke-dasharray="1,3,1,3,1,3,1,3" stroke-linecap="butt" stroke-linejoin="miter" stroke-opacity="0.25" stroke-width="0.5"/>
   <polyline fill="none" points="322.386,279.499 322.386,23.5533" stroke="#191919" stroke-dasharray="1,3,1,3,1,3,1,3" stroke-linecap="butt" stroke-linejoin="miter" stroke-opacity="0.25" stroke-width="0.5"/>
   <polyline fill="none" points="335.901,279.499 335.901,23.5533" stroke="#191919" stroke-dasharray="1,3,1,3,1,3,1,3" stroke-linecap="butt" stroke-linejoin="miter" stroke-opacity="0.25" stroke-width="0.5"/>
   <polyline fill="none" points="346.384,279.499 346.384,23.5533" stroke="#191919" stroke-dasharray="1,3,1,3,1,3,1,3" stroke-linecap="butt" stroke-linejoin="miter" stroke-opacity="0.25" stroke-width="0.5"/>
   <polyline fill="none" points="354.949,279.499 354.949,23.5533" stroke="#191919" stroke-dasharray="1,3,1,3,1,3,1,3" stroke-linecap="butt" stroke-linejoin="miter" stroke-opacity="0.25" stroke-width="0.5"/>
   <polyline fill="none" points="362.191,279.499 362.191,23.5533" stroke="#191919" stroke-dasharray="1,3,1,3,1,3,1,3" stroke-linecap="butt" stroke-linejoin="miter" stroke-opacity="0.25" stroke-width="0.5"/>
   <polyline fill="none" points="368.464,279.499 368.464,23.5533" stroke="#191919" stroke-dasharray="1,3,1,3,1,3,1,3" stroke-linecap="butt" stroke-linejoin="miter" stroke-opacity="0.25" stroke-width="0.5"/>
   <polyline fill="none" points="373.997,279.499 373.997,23.5533" stroke="#191919" stroke-dasharray="1,3,1,3,1,3,1,3" stroke-linecap="butt" stroke-linejoin="miter" stroke-opacity="0.25" stroke-width="0.5"/>
   <polyline fill="none" points="54.4343,279.499 54.4343,23.5533" stroke="#262626" stroke-dasharray="16,0" stroke-linecap="butt" stroke-linejoin="miter" stroke-opacity="0.15" stroke-width="0.5"/>
   <polyline fill="none" points="162.605,279.499 162.605,23.5533" stroke="#262626" stroke-dasharray="16,0" stroke-linecap="butt" stroke-linejoin="miter" stroke-opacity="0.15" stroke-width="0.5"/>
   <polyline fill="none" points="270.776,279.499 270.776,23.5533" stroke="#262626" stroke-dasharray="16,0" stroke-linecap="butt" stroke-linejoin="miter" stroke-opacity="0.15" stroke-width="0.5"/>
   <polyline fill="none" points="378.946,279.499 378.946,23.5533" stroke="#262626" stroke-dasharray="16,0" stroke-linecap="butt" stroke-linejoin="miter" stroke-opacity="0.15" stroke-width="0.5"/>
   <polyline fill="none" points="86.9969,279.499 86.9969,277.877" stroke="#262626" stroke-linecap="butt" stroke-linejoin="miter" stroke-width="0.5"/>
   <polyline fill="none" points="86.9969,23.5533 86.9969,25.1755" stroke="#262626" stroke-linecap="butt" stroke-linejoin="miter" stroke-width="0.5"/>
   <polyline fill="none" points="106.045,279.499 106.045,277.877" stroke="#262626" stroke-linecap="butt" stroke-linejoin="miter" stroke-width="0.5"/>
   <polyline fill="none" points="106.045,23.5533 106.045,25.1755" stroke="#262626" stroke-linecap="butt" stroke-linejoin="miter" stroke-width="0.5"/>
   <polyline fill="none" points="119.56,279.499 119.56,277.877" stroke="#262626" stroke-linecap="butt" stroke-linejoin="miter" stroke-width="0.5"/>
   <polyline fill="none" points="119.56,23.5533 119.56,25.1755" stroke="#262626" stroke-linecap="butt" stroke-linejoin="miter" stroke-width="0.5"/>
   <polyline fill="none" points="130.042,279.499 130.042,277.877" stroke="#262626" stroke-linecap="butt" stroke-linejoin="miter" stroke-width="0.5"/>
   <polyline fill="none" points="130.042,23.5533 130.042,25.1755" stroke="#262626" stroke-linecap="butt" stroke-linejoin="miter" stroke-width="0.5"/>
   <polyline fill="none" points="138.607,279.499 138.607,277.877" stroke="#262626" stroke-linecap="butt" stroke-linejoin="miter" stroke-width="0.5"/>
   <polyline fill="none" points="138.607,23.5533 138.607,25.1755" stroke="#262626" stroke-linecap="butt" stroke-linejoin="miter" stroke-width="0.5"/>
   <polyline fill="none" points="145.849,279.499 145.849,277.877" stroke="#262626" stroke-linecap="butt" stroke-linejoin="miter" stroke-width="0.5"/>
   <polyline fill="none" points="145.849,23.5533 145.849,25.1755" stroke="#262626" stroke-linecap="butt" stroke-linejoin="miter" stroke-width="0.5"/>
   <polyline fill="none" points="152.122,279.499 152.122,277.877" stroke="#262626" stroke-linecap="butt" stroke-linejoin="miter" stroke-width="0.5"/>
   <polyline fill="none" points="152.122,23.5533 152.122,25.1755" stroke="#262626" stroke-linecap="butt" stroke-linejoin="miter" stroke-width="0.5"/>
   <polyline fill="none" points="157.655,279.499 157.655,277.877" stroke="#262626" stroke-linecap="butt" stroke-linejoin="miter" stroke-width="0.5"/>
   <polyline fill="none" points="157.655,23.5533 157.655,25.1755" stroke="#262626" stroke-linecap="butt" stroke-linejoin="miter" stroke-width="0.5"/>
   <polyline fill="none" points="195.168,279.499 195.168,277.877" stroke="#262626" stroke-linecap="butt" stroke-linejoin="miter" stroke-width="0.5"/>
   <polyline fill="none" points="195.168,23.5533 195.168,25.1755" stroke="#262626" stroke-linecap="butt" stroke-linejoin="miter" stroke-width="0.5"/>
   <polyline fill="none" points="214.216,279.499 214.216,277.877" stroke="#262626" stroke-linecap="butt" stroke-linejoin="miter" stroke-width="0.5"/>
   <polyline fill="none" points="214.216,23.5533 214.216,25.1755" stroke="#262626" stroke-linecap="butt" stroke-linejoin="miter" stroke-width="0.5"/>
   <polyline fill="none" points="227.73,279.499 227.73,277.877" stroke="#262626" stroke-linecap="butt" stroke-linejoin="miter" stroke-width="0.5"/>
   <polyline fill="none" points="227.73,23.5533 227.73,25.1755" stroke="#262626" stroke-linecap="butt" stroke-linejoin="miter" stroke-width="0.5"/>
   <polyline fill="none" points="238.213,279.499 238.213,277.877" stroke="#262626" stroke-linecap="butt" stroke-linejoin="miter" stroke-width="0.5"/>
   <polyline fill="none" points="238.213,23.5533 238.213,25.1755" stroke="#262626" stroke-linecap="butt" stroke-linejoin="miter" stroke-width="0.5"/>
   <polyline fill="none" points="246.778,279.499 246.778,277.877" stroke="#262626" stroke-linecap="butt" stroke-linejoin="miter" stroke-width="0.5"/>
   <polyline fill="none" points="246.778,23.5533 246.778,25.1755" stroke="#262626" stroke-linecap="butt" stroke-linejoin="miter" stroke-width="0.5"/>
   <polyline fill="none" points="254.02,279.499 254.02,277.877" stroke="#262626" stroke-linecap="butt" stroke-linejoin="miter" stroke-width="0.5"/>
   <polyline fill="none" points="254.02,23.5533 254.02,25.1755" stroke="#262626" stroke-linecap="butt" stroke-linejoin="miter" stroke-width="0.5"/>
   <polyline fill="none" points="260.293,279.499 260.293,277.877" stroke="#262626" stroke-linecap="butt" stroke-linejoin="miter" stroke-width="0.5"/>
   <polyline fill="none" points="260.293,23.5533 260.293,25.1755" stroke="#262626" stroke-linecap="butt" stroke-linejoin="miter" stroke-width="0.5"/>
   <polyline fill="none" points="265.826,279.499 265.826,277.877" stroke="#262626" stroke-linecap="butt" stroke-linejoin="miter" stroke-width="0.5"/>
   <polyline fill="none" points="265.826,23.5533 265.826,25.1755" stroke="#262626" stroke-linecap="butt" stroke-linejoin="miter" stroke-width="0.5"/>
   <polyline fill="none" points="303.338,279.499 303.338,277.877" stroke="#262626" stroke-linecap="butt" stroke-linejoin="miter" stroke-width="0.5"/>
   <polyline fill="none" points="303.338,23.5533 303.338,25.1755" stroke="#262626" stroke-linecap="butt" stroke-linejoin="miter" stroke-width="0.5"/>
   <polyline fill="none" points="322.386,279.499 322.386,277.877" stroke="#262626" stroke-linecap="butt" stroke-linejoin="miter" stroke-width="0.5"/>
   <polyline fill="none" points="322.386,23.5533 322.386,25.1755" stroke="#262626" stroke-linecap="butt" stroke-linejoin="miter" stroke-width="0.5"/>
   <polyline fill="none" points="335.901,279.499 335.901,277.877" stroke="#262626" stroke-linecap="butt" stroke-linejoin="miter" stroke-width="0.5"/>
   <polyline fill="none" points="335.901,23.5533 335.901,25.1755" stroke="#262626" stroke-linecap="butt" stroke-linejoin="miter" stroke-width="0.5"/>
   <polyline fill="none" points="346.384,279.499 346.384,277.877" stroke="#262626" stroke-linecap="butt" stroke-linejoin="miter" stroke-width="0.5"/>
   <polyline fill="none" points="346.384,23.5533 346.384,25.1755" stroke="#262626" stroke-linecap="butt" stroke-linejoin="miter" stroke-width="0.5"/>
   <polyline fill="none" points="354.949,279.499 354.949,277.877" stroke="#262626" stroke-linecap="butt" stroke-linejoin="miter" stroke-width="0.5"/>
   <polyline fill="none" points="354.949,23.5533 354.949,25.1755" stroke="#262626" stroke-linecap="butt" stroke-linejoin="miter" stroke-width="0.5"/>
   <polyline fill="none" points="362.191,279.499 362.191,277.877" stroke="#262626" stroke-linecap="butt" stroke-linejoin="miter" stroke-width="0.5"/>
   <polyline fill="none" points="362.191,23.5533 362.191,25.1755" stroke="#262626" stroke-linecap="butt" stroke-linejoin="miter" stroke-width="0.5"/>
   <polyline fill="none" points="368.464,279.499 368.464,277.877" stroke="#262626" stroke-linecap="butt" stroke-linejoin="miter" stroke-width="0.5"/>
   <polyline fill="none" points="368.464,23.5533 368.464,25.1755" stroke="#262626" stroke-linecap="butt" stroke-linejoin="miter" stroke-width="0.5"/>
   <polyline fill="none" points="373.997,279.499 373.997,277.877" stroke="#262626" stroke-linecap="butt" stroke-linejoin="miter" stroke-width="0.5"/>
   <polyline fill="none" points="373.997,23.5533 373.997,25.1755" stroke="#262626" stroke-linecap="butt" stroke-linejoin="miter" stroke-width="0.5"/>
   <polyline fill="none" points="54.4343,279.499 54.4343,276.255" stroke="#262626" stroke-linecap="butt" stroke-linejoin="miter" stroke-width="0.5"/>
   <polyline fill="none" points="54.4343,23.5533 54.4343,26.7977" stroke="#262626" stroke-linecap="butt" stroke-linejoin="miter" stroke-width="0.5"/>
   <polyline fill="none" points="162.605,279.499 162.605,276.255" stroke="#262626" stroke-linecap="butt" stroke-linejoin="miter" stroke-width="0.5"/>
   <polyline fill="none" points="162.605,23.5533 162.605,26.7977" stroke="#262626" stroke-linecap="butt" stroke-linejoin="miter" stroke-width="0.5"/>
   <polyline fill="none" points="270.776,279.499 270.776,276.255" stroke="#262626" stroke-linecap="butt" stroke-linejoin="miter" stroke-width="0.5"/>
   <polyline fill="none" points="270.776,23.5533 270.776,26.7977" stroke="#262626" stroke-linecap="butt" stroke-linejoin="miter" stroke-width="0.5"/>
   <polyline fill="none" points="378.946,279.499 378.946,276.255" stroke="#262626" stroke-linecap="butt" stroke-linejoin="miter" stroke-width="0.5"/>
   <polyline fill="none" points="378.946,23.5533 378.946,26.7977" stroke="#262626" stroke-linecap="butt" stroke-linejoin="miter" stroke-width="0.5"/>
   <g font-family="FreeSans" font-size="10" font-style="normal" font-weight="normal" transform="translate(45.4343,296.998) rotate(-0,9,-10)" xml:space="preserve">
    <text fill="rgb(38,38,38)" x="0 6 " y="-0">10</text>
    <text fill="rgb(38,38,38)" font-size="7" x="12 14 " y="-4">-1</text>
   </g>
   <g font-family="FreeSans" font-size="10" font-style="normal" font-weight="normal" transform="translate(154.605,296.998) rotate(-0,8,-10)" xml:space="preserve">
    <text fill="rgb(38,38,38)" x="0 6 " y="-0">10</text>
    <text fill="rgb(38,38,38)" font-size="7" x="12 " y="-4">0</text>
   </g>
   <g font-family="FreeSans" font-size="10" font-style="normal" font-weight="normal" transform="translate(262.776,296.998) rotate(-0,8,-10)" xml:space="preserve">
    <text fill="rgb(38,38,38)" x="0 6 " y="-0">10</text>
    <text fill="rgb(38,38,38)" font-size="7" x="12 " y="-4">1</text>
   </g>
   <g font-family="FreeSans" font-size="10" font-style="normal" font-weight="normal" transform="translate(370.946,296.998) rotate(-0,8,-10)" xml:space="preserve">
    <text fill="rgb(38,38,38)" x="0 6 " y="-0">10</text>
    <text fill="rgb(38,38,38)" font-size="7" x="12 " y="-4">2</text>
   </g>
   <polyline fill="none" points="54.4343,249.165 378.946,249.165" stroke="#262626" stroke-dasharray="16,0" stroke-linecap="butt" stroke-linejoin="miter" stroke-opacity="0.15" stroke-width="0.5"/>
   <polyline fill="none" points="54.4343,187.036 378.946,187.036" stroke="#262626" stroke-dasharray="16,0" stroke-linecap="butt" stroke-linejoin="miter" stroke-opacity="0.15" stroke-width="0.5"/>
   <polyline fill="none" points="54.4343,124.906 378.946,124.906" stroke="#262626" stroke-dasharray="16,0" stroke-linecap="butt" stroke-linejoin="miter" stroke-opacity="0.15" stroke-width="0.5"/>
   <polyline fill="none" points="54.4343,62.7772 378.946,62.7772" stroke="#262626" stroke-dasharray="16,0" stroke-linecap="butt" stroke-linejoin="miter" stroke-opacity="0.15" stroke-width="0.5"/>
   <polyline fill="none" points="54.4343,249.165 57.6745,249.165" stroke="#262626" stroke-linecap="butt" stroke-linejoin="miter" stroke-width="0.5"/>
   <polyline fill="none" points="378.946,249.165 375.706,249.165" stroke="#262626" stroke-linecap="butt" stroke-linejoin="miter" stroke-width="0.5"/>
   <polyline fill="none" points="54.4343,187.036 57.6745,187.036" stroke="#262626" stroke-linecap="butt" stroke-linejoin="miter" stroke-width="0.5"/>
   <polyline fill="none" points="378.946,187.036 375.706,187.036" stroke="#262626" stroke-linecap="butt" stroke-linejoin="miter" stroke-width="0.5"/>
   <polyline fill="none" points="54.4343,124.906 57.6745,124.906" stroke="#262626" stroke-linecap="butt" stroke-linejoin="miter" stroke-width="0.5"/>
   <polyline fill="none" points="378.946,124.906 375.706,124.906" stroke="#262626" stroke-linecap="butt" stroke-linejoin="miter" stroke-width="0.5"/>
   <polyline fill="none" points="54.4343,62.7772 57.6745,62.7772" stroke="#262626" stroke-linecap="butt" stroke-linejoin="miter" stroke-width="0.5"/>
   <polyline fill="none" points="378.946,62.7772 375.706,62.7772" stroke="#262626" stroke-linecap="butt" stroke-linejoin="miter" stroke-width="0.5"/>
   <g font-family="FreeSans" font-size="10" font-style="normal" font-weight="normal" transform="translate(34.4418,253.165) rotate(-0,15,-4)" xml:space="preserve">
    <text fill="rgb(38,38,38)" x="0 3 9 " y="-0">-80</text>
   </g>
   <g font-family="FreeSans" font-size="10" font-style="normal" font-weight="normal" transform="translate(34.4418,191.036) rotate(-0,15,-4)" xml:space="preserve">
    <text fill="rgb(38,38,38)" x="0 3 9 " y="-0">-60</text>
   </g>
   <g font-family="FreeSans" font-size="10" font-style="normal" font-weight="normal" transform="translate(34.4418,128.906) rotate(-0,15,-4)" xml:space="preserve">
    <text fill="rgb(38,38,38)" x="0 3 9 " y="-0">-40</text>
   </g>
   <g font-family="FreeSans" font-size="10" font-style="normal" font-weight="normal" transform="translate(34.4418,66.7772) rotate(-0,15,-4)" xml:space="preserve">
    <text fill="rgb(38,38,38)" x="0 3 9 " y="-0">-20</text>
   </g>
   <polyline fill="none" points="54.4343,279.499 378.946,279.499" stroke="#262626" stroke-dasharray="16,0" stroke-linecap="square" stroke-linejoin="miter" stroke-width="0.5"/>
   <polyline fill="none" points="54.4343,23.5533 378.946,23.5533" stroke="#262626" stroke-dasharray="16,0" stroke-linecap="square" stroke-linejoin="miter" stroke-width="0.5"/>
   <polyline fill="none" points="54.4343,279.499 54.4343,23.5533" stroke="#262626" stroke-dasharray="16,0" stroke-linecap="square" stroke-linejoin="miter" stroke-width="0.5"/>
   <polyline fill="none" points="378.946,279.499 378.946,23.5533" stroke="#262626" stroke-dasharray="16,0" stroke-linecap="square" stroke-linejoin="miter" stroke-width="0.5"/>
   <g font-family="FreeSans" font-size="10" font-style="normal" font-weight="normal" transform="translate(178.69,312.998) rotate(-0,38,-11)" xml:space="preserve">
    <text fill="rgb(38,38,38)" x="0 6 9 14 20 25 30 35 40 45 48 51 54 59 65 68 73 " y="-2">Frequency [rad/s]</text>
   </g>
   <g font-family="FreeSans" font-size="10" font-style="normal" font-weight="normal" transform="translate(-4.0582,151.526) rotate(-90,33.5,0)" xml:space="preserve">
    <text fill="rgb(38,38,38)" x="0 8 13 19 24 26 29 34 40 45 48 51 57 64 " y="-2">Magnitude [dB]</text>
   </g>
   <g font-family="FreeSans" font-size="10" font-style="normal" font-weight="bold" transform="translate(155.19,13.5533) rotate(-0,61.5,0)" xml:space="preserve">
    <text fill="rgb(0,0,0)" x="0 7 13 19 25 28 37 43 49 55 58 61 67 73 79 82 89 92 98 104 108 114 " y="-2">Bode Magnitude Diagram</text>
   </g>
   <polyline fill="none" points="54.4343,37.9946 54.7591,37.9938 55.084,37.993 55.4088,37.9922 55.7336,37.9913 56.0585,37.9904 56.3833,37.9896 56.7081,37.9887 57.033,37.9878 57.3578,37.9869 57.6827,37.986 58.0075,37.985 58.3323,37.9841 58.6572,37.9831 58.982,37.9821 59.3068,37.9811 59.6317,37.9801 59.9565,37.9791 60.2813,37.9781 60.6062,37.9771 60.931,37.976 61.2559,37.9749 61.5807,37.9738 61.9055,37.9727 62.2304,37.9716 62.5552,37.9705 62.8801,37.9693 63.2049,37.9681 63.5297,37.967 63.8546,37.9658 64.1794,37.9646 64.5042,37.9633 64.8291,37.9621 65.1539,37.9608 65.4787,37.9595 65.8036,37.9582 66.1284,37.9569 66.4532,37.9556 66.7781,37.9542 67.1029,37.9529 67.4278,37.9514 67.7526,37.95 68.0774,37.9486 68.4023,37.9472 68.7271,37.9457 69.0519,37.9442 69.3768,37.9427 69.7016,37.9412 70.0264,37.9396 70.3513,37.938 70.6761,37.9364 71.001,37.9348 71.3258,37.9332 71.6506,37.9315 71.9755,37.9298 72.3003,37.9281 72.6252,37.9264 72.95,37.9246 73.2748,37.9229 73.5997,37.9211 73.9245,37.9192 74.2493,37.9174 74.5742,37.9155 74.899,37.9136 75.2238,37.9117 75.5487,37.9097 75.8735,37.9077 76.1983,37.9057 76.5232,37.9037 76.848,37.9016 77.1729,37.8995 77.4977,37.8974 77.8225,37.8952 78.1474,37.8931 78.4722,37.8908 78.7971,37.8886 79.1219,37.8863 79.4467,37.884 79.7716,37.8817 80.0964,37.8793 80.4212,37.8769 80.7461,37.8745 81.0709,37.872 81.3957,37.8695 81.7206,37.867 82.0454,37.8644 82.3703,37.8618 82.6951,37.8592 83.0199,37.8565 83.3448,37.8538 83.6696,37.8511 83.9944,37.8483 84.3193,37.8455 84.6441,37.8426 84.969,37.8398 85.2938,37.8368 85.6186,37.8338 85.9435,37.8308 86.2683,37.8278 86.5931,37.8246 86.918,37.8215 87.2428,37.8183 87.5676,37.8151 87.8925,37.8119 88.2173,37.8085 88.5422,37.8052 88.867,37.8018 89.1918,37.7983 89.5167,37.7948 89.8415,37.7913 90.1664,37.7877 90.4912,37.7841 90.816,37.7804 91.1409,37.7767 91.4657,37.7729 91.7905,37.769 92.1154,37.7652 92.4402,37.7612 92.765,37.7572 93.0899,37.7532 93.4147,37.7491 93.7395,37.7449 94.0644,37.7407 94.3892,37.7365 94.7141,37.7321 95.0389,37.7278 95.3637,37.7233 95.6886,37.7188 96.0134,37.7143 96.3383,37.7097 96.6631,37.705 96.9879,37.7003 97.3128,37.6954 97.6376,37.6906 97.9624,37.6857 98.2873,37.6807 98.6121,37.6756 98.9369,37.6705 99.2618,37.6653 99.5866,37.66 99.9115,37.6547 100.236,37.6493 100.561,37.6438 100.886,37.6383 101.211,37.6327 101.536,37.627 101.86,37.6212 102.185,37.6154 102.51,37.6094 102.835,37.6035 103.16,37.5974 103.485,37.5912 103.81,37.585 104.134,37.5787 104.459,37.5723 104.784,37.5658 105.109,37.5593 105.434,37.5526 105.759,37.5459 106.083,37.5391 106.408,37.5322 106.733,37.5252 107.058,37.5181 107.383,37.511 107.708,37.5037 108.032,37.4963 108.357,37.4889 108.682,37.4814 109.007,37.4737 109.332,37.466 109.657,37.4581 109.981,37.4502 110.306,37.4422 110.631,37.4341 110.956,37.4258 111.281,37.4175 111.606,37.4091 111.93,37.4005 112.255,37.3919 112.58,37.3831 112.905,37.3742 113.23,37.3653 113.555,37.3562 113.879,37.347 114.204,37.3377 114.529,37.3282 114.854,37.3187 115.179,37.309 115.504,37.2993 115.828,37.2894 116.153,37.2794 116.478,37.2692 116.803,37.259 117.128,37.2486 117.453,37.2381 117.777,37.2275 118.102,37.2167 118.427,37.2058 118.752,37.1948 119.077,37.1837 119.402,37.1724 119.727,37.161 120.051,37.1495 120.376,37.1378 120.701,37.126 121.026,37.1141 121.351,37.102 121.676,37.0898 122,37.0775 122.325,37.065 122.65,37.0524 122.975,37.0396 123.3,37.0267 123.625,37.0136 123.949,37.0004 124.274,36.9871 124.599,36.9736 124.924,36.96 125.249,36.9462 125.574,36.9323 125.898,36.9182 126.223,36.904 126.548,36.8896 126.873,36.8751 127.198,36.8604 127.523,36.8456 127.847,36.8306 128.172,36.8154 128.497,36.8002 128.822,36.7847 129.147,36.7691 129.472,36.7534 129.796,36.7375 130.121,36.7215 130.446,36.7053 130.771,36.6889 131.096,36.6724 131.421,36.6558 131.745,36.6389 132.07,36.622 132.395,36.6049 132.72,36.5876 133.045,36.5702 133.37,36.5527 133.694,36.535 134.019,36.5171 134.344,36.4991 134.669,36.481 134.994,36.4627 135.319,36.4443 135.644,36.4258 135.968,36.407 136.293,36.3882 136.618,36.3693 136.943,36.3502 137.268,36.331 137.593,36.3116 137.917,36.2921 138.242,36.2726 138.567,36.2529 138.892,36.2331 139.217,36.2131 139.542,36.1931 139.866,36.173 140.191,36.1528 140.516,36.1325 140.841,36.1121 141.166,36.0916 141.491,36.071 141.815,36.0504 142.14,36.0298 142.465,36.009 142.79,35.9883 143.115,35.9674 143.44,35.9466 143.764,35.9257 144.089,35.9048 144.414,35.8839 144.739,35.863 145.064,35.8421 145.389,35.8212 145.713,35.8004 146.038,35.7795 146.363,35.7588 146.688,35.7381 147.013,35.7175 147.338,35.697 147.662,35.6765 147.987,35.6562 148.312,35.6361 148.637,35.6161 148.962,35.5963 149.287,35.5766 149.611,35.5571 149.936,35.5379 150.261,35.5189 150.586,35.5001 150.911,35.4816 151.236,35.4634 151.561,35.4456 151.885,35.4281 152.21,35.4109 152.535,35.3942 152.86,35.3778 153.185,35.3619 153.51,35.3465 153.834,35.3316 154.159,35.3172 154.484,35.3034 154.809,35.2901 155.134,35.2775 155.459,35.2656 155.783,35.2543 156.108,35.2437 156.433,35.234 156.758,35.225 157.083,35.2169 157.408,35.2096 157.732,35.2033 158.057,35.198 158.382,35.1937 158.707,35.1904 159.032,35.1882 159.357,35.1872 159.681,35.1874 160.006,35.1888 160.331,35.1916 160.656,35.1957 160.981,35.2012 161.306,35.2083 161.63,35.2168 161.955,35.2269 162.28,35.2387 162.605,35.2521 162.93,35.2674 163.255,35.2845 163.579,35.3035 163.904,35.3244 164.229,35.3474 164.554,35.3725 164.879,35.3997 165.204,35.4292 165.529,35.461 165.853,35.4952 166.178,35.5318 166.503,35.571 166.828,35.6127 167.153,35.6571 167.478,35.7043 167.802,35.7543 168.127,35.8072 168.452,35.8631 168.777,35.922 169.102,35.984 169.427,36.0492 169.751,36.1177 170.076,36.1896 170.401,36.2648 170.726,36.3436 171.051,36.4258 171.376,36.5118 171.7,36.6014 172.025,36.6948 172.35,36.792 172.675,36.8931 173,36.9981 173.325,37.1072 173.649,37.2203 173.974,37.3375 174.299,37.459 174.624,37.5846 174.949,37.7145 175.274,37.8488 175.598,37.9874 175.923,38.1304 176.248,38.2778 176.573,38.4297 176.898,38.5861 177.223,38.747 177.547,38.9124 177.872,39.0824 178.197,39.257 178.522,39.4361 178.847,39.6198 178.886,39.6425 179.172,39.8082 179.497,40.001 179.821,40.1985 180.146,40.4006 180.471,40.6072 180.796,40.8183 181.121,41.034 181.446,41.2542 181.77,41.4788 182.095,41.7079 182.42,41.9413 182.745,42.1792 183.07,42.4214 183.395,42.6678 183.719,42.9185 184.044,43.1734 184.369,43.4325 184.694,43.6956 185.019,43.9627 185.344,44.2338 185.668,44.5088 185.993,44.7877 186.318,45.0703 186.643,45.3566 186.968,45.6466 187.293,45.9402 187.617,46.2372 187.942,46.5377 188.267,46.8416 188.592,47.1487 188.917,47.459 189.242,47.7725 189.566,48.0891 189.891,48.4086 190.216,48.731 190.541,49.0564 190.866,49.3844 191.191,49.7152 191.515,50.0485 191.84,50.3845 192.165,50.7228 192.49,51.0636 192.815,51.4067 193.14,51.7521 193.464,52.0996 193.789,52.4493 194.114,52.801 194.439,53.1547 194.764,53.5103 195.089,53.8678 195.414,54.227 195.738,54.588 196.063,54.9506 196.388,55.3148 196.713,55.6806 197.038,56.0479 197.363,56.4166 197.687,56.7867 198.012,57.1581 198.337,57.5307 198.662,57.9046 198.987,58.2796 199.312,58.6558 199.636,59.033 199.961,59.4113 200.286,59.7905 200.611,60.1707 200.936,60.5517 201.261,60.9336 201.585,61.3164 201.91,61.6999 202.235,62.0841 202.56,62.4691 202.885,62.8547 203.21,63.2409 203.534,63.6277 203.859,64.0152 204.184,64.4031 204.509,64.7915 204.834,65.1805 205.159,65.5699 205.483,65.9597 205.808,66.3499 206.133,66.7404 206.458,67.1314 206.783,67.5226 207.108,67.9142 207.432,68.306 207.757,68.6981 208.082,69.0904 208.407,69.483 208.732,69.8758 209.057,70.2687 209.382,70.6618 209.706,71.0551 210.031,71.4485 210.356,71.8421 210.681,72.2357 211.006,72.6295 211.331,73.0233 211.655,73.4172 211.98,73.8111 212.305,74.2051 212.63,74.5991 212.955,74.9931 213.28,75.3872 213.604,75.7813 213.929,76.1753 214.254,76.5694 214.579,76.9634 214.904,77.3573 215.229,77.7513 215.553,78.1452 215.878,78.539 216.203,78.9328 216.528,79.3265 216.853,79.7202 217.178,80.1137 217.502,80.5072 217.827,80.9006 218.152,81.2939 218.477,81.6871 218.802,82.0802 219.127,82.4731 219.451,82.866 219.776,83.2588 220.101,83.6514 220.426,84.0439 220.751,84.4363 221.076,84.8286 221.4,85.2207 221.725,85.6128 222.05,86.0046 222.375,86.3964 222.7,86.788 223.025,87.1794 223.35,87.5707 223.674,87.9619 223.999,88.353 224.324,88.7439 224.649,89.1346 224.974,89.5252 225.299,89.9156 225.623,90.3059 225.948,90.696 226.273,91.086 226.598,91.4759 226.923,91.8656 227.248,92.2551 227.572,92.6445 227.897,93.0337 228.222,93.4228 228.547,93.8117 228.872,94.2005 229.197,94.5891 229.521,94.9776 229.846,95.3659 230.171,95.7541 230.496,96.1421 230.821,96.5299 231.146,96.9176 231.47,97.3052 231.795,97.6926 232.12,98.0799 232.445,98.467 232.77,98.8539 233.095,99.2408 233.419,99.6274 233.744,100.014 234.069,100.4 234.394,100.787 234.719,101.173 235.044,101.559 235.368,101.944 235.693,102.33 236.018,102.716 236.343,103.101 236.668,103.486 236.993,103.871 237.317,104.256 237.642,104.641 237.967,105.026 238.292,105.411 238.617,105.795 238.942,106.179 239.267,106.563 239.591,106.948 239.916,107.331 240.241,107.715 240.566,108.099 240.891,108.482 241.216,108.866 241.54,109.249 241.865,109.632 242.19,110.016 242.515,110.398 242.84,110.781 243.165,111.164 243.489,111.547 243.814,111.929 244.139,112.311 244.464,112.694 244.789,113.076 245.114,113.458 245.438,113.84 245.763,114.222 246.088,114.603 246.413,114.985 246.738,115.367 247.063,115.748 247.387,116.129 247.712,116.51 248.037,116.892 248.362,117.273 248.687,117.653 249.012,118.034 249.336,118.415 249.661,118.796 249.986,119.176 250.311,119.557 250.636,119.937 250.961,120.317 251.285,120.697 251.61,121.077 251.935,121.457 252.26,121.837 252.585,122.217 252.91,122.597 253.234,122.976 253.559,123.356 253.884,123.735 254.209,124.115 254.534,124.494 254.859,124.873 255.184,125.253 255.508,125.632 255.833,126.011 256.158,126.39 256.483,126.768 256.808,127.147 257.133,127.526 257.457,127.905 257.782,128.283 258.107,128.662 258.432,129.04 258.757,129.418 259.082,129.797 259.406,130.175 259.731,130.553 260.056,130.931 260.381,131.309 260.706,131.687 261.031,132.065 261.355,132.443 261.68,132.821 262.005,133.198 262.33,133.576 262.655,133.954 262.98,134.331 263.304,134.709 263.629,135.086 263.954,135.463 264.279,135.841 264.604,136.218 264.929,136.595 265.253,136.972 265.578,137.35 265.903,137.727 266.228,138.104 266.553,138.481 266.878,138.857 267.202,139.234 267.527,139.611 267.852,139.988 268.177,140.364 268.502,140.741 268.827,141.118 269.152,141.494 269.476,141.871 269.801,142.247 270.126,142.624 270.451,143 270.776,143.376 271.101,143.753 271.425,144.129 271.75,144.505 272.075,144.881 272.4,145.258 272.725,145.634 273.05,146.01 273.374,146.386 273.699,146.762 274.024,147.138 274.349,147.514 274.674,147.889 274.999,148.265 275.323,148.641 275.648,149.017 275.973,149.392 276.298,149.768 276.623,150.144 276.948,150.519 277.272,150.895 277.597,151.271 277.922,151.646 278.247,152.022 278.572,152.397 278.897,152.772 279.221,153.148 279.546,153.523 279.871,153.899 280.196,154.274 280.521,154.649 280.846,155.024 281.17,155.4 281.495,155.775 281.82,156.15 282.145,156.525 282.47,156.9 282.795,157.275 283.12,157.65 283.444,158.025 283.769,158.4 284.094,158.775 284.419,159.15 284.744,159.525 285.069,159.9 285.393,160.275 285.718,160.65 286.043,161.025 286.368,161.4 286.693,161.774 287.018,162.149 287.342,162.524 287.667,162.899 287.992,163.273 288.317,163.648 288.642,164.023 288.967,164.397 289.291,164.772 289.616,165.147 289.941,165.521 290.266,165.896 290.591,166.27 290.916,166.645 291.24,167.019 291.565,167.394 291.89,167.768 292.215,168.143 292.54,168.517 292.865,168.892 293.189,169.266 293.514,169.64 293.839,170.015 294.164,170.389 294.489,170.763 294.814,171.138 295.138,171.512 295.463,171.886 295.788,172.261 296.113,172.635 296.438,173.009 296.763,173.383 297.087,173.758 297.412,174.132 297.737,174.506 298.062,174.88 298.387,175.254 298.712,175.628 299.036,176.002 299.361,176.377 299.686,176.751 300.011,177.125 300.336,177.499 300.661,177.873 300.986,178.247 301.31,178.621 301.635,178.995 301.96,179.369 302.285,179.743 302.61,180.117 302.935,180.491 303.259,180.865 303.584,181.239 303.909,181.613 304.234,181.987 304.559,182.361 304.884,182.735 305.208,183.109 305.533,183.482 305.858,183.856 306.183,184.23 306.508,184.604 306.833,184.978 307.157,185.352 307.482,185.726 307.807,186.099 308.132,186.473 308.457,186.847 308.782,187.221 309.106,187.595 309.431,187.968 309.756,188.342 310.081,188.716 310.406,189.09 310.731,189.463 311.055,189.837 311.38,190.211 311.705,190.585 312.03,190.958 312.355,191.332 312.68,191.706 313.004,192.079 313.329,192.453 313.654,192.827 313.979,193.2 314.304,193.574 314.629,193.948 314.953,194.321 315.278,194.695 315.603,195.069 315.928,195.442 316.253,195.816 316.578,196.19 316.903,196.563 317.227,196.937 317.552,197.31 317.877,197.684 318.202,198.058 318.527,198.431 318.852,198.805 319.176,199.178 319.501,199.552 319.826,199.925 320.151,200.299 320.476,200.672 320.801,201.046 321.125,201.42 321.45,201.793 321.775,202.167 322.1,202.54 322.425,202.914 322.75,203.287 323.074,203.661 323.399,204.034 323.724,204.408 324.049,204.781 324.374,205.155 324.699,205.528 325.023,205.902 325.348,206.275 325.673,206.648 325.998,207.022 326.323,207.395 326.648,207.769 326.972,208.142 327.297,208.516 327.622,208.889 327.947,209.263 328.272,209.636 328.597,210.009 328.922,210.383 329.246,210.756 329.571,211.13 329.896,211.503 330.221,211.877 330.546,212.25 330.871,212.623 331.195,212.997 331.52,213.37 331.845,213.744 332.17,214.117 332.495,214.49 332.82,214.864 333.144,215.237 333.469,215.61 333.794,215.984 334.119,216.357 334.444,216.731 334.769,217.104 335.093,217.477 335.418,217.851 335.743,218.224 336.068,218.597 336.393,218.971 336.718,219.344 337.042,219.717 337.367,220.091 337.692,220.464 338.017,220.837 338.342,221.211 338.667,221.584 338.991,221.957 339.316,222.331 339.641,222.704 339.966,223.077 340.291,223.451 340.616,223.824 340.94,224.197 341.265,224.571 341.59,224.944 341.915,225.317 342.24,225.691 342.565,226.064 342.889,226.437 343.214,226.81 343.539,227.184 343.864,227.557 344.189,227.93 344.514,228.304 344.839,228.677 345.163,229.05 345.488,229.423 345.813,229.797 346.138,230.17 346.463,230.543 346.788,230.917 347.112,231.29 347.437,231.663 347.762,232.036 348.087,232.41 348.412,232.783 348.737,233.156 349.061,233.53 349.386,233.903 349.711,234.276 350.036,234.649 350.361,235.023 350.686,235.396 351.01,235.769 351.335,236.142 351.66,236.516 351.985,236.889 352.31,237.262 352.635,237.635 352.959,238.009 353.284,238.382 353.609,238.755 353.934,239.128 354.259,239.502 354.584,239.875 354.908,240.248 355.233,240.621 355.558,240.995 355.883,241.368 356.208,241.741 356.533,242.114 356.857,242.487 357.182,242.861 357.507,243.234 357.832,243.607 358.157,243.98 358.482,244.354 358.806,244.727 359.131,245.1 359.456,245.473 359.781,245.846 360.106,246.22 360.431,246.593 360.756,246.966 361.08,247.339 361.405,247.713 361.73,248.086 362.055,248.459 362.38,248.832 362.705,249.205 363.029,249.579 363.354,249.952 363.679,250.325 364.004,250.698 364.329,251.072 364.654,251.445 364.978,251.818 365.303,252.191 365.628,252.564 365.953,252.938 366.278,253.311 366.603,253.684 366.927,254.057 367.252,254.43 367.577,254.804 367.902,255.177 368.227,255.55 368.552,255.923 368.876,256.296 369.201,256.67 369.526,257.043 369.851,257.416 370.176,257.789 370.501,258.162 370.825,258.536 371.15,258.909 371.475,259.282 371.8,259.655 372.125,260.028 372.45,260.401 372.774,260.775 373.099,261.148 373.424,261.521 373.749,261.894 374.074,262.267 374.399,262.641 374.724,263.014 375.048,263.387 375.373,263.76 375.698,264.133 376.023,264.507 376.348,264.88 376.673,265.253 376.997,265.626 377.322,265.999 377.647,266.372 377.972,266.746 378.297,267.119 378.622,267.492 378.946,267.865" stroke="#0071bc" stroke-linecap="butt" stroke-linejoin="round" stroke-width="0.5"/>
  </g>
  <clipPath id="cp00418314">
   <polygon points="0,314 418,314 418,0 0,0"/>
  </clipPath>
  <g clip-path="url(#cp00418314)">
   <polygon fill="#ffffff" points="332.894,48.92 370.936,48.92 370.936,31.5638 332.894,31.5638" shape-rendering="crispEdges"/>
   <polyline fill="none" points="332.894,48.92 370.936,48.92" stroke="#262626" stroke-dasharray="16,0" stroke-linecap="square" stroke-linejoin="miter" stroke-width="0.5"/>
   <polyline fill="none" points="332.894,31.5638 370.936,31.5638" stroke="#262626" stroke-dasharray="16,0" stroke-linecap="square" stroke-linejoin="miter" stroke-width="0.5"/>
   <polyline fill="none" points="332.894,48.92 332.894,31.5638" stroke="#262626" stroke-dasharray="16,0" stroke-linecap="square" stroke-linejoin="miter" stroke-width="0.5"/>
   <polyline fill="none" points="370.936,48.92 370.936,31.5638" stroke="#262626" stroke-dasharray="16,0" stroke-linecap="square" stroke-linejoin="miter" stroke-width="0.5"/>
   <polyline fill="none" points="336.899,40.2419 356.925,40.2419" stroke="#0071bc" stroke-linecap="butt" stroke-linejoin="round" stroke-width="0.5"/>
   <g font-family="FreeSans" font-size="10" font-style="normal" font-weight="normal" transform="translate(360.931,44.7419) rotate(-0,-0,-4.5)" xml:space="preserve">
    <text fill="rgb(0,0,0)" x="0 " y="-2">g</text>
   </g>
  </g>
 </g>
</svg>
