<?xml version='1.0' encoding='UTF-8' standalone='no'?>
<svg height="314pt" viewBox="0 0 418 314" width="418pt" xmlns="http://www.w3.org/2000/svg" xmlns:xlink="http://www.w3.org/1999/xlink">
 <title>Figure 1</title>
 <desc>
Creator: GL2PS 1.4.2, (C) 1999-2020 C. Geuzaine
For: Octave
CreationDate: Sun Feb  8 20:55:57 2026
</desc>
 <defs/>
 <polygon fill="#ffffff" points="0,0 418,0 418,314 0,314"/>
 <g>
  <polygon fill="#ffffff" points="0,314 418,314 418,0 0,0" shape-rendering="crispEdges"/>
  <clipPath id="cp00418314">
   <polygon points="0,314 418,314 418,0 0,0"/>
  </clipPath>
  <g clip-path="url(#cp00418314)">
   <polygon fill="#ffffff" points="54.4343,129.834 378.946,129.834 378.946,27.5637 54.4343,27.5637" shape-rendering="crispEdges"/>
   <polyline fill="none" points="86.9969,129.834 86.9969,27.5637" stroke="#191919" stroke-dasharray="1,3,1,3,1,3,1,3" stroke-linecap="butt" stroke-linejoin="miter" stroke-opacity="0.25" stroke-width="0.5"/>
   <polyline fill="none" points="106.045,129.834 106.045,27.5637" stroke="#191919" stroke-dasharray="1,3,1,3,1,3,1,3" stroke-linecap="butt" stroke-linejoin="miter" stroke-opacity="0.25" stroke-width="0.5"/>
   <polyline fill="none" points="119.56,129.834 119.56,27.5637" stroke="#191919" stroke-dasharray="1,3,1,3,1,3,1,3" stroke-linecap="butt" stroke-linejoin="miter" stroke-opacity="0.25" stroke-width="0.5"/>
   <polyline fill="none" points="130.042,129.834 130.042,27.5637" stroke="#191919" stroke-dasharray="1,3,1,3,1,3,1,3" stroke-linecap="butt" stroke-linejoin="miter" stroke-opacity="0.25" stroke-width="0.5"/>
   <polyline fill="none" points="138.607,129.834 138.607,27.5637" stroke="#191919" stroke-dasharray="1,3,1,3,1,3,1,3" stroke-linecap="butt" stroke-linejoin="miter" stroke-opacity="0.25" stroke-width="0.5"/>
   <polyline fill="none" points="145.849,129.834 145.849,27.5637" stroke="#191919" stroke-dasharray="1,3,1,3,1,3,1,3" stroke-linecap="butt" stroke-linejoin="miter" stroke-opacity="0.25" stroke-width="0.5"/>
   <polyline fill="none" points="152.122,129.834 152.122,27.5637" stroke="#191919" stroke-dasharray="1,3,1,3,1,3,1,3" stroke-linecap="butt" stroke-linejoin="miter" stroke-opacity="0.25" stroke-width="0.5"/>
   <polyline fill="none" points="157.655,129.834 157.655,27.5637" stroke="#191919" stroke-dasharray="1,3,1,3,1,3,1,3" stroke-linecap="butt" stroke-linejoin="miter" stroke-opacity="0.25" stroke-width="0.5"/>
   <polyline fill="none" points="195.168,129.834 195.168,27.5637" stroke="#191919" stroke-dasharray="1,3,1,3,1,3,1,3" stroke-linecap="butt" stroke-linejoin="miter" stroke-opacity="0.25" stroke-width="0.5"/>
   <polyline fill="none" points="214.216,129.834 214.216,27.5637" stroke="#191919" stroke-dasharray="1,3,1,3,1,3,1,3" stroke-linecap="butt" stroke-linejoin="miter" stroke-opacity="0.25" stroke-width="0.5"/>
   <polyline fill="none" points="227.73,129.834 227.73,27.5637" stroke="#191919" stroke-dasharray="1,3,1,3,1,3,1,3" stroke-linecap="butt" stroke-linejoin="miter" stroke-opacity="0.25" stroke-width="0.5"/>
   <polyline fill="none" points="238.213,129.834 238.213,27.5637" stroke="#191919" stroke-dasharray="1,3,1,3,1,3,1,3" stroke-linecap="butt" stroke-linejoin="miter" stroke-opacity="0.25" stroke-width="0.5"/>
   <polyline fill="none" points="246.778,129.834 246.778,27.5637" stroke="#191919" stroke-dasharray="1,3,1,3,1,3,1,3" stroke-linecap="butt" stroke-linejoin="miter" stroke-opacity="0.25" stroke-width="0.5"/>
   <polyline fill="none" points="254.02,129.834 254.02,27.5637" stroke="#191919" stroke-dasharray="1,3,1,3,1,3,1,3" stroke-linecap="butt" stroke-linejoin="miter" stroke-opacity="0.25" stroke-width="0.5"/>
   <polyline fill="none" points="260.293,129.834 260.293,27.5637" stroke="#191919" stroke-dasharray="1,3,1,3,1,3,1,3" stroke-linecap="butt" stroke-linejoin="miter" stroke-opacity="0.25" stroke-width="0.5"/>
   <polyline fill="none" points="265.826,129.834 265.826,27.5637" stroke="#191919" stroke-dasharray="1,3,1,3,1,3,1,3" stroke-linecap="butt" stroke-linejoin="miter" stroke-opacity="0.25" stroke-width="0.5"/>
   <polyline fill="none" points="303.338,129.834 303.338,27.5637" stroke="#191919" stroke-dasharray="1,3,1,3,1,3,1,3" stroke-linecap="butt" stroke-linejoin="miter" stroke-opacity="0.25" stroke-width="0.5"/>
   <polyline fill="none" points="322.386,129.834 322.386,27.5637" stroke="#191919" stroke-dasharray="1,3,1,3,1,3,1,3" stroke-linecap="butt" stroke-linejoin="miter" stroke-opacity="0.25" stroke-width="0.5"/>
   <polyline fill="none" points="335.901,129.834 335.901,27.5637" stroke="#191919" stroke-dasharray="1,3,1,3,1,3,1,3" stroke-linecap="butt" stroke-linejoin="miter" stroke-opacity="0.25" stroke-width="0.5"/>
   <polyline fill="none" points="346.384,129.834 346.384,27.5637" stroke="#191919" stroke-dasharray="1,3,1,3,1,3,1,3" stroke-linecap="butt" stroke-linejoin="miter" stroke-opacity="0.25" stroke-width="0.5"/>
   <polyline fill="none" points="354.949,129.834 354.949,27.5637" stroke="#191919" stroke-dasharray="1,3,1,3,1,3,1,3" stroke-linecap="butt" stroke-linejoin="miter" stroke-opacity="0.25" stroke-width="0.5"/>
   <polyline fill="none" points="362.191,129.834 362.191,27.5637" stroke="#191919" stroke-dasharray="1,3,1,3,1,3,1,3" stroke-linecap="butt" stroke-linejoin="miter" stroke-opacity="0.25" stroke-width="0.5"/>
   <polyline fill="none" points="368.464,129.834 368.464,27.5637" stroke="#191919" stroke-dasharray="1,3,1,3,1,3,1,3" stroke-linecap="butt" stroke-linejoin="miter" stroke-opacity="0.25" stroke-width="0.5"/>
   <polyline fill="none" points="373.997,129.834 373.997,27.5637" stroke="#191919" stroke-dasharray="1,3,1,3,1,3,1,3" stroke-linecap="butt" stroke-linejoin="miter" stroke-opacity="0.25" stroke-width="0.5"/>
   <polyline fill="none" points="54.4343,129.834 54.4343,27.5637" stroke="#262626" stroke-dasharray="16,0" stroke-linecap="butt" stroke-linejoin="miter" stroke-opacity="0.15" stroke-width="0.5"/>
   <polyline fill="none" points="162.605,129.834 162.605,27.5637" stroke="#262626" stroke-dasharray="16,0" stroke-linecap="butt" stroke-linejoin="miter" stroke-opacity="0.15" stroke-width="0.5"/>
   <polyline fill="none" points="270.776,129.834 270.776,27.5637" stroke="#262626" stroke-dasharray="16,0" stroke-linecap="butt" stroke-linejoin="miter" stroke-opacity="0.15" stroke-width="0.5"/>
   <polyline fill="none" points="378.946,129.834 378.946,27.5637" stroke="#262626" stroke-dasharray="16,0" stroke-linecap="butt" stroke-linejoin="miter" stroke-opacity="0.15" stroke-width="0.5"/>
   <polyline fill="none" points="86.9969,129.834 86.9969,128.208" stroke="#262626" stroke-linecap="butt" stroke-linejoin="miter" stroke-width="0.5"/>
   <polyline fill="none" points="86.9969,27.5637 86.9969,29.1905" stroke="#262626" stroke-linecap="butt" stroke-linejoin="miter" stroke-width="0.5"/>
   <polyline fill="none" points="106.045,129.834 106.045,128.208" stroke="#262626" stroke-linecap="butt" stroke-linejoin="miter" stroke-width="0.5"/>
   <polyline fill="none" points="106.045,27.5637 106.045,29.1905" stroke="#262626" stroke-linecap="butt" stroke-linejoin="miter" stroke-width="0.5"/>
   <polyline fill="none" points="119.56,129.834 119.56,128.208" stroke="#262626" stroke-linecap="butt" stroke-linejoin="miter" stroke-width="0.5"/>
   <polyline fill="none" points="119.56,27.5637 119.56,29.1905" stroke="#262626" stroke-linecap="butt" stroke-linejoin="miter" stroke-width="0.5"/>
   <polyline fill="none" points="130.042,129.834 130.042,128.208" stroke="#262626" stroke-linecap="butt" stroke-linejoin="miter" stroke-width="0.5"/>
   <polyline fill="none" points="130.042,27.5637 130.042,29.1905" stroke="#262626" stroke-linecap="butt" stroke-linejoin="miter" stroke-width="0.5"/>
   <polyline fill="none" points="138.607,129.834 138.607,128.208" stroke="#262626" stroke-linecap="butt" stroke-linejoin="miter" stroke-width="0.5"/>
   <polyline fill="none" points="138.607,27.5637 138.607,29.1905" stroke="#262626" stroke-linecap="butt" stroke-linejoin="miter" stroke-width="0.5"/>
   <polyline fill="none" points="145.849,129.834 145.849,128.208" stroke="#262626" stroke-linecap="butt" stroke-linejoin="miter" stroke-width="0.5"/>
   <polyline fill="none" points="145.849,27.5637 145.849,29.1905" stroke="#262626" stroke-linecap="butt" stroke-linejoin="miter" stroke-width="0.5"/>
   <polyline fill="none" points="152.122,129.834 152.122,128.208" stroke="#262626" stroke-linecap="butt" stroke-linejoin="miter" stroke-width="0.5"/>
   <polyline fill="none" points="152.122,27.5637 152.122,29.1905" stroke="#262626" stroke-linecap="butt" stroke-linejoin="miter" stroke-width="0.5"/>
   <polyline fill="none" points="157.655,129.834 157.655,128.208" stroke="#262626" stroke-linecap="butt" stroke-linejoin="miter" stroke-width="0.5"/>
   <polyline fill="none" points="157.655,27.5637 157.655,29.1905" stroke="#262626" stroke-linecap="butt" stroke-linejoin="miter" stroke-width="0.5"/>
   <polyline fill="none" points="195.168,129.834 195.168,128.208" stroke="#262626" stroke-linecap="butt" stroke-linejoin="miter" stroke-width="0.5"/>
   <polyline fill="none" points="195.168,27.5637 195.168,29.1905" stroke="#262626" stroke-linecap="butt" stroke-linejoin="miter" stroke-width="0.5"/>
   <polyline fill="none" points="214.216,129.834 214.216,128.208" stroke="#262626" stroke-linecap="butt" stroke-linejoin="miter" stroke-width="0.5"/>
   <polyline fill="none" points="214.216,27.5637 214.216,29.1905" stroke="#262626" stroke-linecap="butt" stroke-linejoin="miter" stroke-width="0.5"/>
   <polyline fill="none" points="227.73,129.834 227.73,128.208" stroke="#262626" stroke-linecap="butt" stroke-linejoin="miter" stroke-width="0.5"/>
   <polyline fill="none" points="227.73,27.5637 227.73,29.1905" stroke="#262626" stroke-linecap="butt" stroke-linejoin="miter" stroke-width="0.5"/>
   <polyline fill="none" points="238.213,129.834 238.213,128.208" stroke="#262626" stroke-linecap="butt" stroke-linejoin="miter" stroke-width="0.5"/>
   <polyline fill="none" points="238.213,27.5637 238.213,29.1905" stroke="#262626" stroke-linecap="butt" stroke-linejoin="miter" stroke-width="0.5"/>
   <polyline fill="none" points="246.778,129.834 246.778,128.208" stroke="#262626" stroke-linecap="butt" stroke-linejoin="miter" stroke-width="0.5"/>
   <polyline fill="none" points="246.778,27.5637 246.778,29.1905" stroke="#262626" stroke-linecap="butt" stroke-linejoin="miter" stroke-width="0.5"/>
   <polyline fill="none" points="254.02,129.834 254.02,128.208" stroke="#262626" stroke-linecap="butt" stroke-linejoin="miter" stroke-width="0.5"/>
   <polyline fill="none" points="254.02,27.5637 254.02,29.1905" stroke="#262626" stroke-linecap="butt" stroke-linejoin="miter" stroke-width="0.5"/>
   <polyline fill="none" points="260.293,129.834 260.293,128.208" stroke="#262626" stroke-linecap="butt" stroke-linejoin="miter" stroke-width="0.5"/>
   <polyline fill="none" points="260.293,27.5637 260.293,29.1905" stroke="#262626" stroke-linecap="butt" stroke-linejoin="miter" stroke-width="0.5"/>
   <polyline fill="none" points="265.826,129.834 265.826,128.208" stroke="#262626" stroke-linecap="butt" stroke-linejoin="miter" stroke-width="0.5"/>
   <polyline fill="none" points="265.826,27.5637 265.826,29.1905" stroke="#262626" stroke-linecap="butt" stroke-linejoin="miter" stroke-width="0.5"/>
   <polyline fill="none" points="303.338,129.834 303.338,128.208" stroke="#262626" stroke-linecap="butt" stroke-linejoin="miter" stroke-width="0.5"/>
   <polyline fill="none" points="303.338,27.5637 303.338,29.1905" stroke="#262626" stroke-linecap="butt" stroke-linejoin="miter" stroke-width="0.5"/>
   <polyline fill="none" points="322.386,129.834 322.386,128.208" stroke="#262626" stroke-linecap="butt" stroke-linejoin="miter" stroke-width="0.5"/>
   <polyline fill="none" points="322.386,27.5637 322.386,29.1905" stroke="#262626" stroke-linecap="butt" stroke-linejoin="miter" stroke-width="0.5"/>
   <polyline fill="none" points="335.901,129.834 335.901,128.208" stroke="#262626" stroke-linecap="butt" stroke-linejoin="miter" stroke-width="0.5"/>
   <polyline fill="none" points="335.901,27.5637 335.901,29.1905" stroke="#262626" stroke-linecap="butt" stroke-linejoin="miter" stroke-width="0.5"/>
   <polyline fill="none" points="346.384,129.834 346.384,128.208" stroke="#262626" stroke-linecap="butt" stroke-linejoin="miter" stroke-width="0.5"/>
   <polyline fill="none" points="346.384,27.5637 346.384,29.1905" stroke="#262626" stroke-linecap="butt" stroke-linejoin="miter" stroke-width="0.5"/>
   <polyline fill="none" points="354.949,129.834 354.949,128.208" stroke="#262626" stroke-linecap="butt" stroke-linejoin="miter" stroke-width="0.5"/>
   <polyline fill="none" points="354.949,27.5637 354.949,29.1905" stroke="#262626" stroke-linecap="butt" stroke-linejoin="miter" stroke-width="0.5"/>
   <polyline fill="none" points="362.191,129.834 362.191,128.208" stroke="#262626" stroke-linecap="butt" stroke-linejoin="miter" stroke-width="0.5"/>
   <polyline fill="none" points="362.191,27.5637 362.191,29.1905" stroke="#262626" stroke-linecap="butt" stroke-linejoin="miter" stroke-width="0.5"/>
   <polyline fill="none" points="368.464,129.834 368.464,128.208" stroke="#262626" stroke-linecap="butt" stroke-linejoin="miter" stroke-width="0.5"/>
   <polyline fill="none" points="368.464,27.5637 368.464,29.1905" stroke="#262626" stroke-linecap="butt" stroke-linejoin="miter" stroke-width="0.5"/>
   <polyline fill="none" points="373.997,129.834 373.997,128.208" stroke="#262626" stroke-linecap="butt" stroke-linejoin="miter" stroke-width="0.5"/>
   <polyline fill="none" points="373.997,27.5637 373.997,29.1905" stroke="#262626" stroke-linecap="butt" stroke-linejoin="miter" stroke-width="0.5"/>
   <polyline fill="none" points="54.4343,129.834 54.4343,126.581" stroke="#262626" stroke-linecap="butt" stroke-linejoin="miter" stroke-width="0.5"/>
   <polyline fill="none" points="54.4343,27.5637 54.4343,30.8174" stroke="#262626" stroke-linecap="butt" stroke-linejoin="miter" stroke-width="0.5"/>
   <polyline fill="none" points="162.605,129.834 162.605,126.581" stroke="#262626" stroke-linecap="butt" stroke-linejoin="miter" stroke-width="0.5"/>
   <polyline fill="none" points="162.605,27.5637 162.605,30.8174" stroke="#262626" stroke-linecap="butt" stroke-linejoin="miter" stroke-width="0.5"/>
   <polyline fill="none" points="270.776,129.834 270.776,126.581" stroke="#262626" stroke-linecap="butt" stroke-linejoin="miter" stroke-width="0.5"/>
   <polyline fill="none" points="270.776,27.5637 270.776,30.8174" stroke="#262626" stroke-linecap="butt" stroke-linejoin="miter" stroke-width="0.5"/>
   <polyline fill="none" points="378.946,129.834 378.946,126.581" stroke="#262626" stroke-linecap="butt" stroke-linejoin="miter" stroke-width="0.5"/>
   <polyline fill="none" points="378.946,27.5637 378.946,30.8174" stroke="#262626" stroke-linecap="butt" stroke-linejoin="miter" stroke-width="0.5"/>
   <g font-family="FreeSans" font-size="10" font-style="normal" font-weight="normal" transform="translate(45.4343,147.354) rotate(-0,9,-10)" xml:space="preserve">
    <text fill="rgb(38,38,38)" x="0 6 " y="-0">10</text>
    <text fill="rgb(38,38,38)" font-size="7" x="12 14 " y="-4">-2</text>
   </g>
   <g font-family="FreeSans" font-size="10" font-style="normal" font-weight="normal" transform="translate(153.605,147.354) rotate(-0,9,-10)" xml:space="preserve">
    <text fill="rgb(38,38,38)" x="0 6 " y="-0">10</text>
    <text fill="rgb(38,38,38)" font-size="7" x="12 14 " y="-4">-1</text>
   </g>
   <g font-family="FreeSans" font-size="10" font-style="normal" font-weight="normal" transform="translate(262.776,147.354) rotate(-0,8,-10)" xml:space="preserve">
    <text fill="rgb(38,38,38)" x="0 6 " y="-0">10</text>
    <text fill="rgb(38,38,38)" font-size="7" x="12 " y="-4">0</text>
   </g>
   <g font-family="FreeSans" font-size="10" font-style="normal" font-weight="normal" transform="translate(370.946,147.354) rotate(-0,8,-10)" xml:space="preserve">
    <text fill="rgb(38,38,38)" x="0 6 " y="-0">10</text>
    <text fill="rgb(38,38,38)" font-size="7" x="12 " y="-4">1</text>
   </g>
   <polyline fill="none" points="54.4343,125.321 378.946,125.321" stroke="#262626" stroke-dasharray="16,0" stroke-linecap="butt" stroke-linejoin="miter" stroke-opacity="0.15" stroke-width="0.5"/>
   <polyline fill="none" points="54.4343,109.814 378.946,109.814" stroke="#262626" stroke-dasharray="16,0" stroke-linecap="butt" stroke-linejoin="miter" stroke-opacity="0.15" stroke-width="0.5"/>
   <polyline fill="none" points="54.4343,94.3076 378.946,94.3076" stroke="#262626" stroke-dasharray="16,0" stroke-linecap="butt" stroke-linejoin="miter" stroke-opacity="0.15" stroke-width="0.5"/>
   <polyline fill="none" points="54.4343,78.8009 378.946,78.8009" stroke="#262626" stroke-dasharray="16,0" stroke-linecap="butt" stroke-linejoin="miter" stroke-opacity="0.15" stroke-width="0.5"/>
   <polyline fill="none" points="54.4343,63.2941 378.946,63.2941" stroke="#262626" stroke-dasharray="16,0" stroke-linecap="butt" stroke-linejoin="miter" stroke-opacity="0.15" stroke-width="0.5"/>
   <polyline fill="none" points="54.4343,47.7874 378.946,47.7874" stroke="#262626" stroke-dasharray="16,0" stroke-linecap="butt" stroke-linejoin="miter" stroke-opacity="0.15" stroke-width="0.5"/>
   <polyline fill="none" points="54.4343,32.2807 378.946,32.2807" stroke="#262626" stroke-dasharray="16,0" stroke-linecap="butt" stroke-linejoin="miter" stroke-opacity="0.15" stroke-width="0.5"/>
   <polyline fill="none" points="54.4343,125.321 57.6745,125.321" stroke="#262626" stroke-linecap="butt" stroke-linejoin="miter" stroke-width="0.5"/>
   <polyline fill="none" points="378.946,125.321 375.706,125.321" stroke="#262626" stroke-linecap="butt" stroke-linejoin="miter" stroke-width="0.5"/>
   <polyline fill="none" points="54.4343,109.814 57.6745,109.814" stroke="#262626" stroke-linecap="butt" stroke-linejoin="miter" stroke-width="0.5"/>
   <polyline fill="none" points="378.946,109.814 375.706,109.814" stroke="#262626" stroke-linecap="butt" stroke-linejoin="miter" stroke-width="0.5"/>
   <polyline fill="none" points="54.4343,94.3076 57.6745,94.3076" stroke="#262626" stroke-linecap="butt" stroke-linejoin="miter" stroke-width="0.5"/>
   <polyline fill="none" points="378.946,94.3076 375.706,94.3076" stroke="#262626" stroke-linecap="butt" stroke-linejoin="miter" stroke-width="0.5"/>
   <polyline fill="none" points="54.4343,78.8009 57.6745,78.8009" stroke="#262626" stroke-linecap="butt" stroke-linejoin="miter" stroke-width="0.5"/>
   <polyline fill="none" points="378.946,78.8009 375.706,78.8009" stroke="#262626" stroke-linecap="butt" stroke-linejoin="miter" stroke-width="0.5"/>
   <polyline fill="none" points="54.4343,63.2941 57.6745,63.2941" stroke="#262626" stroke-linecap="butt" stroke-linejoin="miter" stroke-width="0.5"/>
   <polyline fill="none" points="378.946,63.2941 375.706,63.2941" stroke="#262626" stroke-linecap="butt" stroke-linejoin="miter" stroke-width="0.5"/>
   <polyline fill="none" points="54.4343,47.7874 57.6745,47.7874" stroke="#262626" stroke-linecap="butt" stroke-linejoin="miter" stroke-width="0.5"/>
   <polyline fill="none" points="378.946,47.7874 375.706,47.7874" stroke="#262626" stroke-linecap="butt" stroke-linejoin="miter" stroke-width="0.5"/>
   <polyline fill="none" points="54.4343,32.2807 57.6745,32.2807" stroke="#262626" stroke-linecap="butt" stroke-linejoin="miter" stroke-width="0.5"/>
   <polyline fill="none" points="378.946,32.2807 375.706,32.2807" stroke="#262626" stroke-linecap="butt" stroke-linejoin="miter" stroke-width="0.5"/>
   <g font-family="FreeSans" font-size="10" font-style="normal" font-weight="normal" transform="translate(34.4418,129.321) rotate(-0,15,-4)" xml:space="preserve">
    <text fill="rgb(38,38,38)" x="0 3 9 " y="-0">-20</text>
   </g>
   <g font-family="FreeSans" font-size="10" font-style="normal" font-weight="normal" transform="translate(34.4418,113.814) rotate(-0,15,-4)" xml:space="preserve">
    <text fill="rgb(38,38,38)" x="0 3 9 " y="-0">-10</text>
   </g>
   <g font-family="FreeSans" font-size="10" font-style="normal" font-weight="normal" transform="translate(43.4418,98.3076) rotate(-0,6,-4)" xml:space="preserve">
    <text fill="rgb(38,38,38)" x="0 " y="-0">0</text>
   </g>
   <g font-family="FreeSans" font-size="10" font-style="normal" font-weight="normal" transform="translate(37.4418,82.8009) rotate(-0,12,-4)" xml:space="preserve">
    <text fill="rgb(38,38,38)" x="0 6 " y="-0">10</text>
   </g>
   <g font-family="FreeSans" font-size="10" font-style="normal" font-weight="normal" transform="translate(37.4418,67.2941) rotate(-0,12,-4)" xml:space="preserve">
    <text fill="rgb(38,38,38)" x="0 6 " y="-0">20</text>
   </g>
   <g font-family="FreeSans" font-size="10" font-style="normal" font-weight="normal" transform="translate(37.4418,51.7874) rotate(-0,12,-4)" xml:space="preserve">
    <text fill="rgb(38,38,38)" x="0 6 " y="-0">30</text>
   </g>
   <g font-family="FreeSans" font-size="10" font-style="normal" font-weight="normal" transform="translate(37.4418,36.2807) rotate(-0,12,-4)" xml:space="preserve">
    <text fill="rgb(38,38,38)" x="0 6 " y="-0">40</text>
   </g>
   <polyline fill="none" points="54.4343,129.834 378.946,129.834" stroke="#262626" stroke-dasharray="16,0" stroke-linecap="square" stroke-linejoin="miter" stroke-width="0.5"/>
   <polyline fill="none" points="54.4343,27.5637 378.946,27.5637" stroke="#262626" stroke-dasharray="16,0" stroke-linecap="square" stroke-linejoin="miter" stroke-width="0.5"/>
   <polyline fill="none" points="54.4343,129.834 54.4343,27.5637" stroke="#262626" stroke-dasharray="16,0" stroke-linecap="square" stroke-linejoin="miter" stroke-width="0.5"/>
   <polyline fill="none" points="378.946,129.834 378.946,27.5637" stroke="#262626" stroke-dasharray="16,0" stroke-linecap="square" stroke-linejoin="miter" stroke-width="0.5"/>
   <g font-family="FreeSans" font-size="10" font-style="normal" font-weight="bold" transform="translate(182.19,17.5636) rotate(-0,34.5,0)" xml:space="preserve">
    <text fill="rgb(0,0,0)" x="0 7 13 19 25 28 35 38 44 50 54 60 " y="-2">Bode Diagram</text>
   </g>
   <g font-family="FreeSans" font-size="10" font-style="normal" font-weight="normal" transform="translate(-4.0582,78.699) rotate(-90,33.5,0)" xml:space="preserve">
    <text fill="rgb(38,38,38)" x="0 8 13 19 24 26 29 34 40 45 48 51 57 64 " y="-2">Magnitude [dB]</text>
   </g>
   <polyline fill="none" points="54.4343,32.2123 54.7591,32.3045 55.084,32.3967 55.4088,32.4888 55.7336,32.581 56.0585,32.6731 56.3833,32.7652 56.7081,32.8573 57.033,32.9494 57.3578,33.0415 57.6826,33.1336 58.0075,33.2256 58.3323,33.3177 58.6572,33.4097 58.982,33.5017 59.3068,33.5937 59.6317,33.6856 59.9565,33.7776 60.2813,33.8695 60.6062,33.9615 60.931,34.0533 61.2559,34.1452 61.5807,34.2371 61.9055,34.329 62.2304,34.4208 62.5552,34.5126 62.8801,34.6044 63.2049,34.6962 63.5297,34.788 63.8545,34.8797 64.1794,34.9714 64.5042,35.0631 64.8291,35.1548 65.1539,35.2465 65.4788,35.3381 65.8036,35.4298 66.1284,35.5214 66.4532,35.6129 66.7781,35.7045 67.1029,35.7961 67.4278,35.8876 67.7526,35.9791 68.0774,36.0706 68.4023,36.162 68.7271,36.2534 69.052,36.3448 69.3768,36.4362 69.7016,36.5276 70.0265,36.6189 70.3513,36.7102 70.6761,36.8015 71.001,36.8928 71.3258,36.984 71.6506,37.0752 71.9755,37.1664 72.3003,37.2576 72.6252,37.3487 72.95,37.4398 73.2748,37.5309 73.5997,37.6219 73.9245,37.713 74.2493,37.8039 74.5742,37.8949 74.899,37.9858 75.2239,38.0767 75.5487,38.1676 75.8735,38.2584 76.1983,38.3492 76.5232,38.44 76.848,38.5308 77.1729,38.6215 77.4977,38.7122 77.8225,38.8028 78.1474,38.8934 78.4722,38.984 78.7971,39.0745 79.1219,39.165 79.4467,39.2555 79.7716,39.3459 80.0964,39.4363 80.4212,39.5267 80.7461,39.617 81.0709,39.7073 81.3957,39.7976 81.7206,39.8878 82.0454,39.978 82.3703,40.0681 82.6951,40.1582 83.0199,40.2482 83.3448,40.3382 83.6696,40.4282 83.9944,40.5181 84.3193,40.608 84.6441,40.6978 84.969,40.7876 85.2938,40.8773 85.6186,40.9671 85.9435,41.0567 86.2683,41.1463 86.5931,41.2359 86.918,41.3254 87.2428,41.4149 87.5677,41.5043 87.8925,41.5937 88.2173,41.683 88.5422,41.7722 88.867,41.8615 89.1918,41.9506 89.5167,42.0397 89.8415,42.1288 90.1664,42.2178 90.4912,42.3067 90.816,42.3956 91.1409,42.4844 91.4657,42.5732 91.7905,42.6619 92.1154,42.7506 92.4402,42.8392 92.765,42.9277 93.0899,43.0162 93.4147,43.1046 93.7395,43.193 94.0644,43.2812 94.3892,43.3695 94.7141,43.4576 95.0389,43.5457 95.3637,43.6338 95.6886,43.7217 96.0134,43.8096 96.3383,43.8975 96.6631,43.9852 96.9879,44.0729 97.3128,44.1605 97.6376,44.248 97.9624,44.3355 98.2873,44.4229 98.6121,44.5102 98.9369,44.5974 99.2618,44.6846 99.5866,44.7717 99.9115,44.8587 100.236,44.9456 100.561,45.0325 100.886,45.1193 101.211,45.2059 101.536,45.2925 101.86,45.3791 102.185,45.4655 102.51,45.5518 102.835,45.6381 103.16,45.7242 103.485,45.8103 103.809,45.8963 104.134,45.9822 104.459,46.068 104.784,46.1537 105.109,46.2393 105.434,46.3248 105.759,46.4102 106.083,46.4955 106.408,46.5807 106.733,46.6659 107.058,46.7509 107.383,46.8358 107.708,46.9206 108.032,47.0053 108.357,47.0899 108.682,47.1743 109.007,47.2587 109.332,47.343 109.657,47.4271 109.981,47.5112 110.306,47.5951 110.631,47.6789 110.956,47.7626 111.281,47.8462 111.606,47.9296 111.93,48.0129 112.255,48.0961 112.58,48.1792 112.905,48.2622 113.23,48.345 113.555,48.4277 113.879,48.5103 114.204,48.5927 114.529,48.675 114.854,48.7572 115.179,48.8392 115.504,48.9211 115.828,49.0029 116.153,49.0845 116.478,49.166 116.803,49.2473 117.128,49.3285 117.453,49.4096 117.777,49.4905 118.102,49.5713 118.427,49.6519 118.752,49.7323 119.077,49.8126 119.402,49.8927 119.727,49.9727 120.051,50.0526 120.376,50.1322 120.701,50.2118 121.026,50.2911 121.351,50.3703 121.676,50.4493 122,50.5281 122.325,50.6068 122.65,50.6853 122.975,50.7637 123.3,50.8418 123.625,50.9198 123.949,50.9976 124.274,51.0752 124.599,51.1527 124.924,51.2299 125.249,51.307 125.574,51.3839 125.898,51.4606 126.223,51.5371 126.548,51.6134 126.873,51.6896 127.198,51.7655 127.523,51.8412 127.847,51.9168 128.172,51.9921 128.497,52.0673 128.822,52.1422 129.147,52.2169 129.472,52.2914 129.796,52.3657 130.121,52.4398 130.446,52.5137 130.771,52.5874 131.096,52.6608 131.421,52.7341 131.745,52.8071 132.07,52.8799 132.395,52.9525 132.72,53.0248 133.045,53.0969 133.37,53.1688 133.695,53.2404 134.019,53.3119 134.344,53.3831 134.669,53.454 134.994,53.5247 135.319,53.5952 135.644,53.6654 135.968,53.7354 136.293,53.8051 136.618,53.8746 136.943,53.9439 137.268,54.0129 137.593,54.0816 137.917,54.1501 138.242,54.2184 138.567,54.2863 138.892,54.354 139.217,54.4215 139.542,54.4886 139.866,54.5556 140.191,54.6223 140.516,54.6886 140.841,54.7547 141.166,54.8206 141.491,54.8862 141.815,54.9515 142.14,55.0165 142.465,55.0812 142.79,55.1457 143.115,55.2099 143.44,55.2738 143.764,55.3374 144.089,55.4007 144.414,55.4637 144.739,55.5265 145.064,55.5889 145.389,55.6511 145.713,55.713 146.038,55.7745 146.363,55.8358 146.688,55.8968 147.013,55.9574 147.338,56.0178 147.662,56.0779 147.987,56.1376 148.312,56.1971 148.637,56.2562 148.962,56.3151 149.287,56.3736 149.611,56.4318 149.936,56.4897 150.261,56.5473 150.586,56.6046 150.911,56.6615 151.236,56.7181 151.561,56.7744 151.885,56.8304 152.21,56.8861 152.535,56.9414 152.86,56.9965 153.185,57.0511 153.51,57.1055 153.834,57.1596 154.159,57.2133 154.484,57.2667 154.809,57.3197 155.134,57.3724 155.459,57.4248 155.783,57.4769 156.108,57.5286 156.433,57.58 156.758,57.631 157.083,57.6817 157.408,57.7321 157.732,57.7821 158.057,57.8318 158.382,57.8812 158.707,57.9302 159.032,57.9789 159.357,58.0272 159.681,58.0752 160.006,58.1228 160.331,58.1701 160.656,58.217 160.981,58.2636 161.306,58.3099 161.63,58.3558 161.955,58.4014 162.28,58.4466 162.605,58.4915 162.93,58.536 163.255,58.5802 163.579,58.624 163.904,58.6674 164.229,58.7106 164.554,58.7533 164.879,58.7958 165.204,58.8378 165.529,58.8796 165.853,58.9209 166.178,58.962 166.503,59.0026 166.828,59.043 167.153,59.0829 167.478,59.1226 167.802,59.1618 168.127,59.2007 168.452,59.2393 168.777,59.2775 169.102,59.3154 169.427,59.3529 169.751,59.3901 170.076,59.4269 170.401,59.4634 170.726,59.4995 171.051,59.5352 171.376,59.5707 171.7,59.6057 172.025,59.6405 172.35,59.6748 172.675,59.7088 173,59.7425 173.325,59.7758 173.649,59.8088 173.974,59.8414 174.299,59.8737 174.624,59.9057 174.949,59.9372 175.274,59.9685 175.598,59.9994 175.923,60.03 176.248,60.0602 176.573,60.09 176.898,60.1196 177.223,60.1487 177.547,60.1776 177.872,60.2061 178.197,60.2342 178.522,60.262 178.847,60.2895 179.172,60.3167 179.497,60.3434 179.821,60.3699 180.146,60.396 180.471,60.4218 180.796,60.4473 181.121,60.4724 181.446,60.4971 181.77,60.5216 182.095,60.5457 182.42,60.5694 182.745,60.5929 183.07,60.616 183.395,60.6387 183.719,60.6612 184.044,60.6833 184.369,60.7051 184.694,60.7265 185.019,60.7477 185.344,60.7684 185.668,60.7889 185.993,60.809 186.318,60.8288 186.643,60.8483 186.968,60.8675 187.293,60.8863 187.617,60.9048 187.942,60.923 188.267,60.9409 188.592,60.9584 188.917,60.9756 189.242,60.9925 189.566,61.0091 189.891,61.0253 190.216,61.0412 190.541,61.0568 190.866,61.0721 191.191,61.0871 191.515,61.1017 191.84,61.1161 192.165,61.1301 192.49,61.1438 192.815,61.1571 193.14,61.1702 193.464,61.1829 193.789,61.1953 194.114,61.2074 194.439,61.2192 194.764,61.2307 195.089,61.2418 195.414,61.2526 195.738,61.2631 196.063,61.2733 196.388,61.2832 196.713,61.2928 197.038,61.302 197.363,61.3109 197.687,61.3195 198.012,61.3278 198.337,61.3358 198.662,61.3435 198.987,61.3508 199.312,61.3578 199.636,61.3645 199.961,61.3709 200.286,61.3769 200.611,61.3827 200.936,61.3881 201.261,61.3932 201.585,61.3979 201.91,61.4024 202.235,61.4065 202.56,61.4103 202.885,61.4138 203.21,61.417 203.534,61.4198 203.859,61.4223 204.184,61.4245 204.509,61.4263 204.834,61.4278 205.159,61.429 205.483,61.4298 205.808,61.4303 206.133,61.4305 206.458,61.4303 206.783,61.4298 207.108,61.429 207.432,61.4278 207.757,61.4263 208.082,61.4244 208.407,61.4222 208.732,61.4196 209.057,61.4167 209.382,61.4134 209.706,61.4098 210.031,61.4058 210.356,61.4015 210.681,61.3968 211.006,61.3917 211.331,61.3863 211.655,61.3805 211.98,61.3743 212.305,61.3678 212.63,61.3609 212.955,61.3536 213.28,61.3459 213.604,61.3378 213.929,61.3294 214.254,61.3206 214.579,61.3113 214.904,61.3017 215.229,61.2917 215.553,61.2812 215.878,61.2704 216.203,61.2591 216.528,61.2475 216.853,61.2354 217.178,61.2229 217.502,61.2099 217.827,61.1965 218.152,61.1827 218.477,61.1685 218.802,61.1538 219.127,61.1386 219.451,61.123 219.776,61.107 220.101,61.0904 220.426,61.0734 220.751,61.056 221.076,61.038 221.4,61.0195 221.725,61.0006 222.05,60.9811 222.375,60.9612 222.7,60.9407 223.025,60.9197 223.349,60.8982 223.674,60.8762 223.999,60.8536 224.324,60.8304 224.649,60.8067 224.974,60.7825 225.299,60.7576 225.623,60.7322 225.948,60.7062 226.273,60.6796 226.598,60.6525 226.923,60.6246 227.248,60.5962 227.572,60.5671 227.897,60.5374 228.222,60.507 228.547,60.476 228.872,60.4443 229.197,60.4119 229.521,60.3788 229.846,60.345 230.171,60.3104 230.496,60.2752 230.821,60.2392 231.146,60.2024 231.47,60.1649 231.795,60.1266 232.12,60.0875 232.445,60.0475 232.77,60.0068 233.095,59.9652 233.419,59.9227 233.744,59.8794 234.069,59.8352 234.394,59.7901 234.719,59.744 235.044,59.6971 235.368,59.6491 235.693,59.6002 236.018,59.5502 236.343,59.4993 236.668,59.4473 236.993,59.3943 237.317,59.3401 237.642,59.2849 237.967,59.2285 238.292,59.171 238.617,59.1123 238.942,59.0524 239.266,58.9913 239.591,58.9289 239.916,58.8652 240.241,58.8002 240.566,58.7339 240.891,58.6662 241.216,58.5971 241.54,58.5265 241.865,58.4545 242.19,58.381 242.515,58.3059 242.84,58.2292 243.165,58.1509 243.489,58.071 243.814,57.9893 244.139,57.9059 244.464,57.8207 244.789,57.7337 245.114,57.6447 245.438,57.5539 245.763,57.4611 246.088,57.3661 246.413,57.2692 246.738,57.17 247.063,57.0686 247.387,56.965 247.712,56.8589 248.037,56.7505 248.362,56.6396 248.687,56.5261 249.012,56.41 249.336,56.2911 249.661,56.1695 249.986,56.045 250.311,55.9174 250.636,55.7868 250.961,55.653 251.285,55.5159 251.61,55.3753 251.935,55.2313 252.26,55.0836 252.585,54.9322 252.91,54.7769 253.234,54.6175 253.559,54.4539 253.884,54.286 254.209,54.1135 254.534,53.9364 254.859,53.7543 255.184,53.5673 255.508,53.3749 255.833,53.177 256.158,52.9734 256.483,52.7639 256.808,52.5481 257.133,52.3257 257.457,52.0966 257.782,51.8604 258.107,51.6168 258.432,51.3653 258.757,51.1057 259.082,50.8374 259.406,50.5602 259.731,50.2734 260.056,49.9767 260.381,49.6694 260.706,49.351 261.031,49.0209 261.355,48.6784 261.68,48.3227 262.005,47.9532 262.33,47.5689 262.655,47.169 262.98,46.7525 263.304,46.3182 263.629,45.8652 263.954,45.3922 264.279,44.8978 264.604,44.3807 264.929,43.8395 265.253,43.2727 265.578,42.6787 265.903,42.056 266.228,41.4034 266.553,40.7195 266.878,40.0039 267.202,39.2566 267.527,38.4788 267.852,37.6737 268.177,36.8475 268.502,36.0104 268.827,35.1785 269.151,34.3758 269.476,33.6357 269.801,33.0011 270.126,32.522 270.451,32.2472 270.776,32.2137 271.101,32.4353 271.425,32.8982 271.75,33.5655 272.075,34.3881 272.4,35.3163 272.725,36.3072 273.05,37.3272 273.374,38.3524 273.699,39.3668 274.024,40.3599 274.349,41.3258 274.674,42.2614 274.999,43.1651 275.323,44.0371 275.648,44.8779 275.973,45.6887 276.298,46.4709 276.623,47.2259 276.948,47.9553 277.272,48.6605 277.597,49.343 277.922,50.0043 278.247,50.6455 278.572,51.2679 278.897,51.8727 279.221,52.4608 279.546,53.0333 279.871,53.5911 280.196,54.135 280.521,54.6658 280.846,55.1841 281.17,55.6908 281.495,56.1864 281.82,56.6714 282.145,57.1465 282.47,57.6121 282.795,58.0687 283.119,58.5167 283.444,58.9565 283.769,59.3886 284.094,59.8132 284.419,60.2307 284.744,60.6414 285.069,61.0457 285.393,61.4437 285.718,61.8358 286.043,62.2221 286.368,62.603 286.693,62.9786 287.018,63.3492 287.342,63.7149 287.667,64.076 287.992,64.4325 288.317,64.7847 288.642,65.1327 288.967,65.4767 289.291,65.8168 289.616,66.1532 289.941,66.486 290.266,66.8152 290.591,67.1411 290.916,67.4637 291.24,67.7831 291.565,68.0995 291.89,68.4129 292.215,68.7235 292.54,69.0313 292.865,69.3363 293.189,69.6388 293.514,69.9387 293.839,70.2361 294.164,70.5312 294.489,70.8239 294.814,71.1144 295.138,71.4027 295.463,71.6889 295.788,71.973 296.113,72.2551 296.438,72.5352 296.763,72.8134 297.087,73.0898 297.412,73.3643 297.737,73.6371 298.062,73.9082 298.387,74.1776 298.712,74.4454 299.036,74.7115 299.361,74.9762 299.686,75.2393 300.011,75.501 300.336,75.7612 300.661,76.0201 300.986,76.2775 301.31,76.5337 301.635,76.7885 301.96,77.042 302.285,77.2943 302.61,77.5454 302.935,77.7953 303.259,78.0441 303.584,78.2917 303.909,78.5382 304.234,78.7836 304.559,79.028 304.884,79.2713 305.208,79.5136 305.533,79.755 305.858,79.9953 306.183,80.2347 306.508,80.4732 306.833,80.7107 307.157,80.9474 307.482,81.1832 307.807,81.4182 308.132,81.6523 308.457,81.8856 308.782,82.118 309.106,82.3497 309.431,82.5807 309.756,82.8109 310.081,83.0403 310.406,83.269 310.731,83.497 311.055,83.7243 311.38,83.9509 311.705,84.1769 312.03,84.4022 312.355,84.6268 312.68,84.8509 313.004,85.0743 313.329,85.2971 313.654,85.5193 313.979,85.7409 314.304,85.9619 314.629,86.1824 314.953,86.4023 315.278,86.6217 315.603,86.8405 315.928,87.0589 316.253,87.2767 316.578,87.494 316.903,87.7108 317.227,87.9271 317.552,88.143 317.877,88.3584 318.202,88.5733 318.527,88.7878 318.852,89.0018 319.176,89.2154 319.501,89.4285 319.826,89.6413 320.151,89.8536 320.476,90.0655 320.801,90.277 321.125,90.4882 321.45,90.6989 321.775,90.9093 322.1,91.1193 322.425,91.3289 322.75,91.5382 323.074,91.7471 323.399,91.9557 323.724,92.1639 324.049,92.3718 324.374,92.5793 324.699,92.7866 325.023,92.9935 325.348,93.2001 325.673,93.4064 325.998,93.6124 326.323,93.8181 326.648,94.0235 326.972,94.2286 327.297,94.4334 327.622,94.6379 327.947,94.8422 328.272,95.0462 328.597,95.25 328.922,95.4534 329.246,95.6566 329.571,95.8596 329.896,96.0623 330.221,96.2648 330.546,96.467 330.871,96.669 331.195,96.8708 331.52,97.0723 331.845,97.2736 332.17,97.4747 332.495,97.6755 332.82,97.8762 333.144,98.0766 333.469,98.2768 333.794,98.4768 334.119,98.6767 334.444,98.8763 334.769,99.0757 335.093,99.2749 335.418,99.474 335.743,99.6728 336.068,99.8715 336.393,100.07 336.718,100.268 337.042,100.466 337.367,100.664 337.692,100.862 338.017,101.06 338.342,101.257 338.667,101.454 338.991,101.652 339.316,101.849 339.641,102.045 339.966,102.242 340.291,102.439 340.616,102.635 340.94,102.831 341.265,103.027 341.59,103.223 341.915,103.419 342.24,103.615 342.565,103.81 342.889,104.006 343.214,104.201 343.539,104.396 343.864,104.591 344.189,104.786 344.514,104.981 344.839,105.175 345.163,105.37 345.488,105.564 345.813,105.758 346.138,105.953 346.463,106.147 346.788,106.341 347.112,106.534 347.437,106.728 347.762,106.922 348.087,107.115 348.412,107.309 348.737,107.502 349.061,107.695 349.386,107.888 349.711,108.081 350.036,108.274 350.361,108.467 350.686,108.66 351.01,108.852 351.335,109.045 351.66,109.237 351.985,109.43 352.31,109.622 352.635,109.814 352.959,110.006 353.284,110.198 353.609,110.39 353.934,110.582 354.259,110.774 354.584,110.966 354.908,111.157 355.233,111.349 355.558,111.54 355.883,111.732 356.208,111.923 356.533,112.114 356.857,112.306 357.182,112.497 357.507,112.688 357.832,112.879 358.157,113.07 358.482,113.261 358.806,113.451 359.131,113.642 359.456,113.833 359.781,114.023 360.106,114.214 360.431,114.404 360.756,114.595 361.08,114.785 361.405,114.975 361.73,115.166 362.055,115.356 362.38,115.546 362.705,115.736 363.029,115.926 363.354,116.116 363.679,116.306 364.004,116.496 364.329,116.686 364.654,116.876 364.978,117.065 365.303,117.255 365.628,117.445 365.953,117.634 366.278,117.824 366.603,118.013 366.927,118.203 367.252,118.392 367.577,118.581 367.902,118.771 368.227,118.96 368.552,119.149 368.876,119.338 369.201,119.528 369.526,119.717 369.851,119.906 370.176,120.095 370.501,120.284 370.825,120.473 371.15,120.662 371.475,120.851 371.8,121.039 372.125,121.228 372.45,121.417 372.774,121.606 373.099,121.794 373.424,121.983 373.749,122.172 374.074,122.36 374.399,122.549 374.724,122.737 375.048,122.926 375.373,123.114 375.698,123.303 376.023,123.491 376.348,123.68 376.673,123.868 376.997,124.056 377.322,124.245 377.647,124.433 377.972,124.621 378.297,124.809 378.622,124.998 378.946,125.186" stroke="#0071bc" stroke-linecap="butt" stroke-linejoin="round" stroke-width="0.5"/>
  </g>
  <clipPath id="cp00418314">
   <polygon points="0,314 418,314 418,0 0,0"/>
  </clipPath>
  <g clip-path="url(#cp00418314)">
   <polygon fill="#ffffff" points="330.894,53.5847 370.936,53.5847 370.936,35.5742 330.894,35.5742" shape-rendering="crispEdges"/>
   <polyline fill="none" points="330.894,53.5847 370.936,53.5847" stroke="#262626" stroke-dasharray="16,0" stroke-linecap="square" stroke-linejoin="miter" stroke-width="0.5"/>
   <polyline fill="none" points="330.894,35.5742 370.936,35.5742" stroke="#262626" stroke-dasharray="16,0" stroke-linecap="square" stroke-linejoin="miter" stroke-width="0.5"/>
   <polyline fill="none" points="330.894,53.5847 330.894,35.5742" stroke="#262626" stroke-dasharray="16,0" stroke-linecap="square" stroke-linejoin="miter" stroke-width="0.5"/>
   <polyline fill="none" points="370.936,53.5847 370.936,35.5742" stroke="#262626" stroke-dasharray="16,0" stroke-linecap="square" stroke-linejoin="miter" stroke-width="0.5"/>
   <polyline fill="none" points="334.899,44.5794 354.925,44.5794" stroke="#0071bc" stroke-linecap="butt" stroke-linejoin="round" stroke-width="0.5"/>
   <g font-family="FreeSans" font-size="10" font-style="normal" font-weight="normal" transform="translate(358.931,49.5794) rotate(-0,-0,-5)" xml:space="preserve">
    <text fill="rgb(0,0,0)" x="0 " y="-1">G</text>
   </g>
  </g>
  <clipPath id="cp00418314">
   <polygon points="0,314 418,314 418,0 0,0"/>
  </clipPath>
  <g clip-path="url(#cp00418314)">
   <polygon fill="#ffffff" points="54.4343,279.499 378.946,279.499 378.946,177.228 54.4343,177.228" shape-rendering="crispEdges"/>
   <polyline fill="none" points="86.9969,279.499 86.9969,177.228" stroke="#191919" stroke-dasharray="1,3,1,3,1,3,1,3" stroke-linecap="butt" stroke-linejoin="miter" stroke-opacity="0.25" stroke-width="0.5"/>
   <polyline fill="none" points="106.045,279.499 106.045,177.228" stroke="#191919" stroke-dasharray="1,3,1,3,1,3,1,3" stroke-linecap="butt" stroke-linejoin="miter" stroke-opacity="0.25" stroke-width="0.5"/>
   <polyline fill="none" points="119.56,279.499 119.56,177.228" stroke="#191919" stroke-dasharray="1,3,1,3,1,3,1,3" stroke-linecap="butt" stroke-linejoin="miter" stroke-opacity="0.25" stroke-width="0.5"/>
   <polyline fill="none" points="130.042,279.499 130.042,177.228" stroke="#191919" stroke-dasharray="1,3,1,3,1,3,1,3" stroke-linecap="butt" stroke-linejoin="miter" stroke-opacity="0.25" stroke-width="0.5"/>
   <polyline fill="none" points="138.607,279.499 138.607,177.228" stroke="#191919" stroke-dasharray="1,3,1,3,1,3,1,3" stroke-linecap="butt" stroke-linejoin="miter" stroke-opacity="0.25" stroke-width="0.5"/>
   <polyline fill="none" points="145.849,279.499 145.849,177.228" stroke="#191919" stroke-dasharray="1,3,1,3,1,3,1,3" stroke-linecap="butt" stroke-linejoin="miter" stroke-opacity="0.25" stroke-width="0.5"/>
   <polyline fill="none" points="152.122,279.499 152.122,177.228" stroke="#191919" stroke-dasharray="1,3,1,3,1,3,1,3" stroke-linecap="butt" stroke-linejoin="miter" stroke-opacity="0.25" stroke-width="0.5"/>
   <polyline fill="none" points="157.655,279.499 157.655,177.228" stroke="#191919" stroke-dasharray="1,3,1,3,1,3,1,3" stroke-linecap="butt" stroke-linejoin="miter" stroke-opacity="0.25" stroke-width="0.5"/>
   <polyline fill="none" points="195.168,279.499 195.168,177.228" stroke="#191919" stroke-dasharray="1,3,1,3,1,3,1,3" stroke-linecap="butt" stroke-linejoin="miter" stroke-opacity="0.25" stroke-width="0.5"/>
   <polyline fill="none" points="214.216,279.499 214.216,177.228" stroke="#191919" stroke-dasharray="1,3,1,3,1,3,1,3" stroke-linecap="butt" stroke-linejoin="miter" stroke-opacity="0.25" stroke-width="0.5"/>
   <polyline fill="none" points="227.73,279.499 227.73,177.228" stroke="#191919" stroke-dasharray="1,3,1,3,1,3,1,3" stroke-linecap="butt" stroke-linejoin="miter" stroke-opacity="0.25" stroke-width="0.5"/>
   <polyline fill="none" points="238.213,279.499 238.213,177.228" stroke="#191919" stroke-dasharray="1,3,1,3,1,3,1,3" stroke-linecap="butt" stroke-linejoin="miter" stroke-opacity="0.25" stroke-width="0.5"/>
   <polyline fill="none" points="246.778,279.499 246.778,177.228" stroke="#191919" stroke-dasharray="1,3,1,3,1,3,1,3" stroke-linecap="butt" stroke-linejoin="miter" stroke-opacity="0.25" stroke-width="0.5"/>
   <polyline fill="none" points="254.02,279.499 254.02,177.228" stroke="#191919" stroke-dasharray="1,3,1,3,1,3,1,3" stroke-linecap="butt" stroke-linejoin="miter" stroke-opacity="0.25" stroke-width="0.5"/>
   <polyline fill="none" points="260.293,279.499 260.293,177.228" stroke="#191919" stroke-dasharray="1,3,1,3,1,3,1,3" stroke-linecap="butt" stroke-linejoin="miter" stroke-opacity="0.25" stroke-width="0.5"/>
   <polyline fill="none" points="265.826,279.499 265.826,177.228" stroke="#191919" stroke-dasharray="1,3,1,3,1,3,1,3" stroke-linecap="butt" stroke-linejoin="miter" stroke-opacity="0.25" stroke-width="0.5"/>
   <polyline fill="none" points="303.338,279.499 303.338,177.228" stroke="#191919" stroke-dasharray="1,3,1,3,1,3,1,3" stroke-linecap="butt" stroke-linejoin="miter" stroke-opacity="0.25" stroke-width="0.5"/>
   <polyline fill="none" points="322.386,279.499 322.386,177.228" stroke="#191919" stroke-dasharray="1,3,1,3,1,3,1,3" stroke-linecap="butt" stroke-linejoin="miter" stroke-opacity="0.25" stroke-width="0.5"/>
   <polyline fill="none" points="335.901,279.499 335.901,177.228" stroke="#191919" stroke-dasharray="1,3,1,3,1,3,1,3" stroke-linecap="butt" stroke-linejoin="miter" stroke-opacity="0.25" stroke-width="0.5"/>
   <polyline fill="none" points="346.384,279.499 346.384,177.228" stroke="#191919" stroke-dasharray="1,3,1,3,1,3,1,3" stroke-linecap="butt" stroke-linejoin="miter" stroke-opacity="0.25" stroke-width="0.5"/>
   <polyline fill="none" points="354.949,279.499 354.949,177.228" stroke="#191919" stroke-dasharray="1,3,1,3,1,3,1,3" stroke-linecap="butt" stroke-linejoin="miter" stroke-opacity="0.25" stroke-width="0.5"/>
   <polyline fill="none" points="362.191,279.499 362.191,177.228" stroke="#191919" stroke-dasharray="1,3,1,3,1,3,1,3" stroke-linecap="butt" stroke-linejoin="miter" stroke-opacity="0.25" stroke-width="0.5"/>
   <polyline fill="none" points="368.464,279.499 368.464,177.228" stroke="#191919" stroke-dasharray="1,3,1,3,1,3,1,3" stroke-linecap="butt" stroke-linejoin="miter" stroke-opacity="0.25" stroke-width="0.5"/>
   <polyline fill="none" points="373.997,279.499 373.997,177.228" stroke="#191919" stroke-dasharray="1,3,1,3,1,3,1,3" stroke-linecap="butt" stroke-linejoin="miter" stroke-opacity="0.25" stroke-width="0.5"/>
   <polyline fill="none" points="54.4343,279.499 54.4343,177.228" stroke="#262626" stroke-dasharray="16,0" stroke-linecap="butt" stroke-linejoin="miter" stroke-opacity="0.15" stroke-width="0.5"/>
   <polyline fill="none" points="162.605,279.499 162.605,177.228" stroke="#262626" stroke-dasharray="16,0" stroke-linecap="butt" stroke-linejoin="miter" stroke-opacity="0.15" stroke-width="0.5"/>
   <polyline fill="none" points="270.776,279.499 270.776,177.228" stroke="#262626" stroke-dasharray="16,0" stroke-linecap="butt" stroke-linejoin="miter" stroke-opacity="0.15" stroke-width="0.5"/>
   <polyline fill="none" points="378.946,279.499 378.946,177.228" stroke="#262626" stroke-dasharray="16,0" stroke-linecap="butt" stroke-linejoin="miter" stroke-opacity="0.15" stroke-width="0.5"/>
   <polyline fill="none" points="86.9969,279.499 86.9969,277.872" stroke="#262626" stroke-linecap="butt" stroke-linejoin="miter" stroke-width="0.5"/>
   <polyline fill="none" points="86.9969,177.228 86.9969,178.855" stroke="#262626" stroke-linecap="butt" stroke-linejoin="miter" stroke-width="0.5"/>
   <polyline fill="none" points="106.045,279.499 106.045,277.872" stroke="#262626" stroke-linecap="butt" stroke-linejoin="miter" stroke-width="0.5"/>
   <polyline fill="none" points="106.045,177.228 106.045,178.855" stroke="#262626" stroke-linecap="butt" stroke-linejoin="miter" stroke-width="0.5"/>
   <polyline fill="none" points="119.56,279.499 119.56,277.872" stroke="#262626" stroke-linecap="butt" stroke-linejoin="miter" stroke-width="0.5"/>
   <polyline fill="none" points="119.56,177.228 119.56,178.855" stroke="#262626" stroke-linecap="butt" stroke-linejoin="miter" stroke-width="0.5"/>
   <polyline fill="none" points="130.042,279.499 130.042,277.872" stroke="#262626" stroke-linecap="butt" stroke-linejoin="miter" stroke-width="0.5"/>
   <polyline fill="none" points="130.042,177.228 130.042,178.855" stroke="#262626" stroke-linecap="butt" stroke-linejoin="miter" stroke-width="0.5"/>
   <polyline fill="none" points="138.607,279.499 138.607,277.872" stroke="#262626" stroke-linecap="butt" stroke-linejoin="miter" stroke-width="0.5"/>
   <polyline fill="none" points="138.607,177.228 138.607,178.855" stroke="#262626" stroke-linecap="butt" stroke-linejoin="miter" stroke-width="0.5"/>
   <polyline fill="none" points="145.849,279.499 145.849,277.872" stroke="#262626" stroke-linecap="butt" stroke-linejoin="miter" stroke-width="0.5"/>
   <polyline fill="none" points="145.849,177.228 145.849,178.855" stroke="#262626" stroke-linecap="butt" stroke-linejoin="miter" stroke-width="0.5"/>
   <polyline fill="none" points="152.122,279.499 152.122,277.872" stroke="#262626" stroke-linecap="butt" stroke-linejoin="miter" stroke-width="0.5"/>
   <polyline fill="none" points="152.122,177.228 152.122,178.855" stroke="#262626" stroke-linecap="butt" stroke-linejoin="miter" stroke-width="0.5"/>
   <polyline fill="none" points="157.655,279.499 157.655,277.872" stroke="#262626" stroke-linecap="butt" stroke-linejoin="miter" stroke-width="0.5"/>
   <polyline fill="none" points="157.655,177.228 157.655,178.855" stroke="#262626" stroke-linecap="butt" stroke-linejoin="miter" stroke-width="0.5"/>
   <polyline fill="none" points="195.168,279.499 195.168,277.872" stroke="#262626" stroke-linecap="butt" stroke-linejoin="miter" stroke-width="0.5"/>
   <polyline fill="none" points="195.168,177.228 195.168,178.855" stroke="#262626" stroke-linecap="butt" stroke-linejoin="miter" stroke-width="0.5"/>
   <polyline fill="none" points="214.216,279.499 214.216,277.872" stroke="#262626" stroke-linecap="butt" stroke-linejoin="miter" stroke-width="0.5"/>
   <polyline fill="none" points="214.216,177.228 214.216,178.855" stroke="#262626" stroke-linecap="butt" stroke-linejoin="miter" stroke-width="0.5"/>
   <polyline fill="none" points="227.73,279.499 227.73,277.872" stroke="#262626" stroke-linecap="butt" stroke-linejoin="miter" stroke-width="0.5"/>
   <polyline fill="none" points="227.73,177.228 227.73,178.855" stroke="#262626" stroke-linecap="butt" stroke-linejoin="miter" stroke-width="0.5"/>
   <polyline fill="none" points="238.213,279.499 238.213,277.872" stroke="#262626" stroke-linecap="butt" stroke-linejoin="miter" stroke-width="0.5"/>
   <polyline fill="none" points="238.213,177.228 238.213,178.855" stroke="#262626" stroke-linecap="butt" stroke-linejoin="miter" stroke-width="0.5"/>
   <polyline fill="none" points="246.778,279.499 246.778,277.872" stroke="#262626" stroke-linecap="butt" stroke-linejoin="miter" stroke-width="0.5"/>
   <polyline fill="none" points="246.778,177.228 246.778,178.855" stroke="#262626" stroke-linecap="butt" stroke-linejoin="miter" stroke-width="0.5"/>
   <polyline fill="none" points="254.02,279.499 254.02,277.872" stroke="#262626" stroke-linecap="butt" stroke-linejoin="miter" stroke-width="0.5"/>
   <polyline fill="none" points="254.02,177.228 254.02,178.855" stroke="#262626" stroke-linecap="butt" stroke-linejoin="miter" stroke-width="0.5"/>
   <polyline fill="none" points="260.293,279.499 260.293,277.872" stroke="#262626" stroke-linecap="butt" stroke-linejoin="miter" stroke-width="0.5"/>
   <polyline fill="none" points="260.293,177.228 260.293,178.855" stroke="#262626" stroke-linecap="butt" stroke-linejoin="miter" stroke-width="0.5"/>
   <polyline fill="none" points="265.826,279.499 265.826,277.872" stroke="#262626" stroke-linecap="butt" stroke-linejoin="miter" stroke-width="0.5"/>
   <polyline fill="none" points="265.826,177.228 265.826,178.855" stroke="#262626" stroke-linecap="butt" stroke-linejoin="miter" stroke-width="0.5"/>
   <polyline fill="none" points="303.338,279.499 303.338,277.872" stroke="#262626" stroke-linecap="butt" stroke-linejoin="miter" stroke-width="0.5"/>
   <polyline fill="none" points="303.338,177.228 303.338,178.855" stroke="#262626" stroke-linecap="butt" stroke-linejoin="miter" stroke-width="0.5"/>
   <polyline fill="none" points="322.386,279.499 322.386,277.872" stroke="#262626" stroke-linecap="butt" stroke-linejoin="miter" stroke-width="0.5"/>
   <polyline fill="none" points="322.386,177.228 322.386,178.855" stroke="#262626" stroke-linecap="butt" stroke-linejoin="miter" stroke-width="0.5"/>
   <polyline fill="none" points="335.901,279.499 335.901,277.872" stroke="#262626" stroke-linecap="butt" stroke-linejoin="miter" stroke-width="0.5"/>
   <polyline fill="none" points="335.901,177.228 335.901,178.855" stroke="#262626" stroke-linecap="butt" stroke-linejoin="miter" stroke-width="0.5"/>
   <polyline fill="none" points="346.384,279.499 346.384,277.872" stroke="#262626" stroke-linecap="butt" stroke-linejoin="miter" stroke-width="0.5"/>
   <polyline fill="none" points="346.384,177.228 346.384,178.855" stroke="#262626" stroke-linecap="butt" stroke-linejoin="miter" stroke-width="0.5"/>
   <polyline fill="none" points="354.949,279.499 354.949,277.872" stroke="#262626" stroke-linecap="butt" stroke-linejoin="miter" stroke-width="0.5"/>
   <polyline fill="none" points="354.949,177.228 354.949,178.855" stroke="#262626" stroke-linecap="butt" stroke-linejoin="miter" stroke-width="0.5"/>
   <polyline fill="none" points="362.191,279.499 362.191,277.872" stroke="#262626" stroke-linecap="butt" stroke-linejoin="miter" stroke-width="0.5"/>
   <polyline fill="none" points="362.191,177.228 362.191,178.855" stroke="#262626" stroke-linecap="butt" stroke-linejoin="miter" stroke-width="0.5"/>
   <polyline fill="none" points="368.464,279.499 368.464,277.872" stroke="#262626" stroke-linecap="butt" stroke-linejoin="miter" stroke-width="0.5"/>
   <polyline fill="none" points="368.464,177.228 368.464,178.855" stroke="#262626" stroke-linecap="butt" stroke-linejoin="miter" stroke-width="0.5"/>
   <polyline fill="none" points="373.997,279.499 373.997,277.872" stroke="#262626" stroke-linecap="butt" stroke-linejoin="miter" stroke-width="0.5"/>
   <polyline fill="none" points="373.997,177.228 373.997,178.855" stroke="#262626" stroke-linecap="butt" stroke-linejoin="miter" stroke-width="0.5"/>
   <polyline fill="none" points="54.4343,279.499 54.4343,276.245" stroke="#262626" stroke-linecap="butt" stroke-linejoin="miter" stroke-width="0.5"/>
   <polyline fill="none" points="54.4343,177.228 54.4343,180.482" stroke="#262626" stroke-linecap="butt" stroke-linejoin="miter" stroke-width="0.5"/>
   <polyline fill="none" points="162.605,279.499 162.605,276.245" stroke="#262626" stroke-linecap="butt" stroke-linejoin="miter" stroke-width="0.5"/>
   <polyline fill="none" points="162.605,177.228 162.605,180.482" stroke="#262626" stroke-linecap="butt" stroke-linejoin="miter" stroke-width="0.5"/>
   <polyline fill="none" points="270.776,279.499 270.776,276.245" stroke="#262626" stroke-linecap="butt" stroke-linejoin="miter" stroke-width="0.5"/>
   <polyline fill="none" points="270.776,177.228 270.776,180.482" stroke="#262626" stroke-linecap="butt" stroke-linejoin="miter" stroke-width="0.5"/>
   <polyline fill="none" points="378.946,279.499 378.946,276.245" stroke="#262626" stroke-linecap="butt" stroke-linejoin="miter" stroke-width="0.5"/>
   <polyline fill="none" points="378.946,177.228 378.946,180.482" stroke="#262626" stroke-linecap="butt" stroke-linejoin="miter" stroke-width="0.5"/>
   <g font-family="FreeSans" font-size="10" font-style="normal" font-weight="normal" transform="translate(45.4343,297.019) rotate(-0,9,-10)" xml:space="preserve">
    <text fill="rgb(38,38,38)" x="0 6 " y="-0">10</text>
    <text fill="rgb(38,38,38)" font-size="7" x="12 14 " y="-4">-2</text>
   </g>
   <g font-family="FreeSans" font-size="10" font-style="normal" font-weight="normal" transform="translate(153.605,297.019) rotate(-0,9,-10)" xml:space="preserve">
    <text fill="rgb(38,38,38)" x="0 6 " y="-0">10</text>
    <text fill="rgb(38,38,38)" font-size="7" x="12 14 " y="-4">-1</text>
   </g>
   <g font-family="FreeSans" font-size="10" font-style="normal" font-weight="normal" transform="translate(262.776,297.019) rotate(-0,8,-10)" xml:space="preserve">
    <text fill="rgb(38,38,38)" x="0 6 " y="-0">10</text>
    <text fill="rgb(38,38,38)" font-size="7" x="12 " y="-4">0</text>
   </g>
   <g font-family="FreeSans" font-size="10" font-style="normal" font-weight="normal" transform="translate(370.946,297.019) rotate(-0,8,-10)" xml:space="preserve">
    <text fill="rgb(38,38,38)" x="0 6 " y="-0">10</text>
    <text fill="rgb(38,38,38)" font-size="7" x="12 " y="-4">1</text>
   </g>
   <polyline fill="none" points="54.4343,257.972 378.946,257.972" stroke="#262626" stroke-dasharray="16,0" stroke-linecap="butt" stroke-linejoin="miter" stroke-opacity="0.15" stroke-width="0.5"/>
   <polyline fill="none" points="54.4343,229.835 378.946,229.835" stroke="#262626" stroke-dasharray="16,0" stroke-linecap="butt" stroke-linejoin="miter" stroke-opacity="0.15" stroke-width="0.5"/>
   <polyline fill="none" points="54.4343,201.699 378.946,201.699" stroke="#262626" stroke-dasharray="16,0" stroke-linecap="butt" stroke-linejoin="miter" stroke-opacity="0.15" stroke-width="0.5"/>
   <polyline fill="none" points="54.4343,257.972 57.6745,257.972" stroke="#262626" stroke-linecap="butt" stroke-linejoin="miter" stroke-width="0.5"/>
   <polyline fill="none" points="378.946,257.972 375.706,257.972" stroke="#262626" stroke-linecap="butt" stroke-linejoin="miter" stroke-width="0.5"/>
   <polyline fill="none" points="54.4343,229.835 57.6745,229.835" stroke="#262626" stroke-linecap="butt" stroke-linejoin="miter" stroke-width="0.5"/>
   <polyline fill="none" points="378.946,229.835 375.706,229.835" stroke="#262626" stroke-linecap="butt" stroke-linejoin="miter" stroke-width="0.5"/>
   <polyline fill="none" points="54.4343,201.699 57.6745,201.699" stroke="#262626" stroke-linecap="butt" stroke-linejoin="miter" stroke-width="0.5"/>
   <polyline fill="none" points="378.946,201.699 375.706,201.699" stroke="#262626" stroke-linecap="butt" stroke-linejoin="miter" stroke-width="0.5"/>
   <g font-family="FreeSans" font-size="10" font-style="normal" font-weight="normal" transform="translate(28.4418,261.972) rotate(-0,21,-4)" xml:space="preserve">
    <text fill="rgb(38,38,38)" x="0 3 9 15 " y="-0">-150</text>
   </g>
   <g font-family="FreeSans" font-size="10" font-style="normal" font-weight="normal" transform="translate(28.4418,233.835) rotate(-0,21,-4)" xml:space="preserve">
    <text fill="rgb(38,38,38)" x="0 3 9 15 " y="-0">-100</text>
   </g>
   <g font-family="FreeSans" font-size="10" font-style="normal" font-weight="normal" transform="translate(34.4418,205.699) rotate(-0,15,-4)" xml:space="preserve">
    <text fill="rgb(38,38,38)" x="0 3 9 " y="-0">-50</text>
   </g>
   <polyline fill="none" points="54.4343,279.499 378.946,279.499" stroke="#262626" stroke-dasharray="16,0" stroke-linecap="square" stroke-linejoin="miter" stroke-width="0.5"/>
   <polyline fill="none" points="54.4343,177.228 378.946,177.228" stroke="#262626" stroke-dasharray="16,0" stroke-linecap="square" stroke-linejoin="miter" stroke-width="0.5"/>
   <polyline fill="none" points="54.4343,279.499 54.4343,177.228" stroke="#262626" stroke-dasharray="16,0" stroke-linecap="square" stroke-linejoin="miter" stroke-width="0.5"/>
   <polyline fill="none" points="378.946,279.499 378.946,177.228" stroke="#262626" stroke-dasharray="16,0" stroke-linecap="square" stroke-linejoin="miter" stroke-width="0.5"/>
   <g font-family="FreeSans" font-size="10" font-style="normal" font-weight="normal" transform="translate(-3.0582,228.364) rotate(-90,26.5,0)" xml:space="preserve">
    <text fill="rgb(38,38,38)" x="0 7 12 17 22 27 30 33 39 44 50 " y="-2">Phase [deg]</text>
   </g>
   <g font-family="FreeSans" font-size="10" font-style="normal" font-weight="normal" transform="translate(178.69,313.019) rotate(-0,38,-11)" xml:space="preserve">
    <text fill="rgb(38,38,38)" x="0 6 9 14 20 25 30 35 40 45 48 51 54 59 65 68 73 " y="-2">Frequency [rad/s]</text>
   </g>
   <polyline fill="none" points="54.4343,221.027 54.7591,221.005 55.084,220.983 55.4088,220.961 55.7336,220.938 56.0585,220.916 56.3833,220.893 56.7081,220.87 57.033,220.847 57.3578,220.824 57.6826,220.801 58.0075,220.777 58.3323,220.754 58.6572,220.73 58.982,220.706 59.3068,220.682 59.6317,220.658 59.9565,220.633 60.2813,220.609 60.6062,220.584 60.931,220.559 61.2559,220.534 61.5807,220.509 61.9055,220.483 62.2304,220.457 62.5552,220.432 62.8801,220.406 63.2049,220.38 63.5297,220.353 63.8545,220.327 64.1794,220.3 64.5042,220.273 64.8291,220.246 65.1539,220.219 65.4788,220.192 65.8036,220.164 66.1284,220.136 66.4532,220.108 66.7781,220.08 67.1029,220.052 67.4278,220.024 67.7526,219.995 68.0774,219.966 68.4023,219.937 68.7271,219.908 69.052,219.878 69.3768,219.848 69.7016,219.819 70.0265,219.788 70.3513,219.758 70.6761,219.728 71.001,219.697 71.3258,219.666 71.6506,219.635 71.9755,219.604 72.3003,219.572 72.6252,219.541 72.95,219.509 73.2748,219.477 73.5997,219.444 73.9245,219.412 74.2493,219.379 74.5742,219.346 74.899,219.313 75.2239,219.279 75.5487,219.246 75.8735,219.212 76.1983,219.178 76.5232,219.143 76.848,219.109 77.1729,219.074 77.4977,219.039 77.8225,219.004 78.1474,218.968 78.4722,218.933 78.7971,218.897 79.1219,218.861 79.4467,218.824 79.7716,218.788 80.0964,218.751 80.4212,218.714 80.7461,218.676 81.0709,218.639 81.3957,218.601 81.7206,218.563 82.0454,218.524 82.3703,218.486 82.6951,218.447 83.0199,218.408 83.3448,218.368 83.6696,218.329 83.9944,218.289 84.3193,218.249 84.6441,218.208 84.969,218.168 85.2938,218.127 85.6186,218.086 85.9435,218.044 86.2683,218.003 86.5931,217.961 86.918,217.918 87.2428,217.876 87.5677,217.833 87.8925,217.79 88.2173,217.747 88.5422,217.703 88.867,217.659 89.1918,217.615 89.5167,217.571 89.8415,217.526 90.1664,217.481 90.4912,217.436 90.816,217.39 91.1409,217.344 91.4657,217.298 91.7905,217.252 92.1154,217.205 92.4402,217.158 92.765,217.111 93.0899,217.063 93.4147,217.015 93.7395,216.967 94.0644,216.919 94.3892,216.87 94.7141,216.821 95.0389,216.771 95.3637,216.722 95.6886,216.672 96.0134,216.621 96.3383,216.571 96.6631,216.52 96.9879,216.468 97.3128,216.417 97.6376,216.365 97.9624,216.313 98.2873,216.26 98.6121,216.207 98.9369,216.154 99.2618,216.101 99.5866,216.047 99.9115,215.993 100.236,215.938 100.561,215.883 100.886,215.828 101.211,215.773 101.536,215.717 101.86,215.661 102.185,215.604 102.51,215.548 102.835,215.491 103.16,215.433 103.485,215.375 103.809,215.317 104.134,215.259 104.459,215.2 104.784,215.141 105.109,215.081 105.434,215.021 105.759,214.961 106.083,214.901 106.408,214.84 106.733,214.778 107.058,214.717 107.383,214.655 107.708,214.593 108.032,214.53 108.357,214.467 108.682,214.403 109.007,214.34 109.332,214.276 109.657,214.211 109.981,214.146 110.306,214.081 110.631,214.016 110.956,213.95 111.281,213.883 111.606,213.817 111.93,213.75 112.255,213.682 112.58,213.615 112.905,213.547 113.23,213.478 113.555,213.409 113.879,213.34 114.204,213.27 114.529,213.2 114.854,213.13 115.179,213.059 115.504,212.988 115.828,212.917 116.153,212.845 116.478,212.773 116.803,212.7 117.128,212.627 117.453,212.554 117.777,212.48 118.102,212.406 118.427,212.332 118.752,212.257 119.077,212.181 119.402,212.106 119.727,212.03 120.051,211.954 120.376,211.877 120.701,211.8 121.026,211.722 121.351,211.644 121.676,211.566 122,211.487 122.325,211.408 122.65,211.329 122.975,211.249 123.3,211.169 123.625,211.089 123.949,211.008 124.274,210.926 124.599,210.845 124.924,210.763 125.249,210.68 125.574,210.597 125.898,210.514 126.223,210.431 126.548,210.347 126.873,210.263 127.198,210.178 127.523,210.093 127.847,210.007 128.172,209.922 128.497,209.836 128.822,209.749 129.147,209.662 129.472,209.575 129.796,209.487 130.121,209.399 130.446,209.311 130.771,209.222 131.096,209.133 131.421,209.044 131.745,208.954 132.07,208.864 132.395,208.774 132.72,208.683 133.045,208.592 133.37,208.5 133.695,208.408 134.019,208.316 134.344,208.223 134.669,208.131 134.994,208.037 135.319,207.944 135.644,207.85 135.968,207.756 136.293,207.661 136.618,207.566 136.943,207.471 137.268,207.375 137.593,207.28 137.917,207.183 138.242,207.087 138.567,206.99 138.892,206.893 139.217,206.796 139.542,206.698 139.866,206.6 140.191,206.501 140.516,206.403 140.841,206.304 141.166,206.205 141.491,206.105 141.815,206.005 142.14,205.905 142.465,205.805 142.79,205.704 143.115,205.603 143.44,205.502 143.764,205.401 144.089,205.299 144.414,205.197 144.739,205.095 145.064,204.993 145.389,204.89 145.713,204.787 146.038,204.684 146.363,204.58 146.688,204.477 147.013,204.373 147.338,204.269 147.662,204.164 147.987,204.06 148.312,203.955 148.637,203.85 148.962,203.745 149.287,203.64 149.611,203.534 149.936,203.429 150.261,203.323 150.586,203.217 150.911,203.11 151.236,203.004 151.561,202.897 151.885,202.791 152.21,202.684 152.535,202.577 152.86,202.469 153.185,202.362 153.51,202.255 153.834,202.147 154.159,202.039 154.484,201.931 154.809,201.823 155.134,201.715 155.459,201.607 155.783,201.499 156.108,201.391 156.433,201.282 156.758,201.174 157.083,201.065 157.408,200.956 157.732,200.847 158.057,200.739 158.382,200.63 158.707,200.521 159.032,200.412 159.357,200.303 159.681,200.194 160.006,200.084 160.331,199.975 160.656,199.866 160.981,199.757 161.306,199.648 161.63,199.539 161.955,199.429 162.28,199.32 162.605,199.211 162.93,199.102 163.255,198.993 163.579,198.884 163.904,198.774 164.229,198.665 164.554,198.556 164.879,198.447 165.204,198.339 165.529,198.23 165.853,198.121 166.178,198.012 166.503,197.904 166.828,197.795 167.153,197.687 167.478,197.578 167.802,197.47 168.127,197.362 168.452,197.254 168.777,197.146 169.102,197.038 169.427,196.93 169.751,196.823 170.076,196.715 170.401,196.608 170.726,196.501 171.051,196.394 171.376,196.287 171.7,196.181 172.025,196.074 172.35,195.968 172.675,195.862 173,195.756 173.325,195.65 173.649,195.544 173.974,195.439 174.299,195.334 174.624,195.229 174.949,195.124 175.274,195.019 175.598,194.915 175.923,194.811 176.248,194.707 176.573,194.603 176.898,194.5 177.223,194.397 177.547,194.294 177.872,194.191 178.197,194.088 178.522,193.986 178.847,193.884 179.172,193.783 179.497,193.681 179.821,193.58 180.146,193.479 180.471,193.379 180.796,193.279 181.121,193.179 181.446,193.079 181.77,192.98 182.095,192.881 182.42,192.782 182.745,192.683 183.07,192.585 183.395,192.488 183.719,192.39 184.044,192.293 184.369,192.196 184.694,192.1 185.019,192.003 185.344,191.908 185.668,191.812 185.993,191.717 186.318,191.622 186.643,191.528 186.968,191.434 187.293,191.34 187.617,191.246 187.942,191.153 188.267,191.061 188.592,190.968 188.917,190.877 189.242,190.785 189.566,190.694 189.891,190.603 190.216,190.513 190.541,190.423 190.866,190.333 191.191,190.244 191.515,190.155 191.84,190.066 192.165,189.978 192.49,189.891 192.815,189.803 193.14,189.716 193.464,189.63 193.789,189.544 194.114,189.458 194.439,189.373 194.764,189.288 195.089,189.203 195.414,189.119 195.738,189.036 196.063,188.953 196.388,188.87 196.713,188.787 197.038,188.705 197.363,188.624 197.687,188.543 198.012,188.462 198.337,188.382 198.662,188.302 198.987,188.223 199.312,188.144 199.636,188.065 199.961,187.987 200.286,187.909 200.611,187.832 200.936,187.755 201.261,187.679 201.585,187.603 201.91,187.528 202.235,187.453 202.56,187.378 202.885,187.304 203.21,187.23 203.534,187.157 203.859,187.084 204.184,187.012 204.509,186.94 204.834,186.868 205.159,186.797 205.483,186.726 205.808,186.656 206.133,186.587 206.458,186.517 206.783,186.449 207.108,186.38 207.432,186.312 207.757,186.245 208.082,186.178 208.407,186.111 208.732,186.045 209.057,185.98 209.382,185.914 209.706,185.85 210.031,185.786 210.356,185.722 210.681,185.658 211.006,185.595 211.331,185.533 211.655,185.471 211.98,185.41 212.305,185.349 212.63,185.288 212.955,185.228 213.28,185.168 213.604,185.109 213.929,185.05 214.254,184.992 214.579,184.934 214.904,184.877 215.229,184.82 215.553,184.764 215.878,184.708 216.203,184.652 216.528,184.597 216.853,184.543 217.178,184.489 217.502,184.435 217.827,184.382 218.152,184.329 218.477,184.277 218.802,184.225 219.127,184.174 219.451,184.123 219.776,184.073 220.101,184.023 220.426,183.974 220.751,183.925 221.076,183.877 221.4,183.829 221.725,183.782 222.05,183.735 222.375,183.688 222.7,183.642 223.025,183.597 223.349,183.552 223.674,183.508 223.999,183.464 224.324,183.42 224.649,183.377 224.974,183.335 225.299,183.293 225.623,183.252 225.948,183.211 226.273,183.17 226.598,183.13 226.923,183.091 227.248,183.052 227.572,183.014 227.897,182.976 228.222,182.939 228.547,182.902 228.872,182.866 229.197,182.83 229.521,182.795 229.846,182.76 230.171,182.726 230.496,182.693 230.821,182.66 231.146,182.627 231.47,182.595 231.795,182.564 232.12,182.533 232.445,182.503 232.77,182.474 233.095,182.445 233.419,182.417 233.744,182.389 234.069,182.362 234.394,182.335 234.719,182.31 235.044,182.284 235.368,182.26 235.693,182.236 236.018,182.213 236.343,182.19 236.668,182.168 236.993,182.147 237.317,182.126 237.642,182.106 237.967,182.087 238.292,182.069 238.617,182.051 238.942,182.034 239.266,182.018 239.591,182.003 239.916,181.988 240.241,181.974 240.566,181.961 240.891,181.949 241.216,181.938 241.54,181.928 241.865,181.918 242.19,181.91 242.515,181.902 242.84,181.896 243.165,181.89 243.489,181.885 243.814,181.882 244.139,181.879 244.464,181.877 244.789,181.877 245.114,181.878 245.438,181.88 245.763,181.883 246.088,181.887 246.413,181.893 246.738,181.9 247.063,181.909 247.387,181.918 247.712,181.93 248.037,181.942 248.362,181.957 248.687,181.973 249.012,181.99 249.336,182.01 249.661,182.031 249.986,182.054 250.311,182.079 250.636,182.106 250.961,182.136 251.285,182.167 251.61,182.201 251.935,182.237 252.26,182.276 252.585,182.317 252.91,182.361 253.234,182.408 253.559,182.459 253.884,182.512 254.209,182.569 254.534,182.629 254.859,182.694 255.184,182.762 255.508,182.834 255.833,182.911 256.158,182.993 256.483,183.08 256.808,183.172 257.133,183.27 257.457,183.374 257.782,183.485 258.107,183.602 258.432,183.727 258.757,183.861 259.082,184.003 259.406,184.154 259.731,184.316 260.056,184.489 260.381,184.674 260.706,184.871 261.031,185.084 261.355,185.311 261.68,185.556 262.005,185.82 262.33,186.105 262.655,186.412 262.98,186.746 263.304,187.108 263.629,187.502 263.954,187.931 264.279,188.402 264.604,188.918 264.929,189.486 265.253,190.114 265.578,190.81 265.903,191.585 266.228,192.451 266.553,193.424 266.878,194.521 267.202,195.764 267.527,197.178 267.852,198.793 268.177,200.646 268.502,202.774 268.827,205.221 269.151,208.025 269.476,211.218 269.801,214.808 270.126,218.766 270.451,223.013 270.776,227.422 271.101,231.83 271.425,236.078 271.75,240.037 272.075,243.627 272.4,246.822 272.725,249.628 273.05,252.077 273.374,254.207 273.699,256.062 274.024,257.681 274.349,259.098 274.674,260.344 274.999,261.445 275.323,262.421 275.648,263.292 275.973,264.072 276.298,264.773 276.623,265.406 276.948,265.98 277.272,266.502 277.597,266.978 277.922,267.414 278.247,267.815 278.572,268.184 278.897,268.525 279.221,268.84 279.546,269.132 279.871,269.405 280.196,269.658 280.521,269.895 280.846,270.116 281.17,270.323 281.495,270.518 281.82,270.701 282.145,270.873 282.47,271.035 282.795,271.188 283.119,271.333 283.444,271.47 283.769,271.599 284.094,271.722 284.419,271.839 284.744,271.95 285.069,272.055 285.393,272.155 285.718,272.251 286.043,272.342 286.368,272.429 286.693,272.512 287.018,272.591 287.342,272.667 287.667,272.739 287.992,272.808 288.317,272.875 288.642,272.939 288.967,273 289.291,273.058 289.616,273.115 289.941,273.169 290.266,273.221 290.591,273.271 290.916,273.319 291.24,273.365 291.565,273.409 291.89,273.452 292.215,273.494 292.54,273.534 292.865,273.572 293.189,273.609 293.514,273.645 293.839,273.679 294.164,273.713 294.489,273.745 294.814,273.776 295.138,273.806 295.463,273.835 295.788,273.863 296.113,273.89 296.438,273.917 296.763,273.942 297.087,273.967 297.412,273.991 297.737,274.014 298.062,274.036 298.387,274.058 298.712,274.079 299.036,274.099 299.361,274.119 299.686,274.138 300.011,274.157 300.336,274.175 300.661,274.192 300.986,274.209 301.31,274.226 301.635,274.242 301.96,274.257 302.285,274.272 302.61,274.287 302.935,274.301 303.259,274.315 303.584,274.328 303.909,274.341 304.234,274.354 304.559,274.366 304.884,274.378 305.208,274.39 305.533,274.402 305.858,274.413 306.183,274.423 306.508,274.434 306.833,274.444 307.157,274.454 307.482,274.463 307.807,274.473 308.132,274.482 308.457,274.491 308.782,274.5 309.106,274.508 309.431,274.516 309.756,274.524 310.081,274.532 310.406,274.54 310.731,274.547 311.055,274.554 311.38,274.561 311.705,274.568 312.03,274.575 312.355,274.581 312.68,274.588 313.004,274.594 313.329,274.6 313.654,274.606 313.979,274.611 314.304,274.617 314.629,274.622 314.953,274.628 315.278,274.633 315.603,274.638 315.928,274.643 316.253,274.648 316.578,274.652 316.903,274.657 317.227,274.661 317.552,274.666 317.877,274.67 318.202,274.674 318.527,274.678 318.852,274.682 319.176,274.686 319.501,274.69 319.826,274.693 320.151,274.697 320.476,274.701 320.801,274.704 321.125,274.707 321.45,274.711 321.775,274.714 322.1,274.717 322.425,274.72 322.75,274.723 323.074,274.726 323.399,274.729 323.724,274.731 324.049,274.734 324.374,274.737 324.699,274.739 325.023,274.742 325.348,274.744 325.673,274.747 325.998,274.749 326.323,274.751 326.648,274.754 326.972,274.756 327.297,274.758 327.622,274.76 327.947,274.762 328.272,274.764 328.597,274.766 328.922,274.768 329.246,274.77 329.571,274.772 329.896,274.773 330.221,274.775 330.546,274.777 330.871,274.779 331.195,274.78 331.52,274.782 331.845,274.783 332.17,274.785 332.495,274.786 332.82,274.788 333.144,274.789 333.469,274.791 333.794,274.792 334.119,274.793 334.444,274.795 334.769,274.796 335.093,274.797 335.418,274.798 335.743,274.799 336.068,274.801 336.393,274.802 336.718,274.803 337.042,274.804 337.367,274.805 337.692,274.806 338.017,274.807 338.342,274.808 338.667,274.809 338.991,274.81 339.316,274.811 339.641,274.812 339.966,274.813 340.291,274.814 340.616,274.814 340.94,274.815 341.265,274.816 341.59,274.817 341.915,274.818 342.24,274.818 342.565,274.819 342.889,274.82 343.214,274.821 343.539,274.821 343.864,274.822 344.189,274.823 344.514,274.823 344.839,274.824 345.163,274.825 345.488,274.825 345.813,274.826 346.138,274.826 346.463,274.827 346.788,274.828 347.112,274.828 347.437,274.829 347.762,274.829 348.087,274.83 348.412,274.83 348.737,274.831 349.061,274.831 349.386,274.832 349.711,274.832 350.036,274.833 350.361,274.833 350.686,274.833 351.01,274.834 351.335,274.834 351.66,274.835 351.985,274.835 352.31,274.836 352.635,274.836 352.959,274.836 353.284,274.837 353.609,274.837 353.934,274.837 354.259,274.838 354.584,274.838 354.908,274.838 355.233,274.839 355.558,274.839 355.883,274.839 356.208,274.84 356.533,274.84 356.857,274.84 357.182,274.84 357.507,274.841 357.832,274.841 358.157,274.841 358.482,274.842 358.806,274.842 359.131,274.842 359.456,274.842 359.781,274.843 360.106,274.843 360.431,274.843 360.756,274.843 361.08,274.843 361.405,274.844 361.73,274.844 362.055,274.844 362.38,274.844 362.705,274.844 363.029,274.845 363.354,274.845 363.679,274.845 364.004,274.845 364.329,274.845 364.654,274.846 364.978,274.846 365.303,274.846 365.628,274.846 365.953,274.846 366.278,274.846 366.603,274.847 366.927,274.847 367.252,274.847 367.577,274.847 367.902,274.847 368.227,274.847 368.552,274.847 368.876,274.848 369.201,274.848 369.526,274.848 369.851,274.848 370.176,274.848 370.501,274.848 370.825,274.848 371.15,274.848 371.475,274.848 371.8,274.849 372.125,274.849 372.45,274.849 372.774,274.849 373.099,274.849 373.424,274.849 373.749,274.849 374.074,274.849 374.399,274.849 374.724,274.849 375.048,274.85 375.373,274.85 375.698,274.85 376.023,274.85 376.348,274.85 376.673,274.85 376.997,274.85 377.322,274.85 377.647,274.85 377.972,274.85 378.297,274.85 378.622,274.85 378.946,274.85" stroke="#0071bc" stroke-linecap="butt" stroke-linejoin="round" stroke-width="0.5"/>
  </g>
 </g>
</svg>
