<?xml version='1.0' encoding='UTF-8' standalone='no'?>
<svg height="360pt" viewBox="0 0 480 360" width="480pt" xmlns="http://www.w3.org/2000/svg" xmlns:xlink="http://www.w3.org/1999/xlink">
 <title>Figure 1</title>
 <desc>
Creator: GL2PS 1.4.2, (C) 1999-2020 C. Geuzaine
For: Octave
CreationDate: Sun Feb 15 20:18:27 2026
</desc>
 <defs/>
 <polygon fill="#ffffff" points="0,0 480,0 480,360 0,360"/>
 <g>
  <polygon fill="#ffffff" points="0,360 480,360 480,0 0,0" shape-rendering="crispEdges"/>
  <clipPath id="cp00480360">
   <polygon points="0,360 480,360 480,0 0,0"/>
  </clipPath>
  <g clip-path="url(#cp00480360)">
   <polygon fill="#ffffff" points="62.4,320.4 434.4,320.4 434.4,27 62.4,27" shape-rendering="crispEdges"/>
   <polyline fill="none" points="62.4,320.4 62.4,27" stroke="#262626" stroke-dasharray="16,0" stroke-linecap="butt" stroke-linejoin="miter" stroke-opacity="0.15" stroke-width="0.5"/>
   <polyline fill="none" points="155.4,320.4 155.4,27" stroke="#262626" stroke-dasharray="16,0" stroke-linecap="butt" stroke-linejoin="miter" stroke-opacity="0.15" stroke-width="0.5"/>
   <polyline fill="none" points="248.4,320.4 248.4,27" stroke="#262626" stroke-dasharray="16,0" stroke-linecap="butt" stroke-linejoin="miter" stroke-opacity="0.15" stroke-width="0.5"/>
   <polyline fill="none" points="341.4,320.4 341.4,27" stroke="#262626" stroke-dasharray="16,0" stroke-linecap="butt" stroke-linejoin="miter" stroke-opacity="0.15" stroke-width="0.5"/>
   <polyline fill="none" points="434.4,320.4 434.4,27" stroke="#262626" stroke-dasharray="16,0" stroke-linecap="butt" stroke-linejoin="miter" stroke-opacity="0.15" stroke-width="0.5"/>
   <polyline fill="none" points="62.4,320.4 62.4,316.675" stroke="#262626" stroke-linecap="butt" stroke-linejoin="miter" stroke-width="0.5"/>
   <polyline fill="none" points="62.4,27 62.4,30.7251" stroke="#262626" stroke-linecap="butt" stroke-linejoin="miter" stroke-width="0.5"/>
   <polyline fill="none" points="155.4,320.4 155.4,316.675" stroke="#262626" stroke-linecap="butt" stroke-linejoin="miter" stroke-width="0.5"/>
   <polyline fill="none" points="155.4,27 155.4,30.7251" stroke="#262626" stroke-linecap="butt" stroke-linejoin="miter" stroke-width="0.5"/>
   <polyline fill="none" points="248.4,320.4 248.4,316.675" stroke="#262626" stroke-linecap="butt" stroke-linejoin="miter" stroke-width="0.5"/>
   <polyline fill="none" points="248.4,27 248.4,30.7251" stroke="#262626" stroke-linecap="butt" stroke-linejoin="miter" stroke-width="0.5"/>
   <polyline fill="none" points="341.4,320.4 341.4,316.675" stroke="#262626" stroke-linecap="butt" stroke-linejoin="miter" stroke-width="0.5"/>
   <polyline fill="none" points="341.4,27 341.4,30.7251" stroke="#262626" stroke-linecap="butt" stroke-linejoin="miter" stroke-width="0.5"/>
   <polyline fill="none" points="434.4,320.4 434.4,316.675" stroke="#262626" stroke-linecap="butt" stroke-linejoin="miter" stroke-width="0.5"/>
   <polyline fill="none" points="434.4,27 434.4,30.7251" stroke="#262626" stroke-linecap="butt" stroke-linejoin="miter" stroke-width="0.5"/>
   <g font-family="FreeSans" font-size="11.6513" font-style="normal" font-weight="normal" transform="translate(59.4,339.15) rotate(-0,3,-10)" xml:space="preserve">
    <text fill="rgb(38,38,38)" x="0 " y="-0">0</text>
   </g>
   <g font-family="FreeSans" font-size="11.6513" font-style="normal" font-weight="normal" transform="translate(152.4,339.15) rotate(-0,3,-10)" xml:space="preserve">
    <text fill="rgb(38,38,38)" x="0 " y="-0">2</text>
   </g>
   <g font-family="FreeSans" font-size="11.6513" font-style="normal" font-weight="normal" transform="translate(245.4,339.15) rotate(-0,3,-10)" xml:space="preserve">
    <text fill="rgb(38,38,38)" x="0 " y="-0">4</text>
   </g>
   <g font-family="FreeSans" font-size="11.6513" font-style="normal" font-weight="normal" transform="translate(338.4,339.15) rotate(-0,3,-10)" xml:space="preserve">
    <text fill="rgb(38,38,38)" x="0 " y="-0">6</text>
   </g>
   <g font-family="FreeSans" font-size="11.6513" font-style="normal" font-weight="normal" transform="translate(431.4,339.15) rotate(-0,3,-10)" xml:space="preserve">
    <text fill="rgb(38,38,38)" x="0 " y="-0">8</text>
   </g>
   <polyline fill="none" points="62.4,274.287 434.4,274.287" stroke="#262626" stroke-dasharray="16,0" stroke-linecap="butt" stroke-linejoin="miter" stroke-opacity="0.15" stroke-width="0.5"/>
   <polyline fill="none" points="62.4,211.929 434.4,211.929" stroke="#262626" stroke-dasharray="16,0" stroke-linecap="butt" stroke-linejoin="miter" stroke-opacity="0.15" stroke-width="0.5"/>
   <polyline fill="none" points="62.4,149.571 434.4,149.571" stroke="#262626" stroke-dasharray="16,0" stroke-linecap="butt" stroke-linejoin="miter" stroke-opacity="0.15" stroke-width="0.5"/>
   <polyline fill="none" points="62.4,87.2133 434.4,87.2133" stroke="#262626" stroke-dasharray="16,0" stroke-linecap="butt" stroke-linejoin="miter" stroke-opacity="0.15" stroke-width="0.5"/>
   <polyline fill="none" points="62.4,274.287 66.12,274.287" stroke="#262626" stroke-linecap="butt" stroke-linejoin="miter" stroke-width="0.5"/>
   <polyline fill="none" points="434.4,274.287 430.68,274.287" stroke="#262626" stroke-linecap="butt" stroke-linejoin="miter" stroke-width="0.5"/>
   <polyline fill="none" points="62.4,211.929 66.12,211.929" stroke="#262626" stroke-linecap="butt" stroke-linejoin="miter" stroke-width="0.5"/>
   <polyline fill="none" points="434.4,211.929 430.68,211.929" stroke="#262626" stroke-linecap="butt" stroke-linejoin="miter" stroke-width="0.5"/>
   <polyline fill="none" points="62.4,149.571 66.12,149.571" stroke="#262626" stroke-linecap="butt" stroke-linejoin="miter" stroke-width="0.5"/>
   <polyline fill="none" points="434.4,149.571 430.68,149.571" stroke="#262626" stroke-linecap="butt" stroke-linejoin="miter" stroke-width="0.5"/>
   <polyline fill="none" points="62.4,87.2133 66.12,87.2133" stroke="#262626" stroke-linecap="butt" stroke-linejoin="miter" stroke-width="0.5"/>
   <polyline fill="none" points="434.4,87.2133 430.68,87.2133" stroke="#262626" stroke-linecap="butt" stroke-linejoin="miter" stroke-width="0.5"/>
   <g font-family="FreeSans" font-size="11.6513" font-style="normal" font-weight="normal" transform="translate(50.5743,279.287) rotate(-0,6,-5)" xml:space="preserve">
    <text fill="rgb(38,38,38)" x="0 " y="-0">0</text>
   </g>
   <g font-family="FreeSans" font-size="11.6513" font-style="normal" font-weight="normal" transform="translate(35.5743,216.929) rotate(-0,21,-5)" xml:space="preserve">
    <text fill="rgb(38,38,38)" x="0 6 9 15 " y="-0">0.05</text>
   </g>
   <g font-family="FreeSans" font-size="11.6513" font-style="normal" font-weight="normal" transform="translate(41.5743,154.571) rotate(-0,15,-5)" xml:space="preserve">
    <text fill="rgb(38,38,38)" x="0 6 9 " y="-0">0.1</text>
   </g>
   <g font-family="FreeSans" font-size="11.6513" font-style="normal" font-weight="normal" transform="translate(35.5743,92.2133) rotate(-0,21,-5)" xml:space="preserve">
    <text fill="rgb(38,38,38)" x="0 6 9 15 " y="-0">0.15</text>
   </g>
   <polyline fill="none" points="62.4,320.4 434.4,320.4" stroke="#262626" stroke-dasharray="16,0" stroke-linecap="square" stroke-linejoin="miter" stroke-width="0.5"/>
   <polyline fill="none" points="62.4,27 434.4,27" stroke="#262626" stroke-dasharray="16,0" stroke-linecap="square" stroke-linejoin="miter" stroke-width="0.5"/>
   <polyline fill="none" points="62.4,320.4 62.4,27" stroke="#262626" stroke-dasharray="16,0" stroke-linecap="square" stroke-linejoin="miter" stroke-width="0.5"/>
   <polyline fill="none" points="434.4,320.4 434.4,27" stroke="#262626" stroke-dasharray="16,0" stroke-linecap="square" stroke-linejoin="miter" stroke-width="0.5"/>
   <g font-family="FreeSans" font-size="12.8165" font-style="normal" font-weight="bold" transform="translate(77.4,17) rotate(-0,171,0)" xml:space="preserve">
    <text fill="rgb(0,0,0)" x="0 4 15 23 31 34 41 48 52 57 64 71 79 87 95 102 109 113 121 125 129 136 140 148 152 159 166 171 178 182 186 193 200 208 212 221 229 236 240 244 249 256 264 271 275 282 287 291 295 303 311 318 322 326 334 " y="-3">Impulse response of a discretized PT2 transfer function</text>
   </g>
   <g font-family="FreeSans" font-size="12.8165" font-style="normal" font-weight="normal" transform="translate(24.0743,173.7) rotate(-90,6.5,0)" xml:space="preserve">
    <text fill="rgb(38,38,38)" x="0 6 " y="-3">y1</text>
   </g>
   <g font-family="FreeSans" font-size="12.8165" font-style="normal" font-weight="normal" transform="translate(225.9,358.15) rotate(-0,22.5,-14)" xml:space="preserve">
    <text fill="rgb(38,38,38)" x="0 8 11 21 28 31 35 41 " y="-3">Time [s]</text>
   </g>
   <polyline fill="none" points="62.4,274.287 67.05,274.287 67.05,244.659 71.7,244.659 71.7,191.525 76.35,191.525 76.35,147.327 81,147.327 81,111.64 85.65,111.64 85.65,83.9387 90.3,83.9387 90.3,63.6256 94.95,63.6256 94.95,50.0479 99.6,50.0479 99.6,42.5191 104.25,42.5191 104.25,40.3364 108.9,40.3364 108.9,42.7954 113.55,42.7954 113.55,49.2041 118.2,49.2041 118.2,58.8934 122.85,58.8934 122.85,71.2268 127.5,71.2268 127.5,85.6072 132.15,85.6072 132.15,101.483 136.8,101.483 136.8,118.351 141.45,118.351 141.45,135.761 146.1,135.761 146.1,153.315 150.75,153.315 150.75,170.666 155.4,170.666 155.4,187.522 160.05,187.522 160.05,203.638 164.7,203.638 164.7,218.82 169.35,218.82 169.35,232.915 174,232.915 174,245.814 178.65,245.814 178.65,257.445 183.3,257.445 183.3,267.767 187.95,267.767 187.95,276.773 192.6,276.773 192.6,284.478 197.25,284.478 197.25,290.921 201.9,290.921 201.9,296.158 206.55,296.158 206.55,300.26 211.2,300.26 211.2,303.309 215.85,303.309 215.85,305.395 220.5,305.395 220.5,306.614 225.15,306.614 225.15,307.064 229.8,307.064 229.8,306.843 234.45,306.843 234.45,306.049 239.1,306.049 239.1,304.777 243.75,304.777 243.75,303.117 248.4,303.117 248.4,301.154 253.05,301.154 253.05,298.966 257.7,298.966 257.7,296.625 262.35,296.625 262.35,294.196 267,294.196 267,291.736 271.65,291.736 271.65,289.296 276.3,289.296 276.3,286.917 280.95,286.917 280.95,284.635 285.6,284.635 285.6,282.479 290.25,282.479 290.25,280.471 294.9,280.471 294.9,278.629 299.55,278.629 299.55,276.963 304.2,276.963 304.2,275.479 308.85,275.479 308.85,274.18 313.5,274.18 313.5,273.063 318.15,273.063 318.15,272.125 322.8,272.125 322.8,271.358 327.45,271.358 327.45,270.752 332.1,270.752 332.1,270.295 336.75,270.295 336.75,269.977 341.4,269.977 341.4,269.783 346.05,269.783 346.05,269.699 350.7,269.699 350.7,269.712 355.35,269.712 355.35,269.808 360,269.808 360,269.973 364.65,269.973 364.65,270.196 369.3,270.196 369.3,270.464 373.95,270.464 373.95,270.765 378.6,270.765 378.6,271.089 383.25,271.089 383.25,271.428 387.9,271.428 387.9,271.772 392.55,271.772 392.55,272.115 397.2,272.115 397.2,272.451 401.85,272.451 401.85,272.773 406.5,272.773 406.5,273.079 411.15,273.079 411.15,273.365 415.8,273.365 415.8,273.628 420.45,273.628 420.45,273.867 425.1,273.867 425.1,274.08 429.75,274.08 429.75,274.267 434.4,274.267 434.4,274.429" stroke="#0071bc" stroke-linecap="butt" stroke-linejoin="round" stroke-width="0.5"/>
  </g>
 </g>
</svg>
