<?xml version='1.0' encoding='UTF-8' standalone='no'?>
<svg height="314pt" viewBox="0 0 418 314" width="418pt" xmlns="http://www.w3.org/2000/svg" xmlns:xlink="http://www.w3.org/1999/xlink">
 <title>Figure 1</title>
 <desc>
Creator: GL2PS 1.4.2, (C) 1999-2020 C. Geuzaine
For: Octave
CreationDate: Sun Feb  8 20:55:50 2026
</desc>
 <defs/>
 <polygon fill="#ffffff" points="0,0 418,0 418,314 0,314"/>
 <g>
  <polygon fill="#ffffff" points="0,314 418,314 418,0 0,0" shape-rendering="crispEdges"/>
  <clipPath id="cp00418314">
   <polygon points="0,314 418,314 418,0 0,0"/>
  </clipPath>
  <g clip-path="url(#cp00418314)">
   <polygon fill="#ffffff" points="54.4343,279.499 378.946,279.499 378.946,23.5533 54.4343,23.5533" shape-rendering="crispEdges"/>
   <polyline fill="none" points="54.4343,279.499 54.4343,23.5533" stroke="#262626" stroke-dasharray="16,0" stroke-linecap="butt" stroke-linejoin="miter" stroke-opacity="0.15" stroke-width="0.5"/>
   <polyline fill="none" points="135.562,279.499 135.562,23.5533" stroke="#262626" stroke-dasharray="16,0" stroke-linecap="butt" stroke-linejoin="miter" stroke-opacity="0.15" stroke-width="0.5"/>
   <polyline fill="none" points="216.69,279.499 216.69,23.5533" stroke="#262626" stroke-dasharray="16,0" stroke-linecap="butt" stroke-linejoin="miter" stroke-opacity="0.15" stroke-width="0.5"/>
   <polyline fill="none" points="297.818,279.499 297.818,23.5533" stroke="#262626" stroke-dasharray="16,0" stroke-linecap="butt" stroke-linejoin="miter" stroke-opacity="0.15" stroke-width="0.5"/>
   <polyline fill="none" points="378.946,279.499 378.946,23.5533" stroke="#262626" stroke-dasharray="16,0" stroke-linecap="butt" stroke-linejoin="miter" stroke-opacity="0.15" stroke-width="0.5"/>
   <polyline fill="none" points="54.4343,279.499 54.4343,276.255" stroke="#262626" stroke-linecap="butt" stroke-linejoin="miter" stroke-width="0.5"/>
   <polyline fill="none" points="54.4343,23.5533 54.4343,26.7977" stroke="#262626" stroke-linecap="butt" stroke-linejoin="miter" stroke-width="0.5"/>
   <polyline fill="none" points="135.562,279.499 135.562,276.255" stroke="#262626" stroke-linecap="butt" stroke-linejoin="miter" stroke-width="0.5"/>
   <polyline fill="none" points="135.562,23.5533 135.562,26.7977" stroke="#262626" stroke-linecap="butt" stroke-linejoin="miter" stroke-width="0.5"/>
   <polyline fill="none" points="216.69,279.499 216.69,276.255" stroke="#262626" stroke-linecap="butt" stroke-linejoin="miter" stroke-width="0.5"/>
   <polyline fill="none" points="216.69,23.5533 216.69,26.7977" stroke="#262626" stroke-linecap="butt" stroke-linejoin="miter" stroke-width="0.5"/>
   <polyline fill="none" points="297.818,279.499 297.818,276.255" stroke="#262626" stroke-linecap="butt" stroke-linejoin="miter" stroke-width="0.5"/>
   <polyline fill="none" points="297.818,23.5533 297.818,26.7977" stroke="#262626" stroke-linecap="butt" stroke-linejoin="miter" stroke-width="0.5"/>
   <polyline fill="none" points="378.946,279.499 378.946,276.255" stroke="#262626" stroke-linecap="butt" stroke-linejoin="miter" stroke-width="0.5"/>
   <polyline fill="none" points="378.946,23.5533 378.946,26.7977" stroke="#262626" stroke-linecap="butt" stroke-linejoin="miter" stroke-width="0.5"/>
   <g font-family="FreeSans" font-size="10" font-style="normal" font-weight="normal" transform="translate(51.4343,294.998) rotate(-0,3,-8)" xml:space="preserve">
    <text fill="rgb(38,38,38)" x="0 " y="-0">0</text>
   </g>
   <g font-family="FreeSans" font-size="10" font-style="normal" font-weight="normal" transform="translate(132.562,294.998) rotate(-0,3,-8)" xml:space="preserve">
    <text fill="rgb(38,38,38)" x="0 " y="-0">2</text>
   </g>
   <g font-family="FreeSans" font-size="10" font-style="normal" font-weight="normal" transform="translate(213.69,294.998) rotate(-0,3,-8)" xml:space="preserve">
    <text fill="rgb(38,38,38)" x="0 " y="-0">4</text>
   </g>
   <g font-family="FreeSans" font-size="10" font-style="normal" font-weight="normal" transform="translate(294.818,294.998) rotate(-0,3,-8)" xml:space="preserve">
    <text fill="rgb(38,38,38)" x="0 " y="-0">6</text>
   </g>
   <g font-family="FreeSans" font-size="10" font-style="normal" font-weight="normal" transform="translate(375.946,294.998) rotate(-0,3,-8)" xml:space="preserve">
    <text fill="rgb(38,38,38)" x="0 " y="-0">8</text>
   </g>
   <polyline fill="none" points="54.4343,239.273 378.946,239.273" stroke="#262626" stroke-dasharray="16,0" stroke-linecap="butt" stroke-linejoin="miter" stroke-opacity="0.15" stroke-width="0.5"/>
   <polyline fill="none" points="54.4343,184.875 378.946,184.875" stroke="#262626" stroke-dasharray="16,0" stroke-linecap="butt" stroke-linejoin="miter" stroke-opacity="0.15" stroke-width="0.5"/>
   <polyline fill="none" points="54.4343,130.478 378.946,130.478" stroke="#262626" stroke-dasharray="16,0" stroke-linecap="butt" stroke-linejoin="miter" stroke-opacity="0.15" stroke-width="0.5"/>
   <polyline fill="none" points="54.4343,76.08 378.946,76.08" stroke="#262626" stroke-dasharray="16,0" stroke-linecap="butt" stroke-linejoin="miter" stroke-opacity="0.15" stroke-width="0.5"/>
   <polyline fill="none" points="54.4343,239.273 57.6745,239.273" stroke="#262626" stroke-linecap="butt" stroke-linejoin="miter" stroke-width="0.5"/>
   <polyline fill="none" points="378.946,239.273 375.706,239.273" stroke="#262626" stroke-linecap="butt" stroke-linejoin="miter" stroke-width="0.5"/>
   <polyline fill="none" points="54.4343,184.875 57.6745,184.875" stroke="#262626" stroke-linecap="butt" stroke-linejoin="miter" stroke-width="0.5"/>
   <polyline fill="none" points="378.946,184.875 375.706,184.875" stroke="#262626" stroke-linecap="butt" stroke-linejoin="miter" stroke-width="0.5"/>
   <polyline fill="none" points="54.4343,130.478 57.6745,130.478" stroke="#262626" stroke-linecap="butt" stroke-linejoin="miter" stroke-width="0.5"/>
   <polyline fill="none" points="378.946,130.478 375.706,130.478" stroke="#262626" stroke-linecap="butt" stroke-linejoin="miter" stroke-width="0.5"/>
   <polyline fill="none" points="54.4343,76.08 57.6745,76.08" stroke="#262626" stroke-linecap="butt" stroke-linejoin="miter" stroke-width="0.5"/>
   <polyline fill="none" points="378.946,76.08 375.706,76.08" stroke="#262626" stroke-linecap="butt" stroke-linejoin="miter" stroke-width="0.5"/>
   <g font-family="FreeSans" font-size="10" font-style="normal" font-weight="normal" transform="translate(43.4418,243.273) rotate(-0,6,-4)" xml:space="preserve">
    <text fill="rgb(38,38,38)" x="0 " y="-0">0</text>
   </g>
   <g font-family="FreeSans" font-size="10" font-style="normal" font-weight="normal" transform="translate(28.4418,188.875) rotate(-0,21,-4)" xml:space="preserve">
    <text fill="rgb(38,38,38)" x="0 6 9 15 " y="-0">0.05</text>
   </g>
   <g font-family="FreeSans" font-size="10" font-style="normal" font-weight="normal" transform="translate(34.4418,134.478) rotate(-0,15,-4)" xml:space="preserve">
    <text fill="rgb(38,38,38)" x="0 6 9 " y="-0">0.1</text>
   </g>
   <g font-family="FreeSans" font-size="10" font-style="normal" font-weight="normal" transform="translate(28.4418,80.08) rotate(-0,21,-4)" xml:space="preserve">
    <text fill="rgb(38,38,38)" x="0 6 9 15 " y="-0">0.15</text>
   </g>
   <polyline fill="none" points="54.4343,279.499 378.946,279.499" stroke="#262626" stroke-dasharray="16,0" stroke-linecap="square" stroke-linejoin="miter" stroke-width="0.5"/>
   <polyline fill="none" points="54.4343,23.5533 378.946,23.5533" stroke="#262626" stroke-dasharray="16,0" stroke-linecap="square" stroke-linejoin="miter" stroke-width="0.5"/>
   <polyline fill="none" points="54.4343,279.499 54.4343,23.5533" stroke="#262626" stroke-dasharray="16,0" stroke-linecap="square" stroke-linejoin="miter" stroke-width="0.5"/>
   <polyline fill="none" points="378.946,279.499 378.946,23.5533" stroke="#262626" stroke-dasharray="16,0" stroke-linecap="square" stroke-linejoin="miter" stroke-width="0.5"/>
   <g font-family="FreeSans" font-size="10" font-style="normal" font-weight="bold" transform="translate(81.1904,13.5533) rotate(-0,135.5,0)" xml:space="preserve">
    <text fill="rgb(0,0,0)" x="0 3 12 18 24 27 33 39 42 46 52 58 64 70 76 82 88 91 97 100 103 109 112 118 121 127 133 137 143 146 149 154 160 166 169 176 182 188 191 194 198 204 210 216 219 225 229 232 235 241 247 253 256 259 265 " y="-2">Impulse response of a discretized PT2 transfer function</text>
   </g>
   <g font-family="FreeSans" font-size="10" font-style="normal" font-weight="normal" transform="translate(17.9418,151.526) rotate(-90,5.5,0)" xml:space="preserve">
    <text fill="rgb(38,38,38)" x="0 5 " y="-2">y1</text>
   </g>
   <g font-family="FreeSans" font-size="10" font-style="normal" font-weight="normal" transform="translate(199.19,310.998) rotate(-0,17.5,-11)" xml:space="preserve">
    <text fill="rgb(38,38,38)" x="0 6 8 16 21 24 27 32 " y="-2">Time [s]</text>
   </g>
   <polyline fill="none" points="54.4343,239.273 58.4907,239.273 58.4907,213.427 62.5471,213.427 62.5471,167.076 66.6035,167.076 66.6035,128.52 70.6599,128.52 70.6599,97.3882 74.7163,97.3882 74.7163,73.2235 78.7727,73.2235 78.7727,55.5034 82.8291,55.5034 82.8291,43.659 86.8855,43.659 86.8855,37.0913 90.9419,37.0913 90.9419,35.1872 94.9983,35.1872 94.9983,37.3323 99.0547,37.3323 99.0547,42.9229 103.111,42.9229 103.111,51.3753 107.168,51.3753 107.168,62.1343 111.224,62.1343 111.224,74.679 115.28,74.679 115.28,88.5281 119.337,88.5281 119.337,103.243 123.393,103.243 123.393,118.431 127.45,118.431 127.45,133.743 131.506,133.743 131.506,148.88 135.562,148.88 135.562,163.584 139.619,163.584 139.619,177.643 143.675,177.643 143.675,190.886 147.732,190.886 147.732,203.182 151.788,203.182 151.788,214.435 155.844,214.435 155.844,224.58 159.901,224.58 159.901,233.585 163.957,233.585 163.957,241.441 168.014,241.441 168.014,248.163 172.07,248.163 172.07,253.783 176.126,253.783 176.126,258.352 180.183,258.352 180.183,261.93 184.239,261.93 184.239,264.59 188.296,264.59 188.296,266.41 192.352,266.41 192.352,267.473 196.408,267.473 196.408,267.865 200.465,267.865 200.465,267.673 204.521,267.673 204.521,266.981 208.578,266.981 208.578,265.871 212.634,265.871 212.634,264.423 216.69,264.423 216.69,262.71 220.747,262.71 220.747,260.801 224.803,260.801 224.803,258.759 228.86,258.759 228.86,256.64 232.916,256.64 232.916,254.494 236.972,254.494 236.972,252.365 241.029,252.365 241.029,250.29 245.085,250.29 245.085,248.3 249.142,248.3 249.142,246.419 253.198,246.419 253.198,244.668 257.254,244.668 257.254,243.06 261.311,243.06 261.311,241.607 265.367,241.607 265.367,240.312 269.424,240.312 269.424,239.179 273.48,239.179 273.48,238.205 277.536,238.205 277.536,237.387 281.593,237.387 281.593,236.717 285.649,236.717 285.649,236.189 289.706,236.189 289.706,235.791 293.762,235.791 293.762,235.513 297.818,235.513 297.818,235.343 301.875,235.343 301.875,235.27 305.931,235.27 305.931,235.282 309.988,235.282 309.988,235.365 314.044,235.365 314.044,235.51 318.1,235.51 318.1,235.704 322.157,235.704 322.157,235.937 326.213,235.937 326.213,236.2 330.27,236.2 330.27,236.483 334.326,236.483 334.326,236.778 338.382,236.778 338.382,237.079 342.439,237.079 342.439,237.378 346.495,237.378 346.495,237.671 350.552,237.671 350.552,237.952 354.608,237.952 354.608,238.219 358.664,238.219 358.664,238.469 362.721,238.469 362.721,238.698 366.777,238.698 366.777,238.906 370.834,238.906 370.834,239.092 374.89,239.092 374.89,239.255 378.946,239.255 378.946,239.396" stroke="#0071bc" stroke-linecap="butt" stroke-linejoin="round" stroke-width="0.5"/>
  </g>
 </g>
</svg>
