<?xml version='1.0' encoding='UTF-8' standalone='no'?>
<svg height="314pt" viewBox="0 0 418 314" width="418pt" xmlns="http://www.w3.org/2000/svg" xmlns:xlink="http://www.w3.org/1999/xlink">
 <title>Figure 1</title>
 <desc>
Creator: GL2PS 1.4.2, (C) 1999-2020 C. Geuzaine
For: Octave
CreationDate: Sun Feb  8 20:55:53 2026
</desc>
 <defs/>
 <polygon fill="#ffffff" points="0,0 418,0 418,314 0,314"/>
 <g>
  <polygon fill="#ffffff" points="0,314 418,314 418,0 0,0" shape-rendering="crispEdges"/>
  <clipPath id="cp00418314">
   <polygon points="0,314 418,314 418,0 0,0"/>
  </clipPath>
  <g clip-path="url(#cp00418314)">
   <polygon fill="#ffffff" points="54.4343,279.499 378.946,279.499 378.946,23.5533 54.4343,23.5533" shape-rendering="crispEdges"/>
   <polyline fill="none" points="54.4343,279.499 54.4343,23.5533" stroke="#262626" stroke-dasharray="16,0" stroke-linecap="butt" stroke-linejoin="miter" stroke-opacity="0.15" stroke-width="0.5"/>
   <polyline fill="none" points="119.337,279.499 119.337,23.5533" stroke="#262626" stroke-dasharray="16,0" stroke-linecap="butt" stroke-linejoin="miter" stroke-opacity="0.15" stroke-width="0.5"/>
   <polyline fill="none" points="184.239,279.499 184.239,23.5533" stroke="#262626" stroke-dasharray="16,0" stroke-linecap="butt" stroke-linejoin="miter" stroke-opacity="0.15" stroke-width="0.5"/>
   <polyline fill="none" points="249.142,279.499 249.142,23.5533" stroke="#262626" stroke-dasharray="16,0" stroke-linecap="butt" stroke-linejoin="miter" stroke-opacity="0.15" stroke-width="0.5"/>
   <polyline fill="none" points="314.044,279.499 314.044,23.5533" stroke="#262626" stroke-dasharray="16,0" stroke-linecap="butt" stroke-linejoin="miter" stroke-opacity="0.15" stroke-width="0.5"/>
   <polyline fill="none" points="378.946,279.499 378.946,23.5533" stroke="#262626" stroke-dasharray="16,0" stroke-linecap="butt" stroke-linejoin="miter" stroke-opacity="0.15" stroke-width="0.5"/>
   <polyline fill="none" points="54.4343,279.499 54.4343,276.255" stroke="#262626" stroke-linecap="butt" stroke-linejoin="miter" stroke-width="0.5"/>
   <polyline fill="none" points="54.4343,23.5533 54.4343,26.7977" stroke="#262626" stroke-linecap="butt" stroke-linejoin="miter" stroke-width="0.5"/>
   <polyline fill="none" points="119.337,279.499 119.337,276.255" stroke="#262626" stroke-linecap="butt" stroke-linejoin="miter" stroke-width="0.5"/>
   <polyline fill="none" points="119.337,23.5533 119.337,26.7977" stroke="#262626" stroke-linecap="butt" stroke-linejoin="miter" stroke-width="0.5"/>
   <polyline fill="none" points="184.239,279.499 184.239,276.255" stroke="#262626" stroke-linecap="butt" stroke-linejoin="miter" stroke-width="0.5"/>
   <polyline fill="none" points="184.239,23.5533 184.239,26.7977" stroke="#262626" stroke-linecap="butt" stroke-linejoin="miter" stroke-width="0.5"/>
   <polyline fill="none" points="249.142,279.499 249.142,276.255" stroke="#262626" stroke-linecap="butt" stroke-linejoin="miter" stroke-width="0.5"/>
   <polyline fill="none" points="249.142,23.5533 249.142,26.7977" stroke="#262626" stroke-linecap="butt" stroke-linejoin="miter" stroke-width="0.5"/>
   <polyline fill="none" points="314.044,279.499 314.044,276.255" stroke="#262626" stroke-linecap="butt" stroke-linejoin="miter" stroke-width="0.5"/>
   <polyline fill="none" points="314.044,23.5533 314.044,26.7977" stroke="#262626" stroke-linecap="butt" stroke-linejoin="miter" stroke-width="0.5"/>
   <polyline fill="none" points="378.946,279.499 378.946,276.255" stroke="#262626" stroke-linecap="butt" stroke-linejoin="miter" stroke-width="0.5"/>
   <polyline fill="none" points="378.946,23.5533 378.946,26.7977" stroke="#262626" stroke-linecap="butt" stroke-linejoin="miter" stroke-width="0.5"/>
   <g font-family="FreeSans" font-size="10" font-style="normal" font-weight="normal" transform="translate(51.4343,294.998) rotate(-0,3,-8)" xml:space="preserve">
    <text fill="rgb(38,38,38)" x="0 " y="-0">0</text>
   </g>
   <g font-family="FreeSans" font-size="10" font-style="normal" font-weight="normal" transform="translate(116.337,294.998) rotate(-0,3,-8)" xml:space="preserve">
    <text fill="rgb(38,38,38)" x="0 " y="-0">2</text>
   </g>
   <g font-family="FreeSans" font-size="10" font-style="normal" font-weight="normal" transform="translate(181.239,294.998) rotate(-0,3,-8)" xml:space="preserve">
    <text fill="rgb(38,38,38)" x="0 " y="-0">4</text>
   </g>
   <g font-family="FreeSans" font-size="10" font-style="normal" font-weight="normal" transform="translate(246.142,294.998) rotate(-0,3,-8)" xml:space="preserve">
    <text fill="rgb(38,38,38)" x="0 " y="-0">6</text>
   </g>
   <g font-family="FreeSans" font-size="10" font-style="normal" font-weight="normal" transform="translate(311.044,294.998) rotate(-0,3,-8)" xml:space="preserve">
    <text fill="rgb(38,38,38)" x="0 " y="-0">8</text>
   </g>
   <g font-family="FreeSans" font-size="10" font-style="normal" font-weight="normal" transform="translate(372.946,294.998) rotate(-0,6,-8)" xml:space="preserve">
    <text fill="rgb(38,38,38)" x="0 6 " y="-0">10</text>
   </g>
   <polyline fill="none" points="54.4343,270.034 378.946,270.034" stroke="#262626" stroke-dasharray="16,0" stroke-linecap="butt" stroke-linejoin="miter" stroke-opacity="0.15" stroke-width="0.5"/>
   <polyline fill="none" points="54.4343,216.039 378.946,216.039" stroke="#262626" stroke-dasharray="16,0" stroke-linecap="butt" stroke-linejoin="miter" stroke-opacity="0.15" stroke-width="0.5"/>
   <polyline fill="none" points="54.4343,162.044 378.946,162.044" stroke="#262626" stroke-dasharray="16,0" stroke-linecap="butt" stroke-linejoin="miter" stroke-opacity="0.15" stroke-width="0.5"/>
   <polyline fill="none" points="54.4343,108.049 378.946,108.049" stroke="#262626" stroke-dasharray="16,0" stroke-linecap="butt" stroke-linejoin="miter" stroke-opacity="0.15" stroke-width="0.5"/>
   <polyline fill="none" points="54.4343,54.0538 378.946,54.0538" stroke="#262626" stroke-dasharray="16,0" stroke-linecap="butt" stroke-linejoin="miter" stroke-opacity="0.15" stroke-width="0.5"/>
   <polyline fill="none" points="54.4343,270.034 57.6745,270.034" stroke="#262626" stroke-linecap="butt" stroke-linejoin="miter" stroke-width="0.5"/>
   <polyline fill="none" points="378.946,270.034 375.706,270.034" stroke="#262626" stroke-linecap="butt" stroke-linejoin="miter" stroke-width="0.5"/>
   <polyline fill="none" points="54.4343,216.039 57.6745,216.039" stroke="#262626" stroke-linecap="butt" stroke-linejoin="miter" stroke-width="0.5"/>
   <polyline fill="none" points="378.946,216.039 375.706,216.039" stroke="#262626" stroke-linecap="butt" stroke-linejoin="miter" stroke-width="0.5"/>
   <polyline fill="none" points="54.4343,162.044 57.6745,162.044" stroke="#262626" stroke-linecap="butt" stroke-linejoin="miter" stroke-width="0.5"/>
   <polyline fill="none" points="378.946,162.044 375.706,162.044" stroke="#262626" stroke-linecap="butt" stroke-linejoin="miter" stroke-width="0.5"/>
   <polyline fill="none" points="54.4343,108.049 57.6745,108.049" stroke="#262626" stroke-linecap="butt" stroke-linejoin="miter" stroke-width="0.5"/>
   <polyline fill="none" points="378.946,108.049 375.706,108.049" stroke="#262626" stroke-linecap="butt" stroke-linejoin="miter" stroke-width="0.5"/>
   <polyline fill="none" points="54.4343,54.0538 57.6745,54.0538" stroke="#262626" stroke-linecap="butt" stroke-linejoin="miter" stroke-width="0.5"/>
   <polyline fill="none" points="378.946,54.0538 375.706,54.0538" stroke="#262626" stroke-linecap="butt" stroke-linejoin="miter" stroke-width="0.5"/>
   <g font-family="FreeSans" font-size="10" font-style="normal" font-weight="normal" transform="translate(31.4418,274.034) rotate(-0,18,-4)" xml:space="preserve">
    <text fill="rgb(38,38,38)" x="0 3 9 12 " y="-0">-0.3</text>
   </g>
   <g font-family="FreeSans" font-size="10" font-style="normal" font-weight="normal" transform="translate(31.4418,220.039) rotate(-0,18,-4)" xml:space="preserve">
    <text fill="rgb(38,38,38)" x="0 3 9 12 " y="-0">-0.2</text>
   </g>
   <g font-family="FreeSans" font-size="10" font-style="normal" font-weight="normal" transform="translate(31.4418,166.044) rotate(-0,18,-4)" xml:space="preserve">
    <text fill="rgb(38,38,38)" x="0 3 9 12 " y="-0">-0.1</text>
   </g>
   <g font-family="FreeSans" font-size="10" font-style="normal" font-weight="normal" transform="translate(43.4418,112.049) rotate(-0,6,-4)" xml:space="preserve">
    <text fill="rgb(38,38,38)" x="0 " y="-0">0</text>
   </g>
   <g font-family="FreeSans" font-size="10" font-style="normal" font-weight="normal" transform="translate(34.4418,58.0538) rotate(-0,15,-4)" xml:space="preserve">
    <text fill="rgb(38,38,38)" x="0 6 9 " y="-0">0.1</text>
   </g>
   <polyline fill="none" points="54.4343,279.499 378.946,279.499" stroke="#262626" stroke-dasharray="16,0" stroke-linecap="square" stroke-linejoin="miter" stroke-width="0.5"/>
   <polyline fill="none" points="54.4343,23.5533 378.946,23.5533" stroke="#262626" stroke-dasharray="16,0" stroke-linecap="square" stroke-linejoin="miter" stroke-width="0.5"/>
   <polyline fill="none" points="54.4343,279.499 54.4343,23.5533" stroke="#262626" stroke-dasharray="16,0" stroke-linecap="square" stroke-linejoin="miter" stroke-width="0.5"/>
   <polyline fill="none" points="378.946,279.499 378.946,23.5533" stroke="#262626" stroke-dasharray="16,0" stroke-linecap="square" stroke-linejoin="miter" stroke-width="0.5"/>
   <g font-family="FreeSans" font-size="10" font-style="normal" font-weight="bold" transform="translate(153.69,13.5533) rotate(-0,63,0)" xml:space="preserve">
    <text fill="rgb(0,0,0)" x="0 6 9 15 21 27 31 34 41 44 53 59 62 68 71 74 80 86 89 96 102 108 114 117 120 " y="-1">Linear Simulation Results</text>
   </g>
   <g font-family="FreeSans" font-size="10" font-style="normal" font-weight="normal" transform="translate(20.9418,151.526) rotate(-90,5.5,0)" xml:space="preserve">
    <text fill="rgb(38,38,38)" x="0 5 " y="-2">y1</text>
   </g>
   <g font-family="FreeSans" font-size="10" font-style="normal" font-weight="normal" transform="translate(199.19,310.998) rotate(-0,17.5,-11)" xml:space="preserve">
    <text fill="rgb(38,38,38)" x="0 6 8 16 21 24 27 32 " y="-2">Time [s]</text>
   </g>
   <polyline fill="none" points="54.4343,108.049 54.7588,117.134 55.0833,126.024 55.4078,134.708 55.7323,143.175 56.0568,151.416 56.3814,159.42 56.7059,167.179 57.0304,174.685 57.3549,181.931 57.6794,188.908 58.0039,195.611 58.3284,202.034 58.6529,208.172 58.9775,214.02 59.302,219.574 59.6265,224.83 59.951,229.785 60.2755,234.438 60.6,238.785 60.9245,242.827 61.249,246.561 61.5736,249.989 61.8981,253.11 62.2226,255.925 62.5471,258.435 62.8716,260.643 63.1961,262.55 63.5206,264.159 63.8451,265.474 64.1696,266.497 64.4942,267.234 64.8187,267.689 65.1432,267.865 65.4677,267.77 65.7922,267.407 66.1167,266.783 66.4412,265.905 66.7658,264.778 67.0903,263.41 67.4148,261.807 67.7393,259.978 68.0638,257.929 68.3883,255.668 68.7128,253.204 69.0373,250.544 69.3618,247.697 69.6864,244.672 70.0109,241.476 70.3354,238.119 70.6599,234.61 70.9844,230.957 71.3089,227.17 71.6334,223.258 71.9579,219.228 72.2824,215.092 72.607,210.857 72.9315,206.533 73.256,202.129 73.5805,197.654 73.905,193.117 74.2295,188.526 74.554,183.891 74.8786,179.22 75.2031,174.522 75.5276,169.805 75.8521,165.077 76.1766,160.347 76.5011,155.623 76.8256,150.912 77.1501,146.223 77.4746,141.562 77.7992,136.936 78.1237,132.354 78.4482,127.822 78.7727,123.346 79.0972,118.933 79.4217,114.589 79.7462,110.32 80.0707,106.132 80.3953,102.03 80.7198,98.019 81.0443,94.1046 81.3688,90.2912 81.6933,86.5831 82.0178,82.9846 82.3423,79.4996 82.6668,76.1316 82.9914,72.884 83.3159,69.7599 83.6404,66.762 83.9649,63.8931 84.2894,61.1552 84.6139,58.5504 84.9384,56.0806 85.2629,53.7471 85.5874,51.5512 85.912,49.4939 86.2365,47.5758 86.561,45.7975 86.8855,44.1591 87.21,42.6607 87.5345,41.3021 87.859,40.0826 88.1835,39.0017 88.5081,38.0584 88.8326,37.2515 89.1571,36.5798 89.4816,36.0417 89.8061,35.6353 90.1306,35.3589 90.4551,35.2103 90.7796,35.1872 91.1042,35.2872 91.4287,35.5076 91.7532,35.8458 92.0777,36.2988 92.4022,36.8635 92.7267,37.5369 93.0512,38.3156 93.3757,39.1962 93.7003,40.1753 94.0248,41.2491 94.3493,42.4142 94.6738,43.6667 94.9983,45.0026 95.3228,46.4182 95.6473,47.9095 95.9718,49.4725 96.2963,51.1031 96.6209,52.7973 96.9454,54.5509 97.2699,56.3598 97.5944,58.2199 97.9189,60.127 98.2434,62.0769 98.5679,64.0657 98.8924,66.089 99.217,68.1429 99.5415,70.2233 99.866,72.3262 100.19,74.4475 100.515,76.5834 100.84,78.7299 101.164,80.8833 101.489,83.0398 101.813,85.1956 102.138,87.3472 102.462,89.4911 102.787,91.6237 103.111,93.7417 103.436,95.8419 103.76,97.921 104.085,99.976 104.409,102.004 104.734,104.002 105.058,105.967 105.383,107.897 105.707,109.789 106.032,111.64 106.356,113.449 106.681,115.212 107.005,116.929 107.33,118.597 107.654,120.214 107.979,121.779 108.303,123.289 108.628,124.744 108.952,126.142 109.277,127.482 109.601,128.763 109.926,129.983 110.25,131.143 110.575,132.24 110.899,133.276 111.224,134.248 111.548,135.157 111.873,136.002 112.197,136.783 112.522,137.501 112.846,138.155 113.171,138.745 113.495,139.272 113.82,139.736 114.145,140.137 114.469,140.477 114.794,140.755 115.118,140.972 115.443,141.13 115.767,141.229 116.092,141.271 116.416,141.255 116.741,141.184 117.065,141.059 117.39,140.88 117.714,140.65 118.039,140.37 118.363,140.04 118.688,139.664 119.012,139.241 119.337,138.775 119.661,138.266 119.986,137.716 120.31,137.127 120.635,136.501 120.959,135.84 121.284,135.145 121.608,134.418 121.933,133.661 122.257,132.875 122.582,132.064 122.906,131.228 123.231,130.37 123.555,129.491 123.88,128.594 124.204,127.68 124.529,126.751 124.853,125.808 125.178,124.855 125.502,123.892 125.827,122.921 126.151,121.945 126.476,120.965 126.8,119.982 127.125,118.999 127.45,118.017 127.774,117.037 128.099,116.062 128.423,115.092 128.748,114.13 129.072,113.177 129.397,112.234 129.721,111.302 130.046,110.384 130.37,109.48 130.695,108.591 131.019,107.719 131.344,106.865 131.668,106.029 131.993,105.214 132.317,104.42 132.642,103.647 132.966,102.897 133.291,102.171 133.615,101.469 133.94,100.792 134.264,100.14 134.589,99.5148 134.913,98.9162 135.238,98.3449 135.562,97.8012 135.887,97.2855 136.211,96.7982 136.536,96.3394 136.86,95.9094 137.185,95.5084 137.509,95.1364 137.834,94.7935 138.158,94.4797 138.483,94.1949 138.807,93.9391 139.132,93.7122 139.456,93.5138 139.781,93.3438 140.105,93.202 140.43,93.0879 140.755,93.0013 141.079,92.9417 141.404,92.9087 141.728,92.9018 142.053,92.9206 142.377,92.9644 142.702,93.0328 143.026,93.1251 143.351,93.2406 143.675,93.3789 144,93.539 144.324,93.7204 144.649,93.9223 144.973,94.144 145.298,94.3848 145.622,94.6437 145.947,94.9201 146.271,95.213 146.596,95.5218 146.92,95.8456 147.245,96.1835 147.569,96.5346 147.894,96.8982 148.218,97.2734 148.543,97.6592 148.867,98.0549 149.192,98.4596 149.516,98.8724 149.841,99.2925 150.165,99.719 150.49,100.151 150.814,100.588 151.139,101.029 151.463,101.472 151.788,101.918 152.112,102.366 152.437,102.814 152.761,103.262 153.086,103.71 153.41,104.156 153.735,104.599 154.059,105.04 154.384,105.477 154.709,105.909 155.033,106.337 155.358,106.759 155.682,107.175 156.007,107.584 156.331,107.986 156.656,108.379 156.98,108.765 157.305,109.142 157.629,109.509 157.954,109.867 158.278,110.214 158.603,110.551 158.927,110.878 159.252,111.192 159.576,111.496 159.901,111.787 160.225,112.067 160.55,112.334 160.874,112.589 161.199,112.831 161.523,113.06 161.848,113.276 162.172,113.479 162.497,113.669 162.821,113.846 163.146,114.01 163.47,114.16 163.795,114.297 164.119,114.421 164.444,114.531 164.768,114.629 165.093,114.713 165.417,114.785 165.742,114.844 166.066,114.89 166.391,114.924 166.715,114.945 167.04,114.955 167.365,114.952 167.689,114.939 168.014,114.913 168.338,114.877 168.663,114.83 168.987,114.773 169.312,114.705 169.636,114.627 169.961,114.54 170.285,114.444 170.61,114.339 170.934,114.225 171.259,114.104 171.583,113.974 171.908,113.837 172.232,113.693 172.557,113.543 172.881,113.386 173.206,113.223 173.53,113.055 173.855,112.881 174.179,112.703 174.504,112.521 174.828,112.335 175.153,112.145 175.477,111.952 175.802,111.756 176.126,111.558 176.451,111.358 176.775,111.157 177.1,110.954 177.424,110.75 177.749,110.546 178.073,110.341 178.398,110.137 178.722,109.933 179.047,109.731 179.371,109.529 179.696,109.329 180.02,109.131 180.345,108.934 180.669,108.74 180.994,108.549 181.319,108.361 181.643,108.176 181.968,107.995 182.292,107.817 182.617,107.643 182.941,107.473 183.266,107.307 183.59,107.146 183.915,106.99 184.239,106.839 184.564,106.692 184.888,106.551 185.213,106.415 185.537,106.285 185.862,106.16 186.186,106.041 186.511,105.927 186.835,105.82 187.16,105.718 187.484,105.622 187.809,105.532 188.133,105.448 188.458,105.371 188.782,105.299 189.107,105.233 189.431,105.173 189.756,105.12 190.08,105.072 190.405,105.03 190.729,104.995 191.054,104.965 191.378,104.94 191.703,104.922 192.027,104.909 192.352,104.902 192.676,104.9 193.001,104.903 193.325,104.912 193.65,104.926 193.975,104.945 194.299,104.968 194.624,104.997 194.948,105.03 195.273,105.067 195.597,105.109 195.922,105.154 196.246,105.204 196.571,105.258 196.895,105.315 197.22,105.376 197.544,105.439 197.869,105.507 198.193,105.577 198.518,105.649 198.842,105.725 199.167,105.803 199.491,105.883 199.816,105.965 200.14,106.049 200.465,106.134 200.789,106.222 201.114,106.31 201.438,106.4 201.763,106.491 202.087,106.582 202.412,106.674 202.736,106.767 203.061,106.86 203.385,106.953 203.71,107.046 204.034,107.139 204.359,107.232 204.683,107.324 205.008,107.416 205.332,107.507 205.657,107.597 205.981,107.686 206.306,107.774 206.63,107.86 206.955,107.945 207.279,108.029 207.604,108.111 207.929,108.191 208.253,108.27 208.578,108.346 208.902,108.421 209.227,108.493 209.551,108.564 209.876,108.632 210.2,108.697 210.525,108.76 210.849,108.821 211.174,108.88 211.498,108.935 211.823,108.988 212.147,109.039 212.472,109.087 212.796,109.132 213.121,109.174 213.445,109.214 213.77,109.251 214.094,109.285 214.419,109.317 214.743,109.345 215.068,109.371 215.392,109.395 215.717,109.415 216.041,109.433 216.366,109.448 216.69,109.46 217.015,109.47 217.339,109.477 217.664,109.482 217.988,109.484 218.313,109.484 218.637,109.481 218.962,109.476 219.286,109.469 219.611,109.459 219.935,109.448 220.26,109.434 220.584,109.418 220.909,109.4 221.234,109.38 221.558,109.358 221.883,109.335 222.207,109.31 222.532,109.283 222.856,109.254 223.181,109.225 223.505,109.193 223.83,109.161 224.154,109.127 224.479,109.092 224.803,109.056 225.128,109.019 225.452,108.982 225.777,108.943 226.101,108.903 226.426,108.863 226.75,108.823 227.075,108.782 227.399,108.74 227.724,108.698 228.048,108.656 228.373,108.614 228.697,108.571 229.022,108.529 229.346,108.486 229.671,108.444 229.995,108.402 230.32,108.36 230.644,108.318 230.969,108.277 231.293,108.236 231.618,108.196 231.942,108.156 232.267,108.117 232.591,108.078 232.916,108.04 233.24,108.003 233.565,107.967 233.889,107.932 234.214,107.897 234.539,107.864 234.863,107.831 235.188,107.8 235.512,107.769 235.837,107.74 236.161,107.711 236.486,107.684 236.81,107.658 237.135,107.633 237.459,107.61 237.784,107.587 238.108,107.566 238.433,107.546 238.757,107.527 239.082,107.51 239.406,107.493 239.731,107.478 240.055,107.465 240.38,107.452 240.704,107.441 241.029,107.431 241.353,107.422 241.678,107.414 242.002,107.408 242.327,107.403 242.651,107.399 242.976,107.396 243.3,107.395 243.625,107.394 243.949,107.395 244.274,107.397 244.598,107.399 244.923,107.403 245.247,107.408 245.572,107.414 245.896,107.421 246.221,107.428 246.545,107.437 246.87,107.446 247.194,107.457 247.519,107.468 247.844,107.48 248.168,107.492 248.493,107.505 248.817,107.519 249.142,107.534 249.466,107.549 249.791,107.564 250.115,107.581 250.44,107.597 250.764,107.614 251.089,107.632 251.413,107.649 251.738,107.667 252.062,107.686 252.387,107.705 252.711,107.723 253.036,107.742 253.36,107.762 253.685,107.781 254.009,107.8 254.334,107.82 254.658,107.839 254.983,107.858 255.307,107.878 255.632,107.897 255.956,107.916 256.281,107.935 256.605,107.953 256.93,107.972 257.254,107.99 257.579,108.008 257.903,108.026 258.228,108.043 258.552,108.06 258.877,108.077 259.201,108.093 259.526,108.109 259.85,108.125 260.175,108.14 260.499,108.155 260.824,108.169 261.148,108.183 261.473,108.196 261.798,108.208 262.122,108.221 262.447,108.232 262.771,108.243 263.096,108.254 263.42,108.264 263.745,108.273 264.069,108.282 264.394,108.29 264.718,108.298 265.043,108.305 265.367,108.312 265.692,108.318 266.016,108.323 266.341,108.328 266.665,108.333 266.99,108.336 267.314,108.339 267.639,108.342 267.963,108.344 268.288,108.346 268.612,108.347 268.937,108.347 269.261,108.347 269.586,108.347 269.91,108.346 270.235,108.344 270.559,108.342 270.884,108.34 271.208,108.337 271.533,108.334 271.857,108.33 272.182,108.326 272.506,108.321 272.831,108.317 273.155,108.311 273.48,108.306 273.804,108.3 274.129,108.294 274.453,108.287 274.778,108.281 275.103,108.274 275.427,108.266 275.752,108.259 276.076,108.251 276.401,108.243 276.725,108.235 277.05,108.227 277.374,108.219 277.699,108.21 278.023,108.202 278.348,108.193 278.672,108.184 278.997,108.176 279.321,108.167 279.646,108.158 279.97,108.149 280.295,108.14 280.619,108.132 280.944,108.123 281.268,108.114 281.593,108.105 281.917,108.097 282.242,108.088 282.566,108.08 282.891,108.072 283.215,108.064 283.54,108.056 283.864,108.048 284.189,108.04 284.513,108.032 284.838,108.025 285.162,108.018 285.487,108.011 285.811,108.004 286.136,107.998 286.46,107.991 286.785,107.985 287.109,107.979 287.434,107.973 287.759,107.968 288.083,107.963 288.408,107.958 288.732,107.953 289.057,107.949 289.381,107.945 289.706,107.941 290.03,107.937 290.355,107.934 290.679,107.93 291.004,107.928 291.328,107.925 291.653,107.923 291.977,107.92 292.302,107.919 292.626,107.917 292.951,107.916 293.275,107.915 293.6,107.914 293.924,107.913 294.249,107.913 294.573,107.913 294.898,107.913 295.222,107.913 295.547,107.914 295.871,107.915 296.196,107.916 296.52,107.917 296.845,107.918 297.169,107.92 297.494,107.921 297.818,107.923 298.143,107.926 298.467,107.928 298.792,107.93 299.116,107.933 299.441,107.936 299.765,107.938 300.09,107.941 300.414,107.945 300.739,107.948 301.064,107.951 301.388,107.955 301.713,107.958 302.037,107.962 302.362,107.965 302.686,107.969 303.011,107.973 303.335,107.977 303.66,107.981 303.984,107.985 304.309,107.989 304.633,107.993 304.958,107.997 305.282,108.001 305.607,108.005 305.931,108.009 306.256,108.013 306.58,108.017 306.905,108.021 307.229,108.025 307.554,108.029 307.878,108.033 308.203,108.036 308.527,108.04 308.852,108.044 309.176,108.047 309.501,108.051 309.825,108.054 310.15,108.058 310.474,108.061 310.799,108.064 311.123,108.068 311.448,108.071 311.772,108.074 312.097,108.076 312.421,108.079 312.746,108.082 313.07,108.084 313.395,108.087 313.719,108.089 314.044,108.091 314.368,108.093 314.693,108.095 315.017,108.097 315.342,108.099 315.667,108.101 315.991,108.102 316.316,108.103 316.64,108.105 316.965,108.106 317.289,108.107 317.614,108.108 317.938,108.109 318.263,108.109 318.587,108.11 318.912,108.11 319.236,108.111 319.561,108.111 319.885,108.111 320.21,108.111 320.534,108.111 320.859,108.111 321.183,108.11 321.508,108.11 321.832,108.109 322.157,108.109 322.481,108.108 322.806,108.107 323.13,108.106 323.455,108.106 323.779,108.105 324.104,108.103 324.428,108.102 324.753,108.101 325.077,108.1 325.402,108.098 325.726,108.097 326.051,108.096 326.375,108.094 326.7,108.093 327.024,108.091 327.349,108.089 327.673,108.088 327.998,108.086 328.322,108.084 328.647,108.083 328.972,108.081 329.296,108.079 329.621,108.077 329.945,108.075 330.27,108.074 330.594,108.072 330.919,108.07 331.243,108.068 331.568,108.066 331.892,108.064 332.217,108.063 332.541,108.061 332.866,108.059 333.19,108.057 333.515,108.055 333.839,108.054 334.164,108.052 334.488,108.05 334.813,108.049 335.137,108.047 335.462,108.046 335.786,108.044 336.111,108.042 336.435,108.041 336.76,108.04 337.084,108.038 337.409,108.037 337.733,108.036 338.058,108.034 338.382,108.033 338.707,108.032 339.031,108.031 339.356,108.03 339.68,108.029 340.005,108.028 340.329,108.027 340.654,108.026 340.978,108.026 341.303,108.025 341.628,108.024 341.952,108.024 342.277,108.023 342.601,108.023 342.926,108.022 343.25,108.022 343.575,108.021 343.899,108.021 344.224,108.021 344.548,108.021 344.873,108.021 345.197,108.021 345.522,108.021 345.846,108.021 346.171,108.021 346.495,108.021 346.82,108.021 347.144,108.021 347.469,108.021 347.793,108.022 348.118,108.022 348.442,108.022 348.767,108.023 349.091,108.023 349.416,108.024 349.74,108.024 350.065,108.025 350.389,108.025 350.714,108.026 351.038,108.026 351.363,108.027 351.687,108.028 352.012,108.028 352.336,108.029 352.661,108.03 352.985,108.031 353.31,108.031 353.634,108.032 353.959,108.033 354.283,108.034 354.608,108.035 354.932,108.035 355.257,108.036 355.582,108.037 355.906,108.038 356.231,108.039 356.555,108.04 356.88,108.04 357.204,108.041 357.529,108.042 357.853,108.043 358.178,108.044 358.502,108.045 358.827,108.045 359.151,108.046 359.476,108.047 359.8,108.048 360.125,108.048 360.449,108.049 360.774,108.05 361.098,108.051 361.423,108.051 361.747,108.052 362.072,108.053 362.396,108.053 362.721,108.054 363.045,108.054 363.37,108.055 363.694,108.056 364.019,108.056 364.343,108.057 364.668,108.057 364.992,108.058 365.317,108.058 365.641,108.058 365.966,108.059 366.29,108.059 366.615,108.06 366.939,108.06 367.264,108.06 367.588,108.06 367.913,108.061 368.237,108.061 368.562,108.061 368.887,108.061 369.211,108.061 369.536,108.061 369.86,108.062 370.185,108.062 370.509,108.062 370.834,108.062 371.158,108.062 371.483,108.062 371.807,108.062 372.132,108.062 372.456,108.061 372.781,108.061 373.105,108.061 373.43,108.061 373.754,108.061 374.079,108.061 374.403,108.061 374.728,108.06 375.052,108.06 375.377,108.06 375.701,108.06 376.026,108.059 376.35,108.059 376.675,108.059 376.999,108.059 377.324,108.058 377.648,108.058 377.973,108.058 378.297,108.057 378.622,108.057 378.946,108.057" stroke="#0071bc" stroke-linecap="butt" stroke-linejoin="round" stroke-width="0.5"/>
   <polyline fill="none" points="54.4343,108.049 54.7588,108.049 55.0833,108.049 55.4078,108.049 55.7323,108.049 56.0568,108.049 56.3814,108.049 56.7059,108.049 57.0304,108.049 57.3549,108.049 57.6794,108.049 58.0039,108.049 58.3284,108.049 58.6529,108.049 58.9775,108.049 59.302,108.049 59.6265,108.049 59.951,108.049 60.2755,108.049 60.6,108.049 60.9245,108.049 61.249,108.049 61.5736,108.049 61.8981,108.049 62.2226,108.049 62.5471,108.049 62.8716,108.049 63.1961,108.049 63.5206,108.049 63.8451,108.049 64.1696,108.049 64.4942,108.049 64.8187,108.049 65.1432,108.049 65.4677,108.049 65.7922,108.049 66.1167,108.049 66.4412,108.049 66.7658,108.049 67.0903,108.049 67.4148,108.049 67.7393,108.049 68.0638,108.049 68.3883,108.049 68.7128,108.049 69.0373,108.049 69.3618,108.049 69.6864,108.049 70.0109,108.049 70.3354,108.049 70.6599,108.049 70.9844,108.049 71.3089,108.049 71.6334,108.049 71.9579,108.049 72.2824,108.049 72.607,108.049 72.9315,108.049 73.256,108.049 73.5805,108.049 73.905,108.049 74.2295,108.049 74.554,108.049 74.8786,108.049 75.2031,108.049 75.5276,108.049 75.8521,108.049 76.1766,108.049 76.5011,108.049 76.8256,108.049 77.1501,108.049 77.4746,108.049 77.7992,108.049 78.1237,108.049 78.4482,108.049 78.7727,108.049 79.0972,108.049 79.4217,108.049 79.7462,108.049 80.0707,108.049 80.3953,108.049 80.7198,108.049 81.0443,108.049 81.3688,108.049 81.6933,108.049 82.0178,108.049 82.3423,108.049 82.6668,108.049 82.9914,108.049 83.3159,108.049 83.6404,108.049 83.9649,108.049 84.2894,108.049 84.6139,108.049 84.9384,108.049 85.2629,108.049 85.5874,108.049 85.912,108.049 86.2365,108.049 86.561,108.049 86.8855,108.049 87.21,108.049 87.5345,108.049 87.859,108.049 88.1835,108.049 88.5081,108.049 88.8326,108.049 89.1571,108.049 89.4816,108.049 89.8061,108.049 90.1306,108.049 90.4551,108.049 90.7796,108.049 91.1042,108.049 91.4287,108.049 91.7532,108.049 92.0777,108.049 92.4022,108.049 92.7267,108.049 93.0512,108.049 93.3757,108.049 93.7003,108.049 94.0248,108.049 94.3493,108.049 94.6738,108.049 94.9983,108.049 95.3228,108.049 95.6473,108.049 95.9718,108.049 96.2963,108.049 96.6209,108.049 96.9454,108.049 97.2699,108.049 97.5944,108.049 97.9189,108.049 98.2434,108.049 98.5679,108.049 98.8924,108.049 99.217,108.049 99.5415,108.049 99.866,108.049 100.19,108.049 100.515,108.049 100.84,108.049 101.164,108.049 101.489,108.049 101.813,108.049 102.138,108.049 102.462,108.049 102.787,108.049 103.111,108.049 103.436,108.049 103.76,108.049 104.085,108.049 104.409,108.049 104.734,108.049 105.058,108.049 105.383,108.049 105.707,108.049 106.032,108.049 106.356,108.049 106.681,108.049 107.005,108.049 107.33,108.049 107.654,108.049 107.979,108.049 108.303,108.049 108.628,108.049 108.952,108.049 109.277,108.049 109.601,108.049 109.926,108.049 110.25,108.049 110.575,108.049 110.899,108.049 111.224,108.049 111.548,108.049 111.873,108.049 112.197,108.049 112.522,108.049 112.846,108.049 113.171,108.049 113.495,108.049 113.82,108.049 114.145,108.049 114.469,108.049 114.794,108.049 115.118,108.049 115.443,108.049 115.767,108.049 116.092,108.049 116.416,108.049 116.741,108.049 117.065,108.049 117.39,108.049 117.714,108.049 118.039,108.049 118.363,108.049 118.688,108.049 119.012,108.049 119.337,108.049 119.661,108.049 119.986,108.049 120.31,108.049 120.635,108.049 120.959,108.049 121.284,108.049 121.608,108.049 121.933,108.049 122.257,108.049 122.582,108.049 122.906,108.049 123.231,108.049 123.555,108.049 123.88,108.049 124.204,108.049 124.529,108.049 124.853,108.049 125.178,108.049 125.502,108.049 125.827,108.049 126.151,108.049 126.476,108.049 126.8,108.049 127.125,108.049 127.45,108.049 127.774,108.049 128.099,108.049 128.423,108.049 128.748,108.049 129.072,108.049 129.397,108.049 129.721,108.049 130.046,108.049 130.37,108.049 130.695,108.049 131.019,108.049 131.344,108.049 131.668,108.049 131.993,108.049 132.317,108.049 132.642,108.049 132.966,108.049 133.291,108.049 133.615,108.049 133.94,108.049 134.264,108.049 134.589,108.049 134.913,108.049 135.238,108.049 135.562,108.049 135.887,108.049 136.211,108.049 136.536,108.049 136.86,108.049 137.185,108.049 137.509,108.049 137.834,108.049 138.158,108.049 138.483,108.049 138.807,108.049 139.132,108.049 139.456,108.049 139.781,108.049 140.105,108.049 140.43,108.049 140.755,108.049 141.079,108.049 141.404,108.049 141.728,108.049 142.053,108.049 142.377,108.049 142.702,108.049 143.026,108.049 143.351,108.049 143.675,108.049 144,108.049 144.324,108.049 144.649,108.049 144.973,108.049 145.298,108.049 145.622,108.049 145.947,108.049 146.271,108.049 146.596,108.049 146.92,108.049 147.245,108.049 147.569,108.049 147.894,108.049 148.218,108.049 148.543,108.049 148.867,108.049 149.192,108.049 149.516,108.049 149.841,108.049 150.165,108.049 150.49,108.049 150.814,108.049 151.139,108.049 151.463,108.049 151.788,108.049 152.112,108.049 152.437,108.049 152.761,108.049 153.086,108.049 153.41,108.049 153.735,108.049 154.059,108.049 154.384,108.049 154.709,108.049 155.033,108.049 155.358,108.049 155.682,108.049 156.007,108.049 156.331,108.049 156.656,108.049 156.98,108.049 157.305,108.049 157.629,108.049 157.954,108.049 158.278,108.049 158.603,108.049 158.927,108.049 159.252,108.049 159.576,108.049 159.901,108.049 160.225,108.049 160.55,108.049 160.874,108.049 161.199,108.049 161.523,108.049 161.848,108.049 162.172,108.049 162.497,108.049 162.821,108.049 163.146,108.049 163.47,108.049 163.795,108.049 164.119,108.049 164.444,108.049 164.768,108.049 165.093,108.049 165.417,108.049 165.742,108.049 166.066,108.049 166.391,108.049 166.715,108.049 167.04,108.049 167.365,108.049 167.689,108.049 168.014,108.049 168.338,108.049 168.663,108.049 168.987,108.049 169.312,108.049 169.636,108.049 169.961,108.049 170.285,108.049 170.61,108.049 170.934,108.049 171.259,108.049 171.583,108.049 171.908,108.049 172.232,108.049 172.557,108.049 172.881,108.049 173.206,108.049 173.53,108.049 173.855,108.049 174.179,108.049 174.504,108.049 174.828,108.049 175.153,108.049 175.477,108.049 175.802,108.049 176.126,108.049 176.451,108.049 176.775,108.049 177.1,108.049 177.424,108.049 177.749,108.049 178.073,108.049 178.398,108.049 178.722,108.049 179.047,108.049 179.371,108.049 179.696,108.049 180.02,108.049 180.345,108.049 180.669,108.049 180.994,108.049 181.319,108.049 181.643,108.049 181.968,108.049 182.292,108.049 182.617,108.049 182.941,108.049 183.266,108.049 183.59,108.049 183.915,108.049 184.239,108.049 184.564,108.049 184.888,108.049 185.213,108.049 185.537,108.049 185.862,108.049 186.186,108.049 186.511,108.049 186.835,108.049 187.16,108.049 187.484,108.049 187.809,108.049 188.133,108.049 188.458,108.049 188.782,108.049 189.107,108.049 189.431,108.049 189.756,108.049 190.08,108.049 190.405,108.049 190.729,108.049 191.054,108.049 191.378,108.049 191.703,108.049 192.027,108.049 192.352,108.049 192.676,108.049 193.001,108.049 193.325,108.049 193.65,108.049 193.975,108.049 194.299,108.049 194.624,108.049 194.948,108.049 195.273,108.049 195.597,108.049 195.922,108.049 196.246,108.049 196.571,108.049 196.895,108.049 197.22,108.049 197.544,108.049 197.869,108.049 198.193,108.049 198.518,108.049 198.842,108.049 199.167,108.049 199.491,108.049 199.816,108.049 200.14,108.049 200.465,108.049 200.789,108.049 201.114,108.049 201.438,108.049 201.763,108.049 202.087,108.049 202.412,108.049 202.736,108.049 203.061,108.049 203.385,108.049 203.71,108.049 204.034,108.049 204.359,108.049 204.683,108.049 205.008,108.049 205.332,108.049 205.657,108.049 205.981,108.049 206.306,108.049 206.63,108.049 206.955,108.049 207.279,108.049 207.604,108.049 207.929,108.049 208.253,108.049 208.578,108.049 208.902,108.049 209.227,108.049 209.551,108.049 209.876,108.049 210.2,108.049 210.525,108.049 210.849,108.049 211.174,108.049 211.498,108.049 211.823,108.049 212.147,108.049 212.472,108.049 212.796,108.049 213.121,108.049 213.445,108.049 213.77,108.049 214.094,108.049 214.419,108.049 214.743,108.049 215.068,108.049 215.392,108.049 215.717,108.049 216.041,108.049 216.366,108.049 216.69,108.049 217.015,108.049 217.339,108.049 217.664,108.049 217.988,108.049 218.313,108.049 218.637,108.049 218.962,108.049 219.286,108.049 219.611,108.049 219.935,108.049 220.26,108.049 220.584,108.049 220.909,108.049 221.234,108.049 221.558,108.049 221.883,108.049 222.207,108.049 222.532,108.049 222.856,108.049 223.181,108.049 223.505,108.049 223.83,108.049 224.154,108.049 224.479,108.049 224.803,108.049 225.128,108.049 225.452,108.049 225.777,108.049 226.101,108.049 226.426,108.049 226.75,108.049 227.075,108.049 227.399,108.049 227.724,108.049 228.048,108.049 228.373,108.049 228.697,108.049 229.022,108.049 229.346,108.049 229.671,108.049 229.995,108.049 230.32,108.049 230.644,108.049 230.969,108.049 231.293,108.049 231.618,108.049 231.942,108.049 232.267,108.049 232.591,108.049 232.916,108.049 233.24,108.049 233.565,108.049 233.889,108.049 234.214,108.049 234.539,108.049 234.863,108.049 235.188,108.049 235.512,108.049 235.837,108.049 236.161,108.049 236.486,108.049 236.81,108.049 237.135,108.049 237.459,108.049 237.784,108.049 238.108,108.049 238.433,108.049 238.757,108.049 239.082,108.049 239.406,108.049 239.731,108.049 240.055,108.049 240.38,108.049 240.704,108.049 241.029,108.049 241.353,108.049 241.678,108.049 242.002,108.049 242.327,108.049 242.651,108.049 242.976,108.049 243.3,108.049 243.625,108.049 243.949,108.049 244.274,108.049 244.598,108.049 244.923,108.049 245.247,108.049 245.572,108.049 245.896,108.049 246.221,108.049 246.545,108.049 246.87,108.049 247.194,108.049 247.519,108.049 247.844,108.049 248.168,108.049 248.493,108.049 248.817,108.049 249.142,108.049 249.466,108.049 249.791,108.049 250.115,108.049 250.44,108.049 250.764,108.049 251.089,108.049 251.413,108.049 251.738,108.049 252.062,108.049 252.387,108.049 252.711,108.049 253.036,108.049 253.36,108.049 253.685,108.049 254.009,108.049 254.334,108.049 254.658,108.049 254.983,108.049 255.307,108.049 255.632,108.049 255.956,108.049 256.281,108.049 256.605,108.049 256.93,108.049 257.254,108.049 257.579,108.049 257.903,108.049 258.228,108.049 258.552,108.049 258.877,108.049 259.201,108.049 259.526,108.049 259.85,108.049 260.175,108.049 260.499,108.049 260.824,108.049 261.148,108.049 261.473,108.049 261.798,108.049 262.122,108.049 262.447,108.049 262.771,108.049 263.096,108.049 263.42,108.049 263.745,108.049 264.069,108.049 264.394,108.049 264.718,108.049 265.043,108.049 265.367,108.049 265.692,108.049 266.016,108.049 266.341,108.049 266.665,108.049 266.99,108.049 267.314,108.049 267.639,108.049 267.963,108.049 268.288,108.049 268.612,108.049 268.937,108.049 269.261,108.049 269.586,108.049 269.91,108.049 270.235,108.049 270.559,108.049 270.884,108.049 271.208,108.049 271.533,108.049 271.857,108.049 272.182,108.049 272.506,108.049 272.831,108.049 273.155,108.049 273.48,108.049 273.804,108.049 274.129,108.049 274.453,108.049 274.778,108.049 275.103,108.049 275.427,108.049 275.752,108.049 276.076,108.049 276.401,108.049 276.725,108.049 277.05,108.049 277.374,108.049 277.699,108.049 278.023,108.049 278.348,108.049 278.672,108.049 278.997,108.049 279.321,108.049 279.646,108.049 279.97,108.049 280.295,108.049 280.619,108.049 280.944,108.049 281.268,108.049 281.593,108.049 281.917,108.049 282.242,108.049 282.566,108.049 282.891,108.049 283.215,108.049 283.54,108.049 283.864,108.049 284.189,108.049 284.513,108.049 284.838,108.049 285.162,108.049 285.487,108.049 285.811,108.049 286.136,108.049 286.46,108.049 286.785,108.049 287.109,108.049 287.434,108.049 287.759,108.049 288.083,108.049 288.408,108.049 288.732,108.049 289.057,108.049 289.381,108.049 289.706,108.049 290.03,108.049 290.355,108.049 290.679,108.049 291.004,108.049 291.328,108.049 291.653,108.049 291.977,108.049 292.302,108.049 292.626,108.049 292.951,108.049 293.275,108.049 293.6,108.049 293.924,108.049 294.249,108.049 294.573,108.049 294.898,108.049 295.222,108.049 295.547,108.049 295.871,108.049 296.196,108.049 296.52,108.049 296.845,108.049 297.169,108.049 297.494,108.049 297.818,108.049 298.143,108.049 298.467,108.049 298.792,108.049 299.116,108.049 299.441,108.049 299.765,108.049 300.09,108.049 300.414,108.049 300.739,108.049 301.064,108.049 301.388,108.049 301.713,108.049 302.037,108.049 302.362,108.049 302.686,108.049 303.011,108.049 303.335,108.049 303.66,108.049 303.984,108.049 304.309,108.049 304.633,108.049 304.958,108.049 305.282,108.049 305.607,108.049 305.931,108.049 306.256,108.049 306.58,108.049 306.905,108.049 307.229,108.049 307.554,108.049 307.878,108.049 308.203,108.049 308.527,108.049 308.852,108.049 309.176,108.049 309.501,108.049 309.825,108.049 310.15,108.049 310.474,108.049 310.799,108.049 311.123,108.049 311.448,108.049 311.772,108.049 312.097,108.049 312.421,108.049 312.746,108.049 313.07,108.049 313.395,108.049 313.719,108.049 314.044,108.049 314.368,108.049 314.693,108.049 315.017,108.049 315.342,108.049 315.667,108.049 315.991,108.049 316.316,108.049 316.64,108.049 316.965,108.049 317.289,108.049 317.614,108.049 317.938,108.049 318.263,108.049 318.587,108.049 318.912,108.049 319.236,108.049 319.561,108.049 319.885,108.049 320.21,108.049 320.534,108.049 320.859,108.049 321.183,108.049 321.508,108.049 321.832,108.049 322.157,108.049 322.481,108.049 322.806,108.049 323.13,108.049 323.455,108.049 323.779,108.049 324.104,108.049 324.428,108.049 324.753,108.049 325.077,108.049 325.402,108.049 325.726,108.049 326.051,108.049 326.375,108.049 326.7,108.049 327.024,108.049 327.349,108.049 327.673,108.049 327.998,108.049 328.322,108.049 328.647,108.049 328.972,108.049 329.296,108.049 329.621,108.049 329.945,108.049 330.27,108.049 330.594,108.049 330.919,108.049 331.243,108.049 331.568,108.049 331.892,108.049 332.217,108.049 332.541,108.049 332.866,108.049 333.19,108.049 333.515,108.049 333.839,108.049 334.164,108.049 334.488,108.049 334.813,108.049 335.137,108.049 335.462,108.049 335.786,108.049 336.111,108.049 336.435,108.049 336.76,108.049 337.084,108.049 337.409,108.049 337.733,108.049 338.058,108.049 338.382,108.049 338.707,108.049 339.031,108.049 339.356,108.049 339.68,108.049 340.005,108.049 340.329,108.049 340.654,108.049 340.978,108.049 341.303,108.049 341.628,108.049 341.952,108.049 342.277,108.049 342.601,108.049 342.926,108.049 343.25,108.049 343.575,108.049 343.899,108.049 344.224,108.049 344.548,108.049 344.873,108.049 345.197,108.049 345.522,108.049 345.846,108.049 346.171,108.049 346.495,108.049 346.82,108.049 347.144,108.049 347.469,108.049 347.793,108.049 348.118,108.049 348.442,108.049 348.767,108.049 349.091,108.049 349.416,108.049 349.74,108.049 350.065,108.049 350.389,108.049 350.714,108.049 351.038,108.049 351.363,108.049 351.687,108.049 352.012,108.049 352.336,108.049 352.661,108.049 352.985,108.049 353.31,108.049 353.634,108.049 353.959,108.049 354.283,108.049 354.608,108.049 354.932,108.049 355.257,108.049 355.582,108.049 355.906,108.049 356.231,108.049 356.555,108.049 356.88,108.049 357.204,108.049 357.529,108.049 357.853,108.049 358.178,108.049 358.502,108.049 358.827,108.049 359.151,108.049 359.476,108.049 359.8,108.049 360.125,108.049 360.449,108.049 360.774,108.049 361.098,108.049 361.423,108.049 361.747,108.049 362.072,108.049 362.396,108.049 362.721,108.049 363.045,108.049 363.37,108.049 363.694,108.049 364.019,108.049 364.343,108.049 364.668,108.049 364.992,108.049 365.317,108.049 365.641,108.049 365.966,108.049 366.29,108.049 366.615,108.049 366.939,108.049 367.264,108.049 367.588,108.049 367.913,108.049 368.237,108.049 368.562,108.049 368.887,108.049 369.211,108.049 369.536,108.049 369.86,108.049 370.185,108.049 370.509,108.049 370.834,108.049 371.158,108.049 371.483,108.049 371.807,108.049 372.132,108.049 372.456,108.049 372.781,108.049 373.105,108.049 373.43,108.049 373.754,108.049 374.079,108.049 374.403,108.049 374.728,108.049 375.052,108.049 375.377,108.049 375.701,108.049 376.026,108.049 376.35,108.049 376.675,108.049 376.999,108.049 377.324,108.049 377.648,108.049 377.973,108.049 378.297,108.049 378.622,108.049 378.946,108.049" stroke="#7f7f7f" stroke-linecap="butt" stroke-linejoin="round" stroke-width="0.5"/>
  </g>
  <clipPath id="cp00418314">
   <polygon points="0,314 418,314 418,0 0,0"/>
  </clipPath>
  <g clip-path="url(#cp00418314)">
   <polygon fill="#ffffff" points="323.894,48.92 370.936,48.92 370.936,31.5638 323.894,31.5638" shape-rendering="crispEdges"/>
   <polyline fill="none" points="323.894,48.92 370.936,48.92" stroke="#262626" stroke-dasharray="16,0" stroke-linecap="square" stroke-linejoin="miter" stroke-width="0.5"/>
   <polyline fill="none" points="323.894,31.5638 370.936,31.5638" stroke="#262626" stroke-dasharray="16,0" stroke-linecap="square" stroke-linejoin="miter" stroke-width="0.5"/>
   <polyline fill="none" points="323.894,48.92 323.894,31.5638" stroke="#262626" stroke-dasharray="16,0" stroke-linecap="square" stroke-linejoin="miter" stroke-width="0.5"/>
   <polyline fill="none" points="370.936,48.92 370.936,31.5638" stroke="#262626" stroke-dasharray="16,0" stroke-linecap="square" stroke-linejoin="miter" stroke-width="0.5"/>
   <polyline fill="none" points="327.899,40.2419 347.925,40.2419" stroke="#0071bc" stroke-linecap="butt" stroke-linejoin="round" stroke-width="0.5"/>
   <g font-family="FreeSans" font-size="10" font-style="normal" font-weight="normal" transform="translate(351.931,44.7419) rotate(-0,-0,-4.5)" xml:space="preserve">
    <text fill="rgb(0,0,0)" x="0 5 10 " y="-2">sys</text>
   </g>
  </g>
 </g>
</svg>
