<?xml version='1.0' encoding='UTF-8' standalone='no'?>
<svg height="360pt" viewBox="0 0 480 360" width="480pt" xmlns="http://www.w3.org/2000/svg" xmlns:xlink="http://www.w3.org/1999/xlink">
 <title>Figure 1</title>
 <desc>
Creator: GL2PS 1.4.2, (C) 1999-2020 C. Geuzaine
For: Octave
CreationDate: Sun Feb 15 22:27:05 2026
</desc>
 <defs/>
 <polygon fill="#ffffff" points="0,0 480,0 480,360 0,360"/>
 <g>
  <polygon fill="#ffffff" points="0,360 480,360 480,0 0,0" shape-rendering="crispEdges"/>
  <clipPath id="cp00480360">
   <polygon points="0,360 480,360 480,0 0,0"/>
  </clipPath>
  <g clip-path="url(#cp00480360)">
   <polygon fill="#ffffff" points="62.4,320.4 434.4,320.4 434.4,27 62.4,27" shape-rendering="crispEdges"/>
   <polyline fill="none" points="62.4,320.4 62.4,27" stroke="#262626" stroke-dasharray="16,0" stroke-linecap="butt" stroke-linejoin="miter" stroke-opacity="0.15" stroke-width="0.5"/>
   <polyline fill="none" points="136.8,320.4 136.8,27" stroke="#262626" stroke-dasharray="16,0" stroke-linecap="butt" stroke-linejoin="miter" stroke-opacity="0.15" stroke-width="0.5"/>
   <polyline fill="none" points="211.2,320.4 211.2,27" stroke="#262626" stroke-dasharray="16,0" stroke-linecap="butt" stroke-linejoin="miter" stroke-opacity="0.15" stroke-width="0.5"/>
   <polyline fill="none" points="285.6,320.4 285.6,27" stroke="#262626" stroke-dasharray="16,0" stroke-linecap="butt" stroke-linejoin="miter" stroke-opacity="0.15" stroke-width="0.5"/>
   <polyline fill="none" points="360,320.4 360,27" stroke="#262626" stroke-dasharray="16,0" stroke-linecap="butt" stroke-linejoin="miter" stroke-opacity="0.15" stroke-width="0.5"/>
   <polyline fill="none" points="434.4,320.4 434.4,27" stroke="#262626" stroke-dasharray="16,0" stroke-linecap="butt" stroke-linejoin="miter" stroke-opacity="0.15" stroke-width="0.5"/>
   <polyline fill="none" points="62.4,320.4 62.4,316.675" stroke="#262626" stroke-linecap="butt" stroke-linejoin="miter" stroke-width="0.5"/>
   <polyline fill="none" points="62.4,27 62.4,30.7251" stroke="#262626" stroke-linecap="butt" stroke-linejoin="miter" stroke-width="0.5"/>
   <polyline fill="none" points="136.8,320.4 136.8,316.675" stroke="#262626" stroke-linecap="butt" stroke-linejoin="miter" stroke-width="0.5"/>
   <polyline fill="none" points="136.8,27 136.8,30.7251" stroke="#262626" stroke-linecap="butt" stroke-linejoin="miter" stroke-width="0.5"/>
   <polyline fill="none" points="211.2,320.4 211.2,316.675" stroke="#262626" stroke-linecap="butt" stroke-linejoin="miter" stroke-width="0.5"/>
   <polyline fill="none" points="211.2,27 211.2,30.7251" stroke="#262626" stroke-linecap="butt" stroke-linejoin="miter" stroke-width="0.5"/>
   <polyline fill="none" points="285.6,320.4 285.6,316.675" stroke="#262626" stroke-linecap="butt" stroke-linejoin="miter" stroke-width="0.5"/>
   <polyline fill="none" points="285.6,27 285.6,30.7251" stroke="#262626" stroke-linecap="butt" stroke-linejoin="miter" stroke-width="0.5"/>
   <polyline fill="none" points="360,320.4 360,316.675" stroke="#262626" stroke-linecap="butt" stroke-linejoin="miter" stroke-width="0.5"/>
   <polyline fill="none" points="360,27 360,30.7251" stroke="#262626" stroke-linecap="butt" stroke-linejoin="miter" stroke-width="0.5"/>
   <polyline fill="none" points="434.4,320.4 434.4,316.675" stroke="#262626" stroke-linecap="butt" stroke-linejoin="miter" stroke-width="0.5"/>
   <polyline fill="none" points="434.4,27 434.4,30.7251" stroke="#262626" stroke-linecap="butt" stroke-linejoin="miter" stroke-width="0.5"/>
   <g font-family="FreeSans" font-size="11.6513" font-style="normal" font-weight="normal" transform="translate(59.4,339.15) rotate(-0,3,-10)" xml:space="preserve">
    <text fill="rgb(38,38,38)" x="0 " y="-0">0</text>
   </g>
   <g font-family="FreeSans" font-size="11.6513" font-style="normal" font-weight="normal" transform="translate(133.8,339.15) rotate(-0,3,-10)" xml:space="preserve">
    <text fill="rgb(38,38,38)" x="0 " y="-0">2</text>
   </g>
   <g font-family="FreeSans" font-size="11.6513" font-style="normal" font-weight="normal" transform="translate(208.2,339.15) rotate(-0,3,-10)" xml:space="preserve">
    <text fill="rgb(38,38,38)" x="0 " y="-0">4</text>
   </g>
   <g font-family="FreeSans" font-size="11.6513" font-style="normal" font-weight="normal" transform="translate(282.6,339.15) rotate(-0,3,-10)" xml:space="preserve">
    <text fill="rgb(38,38,38)" x="0 " y="-0">6</text>
   </g>
   <g font-family="FreeSans" font-size="11.6513" font-style="normal" font-weight="normal" transform="translate(357,339.15) rotate(-0,3,-10)" xml:space="preserve">
    <text fill="rgb(38,38,38)" x="0 " y="-0">8</text>
   </g>
   <g font-family="FreeSans" font-size="11.6513" font-style="normal" font-weight="normal" transform="translate(428.4,339.15) rotate(-0,6,-10)" xml:space="preserve">
    <text fill="rgb(38,38,38)" x="0 6 " y="-0">10</text>
   </g>
   <polyline fill="none" points="62.4,309.55 434.4,309.55" stroke="#262626" stroke-dasharray="16,0" stroke-linecap="butt" stroke-linejoin="miter" stroke-opacity="0.15" stroke-width="0.5"/>
   <polyline fill="none" points="62.4,247.653 434.4,247.653" stroke="#262626" stroke-dasharray="16,0" stroke-linecap="butt" stroke-linejoin="miter" stroke-opacity="0.15" stroke-width="0.5"/>
   <polyline fill="none" points="62.4,185.757 434.4,185.757" stroke="#262626" stroke-dasharray="16,0" stroke-linecap="butt" stroke-linejoin="miter" stroke-opacity="0.15" stroke-width="0.5"/>
   <polyline fill="none" points="62.4,123.86 434.4,123.86" stroke="#262626" stroke-dasharray="16,0" stroke-linecap="butt" stroke-linejoin="miter" stroke-opacity="0.15" stroke-width="0.5"/>
   <polyline fill="none" points="62.4,61.9638 434.4,61.9638" stroke="#262626" stroke-dasharray="16,0" stroke-linecap="butt" stroke-linejoin="miter" stroke-opacity="0.15" stroke-width="0.5"/>
   <polyline fill="none" points="62.4,309.55 66.12,309.55" stroke="#262626" stroke-linecap="butt" stroke-linejoin="miter" stroke-width="0.5"/>
   <polyline fill="none" points="434.4,309.55 430.68,309.55" stroke="#262626" stroke-linecap="butt" stroke-linejoin="miter" stroke-width="0.5"/>
   <polyline fill="none" points="62.4,247.653 66.12,247.653" stroke="#262626" stroke-linecap="butt" stroke-linejoin="miter" stroke-width="0.5"/>
   <polyline fill="none" points="434.4,247.653 430.68,247.653" stroke="#262626" stroke-linecap="butt" stroke-linejoin="miter" stroke-width="0.5"/>
   <polyline fill="none" points="62.4,185.757 66.12,185.757" stroke="#262626" stroke-linecap="butt" stroke-linejoin="miter" stroke-width="0.5"/>
   <polyline fill="none" points="434.4,185.757 430.68,185.757" stroke="#262626" stroke-linecap="butt" stroke-linejoin="miter" stroke-width="0.5"/>
   <polyline fill="none" points="62.4,123.86 66.12,123.86" stroke="#262626" stroke-linecap="butt" stroke-linejoin="miter" stroke-width="0.5"/>
   <polyline fill="none" points="434.4,123.86 430.68,123.86" stroke="#262626" stroke-linecap="butt" stroke-linejoin="miter" stroke-width="0.5"/>
   <polyline fill="none" points="62.4,61.9638 66.12,61.9638" stroke="#262626" stroke-linecap="butt" stroke-linejoin="miter" stroke-width="0.5"/>
   <polyline fill="none" points="434.4,61.9638 430.68,61.9638" stroke="#262626" stroke-linecap="butt" stroke-linejoin="miter" stroke-width="0.5"/>
   <g font-family="FreeSans" font-size="11.6513" font-style="normal" font-weight="normal" transform="translate(37.5743,314.55) rotate(-0,19,-5)" xml:space="preserve">
    <text fill="rgb(38,38,38)" x="0 4 10 13 " y="-0">-0.3</text>
   </g>
   <g font-family="FreeSans" font-size="11.6513" font-style="normal" font-weight="normal" transform="translate(37.5743,252.653) rotate(-0,19,-5)" xml:space="preserve">
    <text fill="rgb(38,38,38)" x="0 4 10 13 " y="-0">-0.2</text>
   </g>
   <g font-family="FreeSans" font-size="11.6513" font-style="normal" font-weight="normal" transform="translate(37.5743,190.757) rotate(-0,19,-5)" xml:space="preserve">
    <text fill="rgb(38,38,38)" x="0 4 10 13 " y="-0">-0.1</text>
   </g>
   <g font-family="FreeSans" font-size="11.6513" font-style="normal" font-weight="normal" transform="translate(50.5743,128.86) rotate(-0,6,-5)" xml:space="preserve">
    <text fill="rgb(38,38,38)" x="0 " y="-0">0</text>
   </g>
   <g font-family="FreeSans" font-size="11.6513" font-style="normal" font-weight="normal" transform="translate(41.5743,66.9638) rotate(-0,15,-5)" xml:space="preserve">
    <text fill="rgb(38,38,38)" x="0 6 9 " y="-0">0.1</text>
   </g>
   <polyline fill="none" points="62.4,320.4 434.4,320.4" stroke="#262626" stroke-dasharray="16,0" stroke-linecap="square" stroke-linejoin="miter" stroke-width="0.5"/>
   <polyline fill="none" points="62.4,27 434.4,27" stroke="#262626" stroke-dasharray="16,0" stroke-linecap="square" stroke-linejoin="miter" stroke-width="0.5"/>
   <polyline fill="none" points="62.4,320.4 62.4,27" stroke="#262626" stroke-dasharray="16,0" stroke-linecap="square" stroke-linejoin="miter" stroke-width="0.5"/>
   <polyline fill="none" points="434.4,320.4 434.4,27" stroke="#262626" stroke-dasharray="16,0" stroke-linecap="square" stroke-linejoin="miter" stroke-width="0.5"/>
   <g font-family="FreeSans" font-size="12.8165" font-style="normal" font-weight="bold" transform="translate(169.4,17) rotate(-0,79,0)" xml:space="preserve">
    <text fill="rgb(0,0,0)" x="0 8 12 20 27 34 39 43 52 56 67 75 78 85 89 93 101 109 113 122 129 136 144 147 151 " y="-1">Linear Simulation Results</text>
   </g>
   <g font-family="FreeSans" font-size="12.8165" font-style="normal" font-weight="normal" transform="translate(26.0743,173.7) rotate(-90,6.5,0)" xml:space="preserve">
    <text fill="rgb(38,38,38)" x="0 6 " y="-3">y1</text>
   </g>
   <g font-family="FreeSans" font-size="12.8165" font-style="normal" font-weight="normal" transform="translate(225.9,358.15) rotate(-0,22.5,-14)" xml:space="preserve">
    <text fill="rgb(38,38,38)" x="0 8 11 21 28 31 35 41 " y="-3">Time [s]</text>
   </g>
   <polyline fill="none" points="62.4,123.86 62.772,134.275 63.144,144.466 63.516,154.421 63.888,164.127 64.26,173.573 64.632,182.749 65.004,191.644 65.376,200.248 65.748,208.554 66.12,216.552 66.492,224.236 66.864,231.599 67.236,238.635 67.608,245.339 67.98,251.705 68.352,257.73 68.724,263.411 69.096,268.744 69.468,273.728 69.84,278.361 70.212,282.642 70.584,286.571 70.956,290.149 71.328,293.376 71.7,296.253 72.072,298.784 72.444,300.97 72.816,302.815 73.188,304.322 73.56,305.496 73.932,306.34 74.304,306.861 74.676,307.064 75.048,306.954 75.42,306.538 75.792,305.823 76.164,304.816 76.536,303.525 76.908,301.956 77.28,300.119 77.652,298.022 78.024,295.673 78.396,293.082 78.768,290.257 79.14,287.208 79.512,283.944 79.884,280.476 80.256,276.813 80.628,272.965 81,268.942 81.372,264.755 81.744,260.413 82.116,255.928 82.488,251.309 82.86,246.568 83.232,241.713 83.604,236.757 83.976,231.708 84.348,226.578 84.72,221.377 85.092,216.115 85.464,210.801 85.836,205.447 86.208,200.061 86.58,194.654 86.952,189.234 87.324,183.812 87.696,178.396 88.068,172.996 88.44,167.62 88.812,162.277 89.184,156.975 89.556,151.722 89.928,146.527 90.3,141.396 90.672,136.337 91.044,131.358 91.416,126.464 91.788,121.663 92.16,116.96 92.532,112.363 92.904,107.876 93.276,103.504 93.648,99.2534 94.02,95.1283 94.392,91.1333 94.764,87.2724 95.136,83.5495 95.508,79.9683 95.88,76.5317 96.252,73.2429 96.624,70.1044 96.996,67.1185 97.368,64.2872 97.74,61.6123 98.112,59.095 98.484,56.7366 98.856,54.5378 99.228,52.4993 99.6,50.6212 99.972,48.9036 100.344,47.3461 100.716,45.9482 101.088,44.7091 101.46,43.6277 101.832,42.7028 102.204,41.9327 102.576,41.3159 102.948,40.8501 103.32,40.5332 103.692,40.3628 104.064,40.3364 104.436,40.451 104.808,40.7037 105.18,41.0913 105.552,41.6106 105.924,42.258 106.296,43.0299 106.668,43.9225 107.04,44.932 107.412,46.0544 107.784,47.2854 108.156,48.6209 108.528,50.0566 108.9,51.5881 109.272,53.2109 109.644,54.9205 110.016,56.7122 110.388,58.5814 110.76,60.5235 111.132,62.5337 111.504,64.6073 111.876,66.7395 112.248,68.9257 112.62,71.161 112.992,73.4408 113.364,75.7602 113.736,78.1147 114.108,80.4995 114.48,82.9101 114.852,85.3419 115.224,87.7903 115.596,90.251 115.968,92.7195 116.34,95.1915 116.712,97.6628 117.084,100.129 117.456,102.587 117.828,105.032 118.2,107.46 118.572,109.867 118.944,112.25 119.316,114.606 119.688,116.931 120.06,119.221 120.432,121.474 120.804,123.686 121.176,125.855 121.548,127.977 121.92,130.05 122.292,132.072 122.664,134.04 123.036,135.952 123.408,137.806 123.78,139.6 124.152,141.331 124.524,142.999 124.896,144.602 125.268,146.138 125.64,147.606 126.012,149.005 126.384,150.334 126.756,151.592 127.128,152.779 127.5,153.893 127.872,154.935 128.244,155.904 128.616,156.8 128.988,157.622 129.36,158.372 129.732,159.048 130.104,159.652 130.476,160.184 130.848,160.644 131.22,161.033 131.592,161.352 131.964,161.602 132.336,161.783 132.708,161.896 133.08,161.944 133.452,161.926 133.824,161.844 134.196,161.701 134.568,161.496 134.94,161.232 135.312,160.911 135.684,160.533 136.056,160.102 136.428,159.617 136.8,159.083 137.172,158.499 137.544,157.869 137.916,157.194 138.288,156.476 138.66,155.718 139.032,154.921 139.404,154.088 139.776,153.22 140.148,152.32 140.52,151.39 140.892,150.432 141.264,149.448 141.636,148.441 142.008,147.412 142.38,146.364 142.752,145.299 143.124,144.219 143.496,143.126 143.868,142.022 144.24,140.909 144.612,139.79 144.984,138.666 145.356,137.54 145.728,136.413 146.1,135.287 146.472,134.164 146.844,133.046 147.216,131.935 147.588,130.832 147.96,129.739 148.332,128.658 148.704,127.59 149.076,126.537 149.448,125.501 149.82,124.482 150.192,123.482 150.564,122.503 150.936,121.545 151.308,120.611 151.68,119.7 152.052,118.814 152.424,117.955 152.796,117.122 153.168,116.317 153.54,115.541 153.912,114.794 154.284,114.077 154.656,113.391 155.028,112.736 155.4,112.113 155.772,111.522 156.144,110.963 156.516,110.437 156.888,109.944 157.26,109.485 157.632,109.058 158.004,108.665 158.376,108.306 158.748,107.979 159.12,107.686 159.492,107.426 159.864,107.198 160.236,107.003 160.608,106.841 160.98,106.71 161.352,106.611 161.724,106.542 162.096,106.505 162.468,106.497 162.84,106.518 163.212,106.568 163.584,106.647 163.956,106.753 164.328,106.885 164.7,107.044 165.072,107.227 165.444,107.435 165.816,107.667 166.188,107.921 166.56,108.197 166.932,108.493 167.304,108.81 167.676,109.146 168.048,109.5 168.42,109.871 168.792,110.259 169.164,110.661 169.536,111.078 169.908,111.508 170.28,111.95 170.652,112.404 171.024,112.868 171.396,113.341 171.768,113.823 172.14,114.311 172.512,114.807 172.884,115.307 173.256,115.813 173.628,116.321 174,116.833 174.372,117.346 174.744,117.86 175.116,118.373 175.488,118.886 175.86,119.397 176.232,119.906 176.604,120.411 176.976,120.912 177.348,121.408 177.72,121.898 178.092,122.382 178.464,122.858 178.836,123.327 179.208,123.788 179.58,124.239 179.952,124.681 180.324,125.113 180.696,125.534 181.068,125.944 181.44,126.343 181.812,126.729 182.184,127.103 182.556,127.464 182.928,127.812 183.3,128.146 183.672,128.466 184.044,128.773 184.416,129.065 184.788,129.342 185.16,129.605 185.532,129.853 185.904,130.086 186.276,130.303 186.648,130.506 187.02,130.693 187.392,130.866 187.764,131.023 188.136,131.164 188.508,131.291 188.88,131.403 189.252,131.5 189.624,131.582 189.996,131.649 190.368,131.702 190.74,131.741 191.112,131.766 191.484,131.777 191.856,131.774 192.228,131.758 192.6,131.729 192.972,131.688 193.344,131.634 193.716,131.568 194.088,131.491 194.46,131.402 194.832,131.302 195.204,131.192 195.576,131.071 195.948,130.941 196.32,130.801 196.692,130.653 197.064,130.496 197.436,130.331 197.808,130.158 198.18,129.978 198.552,129.792 198.924,129.599 199.296,129.4 199.668,129.196 200.04,128.987 200.412,128.773 200.784,128.556 201.156,128.335 201.528,128.11 201.9,127.883 202.272,127.654 202.644,127.423 203.016,127.19 203.388,126.957 203.76,126.723 204.132,126.488 204.504,126.254 204.876,126.021 205.248,125.788 205.62,125.557 205.992,125.328 206.364,125.1 206.736,124.875 207.108,124.653 207.48,124.434 207.852,124.218 208.224,124.006 208.596,123.798 208.968,123.594 209.34,123.395 209.712,123.2 210.084,123.01 210.456,122.826 210.828,122.647 211.2,122.473 211.572,122.305 211.944,122.143 212.316,121.988 212.688,121.838 213.06,121.695 213.432,121.558 213.804,121.428 214.176,121.305 214.548,121.188 214.92,121.078 215.292,120.975 215.664,120.879 216.036,120.79 216.408,120.708 216.78,120.632 217.152,120.564 217.524,120.503 217.896,120.448 218.268,120.4 218.64,120.359 219.012,120.325 219.384,120.297 219.756,120.276 220.128,120.261 220.5,120.253 220.872,120.251 221.244,120.255 221.616,120.265 221.988,120.28 222.36,120.302 222.732,120.329 223.104,120.362 223.476,120.399 223.848,120.442 224.22,120.49 224.592,120.542 224.964,120.599 225.336,120.661 225.708,120.726 226.08,120.796 226.452,120.869 226.824,120.946 227.196,121.026 227.568,121.11 227.94,121.196 228.312,121.285 228.684,121.377 229.056,121.471 229.428,121.567 229.8,121.666 230.172,121.766 230.544,121.867 230.916,121.97 231.288,122.074 231.66,122.179 232.032,122.285 232.404,122.391 232.776,122.498 233.148,122.604 233.52,122.711 233.892,122.818 234.264,122.924 234.636,123.03 235.008,123.135 235.38,123.239 235.752,123.342 236.124,123.444 236.496,123.545 236.868,123.644 237.24,123.742 237.612,123.838 237.984,123.932 238.356,124.024 238.728,124.114 239.1,124.201 239.472,124.287 239.844,124.37 240.216,124.45 240.588,124.528 240.96,124.604 241.332,124.676 241.704,124.746 242.076,124.813 242.448,124.876 242.82,124.937 243.192,124.995 243.564,125.05 243.936,125.102 244.308,125.151 244.68,125.196 245.052,125.239 245.424,125.278 245.796,125.314 246.168,125.347 246.54,125.376 246.912,125.403 247.284,125.426 247.656,125.447 248.028,125.464 248.4,125.478 248.772,125.49 249.144,125.498 249.516,125.503 249.888,125.506 250.26,125.506 250.632,125.502 251.004,125.497 251.376,125.488 251.748,125.477 252.12,125.464 252.492,125.448 252.864,125.43 253.236,125.409 253.608,125.386 253.98,125.361 254.352,125.334 254.724,125.306 255.096,125.275 255.468,125.242 255.84,125.208 256.212,125.172 256.584,125.135 256.956,125.096 257.328,125.056 257.7,125.015 258.072,124.973 258.444,124.929 258.816,124.885 259.188,124.84 259.56,124.794 259.932,124.747 260.304,124.7 260.676,124.653 261.048,124.605 261.42,124.556 261.792,124.508 262.164,124.459 262.536,124.41 262.908,124.362 263.28,124.313 263.652,124.265 264.024,124.217 264.396,124.169 264.768,124.122 265.14,124.075 265.512,124.029 265.884,123.983 266.256,123.938 266.628,123.894 267,123.851 267.372,123.808 267.744,123.767 268.116,123.726 268.488,123.687 268.86,123.648 269.232,123.611 269.604,123.575 269.976,123.54 270.348,123.506 270.72,123.474 271.092,123.442 271.464,123.412 271.836,123.384 272.208,123.357 272.58,123.331 272.952,123.307 273.324,123.284 273.696,123.262 274.068,123.242 274.44,123.223 274.812,123.206 275.184,123.19 275.556,123.176 275.928,123.163 276.3,123.152 276.672,123.142 277.044,123.133 277.416,123.126 277.788,123.12 278.16,123.115 278.532,123.112 278.904,123.11 279.276,123.11 279.648,123.111 280.02,123.113 280.392,123.116 280.764,123.12 281.136,123.126 281.508,123.132 281.88,123.14 282.252,123.149 282.624,123.159 282.996,123.17 283.368,123.181 283.74,123.194 284.112,123.208 284.484,123.222 284.856,123.237 285.228,123.253 285.6,123.27 285.972,123.287 286.344,123.305 286.716,123.323 287.088,123.343 287.46,123.362 287.832,123.382 288.204,123.402 288.576,123.423 288.948,123.444 289.32,123.466 289.692,123.487 290.064,123.509 290.436,123.531 290.808,123.553 291.18,123.575 291.552,123.597 291.924,123.62 292.296,123.642 292.668,123.664 293.04,123.686 293.412,123.708 293.784,123.729 294.156,123.751 294.528,123.772 294.9,123.793 295.272,123.814 295.644,123.834 296.016,123.854 296.388,123.874 296.76,123.893 297.132,123.911 297.504,123.93 297.876,123.948 298.248,123.965 298.62,123.982 298.992,123.998 299.364,124.014 299.736,124.029 300.108,124.043 300.48,124.057 300.852,124.07 301.224,124.083 301.596,124.095 301.968,124.107 302.34,124.118 302.712,124.128 303.084,124.137 303.456,124.146 303.828,124.154 304.2,124.162 304.572,124.169 304.944,124.175 305.316,124.181 305.688,124.185 306.06,124.19 306.432,124.193 306.804,124.196 307.176,124.199 307.548,124.201 307.92,124.202 308.292,124.202 308.664,124.202 309.036,124.202 309.408,124.201 309.78,124.199 310.152,124.197 310.524,124.194 310.896,124.191 311.268,124.187 311.64,124.183 312.012,124.178 312.384,124.173 312.756,124.167 313.128,124.161 313.5,124.155 313.872,124.148 314.244,124.141 314.616,124.134 314.988,124.126 315.36,124.118 315.732,124.11 316.104,124.101 316.476,124.092 316.848,124.083 317.22,124.074 317.592,124.065 317.964,124.055 318.336,124.045 318.708,124.036 319.08,124.026 319.452,124.016 319.824,124.006 320.196,123.996 320.568,123.986 320.94,123.975 321.312,123.965 321.684,123.955 322.056,123.945 322.428,123.935 322.8,123.925 323.172,123.915 323.544,123.906 323.916,123.896 324.288,123.887 324.66,123.877 325.032,123.868 325.404,123.859 325.776,123.85 326.148,123.842 326.52,123.833 326.892,123.825 327.264,123.817 327.636,123.809 328.008,123.801 328.38,123.794 328.752,123.787 329.124,123.78 329.496,123.774 329.868,123.768 330.24,123.762 330.612,123.756 330.984,123.751 331.356,123.746 331.728,123.741 332.1,123.736 332.472,123.732 332.844,123.728 333.216,123.725 333.588,123.721 333.96,123.718 334.332,123.716 334.704,123.713 335.076,123.711 335.448,123.709 335.82,123.708 336.192,123.706 336.564,123.705 336.936,123.705 337.308,123.704 337.68,123.704 338.052,123.704 338.424,123.705 338.796,123.705 339.168,123.706 339.54,123.707 339.912,123.709 340.284,123.71 340.656,123.712 341.028,123.714 341.4,123.717 341.772,123.719 342.144,123.722 342.516,123.724 342.888,123.727 343.26,123.73 343.632,123.734 344.004,123.737 344.376,123.741 344.748,123.745 345.12,123.748 345.492,123.752 345.864,123.756 346.236,123.761 346.608,123.765 346.98,123.769 347.352,123.773 347.724,123.778 348.096,123.782 348.468,123.787 348.84,123.791 349.212,123.796 349.584,123.801 349.956,123.805 350.328,123.81 350.7,123.814 351.072,123.819 351.444,123.824 351.816,123.828 352.188,123.833 352.56,123.837 352.932,123.842 353.304,123.846 353.676,123.85 354.048,123.854 354.42,123.859 354.792,123.863 355.164,123.867 355.536,123.871 355.908,123.874 356.28,123.878 356.652,123.882 357.024,123.885 357.396,123.889 357.768,123.892 358.14,123.895 358.512,123.898 358.884,123.901 359.256,123.904 359.628,123.906 360,123.909 360.372,123.911 360.744,123.914 361.116,123.916 361.488,123.918 361.86,123.92 362.232,123.921 362.604,123.923 362.976,123.924 363.348,123.926 363.72,123.927 364.092,123.928 364.464,123.929 364.836,123.929 365.208,123.93 365.58,123.931 365.952,123.931 366.324,123.931 366.696,123.931 367.068,123.931 367.44,123.931 367.812,123.931 368.184,123.931 368.556,123.93 368.928,123.93 369.3,123.929 369.672,123.928 370.044,123.927 370.416,123.926 370.788,123.925 371.16,123.924 371.532,123.923 371.904,123.922 372.276,123.92 372.648,123.919 373.02,123.917 373.392,123.916 373.764,123.914 374.136,123.912 374.508,123.91 374.88,123.909 375.252,123.907 375.624,123.905 375.996,123.903 376.368,123.901 376.74,123.899 377.112,123.897 377.484,123.895 377.856,123.893 378.228,123.891 378.6,123.889 378.972,123.886 379.344,123.884 379.716,123.882 380.088,123.88 380.46,123.878 380.832,123.876 381.204,123.874 381.576,123.872 381.948,123.87 382.32,123.868 382.692,123.866 383.064,123.864 383.436,123.862 383.808,123.86 384.18,123.858 384.552,123.857 384.924,123.855 385.296,123.853 385.668,123.851 386.04,123.85 386.412,123.848 386.784,123.847 387.156,123.845 387.528,123.844 387.9,123.842 388.272,123.841 388.644,123.84 389.016,123.839 389.388,123.838 389.76,123.837 390.132,123.835 390.504,123.835 390.876,123.834 391.248,123.833 391.62,123.832 391.992,123.831 392.364,123.831 392.736,123.83 393.108,123.83 393.48,123.829 393.852,123.829 394.224,123.829 394.596,123.828 394.968,123.828 395.34,123.828 395.712,123.828 396.084,123.828 396.456,123.828 396.828,123.828 397.2,123.828 397.572,123.828 397.944,123.828 398.316,123.829 398.688,123.829 399.06,123.829 399.432,123.83 399.804,123.83 400.176,123.831 400.548,123.831 400.92,123.832 401.292,123.833 401.664,123.833 402.036,123.834 402.408,123.835 402.78,123.835 403.152,123.836 403.524,123.837 403.896,123.838 404.268,123.839 404.64,123.839 405.012,123.84 405.384,123.841 405.756,123.842 406.128,123.843 406.5,123.844 406.872,123.845 407.244,123.846 407.616,123.847 407.988,123.848 408.36,123.849 408.732,123.85 409.104,123.851 409.476,123.852 409.848,123.853 410.22,123.854 410.592,123.854 410.964,123.855 411.336,123.856 411.708,123.857 412.08,123.858 412.452,123.859 412.824,123.86 413.196,123.861 413.568,123.862 413.94,123.862 414.312,123.863 414.684,123.864 415.056,123.865 415.428,123.865 415.8,123.866 416.172,123.867 416.544,123.867 416.916,123.868 417.288,123.869 417.66,123.869 418.032,123.87 418.404,123.87 418.776,123.871 419.148,123.871 419.52,123.872 419.892,123.872 420.264,123.873 420.636,123.873 421.008,123.873 421.38,123.874 421.752,123.874 422.124,123.874 422.496,123.874 422.868,123.874 423.24,123.875 423.612,123.875 423.984,123.875 424.356,123.875 424.728,123.875 425.1,123.875 425.472,123.875 425.844,123.875 426.216,123.875 426.588,123.875 426.96,123.875 427.332,123.875 427.704,123.875 428.076,123.874 428.448,123.874 428.82,123.874 429.192,123.874 429.564,123.874 429.936,123.873 430.308,123.873 430.68,123.873 431.052,123.872 431.424,123.872 431.796,123.872 432.168,123.871 432.54,123.871 432.912,123.871 433.284,123.87 433.656,123.87 434.028,123.87 434.4,123.869" stroke="#0071bc" stroke-linecap="butt" stroke-linejoin="round" stroke-width="0.5"/>
   <polyline fill="none" points="62.4,123.86 62.772,123.86 63.144,123.86 63.516,123.86 63.888,123.86 64.26,123.86 64.632,123.86 65.004,123.86 65.376,123.86 65.748,123.86 66.12,123.86 66.492,123.86 66.864,123.86 67.236,123.86 67.608,123.86 67.98,123.86 68.352,123.86 68.724,123.86 69.096,123.86 69.468,123.86 69.84,123.86 70.212,123.86 70.584,123.86 70.956,123.86 71.328,123.86 71.7,123.86 72.072,123.86 72.444,123.86 72.816,123.86 73.188,123.86 73.56,123.86 73.932,123.86 74.304,123.86 74.676,123.86 75.048,123.86 75.42,123.86 75.792,123.86 76.164,123.86 76.536,123.86 76.908,123.86 77.28,123.86 77.652,123.86 78.024,123.86 78.396,123.86 78.768,123.86 79.14,123.86 79.512,123.86 79.884,123.86 80.256,123.86 80.628,123.86 81,123.86 81.372,123.86 81.744,123.86 82.116,123.86 82.488,123.86 82.86,123.86 83.232,123.86 83.604,123.86 83.976,123.86 84.348,123.86 84.72,123.86 85.092,123.86 85.464,123.86 85.836,123.86 86.208,123.86 86.58,123.86 86.952,123.86 87.324,123.86 87.696,123.86 88.068,123.86 88.44,123.86 88.812,123.86 89.184,123.86 89.556,123.86 89.928,123.86 90.3,123.86 90.672,123.86 91.044,123.86 91.416,123.86 91.788,123.86 92.16,123.86 92.532,123.86 92.904,123.86 93.276,123.86 93.648,123.86 94.02,123.86 94.392,123.86 94.764,123.86 95.136,123.86 95.508,123.86 95.88,123.86 96.252,123.86 96.624,123.86 96.996,123.86 97.368,123.86 97.74,123.86 98.112,123.86 98.484,123.86 98.856,123.86 99.228,123.86 99.6,123.86 99.972,123.86 100.344,123.86 100.716,123.86 101.088,123.86 101.46,123.86 101.832,123.86 102.204,123.86 102.576,123.86 102.948,123.86 103.32,123.86 103.692,123.86 104.064,123.86 104.436,123.86 104.808,123.86 105.18,123.86 105.552,123.86 105.924,123.86 106.296,123.86 106.668,123.86 107.04,123.86 107.412,123.86 107.784,123.86 108.156,123.86 108.528,123.86 108.9,123.86 109.272,123.86 109.644,123.86 110.016,123.86 110.388,123.86 110.76,123.86 111.132,123.86 111.504,123.86 111.876,123.86 112.248,123.86 112.62,123.86 112.992,123.86 113.364,123.86 113.736,123.86 114.108,123.86 114.48,123.86 114.852,123.86 115.224,123.86 115.596,123.86 115.968,123.86 116.34,123.86 116.712,123.86 117.084,123.86 117.456,123.86 117.828,123.86 118.2,123.86 118.572,123.86 118.944,123.86 119.316,123.86 119.688,123.86 120.06,123.86 120.432,123.86 120.804,123.86 121.176,123.86 121.548,123.86 121.92,123.86 122.292,123.86 122.664,123.86 123.036,123.86 123.408,123.86 123.78,123.86 124.152,123.86 124.524,123.86 124.896,123.86 125.268,123.86 125.64,123.86 126.012,123.86 126.384,123.86 126.756,123.86 127.128,123.86 127.5,123.86 127.872,123.86 128.244,123.86 128.616,123.86 128.988,123.86 129.36,123.86 129.732,123.86 130.104,123.86 130.476,123.86 130.848,123.86 131.22,123.86 131.592,123.86 131.964,123.86 132.336,123.86 132.708,123.86 133.08,123.86 133.452,123.86 133.824,123.86 134.196,123.86 134.568,123.86 134.94,123.86 135.312,123.86 135.684,123.86 136.056,123.86 136.428,123.86 136.8,123.86 137.172,123.86 137.544,123.86 137.916,123.86 138.288,123.86 138.66,123.86 139.032,123.86 139.404,123.86 139.776,123.86 140.148,123.86 140.52,123.86 140.892,123.86 141.264,123.86 141.636,123.86 142.008,123.86 142.38,123.86 142.752,123.86 143.124,123.86 143.496,123.86 143.868,123.86 144.24,123.86 144.612,123.86 144.984,123.86 145.356,123.86 145.728,123.86 146.1,123.86 146.472,123.86 146.844,123.86 147.216,123.86 147.588,123.86 147.96,123.86 148.332,123.86 148.704,123.86 149.076,123.86 149.448,123.86 149.82,123.86 150.192,123.86 150.564,123.86 150.936,123.86 151.308,123.86 151.68,123.86 152.052,123.86 152.424,123.86 152.796,123.86 153.168,123.86 153.54,123.86 153.912,123.86 154.284,123.86 154.656,123.86 155.028,123.86 155.4,123.86 155.772,123.86 156.144,123.86 156.516,123.86 156.888,123.86 157.26,123.86 157.632,123.86 158.004,123.86 158.376,123.86 158.748,123.86 159.12,123.86 159.492,123.86 159.864,123.86 160.236,123.86 160.608,123.86 160.98,123.86 161.352,123.86 161.724,123.86 162.096,123.86 162.468,123.86 162.84,123.86 163.212,123.86 163.584,123.86 163.956,123.86 164.328,123.86 164.7,123.86 165.072,123.86 165.444,123.86 165.816,123.86 166.188,123.86 166.56,123.86 166.932,123.86 167.304,123.86 167.676,123.86 168.048,123.86 168.42,123.86 168.792,123.86 169.164,123.86 169.536,123.86 169.908,123.86 170.28,123.86 170.652,123.86 171.024,123.86 171.396,123.86 171.768,123.86 172.14,123.86 172.512,123.86 172.884,123.86 173.256,123.86 173.628,123.86 174,123.86 174.372,123.86 174.744,123.86 175.116,123.86 175.488,123.86 175.86,123.86 176.232,123.86 176.604,123.86 176.976,123.86 177.348,123.86 177.72,123.86 178.092,123.86 178.464,123.86 178.836,123.86 179.208,123.86 179.58,123.86 179.952,123.86 180.324,123.86 180.696,123.86 181.068,123.86 181.44,123.86 181.812,123.86 182.184,123.86 182.556,123.86 182.928,123.86 183.3,123.86 183.672,123.86 184.044,123.86 184.416,123.86 184.788,123.86 185.16,123.86 185.532,123.86 185.904,123.86 186.276,123.86 186.648,123.86 187.02,123.86 187.392,123.86 187.764,123.86 188.136,123.86 188.508,123.86 188.88,123.86 189.252,123.86 189.624,123.86 189.996,123.86 190.368,123.86 190.74,123.86 191.112,123.86 191.484,123.86 191.856,123.86 192.228,123.86 192.6,123.86 192.972,123.86 193.344,123.86 193.716,123.86 194.088,123.86 194.46,123.86 194.832,123.86 195.204,123.86 195.576,123.86 195.948,123.86 196.32,123.86 196.692,123.86 197.064,123.86 197.436,123.86 197.808,123.86 198.18,123.86 198.552,123.86 198.924,123.86 199.296,123.86 199.668,123.86 200.04,123.86 200.412,123.86 200.784,123.86 201.156,123.86 201.528,123.86 201.9,123.86 202.272,123.86 202.644,123.86 203.016,123.86 203.388,123.86 203.76,123.86 204.132,123.86 204.504,123.86 204.876,123.86 205.248,123.86 205.62,123.86 205.992,123.86 206.364,123.86 206.736,123.86 207.108,123.86 207.48,123.86 207.852,123.86 208.224,123.86 208.596,123.86 208.968,123.86 209.34,123.86 209.712,123.86 210.084,123.86 210.456,123.86 210.828,123.86 211.2,123.86 211.572,123.86 211.944,123.86 212.316,123.86 212.688,123.86 213.06,123.86 213.432,123.86 213.804,123.86 214.176,123.86 214.548,123.86 214.92,123.86 215.292,123.86 215.664,123.86 216.036,123.86 216.408,123.86 216.78,123.86 217.152,123.86 217.524,123.86 217.896,123.86 218.268,123.86 218.64,123.86 219.012,123.86 219.384,123.86 219.756,123.86 220.128,123.86 220.5,123.86 220.872,123.86 221.244,123.86 221.616,123.86 221.988,123.86 222.36,123.86 222.732,123.86 223.104,123.86 223.476,123.86 223.848,123.86 224.22,123.86 224.592,123.86 224.964,123.86 225.336,123.86 225.708,123.86 226.08,123.86 226.452,123.86 226.824,123.86 227.196,123.86 227.568,123.86 227.94,123.86 228.312,123.86 228.684,123.86 229.056,123.86 229.428,123.86 229.8,123.86 230.172,123.86 230.544,123.86 230.916,123.86 231.288,123.86 231.66,123.86 232.032,123.86 232.404,123.86 232.776,123.86 233.148,123.86 233.52,123.86 233.892,123.86 234.264,123.86 234.636,123.86 235.008,123.86 235.38,123.86 235.752,123.86 236.124,123.86 236.496,123.86 236.868,123.86 237.24,123.86 237.612,123.86 237.984,123.86 238.356,123.86 238.728,123.86 239.1,123.86 239.472,123.86 239.844,123.86 240.216,123.86 240.588,123.86 240.96,123.86 241.332,123.86 241.704,123.86 242.076,123.86 242.448,123.86 242.82,123.86 243.192,123.86 243.564,123.86 243.936,123.86 244.308,123.86 244.68,123.86 245.052,123.86 245.424,123.86 245.796,123.86 246.168,123.86 246.54,123.86 246.912,123.86 247.284,123.86 247.656,123.86 248.028,123.86 248.4,123.86 248.772,123.86 249.144,123.86 249.516,123.86 249.888,123.86 250.26,123.86 250.632,123.86 251.004,123.86 251.376,123.86 251.748,123.86 252.12,123.86 252.492,123.86 252.864,123.86 253.236,123.86 253.608,123.86 253.98,123.86 254.352,123.86 254.724,123.86 255.096,123.86 255.468,123.86 255.84,123.86 256.212,123.86 256.584,123.86 256.956,123.86 257.328,123.86 257.7,123.86 258.072,123.86 258.444,123.86 258.816,123.86 259.188,123.86 259.56,123.86 259.932,123.86 260.304,123.86 260.676,123.86 261.048,123.86 261.42,123.86 261.792,123.86 262.164,123.86 262.536,123.86 262.908,123.86 263.28,123.86 263.652,123.86 264.024,123.86 264.396,123.86 264.768,123.86 265.14,123.86 265.512,123.86 265.884,123.86 266.256,123.86 266.628,123.86 267,123.86 267.372,123.86 267.744,123.86 268.116,123.86 268.488,123.86 268.86,123.86 269.232,123.86 269.604,123.86 269.976,123.86 270.348,123.86 270.72,123.86 271.092,123.86 271.464,123.86 271.836,123.86 272.208,123.86 272.58,123.86 272.952,123.86 273.324,123.86 273.696,123.86 274.068,123.86 274.44,123.86 274.812,123.86 275.184,123.86 275.556,123.86 275.928,123.86 276.3,123.86 276.672,123.86 277.044,123.86 277.416,123.86 277.788,123.86 278.16,123.86 278.532,123.86 278.904,123.86 279.276,123.86 279.648,123.86 280.02,123.86 280.392,123.86 280.764,123.86 281.136,123.86 281.508,123.86 281.88,123.86 282.252,123.86 282.624,123.86 282.996,123.86 283.368,123.86 283.74,123.86 284.112,123.86 284.484,123.86 284.856,123.86 285.228,123.86 285.6,123.86 285.972,123.86 286.344,123.86 286.716,123.86 287.088,123.86 287.46,123.86 287.832,123.86 288.204,123.86 288.576,123.86 288.948,123.86 289.32,123.86 289.692,123.86 290.064,123.86 290.436,123.86 290.808,123.86 291.18,123.86 291.552,123.86 291.924,123.86 292.296,123.86 292.668,123.86 293.04,123.86 293.412,123.86 293.784,123.86 294.156,123.86 294.528,123.86 294.9,123.86 295.272,123.86 295.644,123.86 296.016,123.86 296.388,123.86 296.76,123.86 297.132,123.86 297.504,123.86 297.876,123.86 298.248,123.86 298.62,123.86 298.992,123.86 299.364,123.86 299.736,123.86 300.108,123.86 300.48,123.86 300.852,123.86 301.224,123.86 301.596,123.86 301.968,123.86 302.34,123.86 302.712,123.86 303.084,123.86 303.456,123.86 303.828,123.86 304.2,123.86 304.572,123.86 304.944,123.86 305.316,123.86 305.688,123.86 306.06,123.86 306.432,123.86 306.804,123.86 307.176,123.86 307.548,123.86 307.92,123.86 308.292,123.86 308.664,123.86 309.036,123.86 309.408,123.86 309.78,123.86 310.152,123.86 310.524,123.86 310.896,123.86 311.268,123.86 311.64,123.86 312.012,123.86 312.384,123.86 312.756,123.86 313.128,123.86 313.5,123.86 313.872,123.86 314.244,123.86 314.616,123.86 314.988,123.86 315.36,123.86 315.732,123.86 316.104,123.86 316.476,123.86 316.848,123.86 317.22,123.86 317.592,123.86 317.964,123.86 318.336,123.86 318.708,123.86 319.08,123.86 319.452,123.86 319.824,123.86 320.196,123.86 320.568,123.86 320.94,123.86 321.312,123.86 321.684,123.86 322.056,123.86 322.428,123.86 322.8,123.86 323.172,123.86 323.544,123.86 323.916,123.86 324.288,123.86 324.66,123.86 325.032,123.86 325.404,123.86 325.776,123.86 326.148,123.86 326.52,123.86 326.892,123.86 327.264,123.86 327.636,123.86 328.008,123.86 328.38,123.86 328.752,123.86 329.124,123.86 329.496,123.86 329.868,123.86 330.24,123.86 330.612,123.86 330.984,123.86 331.356,123.86 331.728,123.86 332.1,123.86 332.472,123.86 332.844,123.86 333.216,123.86 333.588,123.86 333.96,123.86 334.332,123.86 334.704,123.86 335.076,123.86 335.448,123.86 335.82,123.86 336.192,123.86 336.564,123.86 336.936,123.86 337.308,123.86 337.68,123.86 338.052,123.86 338.424,123.86 338.796,123.86 339.168,123.86 339.54,123.86 339.912,123.86 340.284,123.86 340.656,123.86 341.028,123.86 341.4,123.86 341.772,123.86 342.144,123.86 342.516,123.86 342.888,123.86 343.26,123.86 343.632,123.86 344.004,123.86 344.376,123.86 344.748,123.86 345.12,123.86 345.492,123.86 345.864,123.86 346.236,123.86 346.608,123.86 346.98,123.86 347.352,123.86 347.724,123.86 348.096,123.86 348.468,123.86 348.84,123.86 349.212,123.86 349.584,123.86 349.956,123.86 350.328,123.86 350.7,123.86 351.072,123.86 351.444,123.86 351.816,123.86 352.188,123.86 352.56,123.86 352.932,123.86 353.304,123.86 353.676,123.86 354.048,123.86 354.42,123.86 354.792,123.86 355.164,123.86 355.536,123.86 355.908,123.86 356.28,123.86 356.652,123.86 357.024,123.86 357.396,123.86 357.768,123.86 358.14,123.86 358.512,123.86 358.884,123.86 359.256,123.86 359.628,123.86 360,123.86 360.372,123.86 360.744,123.86 361.116,123.86 361.488,123.86 361.86,123.86 362.232,123.86 362.604,123.86 362.976,123.86 363.348,123.86 363.72,123.86 364.092,123.86 364.464,123.86 364.836,123.86 365.208,123.86 365.58,123.86 365.952,123.86 366.324,123.86 366.696,123.86 367.068,123.86 367.44,123.86 367.812,123.86 368.184,123.86 368.556,123.86 368.928,123.86 369.3,123.86 369.672,123.86 370.044,123.86 370.416,123.86 370.788,123.86 371.16,123.86 371.532,123.86 371.904,123.86 372.276,123.86 372.648,123.86 373.02,123.86 373.392,123.86 373.764,123.86 374.136,123.86 374.508,123.86 374.88,123.86 375.252,123.86 375.624,123.86 375.996,123.86 376.368,123.86 376.74,123.86 377.112,123.86 377.484,123.86 377.856,123.86 378.228,123.86 378.6,123.86 378.972,123.86 379.344,123.86 379.716,123.86 380.088,123.86 380.46,123.86 380.832,123.86 381.204,123.86 381.576,123.86 381.948,123.86 382.32,123.86 382.692,123.86 383.064,123.86 383.436,123.86 383.808,123.86 384.18,123.86 384.552,123.86 384.924,123.86 385.296,123.86 385.668,123.86 386.04,123.86 386.412,123.86 386.784,123.86 387.156,123.86 387.528,123.86 387.9,123.86 388.272,123.86 388.644,123.86 389.016,123.86 389.388,123.86 389.76,123.86 390.132,123.86 390.504,123.86 390.876,123.86 391.248,123.86 391.62,123.86 391.992,123.86 392.364,123.86 392.736,123.86 393.108,123.86 393.48,123.86 393.852,123.86 394.224,123.86 394.596,123.86 394.968,123.86 395.34,123.86 395.712,123.86 396.084,123.86 396.456,123.86 396.828,123.86 397.2,123.86 397.572,123.86 397.944,123.86 398.316,123.86 398.688,123.86 399.06,123.86 399.432,123.86 399.804,123.86 400.176,123.86 400.548,123.86 400.92,123.86 401.292,123.86 401.664,123.86 402.036,123.86 402.408,123.86 402.78,123.86 403.152,123.86 403.524,123.86 403.896,123.86 404.268,123.86 404.64,123.86 405.012,123.86 405.384,123.86 405.756,123.86 406.128,123.86 406.5,123.86 406.872,123.86 407.244,123.86 407.616,123.86 407.988,123.86 408.36,123.86 408.732,123.86 409.104,123.86 409.476,123.86 409.848,123.86 410.22,123.86 410.592,123.86 410.964,123.86 411.336,123.86 411.708,123.86 412.08,123.86 412.452,123.86 412.824,123.86 413.196,123.86 413.568,123.86 413.94,123.86 414.312,123.86 414.684,123.86 415.056,123.86 415.428,123.86 415.8,123.86 416.172,123.86 416.544,123.86 416.916,123.86 417.288,123.86 417.66,123.86 418.032,123.86 418.404,123.86 418.776,123.86 419.148,123.86 419.52,123.86 419.892,123.86 420.264,123.86 420.636,123.86 421.008,123.86 421.38,123.86 421.752,123.86 422.124,123.86 422.496,123.86 422.868,123.86 423.24,123.86 423.612,123.86 423.984,123.86 424.356,123.86 424.728,123.86 425.1,123.86 425.472,123.86 425.844,123.86 426.216,123.86 426.588,123.86 426.96,123.86 427.332,123.86 427.704,123.86 428.076,123.86 428.448,123.86 428.82,123.86 429.192,123.86 429.564,123.86 429.936,123.86 430.308,123.86 430.68,123.86 431.052,123.86 431.424,123.86 431.796,123.86 432.168,123.86 432.54,123.86 432.912,123.86 433.284,123.86 433.656,123.86 434.028,123.86 434.4,123.86" stroke="#7f7f7f" stroke-linecap="butt" stroke-linejoin="round" stroke-width="0.5"/>
  </g>
  <clipPath id="cp00480360">
   <polygon points="0,360 480,360 480,0 0,0"/>
  </clipPath>
  <g clip-path="url(#cp00480360)">
   <polygon fill="#ffffff" points="379.347,52.821 426.389,52.821 426.389,35.0105 379.347,35.0105" shape-rendering="crispEdges"/>
   <polyline fill="none" points="379.347,52.821 426.389,52.821" stroke="#262626" stroke-dasharray="16,0" stroke-linecap="square" stroke-linejoin="miter" stroke-width="0.5"/>
   <polyline fill="none" points="379.347,35.0105 426.389,35.0105" stroke="#262626" stroke-dasharray="16,0" stroke-linecap="square" stroke-linejoin="miter" stroke-width="0.5"/>
   <polyline fill="none" points="379.347,52.821 379.347,35.0105" stroke="#262626" stroke-dasharray="16,0" stroke-linecap="square" stroke-linejoin="miter" stroke-width="0.5"/>
   <polyline fill="none" points="426.389,52.821 426.389,35.0105" stroke="#262626" stroke-dasharray="16,0" stroke-linecap="square" stroke-linejoin="miter" stroke-width="0.5"/>
   <polyline fill="none" points="383.353,43.9158 403.379,43.9158" stroke="#0071bc" stroke-linecap="butt" stroke-linejoin="round" stroke-width="0.5"/>
   <g font-family="FreeSans" font-size="10.4862" font-style="normal" font-weight="normal" transform="translate(407.384,48.4158) rotate(-0,-0,-4.5)" xml:space="preserve">
    <text fill="rgb(0,0,0)" x="0 5 10 " y="-2">sys</text>
   </g>
  </g>
 </g>
</svg>
