<?xml version='1.0' encoding='UTF-8' standalone='no'?>
<svg height="360pt" viewBox="0 0 480 360" width="480pt" xmlns="http://www.w3.org/2000/svg" xmlns:xlink="http://www.w3.org/1999/xlink">
 <title>Figure 1</title>
 <desc>
Creator: GL2PS 1.4.2, (C) 1999-2020 C. Geuzaine
For: Octave
CreationDate: Wed Mar 11 06:47:56 2026
</desc>
 <defs/>
 <polygon fill="#ffffff" points="0,0 480,0 480,360 0,360"/>
 <g>
  <polygon fill="#ffffff" points="0,360 480,360 480,0 0,0" shape-rendering="crispEdges"/>
  <clipPath id="cp00480360">
   <polygon points="0,360 480,360 480,0 0,0"/>
  </clipPath>
  <g clip-path="url(#cp00480360)">
   <polygon fill="#ffffff" points="62.4,148.834 434.4,148.834 434.4,30.1338 62.4,30.1338" shape-rendering="crispEdges"/>
   <polyline fill="none" points="62.4,148.834 62.4,30.1338" stroke="#262626" stroke-dasharray="16,0" stroke-linecap="butt" stroke-linejoin="miter" stroke-opacity="0.15" stroke-width="0.5"/>
   <polyline fill="none" points="124.4,148.834 124.4,30.1338" stroke="#262626" stroke-dasharray="16,0" stroke-linecap="butt" stroke-linejoin="miter" stroke-opacity="0.15" stroke-width="0.5"/>
   <polyline fill="none" points="186.4,148.834 186.4,30.1338" stroke="#262626" stroke-dasharray="16,0" stroke-linecap="butt" stroke-linejoin="miter" stroke-opacity="0.15" stroke-width="0.5"/>
   <polyline fill="none" points="248.4,148.834 248.4,30.1338" stroke="#262626" stroke-dasharray="16,0" stroke-linecap="butt" stroke-linejoin="miter" stroke-opacity="0.15" stroke-width="0.5"/>
   <polyline fill="none" points="310.4,148.834 310.4,30.1338" stroke="#262626" stroke-dasharray="16,0" stroke-linecap="butt" stroke-linejoin="miter" stroke-opacity="0.15" stroke-width="0.5"/>
   <polyline fill="none" points="372.4,148.834 372.4,30.1338" stroke="#262626" stroke-dasharray="16,0" stroke-linecap="butt" stroke-linejoin="miter" stroke-opacity="0.15" stroke-width="0.5"/>
   <polyline fill="none" points="434.4,148.834 434.4,30.1338" stroke="#262626" stroke-dasharray="16,0" stroke-linecap="butt" stroke-linejoin="miter" stroke-opacity="0.15" stroke-width="0.5"/>
   <polyline fill="none" points="62.4,148.834 62.4,145.123" stroke="#262626" stroke-linecap="butt" stroke-linejoin="miter" stroke-width="0.5"/>
   <polyline fill="none" points="62.4,30.1338 62.4,33.8445" stroke="#262626" stroke-linecap="butt" stroke-linejoin="miter" stroke-width="0.5"/>
   <polyline fill="none" points="124.4,148.834 124.4,145.123" stroke="#262626" stroke-linecap="butt" stroke-linejoin="miter" stroke-width="0.5"/>
   <polyline fill="none" points="124.4,30.1338 124.4,33.8445" stroke="#262626" stroke-linecap="butt" stroke-linejoin="miter" stroke-width="0.5"/>
   <polyline fill="none" points="186.4,148.834 186.4,145.123" stroke="#262626" stroke-linecap="butt" stroke-linejoin="miter" stroke-width="0.5"/>
   <polyline fill="none" points="186.4,30.1338 186.4,33.8445" stroke="#262626" stroke-linecap="butt" stroke-linejoin="miter" stroke-width="0.5"/>
   <polyline fill="none" points="248.4,148.834 248.4,145.123" stroke="#262626" stroke-linecap="butt" stroke-linejoin="miter" stroke-width="0.5"/>
   <polyline fill="none" points="248.4,30.1338 248.4,33.8445" stroke="#262626" stroke-linecap="butt" stroke-linejoin="miter" stroke-width="0.5"/>
   <polyline fill="none" points="310.4,148.834 310.4,145.123" stroke="#262626" stroke-linecap="butt" stroke-linejoin="miter" stroke-width="0.5"/>
   <polyline fill="none" points="310.4,30.1338 310.4,33.8445" stroke="#262626" stroke-linecap="butt" stroke-linejoin="miter" stroke-width="0.5"/>
   <polyline fill="none" points="372.4,148.834 372.4,145.123" stroke="#262626" stroke-linecap="butt" stroke-linejoin="miter" stroke-width="0.5"/>
   <polyline fill="none" points="372.4,30.1338 372.4,33.8445" stroke="#262626" stroke-linecap="butt" stroke-linejoin="miter" stroke-width="0.5"/>
   <polyline fill="none" points="434.4,148.834 434.4,145.123" stroke="#262626" stroke-linecap="butt" stroke-linejoin="miter" stroke-width="0.5"/>
   <polyline fill="none" points="434.4,30.1338 434.4,33.8445" stroke="#262626" stroke-linecap="butt" stroke-linejoin="miter" stroke-width="0.5"/>
   <g font-family="FreeSans" font-size="11.6513" font-style="normal" font-weight="normal" transform="translate(59.4,167.55) rotate(-0,3,-10)" xml:space="preserve">
    <text fill="rgb(38,38,38)" x="0 " y="-0">0</text>
   </g>
   <g font-family="FreeSans" font-size="11.6513" font-style="normal" font-weight="normal" transform="translate(121.4,167.55) rotate(-0,3,-10)" xml:space="preserve">
    <text fill="rgb(38,38,38)" x="0 " y="-0">1</text>
   </g>
   <g font-family="FreeSans" font-size="11.6513" font-style="normal" font-weight="normal" transform="translate(183.4,167.55) rotate(-0,3,-10)" xml:space="preserve">
    <text fill="rgb(38,38,38)" x="0 " y="-0">2</text>
   </g>
   <g font-family="FreeSans" font-size="11.6513" font-style="normal" font-weight="normal" transform="translate(245.4,167.55) rotate(-0,3,-10)" xml:space="preserve">
    <text fill="rgb(38,38,38)" x="0 " y="-0">3</text>
   </g>
   <g font-family="FreeSans" font-size="11.6513" font-style="normal" font-weight="normal" transform="translate(307.4,167.55) rotate(-0,3,-10)" xml:space="preserve">
    <text fill="rgb(38,38,38)" x="0 " y="-0">4</text>
   </g>
   <g font-family="FreeSans" font-size="11.6513" font-style="normal" font-weight="normal" transform="translate(369.4,167.55) rotate(-0,3,-10)" xml:space="preserve">
    <text fill="rgb(38,38,38)" x="0 " y="-0">5</text>
   </g>
   <g font-family="FreeSans" font-size="11.6513" font-style="normal" font-weight="normal" transform="translate(431.4,167.55) rotate(-0,3,-10)" xml:space="preserve">
    <text fill="rgb(38,38,38)" x="0 " y="-0">6</text>
   </g>
   <polyline fill="none" points="62.4,143.438 434.4,143.438" stroke="#262626" stroke-dasharray="16,0" stroke-linecap="butt" stroke-linejoin="miter" stroke-opacity="0.15" stroke-width="0.5"/>
   <polyline fill="none" points="62.4,124.819 434.4,124.819" stroke="#262626" stroke-dasharray="16,0" stroke-linecap="butt" stroke-linejoin="miter" stroke-opacity="0.15" stroke-width="0.5"/>
   <polyline fill="none" points="62.4,106.2 434.4,106.2" stroke="#262626" stroke-dasharray="16,0" stroke-linecap="butt" stroke-linejoin="miter" stroke-opacity="0.15" stroke-width="0.5"/>
   <polyline fill="none" points="62.4,87.5814 434.4,87.5814" stroke="#262626" stroke-dasharray="16,0" stroke-linecap="butt" stroke-linejoin="miter" stroke-opacity="0.15" stroke-width="0.5"/>
   <polyline fill="none" points="62.4,68.9624 434.4,68.9624" stroke="#262626" stroke-dasharray="16,0" stroke-linecap="butt" stroke-linejoin="miter" stroke-opacity="0.15" stroke-width="0.5"/>
   <polyline fill="none" points="62.4,50.3434 434.4,50.3434" stroke="#262626" stroke-dasharray="16,0" stroke-linecap="butt" stroke-linejoin="miter" stroke-opacity="0.15" stroke-width="0.5"/>
   <polyline fill="none" points="62.4,31.7244 434.4,31.7244" stroke="#262626" stroke-dasharray="16,0" stroke-linecap="butt" stroke-linejoin="miter" stroke-opacity="0.15" stroke-width="0.5"/>
   <polyline fill="none" points="62.4,143.438 66.12,143.438" stroke="#262626" stroke-linecap="butt" stroke-linejoin="miter" stroke-width="0.5"/>
   <polyline fill="none" points="434.4,143.438 430.68,143.438" stroke="#262626" stroke-linecap="butt" stroke-linejoin="miter" stroke-width="0.5"/>
   <polyline fill="none" points="62.4,124.819 66.12,124.819" stroke="#262626" stroke-linecap="butt" stroke-linejoin="miter" stroke-width="0.5"/>
   <polyline fill="none" points="434.4,124.819 430.68,124.819" stroke="#262626" stroke-linecap="butt" stroke-linejoin="miter" stroke-width="0.5"/>
   <polyline fill="none" points="62.4,106.2 66.12,106.2" stroke="#262626" stroke-linecap="butt" stroke-linejoin="miter" stroke-width="0.5"/>
   <polyline fill="none" points="434.4,106.2 430.68,106.2" stroke="#262626" stroke-linecap="butt" stroke-linejoin="miter" stroke-width="0.5"/>
   <polyline fill="none" points="62.4,87.5814 66.12,87.5814" stroke="#262626" stroke-linecap="butt" stroke-linejoin="miter" stroke-width="0.5"/>
   <polyline fill="none" points="434.4,87.5814 430.68,87.5814" stroke="#262626" stroke-linecap="butt" stroke-linejoin="miter" stroke-width="0.5"/>
   <polyline fill="none" points="62.4,68.9624 66.12,68.9624" stroke="#262626" stroke-linecap="butt" stroke-linejoin="miter" stroke-width="0.5"/>
   <polyline fill="none" points="434.4,68.9624 430.68,68.9624" stroke="#262626" stroke-linecap="butt" stroke-linejoin="miter" stroke-width="0.5"/>
   <polyline fill="none" points="62.4,50.3434 66.12,50.3434" stroke="#262626" stroke-linecap="butt" stroke-linejoin="miter" stroke-width="0.5"/>
   <polyline fill="none" points="434.4,50.3434 430.68,50.3434" stroke="#262626" stroke-linecap="butt" stroke-linejoin="miter" stroke-width="0.5"/>
   <polyline fill="none" points="62.4,31.7244 66.12,31.7244" stroke="#262626" stroke-linecap="butt" stroke-linejoin="miter" stroke-width="0.5"/>
   <polyline fill="none" points="434.4,31.7244 430.68,31.7244" stroke="#262626" stroke-linecap="butt" stroke-linejoin="miter" stroke-width="0.5"/>
   <g font-family="FreeSans" font-size="11.6513" font-style="normal" font-weight="normal" transform="translate(46.5743,148.438) rotate(-0,10,-5)" xml:space="preserve">
    <text fill="rgb(38,38,38)" x="0 4 " y="-0">-1</text>
   </g>
   <g font-family="FreeSans" font-size="11.6513" font-style="normal" font-weight="normal" transform="translate(37.5743,129.819) rotate(-0,19,-5)" xml:space="preserve">
    <text fill="rgb(38,38,38)" x="0 4 10 13 " y="-0">-0.5</text>
   </g>
   <g font-family="FreeSans" font-size="11.6513" font-style="normal" font-weight="normal" transform="translate(50.5743,111.2) rotate(-0,6,-5)" xml:space="preserve">
    <text fill="rgb(38,38,38)" x="0 " y="-0">0</text>
   </g>
   <g font-family="FreeSans" font-size="11.6513" font-style="normal" font-weight="normal" transform="translate(41.5743,92.5814) rotate(-0,15,-5)" xml:space="preserve">
    <text fill="rgb(38,38,38)" x="0 6 9 " y="-0">0.5</text>
   </g>
   <g font-family="FreeSans" font-size="11.6513" font-style="normal" font-weight="normal" transform="translate(50.5743,73.9624) rotate(-0,6,-5)" xml:space="preserve">
    <text fill="rgb(38,38,38)" x="0 " y="-0">1</text>
   </g>
   <g font-family="FreeSans" font-size="11.6513" font-style="normal" font-weight="normal" transform="translate(41.5743,55.3434) rotate(-0,15,-5)" xml:space="preserve">
    <text fill="rgb(38,38,38)" x="0 6 9 " y="-0">1.5</text>
   </g>
   <g font-family="FreeSans" font-size="11.6513" font-style="normal" font-weight="normal" transform="translate(50.5743,36.7244) rotate(-0,6,-5)" xml:space="preserve">
    <text fill="rgb(38,38,38)" x="0 " y="-0">2</text>
   </g>
   <polyline fill="none" points="62.4,148.834 434.4,148.834" stroke="#262626" stroke-dasharray="16,0" stroke-linecap="square" stroke-linejoin="miter" stroke-width="0.5"/>
   <polyline fill="none" points="62.4,30.1338 434.4,30.1338" stroke="#262626" stroke-dasharray="16,0" stroke-linecap="square" stroke-linejoin="miter" stroke-width="0.5"/>
   <polyline fill="none" points="62.4,148.834 62.4,30.1338" stroke="#262626" stroke-dasharray="16,0" stroke-linecap="square" stroke-linejoin="miter" stroke-width="0.5"/>
   <polyline fill="none" points="434.4,148.834 434.4,30.1338" stroke="#262626" stroke-dasharray="16,0" stroke-linecap="square" stroke-linejoin="miter" stroke-width="0.5"/>
   <g font-family="FreeSans" font-size="12.8165" font-style="normal" font-weight="bold" transform="translate(169.4,20.1338) rotate(-0,79,0)" xml:space="preserve">
    <text fill="rgb(0,0,0)" x="0 8 12 20 27 34 39 43 52 56 67 75 78 85 89 93 101 109 113 122 129 136 144 147 151 " y="-1">Linear Simulation Results</text>
   </g>
   <g font-family="FreeSans" font-size="12.8165" font-style="normal" font-weight="normal" transform="translate(26.0743,89.4838) rotate(-90,6.5,0)" xml:space="preserve">
    <text fill="rgb(38,38,38)" x="0 6 " y="-3">y1</text>
   </g>
   <polyline fill="none" points="62.4,106.2 63.02,107.153 63.64,108 64.26,108.741 64.88,109.378 65.5,109.91 66.12,110.339 66.74,110.665 67.36,110.89 67.98,111.015 68.6,111.042 69.22,110.972 69.84,110.807 70.46,110.549 71.08,110.201 71.7,109.763 72.32,109.239 72.94,108.632 73.56,107.943 74.18,107.176 74.8,106.333 75.42,105.417 76.04,104.432 76.66,103.38 77.28,102.264 77.9,101.087 78.52,99.8537 79.14,98.5663 79.76,97.2283 80.38,95.8433 81,94.4145 81.62,92.9456 82.24,91.4399 82.86,89.901 83.48,88.3324 84.1,86.7375 84.72,85.1199 85.34,83.483 85.96,81.8304 86.58,80.1654 87.2,78.4915 87.82,76.8121 88.44,75.1306 89.06,73.4502 89.68,71.7742 90.3,70.1058 90.92,68.4482 91.54,66.8044 92.16,65.1776 92.78,63.5705 93.4,61.9861 94.02,60.4273 94.64,58.8967 95.26,57.397 95.88,55.9306 96.5,54.5002 97.12,53.108 97.74,51.7563 98.36,50.4473 98.98,49.1831 99.6,47.9655 100.22,46.7967 100.84,45.6781 101.46,44.6116 102.08,43.5987 102.7,42.6409 103.32,41.7394 103.94,40.8955 104.56,40.1103 105.18,39.3849 105.8,38.7201 106.42,38.1167 107.04,37.5755 107.66,37.097 108.28,36.6816 108.9,36.3298 109.52,36.0417 110.14,35.8177 110.76,35.6576 111.38,35.5616 112,35.5293 112.62,35.5606 113.24,35.6552 113.86,35.8126 114.48,36.0323 115.1,36.3138 115.72,36.6561 116.34,37.0588 116.96,37.5208 117.58,38.0412 118.2,38.619 118.82,39.2531 119.44,39.9424 120.06,40.6856 120.68,41.4815 121.3,42.3286 121.92,43.2257 122.54,44.1711 123.16,45.1635 123.78,46.2011 124.4,47.2825 125.02,48.406 125.64,49.5698 126.26,50.7723 126.88,52.0116 127.5,53.286 128.12,54.5938 128.74,55.9329 129.36,57.3015 129.98,58.6979 130.6,60.1201 131.22,61.5661 131.84,63.0341 132.46,64.5221 133.08,66.0283 133.7,67.5507 134.32,69.0874 134.94,70.6365 135.56,72.1961 136.18,73.7643 136.8,75.3392 137.42,76.9191 138.04,78.5019 138.66,80.086 139.28,81.6696 139.9,83.2508 140.52,84.828 141.14,86.3994 141.76,87.9634 142.38,89.5184 143,91.0627 143.62,92.5947 144.24,94.113 144.86,95.6161 145.48,97.1024 146.1,98.5707 146.72,100.02 147.34,101.448 147.96,102.854 148.58,104.237 149.2,105.595 149.82,106.928 150.44,108.235 151.06,109.514 151.68,110.764 152.3,111.985 152.92,113.176 153.54,114.335 154.16,115.463 154.78,116.558 155.4,117.62 156.02,118.648 156.64,119.641 157.26,120.6 157.88,121.524 158.5,122.411 159.12,123.263 159.74,124.078 160.36,124.857 160.98,125.599 161.6,126.304 162.22,126.972 162.84,127.603 163.46,128.197 164.08,128.754 164.7,129.274 165.32,129.757 165.94,130.203 166.56,130.613 167.18,130.987 167.8,131.325 168.42,131.627 169.04,131.893 169.66,132.125 170.28,132.322 170.9,132.486 171.52,132.615 172.14,132.712 172.76,132.776 173.38,132.809 174,132.809 174.62,132.78 175.24,132.719 175.86,132.63 176.48,132.512 177.1,132.365 177.72,132.192 178.34,131.991 178.96,131.765 179.58,131.513 180.2,131.237 180.82,130.937 181.44,130.614 182.06,130.27 182.68,129.903 183.3,129.517 183.92,129.11 184.54,128.685 185.16,128.241 185.78,127.78 186.4,127.302 187.02,126.809 187.64,126.301 188.26,125.778 188.88,125.242 189.5,124.693 190.12,124.132 190.74,123.56 191.36,122.978 191.98,122.386 192.6,121.785 193.22,121.176 193.84,120.559 194.46,119.935 195.08,119.305 195.7,118.67 196.32,118.029 196.94,117.385 197.56,116.736 198.18,116.085 198.8,115.431 199.42,114.775 200.04,114.118 200.66,113.46 201.28,112.802 201.9,112.144 202.52,111.486 203.14,110.83 203.76,110.175 204.38,109.522 205,108.871 205.62,108.223 206.24,107.579 206.86,106.938 207.48,106.3 208.1,105.667 208.72,105.038 209.34,104.414 209.96,103.795 210.58,103.181 211.2,102.573 211.82,101.97 212.44,101.373 213.06,100.782 213.68,100.198 214.3,99.6198 214.92,99.0483 215.54,98.4834 216.16,97.9253 216.78,97.3741 217.4,96.8298 218.02,96.2927 218.64,95.7626 219.26,95.2397 219.88,94.7241 220.5,94.2157 221.12,93.7146 221.74,93.2208 222.36,92.7343 222.98,92.2552 223.6,91.7833 224.22,91.3188 224.84,90.8615 225.46,90.4114 226.08,89.9686 226.7,89.5329 227.32,89.1044 227.94,88.683 228.56,88.2686 229.18,87.8612 229.8,87.4608 230.42,87.0672 231.04,86.6805 231.66,86.3005 232.28,85.9272 232.9,85.5607 233.52,85.2007 234.14,84.8472 234.76,84.5002 235.38,84.1597 236,83.8255 236.62,83.4976 237.24,83.176 237.86,82.8606 238.48,82.5514 239.1,82.2483 239.72,81.9514 240.34,81.6604 240.96,81.3756 241.58,81.0967 242.2,80.8238 242.82,80.5569 243.44,80.296 244.06,80.041 244.68,79.7919 245.3,79.5488 245.92,79.3116 246.54,79.0804 247.16,78.8552 247.78,78.636 248.4,78.4229 249.02,78.2158 249.64,78.0148 250.26,77.8199 250.88,77.6313 251.5,77.4489 252.12,77.2728 252.74,77.1031 253.36,76.9398 253.98,76.7831 254.6,76.6329 255.22,76.4894 255.84,76.3526 256.46,76.2227 257.08,76.0998 257.7,75.9839 258.32,75.8751 258.94,75.7736 259.56,75.6794 260.18,75.5927 260.8,75.5135 261.42,75.442 262.04,75.3784 262.66,75.3226 263.28,75.2749 263.9,75.2354 264.52,75.2042 265.14,75.1813 265.76,75.167 266.38,75.1613 267,75.1645 267.62,75.1765 268.24,75.1975 268.86,75.2278 269.48,75.2672 270.1,75.316 270.72,75.3744 271.34,75.4423 271.96,75.52 272.58,75.6075 273.2,75.705 273.82,75.8124 274.44,75.9301 275.06,76.0579 275.68,76.1961 276.3,76.3446 276.92,76.5037 277.54,76.6734 278.16,76.8536 278.78,77.0446 279.4,77.2463 280.02,77.4589 280.64,77.6823 281.26,77.9167 281.88,78.1619 282.5,78.4182 283.12,78.6854 283.74,78.9636 284.36,79.2528 284.98,79.5531 285.6,79.8644 286.22,80.1866 286.84,80.5198 287.46,80.864 288.08,81.219 288.7,81.5849 289.32,81.9616 289.94,82.349 290.56,82.7471 291.18,83.1557 291.8,83.5749 292.42,84.0044 293.04,84.4442 293.66,84.8942 294.28,85.3542 294.9,85.8241 295.52,86.3038 296.14,86.7932 296.76,87.292 297.38,87.8001 298,88.3173 298.62,88.8435 299.24,89.3785 299.86,89.922 300.48,90.4739 301.1,91.034 301.72,91.6019 302.34,92.1776 302.96,92.7607 303.58,93.351 304.2,93.9484 304.82,94.5524 305.44,95.1628 306.06,95.7795 306.68,96.402 307.3,97.0302 307.92,97.6637 308.54,98.3022 309.16,98.9455 309.78,99.5932 310.4,100.245 311.02,100.901 311.64,101.56 312.26,102.222 312.88,102.887 313.5,103.555 314.12,104.224 314.74,104.896 315.36,105.569 315.98,106.243 316.6,106.918 317.22,107.593 317.84,108.268 318.46,108.943 319.08,109.618 319.7,110.291 320.32,110.963 320.94,111.633 321.56,112.301 322.18,112.967 322.8,113.63 323.42,114.29 324.04,114.946 324.66,115.598 325.28,116.246 325.9,116.889 326.52,117.527 327.14,118.16 327.76,118.787 328.38,119.408 329,120.023 329.62,120.631 330.24,121.231 330.86,121.824 331.48,122.41 332.1,122.987 332.72,123.556 333.34,124.116 333.96,124.667 334.58,125.208 335.2,125.739 335.82,126.261 336.44,126.772 337.06,127.272 337.68,127.762 338.3,128.24 338.92,128.706 339.54,129.161 340.16,129.603 340.78,130.033 341.4,130.451 342.02,130.855 342.64,131.247 343.26,131.625 343.88,131.989 344.5,132.339 345.12,132.675 345.74,132.997 346.36,133.305 346.98,133.598 347.6,133.875 348.22,134.138 348.84,134.385 349.46,134.617 350.08,134.834 350.7,135.034 351.32,135.219 351.94,135.387 352.56,135.539 353.18,135.675 353.8,135.795 354.42,135.898 355.04,135.984 355.66,136.054 356.28,136.106 356.9,136.142 357.52,136.161 358.14,136.163 358.76,136.148 359.38,136.115 360,136.065 360.62,135.999 361.24,135.915 361.86,135.813 362.48,135.695 363.1,135.559 363.72,135.406 364.34,135.236 364.96,135.048 365.58,134.843 366.2,134.622 366.82,134.383 367.44,134.127 368.06,133.854 368.68,133.565 369.3,133.258 369.92,132.935 370.54,132.595 371.16,132.239 371.78,131.866 372.4,131.477 373.02,131.072 373.64,130.65 374.26,130.213 374.88,129.76 375.5,129.291 376.12,128.807 376.74,128.307 377.36,127.793 377.98,127.263 378.6,126.719 379.22,126.16 379.84,125.586 380.46,124.998 381.08,124.396 381.7,123.781 382.32,123.151 382.94,122.508 383.56,121.852 384.18,121.184 384.8,120.502 385.42,119.808 386.04,119.101 386.66,118.383 387.28,117.653 387.9,116.911 388.52,116.158 389.14,115.394 389.76,114.62 390.38,113.835 391,113.04 391.62,112.234 392.24,111.42 392.86,110.596 393.48,109.763 394.1,108.921 394.72,108.071 395.34,107.213 395.96,106.347 396.58,105.473 397.2,104.592 397.82,103.704 398.44,102.81 399.06,101.909 399.68,101.003 400.3,100.09 400.92,99.173 401.54,98.2505 402.16,97.3233 402.78,96.3918 403.4,95.4563 404.02,94.5172 404.64,93.5746 405.26,92.6292 405.88,91.681 406.5,90.7305 407.12,89.778 407.74,88.8239 408.36,87.8685 408.98,86.912 409.6,85.955 410.22,84.9977 410.84,84.0404 411.46,83.0835 412.08,82.1274 412.7,81.1723 413.32,80.2187 413.94,79.2668 414.56,78.317 415.18,77.3697 415.8,76.4251 416.42,75.4837 417.04,74.5457 417.66,73.6116 418.28,72.6815 418.9,71.756 419.52,70.8353 420.14,69.9196 420.76,69.0095 421.38,68.1052 422,67.207 422.62,66.3153 423.24,65.4304 423.86,64.5526 424.48,63.6822 425.1,62.8195 425.72,61.965 426.34,61.1188 426.96,60.2813 427.58,59.4529 428.2,58.6337 428.82,57.8242 429.44,57.0246 430.06,56.2352 430.68,55.4563 431.3,54.6882 431.92,53.9312 432.54,53.1856 433.16,52.4517 433.78,51.7297 434.4,51.02" stroke="#0071bc" stroke-linecap="butt" stroke-linejoin="round" stroke-width="0.5"/>
   <polyline fill="none" points="62.4,98.7528 63.02,98.6076 63.64,98.4624 64.26,98.3172 64.88,98.1721 65.5,98.0272 66.12,97.8823 66.74,97.7376 67.36,97.5931 67.98,97.4487 68.6,97.3046 69.22,97.1607 69.84,97.0171 70.46,96.8738 71.08,96.7308 71.7,96.5882 72.32,96.4459 72.94,96.304 73.56,96.1625 74.18,96.0214 74.8,95.8809 75.42,95.7408 76.04,95.6012 76.66,95.4621 77.28,95.3236 77.9,95.1857 78.52,95.0483 79.14,94.9117 79.76,94.7756 80.38,94.6402 81,94.5056 81.62,94.3716 82.24,94.2384 82.86,94.1059 83.48,93.9742 84.1,93.8434 84.72,93.7133 85.34,93.5842 85.96,93.4559 86.58,93.3284 87.2,93.2019 87.82,93.0764 88.44,92.9518 89.06,92.8282 89.68,92.7055 90.3,92.584 90.92,92.4634 91.54,92.3439 92.16,92.2255 92.78,92.1082 93.4,91.992 94.02,91.877 94.64,91.7631 95.26,91.6504 95.88,91.5389 96.5,91.4286 97.12,91.3196 97.74,91.2118 98.36,91.1053 98.98,91.0001 99.6,90.8962 100.22,90.7936 100.84,90.6924 101.46,90.5925 102.08,90.494 102.7,90.3969 103.32,90.3012 103.94,90.207 104.56,90.1142 105.18,90.0228 105.8,89.9329 106.42,89.8445 107.04,89.7577 107.66,89.6723 108.28,89.5885 108.9,89.5062 109.52,89.4255 110.14,89.3463 110.76,89.2688 111.38,89.1929 112,89.1185 112.62,89.0458 113.24,88.9748 113.86,88.9054 114.48,88.8376 115.1,88.7715 115.72,88.7072 116.34,88.6445 116.96,88.5835 117.58,88.5243 118.2,88.4667 118.82,88.4109 119.44,88.3569 120.06,88.3046 120.68,88.2541 121.3,88.2053 121.92,88.1584 122.54,88.1132 123.16,88.0698 123.78,88.0283 124.4,87.9885 125.02,87.9506 125.64,87.9144 126.26,87.8802 126.88,87.8477 127.5,87.8171 128.12,87.7884 128.74,87.7615 129.36,87.7364 129.98,87.7133 130.6,87.6919 131.22,87.6725 131.84,87.6549 132.46,87.6392 133.08,87.6254 133.7,87.6135 134.32,87.6034 134.94,87.5952 135.56,87.589 136.18,87.5846 136.8,87.582 137.42,87.5814 138.04,87.5827 138.66,87.5858 139.28,87.5909 139.9,87.5978 140.52,87.6066 141.14,87.6173 141.76,87.6299 142.38,87.6443 143,87.6607 143.62,87.6789 144.24,87.6989 144.86,87.7209 145.48,87.7447 146.1,87.7704 146.72,87.7979 147.34,87.8273 147.96,87.8585 148.58,87.8916 149.2,87.9265 149.82,87.9632 150.44,88.0018 151.06,88.0421 151.68,88.0843 152.3,88.1283 152.92,88.1741 153.54,88.2216 154.16,88.271 154.78,88.3221 155.4,88.375 156.02,88.4296 156.64,88.486 157.26,88.5441 157.88,88.604 158.5,88.6655 159.12,88.7288 159.74,88.7938 160.36,88.8604 160.98,88.9287 161.6,88.9987 162.22,89.0703 162.84,89.1436 163.46,89.2184 164.08,89.2949 164.7,89.373 165.32,89.4527 165.94,89.5339 166.56,89.6167 167.18,89.7011 167.8,89.787 168.42,89.8743 169.04,89.9632 169.66,90.0536 170.28,90.1454 170.9,90.2388 171.52,90.3335 172.14,90.4297 172.76,90.5273 173.38,90.6262 174,90.7265 174.62,90.8282 175.24,90.9312 175.86,91.0356 176.48,91.1413 177.1,91.2482 177.72,91.3564 178.34,91.4659 178.96,91.5766 179.58,91.6885 180.2,91.8016 180.82,91.9159 181.44,92.0313 182.06,92.1479 182.68,92.2655 183.3,92.3843 183.92,92.5042 184.54,92.6251 185.16,92.747 185.78,92.87 186.4,92.9939 187.02,93.1189 187.64,93.2447 188.26,93.3716 188.88,93.4993 189.5,93.6279 190.12,93.7574 190.74,93.8877 191.36,94.0188 191.98,94.1507 192.6,94.2834 193.22,94.4169 193.84,94.5511 194.46,94.6861 195.08,94.8217 195.7,94.9579 196.32,95.0948 196.94,95.2324 197.56,95.3705 198.18,95.5092 198.8,95.6484 199.42,95.7882 200.04,95.9285 200.66,96.0692 201.28,96.2104 201.9,96.352 202.52,96.494 203.14,96.6365 203.76,96.7792 204.38,96.9224 205,97.0658 205.62,97.2095 206.24,97.3534 206.86,97.4977 207.48,97.6421 208.1,97.7867 208.72,97.9314 209.34,98.0763 209.96,98.2213 210.58,98.3664 211.2,98.5116 211.82,98.6568 212.44,98.802 213.06,98.9473 213.68,99.0924 214.3,99.2376 214.92,99.3826 215.54,99.5276 216.16,99.6724 216.78,99.817 217.4,99.9615 218.02,100.106 218.64,100.25 219.26,100.394 219.88,100.537 220.5,100.68 221.12,100.823 221.74,100.966 222.36,101.108 222.98,101.25 223.6,101.391 224.22,101.532 224.84,101.672 225.46,101.812 226.08,101.952 226.7,102.091 227.32,102.229 227.94,102.367 228.56,102.504 229.18,102.64 229.8,102.776 230.42,102.911 231.04,103.046 231.66,103.179 232.28,103.312 232.9,103.444 233.52,103.576 234.14,103.706 234.76,103.836 235.38,103.965 236,104.093 236.62,104.22 237.24,104.346 237.86,104.472 238.48,104.596 239.1,104.719 239.72,104.841 240.34,104.963 240.96,105.083 241.58,105.202 242.2,105.32 242.82,105.437 243.44,105.553 244.06,105.667 244.68,105.781 245.3,105.893 245.92,106.004 246.54,106.114 247.16,106.223 247.78,106.33 248.4,106.436 249.02,106.541 249.64,106.644 250.26,106.746 250.88,106.847 251.5,106.947 252.12,107.045 252.74,107.141 253.36,107.236 253.98,107.33 254.6,107.423 255.22,107.513 255.84,107.603 256.46,107.691 257.08,107.777 257.7,107.862 258.32,107.945 258.94,108.027 259.56,108.107 260.18,108.186 260.8,108.263 261.42,108.338 262.04,108.412 262.66,108.484 263.28,108.555 263.9,108.623 264.52,108.691 265.14,108.756 265.76,108.82 266.38,108.882 267,108.942 267.62,109.001 268.24,109.058 268.86,109.113 269.48,109.167 270.1,109.218 270.72,109.268 271.34,109.316 271.96,109.363 272.58,109.407 273.2,109.45 273.82,109.491 274.44,109.53 275.06,109.567 275.68,109.603 276.3,109.637 276.92,109.668 277.54,109.698 278.16,109.727 278.78,109.753 279.4,109.777 280.02,109.8 280.64,109.82 281.26,109.839 281.88,109.856 282.5,109.871 283.12,109.884 283.74,109.896 284.36,109.905 284.98,109.913 285.6,109.918 286.22,109.922 286.84,109.924 287.46,109.924 288.08,109.922 288.7,109.918 289.32,109.913 289.94,109.905 290.56,109.896 291.18,109.884 291.8,109.871 292.42,109.856 293.04,109.839 293.66,109.82 294.28,109.799 294.9,109.777 295.52,109.752 296.14,109.726 296.76,109.698 297.38,109.668 298,109.636 298.62,109.602 299.24,109.567 299.86,109.53 300.48,109.49 301.1,109.449 301.72,109.407 302.34,109.362 302.96,109.316 303.58,109.267 304.2,109.217 304.82,109.166 305.44,109.112 306.06,109.057 306.68,109 307.3,108.941 307.92,108.881 308.54,108.819 309.16,108.755 309.78,108.689 310.4,108.622 311.02,108.553 311.64,108.483 312.26,108.411 312.88,108.337 313.5,108.261 314.12,108.184 314.74,108.106 315.36,108.026 315.98,107.944 316.6,107.86 317.22,107.776 317.84,107.689 318.46,107.601 319.08,107.512 319.7,107.421 320.32,107.329 320.94,107.235 321.56,107.14 322.18,107.043 322.8,106.945 323.42,106.846 324.04,106.745 324.66,106.643 325.28,106.539 325.9,106.434 326.52,106.328 327.14,106.221 327.76,106.112 328.38,106.002 329,105.891 329.62,105.779 330.24,105.665 330.86,105.551 331.48,105.435 332.1,105.318 332.72,105.2 333.34,105.081 333.96,104.961 334.58,104.839 335.2,104.717 335.82,104.594 336.44,104.469 337.06,104.344 337.68,104.218 338.3,104.091 338.92,103.963 339.54,103.834 340.16,103.704 340.78,103.574 341.4,103.442 342.02,103.31 342.64,103.177 343.26,103.043 343.88,102.909 344.5,102.774 345.12,102.638 345.74,102.501 346.36,102.364 346.98,102.226 347.6,102.088 348.22,101.949 348.84,101.81 349.46,101.67 350.08,101.529 350.7,101.389 351.32,101.247 351.94,101.105 352.56,100.963 353.18,100.821 353.8,100.678 354.42,100.535 355.04,100.391 355.66,100.247 356.28,100.103 356.9,99.959 357.52,99.8145 358.14,99.6699 358.76,99.5251 359.38,99.3801 360,99.2351 360.62,99.09 361.24,98.9448 361.86,98.7996 362.48,98.6543 363.1,98.5091 363.72,98.364 364.34,98.2188 364.96,98.0738 365.58,97.9289 366.2,97.7842 366.82,97.6396 367.44,97.4952 368.06,97.351 368.68,97.207 369.3,97.0633 369.92,96.9199 370.54,96.7768 371.16,96.634 371.78,96.4916 372.4,96.3496 373.02,96.208 373.64,96.0668 374.26,95.9261 374.88,95.7858 375.5,95.646 376.12,95.5068 376.74,95.3681 377.36,95.23 377.98,95.0925 378.6,94.9556 379.22,94.8193 379.84,94.6837 380.46,94.5489 381.08,94.4146 381.7,94.2812 382.32,94.1485 382.94,94.0165 383.56,93.8854 384.18,93.7551 384.8,93.6257 385.42,93.4971 386.04,93.3694 386.66,93.2426 387.28,93.1167 387.9,92.9918 388.52,92.8679 389.14,92.7449 389.76,92.623 390.38,92.5021 391,92.3823 391.62,92.2635 392.24,92.1458 392.86,92.0293 393.48,91.9139 394.1,91.7996 394.72,91.6866 395.34,91.5747 395.96,91.464 396.58,91.3546 397.2,91.2464 397.82,91.1395 398.44,91.0338 399.06,90.9295 399.68,90.8265 400.3,90.7248 400.92,90.6245 401.54,90.5256 402.16,90.428 402.78,90.3319 403.4,90.2372 404.02,90.1439 404.64,90.0521 405.26,89.9617 405.88,89.8728 406.5,89.7855 407.12,89.6996 407.74,89.6153 408.36,89.5325 408.98,89.4513 409.6,89.3716 410.22,89.2936 410.84,89.2171 411.46,89.1423 412.08,89.0691 412.7,88.9975 413.32,88.9275 413.94,88.8593 414.56,88.7926 415.18,88.7277 415.8,88.6645 416.42,88.6029 417.04,88.5431 417.66,88.485 418.28,88.4287 418.9,88.3741 419.52,88.3212 420.14,88.2701 420.76,88.2208 421.38,88.1733 422,88.1276 422.62,88.0836 423.24,88.0414 423.86,88.0011 424.48,87.9626 425.1,87.9259 425.72,87.891 426.34,87.858 426.96,87.8268 427.58,87.7974 428.2,87.7699 428.82,87.7443 429.44,87.7205 430.06,87.6986 430.68,87.6786 431.3,87.6604 431.92,87.6441 432.54,87.6296 433.16,87.6171 433.78,87.6064 434.4,87.5977" stroke="#cccccc" stroke-dasharray="8,3,2,3" stroke-linecap="butt" stroke-linejoin="round" stroke-width="0.5"/>
   <polyline fill="none" points="62.4,68.9624 63.02,68.9698 63.64,68.9922 64.26,69.0294 64.88,69.0815 65.5,69.1484 66.12,69.2302 66.74,69.3267 67.36,69.438 67.98,69.564 68.6,69.7047 69.22,69.8599 69.84,70.0297 70.46,70.214 71.08,70.4126 71.7,70.6255 72.32,70.8528 72.94,71.0941 73.56,71.3495 74.18,71.6188 74.8,71.9019 75.42,72.1988 76.04,72.5092 76.66,72.8332 77.28,73.1705 77.9,73.521 78.52,73.8846 79.14,74.261 79.76,74.6503 80.38,75.0522 81,75.4665 81.62,75.8932 82.24,76.3319 82.86,76.7827 83.48,77.2451 84.1,77.7192 84.72,78.2047 85.34,78.7013 85.96,79.209 86.58,79.7274 87.2,80.2564 87.82,80.7958 88.44,81.3454 89.06,81.9049 89.68,82.4742 90.3,83.0529 90.92,83.6409 91.54,84.2379 92.16,84.8437 92.78,85.458 93.4,86.0806 94.02,86.7113 94.64,87.3498 95.26,87.9958 95.88,88.6491 96.5,89.3094 97.12,89.9764 97.74,90.65 98.36,91.3298 98.98,92.0155 99.6,92.7069 100.22,93.4037 100.84,94.1056 101.46,94.8124 102.08,95.5237 102.7,96.2393 103.32,96.9588 103.94,97.6821 104.56,98.4088 105.18,99.1385 105.8,99.8712 106.42,100.606 107.04,101.344 107.66,102.083 108.28,102.824 108.9,103.566 109.52,104.31 110.14,105.054 110.76,105.798 111.38,106.543 112,107.288 112.62,108.032 113.24,108.775 113.86,109.518 114.48,110.259 115.1,110.998 115.72,111.736 116.34,112.471 116.96,113.204 117.58,113.934 118.2,114.661 118.82,115.385 119.44,116.104 120.06,116.82 120.68,117.532 121.3,118.239 121.92,118.941 122.54,119.639 123.16,120.33 123.78,121.017 124.4,121.697 125.02,122.371 125.64,123.039 126.26,123.699 126.88,124.353 127.5,125 128.12,125.639 128.74,126.27 129.36,126.894 129.98,127.509 130.6,128.115 131.22,128.713 131.84,129.301 132.46,129.881 133.08,130.451 133.7,131.011 134.32,131.562 134.94,132.102 135.56,132.632 136.18,133.151 136.8,133.659 137.42,134.157 138.04,134.643 138.66,135.118 139.28,135.582 139.9,136.033 140.52,136.473 141.14,136.901 141.76,137.316 142.38,137.719 143,138.109 143.62,138.487 144.24,138.851 144.86,139.203 145.48,139.541 146.1,139.866 146.72,140.178 147.34,140.476 147.96,140.76 148.58,141.03 149.2,141.287 149.82,141.529 150.44,141.758 151.06,141.972 151.68,142.172 152.3,142.357 152.92,142.528 153.54,142.684 154.16,142.826 154.78,142.953 155.4,143.066 156.02,143.163 156.64,143.246 157.26,143.315 157.88,143.368 158.5,143.406 159.12,143.43 159.74,143.438 160.36,143.432 160.98,143.411 161.6,143.375 162.22,143.324 162.84,143.258 163.46,143.178 164.08,143.082 164.7,142.972 165.32,142.847 165.94,142.708 166.56,142.554 167.18,142.385 167.8,142.202 168.42,142.005 169.04,141.793 169.66,141.567 170.28,141.326 170.9,141.072 171.52,140.804 172.14,140.522 172.76,140.226 173.38,139.917 174,139.594 174.62,139.258 175.24,138.908 175.86,138.546 176.48,138.17 177.1,137.782 177.72,137.381 178.34,136.968 178.96,136.542 179.58,136.104 180.2,135.654 180.82,135.193 181.44,134.72 182.06,134.235 182.68,133.739 183.3,133.233 183.92,132.715 184.54,132.187 185.16,131.648 185.78,131.1 186.4,130.541 187.02,129.972 187.64,129.394 188.26,128.807 188.88,128.211 189.5,127.606 190.12,126.992 190.74,126.37 191.36,125.74 191.98,125.102 192.6,124.457 193.22,123.804 193.84,123.144 194.46,122.478 195.08,121.805 195.7,121.125 196.32,120.44 196.94,119.749 197.56,119.053 198.18,118.351 198.8,117.645 199.42,116.934 200.04,116.219 200.66,115.499 201.28,114.776 201.9,114.05 202.52,113.32 203.14,112.588 203.76,111.853 204.38,111.116 205,110.377 205.62,109.636 206.24,108.894 206.86,108.15 207.48,107.406 208.1,106.662 208.72,105.917 209.34,105.172 209.96,104.428 210.58,103.685 211.2,102.942 211.82,102.201 212.44,101.461 213.06,100.724 213.68,99.9881 214.3,99.2551 214.92,98.5248 215.54,97.7976 216.16,97.0738 216.78,96.3536 217.4,95.6374 218.02,94.9254 218.64,94.2179 219.26,93.5152 219.88,92.8175 220.5,92.1252 221.12,91.4386 221.74,90.7579 222.36,90.0833 222.98,89.4152 223.6,88.7538 224.22,88.0993 224.84,87.4521 225.46,86.8125 226.08,86.1805 226.7,85.5566 227.32,84.9409 227.94,84.3338 228.56,83.7354 229.18,83.1459 229.8,82.5657 230.42,81.9949 231.04,81.4339 231.66,80.8827 232.28,80.3416 232.9,79.8109 233.52,79.2908 234.14,78.7814 234.76,78.283 235.38,77.7957 236,77.3199 236.62,76.8555 237.24,76.4029 237.86,75.9622 238.48,75.5337 239.1,75.1173 239.72,74.7135 240.34,74.3222 240.96,73.9436 241.58,73.578 242.2,73.2254 242.82,72.886 243.44,72.5599 244.06,72.2473 244.68,71.9483 245.3,71.6629 245.92,71.3914 246.54,71.1338 247.16,70.8903 247.78,70.6608 248.4,70.4456 249.02,70.2446 249.64,70.0581 250.26,69.886 250.88,69.7284 251.5,69.5854 252.12,69.4571 252.74,69.3434 253.36,69.2446 253.98,69.1605 254.6,69.0912 255.22,69.0367 255.84,68.9971 256.46,68.9724 257.08,68.9626 257.7,68.9677 258.32,68.9876 258.94,69.0225 259.56,69.0722 260.18,69.1367 260.8,69.2162 261.42,69.3104 262.04,69.4193 262.66,69.543 263.28,69.6813 263.9,69.8342 264.52,70.0017 265.14,70.1836 265.76,70.38 266.38,70.5907 267,70.8156 267.62,71.0547 268.24,71.3079 268.86,71.575 269.48,71.8559 270.1,72.1506 270.72,72.4589 271.34,72.7807 271.96,73.1158 272.58,73.4643 273.2,73.8258 273.82,74.2002 274.44,74.5874 275.06,74.9873 275.68,75.3997 276.3,75.8244 276.92,76.2613 277.54,76.7101 278.16,77.1707 278.78,77.6429 279.4,78.1266 280.02,78.6215 280.64,79.1274 281.26,79.6441 281.88,80.1715 282.5,80.7092 283.12,81.2572 283.74,81.8152 284.36,82.3828 284.98,82.9601 285.6,83.5466 286.22,84.1422 286.84,84.7466 287.46,85.3596 288.08,85.9809 288.7,86.6103 289.32,87.2476 289.94,87.8924 290.56,88.5446 291.18,89.2038 291.8,89.8698 292.42,90.5423 293.04,91.2211 293.66,91.9059 294.28,92.5964 294.9,93.2924 295.52,93.9935 296.14,94.6995 296.76,95.4101 297.38,96.125 298,96.844 298.62,97.5667 299.24,98.2928 299.86,99.0221 300.48,99.7543 301.1,100.489 301.72,101.226 302.34,101.965 302.96,102.706 303.58,103.448 304.2,104.191 304.82,104.935 305.44,105.68 306.06,106.425 306.68,107.169 307.3,107.913 307.92,108.657 308.54,109.4 309.16,110.141 309.78,110.881 310.4,111.619 311.02,112.354 311.64,113.087 312.26,113.818 312.88,114.545 313.5,115.27 314.12,115.99 314.74,116.707 315.36,117.419 315.98,118.127 316.6,118.83 317.22,119.528 317.84,120.221 318.46,120.908 319.08,121.589 319.7,122.264 320.32,122.933 320.94,123.595 321.56,124.25 322.18,124.897 322.8,125.538 323.42,126.17 324.04,126.795 324.66,127.411 325.28,128.019 325.9,128.618 326.52,129.208 327.14,129.789 327.76,130.361 328.38,130.923 329,131.475 329.62,132.016 330.24,132.548 330.86,133.069 331.48,133.579 332.1,134.079 332.72,134.567 333.34,135.043 333.96,135.509 334.58,135.962 335.2,136.404 335.82,136.833 336.44,137.251 337.06,137.656 337.68,138.048 338.3,138.428 338.92,138.794 339.54,139.148 340.16,139.488 340.78,139.815 341.4,140.129 342.02,140.429 342.64,140.716 343.26,140.988 343.88,141.247 344.5,141.492 345.12,141.722 345.74,141.939 346.36,142.141 346.98,142.328 347.6,142.502 348.22,142.66 348.84,142.805 349.46,142.934 350.08,143.049 350.7,143.149 351.32,143.234 351.94,143.305 352.56,143.36 353.18,143.401 353.8,143.427 354.42,143.438 355.04,143.434 355.66,143.415 356.28,143.382 356.9,143.333 357.52,143.27 358.14,143.192 358.76,143.098 359.38,142.991 360,142.868 360.62,142.731 361.24,142.579 361.86,142.413 362.48,142.232 363.1,142.037 363.72,141.827 364.34,141.604 364.96,141.366 365.58,141.114 366.2,140.848 366.82,140.568 367.44,140.274 368.06,139.967 368.68,139.646 369.3,139.312 369.92,138.965 370.54,138.604 371.16,138.231 371.78,137.845 372.4,137.446 373.02,137.034 373.64,136.611 374.26,136.175 374.88,135.727 375.5,135.267 376.12,134.796 376.74,134.313 377.36,133.819 377.98,133.314 378.6,132.798 379.22,132.272 379.84,131.735 380.46,131.188 381.08,130.63 381.7,130.064 382.32,129.487 382.94,128.901 383.56,128.306 384.18,127.703 384.8,127.09 385.42,126.47 386.04,125.841 386.66,125.204 387.28,124.56 387.9,123.908 388.52,123.25 389.14,122.584 389.76,121.912 390.38,121.234 391,120.55 391.62,119.86 392.24,119.164 392.86,118.463 393.48,117.758 394.1,117.047 394.72,116.333 395.34,115.614 395.96,114.892 396.58,114.166 397.2,113.437 397.82,112.705 398.44,111.97 399.06,111.233 399.68,110.495 400.3,109.754 400.92,109.012 401.54,108.269 402.16,107.525 402.78,106.78 403.4,106.036 404.02,105.291 404.64,104.547 405.26,103.803 405.88,103.06 406.5,102.319 407.12,101.579 407.74,100.841 408.36,100.105 408.98,99.3716 409.6,98.6409 410.22,97.9132 410.84,97.1888 411.46,96.468 412.08,95.7512 412.7,95.0385 413.32,94.3302 413.94,93.6267 414.56,92.9283 415.18,92.2351 415.8,91.5476 416.42,90.8659 417.04,90.1903 417.66,89.5211 418.28,88.8586 418.9,88.2031 419.52,87.5547 420.14,86.9138 420.76,86.2806 421.38,85.6554 422,85.0384 422.62,84.4299 423.24,83.83 423.86,83.2392 424.48,82.6575 425.1,82.0852 425.72,81.5226 426.34,80.9698 426.96,80.4271 427.58,79.8948 428.2,79.3729 428.82,78.8618 429.44,78.3616 430.06,77.8726 430.68,77.3949 431.3,76.9287 431.92,76.4742 432.54,76.0316 433.16,75.6011 433.78,75.1828 434.4,74.7769" stroke="#999999" stroke-dasharray="8,3,2,3" stroke-linecap="butt" stroke-linejoin="round" stroke-width="0.5"/>
  </g>
  <clipPath id="cp00480360">
   <polygon points="0,360 480,360 480,0 0,0"/>
  </clipPath>
  <g clip-path="url(#cp00480360)">
   <polygon fill="#ffffff" points="382.347,83.9654 426.389,83.9654 426.389,38.1443 382.347,38.1443" shape-rendering="crispEdges"/>
   <polyline fill="none" points="382.347,83.9654 426.389,83.9654" stroke="#262626" stroke-dasharray="16,0" stroke-linecap="square" stroke-linejoin="miter" stroke-width="0.5"/>
   <polyline fill="none" points="382.347,38.1443 426.389,38.1443" stroke="#262626" stroke-dasharray="16,0" stroke-linecap="square" stroke-linejoin="miter" stroke-width="0.5"/>
   <polyline fill="none" points="382.347,83.9654 382.347,38.1443" stroke="#262626" stroke-dasharray="16,0" stroke-linecap="square" stroke-linejoin="miter" stroke-width="0.5"/>
   <polyline fill="none" points="426.389,83.9654 426.389,38.1443" stroke="#262626" stroke-dasharray="16,0" stroke-linecap="square" stroke-linejoin="miter" stroke-width="0.5"/>
   <polyline fill="none" points="386.353,47.0496 406.379,47.0496" stroke="#0071bc" stroke-linecap="butt" stroke-linejoin="round" stroke-width="0.5"/>
   <g font-family="FreeSans" font-size="10.4862" font-style="normal" font-weight="normal" transform="translate(410.384,51.5496) rotate(-0,-0,-4.5)" xml:space="preserve">
    <text fill="rgb(0,0,0)" x="0 " y="-0">S</text>
   </g>
   <polyline fill="none" points="386.353,60.9549 406.379,60.9549" stroke="#cccccc" stroke-dasharray="8,3,2,3" stroke-linecap="butt" stroke-linejoin="round" stroke-width="0.5"/>
   <g font-family="FreeSans" font-size="10.4862" font-style="normal" font-weight="normal" transform="translate(410.384,65.9549) rotate(-0,-0,-5)" xml:space="preserve">
    <text fill="rgb(0,0,0)" x="0 6 " y="-1">u1</text>
   </g>
   <polyline fill="none" points="386.353,74.9601 406.379,74.9601" stroke="#999999" stroke-dasharray="8,3,2,3" stroke-linecap="butt" stroke-linejoin="round" stroke-width="0.5"/>
   <g font-family="FreeSans" font-size="10.4862" font-style="normal" font-weight="normal" transform="translate(410.384,79.9602) rotate(-0,-0,-5)" xml:space="preserve">
    <text fill="rgb(0,0,0)" x="0 6 " y="-1">u2</text>
   </g>
  </g>
  <clipPath id="cp00480360">
   <polygon points="0,360 480,360 480,0 0,0"/>
  </clipPath>
  <g clip-path="url(#cp00480360)">
   <polygon fill="#ffffff" points="62.4,320.4 434.4,320.4 434.4,201.7 62.4,201.7" shape-rendering="crispEdges"/>
   <polyline fill="none" points="62.4,320.4 62.4,201.7" stroke="#262626" stroke-dasharray="16,0" stroke-linecap="butt" stroke-linejoin="miter" stroke-opacity="0.15" stroke-width="0.5"/>
   <polyline fill="none" points="124.4,320.4 124.4,201.7" stroke="#262626" stroke-dasharray="16,0" stroke-linecap="butt" stroke-linejoin="miter" stroke-opacity="0.15" stroke-width="0.5"/>
   <polyline fill="none" points="186.4,320.4 186.4,201.7" stroke="#262626" stroke-dasharray="16,0" stroke-linecap="butt" stroke-linejoin="miter" stroke-opacity="0.15" stroke-width="0.5"/>
   <polyline fill="none" points="248.4,320.4 248.4,201.7" stroke="#262626" stroke-dasharray="16,0" stroke-linecap="butt" stroke-linejoin="miter" stroke-opacity="0.15" stroke-width="0.5"/>
   <polyline fill="none" points="310.4,320.4 310.4,201.7" stroke="#262626" stroke-dasharray="16,0" stroke-linecap="butt" stroke-linejoin="miter" stroke-opacity="0.15" stroke-width="0.5"/>
   <polyline fill="none" points="372.4,320.4 372.4,201.7" stroke="#262626" stroke-dasharray="16,0" stroke-linecap="butt" stroke-linejoin="miter" stroke-opacity="0.15" stroke-width="0.5"/>
   <polyline fill="none" points="434.4,320.4 434.4,201.7" stroke="#262626" stroke-dasharray="16,0" stroke-linecap="butt" stroke-linejoin="miter" stroke-opacity="0.15" stroke-width="0.5"/>
   <polyline fill="none" points="62.4,320.4 62.4,316.689" stroke="#262626" stroke-linecap="butt" stroke-linejoin="miter" stroke-width="0.5"/>
   <polyline fill="none" points="62.4,201.7 62.4,205.411" stroke="#262626" stroke-linecap="butt" stroke-linejoin="miter" stroke-width="0.5"/>
   <polyline fill="none" points="124.4,320.4 124.4,316.689" stroke="#262626" stroke-linecap="butt" stroke-linejoin="miter" stroke-width="0.5"/>
   <polyline fill="none" points="124.4,201.7 124.4,205.411" stroke="#262626" stroke-linecap="butt" stroke-linejoin="miter" stroke-width="0.5"/>
   <polyline fill="none" points="186.4,320.4 186.4,316.689" stroke="#262626" stroke-linecap="butt" stroke-linejoin="miter" stroke-width="0.5"/>
   <polyline fill="none" points="186.4,201.7 186.4,205.411" stroke="#262626" stroke-linecap="butt" stroke-linejoin="miter" stroke-width="0.5"/>
   <polyline fill="none" points="248.4,320.4 248.4,316.689" stroke="#262626" stroke-linecap="butt" stroke-linejoin="miter" stroke-width="0.5"/>
   <polyline fill="none" points="248.4,201.7 248.4,205.411" stroke="#262626" stroke-linecap="butt" stroke-linejoin="miter" stroke-width="0.5"/>
   <polyline fill="none" points="310.4,320.4 310.4,316.689" stroke="#262626" stroke-linecap="butt" stroke-linejoin="miter" stroke-width="0.5"/>
   <polyline fill="none" points="310.4,201.7 310.4,205.411" stroke="#262626" stroke-linecap="butt" stroke-linejoin="miter" stroke-width="0.5"/>
   <polyline fill="none" points="372.4,320.4 372.4,316.689" stroke="#262626" stroke-linecap="butt" stroke-linejoin="miter" stroke-width="0.5"/>
   <polyline fill="none" points="372.4,201.7 372.4,205.411" stroke="#262626" stroke-linecap="butt" stroke-linejoin="miter" stroke-width="0.5"/>
   <polyline fill="none" points="434.4,320.4 434.4,316.689" stroke="#262626" stroke-linecap="butt" stroke-linejoin="miter" stroke-width="0.5"/>
   <polyline fill="none" points="434.4,201.7 434.4,205.411" stroke="#262626" stroke-linecap="butt" stroke-linejoin="miter" stroke-width="0.5"/>
   <g font-family="FreeSans" font-size="11.6513" font-style="normal" font-weight="normal" transform="translate(59.4,339.116) rotate(-0,3,-10)" xml:space="preserve">
    <text fill="rgb(38,38,38)" x="0 " y="-0">0</text>
   </g>
   <g font-family="FreeSans" font-size="11.6513" font-style="normal" font-weight="normal" transform="translate(121.4,339.116) rotate(-0,3,-10)" xml:space="preserve">
    <text fill="rgb(38,38,38)" x="0 " y="-0">1</text>
   </g>
   <g font-family="FreeSans" font-size="11.6513" font-style="normal" font-weight="normal" transform="translate(183.4,339.116) rotate(-0,3,-10)" xml:space="preserve">
    <text fill="rgb(38,38,38)" x="0 " y="-0">2</text>
   </g>
   <g font-family="FreeSans" font-size="11.6513" font-style="normal" font-weight="normal" transform="translate(245.4,339.116) rotate(-0,3,-10)" xml:space="preserve">
    <text fill="rgb(38,38,38)" x="0 " y="-0">3</text>
   </g>
   <g font-family="FreeSans" font-size="11.6513" font-style="normal" font-weight="normal" transform="translate(307.4,339.116) rotate(-0,3,-10)" xml:space="preserve">
    <text fill="rgb(38,38,38)" x="0 " y="-0">4</text>
   </g>
   <g font-family="FreeSans" font-size="11.6513" font-style="normal" font-weight="normal" transform="translate(369.4,339.116) rotate(-0,3,-10)" xml:space="preserve">
    <text fill="rgb(38,38,38)" x="0 " y="-0">5</text>
   </g>
   <g font-family="FreeSans" font-size="11.6513" font-style="normal" font-weight="normal" transform="translate(431.4,339.116) rotate(-0,3,-10)" xml:space="preserve">
    <text fill="rgb(38,38,38)" x="0 " y="-0">6</text>
   </g>
   <polyline fill="none" points="62.4,315.005 434.4,315.005" stroke="#262626" stroke-dasharray="16,0" stroke-linecap="butt" stroke-linejoin="miter" stroke-opacity="0.15" stroke-width="0.5"/>
   <polyline fill="none" points="62.4,296.575 434.4,296.575" stroke="#262626" stroke-dasharray="16,0" stroke-linecap="butt" stroke-linejoin="miter" stroke-opacity="0.15" stroke-width="0.5"/>
   <polyline fill="none" points="62.4,278.145 434.4,278.145" stroke="#262626" stroke-dasharray="16,0" stroke-linecap="butt" stroke-linejoin="miter" stroke-opacity="0.15" stroke-width="0.5"/>
   <polyline fill="none" points="62.4,259.715 434.4,259.715" stroke="#262626" stroke-dasharray="16,0" stroke-linecap="butt" stroke-linejoin="miter" stroke-opacity="0.15" stroke-width="0.5"/>
   <polyline fill="none" points="62.4,241.285 434.4,241.285" stroke="#262626" stroke-dasharray="16,0" stroke-linecap="butt" stroke-linejoin="miter" stroke-opacity="0.15" stroke-width="0.5"/>
   <polyline fill="none" points="62.4,222.856 434.4,222.856" stroke="#262626" stroke-dasharray="16,0" stroke-linecap="butt" stroke-linejoin="miter" stroke-opacity="0.15" stroke-width="0.5"/>
   <polyline fill="none" points="62.4,204.426 434.4,204.426" stroke="#262626" stroke-dasharray="16,0" stroke-linecap="butt" stroke-linejoin="miter" stroke-opacity="0.15" stroke-width="0.5"/>
   <polyline fill="none" points="62.4,315.005 66.12,315.005" stroke="#262626" stroke-linecap="butt" stroke-linejoin="miter" stroke-width="0.5"/>
   <polyline fill="none" points="434.4,315.005 430.68,315.005" stroke="#262626" stroke-linecap="butt" stroke-linejoin="miter" stroke-width="0.5"/>
   <polyline fill="none" points="62.4,296.575 66.12,296.575" stroke="#262626" stroke-linecap="butt" stroke-linejoin="miter" stroke-width="0.5"/>
   <polyline fill="none" points="434.4,296.575 430.68,296.575" stroke="#262626" stroke-linecap="butt" stroke-linejoin="miter" stroke-width="0.5"/>
   <polyline fill="none" points="62.4,278.145 66.12,278.145" stroke="#262626" stroke-linecap="butt" stroke-linejoin="miter" stroke-width="0.5"/>
   <polyline fill="none" points="434.4,278.145 430.68,278.145" stroke="#262626" stroke-linecap="butt" stroke-linejoin="miter" stroke-width="0.5"/>
   <polyline fill="none" points="62.4,259.715 66.12,259.715" stroke="#262626" stroke-linecap="butt" stroke-linejoin="miter" stroke-width="0.5"/>
   <polyline fill="none" points="434.4,259.715 430.68,259.715" stroke="#262626" stroke-linecap="butt" stroke-linejoin="miter" stroke-width="0.5"/>
   <polyline fill="none" points="62.4,241.285 66.12,241.285" stroke="#262626" stroke-linecap="butt" stroke-linejoin="miter" stroke-width="0.5"/>
   <polyline fill="none" points="434.4,241.285 430.68,241.285" stroke="#262626" stroke-linecap="butt" stroke-linejoin="miter" stroke-width="0.5"/>
   <polyline fill="none" points="62.4,222.856 66.12,222.856" stroke="#262626" stroke-linecap="butt" stroke-linejoin="miter" stroke-width="0.5"/>
   <polyline fill="none" points="434.4,222.856 430.68,222.856" stroke="#262626" stroke-linecap="butt" stroke-linejoin="miter" stroke-width="0.5"/>
   <polyline fill="none" points="62.4,204.426 66.12,204.426" stroke="#262626" stroke-linecap="butt" stroke-linejoin="miter" stroke-width="0.5"/>
   <polyline fill="none" points="434.4,204.426 430.68,204.426" stroke="#262626" stroke-linecap="butt" stroke-linejoin="miter" stroke-width="0.5"/>
   <g font-family="FreeSans" font-size="11.6513" font-style="normal" font-weight="normal" transform="translate(46.5743,320.005) rotate(-0,10,-5)" xml:space="preserve">
    <text fill="rgb(38,38,38)" x="0 4 " y="-0">-1</text>
   </g>
   <g font-family="FreeSans" font-size="11.6513" font-style="normal" font-weight="normal" transform="translate(37.5743,301.575) rotate(-0,19,-5)" xml:space="preserve">
    <text fill="rgb(38,38,38)" x="0 4 10 13 " y="-0">-0.5</text>
   </g>
   <g font-family="FreeSans" font-size="11.6513" font-style="normal" font-weight="normal" transform="translate(50.5743,283.145) rotate(-0,6,-5)" xml:space="preserve">
    <text fill="rgb(38,38,38)" x="0 " y="-0">0</text>
   </g>
   <g font-family="FreeSans" font-size="11.6513" font-style="normal" font-weight="normal" transform="translate(41.5743,264.715) rotate(-0,15,-5)" xml:space="preserve">
    <text fill="rgb(38,38,38)" x="0 6 9 " y="-0">0.5</text>
   </g>
   <g font-family="FreeSans" font-size="11.6513" font-style="normal" font-weight="normal" transform="translate(50.5743,246.285) rotate(-0,6,-5)" xml:space="preserve">
    <text fill="rgb(38,38,38)" x="0 " y="-0">1</text>
   </g>
   <g font-family="FreeSans" font-size="11.6513" font-style="normal" font-weight="normal" transform="translate(41.5743,227.856) rotate(-0,15,-5)" xml:space="preserve">
    <text fill="rgb(38,38,38)" x="0 6 9 " y="-0">1.5</text>
   </g>
   <g font-family="FreeSans" font-size="11.6513" font-style="normal" font-weight="normal" transform="translate(50.5743,209.426) rotate(-0,6,-5)" xml:space="preserve">
    <text fill="rgb(38,38,38)" x="0 " y="-0">2</text>
   </g>
   <polyline fill="none" points="62.4,320.4 434.4,320.4" stroke="#262626" stroke-dasharray="16,0" stroke-linecap="square" stroke-linejoin="miter" stroke-width="0.5"/>
   <polyline fill="none" points="62.4,201.7 434.4,201.7" stroke="#262626" stroke-dasharray="16,0" stroke-linecap="square" stroke-linejoin="miter" stroke-width="0.5"/>
   <polyline fill="none" points="62.4,320.4 62.4,201.7" stroke="#262626" stroke-dasharray="16,0" stroke-linecap="square" stroke-linejoin="miter" stroke-width="0.5"/>
   <polyline fill="none" points="434.4,320.4 434.4,201.7" stroke="#262626" stroke-dasharray="16,0" stroke-linecap="square" stroke-linejoin="miter" stroke-width="0.5"/>
   <g font-family="FreeSans" font-size="12.8165" font-style="normal" font-weight="normal" transform="translate(26.0743,261.05) rotate(-90,6.5,0)" xml:space="preserve">
    <text fill="rgb(38,38,38)" x="0 6 " y="-3">y2</text>
   </g>
   <g font-family="FreeSans" font-size="12.8165" font-style="normal" font-weight="normal" transform="translate(225.9,358.116) rotate(-0,22.5,-14)" xml:space="preserve">
    <text fill="rgb(38,38,38)" x="0 8 11 21 28 31 35 41 " y="-3">Time [s]</text>
   </g>
   <polyline fill="none" points="62.4,270.773 63.02,271.365 63.64,271.96 64.26,272.555 64.88,273.148 65.5,273.737 66.12,274.319 66.74,274.892 67.36,275.455 67.98,276.004 68.6,276.539 69.22,277.056 69.84,277.555 70.46,278.033 71.08,278.49 71.7,278.922 72.32,279.329 72.94,279.709 73.56,280.061 74.18,280.383 74.8,280.675 75.42,280.935 76.04,281.163 76.66,281.356 77.28,281.515 77.9,281.639 78.52,281.727 79.14,281.777 79.76,281.791 80.38,281.766 81,281.704 81.62,281.603 82.24,281.464 82.86,281.286 83.48,281.069 84.1,280.813 84.72,280.519 85.34,280.186 85.96,279.814 86.58,279.405 87.2,278.957 87.82,278.473 88.44,277.952 89.06,277.394 89.68,276.801 90.3,276.172 90.92,275.51 91.54,274.814 92.16,274.085 92.78,273.324 93.4,272.533 94.02,271.711 94.64,270.861 95.26,269.983 95.88,269.077 96.5,268.146 97.12,267.191 97.74,266.212 98.36,265.21 98.98,264.188 99.6,263.146 100.22,262.085 100.84,261.007 101.46,259.913 102.08,258.804 102.7,257.682 103.32,256.548 103.94,255.403 104.56,254.248 105.18,253.086 105.8,251.916 106.42,250.742 107.04,249.563 107.66,248.381 108.28,247.198 108.9,246.014 109.52,244.831 110.14,243.651 110.76,242.474 111.38,241.302 112,240.136 112.62,238.978 113.24,237.827 113.86,236.686 114.48,235.555 115.1,234.436 115.72,233.33 116.34,232.237 116.96,231.159 117.58,230.097 118.2,229.051 118.82,228.023 119.44,227.014 120.06,226.023 120.68,225.052 121.3,224.103 121.92,223.174 122.54,222.268 123.16,221.385 123.78,220.525 124.4,219.689 125.02,218.877 125.64,218.091 126.26,217.33 126.88,216.595 127.5,215.886 128.12,215.204 128.74,214.549 129.36,213.921 129.98,213.32 130.6,212.748 131.22,212.203 131.84,211.686 132.46,211.197 133.08,210.736 133.7,210.303 134.32,209.898 134.94,209.521 135.56,209.173 136.18,208.852 136.8,208.559 137.42,208.293 138.04,208.055 138.66,207.844 139.28,207.659 139.9,207.502 140.52,207.37 141.14,207.265 141.76,207.185 142.38,207.131 143,207.101 143.62,207.095 144.24,207.114 144.86,207.156 145.48,207.221 146.1,207.309 146.72,207.419 147.34,207.551 147.96,207.703 148.58,207.876 149.2,208.069 149.82,208.281 150.44,208.512 151.06,208.761 151.68,209.028 152.3,209.312 152.92,209.613 153.54,209.929 154.16,210.26 154.78,210.607 155.4,210.967 156.02,211.341 156.64,211.727 157.26,212.126 157.88,212.536 158.5,212.958 159.12,213.39 159.74,213.832 160.36,214.283 160.98,214.744 161.6,215.212 162.22,215.688 162.84,216.171 163.46,216.66 164.08,217.156 164.7,217.657 165.32,218.163 165.94,218.674 166.56,219.189 167.18,219.707 167.8,220.229 168.42,220.753 169.04,221.279 169.66,221.807 170.28,222.337 170.9,222.868 171.52,223.399 172.14,223.931 172.76,224.463 173.38,224.994 174,225.524 174.62,226.054 175.24,226.582 175.86,227.109 176.48,227.634 177.1,228.157 177.72,228.678 178.34,229.196 178.96,229.712 179.58,230.224 180.2,230.734 180.82,231.241 181.44,231.744 182.06,232.244 182.68,232.74 183.3,233.233 183.92,233.722 184.54,234.207 185.16,234.688 185.78,235.165 186.4,235.639 187.02,236.108 187.64,236.574 188.26,237.035 188.88,237.493 189.5,237.946 190.12,238.395 190.74,238.841 191.36,239.283 191.98,239.721 192.6,240.155 193.22,240.585 193.84,241.012 194.46,241.435 195.08,241.855 195.7,242.271 196.32,242.684 196.94,243.094 197.56,243.501 198.18,243.905 198.8,244.306 199.42,244.704 200.04,245.1 200.66,245.493 201.28,245.883 201.9,246.272 202.52,246.658 203.14,247.042 203.76,247.424 204.38,247.805 205,248.183 205.62,248.561 206.24,248.936 206.86,249.311 207.48,249.684 208.1,250.056 208.72,250.427 209.34,250.797 209.96,251.166 210.58,251.535 211.2,251.903 211.82,252.271 212.44,252.638 213.06,253.005 213.68,253.371 214.3,253.738 214.92,254.104 215.54,254.47 216.16,254.836 216.78,255.203 217.4,255.569 218.02,255.935 218.64,256.302 219.26,256.669 219.88,257.036 220.5,257.403 221.12,257.771 221.74,258.139 222.36,258.507 222.98,258.875 223.6,259.244 224.22,259.613 224.84,259.982 225.46,260.351 226.08,260.721 226.7,261.09 227.32,261.46 227.94,261.83 228.56,262.199 229.18,262.569 229.8,262.938 230.42,263.307 231.04,263.676 231.66,264.044 232.28,264.412 232.9,264.779 233.52,265.146 234.14,265.512 234.76,265.877 235.38,266.241 236,266.604 236.62,266.965 237.24,267.326 237.86,267.685 238.48,268.042 239.1,268.398 239.72,268.752 240.34,269.104 240.96,269.454 241.58,269.802 242.2,270.147 242.82,270.491 243.44,270.831 244.06,271.169 244.68,271.504 245.3,271.836 245.92,272.165 246.54,272.49 247.16,272.812 247.78,273.131 248.4,273.446 249.02,273.757 249.64,274.065 250.26,274.368 250.88,274.667 251.5,274.962 252.12,275.252 252.74,275.538 253.36,275.82 253.98,276.096 254.6,276.368 255.22,276.634 255.84,276.896 256.46,277.152 257.08,277.403 257.7,277.648 258.32,277.888 258.94,278.123 259.56,278.352 260.18,278.575 260.8,278.792 261.42,279.003 262.04,279.208 262.66,279.407 263.28,279.6 263.9,279.787 264.52,279.968 265.14,280.142 265.76,280.31 266.38,280.472 267,280.628 267.62,280.776 268.24,280.919 268.86,281.055 269.48,281.184 270.1,281.307 270.72,281.424 271.34,281.534 271.96,281.637 272.58,281.734 273.2,281.824 273.82,281.908 274.44,281.986 275.06,282.057 275.68,282.122 276.3,282.18 276.92,282.232 277.54,282.277 278.16,282.317 278.78,282.35 279.4,282.377 280.02,282.398 280.64,282.413 281.26,282.422 281.88,282.425 282.5,282.422 283.12,282.414 283.74,282.4 284.36,282.38 284.98,282.355 285.6,282.324 286.22,282.288 286.84,282.247 287.46,282.201 288.08,282.149 288.7,282.093 289.32,282.032 289.94,281.966 290.56,281.895 291.18,281.82 291.8,281.741 292.42,281.657 293.04,281.569 293.66,281.477 294.28,281.38 294.9,281.281 295.52,281.177 296.14,281.069 296.76,280.959 297.38,280.844 298,280.727 298.62,280.606 299.24,280.482 299.86,280.355 300.48,280.226 301.1,280.093 301.72,279.959 302.34,279.821 302.96,279.682 303.58,279.54 304.2,279.395 304.82,279.249 305.44,279.101 306.06,278.951 306.68,278.8 307.3,278.647 307.92,278.492 308.54,278.336 309.16,278.179 309.78,278.02 310.4,277.86 311.02,277.7 311.64,277.538 312.26,277.376 312.88,277.213 313.5,277.049 314.12,276.885 314.74,276.72 315.36,276.555 315.98,276.39 316.6,276.224 317.22,276.058 317.84,275.892 318.46,275.726 319.08,275.561 319.7,275.395 320.32,275.229 320.94,275.064 321.56,274.899 322.18,274.734 322.8,274.57 323.42,274.406 324.04,274.243 324.66,274.08 325.28,273.918 325.9,273.756 326.52,273.595 327.14,273.435 327.76,273.276 328.38,273.117 329,272.959 329.62,272.802 330.24,272.645 330.86,272.49 331.48,272.335 332.1,272.181 332.72,272.028 333.34,271.876 333.96,271.725 334.58,271.575 335.2,271.425 335.82,271.277 336.44,271.129 337.06,270.983 337.68,270.837 338.3,270.692 338.92,270.548 339.54,270.405 340.16,270.263 340.78,270.121 341.4,269.981 342.02,269.841 342.64,269.702 343.26,269.564 343.88,269.427 344.5,269.29 345.12,269.154 345.74,269.019 346.36,268.884 346.98,268.75 347.6,268.617 348.22,268.484 348.84,268.352 349.46,268.22 350.08,268.089 350.7,267.958 351.32,267.827 351.94,267.697 352.56,267.567 353.18,267.438 353.8,267.309 354.42,267.18 355.04,267.051 355.66,266.922 356.28,266.794 356.9,266.665 357.52,266.537 358.14,266.408 358.76,266.28 359.38,266.151 360,266.023 360.62,265.894 361.24,265.765 361.86,265.635 362.48,265.506 363.1,265.376 363.72,265.245 364.34,265.115 364.96,264.984 365.58,264.852 366.2,264.72 366.82,264.587 367.44,264.453 368.06,264.319 368.68,264.185 369.3,264.049 369.92,263.913 370.54,263.776 371.16,263.638 371.78,263.5 372.4,263.36 373.02,263.22 373.64,263.078 374.26,262.936 374.88,262.792 375.5,262.648 376.12,262.502 376.74,262.355 377.36,262.208 377.98,262.058 378.6,261.908 379.22,261.757 379.84,261.604 380.46,261.45 381.08,261.294 381.7,261.137 382.32,260.979 382.94,260.82 383.56,260.659 384.18,260.496 384.8,260.333 385.42,260.167 386.04,260.001 386.66,259.832 387.28,259.662 387.9,259.491 388.52,259.318 389.14,259.143 389.76,258.967 390.38,258.79 391,258.61 391.62,258.429 392.24,258.247 392.86,258.062 393.48,257.876 394.1,257.689 394.72,257.499 395.34,257.308 395.96,257.116 396.58,256.921 397.2,256.725 397.82,256.527 398.44,256.328 399.06,256.127 399.68,255.924 400.3,255.719 400.92,255.513 401.54,255.305 402.16,255.095 402.78,254.884 403.4,254.671 404.02,254.456 404.64,254.24 405.26,254.022 405.88,253.802 406.5,253.581 407.12,253.358 407.74,253.133 408.36,252.907 408.98,252.679 409.6,252.45 410.22,252.219 410.84,251.986 411.46,251.752 412.08,251.516 412.7,251.279 413.32,251.041 413.94,250.801 414.56,250.559 415.18,250.316 415.8,250.072 416.42,249.826 417.04,249.579 417.66,249.331 418.28,249.082 418.9,248.831 419.52,248.579 420.14,248.326 420.76,248.071 421.38,247.816 422,247.559 422.62,247.301 423.24,247.043 423.86,246.783 424.48,246.523 425.1,246.261 425.72,245.999 426.34,245.736 426.96,245.472 427.58,245.207 428.2,244.941 428.82,244.675 429.44,244.409 430.06,244.141 430.68,243.874 431.3,243.605 431.92,243.337 432.54,243.068 433.16,242.799 433.78,242.529 434.4,242.259" stroke="#0071bc" stroke-linecap="butt" stroke-linejoin="round" stroke-width="0.5"/>
   <polyline fill="none" points="62.4,270.773 63.02,270.629 63.64,270.486 64.26,270.342 64.88,270.198 65.5,270.055 66.12,269.911 66.74,269.768 67.36,269.625 67.98,269.482 68.6,269.34 69.22,269.197 69.84,269.055 70.46,268.913 71.08,268.772 71.7,268.63 72.32,268.49 72.94,268.349 73.56,268.209 74.18,268.069 74.8,267.93 75.42,267.792 76.04,267.654 76.66,267.516 77.28,267.379 77.9,267.242 78.52,267.106 79.14,266.971 79.76,266.836 80.38,266.702 81,266.569 81.62,266.436 82.24,266.305 82.86,266.173 83.48,266.043 84.1,265.914 84.72,265.785 85.34,265.657 85.96,265.53 86.58,265.404 87.2,265.279 87.82,265.154 88.44,265.031 89.06,264.909 89.68,264.787 90.3,264.667 90.92,264.548 91.54,264.429 92.16,264.312 92.78,264.196 93.4,264.081 94.02,263.967 94.64,263.854 95.26,263.743 95.88,263.633 96.5,263.523 97.12,263.415 97.74,263.309 98.36,263.203 98.98,263.099 99.6,262.996 100.22,262.895 100.84,262.795 101.46,262.696 102.08,262.598 102.7,262.502 103.32,262.407 103.94,262.314 104.56,262.222 105.18,262.132 105.8,262.043 106.42,261.955 107.04,261.869 107.66,261.785 108.28,261.702 108.9,261.62 109.52,261.541 110.14,261.462 110.76,261.385 111.38,261.31 112,261.237 112.62,261.165 113.24,261.094 113.86,261.026 114.48,260.959 115.1,260.893 115.72,260.83 116.34,260.768 116.96,260.707 117.58,260.648 118.2,260.592 118.82,260.536 119.44,260.483 120.06,260.431 120.68,260.381 121.3,260.333 121.92,260.286 122.54,260.242 123.16,260.199 123.78,260.158 124.4,260.118 125.02,260.081 125.64,260.045 126.26,260.011 126.88,259.979 127.5,259.949 128.12,259.92 128.74,259.893 129.36,259.869 129.98,259.846 130.6,259.825 131.22,259.805 131.84,259.788 132.46,259.772 133.08,259.759 133.7,259.747 134.32,259.737 134.94,259.729 135.56,259.723 136.18,259.718 136.8,259.716 137.42,259.715 138.04,259.716 138.66,259.72 139.28,259.725 139.9,259.731 140.52,259.74 141.14,259.751 141.76,259.763 142.38,259.778 143,259.794 143.62,259.812 144.24,259.832 144.86,259.853 145.48,259.877 146.1,259.902 146.72,259.93 147.34,259.959 147.96,259.99 148.58,260.022 149.2,260.057 149.82,260.093 150.44,260.131 151.06,260.171 151.68,260.213 152.3,260.257 152.92,260.302 153.54,260.349 154.16,260.398 154.78,260.448 155.4,260.501 156.02,260.555 156.64,260.611 157.26,260.668 157.88,260.727 158.5,260.788 159.12,260.851 159.74,260.915 160.36,260.981 160.98,261.049 161.6,261.118 162.22,261.189 162.84,261.262 163.46,261.336 164.08,261.411 164.7,261.489 165.32,261.568 165.94,261.648 166.56,261.73 167.18,261.813 167.8,261.898 168.42,261.985 169.04,262.073 169.66,262.162 170.28,262.253 170.9,262.346 171.52,262.439 172.14,262.535 172.76,262.631 173.38,262.729 174,262.828 174.62,262.929 175.24,263.031 175.86,263.134 176.48,263.239 177.1,263.345 177.72,263.452 178.34,263.56 178.96,263.67 179.58,263.781 180.2,263.893 180.82,264.006 181.44,264.12 182.06,264.235 182.68,264.352 183.3,264.469 183.92,264.588 184.54,264.708 185.16,264.828 185.78,264.95 186.4,265.073 187.02,265.196 187.64,265.321 188.26,265.447 188.88,265.573 189.5,265.7 190.12,265.828 190.74,265.957 191.36,266.087 191.98,266.218 192.6,266.349 193.22,266.481 193.84,266.614 194.46,266.748 195.08,266.882 195.7,267.017 196.32,267.152 196.94,267.288 197.56,267.425 198.18,267.562 198.8,267.7 199.42,267.839 200.04,267.977 200.66,268.117 201.28,268.257 201.9,268.397 202.52,268.537 203.14,268.678 203.76,268.82 204.38,268.961 205,269.103 205.62,269.245 206.24,269.388 206.86,269.531 207.48,269.674 208.1,269.817 208.72,269.96 209.34,270.103 209.96,270.247 210.58,270.391 211.2,270.534 211.82,270.678 212.44,270.822 213.06,270.966 213.68,271.109 214.3,271.253 214.92,271.397 215.54,271.54 216.16,271.683 216.78,271.827 217.4,271.97 218.02,272.112 218.64,272.255 219.26,272.397 219.88,272.539 220.5,272.681 221.12,272.822 221.74,272.964 222.36,273.104 222.98,273.245 223.6,273.384 224.22,273.524 224.84,273.663 225.46,273.801 226.08,273.939 226.7,274.077 227.32,274.214 227.94,274.35 228.56,274.486 229.18,274.621 229.8,274.755 230.42,274.889 231.04,275.022 231.66,275.155 232.28,275.286 232.9,275.417 233.52,275.547 234.14,275.676 234.76,275.805 235.38,275.932 236,276.059 236.62,276.185 237.24,276.31 237.86,276.434 238.48,276.557 239.1,276.679 239.72,276.8 240.34,276.92 240.96,277.039 241.58,277.157 242.2,277.274 242.82,277.389 243.44,277.504 244.06,277.617 244.68,277.73 245.3,277.841 245.92,277.951 246.54,278.06 247.16,278.167 247.78,278.273 248.4,278.378 249.02,278.482 249.64,278.584 250.26,278.686 250.88,278.785 251.5,278.884 252.12,278.981 252.74,279.076 253.36,279.171 253.98,279.263 254.6,279.355 255.22,279.445 255.84,279.533 256.46,279.62 257.08,279.706 257.7,279.79 258.32,279.872 258.94,279.953 259.56,280.032 260.18,280.11 260.8,280.186 261.42,280.261 262.04,280.334 262.66,280.405 263.28,280.475 263.9,280.543 264.52,280.61 265.14,280.675 265.76,280.738 266.38,280.799 267,280.859 267.62,280.917 268.24,280.974 268.86,281.028 269.48,281.081 270.1,281.132 270.72,281.182 271.34,281.229 271.96,281.275 272.58,281.319 273.2,281.362 273.82,281.402 274.44,281.441 275.06,281.478 275.68,281.513 276.3,281.546 276.92,281.578 277.54,281.607 278.16,281.635 278.78,281.661 279.4,281.685 280.02,281.708 280.64,281.728 281.26,281.747 281.88,281.764 282.5,281.779 283.12,281.792 283.74,281.803 284.36,281.812 284.98,281.82 285.6,281.825 286.22,281.829 286.84,281.831 287.46,281.831 288.08,281.829 288.7,281.825 289.32,281.819 289.94,281.812 290.56,281.803 291.18,281.791 291.8,281.778 292.42,281.763 293.04,281.747 293.66,281.728 294.28,281.707 294.9,281.685 295.52,281.661 296.14,281.635 296.76,281.607 297.38,281.577 298,281.546 298.62,281.512 299.24,281.477 299.86,281.44 300.48,281.402 301.1,281.361 301.72,281.319 302.34,281.274 302.96,281.229 303.58,281.181 304.2,281.131 304.82,281.08 305.44,281.027 306.06,280.973 306.68,280.916 307.3,280.858 307.92,280.798 308.54,280.737 309.16,280.674 309.78,280.609 310.4,280.542 311.02,280.474 311.64,280.404 312.26,280.333 312.88,280.26 313.5,280.185 314.12,280.109 314.74,280.031 315.36,279.952 315.98,279.871 316.6,279.788 317.22,279.704 317.84,279.619 318.46,279.532 319.08,279.443 319.7,279.353 320.32,279.262 320.94,279.169 321.56,279.075 322.18,278.979 322.8,278.882 323.42,278.784 324.04,278.684 324.66,278.583 325.28,278.48 325.9,278.377 326.52,278.272 327.14,278.165 327.76,278.058 328.38,277.949 329,277.839 329.62,277.728 330.24,277.615 330.86,277.502 331.48,277.387 332.1,277.272 332.72,277.155 333.34,277.037 333.96,276.918 334.58,276.798 335.2,276.677 335.82,276.555 336.44,276.432 337.06,276.308 337.68,276.183 338.3,276.057 338.92,275.93 339.54,275.803 340.16,275.674 340.78,275.545 341.4,275.415 342.02,275.284 342.64,275.152 343.26,275.02 343.88,274.887 344.5,274.753 345.12,274.619 345.74,274.484 346.36,274.348 346.98,274.211 347.6,274.075 348.22,273.937 348.84,273.799 349.46,273.661 350.08,273.522 350.7,273.382 351.32,273.242 351.94,273.102 352.56,272.961 353.18,272.82 353.8,272.679 354.42,272.537 355.04,272.395 355.66,272.252 356.28,272.11 356.9,271.967 357.52,271.824 358.14,271.681 358.76,271.538 359.38,271.394 360,271.25 360.62,271.107 361.24,270.963 361.86,270.819 362.48,270.676 363.1,270.532 363.72,270.388 364.34,270.245 364.96,270.101 365.58,269.958 366.2,269.814 366.82,269.671 367.44,269.528 368.06,269.386 368.68,269.243 369.3,269.101 369.92,268.959 370.54,268.817 371.16,268.676 371.78,268.535 372.4,268.394 373.02,268.254 373.64,268.114 374.26,267.975 374.88,267.836 375.5,267.698 376.12,267.56 376.74,267.423 377.36,267.286 377.98,267.15 378.6,267.014 379.22,266.88 379.84,266.745 380.46,266.612 381.08,266.479 381.7,266.347 382.32,266.216 382.94,266.085 383.56,265.955 384.18,265.826 384.8,265.698 385.42,265.571 386.04,265.444 386.66,265.319 387.28,265.194 387.9,265.071 388.52,264.948 389.14,264.826 389.76,264.706 390.38,264.586 391,264.467 391.62,264.35 392.24,264.233 392.86,264.118 393.48,264.004 394.1,263.891 394.72,263.779 395.34,263.668 395.96,263.558 396.58,263.45 397.2,263.343 397.82,263.237 398.44,263.133 399.06,263.029 399.68,262.927 400.3,262.827 400.92,262.727 401.54,262.629 402.16,262.533 402.78,262.438 403.4,262.344 404.02,262.252 404.64,262.161 405.26,262.071 405.88,261.983 406.5,261.897 407.12,261.812 407.74,261.728 408.36,261.647 408.98,261.566 409.6,261.487 410.22,261.41 410.84,261.334 411.46,261.26 412.08,261.188 412.7,261.117 413.32,261.048 413.94,260.98 414.56,260.914 415.18,260.85 415.8,260.787 416.42,260.726 417.04,260.667 417.66,260.61 418.28,260.554 418.9,260.5 419.52,260.448 420.14,260.397 420.76,260.348 421.38,260.301 422,260.256 422.62,260.212 423.24,260.171 423.86,260.131 424.48,260.093 425.1,260.056 425.72,260.022 426.34,259.989 426.96,259.958 427.58,259.929 428.2,259.902 428.82,259.876 429.44,259.853 430.06,259.831 430.68,259.811 431.3,259.793 431.92,259.777 432.54,259.763 433.16,259.751 433.78,259.74 434.4,259.731" stroke="#cccccc" stroke-dasharray="8,3,2,3" stroke-linecap="butt" stroke-linejoin="round" stroke-width="0.5"/>
   <polyline fill="none" points="62.4,241.285 63.02,241.293 63.64,241.315 64.26,241.352 64.88,241.403 65.5,241.47 66.12,241.551 66.74,241.646 67.36,241.756 67.98,241.881 68.6,242.02 69.22,242.174 69.84,242.342 70.46,242.524 71.08,242.721 71.7,242.932 72.32,243.157 72.94,243.395 73.56,243.648 74.18,243.915 74.8,244.195 75.42,244.489 76.04,244.796 76.66,245.117 77.28,245.451 77.9,245.798 78.52,246.158 79.14,246.53 79.76,246.916 80.38,247.313 81,247.724 81.62,248.146 82.24,248.58 82.86,249.026 83.48,249.484 84.1,249.953 84.72,250.434 85.34,250.925 85.96,251.428 86.58,251.941 87.2,252.465 87.82,252.999 88.44,253.543 89.06,254.096 89.68,254.66 90.3,255.233 90.92,255.815 91.54,256.406 92.16,257.005 92.78,257.613 93.4,258.23 94.02,258.854 94.64,259.486 95.26,260.125 95.88,260.772 96.5,261.426 97.12,262.086 97.74,262.753 98.36,263.426 98.98,264.104 99.6,264.789 100.22,265.478 100.84,266.173 101.46,266.873 102.08,267.577 102.7,268.285 103.32,268.997 103.94,269.713 104.56,270.433 105.18,271.155 105.8,271.88 106.42,272.608 107.04,273.338 107.66,274.069 108.28,274.803 108.9,275.538 109.52,276.273 110.14,277.01 110.76,277.747 111.38,278.484 112,279.221 112.62,279.958 113.24,280.694 113.86,281.429 114.48,282.162 115.1,282.894 115.72,283.624 116.34,284.352 116.96,285.077 117.58,285.8 118.2,286.52 118.82,287.236 119.44,287.948 120.06,288.657 120.68,289.361 121.3,290.061 121.92,290.757 122.54,291.447 123.16,292.131 123.78,292.811 124.4,293.484 125.02,294.151 125.64,294.812 126.26,295.466 126.88,296.113 127.5,296.753 128.12,297.386 128.74,298.011 129.36,298.628 129.98,299.237 130.6,299.837 131.22,300.429 131.84,301.011 132.46,301.585 133.08,302.149 133.7,302.704 134.32,303.248 134.94,303.783 135.56,304.308 136.18,304.822 136.8,305.325 137.42,305.818 138.04,306.299 138.66,306.769 139.28,307.228 139.9,307.675 140.52,308.11 141.14,308.533 141.76,308.944 142.38,309.343 143,309.73 143.62,310.103 144.24,310.464 144.86,310.812 145.48,311.147 146.1,311.469 146.72,311.777 147.34,312.072 147.96,312.353 148.58,312.621 149.2,312.875 149.82,313.115 150.44,313.341 151.06,313.553 151.68,313.751 152.3,313.934 152.92,314.103 153.54,314.258 154.16,314.398 154.78,314.524 155.4,314.636 156.02,314.732 156.64,314.815 157.26,314.882 157.88,314.935 158.5,314.973 159.12,314.996 159.74,315.005 160.36,314.998 160.98,314.977 161.6,314.942 162.22,314.891 162.84,314.826 163.46,314.746 164.08,314.652 164.7,314.543 165.32,314.42 165.94,314.281 166.56,314.129 167.18,313.962 167.8,313.781 168.42,313.585 169.04,313.376 169.66,313.152 170.28,312.914 170.9,312.662 171.52,312.397 172.14,312.118 172.76,311.825 173.38,311.519 174,311.199 174.62,310.866 175.24,310.52 175.86,310.162 176.48,309.79 177.1,309.406 177.72,309.009 178.34,308.6 178.96,308.178 179.58,307.745 180.2,307.3 180.82,306.843 181.44,306.375 182.06,305.895 182.68,305.404 183.3,304.903 183.92,304.39 184.54,303.867 185.16,303.334 185.78,302.791 186.4,302.238 187.02,301.675 187.64,301.103 188.26,300.522 188.88,299.932 189.5,299.333 190.12,298.725 190.74,298.11 191.36,297.486 191.98,296.855 192.6,296.216 193.22,295.57 193.84,294.917 194.46,294.257 195.08,293.591 195.7,292.918 196.32,292.24 196.94,291.556 197.56,290.867 198.18,290.172 198.8,289.473 199.42,288.769 200.04,288.061 200.66,287.349 201.28,286.634 201.9,285.915 202.52,285.193 203.14,284.468 203.76,283.74 204.38,283.011 205,282.279 205.62,281.546 206.24,280.811 206.86,280.075 207.48,279.339 208.1,278.602 208.72,277.864 209.34,277.127 209.96,276.391 210.58,275.655 211.2,274.92 211.82,274.186 212.44,273.454 213.06,272.724 213.68,271.996 214.3,271.27 214.92,270.547 215.54,269.828 216.16,269.111 216.78,268.398 217.4,267.689 218.02,266.985 218.64,266.284 219.26,265.589 219.88,264.898 220.5,264.213 221.12,263.533 221.74,262.859 222.36,262.192 222.98,261.53 223.6,260.876 224.22,260.228 224.84,259.587 225.46,258.954 226.08,258.329 226.7,257.711 227.32,257.102 227.94,256.501 228.56,255.908 229.18,255.325 229.8,254.751 230.42,254.186 231.04,253.63 231.66,253.085 232.28,252.549 232.9,252.024 233.52,251.509 234.14,251.005 234.76,250.511 235.38,250.029 236,249.558 236.62,249.098 237.24,248.65 237.86,248.214 238.48,247.79 239.1,247.378 239.72,246.978 240.34,246.591 240.96,246.216 241.58,245.854 242.2,245.505 242.82,245.169 243.44,244.846 244.06,244.537 244.68,244.241 245.3,243.959 245.92,243.69 246.54,243.435 247.16,243.194 247.78,242.967 248.4,242.754 249.02,242.555 249.64,242.37 250.26,242.2 250.88,242.044 251.5,241.902 252.12,241.775 252.74,241.663 253.36,241.565 253.98,241.482 254.6,241.413 255.22,241.359 255.84,241.32 256.46,241.295 257.08,241.286 257.7,241.291 258.32,241.31 258.94,241.345 259.56,241.394 260.18,241.458 260.8,241.537 261.42,241.63 262.04,241.738 262.66,241.86 263.28,241.997 263.9,242.148 264.52,242.314 265.14,242.494 265.76,242.689 266.38,242.897 267,243.12 267.62,243.357 268.24,243.607 268.86,243.871 269.48,244.15 270.1,244.441 270.72,244.746 271.34,245.065 271.96,245.397 272.58,245.742 273.2,246.099 273.82,246.47 274.44,246.853 275.06,247.249 275.68,247.657 276.3,248.078 276.92,248.51 277.54,248.954 278.16,249.41 278.78,249.878 279.4,250.357 280.02,250.846 280.64,251.347 281.26,251.859 281.88,252.381 282.5,252.913 283.12,253.455 283.74,254.008 284.36,254.57 284.98,255.141 285.6,255.721 286.22,256.311 286.84,256.909 287.46,257.516 288.08,258.131 288.7,258.754 289.32,259.385 289.94,260.023 290.56,260.669 291.18,261.321 291.8,261.98 292.42,262.646 293.04,263.318 293.66,263.996 294.28,264.679 294.9,265.368 295.52,266.062 296.14,266.761 296.76,267.464 297.38,268.172 298,268.884 298.62,269.599 299.24,270.318 299.86,271.04 300.48,271.764 301.1,272.492 301.72,273.221 302.34,273.953 302.96,274.686 303.58,275.421 304.2,276.156 304.82,276.893 305.44,277.63 306.06,278.367 306.68,279.104 307.3,279.841 307.92,280.577 308.54,281.312 309.16,282.045 309.78,282.778 310.4,283.508 311.02,284.236 311.64,284.962 312.26,285.685 312.88,286.405 313.5,287.122 314.12,287.835 314.74,288.544 315.36,289.249 315.98,289.95 316.6,290.646 317.22,291.337 317.84,292.023 318.46,292.703 319.08,293.377 319.7,294.045 320.32,294.707 320.94,295.362 321.56,296.011 322.18,296.652 322.8,297.286 323.42,297.912 324.04,298.53 324.66,299.14 325.28,299.742 325.9,300.335 326.52,300.919 327.14,301.494 327.76,302.06 328.38,302.616 329,303.162 329.62,303.699 330.24,304.225 330.86,304.741 331.48,305.246 332.1,305.74 332.72,306.223 333.34,306.695 333.96,307.155 334.58,307.604 335.2,308.042 335.82,308.467 336.44,308.88 337.06,309.281 337.68,309.669 338.3,310.045 338.92,310.408 339.54,310.758 340.16,311.095 340.78,311.418 341.4,311.729 342.02,312.026 342.64,312.309 343.26,312.579 343.88,312.835 344.5,313.078 345.12,313.306 345.74,313.52 346.36,313.72 346.98,313.906 347.6,314.077 348.22,314.234 348.84,314.377 349.46,314.505 350.08,314.619 350.7,314.718 351.32,314.802 351.94,314.872 352.56,314.927 353.18,314.968 353.8,314.993 354.42,315.004 355.04,315 355.66,314.982 356.28,314.948 356.9,314.9 357.52,314.838 358.14,314.76 358.76,314.668 359.38,314.561 360,314.44 360.62,314.304 361.24,314.154 361.86,313.99 362.48,313.811 363.1,313.617 363.72,313.41 364.34,313.188 364.96,312.953 365.58,312.703 366.2,312.44 366.82,312.163 367.44,311.872 368.06,311.568 368.68,311.251 369.3,310.92 369.92,310.576 370.54,310.22 371.16,309.85 371.78,309.468 372.4,309.073 373.02,308.666 373.64,308.246 374.26,307.815 374.88,307.371 375.5,306.916 376.12,306.45 376.74,305.972 377.36,305.483 377.98,304.983 378.6,304.473 379.22,303.951 379.84,303.42 380.46,302.878 381.08,302.327 381.7,301.766 382.32,301.195 382.94,300.615 383.56,300.026 384.18,299.429 384.8,298.823 385.42,298.208 386.04,297.586 386.66,296.956 387.28,296.318 387.9,295.673 388.52,295.021 389.14,294.362 389.76,293.697 390.38,293.026 391,292.348 391.62,291.665 392.24,290.977 392.86,290.283 393.48,289.585 394.1,288.882 394.72,288.174 395.34,287.463 395.96,286.748 396.58,286.03 397.2,285.308 397.82,284.583 398.44,283.856 399.06,283.127 399.68,282.396 400.3,281.662 400.92,280.928 401.54,280.192 402.16,279.456 402.78,278.719 403.4,277.982 404.02,277.245 404.64,276.508 405.26,275.772 405.88,275.037 406.5,274.303 407.12,273.571 407.74,272.84 408.36,272.112 408.98,271.386 409.6,270.662 410.22,269.942 410.84,269.225 411.46,268.512 412.08,267.802 412.7,267.097 413.32,266.396 413.94,265.699 414.56,265.008 415.18,264.322 415.8,263.641 416.42,262.966 417.04,262.298 417.66,261.635 418.28,260.979 418.9,260.331 419.52,259.689 420.14,259.054 420.76,258.428 421.38,257.809 422,257.198 422.62,256.596 423.24,256.002 423.86,255.417 424.48,254.841 425.1,254.275 425.72,253.718 426.34,253.171 426.96,252.634 427.58,252.107 428.2,251.59 428.82,251.084 429.44,250.589 430.06,250.105 430.68,249.632 431.3,249.171 431.92,248.721 432.54,248.283 433.16,247.857 433.78,247.443 434.4,247.041" stroke="#999999" stroke-dasharray="8,3,2,3" stroke-linecap="butt" stroke-linejoin="round" stroke-width="0.5"/>
  </g>
  <clipPath id="cp00480360">
   <polygon points="0,360 480,360 480,0 0,0"/>
  </clipPath>
  <g clip-path="url(#cp00480360)">
   <polygon fill="#ffffff" points="382.347,255.532 426.389,255.532 426.389,209.711 382.347,209.711" shape-rendering="crispEdges"/>
   <polyline fill="none" points="382.347,255.532 426.389,255.532" stroke="#262626" stroke-dasharray="16,0" stroke-linecap="square" stroke-linejoin="miter" stroke-width="0.5"/>
   <polyline fill="none" points="382.347,209.711 426.389,209.711" stroke="#262626" stroke-dasharray="16,0" stroke-linecap="square" stroke-linejoin="miter" stroke-width="0.5"/>
   <polyline fill="none" points="382.347,255.532 382.347,209.711" stroke="#262626" stroke-dasharray="16,0" stroke-linecap="square" stroke-linejoin="miter" stroke-width="0.5"/>
   <polyline fill="none" points="426.389,255.532 426.389,209.711" stroke="#262626" stroke-dasharray="16,0" stroke-linecap="square" stroke-linejoin="miter" stroke-width="0.5"/>
   <polyline fill="none" points="386.353,218.616 406.379,218.616" stroke="#0071bc" stroke-linecap="butt" stroke-linejoin="round" stroke-width="0.5"/>
   <g font-family="FreeSans" font-size="10.4862" font-style="normal" font-weight="normal" transform="translate(410.384,223.116) rotate(-0,-0,-4.5)" xml:space="preserve">
    <text fill="rgb(0,0,0)" x="0 " y="-0">S</text>
   </g>
   <polyline fill="none" points="386.353,232.521 406.379,232.521" stroke="#cccccc" stroke-dasharray="8,3,2,3" stroke-linecap="butt" stroke-linejoin="round" stroke-width="0.5"/>
   <g font-family="FreeSans" font-size="10.4862" font-style="normal" font-weight="normal" transform="translate(410.384,237.521) rotate(-0,-0,-5)" xml:space="preserve">
    <text fill="rgb(0,0,0)" x="0 6 " y="-1">u1</text>
   </g>
   <polyline fill="none" points="386.353,246.526 406.379,246.526" stroke="#999999" stroke-dasharray="8,3,2,3" stroke-linecap="butt" stroke-linejoin="round" stroke-width="0.5"/>
   <g font-family="FreeSans" font-size="10.4862" font-style="normal" font-weight="normal" transform="translate(410.384,251.526) rotate(-0,-0,-5)" xml:space="preserve">
    <text fill="rgb(0,0,0)" x="0 6 " y="-1">u2</text>
   </g>
  </g>
 </g>
</svg>
