<?xml version='1.0' encoding='UTF-8' standalone='no'?>
<svg height="360pt" viewBox="0 0 480 360" width="480pt" xmlns="http://www.w3.org/2000/svg" xmlns:xlink="http://www.w3.org/1999/xlink">
 <title>Figure 1</title>
 <desc>
Creator: GL2PS 1.4.2, (C) 1999-2020 C. Geuzaine
For: Octave
CreationDate: Wed Mar 11 06:48:58 2026
</desc>
 <defs/>
 <polygon fill="#ffffff" points="0,0 480,0 480,360 0,360"/>
 <g>
  <polygon fill="#ffffff" points="0,360 480,360 480,0 0,0" shape-rendering="crispEdges"/>
  <clipPath id="cp00480360">
   <polygon points="0,360 480,360 480,0 0,0"/>
  </clipPath>
  <g clip-path="url(#cp00480360)">
   <polygon fill="#ffffff" points="62.4,320.4 434.4,320.4 434.4,27 62.4,27" shape-rendering="crispEdges"/>
   <polyline fill="none" points="123.271,320.4 123.271,27" stroke="#262626" stroke-dasharray="16,0" stroke-linecap="butt" stroke-linejoin="miter" stroke-opacity="0.15" stroke-width="0.5"/>
   <polyline fill="none" points="190.139,320.4 190.139,27" stroke="#262626" stroke-dasharray="16,0" stroke-linecap="butt" stroke-linejoin="miter" stroke-opacity="0.15" stroke-width="0.5"/>
   <polyline fill="none" points="257.008,320.4 257.008,27" stroke="#262626" stroke-dasharray="16,0" stroke-linecap="butt" stroke-linejoin="miter" stroke-opacity="0.15" stroke-width="0.5"/>
   <polyline fill="none" points="323.877,320.4 323.877,27" stroke="#262626" stroke-dasharray="16,0" stroke-linecap="butt" stroke-linejoin="miter" stroke-opacity="0.15" stroke-width="0.5"/>
   <polyline fill="none" points="390.745,320.4 390.745,27" stroke="#262626" stroke-dasharray="16,0" stroke-linecap="butt" stroke-linejoin="miter" stroke-opacity="0.15" stroke-width="0.5"/>
   <polyline fill="none" points="123.271,320.4 123.271,316.675" stroke="#262626" stroke-linecap="butt" stroke-linejoin="miter" stroke-width="0.5"/>
   <polyline fill="none" points="123.271,27 123.271,30.7251" stroke="#262626" stroke-linecap="butt" stroke-linejoin="miter" stroke-width="0.5"/>
   <polyline fill="none" points="190.139,320.4 190.139,316.675" stroke="#262626" stroke-linecap="butt" stroke-linejoin="miter" stroke-width="0.5"/>
   <polyline fill="none" points="190.139,27 190.139,30.7251" stroke="#262626" stroke-linecap="butt" stroke-linejoin="miter" stroke-width="0.5"/>
   <polyline fill="none" points="257.008,320.4 257.008,316.675" stroke="#262626" stroke-linecap="butt" stroke-linejoin="miter" stroke-width="0.5"/>
   <polyline fill="none" points="257.008,27 257.008,30.7251" stroke="#262626" stroke-linecap="butt" stroke-linejoin="miter" stroke-width="0.5"/>
   <polyline fill="none" points="323.877,320.4 323.877,316.675" stroke="#262626" stroke-linecap="butt" stroke-linejoin="miter" stroke-width="0.5"/>
   <polyline fill="none" points="323.877,27 323.877,30.7251" stroke="#262626" stroke-linecap="butt" stroke-linejoin="miter" stroke-width="0.5"/>
   <polyline fill="none" points="390.745,320.4 390.745,316.675" stroke="#262626" stroke-linecap="butt" stroke-linejoin="miter" stroke-width="0.5"/>
   <polyline fill="none" points="390.745,27 390.745,30.7251" stroke="#262626" stroke-linecap="butt" stroke-linejoin="miter" stroke-width="0.5"/>
   <g font-family="FreeSans" font-size="11.6513" font-style="normal" font-weight="normal" transform="translate(118.271,339.15) rotate(-0,5,-10)" xml:space="preserve">
    <text fill="rgb(38,38,38)" x="0 4 " y="-0">-1</text>
   </g>
   <g font-family="FreeSans" font-size="11.6513" font-style="normal" font-weight="normal" transform="translate(180.639,339.15) rotate(-0,9.5,-10)" xml:space="preserve">
    <text fill="rgb(38,38,38)" x="0 4 10 13 " y="-0">-0.5</text>
   </g>
   <g font-family="FreeSans" font-size="11.6513" font-style="normal" font-weight="normal" transform="translate(254.008,339.15) rotate(-0,3,-10)" xml:space="preserve">
    <text fill="rgb(38,38,38)" x="0 " y="-0">0</text>
   </g>
   <g font-family="FreeSans" font-size="11.6513" font-style="normal" font-weight="normal" transform="translate(316.377,339.15) rotate(-0,7.5,-10)" xml:space="preserve">
    <text fill="rgb(38,38,38)" x="0 6 9 " y="-0">0.5</text>
   </g>
   <g font-family="FreeSans" font-size="11.6513" font-style="normal" font-weight="normal" transform="translate(387.745,339.15) rotate(-0,3,-10)" xml:space="preserve">
    <text fill="rgb(38,38,38)" x="0 " y="-0">1</text>
   </g>
   <polyline fill="none" points="62.4,299.025 434.4,299.025" stroke="#262626" stroke-dasharray="16,0" stroke-linecap="butt" stroke-linejoin="miter" stroke-opacity="0.15" stroke-width="0.5"/>
   <polyline fill="none" points="62.4,257.25 434.4,257.25" stroke="#262626" stroke-dasharray="16,0" stroke-linecap="butt" stroke-linejoin="miter" stroke-opacity="0.15" stroke-width="0.5"/>
   <polyline fill="none" points="62.4,215.475 434.4,215.475" stroke="#262626" stroke-dasharray="16,0" stroke-linecap="butt" stroke-linejoin="miter" stroke-opacity="0.15" stroke-width="0.5"/>
   <polyline fill="none" points="62.4,173.7 434.4,173.7" stroke="#262626" stroke-dasharray="16,0" stroke-linecap="butt" stroke-linejoin="miter" stroke-opacity="0.15" stroke-width="0.5"/>
   <polyline fill="none" points="62.4,131.925 434.4,131.925" stroke="#262626" stroke-dasharray="16,0" stroke-linecap="butt" stroke-linejoin="miter" stroke-opacity="0.15" stroke-width="0.5"/>
   <polyline fill="none" points="62.4,90.1503 434.4,90.1503" stroke="#262626" stroke-dasharray="16,0" stroke-linecap="butt" stroke-linejoin="miter" stroke-opacity="0.15" stroke-width="0.5"/>
   <polyline fill="none" points="62.4,48.3754 434.4,48.3754" stroke="#262626" stroke-dasharray="16,0" stroke-linecap="butt" stroke-linejoin="miter" stroke-opacity="0.15" stroke-width="0.5"/>
   <polyline fill="none" points="62.4,299.025 66.12,299.025" stroke="#262626" stroke-linecap="butt" stroke-linejoin="miter" stroke-width="0.5"/>
   <polyline fill="none" points="434.4,299.025 430.68,299.025" stroke="#262626" stroke-linecap="butt" stroke-linejoin="miter" stroke-width="0.5"/>
   <polyline fill="none" points="62.4,257.25 66.12,257.25" stroke="#262626" stroke-linecap="butt" stroke-linejoin="miter" stroke-width="0.5"/>
   <polyline fill="none" points="434.4,257.25 430.68,257.25" stroke="#262626" stroke-linecap="butt" stroke-linejoin="miter" stroke-width="0.5"/>
   <polyline fill="none" points="62.4,215.475 66.12,215.475" stroke="#262626" stroke-linecap="butt" stroke-linejoin="miter" stroke-width="0.5"/>
   <polyline fill="none" points="434.4,215.475 430.68,215.475" stroke="#262626" stroke-linecap="butt" stroke-linejoin="miter" stroke-width="0.5"/>
   <polyline fill="none" points="62.4,173.7 66.12,173.7" stroke="#262626" stroke-linecap="butt" stroke-linejoin="miter" stroke-width="0.5"/>
   <polyline fill="none" points="434.4,173.7 430.68,173.7" stroke="#262626" stroke-linecap="butt" stroke-linejoin="miter" stroke-width="0.5"/>
   <polyline fill="none" points="62.4,131.925 66.12,131.925" stroke="#262626" stroke-linecap="butt" stroke-linejoin="miter" stroke-width="0.5"/>
   <polyline fill="none" points="434.4,131.925 430.68,131.925" stroke="#262626" stroke-linecap="butt" stroke-linejoin="miter" stroke-width="0.5"/>
   <polyline fill="none" points="62.4,90.1503 66.12,90.1503" stroke="#262626" stroke-linecap="butt" stroke-linejoin="miter" stroke-width="0.5"/>
   <polyline fill="none" points="434.4,90.1503 430.68,90.1503" stroke="#262626" stroke-linecap="butt" stroke-linejoin="miter" stroke-width="0.5"/>
   <polyline fill="none" points="62.4,48.3754 66.12,48.3754" stroke="#262626" stroke-linecap="butt" stroke-linejoin="miter" stroke-width="0.5"/>
   <polyline fill="none" points="434.4,48.3754 430.68,48.3754" stroke="#262626" stroke-linecap="butt" stroke-linejoin="miter" stroke-width="0.5"/>
   <g font-family="FreeSans" font-size="11.6513" font-style="normal" font-weight="normal" transform="translate(37.5743,304.025) rotate(-0,19,-5)" xml:space="preserve">
    <text fill="rgb(38,38,38)" x="0 4 10 13 " y="-0">-1.5</text>
   </g>
   <g font-family="FreeSans" font-size="11.6513" font-style="normal" font-weight="normal" transform="translate(46.5743,262.25) rotate(-0,10,-5)" xml:space="preserve">
    <text fill="rgb(38,38,38)" x="0 4 " y="-0">-1</text>
   </g>
   <g font-family="FreeSans" font-size="11.6513" font-style="normal" font-weight="normal" transform="translate(37.5743,220.475) rotate(-0,19,-5)" xml:space="preserve">
    <text fill="rgb(38,38,38)" x="0 4 10 13 " y="-0">-0.5</text>
   </g>
   <g font-family="FreeSans" font-size="11.6513" font-style="normal" font-weight="normal" transform="translate(50.5743,178.7) rotate(-0,6,-5)" xml:space="preserve">
    <text fill="rgb(38,38,38)" x="0 " y="-0">0</text>
   </g>
   <g font-family="FreeSans" font-size="11.6513" font-style="normal" font-weight="normal" transform="translate(41.5743,136.925) rotate(-0,15,-5)" xml:space="preserve">
    <text fill="rgb(38,38,38)" x="0 6 9 " y="-0">0.5</text>
   </g>
   <g font-family="FreeSans" font-size="11.6513" font-style="normal" font-weight="normal" transform="translate(50.5743,95.1503) rotate(-0,6,-5)" xml:space="preserve">
    <text fill="rgb(38,38,38)" x="0 " y="-0">1</text>
   </g>
   <g font-family="FreeSans" font-size="11.6513" font-style="normal" font-weight="normal" transform="translate(41.5743,53.3754) rotate(-0,15,-5)" xml:space="preserve">
    <text fill="rgb(38,38,38)" x="0 6 9 " y="-0">1.5</text>
   </g>
   <polyline fill="none" points="62.4,320.4 434.4,320.4" stroke="#262626" stroke-dasharray="16,0" stroke-linecap="square" stroke-linejoin="miter" stroke-width="0.5"/>
   <polyline fill="none" points="62.4,27 434.4,27" stroke="#262626" stroke-dasharray="16,0" stroke-linecap="square" stroke-linejoin="miter" stroke-width="0.5"/>
   <polyline fill="none" points="62.4,320.4 62.4,27" stroke="#262626" stroke-dasharray="16,0" stroke-linecap="square" stroke-linejoin="miter" stroke-width="0.5"/>
   <polyline fill="none" points="434.4,320.4 434.4,27" stroke="#262626" stroke-dasharray="16,0" stroke-linecap="square" stroke-linejoin="miter" stroke-width="0.5"/>
   <g font-family="FreeSans" font-size="12.8165" font-style="normal" font-weight="normal" transform="translate(221.9,355.15) rotate(-0,26.5,-11)" xml:space="preserve">
    <text fill="rgb(38,38,38)" x="0 9 16 23 26 29 38 44 47 " y="-0">Real Axis</text>
   </g>
   <g font-family="FreeSans" font-size="12.8165" font-style="normal" font-weight="normal" transform="translate(-8.42567,173.7) rotate(-90,41,0)" xml:space="preserve">
    <text fill="rgb(38,38,38)" x="0 4 14 21 28 31 38 45 49 55 58 67 73 76 " y="-3">Imaginary Axis</text>
   </g>
   <g font-family="FreeSans" font-size="12.8165" font-style="normal" font-weight="bold" transform="translate(196.9,17) rotate(-0,51.5,0)" xml:space="preserve">
    <text fill="rgb(0,0,0)" x="0 10 17 25 33 37 44 48 52 61 65 72 80 85 92 " y="-3">Nyquist Diagram</text>
   </g>
   <polyline fill="none" points="417.488,174.542 417.488,174.552 417.487,174.562 417.487,174.572 417.487,174.582 417.487,174.592 417.487,174.602 417.487,174.613 417.487,174.624 417.487,174.634 417.486,174.645 417.486,174.656 417.486,174.667 417.486,174.678 417.486,174.69 417.486,174.701 417.486,174.713 417.485,174.724 417.485,174.736 417.485,174.748 417.485,174.76 417.485,174.773 417.484,174.785 417.484,174.798 417.484,174.811 417.484,174.823 417.484,174.836 417.483,174.85 417.483,174.863 417.483,174.876 417.483,174.89 417.483,174.904 417.482,174.918 417.482,174.932 417.482,174.946 417.482,174.961 417.481,174.975 417.481,174.99 417.481,175.005 417.48,175.02 417.48,175.035 417.48,175.051 417.48,175.067 417.479,175.082 417.479,175.098 417.479,175.115 417.478,175.131 417.478,175.148 417.478,175.164 417.477,175.181 417.477,175.198 417.477,175.216 417.476,175.233 417.476,175.251 417.476,175.269 417.475,175.287 417.475,175.306 417.474,175.324 417.474,175.343 417.473,175.362 417.473,175.382 417.473,175.401 417.472,175.421 417.472,175.441 417.471,175.461 417.471,175.481 417.47,175.502 417.47,175.523 417.469,175.544 417.468,175.565 417.468,175.587 417.467,175.609 417.467,175.631 417.466,175.653 417.465,175.676 417.465,175.699 417.464,175.722 417.464,175.745 417.463,175.769 417.462,175.793 417.461,175.817 417.461,175.842 417.46,175.867 417.459,175.892 417.458,175.917 417.458,175.943 417.457,175.969 417.456,175.995 417.455,176.022 417.454,176.049 417.453,176.076 417.452,176.104 417.452,176.131 417.451,176.16 417.45,176.188 417.449,176.217 417.448,176.246 417.447,176.276 417.445,176.305 417.444,176.336 417.443,176.366 417.442,176.397 417.441,176.428 417.44,176.46 417.438,176.492 417.437,176.524 417.436,176.557 417.435,176.59 417.433,176.624 417.432,176.658 417.43,176.692 417.429,176.727 417.427,176.762 417.426,176.797 417.424,176.833 417.423,176.869 417.421,176.906 417.42,176.943 417.418,176.981 417.416,177.019 417.414,177.057 417.412,177.096 417.411,177.136 417.409,177.175 417.407,177.216 417.405,177.256 417.403,177.298 417.401,177.339 417.398,177.382 417.396,177.424 417.394,177.467 417.392,177.511 417.389,177.555 417.387,177.6 417.384,177.645 417.382,177.691 417.379,177.737 417.377,177.784 417.374,177.831 417.371,177.879 417.368,177.928 417.366,177.977 417.363,178.026 417.36,178.076 417.356,178.127 417.353,178.178 417.35,178.23 417.347,178.283 417.343,178.336 417.34,178.389 417.336,178.444 417.333,178.499 417.329,178.554 417.325,178.611 417.321,178.668 417.317,178.725 417.313,178.783 417.309,178.842 417.305,178.902 417.3,178.962 417.296,179.023 417.291,179.085 417.286,179.147 417.282,179.21 417.277,179.274 417.272,179.339 417.266,179.404 417.261,179.47 417.256,179.537 417.25,179.605 417.245,179.673 417.239,179.743 417.233,179.813 417.227,179.883 417.221,179.955 417.214,180.028 417.208,180.101 417.201,180.175 417.194,180.25 417.187,180.326 417.18,180.403 417.173,180.48 417.165,180.559 417.158,180.638 417.15,180.719 417.142,180.8 417.134,180.882 417.125,180.966 417.117,181.05 417.108,181.135 417.099,181.221 417.09,181.308 417.081,181.397 417.071,181.486 417.061,181.576 417.051,181.667 417.041,181.76 417.03,181.853 417.019,181.947 417.008,182.043 416.997,182.14 416.985,182.237 416.974,182.336 416.961,182.436 416.949,182.538 416.936,182.64 416.923,182.744 416.91,182.848 416.896,182.954 416.883,183.061 416.868,183.17 416.854,183.28 416.839,183.391 416.824,183.503 416.808,183.616 416.792,183.731 416.776,183.848 416.759,183.965 416.742,184.084 416.724,184.204 416.706,184.326 416.688,184.449 416.669,184.574 416.65,184.7 416.63,184.827 416.61,184.956 416.589,185.086 416.568,185.218 416.546,185.351 416.524,185.486 416.502,185.623 416.479,185.761 416.455,185.901 416.431,186.042 416.406,186.185 416.38,186.329 416.354,186.476 416.328,186.624 416.3,186.773 416.272,186.925 416.244,187.078 416.215,187.233 416.185,187.389 416.154,187.548 416.123,187.708 416.091,187.87 416.058,188.034 416.024,188.2 415.99,188.368 415.955,188.538 415.919,188.71 415.882,188.884 415.844,189.059 415.806,189.237 415.766,189.417 415.726,189.599 415.684,189.783 415.642,189.969 415.598,190.157 415.554,190.348 415.509,190.54 415.462,190.735 415.414,190.932 415.366,191.132 415.316,191.333 415.265,191.537 415.213,191.744 415.159,191.952 415.104,192.163 415.048,192.377 414.991,192.593 414.932,192.811 414.872,193.032 414.81,193.256 414.747,193.482 414.683,193.711 414.617,193.942 414.549,194.176 414.48,194.413 414.409,194.652 414.337,194.894 414.263,195.139 414.187,195.387 414.109,195.638 414.029,195.891 413.948,196.147 413.864,196.407 413.779,196.669 413.691,196.934 413.602,197.203 413.51,197.474 413.416,197.748 413.32,198.026 413.221,198.307 413.121,198.591 413.018,198.878 412.912,199.169 412.804,199.462 412.693,199.76 412.58,200.06 412.464,200.364 412.345,200.672 412.223,200.983 412.098,201.297 411.971,201.615 411.84,201.937 411.706,202.262 411.569,202.591 411.429,202.924 411.285,203.26 411.138,203.601 410.987,203.945 410.833,204.293 410.675,204.645 410.513,205.001 410.347,205.361 410.177,205.725 410.004,206.093 409.826,206.465 409.643,206.842 409.456,207.222 409.265,207.607 409.069,207.997 408.868,208.39 408.663,208.788 408.452,209.191 408.236,209.597 408.015,210.009 407.789,210.425 407.557,210.845 407.319,211.271 407.076,211.7 406.826,212.135 406.571,212.574 406.309,213.019 406.041,213.468 405.766,213.922 405.484,214.381 405.196,214.845 404.9,215.314 404.597,215.788 404.287,216.267 403.969,216.751 403.643,217.241 403.309,217.736 402.967,218.236 402.616,218.741 402.256,219.252 401.888,219.768 401.51,220.289 401.123,220.816 400.726,221.349 400.32,221.887 399.903,222.43 399.476,222.98 399.038,223.534 398.589,224.095 398.128,224.661 397.656,225.233 397.173,225.81 396.677,226.394 396.168,226.983 395.647,227.578 395.112,228.178 394.564,228.785 394.002,229.397 393.425,230.015 392.834,230.639 392.228,231.268 391.606,231.904 390.969,232.545 390.315,233.192 389.644,233.845 388.957,234.503 388.251,235.167 387.528,235.837 386.786,236.512 386.025,237.193 385.244,237.88 384.443,238.572 383.621,239.269 382.779,239.972 381.914,240.68 381.027,241.393 380.117,242.11 379.183,242.833 378.226,243.561 377.243,244.293 376.235,245.03 375.201,245.771 374.14,246.516 373.051,247.265 371.934,248.018 370.788,248.775 369.613,249.534 368.406,250.297 367.169,251.062 365.899,251.83 364.597,252.6 363.26,253.372 361.89,254.146 360.483,254.92 359.04,255.695 357.561,256.47 356.043,257.245 354.486,258.019 352.889,258.792 351.251,259.563 349.571,260.331 347.849,261.096 346.083,261.858 344.272,262.615 342.415,263.367 340.513,264.112 338.562,264.851 336.563,265.582 334.515,266.305 332.417,267.018 330.267,267.719 328.065,268.409 325.811,269.087 323.502,269.749 321.139,270.397 318.721,271.027 316.247,271.639 313.716,272.232 311.127,272.803 308.481,273.351 305.777,273.875 303.014,274.372 300.193,274.841 297.312,275.28 294.372,275.687 291.374,276.06 288.316,276.397 285.2,276.695 282.026,276.953 278.795,277.167 275.508,277.337 272.165,277.458 268.769,277.529 265.32,277.546 261.821,277.508 258.273,277.412 254.679,277.255 251.041,277.034 247.363,276.746 243.648,276.389 239.899,275.96 236.12,275.456 232.316,274.875 228.492,274.214 224.652,273.47 220.803,272.641 216.949,271.725 213.099,270.719 209.257,269.621 205.432,268.43 201.632,267.144 197.863,265.761 194.135,264.281 190.457,262.702 186.837,261.024 183.285,259.247 179.811,257.371 176.425,255.397 173.136,253.326 169.956,251.16 166.894,248.9 163.961,246.55 161.167,244.111 158.523,241.589 156.039,238.988 153.723,236.311 151.587,233.565 149.637,230.755 147.884,227.887 146.334,224.969 144.995,222.008 143.871,219.012 142.97,215.989 142.294,212.947 141.847,209.896 141.63,206.845 141.646,203.802 141.892,200.778 142.368,197.782 143.07,194.822 143.995,191.91 145.136,189.052 146.488,186.259 148.042,183.539 149.789,180.899 151.72,178.348 153.824,175.891 155.922,173.7 155.922,173.7 156.088,173.536 158.5,171.287 161.048,169.15 163.717,167.129 166.494,165.227 169.364,163.447 172.313,161.791 175.327,160.259 178.391,158.852 181.492,157.569 184.615,156.409 187.748,155.371 190.879,154.451 193.994,153.648 197.084,152.957 200.137,152.374 203.144,151.895 206.096,151.516 208.986,151.23 211.805,151.034 214.548,150.921 217.209,150.887 219.784,150.925 222.268,151.031 224.66,151.198 226.957,151.422 229.157,151.696 231.259,152.016 233.263,152.377 235.17,152.774 236.98,153.202 238.694,153.658 240.313,154.136 241.841,154.634 243.279,155.147 244.629,155.672 245.895,156.206 247.079,156.746 248.184,157.29 249.214,157.835 250.171,158.379 251.059,158.919 251.881,159.455 252.64,159.985 253.34,160.507 253.984,161.02 254.575,161.523 255.115,162.015 255.609,162.496 256.058,162.965 256.466,163.421 256.836,163.864 257.169,164.293 257.468,164.71 257.736,165.112 257.975,165.501 258.187,165.876 258.374,166.238 258.538,166.586 258.681,166.921 258.804,167.243 258.909,167.552 258.998,167.849 259.072,168.133 259.132,168.405 259.179,168.666 259.215,168.915 259.241,169.154 259.257,169.381 259.265,169.599 259.265,169.806 259.259,170.004 259.246,170.193 259.229,170.373 259.206,170.544 259.179,170.707 259.149,170.862 259.115,171.01 259.079,171.15 259.04,171.284 259,171.411 258.957,171.531 258.914,171.646 258.869,171.755 258.824,171.858 258.777,171.956 258.731,172.049 258.684,172.137 258.638,172.221 258.591,172.3 258.545,172.375 258.499,172.447 258.453,172.514 258.409,172.578 258.364,172.639 258.321,172.696 258.278,172.751 258.236,172.802 258.195,172.851 258.154,172.897 258.115,172.941 258.076,172.983 258.039,173.022 258.002,173.059 257.967,173.094 257.932,173.127 257.898,173.159 257.866,173.188 257.834,173.216 257.803,173.243 257.773,173.268 257.744,173.292 257.716,173.314 257.689,173.336 257.663,173.356 257.638,173.375 257.613,173.393 257.59,173.41 257.567,173.426 257.545,173.441 257.523,173.455 257.503,173.469 257.483,173.482 257.464,173.494 257.446,173.505 257.428,173.516 257.411,173.526 257.395,173.536 257.379,173.545 257.364,173.553 257.349,173.562 257.335,173.569 257.322,173.577 257.309,173.583 257.296,173.59 257.284,173.596 257.273,173.602 257.262,173.607 257.251,173.612 257.241,173.617 257.231,173.622 257.222,173.626 257.213,173.63 257.204,173.634 257.196,173.638 257.188,173.641 257.18,173.645 257.173,173.648 257.166,173.651 257.159,173.653 257.152,173.656 257.146,173.658 257.14,173.661 257.135,173.663 257.129,173.665 257.124,173.667 257.119,173.669 257.114,173.671 257.11,173.672 257.105,173.674 257.101,173.675 257.097,173.677 257.093,173.678 257.089,173.679 257.086,173.68 257.082,173.681 257.079,173.682 257.076,173.683 257.073,173.684 257.07,173.685 257.068,173.686 257.065,173.687 257.062,173.688 257.06,173.688 257.058,173.689 257.056,173.69 257.053,173.69 257.051,173.691 257.05,173.691 257.048,173.692 257.046,173.692 257.044,173.693 257.043,173.693 257.041,173.693 257.04,173.694 257.038,173.694 257.037,173.694 257.036,173.695 257.034,173.695 257.033,173.695 257.032,173.696 257.031,173.696 257.03,173.696 257.029,173.696 257.028,173.697 257.027,173.697 257.026,173.697 257.026,173.697 257.025,173.697 257.024,173.697 257.023,173.698 257.023,173.698 257.022,173.698 257.021,173.698 257.021,173.698 257.02,173.698 257.02,173.698 257.019,173.698 257.019,173.698 257.018,173.699 257.018,173.699 257.017,173.699 257.017,173.699 257.016,173.699 257.016,173.699 257.016,173.699 257.015,173.699 257.015,173.699 257.015,173.699 257.014,173.699 257.014,173.699 257.014,173.699 257.014,173.699 257.013,173.699 257.013,173.699 257.013,173.699 257.013,173.699 257.012,173.699 257.012,173.7 257.012,173.7 257.012,173.7 257.012,173.7 257.011,173.7 257.011,173.7 257.011,173.7 257.011,173.7 257.011,173.7 257.011,173.7 257.011,173.7 257.01,173.7 257.01,173.7 257.01,173.7 257.01,173.7 257.01,173.7 257.01,173.7 257.01,173.7 257.01,173.7 257.01,173.7 257.01,173.7 257.01,173.7 257.009,173.7 257.009,173.7 257.009,173.7 257.009,173.7 257.009,173.7 257.009,173.7 257.009,173.7 257.009,173.7 257.009,173.7 257.009,173.7 257.009,173.7 257.009,173.7 257.009,173.7 257.009,173.7 257.009,173.7 257.009,173.7 257.009,173.7 257.009,173.7 257.009,173.7 257.009,173.7 257.009,173.7 257.008,173.7 257.008,173.7 257.008,173.7 257.008,173.7 257.008,173.7 257.008,173.7 257.008,173.7 257.008,173.7 257.008,173.7 257.008,173.7 257.008,173.7 257.008,173.7 257.008,173.7 257.008,173.7 257.008,173.7 257.008,173.7 257.008,173.7 257.008,173.7 257.008,173.7 257.008,173.7 257.008,173.7 257.008,173.7 257.008,173.7 257.008,173.7 257.008,173.7 257.008,173.7 257.008,173.7 257.008,173.7 257.008,173.7 257.008,173.7 257.008,173.7 257.008,173.7 257.008,173.7 257.008,173.7 257.008,173.7 257.008,173.7 257.008,173.7 257.008,173.7 257.008,173.7 257.008,173.7 257.008,173.7 257.008,173.7 257.008,173.7 257.008,173.7 257.008,173.7 257.008,173.7 257.008,173.7 257.008,173.7 257.008,173.7 257.008,173.7 257.008,173.7 257.008,173.7 257.008,173.7 257.008,173.7 257.008,173.7 257.008,173.7 257.008,173.7 257.008,173.7 257.008,173.7 257.008,173.7 257.008,173.7 257.008,173.7 257.008,173.7 257.008,173.7 257.008,173.7 257.008,173.7 257.008,173.7 257.008,173.7 257.008,173.7 257.008,173.7 257.008,173.7 257.008,173.7 257.008,173.7 257.008,173.7 257.008,173.7 257.008,173.7 257.008,173.7 257.008,173.7 257.008,173.7 257.008,173.7 257.008,173.7 257.008,173.7 257.008,173.7 257.008,173.7 257.008,173.7 257.008,173.7 257.008,173.7 257.008,173.7 257.008,173.7 257.008,173.7 257.008,173.7 257.008,173.7 257.008,173.7 257.008,173.7 257.008,173.7 257.008,173.7 257.008,173.7 257.008,173.7 257.008,173.7 257.008,173.7 257.008,173.7 257.008,173.7 257.008,173.7 257.008,173.7 257.008,173.7 257.008,173.7 257.008,173.7 257.008,173.7 257.008,173.7 257.008,173.7 257.008,173.7 257.008,173.7 257.008,173.7 257.008,173.7 257.008,173.7 257.008,173.7 257.008,173.7 257.008,173.7 257.008,173.7 257.008,173.7 257.008,173.7 257.008,173.7 257.008,173.7 257.008,173.7 257.008,173.7 257.008,173.7 257.008,173.7 257.008,173.7 257.008,173.7 257.008,173.7 257.008,173.7 257.008,173.7 257.008,173.7 257.008,173.7 257.008,173.7 257.008,173.7 257.008,173.7 257.008,173.7 257.008,173.7 257.008,173.7 257.008,173.7 257.008,173.7 257.008,173.7 257.008,173.7 257.008,173.7 257.008,173.7 257.008,173.7 257.008,173.7 257.008,173.7 257.008,173.7 257.008,173.7 257.008,173.7 257.008,173.7 257.008,173.7 257.008,173.7 257.008,173.7 257.008,173.7 257.008,173.7 257.008,173.7 257.008,173.7 257.008,173.7 257.008,173.7 257.008,173.7 257.008,173.7 257.008,173.7 257.008,173.7 257.008,173.7 257.008,173.7 257.008,173.7 257.008,173.7 257.008,173.7 257.008,173.7 257.008,173.7 257.008,173.7 257.008,173.7 257.008,173.7 257.008,173.7 257.008,173.7 257.008,173.7 257.008,173.7 257.008,173.7 257.008,173.7 257.008,173.7 257.008,173.7 257.008,173.7 257.008,173.7 257.008,173.7 257.008,173.7 257.008,173.7 257.008,173.7 257.008,173.7 257.008,173.7 257.008,173.7 257.008,173.7 257.008,173.7 257.008,173.7 257.008,173.7 257.008,173.7 257.008,173.7 257.008,173.7 257.008,173.7 257.008,173.7 257.008,173.7 257.008,173.7 257.008,173.7 257.008,173.7 257.008,173.7 257.008,173.7 257.008,173.7 257.008,173.7 257.008,173.7 257.008,173.7 257.008,173.7 257.008,173.7 257.008,173.7 257.008,173.7 257.008,173.7 257.008,173.7 257.008,173.7 257.008,173.7 257.008,173.7 257.008,173.7 257.008,173.7 257.008,173.7 257.008,173.7 257.008,173.7 257.008,173.7 257.008,173.7 257.008,173.7 257.008,173.7 257.008,173.7 257.008,173.7 257.008,173.7 257.008,173.7" stroke="#0071bc" stroke-linecap="butt" stroke-linejoin="round" stroke-width="0.5"/>
   <polyline fill="none" points="417.491,174.362 417.491,174.369 417.491,174.377 417.491,174.385 417.491,174.393 417.491,174.401 417.491,174.409 417.491,174.417 417.491,174.426 417.491,174.434 417.491,174.443 417.49,174.451 417.49,174.46 417.49,174.469 417.49,174.478 417.49,174.487 417.49,174.496 417.49,174.505 417.49,174.514 417.49,174.524 417.49,174.533 417.49,174.543 417.49,174.553 417.49,174.563 417.49,174.573 417.49,174.583 417.49,174.593 417.489,174.603 417.489,174.614 417.489,174.624 417.489,174.635 417.489,174.646 417.489,174.657 417.489,174.668 417.489,174.679 417.489,174.691 417.489,174.702 417.489,174.714 417.489,174.725 417.488,174.737 417.488,174.749 417.488,174.761 417.488,174.774 417.488,174.786 417.488,174.799 417.488,174.812 417.488,174.824 417.488,174.837 417.488,174.851 417.487,174.864 417.487,174.877 417.487,174.891 417.487,174.905 417.487,174.919 417.487,174.933 417.487,174.947 417.487,174.962 417.486,174.976 417.486,174.991 417.486,175.006 417.486,175.021 417.486,175.037 417.486,175.052 417.485,175.068 417.485,175.084 417.485,175.1 417.485,175.116 417.485,175.132 417.485,175.149 417.484,175.166 417.484,175.183 417.484,175.2 417.484,175.217 417.484,175.235 417.483,175.253 417.483,175.271 417.483,175.289 417.483,175.307 417.482,175.326 417.482,175.345 417.482,175.364 417.482,175.383 417.482,175.403 417.481,175.422 417.481,175.442 417.481,175.463 417.48,175.483 417.48,175.504 417.48,175.525 417.48,175.546 417.479,175.567 417.479,175.589 417.479,175.611 417.478,175.633 417.478,175.655 417.478,175.678 417.477,175.701 417.477,175.724 417.477,175.747 417.476,175.771 417.476,175.795 417.475,175.819 417.475,175.844 417.475,175.869 417.474,175.894 417.474,175.919 417.473,175.945 417.473,175.971 417.472,175.998 417.472,176.024 417.471,176.051 417.471,176.078 417.47,176.106 417.47,176.134 417.469,176.162 417.469,176.191 417.468,176.22 417.468,176.249 417.467,176.278 417.467,176.308 417.466,176.338 417.465,176.369 417.465,176.4 417.464,176.431 417.463,176.463 417.463,176.495 417.462,176.527 417.461,176.56 417.461,176.593 417.46,176.627 417.459,176.661 417.458,176.695 417.457,176.73 417.457,176.765 417.456,176.801 417.455,176.837 417.454,176.873 417.453,176.91 417.452,176.947 417.451,176.985 417.45,177.023 417.449,177.061 417.448,177.1 417.447,177.14 417.446,177.18 417.445,177.22 417.444,177.261 417.443,177.302 417.442,177.344 417.441,177.386 417.439,177.429 417.438,177.472 417.437,177.516 417.436,177.56 417.434,177.605 417.433,177.65 417.431,177.696 417.43,177.742 417.429,177.789 417.427,177.837 417.425,177.885 417.424,177.933 417.422,177.982 417.421,178.032 417.419,178.082 417.417,178.133 417.415,178.185 417.414,178.237 417.412,178.289 417.41,178.343 417.408,178.396 417.406,178.451 417.404,178.506 417.402,178.562 417.4,178.618 417.398,178.675 417.395,178.733 417.393,178.792 417.391,178.851 417.388,178.91 417.386,178.971 417.384,179.032 417.381,179.094 417.378,179.157 417.376,179.22 417.373,179.284 417.37,179.349 417.367,179.415 417.364,179.481 417.361,179.548 417.358,179.616 417.355,179.685 417.352,179.754 417.349,179.824 417.345,179.896 417.342,179.968 417.338,180.04 417.335,180.114 417.331,180.188 417.327,180.264 417.323,180.34 417.319,180.417 417.315,180.495 417.311,180.574 417.307,180.654 417.303,180.735 417.298,180.817 417.294,180.899 417.289,180.983 417.284,181.068 417.279,181.153 417.274,181.24 417.269,181.328 417.264,181.416 417.259,181.506 417.253,181.597 417.247,181.689 417.242,181.782 417.236,181.876 417.23,181.971 417.224,182.067 417.217,182.164 417.211,182.263 417.204,182.362 417.197,182.463 417.19,182.565 417.183,182.668 417.176,182.773 417.169,182.878 417.161,182.985 417.153,183.093 417.145,183.203 417.137,183.314 417.129,183.425 417.12,183.539 417.111,183.653 417.102,183.769 417.093,183.887 417.084,184.005 417.074,184.126 417.064,184.247 417.054,184.37 417.044,184.495 417.033,184.62 417.022,184.748 417.011,184.877 417,185.007 416.988,185.139 416.976,185.273 416.964,185.408 416.951,185.544 416.939,185.683 416.925,185.823 416.912,185.964 416.898,186.107 416.884,186.252 416.87,186.399 416.855,186.548 416.84,186.698 416.824,186.85 416.808,187.004 416.792,187.159 416.776,187.317 416.759,187.476 416.741,187.637 416.723,187.801 416.705,187.966 416.686,188.133 416.667,188.302 416.647,188.473 416.627,188.646 416.606,188.822 416.585,188.999 416.563,189.178 416.541,189.36 416.518,189.544 416.495,189.73 416.471,189.918 416.447,190.109 416.422,190.302 416.396,190.497 416.37,190.694 416.343,190.894 416.315,191.097 416.287,191.301 416.258,191.509 416.228,191.719 416.197,191.931 416.166,192.146 416.134,192.363 416.101,192.584 416.068,192.806 416.033,193.032 415.998,193.26 415.962,193.492 415.924,193.726 415.886,193.962 415.847,194.202 415.807,194.445 415.766,194.691 415.724,194.939 415.681,195.191 415.637,195.446 415.591,195.704 415.545,195.966 415.497,196.23 415.448,196.498 415.398,196.769 415.346,197.044 415.293,197.322 415.239,197.603 415.184,197.888 415.126,198.177 415.068,198.469 415.008,198.765 414.946,199.064 414.883,199.368 414.818,199.675 414.751,199.986 414.683,200.301 414.613,200.62 414.541,200.943 414.467,201.271 414.391,201.602 414.313,201.938 414.233,202.278 414.151,202.622 414.066,202.971 413.98,203.324 413.89,203.682 413.799,204.045 413.705,204.412 413.609,204.784 413.509,205.161 413.408,205.543 413.303,205.93 413.195,206.322 413.085,206.719 412.971,207.121 412.854,207.529 412.734,207.942 412.611,208.36 412.484,208.784 412.353,209.214 412.219,209.65 412.081,210.091 411.939,210.539 411.793,210.992 411.642,211.451 411.488,211.917 411.329,212.389 411.165,212.868 410.996,213.353 410.823,213.844 410.644,214.343 410.46,214.848 410.271,215.36 410.076,215.88 409.875,216.406 409.668,216.94 409.455,217.481 409.235,218.03 409.009,218.586 408.776,219.151 408.535,219.723 408.288,220.303 408.032,220.892 407.769,221.489 407.497,222.094 407.217,222.708 406.928,223.331 406.63,223.963 406.322,224.603 406.005,225.253 405.677,225.913 405.339,226.581 404.99,227.26 404.63,227.948 404.257,228.646 403.873,229.355 403.476,230.073 403.065,230.802 402.641,231.542 402.203,232.293 401.75,233.054 401.282,233.827 400.798,234.611 400.297,235.406 399.78,236.213 399.244,237.031 398.69,237.862 398.117,238.705 397.523,239.56 396.909,240.427 396.274,241.307 395.615,242.2 394.934,243.105 394.228,244.024 393.497,244.955 392.739,245.9 391.954,246.859 391.141,247.831 390.298,248.816 389.424,249.816 388.518,250.829 387.578,251.855 386.604,252.896 385.593,253.951 384.544,255.02 383.457,256.102 382.328,257.199 381.157,258.309 379.941,259.433 378.679,260.571 377.369,261.722 376.009,262.887 374.596,264.064 373.13,265.255 371.607,266.458 370.025,267.673 368.382,268.899 366.675,270.137 364.902,271.385 363.06,272.643 361.147,273.91 359.159,275.186 357.094,276.469 354.948,277.758 352.719,279.053 350.403,280.352 347.997,281.653 345.498,282.955 342.902,284.256 340.206,285.556 337.407,286.85 334.5,288.138 331.483,289.417 328.352,290.683 325.102,291.936 321.731,293.17 318.235,294.384 314.611,295.573 310.854,296.733 306.963,297.86 302.933,298.951 298.763,299.999 294.448,301 289.988,301.948 285.38,302.838 280.622,303.663 275.714,304.417 270.655,305.092 265.444,305.682 260.083,306.178 254.574,306.573 248.919,306.858 243.12,307.025 237.184,307.064 231.115,306.966 224.92,306.722 218.608,306.322 212.189,305.757 205.674,305.017 199.077,304.091 192.412,302.971 185.696,301.648 178.948,300.113 172.189,298.357 165.44,296.373 158.727,294.155 152.077,291.696 145.517,288.993 139.078,286.043 132.79,282.844 126.688,279.396 120.806,275.703 115.177,271.768 109.837,267.598 104.822,263.201 100.166,258.59 95.9029,253.779 92.0659,248.783 88.6851,243.622 85.7886,238.317 83.4013,232.891 81.5447,227.369 80.236,221.78 79.4882,216.152 79.3091,210.515 79.7016,204.899 80.663,199.335 82.1853,193.856 84.255,188.49 86.8532,183.267 89.9559,178.216 93.2647,173.7 93.2647,173.7 93.5344,173.362 97.5557,168.728 101.983,164.337 106.776,160.207 111.892,156.352 117.288,152.785 122.916,149.515 128.733,146.547 134.691,143.884 140.747,141.525 146.857,139.466 152.98,137.702 159.077,136.222 165.113,135.017 171.056,134.073 176.875,133.377 182.544,132.913 188.043,132.665 193.351,132.616 198.454,132.75 203.338,133.048 207.996,133.494 212.42,134.072 216.608,134.765 220.557,135.558 224.269,136.437 227.747,137.387 230.994,138.395 234.017,139.451 236.822,140.543 239.418,141.66 241.813,142.795 244.015,143.938 246.034,145.083 247.881,146.224 249.563,147.354 251.092,148.47 252.477,149.566 253.728,150.64 254.852,151.688 255.861,152.709 256.761,153.7 257.561,154.66 258.269,155.588 258.893,156.483 259.439,157.344 259.914,158.173 260.324,158.968 260.675,159.729 260.972,160.458 261.22,161.155 261.424,161.82 261.589,162.455 261.718,163.06 261.815,163.635 261.883,164.183 261.926,164.703 261.946,165.198 261.946,165.667 261.928,166.112 261.894,166.534 261.847,166.934 261.788,167.313 261.72,167.672 261.642,168.012 261.557,168.333 261.466,168.636 261.37,168.923 261.269,169.195 261.166,169.451 261.06,169.693 260.952,169.922 260.843,170.138 260.733,170.341 260.623,170.534 260.514,170.715 260.405,170.886 260.297,171.048 260.19,171.2 260.085,171.344 259.981,171.479 259.879,171.607 259.78,171.728 259.682,171.841 259.587,171.948 259.494,172.049 259.403,172.144 259.315,172.234 259.229,172.318 259.145,172.398 259.064,172.473 258.986,172.543 258.909,172.61 258.836,172.673 258.764,172.732 258.695,172.788 258.629,172.84 258.564,172.89 258.502,172.936 258.442,172.98 258.384,173.022 258.328,173.061 258.274,173.097 258.223,173.132 258.173,173.165 258.125,173.195 258.079,173.224 258.034,173.252 257.992,173.277 257.951,173.302 257.911,173.324 257.873,173.346 257.837,173.366 257.802,173.385 257.768,173.403 257.736,173.42 257.705,173.436 257.675,173.451 257.647,173.466 257.62,173.479 257.593,173.492 257.568,173.504 257.544,173.515 257.521,173.525 257.499,173.535 257.478,173.545 257.458,173.554 257.438,173.562 257.419,173.57 257.402,173.577 257.384,173.584 257.368,173.591 257.352,173.597 257.337,173.603 257.323,173.608 257.309,173.614 257.296,173.619 257.283,173.623 257.271,173.628 257.26,173.632 257.249,173.636 257.238,173.639 257.228,173.643 257.218,173.646 257.209,173.649 257.2,173.652 257.192,173.655 257.184,173.657 257.176,173.66 257.169,173.662 257.161,173.664 257.155,173.666 257.148,173.668 257.142,173.67 257.136,173.672 257.13,173.673 257.125,173.675 257.12,173.676 257.115,173.677 257.11,173.679 257.105,173.68 257.101,173.681 257.097,173.682 257.093,173.683 257.089,173.684 257.086,173.685 257.082,173.686 257.079,173.687 257.076,173.687 257.073,173.688 257.07,173.689 257.067,173.689 257.064,173.69 257.062,173.691 257.059,173.691 257.057,173.692 257.055,173.692 257.053,173.693 257.051,173.693 257.049,173.693 257.047,173.694 257.045,173.694 257.044,173.694 257.042,173.695 257.041,173.695 257.039,173.695 257.038,173.696 257.036,173.696 257.035,173.696 257.034,173.696 257.033,173.696 257.032,173.697 257.031,173.697 257.03,173.697 257.029,173.697 257.028,173.697 257.027,173.698 257.026,173.698 257.025,173.698 257.024,173.698 257.024,173.698 257.023,173.698 257.022,173.698 257.022,173.698 257.021,173.698 257.02,173.699 257.02,173.699 257.019,173.699 257.019,173.699 257.018,173.699 257.018,173.699 257.017,173.699 257.017,173.699 257.017,173.699 257.016,173.699 257.016,173.699 257.015,173.699 257.015,173.699 257.015,173.699 257.014,173.699 257.014,173.699 257.014,173.699 257.014,173.699 257.013,173.699 257.013,173.7 257.013,173.7 257.013,173.7 257.012,173.7 257.012,173.7 257.012,173.7 257.012,173.7 257.012,173.7 257.012,173.7 257.011,173.7 257.011,173.7 257.011,173.7 257.011,173.7 257.011,173.7 257.011,173.7 257.011,173.7 257.01,173.7 257.01,173.7 257.01,173.7 257.01,173.7 257.01,173.7 257.01,173.7 257.01,173.7 257.01,173.7 257.01,173.7 257.01,173.7 257.009,173.7 257.009,173.7 257.009,173.7 257.009,173.7 257.009,173.7 257.009,173.7 257.009,173.7 257.009,173.7 257.009,173.7 257.009,173.7 257.009,173.7 257.009,173.7 257.009,173.7 257.009,173.7 257.009,173.7 257.009,173.7 257.009,173.7 257.009,173.7 257.009,173.7 257.009,173.7 257.009,173.7 257.009,173.7 257.008,173.7 257.008,173.7 257.008,173.7 257.008,173.7 257.008,173.7 257.008,173.7 257.008,173.7 257.008,173.7 257.008,173.7 257.008,173.7 257.008,173.7 257.008,173.7 257.008,173.7 257.008,173.7 257.008,173.7 257.008,173.7 257.008,173.7 257.008,173.7 257.008,173.7 257.008,173.7 257.008,173.7 257.008,173.7 257.008,173.7 257.008,173.7 257.008,173.7 257.008,173.7 257.008,173.7 257.008,173.7 257.008,173.7 257.008,173.7 257.008,173.7 257.008,173.7 257.008,173.7 257.008,173.7 257.008,173.7 257.008,173.7 257.008,173.7 257.008,173.7 257.008,173.7 257.008,173.7 257.008,173.7 257.008,173.7 257.008,173.7 257.008,173.7 257.008,173.7 257.008,173.7 257.008,173.7 257.008,173.7 257.008,173.7 257.008,173.7 257.008,173.7 257.008,173.7 257.008,173.7 257.008,173.7 257.008,173.7 257.008,173.7 257.008,173.7 257.008,173.7 257.008,173.7 257.008,173.7 257.008,173.7 257.008,173.7 257.008,173.7 257.008,173.7 257.008,173.7 257.008,173.7 257.008,173.7 257.008,173.7 257.008,173.7 257.008,173.7 257.008,173.7 257.008,173.7 257.008,173.7 257.008,173.7 257.008,173.7 257.008,173.7 257.008,173.7 257.008,173.7 257.008,173.7 257.008,173.7 257.008,173.7 257.008,173.7 257.008,173.7 257.008,173.7 257.008,173.7 257.008,173.7 257.008,173.7 257.008,173.7 257.008,173.7 257.008,173.7 257.008,173.7 257.008,173.7 257.008,173.7 257.008,173.7 257.008,173.7 257.008,173.7 257.008,173.7 257.008,173.7 257.008,173.7 257.008,173.7 257.008,173.7 257.008,173.7 257.008,173.7 257.008,173.7 257.008,173.7 257.008,173.7 257.008,173.7 257.008,173.7 257.008,173.7 257.008,173.7 257.008,173.7 257.008,173.7 257.008,173.7 257.008,173.7 257.008,173.7 257.008,173.7 257.008,173.7 257.008,173.7 257.008,173.7 257.008,173.7 257.008,173.7 257.008,173.7 257.008,173.7 257.008,173.7 257.008,173.7 257.008,173.7 257.008,173.7 257.008,173.7 257.008,173.7 257.008,173.7 257.008,173.7 257.008,173.7 257.008,173.7 257.008,173.7 257.008,173.7 257.008,173.7 257.008,173.7 257.008,173.7 257.008,173.7 257.008,173.7 257.008,173.7 257.008,173.7 257.008,173.7 257.008,173.7 257.008,173.7 257.008,173.7 257.008,173.7 257.008,173.7 257.008,173.7 257.008,173.7 257.008,173.7 257.008,173.7 257.008,173.7 257.008,173.7 257.008,173.7 257.008,173.7 257.008,173.7 257.008,173.7 257.008,173.7 257.008,173.7 257.008,173.7 257.008,173.7 257.008,173.7 257.008,173.7 257.008,173.7 257.008,173.7 257.008,173.7 257.008,173.7 257.008,173.7 257.008,173.7 257.008,173.7 257.008,173.7 257.008,173.7 257.008,173.7 257.008,173.7 257.008,173.7 257.008,173.7 257.008,173.7 257.008,173.7 257.008,173.7 257.008,173.7 257.008,173.7 257.008,173.7 257.008,173.7 257.008,173.7 257.008,173.7 257.008,173.7 257.008,173.7 257.008,173.7 257.008,173.7 257.008,173.7 257.008,173.7 257.008,173.7 257.008,173.7 257.008,173.7 257.008,173.7 257.008,173.7 257.008,173.7 257.008,173.7 257.008,173.7 257.008,173.7 257.008,173.7 257.008,173.7 257.008,173.7 257.008,173.7 257.008,173.7 257.008,173.7 257.008,173.7 257.008,173.7 257.008,173.7 257.008,173.7 257.008,173.7 257.008,173.7 257.008,173.7 257.008,173.7 257.008,173.7 257.008,173.7 257.008,173.7 257.008,173.7 257.008,173.7 257.008,173.7 257.008,173.7 257.008,173.7 257.008,173.7 257.008,173.7 257.008,173.7 257.008,173.7 257.008,173.7 257.008,173.7 257.008,173.7 257.008,173.7 257.008,173.7 257.008,173.7" stroke="#d85218" stroke-linecap="butt" stroke-linejoin="round" stroke-width="0.5"/>
   <polyline fill="none" points="417.488,172.858 417.488,172.848 417.487,172.838 417.487,172.828 417.487,172.818 417.487,172.808 417.487,172.798 417.487,172.787 417.487,172.776 417.487,172.766 417.486,172.755 417.486,172.744 417.486,172.733 417.486,172.722 417.486,172.71 417.486,172.699 417.486,172.687 417.485,172.676 417.485,172.664 417.485,172.652 417.485,172.64 417.485,172.627 417.484,172.615 417.484,172.602 417.484,172.589 417.484,172.577 417.484,172.564 417.483,172.55 417.483,172.537 417.483,172.524 417.483,172.51 417.483,172.496 417.482,172.482 417.482,172.468 417.482,172.454 417.482,172.439 417.481,172.425 417.481,172.41 417.481,172.395 417.48,172.38 417.48,172.365 417.48,172.349 417.48,172.333 417.479,172.318 417.479,172.302 417.479,172.285 417.478,172.269 417.478,172.252 417.478,172.236 417.477,172.219 417.477,172.202 417.477,172.184 417.476,172.167 417.476,172.149 417.476,172.131 417.475,172.113 417.475,172.094 417.474,172.076 417.474,172.057 417.473,172.038 417.473,172.018 417.473,171.999 417.472,171.979 417.472,171.959 417.471,171.939 417.471,171.919 417.47,171.898 417.47,171.877 417.469,171.856 417.468,171.835 417.468,171.813 417.467,171.791 417.467,171.769 417.466,171.747 417.465,171.724 417.465,171.701 417.464,171.678 417.464,171.655 417.463,171.631 417.462,171.607 417.461,171.583 417.461,171.558 417.46,171.533 417.459,171.508 417.458,171.483 417.458,171.457 417.457,171.431 417.456,171.405 417.455,171.378 417.454,171.351 417.453,171.324 417.452,171.296 417.452,171.269 417.451,171.24 417.45,171.212 417.449,171.183 417.448,171.154 417.447,171.124 417.445,171.095 417.444,171.064 417.443,171.034 417.442,171.003 417.441,170.972 417.44,170.94 417.438,170.908 417.437,170.876 417.436,170.843 417.435,170.81 417.433,170.776 417.432,170.742 417.43,170.708 417.429,170.673 417.427,170.638 417.426,170.603 417.424,170.567 417.423,170.531 417.421,170.494 417.42,170.457 417.418,170.419 417.416,170.381 417.414,170.343 417.412,170.304 417.411,170.264 417.409,170.225 417.407,170.184 417.405,170.144 417.403,170.102 417.401,170.061 417.398,170.018 417.396,169.976 417.394,169.933 417.392,169.889 417.389,169.845 417.387,169.8 417.384,169.755 417.382,169.709 417.379,169.663 417.377,169.616 417.374,169.569 417.371,169.521 417.368,169.472 417.366,169.423 417.363,169.374 417.36,169.324 417.356,169.273 417.353,169.222 417.35,169.17 417.347,169.117 417.343,169.064 417.34,169.011 417.336,168.956 417.333,168.901 417.329,168.846 417.325,168.789 417.321,168.732 417.317,168.675 417.313,168.617 417.309,168.558 417.305,168.498 417.3,168.438 417.296,168.377 417.291,168.315 417.286,168.253 417.282,168.19 417.277,168.126 417.272,168.061 417.266,167.996 417.261,167.93 417.256,167.863 417.25,167.795 417.245,167.727 417.239,167.658 417.233,167.587 417.227,167.517 417.221,167.445 417.214,167.372 417.208,167.299 417.201,167.225 417.194,167.15 417.187,167.074 417.18,166.997 417.173,166.92 417.165,166.841 417.158,166.762 417.15,166.681 417.142,166.6 417.134,166.518 417.125,166.434 417.117,166.35 417.108,166.265 417.099,166.179 417.09,166.092 417.081,166.003 417.071,165.914 417.061,165.824 417.051,165.733 417.041,165.641 417.03,165.547 417.019,165.453 417.008,165.357 416.997,165.26 416.985,165.163 416.974,165.064 416.961,164.964 416.949,164.862 416.936,164.76 416.923,164.656 416.91,164.552 416.896,164.446 416.883,164.339 416.868,164.23 416.854,164.12 416.839,164.009 416.824,163.897 416.808,163.784 416.792,163.669 416.776,163.552 416.759,163.435 416.742,163.316 416.724,163.196 416.706,163.074 416.688,162.951 416.669,162.826 416.65,162.7 416.63,162.573 416.61,162.444 416.589,162.314 416.568,162.182 416.546,162.049 416.524,161.914 416.502,161.777 416.479,161.639 416.455,161.499 416.431,161.358 416.406,161.215 416.38,161.071 416.354,160.924 416.328,160.776 416.3,160.627 416.272,160.475 416.244,160.322 416.215,160.167 416.185,160.011 416.154,159.852 416.123,159.692 416.091,159.53 416.058,159.366 416.024,159.2 415.99,159.032 415.955,158.862 415.919,158.69 415.882,158.516 415.844,158.341 415.806,158.163 415.766,157.983 415.726,157.801 415.684,157.617 415.642,157.431 415.598,157.243 415.554,157.052 415.509,156.86 415.462,156.665 415.414,156.468 415.366,156.268 415.316,156.067 415.265,155.863 415.213,155.656 415.159,155.448 415.104,155.237 415.048,155.023 414.991,154.807 414.932,154.589 414.872,154.368 414.81,154.144 414.747,153.918 414.683,153.689 414.617,153.458 414.549,153.224 414.48,152.987 414.409,152.748 414.337,152.506 414.263,152.261 414.187,152.013 414.109,151.762 414.029,151.509 413.948,151.253 413.864,150.993 413.779,150.731 413.691,150.466 413.602,150.197 413.51,149.926 413.416,149.652 413.32,149.374 413.221,149.093 413.121,148.809 413.018,148.522 412.912,148.231 412.804,147.938 412.693,147.64 412.58,147.34 412.464,147.036 412.345,146.728 412.223,146.417 412.098,146.103 411.971,145.785 411.84,145.463 411.706,145.138 411.569,144.809 411.429,144.476 411.285,144.14 411.138,143.799 410.987,143.455 410.833,143.107 410.675,142.755 410.513,142.399 410.347,142.039 410.177,141.675 410.004,141.307 409.826,140.935 409.643,140.558 409.456,140.178 409.265,139.793 409.069,139.403 408.868,139.01 408.663,138.612 408.452,138.209 408.236,137.803 408.015,137.391 407.789,136.975 407.557,136.555 407.319,136.13 407.076,135.7 406.826,135.265 406.571,134.826 406.309,134.381 406.041,133.932 405.766,133.478 405.484,133.019 405.196,132.555 404.9,132.086 404.597,131.612 404.287,131.133 403.969,130.649 403.643,130.159 403.309,129.664 402.967,129.164 402.616,128.659 402.256,128.148 401.888,127.632 401.51,127.111 401.123,126.584 400.726,126.051 400.32,125.513 399.903,124.97 399.476,124.42 399.038,123.866 398.589,123.305 398.128,122.739 397.656,122.167 397.173,121.59 396.677,121.006 396.168,120.417 395.647,119.822 395.112,119.222 394.564,118.615 394.002,118.003 393.425,117.385 392.834,116.761 392.228,116.132 391.606,115.496 390.969,114.855 390.315,114.208 389.644,113.555 388.957,112.897 388.251,112.233 387.528,111.563 386.786,110.888 386.025,110.207 385.244,109.52 384.443,108.828 383.621,108.131 382.779,107.428 381.914,106.72 381.027,106.007 380.117,105.29 379.183,104.567 378.226,103.839 377.243,103.107 376.235,102.37 375.201,101.629 374.14,100.884 373.051,100.135 371.934,99.3818 370.788,98.6254 369.613,97.8657 368.406,97.103 367.169,96.3375 365.899,95.5696 364.597,94.7996 363.26,94.0277 361.89,93.2545 360.483,92.4801 359.04,91.7052 357.561,90.9301 356.043,90.1552 354.486,89.3811 352.889,88.6084 351.251,87.8375 349.571,87.069 347.849,86.3037 346.083,85.5421 344.272,84.7851 342.415,84.0333 340.513,83.2875 338.562,82.5486 336.563,81.8175 334.515,81.0952 332.417,80.3825 330.267,79.6806 328.065,78.9905 325.811,78.3135 323.502,77.6507 321.139,77.0034 318.721,76.373 316.247,75.7608 313.716,75.1684 311.127,74.5973 308.481,74.049 305.777,73.5253 303.014,73.028 300.193,72.5588 297.312,72.1198 294.372,71.7127 291.374,71.3398 288.316,71.003 285.2,70.7047 282.026,70.4471 278.795,70.2326 275.508,70.0634 272.165,69.9423 268.769,69.8715 265.32,69.8538 261.821,69.8917 258.273,69.988 254.679,70.1453 251.041,70.3664 247.363,70.6541 243.648,71.011 239.899,71.44 236.12,71.9437 232.316,72.5249 228.492,73.1861 224.652,73.93 220.803,74.7589 216.949,75.6753 213.099,76.6812 209.257,77.7788 205.432,78.97 201.632,80.2563 197.863,81.639 194.135,83.1195 190.457,84.6984 186.837,86.3763 183.285,88.1533 179.811,90.0291 176.425,92.003 173.136,94.0739 169.956,96.2403 166.894,98.5 163.961,100.85 161.167,103.289 158.523,105.811 156.039,108.412 153.723,111.089 151.587,113.835 149.637,116.645 147.884,119.513 146.334,122.431 144.995,125.392 143.871,128.388 142.97,131.411 142.294,134.453 141.847,137.504 141.63,140.555 141.646,143.598 141.892,146.622 142.368,149.618 143.07,152.578 143.995,155.49 145.136,158.348 146.488,161.141 148.042,163.861 149.789,166.501 151.72,169.052 153.824,171.509 155.922,173.7 155.922,173.7 156.088,173.864 158.5,176.113 161.048,178.25 163.717,180.271 166.494,182.173 169.364,183.953 172.313,185.609 175.327,187.141 178.391,188.548 181.492,189.831 184.615,190.991 187.748,192.029 190.879,192.949 193.994,193.752 197.084,194.443 200.137,195.026 203.144,195.505 206.096,195.885 208.986,196.17 211.805,196.366 214.548,196.479 217.209,196.513 219.784,196.475 222.268,196.369 224.66,196.202 226.957,195.978 229.157,195.704 231.259,195.384 233.263,195.023 235.17,194.626 236.98,194.198 238.694,193.742 240.313,193.264 241.841,192.766 243.279,192.253 244.629,191.728 245.895,191.194 247.079,190.654 248.184,190.11 249.214,189.565 250.171,189.021 251.059,188.481 251.881,187.945 252.64,187.415 253.34,186.893 253.984,186.38 254.575,185.877 255.115,185.385 255.609,184.904 256.058,184.435 256.466,183.979 256.836,183.536 257.169,183.107 257.468,182.69 257.736,182.288 257.975,181.899 258.187,181.524 258.374,181.162 258.538,180.814 258.681,180.479 258.804,180.157 258.909,179.848 258.998,179.551 259.072,179.267 259.132,178.995 259.179,178.734 259.215,178.485 259.241,178.246 259.257,178.019 259.265,177.801 259.265,177.594 259.259,177.396 259.246,177.207 259.229,177.027 259.206,176.856 259.179,176.693 259.149,176.538 259.115,176.39 259.079,176.25 259.04,176.116 259,175.989 258.957,175.869 258.914,175.754 258.869,175.645 258.824,175.542 258.777,175.444 258.731,175.351 258.684,175.263 258.638,175.179 258.591,175.1 258.545,175.025 258.499,174.953 258.453,174.886 258.409,174.822 258.364,174.761 258.321,174.704 258.278,174.649 258.236,174.598 258.195,174.549 258.154,174.503 258.115,174.459 258.076,174.417 258.039,174.378 258.002,174.341 257.967,174.306 257.932,174.273 257.898,174.241 257.866,174.212 257.834,174.184 257.803,174.157 257.773,174.132 257.744,174.108 257.716,174.086 257.689,174.064 257.663,174.044 257.638,174.025 257.613,174.007 257.59,173.99 257.567,173.974 257.545,173.959 257.523,173.945 257.503,173.931 257.483,173.918 257.464,173.906 257.446,173.895 257.428,173.884 257.411,173.874 257.395,173.864 257.379,173.855 257.364,173.847 257.349,173.838 257.335,173.831 257.322,173.823 257.309,173.817 257.296,173.81 257.284,173.804 257.273,173.798 257.262,173.793 257.251,173.788 257.241,173.783 257.231,173.778 257.222,173.774 257.213,173.77 257.204,173.766 257.196,173.762 257.188,173.759 257.18,173.755 257.173,173.752 257.166,173.749 257.159,173.747 257.152,173.744 257.146,173.742 257.14,173.739 257.135,173.737 257.129,173.735 257.124,173.733 257.119,173.731 257.114,173.729 257.11,173.728 257.105,173.726 257.101,173.725 257.097,173.723 257.093,173.722 257.089,173.721 257.086,173.72 257.082,173.719 257.079,173.718 257.076,173.717 257.073,173.716 257.07,173.715 257.068,173.714 257.065,173.713 257.062,173.712 257.06,173.712 257.058,173.711 257.056,173.71 257.053,173.71 257.051,173.709 257.05,173.709 257.048,173.708 257.046,173.708 257.044,173.707 257.043,173.707 257.041,173.707 257.04,173.706 257.038,173.706 257.037,173.706 257.036,173.705 257.034,173.705 257.033,173.705 257.032,173.704 257.031,173.704 257.03,173.704 257.029,173.704 257.028,173.704 257.027,173.703 257.026,173.703 257.026,173.703 257.025,173.703 257.024,173.703 257.023,173.702 257.023,173.702 257.022,173.702 257.021,173.702 257.021,173.702 257.02,173.702 257.02,173.702 257.019,173.702 257.019,173.702 257.018,173.701 257.018,173.701 257.017,173.701 257.017,173.701 257.016,173.701 257.016,173.701 257.016,173.701 257.015,173.701 257.015,173.701 257.015,173.701 257.014,173.701 257.014,173.701 257.014,173.701 257.014,173.701 257.013,173.701 257.013,173.701 257.013,173.701 257.013,173.701 257.012,173.701 257.012,173.701 257.012,173.7 257.012,173.7 257.012,173.7 257.011,173.7 257.011,173.7 257.011,173.7 257.011,173.7 257.011,173.7 257.011,173.7 257.011,173.7 257.01,173.7 257.01,173.7 257.01,173.7 257.01,173.7 257.01,173.7 257.01,173.7 257.01,173.7 257.01,173.7 257.01,173.7 257.01,173.7 257.01,173.7 257.009,173.7 257.009,173.7 257.009,173.7 257.009,173.7 257.009,173.7 257.009,173.7 257.009,173.7 257.009,173.7 257.009,173.7 257.009,173.7 257.009,173.7 257.009,173.7 257.009,173.7 257.009,173.7 257.009,173.7 257.009,173.7 257.009,173.7 257.009,173.7 257.009,173.7 257.009,173.7 257.009,173.7 257.008,173.7 257.008,173.7 257.008,173.7 257.008,173.7 257.008,173.7 257.008,173.7 257.008,173.7 257.008,173.7 257.008,173.7 257.008,173.7 257.008,173.7 257.008,173.7 257.008,173.7 257.008,173.7 257.008,173.7 257.008,173.7 257.008,173.7 257.008,173.7 257.008,173.7 257.008,173.7 257.008,173.7 257.008,173.7 257.008,173.7 257.008,173.7 257.008,173.7 257.008,173.7 257.008,173.7 257.008,173.7 257.008,173.7 257.008,173.7 257.008,173.7 257.008,173.7 257.008,173.7 257.008,173.7 257.008,173.7 257.008,173.7 257.008,173.7 257.008,173.7 257.008,173.7 257.008,173.7 257.008,173.7 257.008,173.7 257.008,173.7 257.008,173.7 257.008,173.7 257.008,173.7 257.008,173.7 257.008,173.7 257.008,173.7 257.008,173.7 257.008,173.7 257.008,173.7 257.008,173.7 257.008,173.7 257.008,173.7 257.008,173.7 257.008,173.7 257.008,173.7 257.008,173.7 257.008,173.7 257.008,173.7 257.008,173.7 257.008,173.7 257.008,173.7 257.008,173.7 257.008,173.7 257.008,173.7 257.008,173.7 257.008,173.7 257.008,173.7 257.008,173.7 257.008,173.7 257.008,173.7 257.008,173.7 257.008,173.7 257.008,173.7 257.008,173.7 257.008,173.7 257.008,173.7 257.008,173.7 257.008,173.7 257.008,173.7 257.008,173.7 257.008,173.7 257.008,173.7 257.008,173.7 257.008,173.7 257.008,173.7 257.008,173.7 257.008,173.7 257.008,173.7 257.008,173.7 257.008,173.7 257.008,173.7 257.008,173.7 257.008,173.7 257.008,173.7 257.008,173.7 257.008,173.7 257.008,173.7 257.008,173.7 257.008,173.7 257.008,173.7 257.008,173.7 257.008,173.7 257.008,173.7 257.008,173.7 257.008,173.7 257.008,173.7 257.008,173.7 257.008,173.7 257.008,173.7 257.008,173.7 257.008,173.7 257.008,173.7 257.008,173.7 257.008,173.7 257.008,173.7 257.008,173.7 257.008,173.7 257.008,173.7 257.008,173.7 257.008,173.7 257.008,173.7 257.008,173.7 257.008,173.7 257.008,173.7 257.008,173.7 257.008,173.7 257.008,173.7 257.008,173.7 257.008,173.7 257.008,173.7 257.008,173.7 257.008,173.7 257.008,173.7 257.008,173.7 257.008,173.7 257.008,173.7 257.008,173.7 257.008,173.7 257.008,173.7 257.008,173.7 257.008,173.7 257.008,173.7 257.008,173.7 257.008,173.7 257.008,173.7 257.008,173.7 257.008,173.7 257.008,173.7 257.008,173.7 257.008,173.7 257.008,173.7 257.008,173.7 257.008,173.7 257.008,173.7 257.008,173.7 257.008,173.7 257.008,173.7 257.008,173.7 257.008,173.7 257.008,173.7 257.008,173.7 257.008,173.7 257.008,173.7 257.008,173.7 257.008,173.7 257.008,173.7 257.008,173.7 257.008,173.7 257.008,173.7 257.008,173.7 257.008,173.7 257.008,173.7 257.008,173.7 257.008,173.7 257.008,173.7 257.008,173.7 257.008,173.7 257.008,173.7 257.008,173.7 257.008,173.7 257.008,173.7 257.008,173.7 257.008,173.7 257.008,173.7 257.008,173.7 257.008,173.7 257.008,173.7 257.008,173.7 257.008,173.7 257.008,173.7 257.008,173.7 257.008,173.7 257.008,173.7 257.008,173.7 257.008,173.7 257.008,173.7 257.008,173.7 257.008,173.7 257.008,173.7 257.008,173.7 257.008,173.7 257.008,173.7 257.008,173.7 257.008,173.7 257.008,173.7 257.008,173.7 257.008,173.7 257.008,173.7 257.008,173.7 257.008,173.7 257.008,173.7 257.008,173.7 257.008,173.7 257.008,173.7 257.008,173.7 257.008,173.7 257.008,173.7 257.008,173.7 257.008,173.7 257.008,173.7 257.008,173.7 257.008,173.7 257.008,173.7 257.008,173.7 257.008,173.7 257.008,173.7 257.008,173.7 257.008,173.7 257.008,173.7 257.008,173.7 257.008,173.7" stroke="#0071bc" stroke-dasharray="8,3,2,3" stroke-linecap="butt" stroke-linejoin="round" stroke-width="0.5"/>
   <polyline fill="none" points="417.491,173.038 417.491,173.031 417.491,173.023 417.491,173.015 417.491,173.007 417.491,172.999 417.491,172.991 417.491,172.983 417.491,172.974 417.491,172.966 417.491,172.957 417.49,172.949 417.49,172.94 417.49,172.931 417.49,172.922 417.49,172.913 417.49,172.904 417.49,172.895 417.49,172.886 417.49,172.876 417.49,172.867 417.49,172.857 417.49,172.847 417.49,172.837 417.49,172.827 417.49,172.817 417.49,172.807 417.489,172.797 417.489,172.786 417.489,172.776 417.489,172.765 417.489,172.754 417.489,172.743 417.489,172.732 417.489,172.721 417.489,172.71 417.489,172.698 417.489,172.686 417.489,172.675 417.488,172.663 417.488,172.651 417.488,172.639 417.488,172.626 417.488,172.614 417.488,172.601 417.488,172.589 417.488,172.576 417.488,172.563 417.488,172.549 417.487,172.536 417.487,172.523 417.487,172.509 417.487,172.495 417.487,172.481 417.487,172.467 417.487,172.453 417.487,172.438 417.486,172.424 417.486,172.409 417.486,172.394 417.486,172.379 417.486,172.363 417.486,172.348 417.485,172.332 417.485,172.316 417.485,172.3 417.485,172.284 417.485,172.268 417.485,172.251 417.484,172.234 417.484,172.217 417.484,172.2 417.484,172.183 417.484,172.165 417.483,172.147 417.483,172.129 417.483,172.111 417.483,172.093 417.482,172.074 417.482,172.055 417.482,172.036 417.482,172.017 417.482,171.997 417.481,171.978 417.481,171.958 417.481,171.938 417.48,171.917 417.48,171.896 417.48,171.875 417.48,171.854 417.479,171.833 417.479,171.811 417.479,171.789 417.478,171.767 417.478,171.745 417.478,171.722 417.477,171.699 417.477,171.676 417.477,171.653 417.476,171.629 417.476,171.605 417.475,171.581 417.475,171.556 417.475,171.531 417.474,171.506 417.474,171.481 417.473,171.455 417.473,171.429 417.472,171.402 417.472,171.376 417.471,171.349 417.471,171.322 417.47,171.294 417.47,171.266 417.469,171.238 417.469,171.209 417.468,171.18 417.468,171.151 417.467,171.122 417.467,171.092 417.466,171.062 417.465,171.031 417.465,171 417.464,170.969 417.463,170.937 417.463,170.905 417.462,170.873 417.461,170.84 417.461,170.807 417.46,170.773 417.459,170.739 417.458,170.705 417.457,170.67 417.457,170.635 417.456,170.599 417.455,170.563 417.454,170.527 417.453,170.49 417.452,170.453 417.451,170.415 417.45,170.377 417.449,170.339 417.448,170.3 417.447,170.26 417.446,170.22 417.445,170.18 417.444,170.139 417.443,170.098 417.442,170.056 417.441,170.014 417.439,169.971 417.438,169.928 417.437,169.884 417.436,169.84 417.434,169.795 417.433,169.75 417.431,169.704 417.43,169.658 417.429,169.611 417.427,169.563 417.425,169.515 417.424,169.467 417.422,169.418 417.421,169.368 417.419,169.318 417.417,169.267 417.415,169.215 417.414,169.163 417.412,169.111 417.41,169.057 417.408,169.004 417.406,168.949 417.404,168.894 417.402,168.838 417.4,168.782 417.398,168.725 417.395,168.667 417.393,168.608 417.391,168.549 417.388,168.49 417.386,168.429 417.384,168.368 417.381,168.306 417.378,168.243 417.376,168.18 417.373,168.116 417.37,168.051 417.367,167.985 417.364,167.919 417.361,167.852 417.358,167.784 417.355,167.715 417.352,167.646 417.349,167.576 417.345,167.504 417.342,167.432 417.338,167.36 417.335,167.286 417.331,167.212 417.327,167.136 417.323,167.06 417.319,166.983 417.315,166.905 417.311,166.826 417.307,166.746 417.303,166.665 417.298,166.583 417.294,166.501 417.289,166.417 417.284,166.332 417.279,166.247 417.274,166.16 417.269,166.072 417.264,165.984 417.259,165.894 417.253,165.803 417.247,165.711 417.242,165.618 417.236,165.524 417.23,165.429 417.224,165.333 417.217,165.236 417.211,165.137 417.204,165.038 417.197,164.937 417.19,164.835 417.183,164.732 417.176,164.627 417.169,164.522 417.161,164.415 417.153,164.307 417.145,164.197 417.137,164.087 417.129,163.975 417.12,163.861 417.111,163.747 417.102,163.631 417.093,163.513 417.084,163.395 417.074,163.274 417.064,163.153 417.054,163.03 417.044,162.906 417.033,162.78 417.022,162.652 417.011,162.523 417,162.393 416.988,162.261 416.976,162.127 416.964,161.992 416.951,161.856 416.939,161.717 416.925,161.577 416.912,161.436 416.898,161.293 416.884,161.148 416.87,161.001 416.855,160.852 416.84,160.702 416.824,160.55 416.808,160.396 416.792,160.241 416.776,160.083 416.759,159.924 416.741,159.763 416.723,159.599 416.705,159.434 416.686,159.267 416.667,159.098 416.647,158.927 416.627,158.754 416.606,158.579 416.585,158.401 416.563,158.222 416.541,158.04 416.518,157.856 416.495,157.67 416.471,157.482 416.447,157.291 416.422,157.098 416.396,156.903 416.37,156.706 416.343,156.506 416.315,156.303 416.287,156.099 416.258,155.891 416.228,155.682 416.197,155.469 416.166,155.254 416.134,155.037 416.101,154.816 416.068,154.594 416.033,154.368 415.998,154.14 415.962,153.908 415.924,153.674 415.886,153.438 415.847,153.198 415.807,152.955 415.766,152.709 415.724,152.461 415.681,152.209 415.637,151.954 415.591,151.696 415.545,151.434 415.497,151.17 415.448,150.902 415.398,150.631 415.346,150.356 415.293,150.078 415.239,149.797 415.184,149.512 415.126,149.223 415.068,148.931 415.008,148.635 414.946,148.336 414.883,148.032 414.818,147.725 414.751,147.414 414.683,147.099 414.613,146.78 414.541,146.457 414.467,146.129 414.391,145.798 414.313,145.462 414.233,145.122 414.151,144.778 414.066,144.429 413.98,144.076 413.89,143.718 413.799,143.355 413.705,142.988 413.609,142.616 413.509,142.239 413.408,141.857 413.303,141.47 413.195,141.078 413.085,140.681 412.971,140.279 412.854,139.871 412.734,139.458 412.611,139.04 412.484,138.616 412.353,138.186 412.219,137.75 412.081,137.309 411.939,136.861 411.793,136.408 411.642,135.949 411.488,135.483 411.329,135.011 411.165,134.532 410.996,134.047 410.823,133.556 410.644,133.057 410.46,132.552 410.271,132.04 410.076,131.521 409.875,130.994 409.668,130.46 409.455,129.919 409.235,129.37 409.009,128.814 408.776,128.249 408.535,127.677 408.288,127.097 408.032,126.508 407.769,125.911 407.497,125.306 407.217,124.692 406.928,124.069 406.63,123.437 406.322,122.797 406.005,122.147 405.677,121.487 405.339,120.819 404.99,120.14 404.63,119.452 404.257,118.754 403.873,118.045 403.476,117.327 403.065,116.598 402.641,115.858 402.203,115.107 401.75,114.346 401.282,113.573 400.798,112.789 400.297,111.994 399.78,111.187 399.244,110.369 398.69,109.538 398.117,108.695 397.523,107.84 396.909,106.973 396.274,106.093 395.615,105.2 394.934,104.295 394.228,103.376 393.497,102.445 392.739,101.5 391.954,100.541 391.141,99.5692 390.298,98.5837 389.424,97.5845 388.518,96.5714 387.578,95.5446 386.604,94.5038 385.593,93.4491 384.544,92.3804 383.457,91.2978 382.328,90.2013 381.157,89.0909 379.941,87.9668 378.679,86.829 377.369,85.6778 376.009,84.5132 374.596,83.3356 373.13,82.1452 371.607,80.9424 370.025,79.7274 368.382,78.5009 366.675,77.2632 364.902,76.015 363.06,74.7568 361.147,73.4896 359.159,72.214 357.094,70.931 354.948,69.6416 352.719,68.347 350.403,67.0484 347.997,65.7473 345.498,64.4451 342.902,63.1435 340.206,61.8445 337.407,60.55 334.5,59.2621 331.483,57.9835 328.352,56.7166 325.102,55.4644 321.731,54.2298 318.235,53.0163 314.611,51.8275 310.854,50.6672 306.963,49.5396 302.933,48.4493 298.763,47.401 294.448,46.4 289.988,45.4516 285.38,44.5618 280.622,43.7368 275.714,42.9832 270.655,42.3079 265.444,41.7183 260.083,41.222 254.574,40.8271 248.919,40.542 243.12,40.3754 237.184,40.3364 231.115,40.4341 224.92,40.678 218.608,41.0777 212.189,41.643 205.674,42.3835 199.077,43.3089 192.412,44.4286 185.696,45.7519 178.948,47.2874 172.189,49.0433 165.44,51.0271 158.727,53.2455 152.077,55.7039 145.517,58.4068 139.078,61.3571 132.79,64.5562 126.688,68.0036 120.806,71.6971 115.177,75.6323 109.837,79.8025 104.822,84.1987 100.166,88.8095 95.9029,93.6211 92.0659,98.6169 88.6851,103.778 85.7886,109.083 83.4013,114.509 81.5447,120.031 80.236,125.62 79.4882,131.248 79.3091,136.885 79.7016,142.501 80.663,148.065 82.1853,153.544 84.255,158.91 86.8532,164.133 89.9559,169.184 93.2647,173.7 93.2647,173.7 93.5344,174.038 97.5557,178.672 101.983,183.063 106.776,187.193 111.892,191.048 117.288,194.615 122.916,197.885 128.733,200.853 134.691,203.516 140.747,205.875 146.857,207.934 152.98,209.698 159.077,211.178 165.113,212.383 171.056,213.327 176.875,214.023 182.544,214.487 188.043,214.735 193.351,214.784 198.454,214.65 203.338,214.352 207.996,213.906 212.42,213.328 216.608,212.635 220.557,211.842 224.269,210.963 227.747,210.013 230.994,209.005 234.017,207.949 236.822,206.857 239.418,205.74 241.813,204.605 244.015,203.462 246.034,202.317 247.881,201.176 249.563,200.046 251.092,198.93 252.477,197.834 253.728,196.76 254.852,195.712 255.861,194.691 256.761,193.7 257.561,192.74 258.269,191.812 258.893,190.917 259.439,190.056 259.914,189.227 260.324,188.432 260.675,187.671 260.972,186.942 261.22,186.245 261.424,185.58 261.589,184.945 261.718,184.34 261.815,183.765 261.883,183.217 261.926,182.697 261.946,182.202 261.946,181.733 261.928,181.288 261.894,180.866 261.847,180.466 261.788,180.087 261.72,179.728 261.642,179.389 261.557,179.067 261.466,178.764 261.37,178.477 261.269,178.205 261.166,177.949 261.06,177.707 260.952,177.478 260.843,177.262 260.733,177.059 260.623,176.866 260.514,176.685 260.405,176.514 260.297,176.352 260.19,176.2 260.085,176.056 259.981,175.921 259.879,175.793 259.78,175.672 259.682,175.559 259.587,175.452 259.494,175.351 259.403,175.256 259.315,175.166 259.229,175.082 259.145,175.002 259.064,174.927 258.986,174.857 258.909,174.79 258.836,174.727 258.764,174.668 258.695,174.612 258.629,174.56 258.564,174.51 258.502,174.464 258.442,174.42 258.384,174.378 258.328,174.339 258.274,174.303 258.223,174.268 258.173,174.235 258.125,174.205 258.079,174.176 258.034,174.148 257.992,174.123 257.951,174.098 257.911,174.076 257.873,174.054 257.837,174.034 257.802,174.015 257.768,173.997 257.736,173.98 257.705,173.964 257.675,173.949 257.647,173.934 257.62,173.921 257.593,173.908 257.568,173.896 257.544,173.885 257.521,173.875 257.499,173.865 257.478,173.855 257.458,173.846 257.438,173.838 257.419,173.83 257.402,173.823 257.384,173.816 257.368,173.809 257.352,173.803 257.337,173.797 257.323,173.792 257.309,173.786 257.296,173.781 257.283,173.777 257.271,173.772 257.26,173.768 257.249,173.764 257.238,173.761 257.228,173.757 257.218,173.754 257.209,173.751 257.2,173.748 257.192,173.745 257.184,173.743 257.176,173.74 257.169,173.738 257.161,173.736 257.155,173.734 257.148,173.732 257.142,173.73 257.136,173.728 257.13,173.727 257.125,173.725 257.12,173.724 257.115,173.723 257.11,173.721 257.105,173.72 257.101,173.719 257.097,173.718 257.093,173.717 257.089,173.716 257.086,173.715 257.082,173.714 257.079,173.713 257.076,173.713 257.073,173.712 257.07,173.711 257.067,173.711 257.064,173.71 257.062,173.709 257.059,173.709 257.057,173.708 257.055,173.708 257.053,173.707 257.051,173.707 257.049,173.707 257.047,173.706 257.045,173.706 257.044,173.706 257.042,173.705 257.041,173.705 257.039,173.705 257.038,173.704 257.036,173.704 257.035,173.704 257.034,173.704 257.033,173.704 257.032,173.703 257.031,173.703 257.03,173.703 257.029,173.703 257.028,173.703 257.027,173.702 257.026,173.702 257.025,173.702 257.024,173.702 257.024,173.702 257.023,173.702 257.022,173.702 257.022,173.702 257.021,173.702 257.02,173.701 257.02,173.701 257.019,173.701 257.019,173.701 257.018,173.701 257.018,173.701 257.017,173.701 257.017,173.701 257.017,173.701 257.016,173.701 257.016,173.701 257.015,173.701 257.015,173.701 257.015,173.701 257.014,173.701 257.014,173.701 257.014,173.701 257.014,173.701 257.013,173.701 257.013,173.701 257.013,173.7 257.013,173.7 257.012,173.7 257.012,173.7 257.012,173.7 257.012,173.7 257.012,173.7 257.012,173.7 257.011,173.7 257.011,173.7 257.011,173.7 257.011,173.7 257.011,173.7 257.011,173.7 257.011,173.7 257.01,173.7 257.01,173.7 257.01,173.7 257.01,173.7 257.01,173.7 257.01,173.7 257.01,173.7 257.01,173.7 257.01,173.7 257.01,173.7 257.009,173.7 257.009,173.7 257.009,173.7 257.009,173.7 257.009,173.7 257.009,173.7 257.009,173.7 257.009,173.7 257.009,173.7 257.009,173.7 257.009,173.7 257.009,173.7 257.009,173.7 257.009,173.7 257.009,173.7 257.009,173.7 257.009,173.7 257.009,173.7 257.009,173.7 257.009,173.7 257.009,173.7 257.009,173.7 257.008,173.7 257.008,173.7 257.008,173.7 257.008,173.7 257.008,173.7 257.008,173.7 257.008,173.7 257.008,173.7 257.008,173.7 257.008,173.7 257.008,173.7 257.008,173.7 257.008,173.7 257.008,173.7 257.008,173.7 257.008,173.7 257.008,173.7 257.008,173.7 257.008,173.7 257.008,173.7 257.008,173.7 257.008,173.7 257.008,173.7 257.008,173.7 257.008,173.7 257.008,173.7 257.008,173.7 257.008,173.7 257.008,173.7 257.008,173.7 257.008,173.7 257.008,173.7 257.008,173.7 257.008,173.7 257.008,173.7 257.008,173.7 257.008,173.7 257.008,173.7 257.008,173.7 257.008,173.7 257.008,173.7 257.008,173.7 257.008,173.7 257.008,173.7 257.008,173.7 257.008,173.7 257.008,173.7 257.008,173.7 257.008,173.7 257.008,173.7 257.008,173.7 257.008,173.7 257.008,173.7 257.008,173.7 257.008,173.7 257.008,173.7 257.008,173.7 257.008,173.7 257.008,173.7 257.008,173.7 257.008,173.7 257.008,173.7 257.008,173.7 257.008,173.7 257.008,173.7 257.008,173.7 257.008,173.7 257.008,173.7 257.008,173.7 257.008,173.7 257.008,173.7 257.008,173.7 257.008,173.7 257.008,173.7 257.008,173.7 257.008,173.7 257.008,173.7 257.008,173.7 257.008,173.7 257.008,173.7 257.008,173.7 257.008,173.7 257.008,173.7 257.008,173.7 257.008,173.7 257.008,173.7 257.008,173.7 257.008,173.7 257.008,173.7 257.008,173.7 257.008,173.7 257.008,173.7 257.008,173.7 257.008,173.7 257.008,173.7 257.008,173.7 257.008,173.7 257.008,173.7 257.008,173.7 257.008,173.7 257.008,173.7 257.008,173.7 257.008,173.7 257.008,173.7 257.008,173.7 257.008,173.7 257.008,173.7 257.008,173.7 257.008,173.7 257.008,173.7 257.008,173.7 257.008,173.7 257.008,173.7 257.008,173.7 257.008,173.7 257.008,173.7 257.008,173.7 257.008,173.7 257.008,173.7 257.008,173.7 257.008,173.7 257.008,173.7 257.008,173.7 257.008,173.7 257.008,173.7 257.008,173.7 257.008,173.7 257.008,173.7 257.008,173.7 257.008,173.7 257.008,173.7 257.008,173.7 257.008,173.7 257.008,173.7 257.008,173.7 257.008,173.7 257.008,173.7 257.008,173.7 257.008,173.7 257.008,173.7 257.008,173.7 257.008,173.7 257.008,173.7 257.008,173.7 257.008,173.7 257.008,173.7 257.008,173.7 257.008,173.7 257.008,173.7 257.008,173.7 257.008,173.7 257.008,173.7 257.008,173.7 257.008,173.7 257.008,173.7 257.008,173.7 257.008,173.7 257.008,173.7 257.008,173.7 257.008,173.7 257.008,173.7 257.008,173.7 257.008,173.7 257.008,173.7 257.008,173.7 257.008,173.7 257.008,173.7 257.008,173.7 257.008,173.7 257.008,173.7 257.008,173.7 257.008,173.7 257.008,173.7 257.008,173.7 257.008,173.7 257.008,173.7 257.008,173.7 257.008,173.7 257.008,173.7 257.008,173.7 257.008,173.7 257.008,173.7 257.008,173.7 257.008,173.7 257.008,173.7 257.008,173.7 257.008,173.7 257.008,173.7 257.008,173.7 257.008,173.7 257.008,173.7 257.008,173.7 257.008,173.7 257.008,173.7 257.008,173.7 257.008,173.7 257.008,173.7 257.008,173.7 257.008,173.7 257.008,173.7 257.008,173.7 257.008,173.7 257.008,173.7 257.008,173.7 257.008,173.7 257.008,173.7 257.008,173.7 257.008,173.7 257.008,173.7 257.008,173.7 257.008,173.7 257.008,173.7 257.008,173.7 257.008,173.7 257.008,173.7 257.008,173.7 257.008,173.7 257.008,173.7 257.008,173.7 257.008,173.7 257.008,173.7 257.008,173.7 257.008,173.7 257.008,173.7 257.008,173.7 257.008,173.7 257.008,173.7 257.008,173.7 257.008,173.7 257.008,173.7 257.008,173.7 257.008,173.7 257.008,173.7" stroke="#d85218" stroke-dasharray="8,3,2,3" stroke-linecap="butt" stroke-linejoin="round" stroke-width="0.5"/>
   <polyline fill="none" points="120.271,173.7 126.271,173.7" stroke="#ff0000" stroke-linecap="square" stroke-linejoin="miter" stroke-width="0.5"/>
   <polyline fill="none" points="123.271,170.7 123.271,176.7" stroke="#ff0000" stroke-linecap="square" stroke-linejoin="miter" stroke-width="0.5"/>
  </g>
  <clipPath id="cp00480360">
   <polygon points="0,360 480,360 480,0 0,0"/>
  </clipPath>
  <g clip-path="url(#cp00480360)">
   <polygon fill="#ffffff" points="382.347,69.0263 426.389,69.0263 426.389,35.0105 382.347,35.0105" shape-rendering="crispEdges"/>
   <polyline fill="none" points="382.347,69.0263 426.389,69.0263" stroke="#262626" stroke-dasharray="16,0" stroke-linecap="square" stroke-linejoin="miter" stroke-width="0.5"/>
   <polyline fill="none" points="382.347,35.0105 426.389,35.0105" stroke="#262626" stroke-dasharray="16,0" stroke-linecap="square" stroke-linejoin="miter" stroke-width="0.5"/>
   <polyline fill="none" points="382.347,69.0263 382.347,35.0105" stroke="#262626" stroke-dasharray="16,0" stroke-linecap="square" stroke-linejoin="miter" stroke-width="0.5"/>
   <polyline fill="none" points="426.389,69.0263 426.389,35.0105" stroke="#262626" stroke-dasharray="16,0" stroke-linecap="square" stroke-linejoin="miter" stroke-width="0.5"/>
   <polyline fill="none" points="386.353,44.5158 406.379,44.5158" stroke="#0071bc" stroke-linecap="butt" stroke-linejoin="round" stroke-width="0.5"/>
   <g font-family="FreeSans" font-size="10.4862" font-style="normal" font-weight="normal" transform="translate(410.384,50.0158) rotate(-0,-0,-5.5)" xml:space="preserve">
    <text fill="rgb(0,0,0)" x="0 " y="-2">G</text>
    <text fill="rgb(0,0,0)" font-size="7.34034" x="8 " y="-0">1</text>
   </g>
   <polyline fill="none" points="386.353,59.5211 406.379,59.5211" stroke="#d85218" stroke-linecap="butt" stroke-linejoin="round" stroke-width="0.5"/>
   <g font-family="FreeSans" font-size="10.4862" font-style="normal" font-weight="normal" transform="translate(410.384,65.0211) rotate(-0,-0,-5.5)" xml:space="preserve">
    <text fill="rgb(0,0,0)" x="0 " y="-2">G</text>
    <text fill="rgb(0,0,0)" font-size="7.34034" x="8 " y="-0">2</text>
   </g>
  </g>
 </g>
</svg>
