<?xml version='1.0' encoding='UTF-8' standalone='no'?>
<svg height="360pt" viewBox="0 0 480 360" width="480pt" xmlns="http://www.w3.org/2000/svg" xmlns:xlink="http://www.w3.org/1999/xlink">
 <title>Figure 1</title>
 <desc>
Creator: GL2PS 1.4.2, (C) 1999-2020 C. Geuzaine
For: Octave
CreationDate: Sun Feb 15 22:27:20 2026
</desc>
 <defs/>
 <polygon fill="#ffffff" points="0,0 480,0 480,360 0,360"/>
 <g>
  <polygon fill="#ffffff" points="0,360 480,360 480,0 0,0" shape-rendering="crispEdges"/>
  <clipPath id="cp00480360">
   <polygon points="0,360 480,360 480,0 0,0"/>
  </clipPath>
  <g clip-path="url(#cp00480360)">
   <polygon fill="#ffffff" points="62.4,320.4 434.4,320.4 434.4,27 62.4,27" shape-rendering="crispEdges"/>
   <polyline fill="none" points="79.3091,320.4 79.3091,27" stroke="#262626" stroke-dasharray="16,0" stroke-linecap="butt" stroke-linejoin="miter" stroke-opacity="0.15" stroke-width="0.5"/>
   <polyline fill="none" points="133.418,320.4 133.418,27" stroke="#262626" stroke-dasharray="16,0" stroke-linecap="butt" stroke-linejoin="miter" stroke-opacity="0.15" stroke-width="0.5"/>
   <polyline fill="none" points="187.527,320.4 187.527,27" stroke="#262626" stroke-dasharray="16,0" stroke-linecap="butt" stroke-linejoin="miter" stroke-opacity="0.15" stroke-width="0.5"/>
   <polyline fill="none" points="241.637,320.4 241.637,27" stroke="#262626" stroke-dasharray="16,0" stroke-linecap="butt" stroke-linejoin="miter" stroke-opacity="0.15" stroke-width="0.5"/>
   <polyline fill="none" points="295.746,320.4 295.746,27" stroke="#262626" stroke-dasharray="16,0" stroke-linecap="butt" stroke-linejoin="miter" stroke-opacity="0.15" stroke-width="0.5"/>
   <polyline fill="none" points="349.855,320.4 349.855,27" stroke="#262626" stroke-dasharray="16,0" stroke-linecap="butt" stroke-linejoin="miter" stroke-opacity="0.15" stroke-width="0.5"/>
   <polyline fill="none" points="403.964,320.4 403.964,27" stroke="#262626" stroke-dasharray="16,0" stroke-linecap="butt" stroke-linejoin="miter" stroke-opacity="0.15" stroke-width="0.5"/>
   <polyline fill="none" points="79.3091,320.4 79.3091,316.675" stroke="#262626" stroke-linecap="butt" stroke-linejoin="miter" stroke-width="0.5"/>
   <polyline fill="none" points="79.3091,27 79.3091,30.7251" stroke="#262626" stroke-linecap="butt" stroke-linejoin="miter" stroke-width="0.5"/>
   <polyline fill="none" points="133.418,320.4 133.418,316.675" stroke="#262626" stroke-linecap="butt" stroke-linejoin="miter" stroke-width="0.5"/>
   <polyline fill="none" points="133.418,27 133.418,30.7251" stroke="#262626" stroke-linecap="butt" stroke-linejoin="miter" stroke-width="0.5"/>
   <polyline fill="none" points="187.527,320.4 187.527,316.675" stroke="#262626" stroke-linecap="butt" stroke-linejoin="miter" stroke-width="0.5"/>
   <polyline fill="none" points="187.527,27 187.527,30.7251" stroke="#262626" stroke-linecap="butt" stroke-linejoin="miter" stroke-width="0.5"/>
   <polyline fill="none" points="241.637,320.4 241.637,316.675" stroke="#262626" stroke-linecap="butt" stroke-linejoin="miter" stroke-width="0.5"/>
   <polyline fill="none" points="241.637,27 241.637,30.7251" stroke="#262626" stroke-linecap="butt" stroke-linejoin="miter" stroke-width="0.5"/>
   <polyline fill="none" points="295.746,320.4 295.746,316.675" stroke="#262626" stroke-linecap="butt" stroke-linejoin="miter" stroke-width="0.5"/>
   <polyline fill="none" points="295.746,27 295.746,30.7251" stroke="#262626" stroke-linecap="butt" stroke-linejoin="miter" stroke-width="0.5"/>
   <polyline fill="none" points="349.855,320.4 349.855,316.675" stroke="#262626" stroke-linecap="butt" stroke-linejoin="miter" stroke-width="0.5"/>
   <polyline fill="none" points="349.855,27 349.855,30.7251" stroke="#262626" stroke-linecap="butt" stroke-linejoin="miter" stroke-width="0.5"/>
   <polyline fill="none" points="403.964,320.4 403.964,316.675" stroke="#262626" stroke-linecap="butt" stroke-linejoin="miter" stroke-width="0.5"/>
   <polyline fill="none" points="403.964,27 403.964,30.7251" stroke="#262626" stroke-linecap="butt" stroke-linejoin="miter" stroke-width="0.5"/>
   <g font-family="FreeSans" font-size="11.6513" font-style="normal" font-weight="normal" transform="translate(74.3091,339.15) rotate(-0,5,-10)" xml:space="preserve">
    <text fill="rgb(38,38,38)" x="0 4 " y="-0">-1</text>
   </g>
   <g font-family="FreeSans" font-size="11.6513" font-style="normal" font-weight="normal" transform="translate(123.918,339.15) rotate(-0,9.5,-10)" xml:space="preserve">
    <text fill="rgb(38,38,38)" x="0 4 10 13 " y="-0">-0.8</text>
   </g>
   <g font-family="FreeSans" font-size="11.6513" font-style="normal" font-weight="normal" transform="translate(178.027,339.15) rotate(-0,9.5,-10)" xml:space="preserve">
    <text fill="rgb(38,38,38)" x="0 4 10 13 " y="-0">-0.6</text>
   </g>
   <g font-family="FreeSans" font-size="11.6513" font-style="normal" font-weight="normal" transform="translate(232.137,339.15) rotate(-0,9.5,-10)" xml:space="preserve">
    <text fill="rgb(38,38,38)" x="0 4 10 13 " y="-0">-0.4</text>
   </g>
   <g font-family="FreeSans" font-size="11.6513" font-style="normal" font-weight="normal" transform="translate(286.246,339.15) rotate(-0,9.5,-10)" xml:space="preserve">
    <text fill="rgb(38,38,38)" x="0 4 10 13 " y="-0">-0.2</text>
   </g>
   <g font-family="FreeSans" font-size="11.6513" font-style="normal" font-weight="normal" transform="translate(346.855,339.15) rotate(-0,3,-10)" xml:space="preserve">
    <text fill="rgb(38,38,38)" x="0 " y="-0">0</text>
   </g>
   <g font-family="FreeSans" font-size="11.6513" font-style="normal" font-weight="normal" transform="translate(396.464,339.15) rotate(-0,7.5,-10)" xml:space="preserve">
    <text fill="rgb(38,38,38)" x="0 6 9 " y="-0">0.2</text>
   </g>
   <polyline fill="none" points="62.4,278.955 434.4,278.955" stroke="#262626" stroke-dasharray="16,0" stroke-linecap="butt" stroke-linejoin="miter" stroke-opacity="0.15" stroke-width="0.5"/>
   <polyline fill="none" points="62.4,226.327 434.4,226.327" stroke="#262626" stroke-dasharray="16,0" stroke-linecap="butt" stroke-linejoin="miter" stroke-opacity="0.15" stroke-width="0.5"/>
   <polyline fill="none" points="62.4,173.7 434.4,173.7" stroke="#262626" stroke-dasharray="16,0" stroke-linecap="butt" stroke-linejoin="miter" stroke-opacity="0.15" stroke-width="0.5"/>
   <polyline fill="none" points="62.4,121.073 434.4,121.073" stroke="#262626" stroke-dasharray="16,0" stroke-linecap="butt" stroke-linejoin="miter" stroke-opacity="0.15" stroke-width="0.5"/>
   <polyline fill="none" points="62.4,68.4453 434.4,68.4453" stroke="#262626" stroke-dasharray="16,0" stroke-linecap="butt" stroke-linejoin="miter" stroke-opacity="0.15" stroke-width="0.5"/>
   <polyline fill="none" points="62.4,278.955 66.12,278.955" stroke="#262626" stroke-linecap="butt" stroke-linejoin="miter" stroke-width="0.5"/>
   <polyline fill="none" points="434.4,278.955 430.68,278.955" stroke="#262626" stroke-linecap="butt" stroke-linejoin="miter" stroke-width="0.5"/>
   <polyline fill="none" points="62.4,226.327 66.12,226.327" stroke="#262626" stroke-linecap="butt" stroke-linejoin="miter" stroke-width="0.5"/>
   <polyline fill="none" points="434.4,226.327 430.68,226.327" stroke="#262626" stroke-linecap="butt" stroke-linejoin="miter" stroke-width="0.5"/>
   <polyline fill="none" points="62.4,173.7 66.12,173.7" stroke="#262626" stroke-linecap="butt" stroke-linejoin="miter" stroke-width="0.5"/>
   <polyline fill="none" points="434.4,173.7 430.68,173.7" stroke="#262626" stroke-linecap="butt" stroke-linejoin="miter" stroke-width="0.5"/>
   <polyline fill="none" points="62.4,121.073 66.12,121.073" stroke="#262626" stroke-linecap="butt" stroke-linejoin="miter" stroke-width="0.5"/>
   <polyline fill="none" points="434.4,121.073 430.68,121.073" stroke="#262626" stroke-linecap="butt" stroke-linejoin="miter" stroke-width="0.5"/>
   <polyline fill="none" points="62.4,68.4453 66.12,68.4453" stroke="#262626" stroke-linecap="butt" stroke-linejoin="miter" stroke-width="0.5"/>
   <polyline fill="none" points="434.4,68.4453 430.68,68.4453" stroke="#262626" stroke-linecap="butt" stroke-linejoin="miter" stroke-width="0.5"/>
   <g font-family="FreeSans" font-size="11.6513" font-style="normal" font-weight="normal" transform="translate(37.5743,283.955) rotate(-0,19,-5)" xml:space="preserve">
    <text fill="rgb(38,38,38)" x="0 4 10 13 " y="-0">-0.2</text>
   </g>
   <g font-family="FreeSans" font-size="11.6513" font-style="normal" font-weight="normal" transform="translate(37.5743,231.327) rotate(-0,19,-5)" xml:space="preserve">
    <text fill="rgb(38,38,38)" x="0 4 10 13 " y="-0">-0.1</text>
   </g>
   <g font-family="FreeSans" font-size="11.6513" font-style="normal" font-weight="normal" transform="translate(50.5743,178.7) rotate(-0,6,-5)" xml:space="preserve">
    <text fill="rgb(38,38,38)" x="0 " y="-0">0</text>
   </g>
   <g font-family="FreeSans" font-size="11.6513" font-style="normal" font-weight="normal" transform="translate(41.5743,126.073) rotate(-0,15,-5)" xml:space="preserve">
    <text fill="rgb(38,38,38)" x="0 6 9 " y="-0">0.1</text>
   </g>
   <g font-family="FreeSans" font-size="11.6513" font-style="normal" font-weight="normal" transform="translate(41.5743,73.4452) rotate(-0,15,-5)" xml:space="preserve">
    <text fill="rgb(38,38,38)" x="0 6 9 " y="-0">0.2</text>
   </g>
   <polyline fill="none" points="62.4,320.4 434.4,320.4" stroke="#262626" stroke-dasharray="16,0" stroke-linecap="square" stroke-linejoin="miter" stroke-width="0.5"/>
   <polyline fill="none" points="62.4,27 434.4,27" stroke="#262626" stroke-dasharray="16,0" stroke-linecap="square" stroke-linejoin="miter" stroke-width="0.5"/>
   <polyline fill="none" points="62.4,320.4 62.4,27" stroke="#262626" stroke-dasharray="16,0" stroke-linecap="square" stroke-linejoin="miter" stroke-width="0.5"/>
   <polyline fill="none" points="434.4,320.4 434.4,27" stroke="#262626" stroke-dasharray="16,0" stroke-linecap="square" stroke-linejoin="miter" stroke-width="0.5"/>
   <g font-family="FreeSans" font-size="12.8165" font-style="normal" font-weight="bold" transform="translate(196.9,17) rotate(-0,51.5,0)" xml:space="preserve">
    <text fill="rgb(0,0,0)" x="0 10 17 25 33 37 44 48 52 61 65 72 80 85 92 " y="-3">Nyquist Diagram</text>
   </g>
   <g font-family="FreeSans" font-size="12.8165" font-style="normal" font-weight="normal" transform="translate(-8.42567,173.7) rotate(-90,41,0)" xml:space="preserve">
    <text fill="rgb(38,38,38)" x="0 4 14 21 28 31 38 45 49 55 58 67 73 76 " y="-3">Imaginary Axis</text>
   </g>
   <g font-family="FreeSans" font-size="12.8165" font-style="normal" font-weight="normal" transform="translate(221.9,355.15) rotate(-0,26.5,-11)" xml:space="preserve">
    <text fill="rgb(38,38,38)" x="0 9 16 23 26 29 38 44 47 " y="-0">Real Axis</text>
   </g>
   <polyline fill="none" points="417.491,174.687 417.491,174.698 417.491,174.71 417.491,174.722 417.491,174.733 417.491,174.745 417.491,174.757 417.491,174.77 417.491,174.782 417.491,174.795 417.491,174.807 417.491,174.82 417.491,174.833 417.491,174.846 417.491,174.86 417.491,174.873 417.491,174.887 417.491,174.9 417.491,174.914 417.491,174.928 417.491,174.943 417.491,174.957 417.491,174.972 417.491,174.986 417.491,175.001 417.491,175.016 417.491,175.032 417.491,175.047 417.491,175.063 417.491,175.078 417.491,175.094 417.49,175.111 417.49,175.127 417.49,175.144 417.49,175.16 417.49,175.177 417.49,175.194 417.49,175.212 417.49,175.229 417.49,175.247 417.49,175.265 417.49,175.283 417.49,175.301 417.49,175.32 417.49,175.339 417.49,175.358 417.49,175.377 417.49,175.396 417.49,175.416 417.49,175.436 417.49,175.456 417.49,175.476 417.49,175.497 417.49,175.518 417.49,175.539 417.49,175.56 417.49,175.582 417.49,175.604 417.49,175.626 417.49,175.648 417.49,175.671 417.49,175.693 417.49,175.717 417.49,175.74 417.49,175.764 417.489,175.787 417.489,175.812 417.489,175.836 417.489,175.861 417.489,175.886 417.489,175.911 417.489,175.937 417.489,175.963 417.489,175.989 417.489,176.016 417.489,176.043 417.489,176.07 417.489,176.097 417.489,176.125 417.489,176.153 417.489,176.182 417.489,176.21 417.489,176.24 417.488,176.269 417.488,176.299 417.488,176.329 417.488,176.359 417.488,176.39 417.488,176.421 417.488,176.453 417.488,176.485 417.488,176.517 417.488,176.55 417.488,176.583 417.488,176.616 417.488,176.65 417.487,176.684 417.487,176.719 417.487,176.754 417.487,176.79 417.487,176.825 417.487,176.862 417.487,176.898 417.487,176.935 417.487,176.973 417.487,177.011 417.486,177.049 417.486,177.088 417.486,177.128 417.486,177.167 417.486,177.208 417.486,177.248 417.486,177.289 417.486,177.331 417.485,177.373 417.485,177.416 417.485,177.459 417.485,177.503 417.485,177.547 417.485,177.591 417.485,177.637 417.484,177.682 417.484,177.728 417.484,177.775 417.484,177.823 417.484,177.87 417.484,177.919 417.483,177.968 417.483,178.017 417.483,178.067 417.483,178.118 417.483,178.169 417.482,178.221 417.482,178.274 417.482,178.327 417.482,178.381 417.482,178.435 417.481,178.49 417.481,178.546 417.481,178.602 417.481,178.659 417.48,178.717 417.48,178.775 417.48,178.834 417.48,178.893 417.479,178.954 417.479,179.015 417.479,179.077 417.478,179.139 417.478,179.202 417.478,179.266 417.477,179.331 417.477,179.396 417.477,179.463 417.476,179.53 417.476,179.597 417.476,179.666 417.475,179.735 417.475,179.806 417.475,179.877 417.474,179.948 417.474,180.021 417.473,180.095 417.473,180.169 417.472,180.244 417.472,180.32 417.472,180.398 417.471,180.475 417.471,180.554 417.47,180.634 417.47,180.715 417.469,180.797 417.469,180.879 417.468,180.963 417.467,181.047 417.467,181.133 417.466,181.22 417.466,181.307 417.465,181.396 417.464,181.485 417.464,181.576 417.463,181.668 417.462,181.761 417.462,181.855 417.461,181.95 417.46,182.046 417.46,182.144 417.459,182.242 417.458,182.342 417.457,182.443 417.456,182.545 417.456,182.648 417.455,182.752 417.454,182.858 417.453,182.965 417.452,183.073 417.451,183.183 417.45,183.293 417.449,183.406 417.448,183.519 417.447,183.634 417.446,183.75 417.445,183.868 417.444,183.986 417.443,184.107 417.441,184.229 417.44,184.352 417.439,184.477 417.438,184.603 417.436,184.731 417.435,184.86 417.433,184.991 417.432,185.123 417.431,185.257 417.429,185.392 417.428,185.53 417.426,185.669 417.424,185.809 417.423,185.951 417.421,186.095 417.419,186.241 417.417,186.388 417.416,186.537 417.414,186.688 417.412,186.841 417.41,186.996 417.408,187.152 417.406,187.311 417.403,187.471 417.401,187.633 417.399,187.798 417.397,187.964 417.394,188.132 417.392,188.303 417.389,188.475 417.387,188.65 417.384,188.826 417.381,189.005 417.378,189.186 417.375,189.37 417.372,189.555 417.369,189.743 417.366,189.933 417.363,190.126 417.36,190.321 417.356,190.518 417.353,190.718 417.349,190.92 417.345,191.125 417.342,191.332 417.338,191.542 417.334,191.754 417.329,191.97 417.325,192.187 417.321,192.408 417.316,192.631 417.312,192.858 417.307,193.087 417.302,193.319 417.297,193.554 417.292,193.792 417.286,194.033 417.281,194.277 417.275,194.524 417.269,194.774 417.263,195.028 417.257,195.284 417.25,195.544 417.243,195.808 417.237,196.075 417.23,196.345 417.222,196.619 417.215,196.896 417.207,197.177 417.199,197.462 417.191,197.75 417.182,198.043 417.173,198.339 417.164,198.639 417.155,198.943 417.145,199.251 417.135,199.563 417.125,199.879 417.115,200.2 417.104,200.524 417.092,200.854 417.081,201.187 417.069,201.525 417.056,201.868 417.043,202.215 417.03,202.568 417.016,202.925 417.002,203.287 416.987,203.653 416.972,204.025 416.956,204.403 416.94,204.785 416.923,205.173 416.905,205.566 416.887,205.964 416.868,206.369 416.849,206.779 416.829,207.194 416.808,207.616 416.787,208.044 416.764,208.478 416.741,208.918 416.717,209.364 416.692,209.817 416.666,210.277 416.64,210.743 416.612,211.216 416.583,211.696 416.553,212.183 416.522,212.677 416.49,213.179 416.457,213.688 416.422,214.205 416.386,214.729 416.349,215.261 416.31,215.801 416.27,216.35 416.228,216.907 416.185,217.472 416.14,218.046 416.093,218.629 416.044,219.221 415.993,219.821 415.94,220.432 415.886,221.051 415.829,221.681 415.769,222.32 415.707,222.969 415.643,223.628 415.576,224.298 415.506,224.978 415.434,225.669 415.358,226.371 415.279,227.085 415.197,227.809 415.112,228.545 415.023,229.293 414.93,230.053 414.833,230.825 414.733,231.61 414.628,232.406 414.518,233.216 414.404,234.039 414.285,234.875 414.16,235.724 414.031,236.587 413.895,237.464 413.754,238.355 413.607,239.26 413.453,240.179 413.292,241.113 413.125,242.061 412.95,243.024 412.767,244.003 412.577,244.996 412.378,246.005 412.17,247.029 411.952,248.069 411.726,249.124 411.489,250.195 411.241,251.282 410.983,252.384 410.713,253.502 410.431,254.635 410.137,255.784 409.829,256.948 409.508,258.128 409.172,259.323 408.822,260.532 408.456,261.756 408.074,262.994 407.675,264.246 407.258,265.511 406.823,266.788 406.369,268.078 405.895,269.378 405.401,270.689 404.886,272.01 404.348,273.339 403.787,274.676 403.203,276.018 402.594,277.366 401.96,278.717 401.299,280.069 400.612,281.421 399.897,282.771 399.153,284.117 398.38,285.457 397.577,286.788 396.743,288.107 395.877,289.412 394.98,290.701 394.05,291.969 393.087,293.214 392.091,294.431 391.061,295.619 389.998,296.772 388.9,297.887 387.769,298.959 386.604,299.985 385.406,300.961 384.175,301.88 382.912,302.74 381.618,303.536 380.293,304.262 378.94,304.915 377.559,305.491 376.152,305.983 374.722,306.389 373.269,306.703 371.796,306.923 370.307,307.044 368.803,307.064 367.287,306.978 365.763,306.784 364.233,306.481 362.701,306.066 361.17,305.537 359.644,304.895 358.127,304.139 356.622,303.27 355.133,302.288 353.662,301.194 352.215,299.992 350.794,298.683 349.855,297.744 349.403,297.271 348.045,295.76 346.723,294.153 345.44,292.457 344.198,290.675 343,288.813 341.848,286.878 340.744,284.874 339.689,282.81 338.686,280.69 337.733,278.522 336.834,276.311 335.987,274.066 335.194,271.791 334.453,269.494 333.765,267.181 333.13,264.857 332.546,262.529 332.013,260.201 331.529,257.88 331.093,255.57 330.705,253.275 330.361,251 330.061,248.749 329.803,246.526 329.585,244.333 329.406,242.174 329.263,240.05 329.155,237.966 329.08,235.921 329.035,233.919 329.02,231.96 329.032,230.046 329.07,228.178 329.132,226.355 329.216,224.58 329.321,222.851 329.444,221.17 329.585,219.536 329.743,217.948 329.915,216.408 330.1,214.913 330.298,213.464 330.507,212.06 330.725,210.701 330.952,209.385 331.188,208.111 331.43,206.88 331.678,205.689 331.931,204.539 332.189,203.427 332.45,202.354 332.715,201.317 332.982,200.316 333.25,199.351 333.52,198.419 333.791,197.52 334.062,196.654 334.333,195.818 334.604,195.012 334.873,194.235 335.142,193.487 335.409,192.765 335.675,192.07 335.938,191.4 336.2,190.754 336.459,190.132 336.715,189.533 336.969,188.956 337.22,188.4 337.468,187.864 337.713,187.349 337.954,186.852 338.193,186.374 338.428,185.913 338.659,185.469 338.888,185.042 339.112,184.631 339.334,184.234 339.551,183.853 339.765,183.485 339.976,183.131 340.183,182.79 340.386,182.462 340.586,182.146 340.782,181.841 340.975,181.548 341.164,181.265 341.35,180.993 341.532,180.731 341.711,180.478 341.887,180.235 342.059,180.001 342.227,179.775 342.393,179.558 342.555,179.348 342.714,179.146 342.87,178.952 343.022,178.765 343.172,178.584 343.318,178.41 343.462,178.243 343.603,178.081 343.74,177.925 343.875,177.775 344.007,177.631 344.137,177.492 344.263,177.357 344.387,177.228 344.508,177.103 344.627,176.983 344.743,176.867 344.857,176.755 344.968,176.647 345.077,176.544 345.184,176.444 345.288,176.347 345.39,176.254 345.49,176.164 345.588,176.078 345.683,175.994 345.777,175.914 345.868,175.836 345.957,175.761 346.045,175.689 346.13,175.62 346.214,175.552 346.296,175.488 346.376,175.425 346.454,175.365 346.531,175.307 346.606,175.251 346.679,175.197 346.75,175.145 346.82,175.094 346.889,175.046 346.956,174.999 347.021,174.954 347.085,174.91 347.148,174.868 347.209,174.828 347.269,174.789 347.327,174.751 347.384,174.715 347.44,174.679 347.495,174.645 347.548,174.613 347.6,174.581 347.651,174.551 347.701,174.521 347.75,174.493 347.798,174.465 347.844,174.439 347.89,174.413 347.934,174.389 347.978,174.365 348.02,174.342 348.062,174.32 348.103,174.299 348.142,174.278 348.181,174.258 348.219,174.239 348.256,174.22 348.293,174.202 348.328,174.185 348.363,174.168 348.397,174.152 348.43,174.137 348.462,174.122 348.494,174.107 348.525,174.093 348.555,174.08 348.584,174.067 348.613,174.054 348.641,174.042 348.669,174.03 348.696,174.019 348.722,174.008 348.748,173.997 348.773,173.987 348.798,173.977 348.822,173.968 348.845,173.959 348.868,173.95 348.891,173.941 348.913,173.933 348.934,173.925 348.955,173.917 348.975,173.91 348.995,173.903 349.015,173.896 349.034,173.889 349.053,173.883 349.071,173.876 349.089,173.87 349.106,173.864 349.123,173.859 349.14,173.853 349.156,173.848 349.172,173.843 349.188,173.838 349.203,173.833 349.218,173.829 349.232,173.825 349.246,173.82 349.26,173.816 349.274,173.812 349.287,173.808 349.3,173.805 349.312,173.801 349.325,173.798 349.337,173.794 349.349,173.791 349.36,173.788 349.371,173.785 349.382,173.782 349.393,173.779 349.404,173.777 349.414,173.774 349.424,173.771 349.434,173.769 349.443,173.767 349.453,173.764 349.462,173.762 349.471,173.76 349.48,173.758 349.488,173.756 349.497,173.754 349.505,173.752 349.513,173.751 349.52,173.749 349.528,173.747 349.536,173.746 349.543,173.744 349.55,173.742 349.557,173.741 349.564,173.74 349.57,173.738 349.577,173.737 349.583,173.736 349.589,173.734 349.595,173.733 349.601,173.732 349.607,173.731 349.613,173.73 349.618,173.729 349.624,173.728 349.629,173.727 349.634,173.726 349.639,173.725 349.644,173.724 349.649,173.724 349.653,173.723 349.658,173.722 349.663,173.721 349.667,173.721 349.671,173.72 349.675,173.719 349.679,173.718 349.683,173.718 349.687,173.717 349.691,173.717 349.695,173.716 349.699,173.716 349.702,173.715 349.706,173.715 349.709,173.714 349.712,173.714 349.716,173.713 349.719,173.713 349.722,173.712 349.725,173.712 349.728,173.711 349.731,173.711 349.734,173.711 349.736,173.71 349.739,173.71 349.742,173.71 349.744,173.709 349.747,173.709 349.749,173.709 349.752,173.708 349.754,173.708 349.756,173.708 349.759,173.708 349.761,173.707 349.763,173.707 349.765,173.707 349.767,173.707 349.769,173.706 349.771,173.706 349.773,173.706 349.775,173.706 349.777,173.706 349.778,173.705 349.78,173.705 349.782,173.705 349.783,173.705 349.785,173.705 349.787,173.704 349.788,173.704 349.79,173.704 349.791,173.704 349.793,173.704 349.794,173.704 349.796,173.704 349.797,173.704 349.798,173.703 349.799,173.703 349.801,173.703 349.802,173.703 349.803,173.703 349.804,173.703 349.806,173.703 349.807,173.703 349.808,173.703 349.809,173.702 349.81,173.702 349.811,173.702 349.812,173.702 349.813,173.702 349.814,173.702 349.815,173.702 349.816,173.702 349.817,173.702 349.817,173.702 349.818,173.702 349.819,173.702 349.82,173.702 349.821,173.702 349.822,173.702 349.822,173.701 349.823,173.701 349.824,173.701 349.824,173.701 349.825,173.701 349.826,173.701 349.827,173.701 349.827,173.701 349.828,173.701 349.828,173.701 349.829,173.701 349.83,173.701 349.83,173.701 349.831,173.701 349.831,173.701 349.832,173.701 349.832,173.701 349.833,173.701 349.833,173.701 349.834,173.701 349.834,173.701 349.835,173.701 349.835,173.701 349.836,173.701 349.836,173.701 349.837,173.701 349.837,173.701 349.837,173.701 349.838,173.701 349.838,173.701 349.839,173.701 349.839,173.701 349.839,173.701 349.84,173.7 349.84,173.7 349.84,173.7 349.841,173.7 349.841,173.7 349.841,173.7 349.842,173.7 349.842,173.7 349.842,173.7 349.842,173.7 349.843,173.7 349.843,173.7 349.843,173.7 349.844,173.7 349.844,173.7 349.844,173.7 349.844,173.7 349.845,173.7 349.845,173.7 349.845,173.7 349.845,173.7 349.846,173.7 349.846,173.7 349.846,173.7 349.846,173.7 349.846,173.7 349.847,173.7 349.847,173.7 349.847,173.7 349.847,173.7 349.847,173.7 349.847,173.7 349.848,173.7 349.848,173.7 349.848,173.7 349.848,173.7 349.848,173.7 349.848,173.7 349.849,173.7 349.849,173.7 349.849,173.7 349.849,173.7 349.849,173.7 349.849,173.7 349.849,173.7 349.849,173.7 349.85,173.7 349.85,173.7 349.85,173.7 349.85,173.7 349.85,173.7 349.85,173.7 349.85,173.7 349.85,173.7 349.851,173.7 349.851,173.7 349.851,173.7 349.851,173.7 349.851,173.7 349.851,173.7 349.851,173.7 349.851,173.7 349.851,173.7 349.851,173.7 349.851,173.7 349.852,173.7 349.852,173.7 349.852,173.7 349.852,173.7 349.852,173.7 349.852,173.7 349.852,173.7 349.852,173.7 349.852,173.7 349.852,173.7 349.852,173.7 349.852,173.7 349.852,173.7 349.852,173.7 349.852,173.7 349.853,173.7 349.853,173.7 349.853,173.7 349.853,173.7 349.853,173.7 349.853,173.7 349.853,173.7 349.853,173.7 349.853,173.7 349.853,173.7 349.853,173.7 349.853,173.7 349.853,173.7 349.853,173.7 349.853,173.7 349.853,173.7 349.853,173.7 349.853,173.7 349.853,173.7 349.853,173.7 349.853,173.7 349.853,173.7 349.853,173.7 349.853,173.7 349.854,173.7 349.854,173.7 349.854,173.7 349.854,173.7 349.854,173.7 349.854,173.7 349.854,173.7 349.854,173.7 349.854,173.7 349.854,173.7 349.854,173.7 349.854,173.7 349.854,173.7 349.854,173.7 349.854,173.7 349.854,173.7 349.854,173.7 349.854,173.7 349.854,173.7 349.854,173.7 349.854,173.7 349.854,173.7 349.854,173.7 349.854,173.7 349.854,173.7 349.854,173.7 349.854,173.7 349.854,173.7 349.854,173.7 349.854,173.7 349.854,173.7 349.854,173.7 349.854,173.7 349.854,173.7 349.854,173.7 349.854,173.7 349.854,173.7 349.854,173.7 349.854,173.7 349.854,173.7 349.854,173.7 349.854,173.7 349.854,173.7 349.854,173.7 349.854,173.7 349.854,173.7 349.854,173.7 349.854,173.7 349.854,173.7 349.854,173.7 349.854,173.7 349.854,173.7 349.854,173.7 349.854,173.7 349.854,173.7 349.855,173.7 349.855,173.7 349.855,173.7 349.855,173.7 349.855,173.7 349.855,173.7 349.855,173.7 349.855,173.7 349.855,173.7 349.855,173.7 349.855,173.7 349.855,173.7 349.855,173.7 349.855,173.7 349.855,173.7 349.855,173.7 349.855,173.7 349.855,173.7 349.855,173.7 349.855,173.7 349.855,173.7 349.855,173.7 349.855,173.7 349.855,173.7 349.855,173.7 349.855,173.7 349.855,173.7 349.855,173.7 349.855,173.7 349.855,173.7 349.855,173.7 349.855,173.7 349.855,173.7 349.855,173.7 349.855,173.7 349.855,173.7 349.855,173.7 349.855,173.7 349.855,173.7 349.855,173.7 349.855,173.7 349.855,173.7 349.855,173.7 349.855,173.7 349.855,173.7 349.855,173.7 349.855,173.7" stroke="#0071bc" stroke-linecap="butt" stroke-linejoin="round" stroke-width="0.5"/>
   <polyline fill="none" points="417.491,172.713 417.491,172.702 417.491,172.69 417.491,172.678 417.491,172.667 417.491,172.655 417.491,172.643 417.491,172.63 417.491,172.618 417.491,172.605 417.491,172.593 417.491,172.58 417.491,172.567 417.491,172.554 417.491,172.54 417.491,172.527 417.491,172.513 417.491,172.5 417.491,172.486 417.491,172.472 417.491,172.457 417.491,172.443 417.491,172.428 417.491,172.414 417.491,172.399 417.491,172.384 417.491,172.368 417.491,172.353 417.491,172.337 417.491,172.322 417.491,172.306 417.49,172.289 417.49,172.273 417.49,172.257 417.49,172.24 417.49,172.223 417.49,172.206 417.49,172.188 417.49,172.171 417.49,172.153 417.49,172.135 417.49,172.117 417.49,172.099 417.49,172.08 417.49,172.061 417.49,172.042 417.49,172.023 417.49,172.004 417.49,171.984 417.49,171.964 417.49,171.944 417.49,171.924 417.49,171.903 417.49,171.882 417.49,171.861 417.49,171.84 417.49,171.818 417.49,171.796 417.49,171.774 417.49,171.752 417.49,171.729 417.49,171.707 417.49,171.683 417.49,171.66 417.49,171.636 417.489,171.613 417.489,171.588 417.489,171.564 417.489,171.539 417.489,171.514 417.489,171.489 417.489,171.463 417.489,171.437 417.489,171.411 417.489,171.384 417.489,171.357 417.489,171.33 417.489,171.303 417.489,171.275 417.489,171.247 417.489,171.218 417.489,171.19 417.489,171.161 417.488,171.131 417.488,171.101 417.488,171.071 417.488,171.041 417.488,171.01 417.488,170.979 417.488,170.947 417.488,170.915 417.488,170.883 417.488,170.85 417.488,170.817 417.488,170.784 417.488,170.75 417.487,170.716 417.487,170.681 417.487,170.646 417.487,170.61 417.487,170.575 417.487,170.538 417.487,170.502 417.487,170.465 417.487,170.427 417.487,170.389 417.486,170.351 417.486,170.312 417.486,170.272 417.486,170.233 417.486,170.192 417.486,170.152 417.486,170.111 417.486,170.069 417.485,170.027 417.485,169.984 417.485,169.941 417.485,169.897 417.485,169.853 417.485,169.809 417.485,169.763 417.484,169.718 417.484,169.672 417.484,169.625 417.484,169.577 417.484,169.53 417.484,169.481 417.483,169.432 417.483,169.383 417.483,169.333 417.483,169.282 417.483,169.231 417.482,169.179 417.482,169.126 417.482,169.073 417.482,169.019 417.482,168.965 417.481,168.91 417.481,168.854 417.481,168.798 417.481,168.741 417.48,168.683 417.48,168.625 417.48,168.566 417.48,168.507 417.479,168.446 417.479,168.385 417.479,168.323 417.478,168.261 417.478,168.198 417.478,168.134 417.477,168.069 417.477,168.004 417.477,167.937 417.476,167.87 417.476,167.803 417.476,167.734 417.475,167.665 417.475,167.594 417.475,167.523 417.474,167.452 417.474,167.379 417.473,167.305 417.473,167.231 417.472,167.156 417.472,167.08 417.472,167.002 417.471,166.925 417.471,166.846 417.47,166.766 417.47,166.685 417.469,166.603 417.469,166.521 417.468,166.437 417.467,166.353 417.467,166.267 417.466,166.18 417.466,166.093 417.465,166.004 417.464,165.915 417.464,165.824 417.463,165.732 417.462,165.639 417.462,165.545 417.461,165.45 417.46,165.354 417.46,165.257 417.459,165.158 417.458,165.058 417.457,164.957 417.456,164.855 417.456,164.752 417.455,164.648 417.454,164.542 417.453,164.435 417.452,164.327 417.451,164.217 417.45,164.107 417.449,163.994 417.448,163.881 417.447,163.766 417.446,163.65 417.445,163.532 417.444,163.414 417.443,163.293 417.441,163.171 417.44,163.048 417.439,162.923 417.438,162.797 417.436,162.669 417.435,162.54 417.433,162.409 417.432,162.277 417.431,162.143 417.429,162.008 417.428,161.87 417.426,161.731 417.424,161.591 417.423,161.449 417.421,161.305 417.419,161.159 417.417,161.012 417.416,160.863 417.414,160.712 417.412,160.559 417.41,160.404 417.408,160.248 417.406,160.089 417.403,159.929 417.401,159.767 417.399,159.602 417.397,159.436 417.394,159.268 417.392,159.097 417.389,158.925 417.387,158.75 417.384,158.574 417.381,158.395 417.378,158.214 417.375,158.03 417.372,157.845 417.369,157.657 417.366,157.467 417.363,157.274 417.36,157.079 417.356,156.882 417.353,156.682 417.349,156.48 417.345,156.275 417.342,156.068 417.338,155.858 417.334,155.646 417.329,155.43 417.325,155.213 417.321,154.992 417.316,154.769 417.312,154.542 417.307,154.313 417.302,154.081 417.297,153.846 417.292,153.608 417.286,153.367 417.281,153.123 417.275,152.876 417.269,152.626 417.263,152.373 417.257,152.116 417.25,151.856 417.243,151.592 417.237,151.325 417.23,151.055 417.222,150.781 417.215,150.504 417.207,150.223 417.199,149.938 417.191,149.65 417.182,149.357 417.173,149.061 417.164,148.761 417.155,148.457 417.145,148.149 417.135,147.837 417.125,147.521 417.115,147.201 417.104,146.876 417.092,146.546 417.081,146.213 417.069,145.875 417.056,145.532 417.043,145.185 417.03,144.832 417.016,144.475 417.002,144.113 416.987,143.747 416.972,143.375 416.956,142.997 416.94,142.615 416.923,142.227 416.905,141.834 416.887,141.436 416.868,141.031 416.849,140.621 416.829,140.206 416.808,139.784 416.787,139.356 416.764,138.922 416.741,138.482 416.717,138.036 416.692,137.583 416.666,137.123 416.64,136.657 416.612,136.184 416.583,135.704 416.553,135.217 416.522,134.723 416.49,134.221 416.457,133.712 416.422,133.195 416.386,132.671 416.349,132.139 416.31,131.599 416.27,131.05 416.228,130.493 416.185,129.928 416.14,129.354 416.093,128.771 416.044,128.179 415.993,127.579 415.94,126.968 415.886,126.349 415.829,125.719 415.769,125.08 415.707,124.431 415.643,123.772 415.576,123.102 415.506,122.422 415.434,121.731 415.358,121.029 415.279,120.315 415.197,119.591 415.112,118.855 415.023,118.107 414.93,117.347 414.833,116.575 414.733,115.79 414.628,114.994 414.518,114.184 414.404,113.361 414.285,112.525 414.16,111.676 414.031,110.813 413.895,109.936 413.754,109.045 413.607,108.141 413.453,107.221 413.292,106.287 413.125,105.339 412.95,104.376 412.767,103.397 412.577,102.404 412.378,101.395 412.17,100.371 411.952,99.3311 411.726,98.2759 411.489,97.205 411.241,96.1184 410.983,95.0162 410.713,93.8983 410.431,92.7649 410.137,91.6159 409.829,90.4515 409.508,89.2719 409.172,88.0772 408.822,86.8678 408.456,85.6439 408.074,84.4059 407.675,83.1542 407.258,81.8893 406.823,80.6118 406.369,79.3224 405.895,78.0217 405.401,76.7105 404.886,75.3899 404.348,74.0607 403.787,72.7242 403.203,71.3816 402.594,70.0341 401.96,68.6835 401.299,67.3312 400.612,65.979 399.897,64.6289 399.153,63.2829 398.38,61.9433 397.577,60.6125 396.743,59.293 395.877,57.9877 394.98,56.6993 394.05,55.4312 393.087,54.1864 392.091,52.9685 391.061,51.7811 389.998,50.628 388.9,49.5132 387.769,48.4406 386.604,47.4146 385.406,46.4395 384.175,45.5197 382.912,44.6597 381.618,43.8642 380.293,43.1376 378.94,42.4845 377.559,41.9095 376.152,41.417 374.722,41.0114 373.269,40.6966 371.796,40.4768 370.307,40.3556 368.803,40.3364 367.287,40.4222 365.763,40.6157 364.233,40.9192 362.701,41.3344 361.17,41.8626 359.644,42.5046 358.127,43.2606 356.622,44.1302 355.133,45.1125 353.662,46.2059 352.215,47.4083 350.794,48.7171 349.855,49.6561 349.403,50.1291 348.045,51.6403 346.723,53.2466 345.44,54.9434 344.198,56.7253 343,58.5869 341.848,60.5223 340.744,62.5256 339.689,64.5904 338.686,66.7101 337.733,68.8784 336.834,71.0887 335.987,73.3343 335.194,75.6088 334.453,77.9059 333.765,80.2193 333.13,82.5431 332.546,84.8714 332.013,87.1989 331.529,89.5201 331.093,91.8304 330.705,94.125 330.361,96.3997 330.061,98.6507 329.803,100.874 329.585,103.067 329.406,105.226 329.263,107.35 329.155,109.434 329.08,111.479 329.035,113.481 329.02,115.44 329.032,117.354 329.07,119.222 329.132,121.045 329.216,122.82 329.321,124.549 329.444,126.23 329.585,127.864 329.743,129.452 329.915,130.992 330.1,132.487 330.298,133.936 330.507,135.34 330.725,136.699 330.952,138.015 331.188,139.289 331.43,140.52 331.678,141.711 331.931,142.861 332.189,143.973 332.45,145.046 332.715,146.083 332.982,147.084 333.25,148.049 333.52,148.981 333.791,149.88 334.062,150.746 334.333,151.582 334.604,152.388 334.873,153.165 335.142,153.913 335.409,154.635 335.675,155.33 335.938,156 336.2,156.646 336.459,157.268 336.715,157.867 336.969,158.444 337.22,159 337.468,159.536 337.713,160.051 337.954,160.548 338.193,161.026 338.428,161.487 338.659,161.931 338.888,162.358 339.112,162.77 339.334,163.166 339.551,163.547 339.765,163.915 339.976,164.269 340.183,164.61 340.386,164.938 340.586,165.254 340.782,165.559 340.975,165.852 341.164,166.135 341.35,166.407 341.532,166.669 341.711,166.922 341.887,167.165 342.059,167.399 342.227,167.625 342.393,167.842 342.555,168.052 342.714,168.254 342.87,168.448 343.022,168.635 343.172,168.816 343.318,168.99 343.462,169.157 343.603,169.319 343.74,169.475 343.875,169.625 344.007,169.769 344.137,169.908 344.263,170.043 344.387,170.172 344.508,170.297 344.627,170.417 344.743,170.533 344.857,170.645 344.968,170.753 345.077,170.856 345.184,170.957 345.288,171.053 345.39,171.146 345.49,171.236 345.588,171.322 345.683,171.406 345.777,171.486 345.868,171.564 345.957,171.639 346.045,171.711 346.13,171.78 346.214,171.848 346.296,171.912 346.376,171.975 346.454,172.035 346.531,172.093 346.606,172.149 346.679,172.203 346.75,172.255 346.82,172.306 346.889,172.354 346.956,172.401 347.021,172.446 347.085,172.49 347.148,172.532 347.209,172.572 347.269,172.611 347.327,172.649 347.384,172.685 347.44,172.721 347.495,172.755 347.548,172.787 347.6,172.819 347.651,172.849 347.701,172.879 347.75,172.907 347.798,172.935 347.844,172.961 347.89,172.987 347.934,173.011 347.978,173.035 348.02,173.058 348.062,173.08 348.103,173.101 348.142,173.122 348.181,173.142 348.219,173.161 348.256,173.18 348.293,173.198 348.328,173.215 348.363,173.232 348.397,173.248 348.43,173.263 348.462,173.278 348.494,173.293 348.525,173.307 348.555,173.32 348.584,173.333 348.613,173.346 348.641,173.358 348.669,173.37 348.696,173.381 348.722,173.392 348.748,173.403 348.773,173.413 348.798,173.423 348.822,173.432 348.845,173.441 348.868,173.45 348.891,173.459 348.913,173.467 348.934,173.475 348.955,173.483 348.975,173.49 348.995,173.497 349.015,173.504 349.034,173.511 349.053,173.517 349.071,173.524 349.089,173.53 349.106,173.536 349.123,173.541 349.14,173.547 349.156,173.552 349.172,173.557 349.188,173.562 349.203,173.567 349.218,173.571 349.232,173.575 349.246,173.58 349.26,173.584 349.274,173.588 349.287,173.592 349.3,173.595 349.312,173.599 349.325,173.602 349.337,173.606 349.349,173.609 349.36,173.612 349.371,173.615 349.382,173.618 349.393,173.621 349.404,173.623 349.414,173.626 349.424,173.629 349.434,173.631 349.443,173.633 349.453,173.636 349.462,173.638 349.471,173.64 349.48,173.642 349.488,173.644 349.497,173.646 349.505,173.648 349.513,173.65 349.52,173.651 349.528,173.653 349.536,173.654 349.543,173.656 349.55,173.658 349.557,173.659 349.564,173.66 349.57,173.662 349.577,173.663 349.583,173.664 349.589,173.666 349.595,173.667 349.601,173.668 349.607,173.669 349.613,173.67 349.618,173.671 349.624,173.672 349.629,173.673 349.634,173.674 349.639,173.675 349.644,173.676 349.649,173.676 349.653,173.677 349.658,173.678 349.663,173.679 349.667,173.679 349.671,173.68 349.675,173.681 349.679,173.682 349.683,173.682 349.687,173.683 349.691,173.683 349.695,173.684 349.699,173.684 349.702,173.685 349.706,173.686 349.709,173.686 349.712,173.686 349.716,173.687 349.719,173.687 349.722,173.688 349.725,173.688 349.728,173.689 349.731,173.689 349.734,173.689 349.736,173.69 349.739,173.69 349.742,173.69 349.744,173.691 349.747,173.691 349.749,173.691 349.752,173.692 349.754,173.692 349.756,173.692 349.759,173.692 349.761,173.693 349.763,173.693 349.765,173.693 349.767,173.693 349.769,173.694 349.771,173.694 349.773,173.694 349.775,173.694 349.777,173.695 349.778,173.695 349.78,173.695 349.782,173.695 349.783,173.695 349.785,173.695 349.787,173.696 349.788,173.696 349.79,173.696 349.791,173.696 349.793,173.696 349.794,173.696 349.796,173.696 349.797,173.696 349.798,173.697 349.799,173.697 349.801,173.697 349.802,173.697 349.803,173.697 349.804,173.697 349.806,173.697 349.807,173.697 349.808,173.697 349.809,173.698 349.81,173.698 349.811,173.698 349.812,173.698 349.813,173.698 349.814,173.698 349.815,173.698 349.816,173.698 349.817,173.698 349.817,173.698 349.818,173.698 349.819,173.698 349.82,173.698 349.821,173.698 349.822,173.698 349.822,173.699 349.823,173.699 349.824,173.699 349.824,173.699 349.825,173.699 349.826,173.699 349.827,173.699 349.827,173.699 349.828,173.699 349.828,173.699 349.829,173.699 349.83,173.699 349.83,173.699 349.831,173.699 349.831,173.699 349.832,173.699 349.832,173.699 349.833,173.699 349.833,173.699 349.834,173.699 349.834,173.699 349.835,173.699 349.835,173.699 349.836,173.699 349.836,173.699 349.837,173.699 349.837,173.699 349.837,173.699 349.838,173.699 349.838,173.699 349.839,173.699 349.839,173.699 349.839,173.7 349.84,173.7 349.84,173.7 349.84,173.7 349.841,173.7 349.841,173.7 349.841,173.7 349.842,173.7 349.842,173.7 349.842,173.7 349.842,173.7 349.843,173.7 349.843,173.7 349.843,173.7 349.844,173.7 349.844,173.7 349.844,173.7 349.844,173.7 349.845,173.7 349.845,173.7 349.845,173.7 349.845,173.7 349.846,173.7 349.846,173.7 349.846,173.7 349.846,173.7 349.846,173.7 349.847,173.7 349.847,173.7 349.847,173.7 349.847,173.7 349.847,173.7 349.847,173.7 349.848,173.7 349.848,173.7 349.848,173.7 349.848,173.7 349.848,173.7 349.848,173.7 349.849,173.7 349.849,173.7 349.849,173.7 349.849,173.7 349.849,173.7 349.849,173.7 349.849,173.7 349.849,173.7 349.85,173.7 349.85,173.7 349.85,173.7 349.85,173.7 349.85,173.7 349.85,173.7 349.85,173.7 349.85,173.7 349.851,173.7 349.851,173.7 349.851,173.7 349.851,173.7 349.851,173.7 349.851,173.7 349.851,173.7 349.851,173.7 349.851,173.7 349.851,173.7 349.851,173.7 349.852,173.7 349.852,173.7 349.852,173.7 349.852,173.7 349.852,173.7 349.852,173.7 349.852,173.7 349.852,173.7 349.852,173.7 349.852,173.7 349.852,173.7 349.852,173.7 349.852,173.7 349.852,173.7 349.852,173.7 349.853,173.7 349.853,173.7 349.853,173.7 349.853,173.7 349.853,173.7 349.853,173.7 349.853,173.7 349.853,173.7 349.853,173.7 349.853,173.7 349.853,173.7 349.853,173.7 349.853,173.7 349.853,173.7 349.853,173.7 349.853,173.7 349.853,173.7 349.853,173.7 349.853,173.7 349.853,173.7 349.853,173.7 349.853,173.7 349.853,173.7 349.853,173.7 349.854,173.7 349.854,173.7 349.854,173.7 349.854,173.7 349.854,173.7 349.854,173.7 349.854,173.7 349.854,173.7 349.854,173.7 349.854,173.7 349.854,173.7 349.854,173.7 349.854,173.7 349.854,173.7 349.854,173.7 349.854,173.7 349.854,173.7 349.854,173.7 349.854,173.7 349.854,173.7 349.854,173.7 349.854,173.7 349.854,173.7 349.854,173.7 349.854,173.7 349.854,173.7 349.854,173.7 349.854,173.7 349.854,173.7 349.854,173.7 349.854,173.7 349.854,173.7 349.854,173.7 349.854,173.7 349.854,173.7 349.854,173.7 349.854,173.7 349.854,173.7 349.854,173.7 349.854,173.7 349.854,173.7 349.854,173.7 349.854,173.7 349.854,173.7 349.854,173.7 349.854,173.7 349.854,173.7 349.854,173.7 349.854,173.7 349.854,173.7 349.854,173.7 349.854,173.7 349.854,173.7 349.854,173.7 349.854,173.7 349.855,173.7 349.855,173.7 349.855,173.7 349.855,173.7 349.855,173.7 349.855,173.7 349.855,173.7 349.855,173.7 349.855,173.7 349.855,173.7 349.855,173.7 349.855,173.7 349.855,173.7 349.855,173.7 349.855,173.7 349.855,173.7 349.855,173.7 349.855,173.7 349.855,173.7 349.855,173.7 349.855,173.7 349.855,173.7 349.855,173.7 349.855,173.7 349.855,173.7 349.855,173.7 349.855,173.7 349.855,173.7 349.855,173.7 349.855,173.7 349.855,173.7 349.855,173.7 349.855,173.7 349.855,173.7 349.855,173.7 349.855,173.7 349.855,173.7 349.855,173.7 349.855,173.7 349.855,173.7 349.855,173.7 349.855,173.7 349.855,173.7 349.855,173.7 349.855,173.7 349.855,173.7 349.855,173.7" stroke="#0071bc" stroke-dasharray="8,3,2,3" stroke-linecap="butt" stroke-linejoin="round" stroke-width="0.5"/>
   <polyline fill="none" points="76.3091,173.7 82.3091,173.7" stroke="#ff0000" stroke-linecap="square" stroke-linejoin="miter" stroke-width="0.5"/>
   <polyline fill="none" points="79.3091,170.7 79.3091,176.7" stroke="#ff0000" stroke-linecap="square" stroke-linejoin="miter" stroke-width="0.5"/>
  </g>
  <clipPath id="cp00480360">
   <polygon points="0,360 480,360 480,0 0,0"/>
  </clipPath>
  <g clip-path="url(#cp00480360)">
   <polygon fill="#ffffff" points="388.347,52.821 426.389,52.821 426.389,35.0105 388.347,35.0105" shape-rendering="crispEdges"/>
   <polyline fill="none" points="388.347,52.821 426.389,52.821" stroke="#262626" stroke-dasharray="16,0" stroke-linecap="square" stroke-linejoin="miter" stroke-width="0.5"/>
   <polyline fill="none" points="388.347,35.0105 426.389,35.0105" stroke="#262626" stroke-dasharray="16,0" stroke-linecap="square" stroke-linejoin="miter" stroke-width="0.5"/>
   <polyline fill="none" points="388.347,52.821 388.347,35.0105" stroke="#262626" stroke-dasharray="16,0" stroke-linecap="square" stroke-linejoin="miter" stroke-width="0.5"/>
   <polyline fill="none" points="426.389,52.821 426.389,35.0105" stroke="#262626" stroke-dasharray="16,0" stroke-linecap="square" stroke-linejoin="miter" stroke-width="0.5"/>
   <polyline fill="none" points="392.353,43.9158 412.379,43.9158" stroke="#0071bc" stroke-linecap="butt" stroke-linejoin="round" stroke-width="0.5"/>
   <g font-family="FreeSans" font-size="10.4862" font-style="normal" font-weight="normal" transform="translate(416.384,48.4158) rotate(-0,-0,-4.5)" xml:space="preserve">
    <text fill="rgb(0,0,0)" x="0 " y="-2">g</text>
   </g>
  </g>
 </g>
</svg>
