<?xml version='1.0' encoding='UTF-8' standalone='no'?>
<svg height="314pt" viewBox="0 0 418 314" width="418pt" xmlns="http://www.w3.org/2000/svg" xmlns:xlink="http://www.w3.org/1999/xlink">
 <title>Figure 1</title>
 <desc>
Creator: GL2PS 1.4.2, (C) 1999-2020 C. Geuzaine
For: Octave
CreationDate: Sun Feb  8 20:56:04 2026
</desc>
 <defs/>
 <polygon fill="#ffffff" points="0,0 418,0 418,314 0,314"/>
 <g>
  <polygon fill="#ffffff" points="0,314 418,314 418,0 0,0" shape-rendering="crispEdges"/>
  <clipPath id="cp00418314">
   <polygon points="0,314 418,314 418,0 0,0"/>
  </clipPath>
  <g clip-path="url(#cp00418314)">
   <polygon fill="#ffffff" points="54.4343,279.499 378.946,279.499 378.946,23.5533 54.4343,23.5533" shape-rendering="crispEdges"/>
   <polyline fill="none" points="69.1848,279.499 69.1848,23.5533" stroke="#262626" stroke-dasharray="16,0" stroke-linecap="butt" stroke-linejoin="miter" stroke-opacity="0.15" stroke-width="0.5"/>
   <polyline fill="none" points="116.387,279.499 116.387,23.5533" stroke="#262626" stroke-dasharray="16,0" stroke-linecap="butt" stroke-linejoin="miter" stroke-opacity="0.15" stroke-width="0.5"/>
   <polyline fill="none" points="163.588,279.499 163.588,23.5533" stroke="#262626" stroke-dasharray="16,0" stroke-linecap="butt" stroke-linejoin="miter" stroke-opacity="0.15" stroke-width="0.5"/>
   <polyline fill="none" points="210.79,279.499 210.79,23.5533" stroke="#262626" stroke-dasharray="16,0" stroke-linecap="butt" stroke-linejoin="miter" stroke-opacity="0.15" stroke-width="0.5"/>
   <polyline fill="none" points="257.992,279.499 257.992,23.5533" stroke="#262626" stroke-dasharray="16,0" stroke-linecap="butt" stroke-linejoin="miter" stroke-opacity="0.15" stroke-width="0.5"/>
   <polyline fill="none" points="305.194,279.499 305.194,23.5533" stroke="#262626" stroke-dasharray="16,0" stroke-linecap="butt" stroke-linejoin="miter" stroke-opacity="0.15" stroke-width="0.5"/>
   <polyline fill="none" points="352.396,279.499 352.396,23.5533" stroke="#262626" stroke-dasharray="16,0" stroke-linecap="butt" stroke-linejoin="miter" stroke-opacity="0.15" stroke-width="0.5"/>
   <polyline fill="none" points="69.1848,279.499 69.1848,276.255" stroke="#262626" stroke-linecap="butt" stroke-linejoin="miter" stroke-width="0.5"/>
   <polyline fill="none" points="69.1848,23.5533 69.1848,26.7977" stroke="#262626" stroke-linecap="butt" stroke-linejoin="miter" stroke-width="0.5"/>
   <polyline fill="none" points="116.387,279.499 116.387,276.255" stroke="#262626" stroke-linecap="butt" stroke-linejoin="miter" stroke-width="0.5"/>
   <polyline fill="none" points="116.387,23.5533 116.387,26.7977" stroke="#262626" stroke-linecap="butt" stroke-linejoin="miter" stroke-width="0.5"/>
   <polyline fill="none" points="163.588,279.499 163.588,276.255" stroke="#262626" stroke-linecap="butt" stroke-linejoin="miter" stroke-width="0.5"/>
   <polyline fill="none" points="163.588,23.5533 163.588,26.7977" stroke="#262626" stroke-linecap="butt" stroke-linejoin="miter" stroke-width="0.5"/>
   <polyline fill="none" points="210.79,279.499 210.79,276.255" stroke="#262626" stroke-linecap="butt" stroke-linejoin="miter" stroke-width="0.5"/>
   <polyline fill="none" points="210.79,23.5533 210.79,26.7977" stroke="#262626" stroke-linecap="butt" stroke-linejoin="miter" stroke-width="0.5"/>
   <polyline fill="none" points="257.992,279.499 257.992,276.255" stroke="#262626" stroke-linecap="butt" stroke-linejoin="miter" stroke-width="0.5"/>
   <polyline fill="none" points="257.992,23.5533 257.992,26.7977" stroke="#262626" stroke-linecap="butt" stroke-linejoin="miter" stroke-width="0.5"/>
   <polyline fill="none" points="305.194,279.499 305.194,276.255" stroke="#262626" stroke-linecap="butt" stroke-linejoin="miter" stroke-width="0.5"/>
   <polyline fill="none" points="305.194,23.5533 305.194,26.7977" stroke="#262626" stroke-linecap="butt" stroke-linejoin="miter" stroke-width="0.5"/>
   <polyline fill="none" points="352.396,279.499 352.396,276.255" stroke="#262626" stroke-linecap="butt" stroke-linejoin="miter" stroke-width="0.5"/>
   <polyline fill="none" points="352.396,23.5533 352.396,26.7977" stroke="#262626" stroke-linecap="butt" stroke-linejoin="miter" stroke-width="0.5"/>
   <g font-family="FreeSans" font-size="10" font-style="normal" font-weight="normal" transform="translate(64.6848,294.998) rotate(-0,4.5,-8)" xml:space="preserve">
    <text fill="rgb(38,38,38)" x="0 3 " y="-0">-1</text>
   </g>
   <g font-family="FreeSans" font-size="10" font-style="normal" font-weight="normal" transform="translate(107.387,294.998) rotate(-0,9,-8)" xml:space="preserve">
    <text fill="rgb(38,38,38)" x="0 3 9 12 " y="-0">-0.8</text>
   </g>
   <g font-family="FreeSans" font-size="10" font-style="normal" font-weight="normal" transform="translate(154.588,294.998) rotate(-0,9,-8)" xml:space="preserve">
    <text fill="rgb(38,38,38)" x="0 3 9 12 " y="-0">-0.6</text>
   </g>
   <g font-family="FreeSans" font-size="10" font-style="normal" font-weight="normal" transform="translate(201.79,294.998) rotate(-0,9,-8)" xml:space="preserve">
    <text fill="rgb(38,38,38)" x="0 3 9 12 " y="-0">-0.4</text>
   </g>
   <g font-family="FreeSans" font-size="10" font-style="normal" font-weight="normal" transform="translate(248.992,294.998) rotate(-0,9,-8)" xml:space="preserve">
    <text fill="rgb(38,38,38)" x="0 3 9 12 " y="-0">-0.2</text>
   </g>
   <g font-family="FreeSans" font-size="10" font-style="normal" font-weight="normal" transform="translate(302.194,294.998) rotate(-0,3,-8)" xml:space="preserve">
    <text fill="rgb(38,38,38)" x="0 " y="-0">0</text>
   </g>
   <g font-family="FreeSans" font-size="10" font-style="normal" font-weight="normal" transform="translate(344.896,294.998) rotate(-0,7.5,-8)" xml:space="preserve">
    <text fill="rgb(38,38,38)" x="0 6 9 " y="-0">0.2</text>
   </g>
   <polyline fill="none" points="54.4343,243.345 378.946,243.345" stroke="#262626" stroke-dasharray="16,0" stroke-linecap="butt" stroke-linejoin="miter" stroke-opacity="0.15" stroke-width="0.5"/>
   <polyline fill="none" points="54.4343,197.435 378.946,197.435" stroke="#262626" stroke-dasharray="16,0" stroke-linecap="butt" stroke-linejoin="miter" stroke-opacity="0.15" stroke-width="0.5"/>
   <polyline fill="none" points="54.4343,151.526 378.946,151.526" stroke="#262626" stroke-dasharray="16,0" stroke-linecap="butt" stroke-linejoin="miter" stroke-opacity="0.15" stroke-width="0.5"/>
   <polyline fill="none" points="54.4343,105.617 378.946,105.617" stroke="#262626" stroke-dasharray="16,0" stroke-linecap="butt" stroke-linejoin="miter" stroke-opacity="0.15" stroke-width="0.5"/>
   <polyline fill="none" points="54.4343,59.7078 378.946,59.7078" stroke="#262626" stroke-dasharray="16,0" stroke-linecap="butt" stroke-linejoin="miter" stroke-opacity="0.15" stroke-width="0.5"/>
   <polyline fill="none" points="54.4343,243.345 57.6745,243.345" stroke="#262626" stroke-linecap="butt" stroke-linejoin="miter" stroke-width="0.5"/>
   <polyline fill="none" points="378.946,243.345 375.706,243.345" stroke="#262626" stroke-linecap="butt" stroke-linejoin="miter" stroke-width="0.5"/>
   <polyline fill="none" points="54.4343,197.435 57.6745,197.435" stroke="#262626" stroke-linecap="butt" stroke-linejoin="miter" stroke-width="0.5"/>
   <polyline fill="none" points="378.946,197.435 375.706,197.435" stroke="#262626" stroke-linecap="butt" stroke-linejoin="miter" stroke-width="0.5"/>
   <polyline fill="none" points="54.4343,151.526 57.6745,151.526" stroke="#262626" stroke-linecap="butt" stroke-linejoin="miter" stroke-width="0.5"/>
   <polyline fill="none" points="378.946,151.526 375.706,151.526" stroke="#262626" stroke-linecap="butt" stroke-linejoin="miter" stroke-width="0.5"/>
   <polyline fill="none" points="54.4343,105.617 57.6745,105.617" stroke="#262626" stroke-linecap="butt" stroke-linejoin="miter" stroke-width="0.5"/>
   <polyline fill="none" points="378.946,105.617 375.706,105.617" stroke="#262626" stroke-linecap="butt" stroke-linejoin="miter" stroke-width="0.5"/>
   <polyline fill="none" points="54.4343,59.7078 57.6745,59.7078" stroke="#262626" stroke-linecap="butt" stroke-linejoin="miter" stroke-width="0.5"/>
   <polyline fill="none" points="378.946,59.7078 375.706,59.7078" stroke="#262626" stroke-linecap="butt" stroke-linejoin="miter" stroke-width="0.5"/>
   <g font-family="FreeSans" font-size="10" font-style="normal" font-weight="normal" transform="translate(31.4418,247.345) rotate(-0,18,-4)" xml:space="preserve">
    <text fill="rgb(38,38,38)" x="0 3 9 12 " y="-0">-0.2</text>
   </g>
   <g font-family="FreeSans" font-size="10" font-style="normal" font-weight="normal" transform="translate(31.4418,201.435) rotate(-0,18,-4)" xml:space="preserve">
    <text fill="rgb(38,38,38)" x="0 3 9 12 " y="-0">-0.1</text>
   </g>
   <g font-family="FreeSans" font-size="10" font-style="normal" font-weight="normal" transform="translate(43.4418,155.526) rotate(-0,6,-4)" xml:space="preserve">
    <text fill="rgb(38,38,38)" x="0 " y="-0">0</text>
   </g>
   <g font-family="FreeSans" font-size="10" font-style="normal" font-weight="normal" transform="translate(34.4418,109.617) rotate(-0,15,-4)" xml:space="preserve">
    <text fill="rgb(38,38,38)" x="0 6 9 " y="-0">0.1</text>
   </g>
   <g font-family="FreeSans" font-size="10" font-style="normal" font-weight="normal" transform="translate(34.4418,63.7078) rotate(-0,15,-4)" xml:space="preserve">
    <text fill="rgb(38,38,38)" x="0 6 9 " y="-0">0.2</text>
   </g>
   <polyline fill="none" points="54.4343,279.499 378.946,279.499" stroke="#262626" stroke-dasharray="16,0" stroke-linecap="square" stroke-linejoin="miter" stroke-width="0.5"/>
   <polyline fill="none" points="54.4343,23.5533 378.946,23.5533" stroke="#262626" stroke-dasharray="16,0" stroke-linecap="square" stroke-linejoin="miter" stroke-width="0.5"/>
   <polyline fill="none" points="54.4343,279.499 54.4343,23.5533" stroke="#262626" stroke-dasharray="16,0" stroke-linecap="square" stroke-linejoin="miter" stroke-width="0.5"/>
   <polyline fill="none" points="378.946,279.499 378.946,23.5533" stroke="#262626" stroke-dasharray="16,0" stroke-linecap="square" stroke-linejoin="miter" stroke-width="0.5"/>
   <g font-family="FreeSans" font-size="10" font-style="normal" font-weight="bold" transform="translate(176.19,13.5533) rotate(-0,40.5,0)" xml:space="preserve">
    <text fill="rgb(0,0,0)" x="0 8 13 19 25 28 34 37 40 47 50 56 62 66 72 " y="-2">Nyquist Diagram</text>
   </g>
   <g font-family="FreeSans" font-size="10" font-style="normal" font-weight="normal" transform="translate(-5.5582,151.526) rotate(-90,32,0)" xml:space="preserve">
    <text fill="rgb(38,38,38)" x="0 3 11 16 22 24 29 34 37 42 45 52 57 59 " y="-2">Imaginary Axis</text>
   </g>
   <g font-family="FreeSans" font-size="10" font-style="normal" font-weight="normal" transform="translate(196.19,308.998) rotate(-0,20.5,-9)" xml:space="preserve">
    <text fill="rgb(38,38,38)" x="0 7 12 17 19 22 29 34 36 " y="-0">Real Axis</text>
   </g>
   <polyline fill="none" points="364.196,152.387 364.196,152.397 364.196,152.407 364.196,152.417 364.196,152.428 364.196,152.438 364.196,152.449 364.196,152.459 364.196,152.47 364.196,152.481 364.196,152.492 364.196,152.503 364.196,152.515 364.196,152.526 364.196,152.538 364.196,152.55 364.196,152.561 364.196,152.573 364.196,152.586 364.196,152.598 364.196,152.61 364.196,152.623 364.196,152.636 364.196,152.648 364.196,152.661 364.196,152.675 364.196,152.688 364.195,152.701 364.195,152.715 364.195,152.729 364.195,152.743 364.195,152.757 364.195,152.771 364.195,152.785 364.195,152.8 364.195,152.815 364.195,152.83 364.195,152.845 364.195,152.86 364.195,152.876 364.195,152.891 364.195,152.907 364.195,152.923 364.195,152.939 364.195,152.956 364.195,152.972 364.195,152.989 364.195,153.006 364.195,153.023 364.195,153.041 364.195,153.058 364.195,153.076 364.195,153.094 364.195,153.112 364.195,153.13 364.195,153.149 364.195,153.168 364.195,153.187 364.195,153.206 364.195,153.226 364.195,153.245 364.195,153.265 364.195,153.285 364.195,153.306 364.195,153.326 364.195,153.347 364.194,153.368 364.194,153.39 364.194,153.411 364.194,153.433 364.194,153.455 364.194,153.478 364.194,153.5 364.194,153.523 364.194,153.546 364.194,153.57 364.194,153.593 364.194,153.617 364.194,153.642 364.194,153.666 364.194,153.691 364.194,153.716 364.194,153.742 364.194,153.767 364.194,153.793 364.194,153.82 364.194,153.846 364.193,153.873 364.193,153.9 364.193,153.928 364.193,153.956 364.193,153.984 364.193,154.012 364.193,154.041 364.193,154.07 364.193,154.1 364.193,154.13 364.193,154.16 364.193,154.19 364.193,154.221 364.192,154.253 364.192,154.284 364.192,154.316 364.192,154.349 364.192,154.381 364.192,154.415 364.192,154.448 364.192,154.482 364.192,154.516 364.192,154.551 364.191,154.586 364.191,154.622 364.191,154.657 364.191,154.694 364.191,154.731 364.191,154.768 364.191,154.805 364.191,154.843 364.191,154.882 364.19,154.921 364.19,154.96 364.19,155 364.19,155.04 364.19,155.081 364.19,155.122 364.19,155.164 364.189,155.206 364.189,155.249 364.189,155.292 364.189,155.336 364.189,155.38 364.189,155.425 364.188,155.47 364.188,155.516 364.188,155.563 364.188,155.609 364.188,155.657 364.187,155.705 364.187,155.753 364.187,155.802 364.187,155.852 364.187,155.902 364.186,155.953 364.186,156.005 364.186,156.057 364.186,156.109 364.185,156.163 364.185,156.217 364.185,156.271 364.185,156.326 364.184,156.382 364.184,156.438 364.184,156.495 364.183,156.553 364.183,156.612 364.183,156.671 364.183,156.731 364.182,156.791 364.182,156.852 364.182,156.914 364.181,156.977 364.181,157.04 364.18,157.105 364.18,157.169 364.18,157.235 364.179,157.302 364.179,157.369 364.179,157.437 364.178,157.506 364.178,157.575 364.177,157.646 364.177,157.717 364.176,157.789 364.176,157.862 364.175,157.936 364.175,158.01 364.174,158.086 364.174,158.162 364.173,158.24 364.173,158.318 364.172,158.397 364.172,158.477 364.171,158.558 364.17,158.64 364.17,158.723 364.169,158.807 364.168,158.892 364.168,158.978 364.167,159.065 364.166,159.153 364.166,159.242 364.165,159.332 364.164,159.423 364.163,159.515 364.163,159.608 364.162,159.703 364.161,159.798 364.16,159.895 364.159,159.993 364.158,160.092 364.158,160.192 364.157,160.293 364.156,160.396 364.155,160.5 364.154,160.605 364.153,160.711 364.151,160.818 364.15,160.927 364.149,161.037 364.148,161.149 364.147,161.261 364.146,161.376 364.144,161.491 364.143,161.608 364.142,161.726 364.141,161.846 364.139,161.967 364.138,162.089 364.136,162.214 364.135,162.339 364.133,162.466 364.132,162.595 364.13,162.725 364.128,162.857 364.127,162.99 364.125,163.125 364.123,163.261 364.121,163.399 364.12,163.539 364.118,163.681 364.116,163.824 364.114,163.969 364.111,164.116 364.109,164.265 364.107,164.415 364.105,164.567 364.103,164.722 364.1,164.878 364.098,165.036 364.095,165.196 364.093,165.357 364.09,165.521 364.087,165.687 364.084,165.855 364.081,166.025 364.078,166.197 364.075,166.371 364.072,166.548 364.069,166.726 364.066,166.907 364.062,167.09 364.059,167.276 364.055,167.464 364.051,167.654 364.047,167.846 364.043,168.041 364.039,168.238 364.035,168.438 364.031,168.641 364.026,168.845 364.022,169.053 364.017,169.263 364.012,169.476 364.007,169.692 364.002,169.91 363.997,170.131 363.991,170.355 363.986,170.582 363.98,170.812 363.974,171.045 363.968,171.28 363.961,171.519 363.955,171.761 363.948,172.006 363.941,172.255 363.934,172.506 363.927,172.761 363.919,173.02 363.911,173.281 363.903,173.546 363.894,173.815 363.886,174.087 363.877,174.363 363.868,174.643 363.858,174.926 363.848,175.213 363.838,175.505 363.827,175.799 363.816,176.098 363.805,176.402 363.794,176.709 363.782,177.02 363.769,177.336 363.756,177.656 363.743,177.98 363.729,178.309 363.715,178.643 363.7,178.981 363.685,179.324 363.669,179.672 363.653,180.025 363.636,180.382 363.618,180.745 363.6,181.113 363.581,181.486 363.562,181.864 363.542,182.248 363.521,182.638 363.499,183.033 363.477,183.434 363.453,183.84 363.429,184.253 363.404,184.672 363.378,185.097 363.351,185.528 363.323,185.965 363.294,186.409 363.264,186.86 363.232,187.318 363.2,187.782 363.166,188.253 363.131,188.732 363.094,189.217 363.057,189.711 363.017,190.211 362.976,190.72 362.934,191.236 362.889,191.76 362.843,192.292 362.795,192.833 362.746,193.382 362.694,193.939 362.64,194.506 362.584,195.081 362.525,195.665 362.465,196.259 362.401,196.861 362.335,197.474 362.267,198.096 362.195,198.728 362.121,199.37 362.043,200.023 361.962,200.686 361.878,201.359 361.79,202.043 361.698,202.739 361.602,203.445 361.503,204.163 361.399,204.892 361.29,205.633 361.177,206.386 361.059,207.15 360.936,207.927 360.807,208.717 360.673,209.519 360.533,210.333 360.387,211.161 360.235,212.001 360.075,212.854 359.909,213.721 359.735,214.601 359.554,215.495 359.364,216.402 359.167,217.322 358.96,218.256 358.744,219.204 358.519,220.166 358.283,221.141 358.037,222.13 357.78,223.132 357.512,224.148 357.232,225.177 356.939,226.219 356.633,227.274 356.314,228.341 355.981,229.421 355.633,230.513 355.269,231.617 354.89,232.731 354.494,233.856 354.081,234.991 353.649,236.134 353.2,237.287 352.731,238.446 352.242,239.612 351.732,240.783 351.201,241.959 350.647,243.137 350.071,244.316 349.472,245.496 348.848,246.674 348.199,247.848 347.524,249.017 346.824,250.178 346.096,251.329 345.341,252.467 344.559,253.591 343.747,254.697 342.907,255.783 342.038,256.846 341.14,257.881 340.212,258.887 339.255,259.86 338.268,260.796 337.252,261.691 336.207,262.541 335.133,263.344 334.031,264.094 332.902,264.788 331.747,265.422 330.566,265.991 329.362,266.493 328.134,266.923 326.886,267.276 325.619,267.551 324.334,267.743 323.035,267.848 321.723,267.865 320.401,267.79 319.071,267.622 317.736,267.357 316.4,266.995 315.065,266.534 313.734,265.974 312.41,265.314 311.097,264.556 309.798,263.699 308.515,262.745 307.253,261.696 306.014,260.554 305.194,259.735 304.8,259.323 303.615,258.004 302.462,256.603 301.342,255.123 300.259,253.568 299.214,251.945 298.209,250.256 297.246,248.509 296.326,246.707 295.45,244.858 294.62,242.967 293.835,241.039 293.096,239.08 292.404,237.096 291.758,235.092 291.158,233.074 290.604,231.046 290.095,229.015 289.63,226.985 289.208,224.96 288.827,222.945 288.488,220.943 288.189,218.959 287.927,216.995 287.702,215.055 287.512,213.142 287.355,211.259 287.231,209.407 287.136,207.588 287.071,205.805 287.032,204.058 287.019,202.349 287.029,200.679 287.063,199.049 287.116,197.46 287.19,195.911 287.281,194.403 287.389,192.936 287.512,191.511 287.649,190.126 287.799,188.782 287.961,187.478 288.133,186.214 288.316,184.99 288.506,183.804 288.704,182.656 288.91,181.545 289.121,180.471 289.337,179.432 289.558,178.428 289.783,177.459 290.011,176.522 290.242,175.618 290.475,174.745 290.709,173.903 290.944,173.09 291.181,172.306 291.417,171.55 291.654,170.821 291.89,170.118 292.125,169.44 292.359,168.787 292.592,168.157 292.824,167.551 293.054,166.966 293.282,166.403 293.508,165.861 293.732,165.338 293.953,164.835 294.172,164.35 294.388,163.883 294.602,163.433 294.812,162.999 295.02,162.582 295.225,162.18 295.428,161.793 295.627,161.42 295.823,161.061 296.016,160.716 296.206,160.383 296.392,160.062 296.576,159.753 296.757,159.456 296.934,159.169 297.108,158.894 297.28,158.628 297.448,158.372 297.613,158.126 297.775,157.888 297.934,157.66 298.09,157.439 298.243,157.227 298.393,157.023 298.54,156.826 298.684,156.636 298.826,156.453 298.964,156.277 299.1,156.108 299.234,155.944 299.364,155.787 299.492,155.635 299.617,155.489 299.74,155.348 299.86,155.212 299.978,155.081 300.093,154.955 300.206,154.834 300.316,154.717 300.424,154.604 300.53,154.495 300.633,154.39 300.735,154.289 300.834,154.191 300.931,154.097 301.026,154.007 301.119,153.92 301.21,153.835 301.299,153.754 301.386,153.676 301.471,153.6 301.555,153.528 301.636,153.457 301.716,153.39 301.794,153.324 301.87,153.261 301.945,153.201 302.018,153.142 302.089,153.086 302.159,153.031 302.227,152.979 302.294,152.928 302.359,152.879 302.423,152.832 302.486,152.787 302.547,152.743 302.607,152.7 302.665,152.66 302.722,152.62 302.778,152.582 302.832,152.545 302.886,152.51 302.938,152.476 302.989,152.443 303.039,152.411 303.087,152.381 303.135,152.351 303.182,152.322 303.227,152.295 303.272,152.268 303.315,152.243 303.358,152.218 303.399,152.194 303.44,152.171 303.48,152.149 303.519,152.127 303.557,152.106 303.594,152.086 303.63,152.067 303.665,152.048 303.7,152.03 303.734,152.013 303.767,151.996 303.799,151.98 303.831,151.964 303.862,151.949 303.892,151.935 303.922,151.921 303.951,151.907 303.979,151.894 304.007,151.881 304.033,151.869 304.06,151.857 304.086,151.846 304.111,151.835 304.135,151.825 304.159,151.814 304.183,151.804 304.206,151.795 304.228,151.786 304.25,151.777 304.272,151.768 304.293,151.76 304.313,151.752 304.333,151.744 304.353,151.737 304.372,151.729 304.391,151.722 304.409,151.716 304.427,151.709 304.444,151.703 304.461,151.697 304.478,151.691 304.494,151.685 304.51,151.68 304.526,151.675 304.541,151.67 304.556,151.665 304.57,151.66 304.584,151.655 304.598,151.651 304.612,151.647 304.625,151.643 304.638,151.639 304.651,151.635 304.663,151.631 304.675,151.628 304.687,151.624 304.698,151.621 304.71,151.618 304.721,151.614 304.732,151.611 304.742,151.608 304.752,151.606 304.762,151.603 304.772,151.6 304.782,151.598 304.791,151.595 304.8,151.593 304.809,151.591 304.818,151.589 304.827,151.586 304.835,151.584 304.843,151.582 304.851,151.58 304.859,151.579 304.867,151.577 304.874,151.575 304.881,151.573 304.888,151.572 304.895,151.57 304.902,151.569 304.909,151.567 304.915,151.566 304.922,151.565 304.928,151.563 304.934,151.562 304.94,151.561 304.946,151.56 304.951,151.558 304.957,151.557 304.962,151.556 304.967,151.555 304.973,151.554 304.978,151.553 304.983,151.552 304.987,151.552 304.992,151.551 304.997,151.55 305.001,151.549 305.006,151.548 305.01,151.548 305.014,151.547 305.018,151.546 305.022,151.545 305.026,151.545 305.03,151.544 305.034,151.544 305.037,151.543 305.041,151.542 305.044,151.542 305.048,151.541 305.051,151.541 305.054,151.54 305.058,151.54 305.061,151.539 305.064,151.539 305.067,151.538 305.07,151.538 305.072,151.538 305.075,151.537 305.078,151.537 305.08,151.537 305.083,151.536 305.086,151.536 305.088,151.535 305.09,151.535 305.093,151.535 305.095,151.535 305.097,151.534 305.1,151.534 305.102,151.534 305.104,151.534 305.106,151.533 305.108,151.533 305.11,151.533 305.112,151.533 305.114,151.532 305.115,151.532 305.117,151.532 305.119,151.532 305.121,151.532 305.122,151.531 305.124,151.531 305.126,151.531 305.127,151.531 305.129,151.531 305.13,151.531 305.132,151.53 305.133,151.53 305.134,151.53 305.136,151.53 305.137,151.53 305.138,151.53 305.14,151.53 305.141,151.53 305.142,151.529 305.143,151.529 305.144,151.529 305.146,151.529 305.147,151.529 305.148,151.529 305.149,151.529 305.15,151.529 305.151,151.529 305.152,151.529 305.153,151.528 305.154,151.528 305.155,151.528 305.156,151.528 305.156,151.528 305.157,151.528 305.158,151.528 305.159,151.528 305.16,151.528 305.16,151.528 305.161,151.528 305.162,151.528 305.163,151.528 305.163,151.528 305.164,151.528 305.165,151.528 305.165,151.528 305.166,151.527 305.167,151.527 305.167,151.527 305.168,151.527 305.169,151.527 305.169,151.527 305.17,151.527 305.17,151.527 305.171,151.527 305.171,151.527 305.172,151.527 305.172,151.527 305.173,151.527 305.173,151.527 305.174,151.527 305.174,151.527 305.175,151.527 305.175,151.527 305.176,151.527 305.176,151.527 305.176,151.527 305.177,151.527 305.177,151.527 305.178,151.527 305.178,151.527 305.178,151.527 305.179,151.527 305.179,151.527 305.179,151.527 305.18,151.527 305.18,151.527 305.18,151.527 305.181,151.527 305.181,151.527 305.181,151.527 305.182,151.527 305.182,151.527 305.182,151.527 305.182,151.527 305.183,151.527 305.183,151.527 305.183,151.527 305.183,151.527 305.184,151.527 305.184,151.527 305.184,151.526 305.184,151.526 305.185,151.526 305.185,151.526 305.185,151.526 305.185,151.526 305.185,151.526 305.186,151.526 305.186,151.526 305.186,151.526 305.186,151.526 305.186,151.526 305.186,151.526 305.187,151.526 305.187,151.526 305.187,151.526 305.187,151.526 305.187,151.526 305.187,151.526 305.188,151.526 305.188,151.526 305.188,151.526 305.188,151.526 305.188,151.526 305.188,151.526 305.188,151.526 305.189,151.526 305.189,151.526 305.189,151.526 305.189,151.526 305.189,151.526 305.189,151.526 305.189,151.526 305.189,151.526 305.189,151.526 305.19,151.526 305.19,151.526 305.19,151.526 305.19,151.526 305.19,151.526 305.19,151.526 305.19,151.526 305.19,151.526 305.19,151.526 305.19,151.526 305.19,151.526 305.191,151.526 305.191,151.526 305.191,151.526 305.191,151.526 305.191,151.526 305.191,151.526 305.191,151.526 305.191,151.526 305.191,151.526 305.191,151.526 305.191,151.526 305.191,151.526 305.191,151.526 305.191,151.526 305.191,151.526 305.191,151.526 305.192,151.526 305.192,151.526 305.192,151.526 305.192,151.526 305.192,151.526 305.192,151.526 305.192,151.526 305.192,151.526 305.192,151.526 305.192,151.526 305.192,151.526 305.192,151.526 305.192,151.526 305.192,151.526 305.192,151.526 305.192,151.526 305.192,151.526 305.192,151.526 305.192,151.526 305.192,151.526 305.192,151.526 305.192,151.526 305.193,151.526 305.193,151.526 305.193,151.526 305.193,151.526 305.193,151.526 305.193,151.526 305.193,151.526 305.193,151.526 305.193,151.526 305.193,151.526 305.193,151.526 305.193,151.526 305.193,151.526 305.193,151.526 305.193,151.526 305.193,151.526 305.193,151.526 305.193,151.526 305.193,151.526 305.193,151.526 305.193,151.526 305.193,151.526 305.193,151.526 305.193,151.526 305.193,151.526 305.193,151.526 305.193,151.526 305.193,151.526 305.193,151.526 305.193,151.526 305.193,151.526 305.193,151.526 305.193,151.526 305.193,151.526 305.193,151.526 305.193,151.526 305.193,151.526 305.193,151.526 305.193,151.526 305.193,151.526 305.193,151.526 305.193,151.526 305.193,151.526 305.193,151.526 305.193,151.526 305.193,151.526 305.193,151.526 305.193,151.526 305.193,151.526 305.193,151.526 305.193,151.526 305.193,151.526 305.193,151.526 305.194,151.526 305.194,151.526 305.194,151.526 305.194,151.526 305.194,151.526 305.194,151.526 305.194,151.526 305.194,151.526 305.194,151.526 305.194,151.526 305.194,151.526 305.194,151.526 305.194,151.526 305.194,151.526 305.194,151.526 305.194,151.526 305.194,151.526 305.194,151.526 305.194,151.526 305.194,151.526 305.194,151.526 305.194,151.526 305.194,151.526 305.194,151.526 305.194,151.526 305.194,151.526 305.194,151.526 305.194,151.526 305.194,151.526 305.194,151.526 305.194,151.526 305.194,151.526 305.194,151.526 305.194,151.526 305.194,151.526 305.194,151.526 305.194,151.526 305.194,151.526 305.194,151.526 305.194,151.526 305.194,151.526 305.194,151.526 305.194,151.526 305.194,151.526 305.194,151.526 305.194,151.526 305.194,151.526 305.194,151.526 305.194,151.526 305.194,151.526 305.194,151.526 305.194,151.526 305.194,151.526 305.194,151.526 305.194,151.526 305.194,151.526" stroke="#0071bc" stroke-linecap="butt" stroke-linejoin="round" stroke-width="0.5"/>
   <polyline fill="none" points="364.196,150.665 364.196,150.655 364.196,150.645 364.196,150.635 364.196,150.625 364.196,150.614 364.196,150.604 364.196,150.593 364.196,150.582 364.196,150.571 364.196,150.56 364.196,150.549 364.196,150.538 364.196,150.526 364.196,150.515 364.196,150.503 364.196,150.491 364.196,150.479 364.196,150.467 364.196,150.455 364.196,150.442 364.196,150.43 364.196,150.417 364.196,150.404 364.196,150.391 364.196,150.378 364.196,150.365 364.195,150.351 364.195,150.338 364.195,150.324 364.195,150.31 364.195,150.296 364.195,150.281 364.195,150.267 364.195,150.252 364.195,150.238 364.195,150.223 364.195,150.208 364.195,150.192 364.195,150.177 364.195,150.161 364.195,150.145 364.195,150.129 364.195,150.113 364.195,150.097 364.195,150.08 364.195,150.063 364.195,150.046 364.195,150.029 364.195,150.012 364.195,149.994 364.195,149.977 364.195,149.959 364.195,149.94 364.195,149.922 364.195,149.904 364.195,149.885 364.195,149.866 364.195,149.846 364.195,149.827 364.195,149.807 364.195,149.787 364.195,149.767 364.195,149.747 364.195,149.726 364.195,149.705 364.194,149.684 364.194,149.663 364.194,149.641 364.194,149.619 364.194,149.597 364.194,149.575 364.194,149.552 364.194,149.529 364.194,149.506 364.194,149.483 364.194,149.459 364.194,149.435 364.194,149.411 364.194,149.386 364.194,149.361 364.194,149.336 364.194,149.311 364.194,149.285 364.194,149.259 364.194,149.233 364.194,149.206 364.193,149.179 364.193,149.152 364.193,149.125 364.193,149.097 364.193,149.069 364.193,149.04 364.193,149.011 364.193,148.982 364.193,148.953 364.193,148.923 364.193,148.893 364.193,148.862 364.193,148.831 364.192,148.8 364.192,148.768 364.192,148.736 364.192,148.704 364.192,148.671 364.192,148.638 364.192,148.604 364.192,148.571 364.192,148.536 364.192,148.502 364.191,148.466 364.191,148.431 364.191,148.395 364.191,148.359 364.191,148.322 364.191,148.285 364.191,148.247 364.191,148.209 364.191,148.171 364.19,148.132 364.19,148.092 364.19,148.052 364.19,148.012 364.19,147.971 364.19,147.93 364.19,147.888 364.189,147.846 364.189,147.803 364.189,147.76 364.189,147.716 364.189,147.672 364.189,147.627 364.188,147.582 364.188,147.536 364.188,147.49 364.188,147.443 364.188,147.396 364.187,147.348 364.187,147.299 364.187,147.25 364.187,147.2 364.187,147.15 364.186,147.099 364.186,147.048 364.186,146.996 364.186,146.943 364.185,146.89 364.185,146.836 364.185,146.781 364.185,146.726 364.184,146.671 364.184,146.614 364.184,146.557 364.183,146.499 364.183,146.441 364.183,146.382 364.183,146.322 364.182,146.261 364.182,146.2 364.182,146.138 364.181,146.075 364.181,146.012 364.18,145.948 364.18,145.883 364.18,145.817 364.179,145.751 364.179,145.684 364.179,145.616 364.178,145.547 364.178,145.477 364.177,145.407 364.177,145.336 364.176,145.264 364.176,145.191 364.175,145.117 364.175,145.042 364.174,144.967 364.174,144.89 364.173,144.813 364.173,144.735 364.172,144.656 364.172,144.575 364.171,144.494 364.17,144.412 364.17,144.329 364.169,144.245 364.168,144.161 364.168,144.075 364.167,143.988 364.166,143.9 364.166,143.811 364.165,143.721 364.164,143.63 364.163,143.537 364.163,143.444 364.162,143.35 364.161,143.254 364.16,143.157 364.159,143.06 364.158,142.961 364.158,142.861 364.157,142.759 364.156,142.657 364.155,142.553 364.154,142.448 364.153,142.342 364.151,142.234 364.15,142.125 364.149,142.015 364.148,141.904 364.147,141.791 364.146,141.677 364.144,141.561 364.143,141.445 364.142,141.326 364.141,141.207 364.139,141.086 364.138,140.963 364.136,140.839 364.135,140.713 364.133,140.586 364.132,140.458 364.13,140.328 364.128,140.196 364.127,140.063 364.125,139.928 364.123,139.791 364.121,139.653 364.12,139.513 364.118,139.371 364.116,139.228 364.114,139.083 364.111,138.936 364.109,138.788 364.107,138.637 364.105,138.485 364.103,138.331 364.1,138.175 364.098,138.017 364.095,137.857 364.093,137.695 364.09,137.531 364.087,137.365 364.084,137.197 364.081,137.027 364.078,136.855 364.075,136.681 364.072,136.505 364.069,136.326 364.066,136.145 364.062,135.962 364.059,135.777 364.055,135.589 364.051,135.399 364.047,135.206 364.043,135.011 364.039,134.814 364.035,134.614 364.031,134.412 364.026,134.207 364.022,133.999 364.017,133.789 364.012,133.576 364.007,133.361 364.002,133.142 363.997,132.921 363.991,132.697 363.986,132.47 363.98,132.241 363.974,132.008 363.968,131.772 363.961,131.533 363.955,131.291 363.948,131.046 363.941,130.798 363.934,130.546 363.927,130.291 363.919,130.033 363.911,129.771 363.903,129.506 363.894,129.237 363.886,128.965 363.877,128.689 363.868,128.41 363.858,128.126 363.848,127.839 363.838,127.548 363.827,127.253 363.816,126.954 363.805,126.651 363.794,126.344 363.782,126.032 363.769,125.717 363.756,125.397 363.743,125.072 363.729,124.743 363.715,124.41 363.7,124.071 363.685,123.728 363.669,123.381 363.653,123.028 363.636,122.67 363.618,122.308 363.6,121.94 363.581,121.567 363.562,121.188 363.542,120.804 363.521,120.415 363.499,120.02 363.477,119.619 363.453,119.212 363.429,118.799 363.404,118.381 363.378,117.956 363.351,117.525 363.323,117.087 363.294,116.643 363.264,116.192 363.232,115.735 363.2,115.271 363.166,114.799 363.131,114.321 363.094,113.835 363.057,113.342 363.017,112.841 362.976,112.333 362.934,111.817 362.889,111.292 362.843,110.76 362.795,110.22 362.746,109.671 362.694,109.113 362.64,108.547 362.584,107.972 362.525,107.387 362.465,106.794 362.401,106.191 362.335,105.579 362.267,104.956 362.195,104.324 362.121,103.682 362.043,103.03 361.962,102.367 361.878,101.693 361.79,101.009 361.698,100.314 361.602,99.6076 361.503,98.8898 361.399,98.1606 361.29,97.4197 361.177,96.6669 361.059,95.9021 360.936,95.1251 360.807,94.3358 360.673,93.5339 360.533,92.7193 360.387,91.8919 360.235,91.0515 360.075,90.1981 359.909,89.3314 359.735,88.4514 359.554,87.5579 359.364,86.6509 359.167,85.7304 358.96,84.7962 358.744,83.8484 358.519,82.8869 358.283,81.9117 358.037,80.9229 357.78,79.9206 357.512,78.9049 357.232,77.8758 356.939,76.8337 356.633,75.7786 356.314,74.711 355.981,73.631 355.633,72.5391 355.269,71.4357 354.89,70.3213 354.494,69.1964 354.081,68.0618 353.649,66.918 353.2,65.7659 352.731,64.6065 352.242,63.4406 351.732,62.2693 351.201,61.0939 350.647,59.9156 350.071,58.736 349.472,57.5564 348.848,56.3786 348.199,55.2045 347.524,54.0359 346.824,52.8749 346.096,51.7239 345.341,50.5852 344.559,49.4614 343.747,48.3551 342.907,47.2692 342.038,46.2068 341.14,45.171 340.212,44.1651 339.255,43.1925 338.268,42.2569 337.252,41.3618 336.207,40.5112 335.133,39.7088 334.031,38.9586 332.902,38.2646 331.747,37.6308 330.566,37.0611 329.362,36.5595 328.134,36.1299 326.886,35.776 325.619,35.5015 324.334,35.3097 323.035,35.204 321.723,35.1872 320.401,35.2621 319.071,35.4309 317.736,35.6956 316.4,36.0578 315.065,36.5186 313.734,37.0787 312.41,37.7381 311.097,38.4967 309.798,39.3536 308.515,40.3074 307.253,41.3564 306.014,42.4981 305.194,43.3172 304.8,43.7298 303.615,45.0481 302.462,46.4494 301.342,47.9295 300.259,49.4839 299.214,51.1079 298.209,52.7963 297.246,54.5439 296.326,56.345 295.45,58.1942 294.62,60.0857 293.835,62.0138 293.096,63.9727 292.404,65.9569 291.758,67.9607 291.158,69.9789 290.604,72.006 290.095,74.0371 289.63,76.0674 289.208,78.0924 288.827,80.1077 288.488,82.1094 288.189,84.0938 287.927,86.0574 287.702,87.997 287.512,89.91 287.355,91.7937 287.231,93.6458 287.136,95.4645 287.071,97.2478 287.032,98.9945 287.019,100.703 287.029,102.373 287.063,104.003 287.116,105.593 287.19,107.142 287.281,108.649 287.389,110.116 287.512,111.542 287.649,112.926 287.799,114.27 287.961,115.574 288.133,116.838 288.316,118.063 288.506,119.249 288.704,120.397 288.91,121.508 289.121,122.582 289.337,123.62 289.558,124.624 289.783,125.594 290.011,126.53 290.242,127.435 290.475,128.308 290.709,129.15 290.944,129.963 291.181,130.747 291.417,131.503 291.654,132.232 291.89,132.935 292.125,133.612 292.359,134.266 292.592,134.895 292.824,135.502 293.054,136.086 293.282,136.649 293.508,137.192 293.732,137.714 293.953,138.218 294.172,138.703 294.388,139.17 294.602,139.62 294.812,140.053 295.02,140.47 295.225,140.872 295.428,141.259 295.627,141.632 295.823,141.991 296.016,142.337 296.206,142.67 296.392,142.99 296.576,143.299 296.757,143.597 296.934,143.883 297.108,144.159 297.28,144.424 297.448,144.68 297.613,144.927 297.775,145.164 297.934,145.393 298.09,145.613 298.243,145.825 298.393,146.03 298.54,146.227 298.684,146.416 298.826,146.599 298.964,146.775 299.1,146.945 299.234,147.108 299.364,147.266 299.492,147.417 299.617,147.564 299.74,147.704 299.86,147.84 299.978,147.971 300.093,148.097 300.206,148.219 300.316,148.336 300.424,148.449 300.53,148.558 300.633,148.662 300.735,148.764 300.834,148.861 300.931,148.955 301.026,149.046 301.119,149.133 301.21,149.217 301.299,149.298 301.386,149.377 301.471,149.452 301.555,149.525 301.636,149.595 301.716,149.663 301.794,149.728 301.87,149.791 301.945,149.852 302.018,149.91 302.089,149.967 302.159,150.021 302.227,150.074 302.294,150.124 302.359,150.173 302.423,150.22 302.486,150.266 302.547,150.31 302.607,150.352 302.665,150.393 302.722,150.432 302.778,150.47 302.832,150.507 302.886,150.542 302.938,150.577 302.989,150.609 303.039,150.641 303.087,150.672 303.135,150.701 303.182,150.73 303.227,150.758 303.272,150.784 303.315,150.81 303.358,150.835 303.399,150.859 303.44,150.882 303.48,150.904 303.519,150.925 303.557,150.946 303.594,150.966 303.63,150.985 303.665,151.004 303.7,151.022 303.734,151.039 303.767,151.056 303.799,151.072 303.831,151.088 303.862,151.103 303.892,151.118 303.922,151.132 303.951,151.145 303.979,151.158 304.007,151.171 304.033,151.183 304.06,151.195 304.086,151.206 304.111,151.217 304.135,151.228 304.159,151.238 304.183,151.248 304.206,151.258 304.228,151.267 304.25,151.276 304.272,151.284 304.293,151.293 304.313,151.301 304.333,151.308 304.353,151.316 304.372,151.323 304.391,151.33 304.409,151.337 304.427,151.343 304.444,151.349 304.461,151.355 304.478,151.361 304.494,151.367 304.51,151.372 304.526,151.378 304.541,151.383 304.556,151.388 304.57,151.392 304.584,151.397 304.598,151.401 304.612,151.406 304.625,151.41 304.638,151.414 304.651,151.418 304.663,151.421 304.675,151.425 304.687,151.428 304.698,151.432 304.71,151.435 304.721,151.438 304.732,151.441 304.742,151.444 304.752,151.447 304.762,151.449 304.772,151.452 304.782,151.455 304.791,151.457 304.8,151.459 304.809,151.462 304.818,151.464 304.827,151.466 304.835,151.468 304.843,151.47 304.851,151.472 304.859,151.474 304.867,151.476 304.874,151.477 304.881,151.479 304.888,151.481 304.895,151.482 304.902,151.484 304.909,151.485 304.915,151.487 304.922,151.488 304.928,151.489 304.934,151.49 304.94,151.492 304.946,151.493 304.951,151.494 304.957,151.495 304.962,151.496 304.967,151.497 304.973,151.498 304.978,151.499 304.983,151.5 304.987,151.501 304.992,151.502 304.997,151.503 305.001,151.503 305.006,151.504 305.01,151.505 305.014,151.506 305.018,151.506 305.022,151.507 305.026,151.508 305.03,151.508 305.034,151.509 305.037,151.51 305.041,151.51 305.044,151.511 305.048,151.511 305.051,151.512 305.054,151.512 305.058,151.513 305.061,151.513 305.064,151.514 305.067,151.514 305.07,151.514 305.072,151.515 305.075,151.515 305.078,151.516 305.08,151.516 305.083,151.516 305.086,151.517 305.088,151.517 305.09,151.517 305.093,151.518 305.095,151.518 305.097,151.518 305.1,151.518 305.102,151.519 305.104,151.519 305.106,151.519 305.108,151.519 305.11,151.52 305.112,151.52 305.114,151.52 305.115,151.52 305.117,151.521 305.119,151.521 305.121,151.521 305.122,151.521 305.124,151.521 305.126,151.521 305.127,151.522 305.129,151.522 305.13,151.522 305.132,151.522 305.133,151.522 305.134,151.522 305.136,151.522 305.137,151.523 305.138,151.523 305.14,151.523 305.141,151.523 305.142,151.523 305.143,151.523 305.144,151.523 305.146,151.523 305.147,151.523 305.148,151.524 305.149,151.524 305.15,151.524 305.151,151.524 305.152,151.524 305.153,151.524 305.154,151.524 305.155,151.524 305.156,151.524 305.156,151.524 305.157,151.524 305.158,151.524 305.159,151.524 305.16,151.525 305.16,151.525 305.161,151.525 305.162,151.525 305.163,151.525 305.163,151.525 305.164,151.525 305.165,151.525 305.165,151.525 305.166,151.525 305.167,151.525 305.167,151.525 305.168,151.525 305.169,151.525 305.169,151.525 305.17,151.525 305.17,151.525 305.171,151.525 305.171,151.525 305.172,151.525 305.172,151.525 305.173,151.525 305.173,151.525 305.174,151.525 305.174,151.525 305.175,151.526 305.175,151.526 305.176,151.526 305.176,151.526 305.176,151.526 305.177,151.526 305.177,151.526 305.178,151.526 305.178,151.526 305.178,151.526 305.179,151.526 305.179,151.526 305.179,151.526 305.18,151.526 305.18,151.526 305.18,151.526 305.181,151.526 305.181,151.526 305.181,151.526 305.182,151.526 305.182,151.526 305.182,151.526 305.182,151.526 305.183,151.526 305.183,151.526 305.183,151.526 305.183,151.526 305.184,151.526 305.184,151.526 305.184,151.526 305.184,151.526 305.185,151.526 305.185,151.526 305.185,151.526 305.185,151.526 305.185,151.526 305.186,151.526 305.186,151.526 305.186,151.526 305.186,151.526 305.186,151.526 305.186,151.526 305.187,151.526 305.187,151.526 305.187,151.526 305.187,151.526 305.187,151.526 305.187,151.526 305.188,151.526 305.188,151.526 305.188,151.526 305.188,151.526 305.188,151.526 305.188,151.526 305.188,151.526 305.189,151.526 305.189,151.526 305.189,151.526 305.189,151.526 305.189,151.526 305.189,151.526 305.189,151.526 305.189,151.526 305.189,151.526 305.19,151.526 305.19,151.526 305.19,151.526 305.19,151.526 305.19,151.526 305.19,151.526 305.19,151.526 305.19,151.526 305.19,151.526 305.19,151.526 305.19,151.526 305.191,151.526 305.191,151.526 305.191,151.526 305.191,151.526 305.191,151.526 305.191,151.526 305.191,151.526 305.191,151.526 305.191,151.526 305.191,151.526 305.191,151.526 305.191,151.526 305.191,151.526 305.191,151.526 305.191,151.526 305.191,151.526 305.192,151.526 305.192,151.526 305.192,151.526 305.192,151.526 305.192,151.526 305.192,151.526 305.192,151.526 305.192,151.526 305.192,151.526 305.192,151.526 305.192,151.526 305.192,151.526 305.192,151.526 305.192,151.526 305.192,151.526 305.192,151.526 305.192,151.526 305.192,151.526 305.192,151.526 305.192,151.526 305.192,151.526 305.192,151.526 305.193,151.526 305.193,151.526 305.193,151.526 305.193,151.526 305.193,151.526 305.193,151.526 305.193,151.526 305.193,151.526 305.193,151.526 305.193,151.526 305.193,151.526 305.193,151.526 305.193,151.526 305.193,151.526 305.193,151.526 305.193,151.526 305.193,151.526 305.193,151.526 305.193,151.526 305.193,151.526 305.193,151.526 305.193,151.526 305.193,151.526 305.193,151.526 305.193,151.526 305.193,151.526 305.193,151.526 305.193,151.526 305.193,151.526 305.193,151.526 305.193,151.526 305.193,151.526 305.193,151.526 305.193,151.526 305.193,151.526 305.193,151.526 305.193,151.526 305.193,151.526 305.193,151.526 305.193,151.526 305.193,151.526 305.193,151.526 305.193,151.526 305.193,151.526 305.193,151.526 305.193,151.526 305.193,151.526 305.193,151.526 305.193,151.526 305.193,151.526 305.193,151.526 305.193,151.526 305.193,151.526 305.194,151.526 305.194,151.526 305.194,151.526 305.194,151.526 305.194,151.526 305.194,151.526 305.194,151.526 305.194,151.526 305.194,151.526 305.194,151.526 305.194,151.526 305.194,151.526 305.194,151.526 305.194,151.526 305.194,151.526 305.194,151.526 305.194,151.526 305.194,151.526 305.194,151.526 305.194,151.526 305.194,151.526 305.194,151.526 305.194,151.526 305.194,151.526 305.194,151.526 305.194,151.526 305.194,151.526 305.194,151.526 305.194,151.526 305.194,151.526 305.194,151.526 305.194,151.526 305.194,151.526 305.194,151.526 305.194,151.526 305.194,151.526 305.194,151.526 305.194,151.526 305.194,151.526 305.194,151.526 305.194,151.526 305.194,151.526 305.194,151.526 305.194,151.526 305.194,151.526 305.194,151.526 305.194,151.526 305.194,151.526 305.194,151.526 305.194,151.526 305.194,151.526 305.194,151.526 305.194,151.526 305.194,151.526 305.194,151.526 305.194,151.526" stroke="#0071bc" stroke-dasharray="8,3,2,3" stroke-linecap="butt" stroke-linejoin="round" stroke-width="0.5"/>
   <polyline fill="none" points="66.1849,151.526 72.1848,151.526" stroke="#ff0000" stroke-linecap="square" stroke-linejoin="miter" stroke-width="0.5"/>
   <polyline fill="none" points="69.1848,148.526 69.1848,154.526" stroke="#ff0000" stroke-linecap="square" stroke-linejoin="miter" stroke-width="0.5"/>
  </g>
  <clipPath id="cp00418314">
   <polygon points="0,314 418,314 418,0 0,0"/>
  </clipPath>
  <g clip-path="url(#cp00418314)">
   <polygon fill="#ffffff" points="332.894,48.92 370.936,48.92 370.936,31.5638 332.894,31.5638" shape-rendering="crispEdges"/>
   <polyline fill="none" points="332.894,48.92 370.936,48.92" stroke="#262626" stroke-dasharray="16,0" stroke-linecap="square" stroke-linejoin="miter" stroke-width="0.5"/>
   <polyline fill="none" points="332.894,31.5638 370.936,31.5638" stroke="#262626" stroke-dasharray="16,0" stroke-linecap="square" stroke-linejoin="miter" stroke-width="0.5"/>
   <polyline fill="none" points="332.894,48.92 332.894,31.5638" stroke="#262626" stroke-dasharray="16,0" stroke-linecap="square" stroke-linejoin="miter" stroke-width="0.5"/>
   <polyline fill="none" points="370.936,48.92 370.936,31.5638" stroke="#262626" stroke-dasharray="16,0" stroke-linecap="square" stroke-linejoin="miter" stroke-width="0.5"/>
   <polyline fill="none" points="336.899,40.2419 356.925,40.2419" stroke="#0071bc" stroke-linecap="butt" stroke-linejoin="round" stroke-width="0.5"/>
   <g font-family="FreeSans" font-size="10" font-style="normal" font-weight="normal" transform="translate(360.931,44.7419) rotate(-0,-0,-4.5)" xml:space="preserve">
    <text fill="rgb(0,0,0)" x="0 " y="-2">g</text>
   </g>
  </g>
 </g>
</svg>
