<?xml version='1.0' encoding='UTF-8' standalone='no'?>
<svg height="360pt" viewBox="0 0 480 360" width="480pt" xmlns="http://www.w3.org/2000/svg" xmlns:xlink="http://www.w3.org/1999/xlink">
 <title>Pade approximation: Step response</title>
 <desc>
Creator: GL2PS 1.4.2, (C) 1999-2020 C. Geuzaine
For: Octave
CreationDate: Sun Feb 15 22:26:37 2026
</desc>
 <defs/>
 <polygon fill="#ffffff" points="0,0 480,0 480,360 0,360"/>
 <g>
  <polygon fill="#ffffff" points="0,360 480,360 480,0 0,0" shape-rendering="crispEdges"/>
  <clipPath id="cp00480360">
   <polygon points="0,360 480,360 480,0 0,0"/>
  </clipPath>
  <g clip-path="url(#cp00480360)">
   <polygon fill="#ffffff" points="62.4,320.4 434.4,320.4 434.4,27 62.4,27" shape-rendering="crispEdges"/>
   <polyline fill="none" points="62.4,320.4 62.4,27" stroke="#262626" stroke-dasharray="16,0" stroke-linecap="butt" stroke-linejoin="miter" stroke-opacity="0.15" stroke-width="0.5"/>
   <polyline fill="none" points="136.8,320.4 136.8,27" stroke="#262626" stroke-dasharray="16,0" stroke-linecap="butt" stroke-linejoin="miter" stroke-opacity="0.15" stroke-width="0.5"/>
   <polyline fill="none" points="211.2,320.4 211.2,27" stroke="#262626" stroke-dasharray="16,0" stroke-linecap="butt" stroke-linejoin="miter" stroke-opacity="0.15" stroke-width="0.5"/>
   <polyline fill="none" points="285.6,320.4 285.6,27" stroke="#262626" stroke-dasharray="16,0" stroke-linecap="butt" stroke-linejoin="miter" stroke-opacity="0.15" stroke-width="0.5"/>
   <polyline fill="none" points="360,320.4 360,27" stroke="#262626" stroke-dasharray="16,0" stroke-linecap="butt" stroke-linejoin="miter" stroke-opacity="0.15" stroke-width="0.5"/>
   <polyline fill="none" points="434.4,320.4 434.4,27" stroke="#262626" stroke-dasharray="16,0" stroke-linecap="butt" stroke-linejoin="miter" stroke-opacity="0.15" stroke-width="0.5"/>
   <polyline fill="none" points="62.4,320.4 62.4,316.675" stroke="#262626" stroke-linecap="butt" stroke-linejoin="miter" stroke-width="0.5"/>
   <polyline fill="none" points="62.4,27 62.4,30.7251" stroke="#262626" stroke-linecap="butt" stroke-linejoin="miter" stroke-width="0.5"/>
   <polyline fill="none" points="136.8,320.4 136.8,316.675" stroke="#262626" stroke-linecap="butt" stroke-linejoin="miter" stroke-width="0.5"/>
   <polyline fill="none" points="136.8,27 136.8,30.7251" stroke="#262626" stroke-linecap="butt" stroke-linejoin="miter" stroke-width="0.5"/>
   <polyline fill="none" points="211.2,320.4 211.2,316.675" stroke="#262626" stroke-linecap="butt" stroke-linejoin="miter" stroke-width="0.5"/>
   <polyline fill="none" points="211.2,27 211.2,30.7251" stroke="#262626" stroke-linecap="butt" stroke-linejoin="miter" stroke-width="0.5"/>
   <polyline fill="none" points="285.6,320.4 285.6,316.675" stroke="#262626" stroke-linecap="butt" stroke-linejoin="miter" stroke-width="0.5"/>
   <polyline fill="none" points="285.6,27 285.6,30.7251" stroke="#262626" stroke-linecap="butt" stroke-linejoin="miter" stroke-width="0.5"/>
   <polyline fill="none" points="360,320.4 360,316.675" stroke="#262626" stroke-linecap="butt" stroke-linejoin="miter" stroke-width="0.5"/>
   <polyline fill="none" points="360,27 360,30.7251" stroke="#262626" stroke-linecap="butt" stroke-linejoin="miter" stroke-width="0.5"/>
   <polyline fill="none" points="434.4,320.4 434.4,316.675" stroke="#262626" stroke-linecap="butt" stroke-linejoin="miter" stroke-width="0.5"/>
   <polyline fill="none" points="434.4,27 434.4,30.7251" stroke="#262626" stroke-linecap="butt" stroke-linejoin="miter" stroke-width="0.5"/>
   <g font-family="FreeSans" font-size="11.6513" font-style="normal" font-weight="normal" transform="translate(59.4,339.15) rotate(-0,3,-10)" xml:space="preserve">
    <text fill="rgb(38,38,38)" x="0 " y="-0">0</text>
   </g>
   <g font-family="FreeSans" font-size="11.6513" font-style="normal" font-weight="normal" transform="translate(129.3,339.15) rotate(-0,7.5,-10)" xml:space="preserve">
    <text fill="rgb(38,38,38)" x="0 6 9 " y="-0">0.5</text>
   </g>
   <g font-family="FreeSans" font-size="11.6513" font-style="normal" font-weight="normal" transform="translate(208.2,339.15) rotate(-0,3,-10)" xml:space="preserve">
    <text fill="rgb(38,38,38)" x="0 " y="-0">1</text>
   </g>
   <g font-family="FreeSans" font-size="11.6513" font-style="normal" font-weight="normal" transform="translate(278.1,339.15) rotate(-0,7.5,-10)" xml:space="preserve">
    <text fill="rgb(38,38,38)" x="0 6 9 " y="-0">1.5</text>
   </g>
   <g font-family="FreeSans" font-size="11.6513" font-style="normal" font-weight="normal" transform="translate(357,339.15) rotate(-0,3,-10)" xml:space="preserve">
    <text fill="rgb(38,38,38)" x="0 " y="-0">2</text>
   </g>
   <g font-family="FreeSans" font-size="11.6513" font-style="normal" font-weight="normal" transform="translate(426.9,339.15) rotate(-0,7.5,-10)" xml:space="preserve">
    <text fill="rgb(38,38,38)" x="0 6 9 " y="-0">2.5</text>
   </g>
   <polyline fill="none" points="62.4,320.4 434.4,320.4" stroke="#262626" stroke-dasharray="16,0" stroke-linecap="butt" stroke-linejoin="miter" stroke-opacity="0.15" stroke-width="0.5"/>
   <polyline fill="none" points="62.4,247.05 434.4,247.05" stroke="#262626" stroke-dasharray="16,0" stroke-linecap="butt" stroke-linejoin="miter" stroke-opacity="0.15" stroke-width="0.5"/>
   <polyline fill="none" points="62.4,173.7 434.4,173.7" stroke="#262626" stroke-dasharray="16,0" stroke-linecap="butt" stroke-linejoin="miter" stroke-opacity="0.15" stroke-width="0.5"/>
   <polyline fill="none" points="62.4,100.35 434.4,100.35" stroke="#262626" stroke-dasharray="16,0" stroke-linecap="butt" stroke-linejoin="miter" stroke-opacity="0.15" stroke-width="0.5"/>
   <polyline fill="none" points="62.4,27 434.4,27" stroke="#262626" stroke-dasharray="16,0" stroke-linecap="butt" stroke-linejoin="miter" stroke-opacity="0.15" stroke-width="0.5"/>
   <polyline fill="none" points="62.4,320.4 66.12,320.4" stroke="#262626" stroke-linecap="butt" stroke-linejoin="miter" stroke-width="0.5"/>
   <polyline fill="none" points="434.4,320.4 430.68,320.4" stroke="#262626" stroke-linecap="butt" stroke-linejoin="miter" stroke-width="0.5"/>
   <polyline fill="none" points="62.4,247.05 66.12,247.05" stroke="#262626" stroke-linecap="butt" stroke-linejoin="miter" stroke-width="0.5"/>
   <polyline fill="none" points="434.4,247.05 430.68,247.05" stroke="#262626" stroke-linecap="butt" stroke-linejoin="miter" stroke-width="0.5"/>
   <polyline fill="none" points="62.4,173.7 66.12,173.7" stroke="#262626" stroke-linecap="butt" stroke-linejoin="miter" stroke-width="0.5"/>
   <polyline fill="none" points="434.4,173.7 430.68,173.7" stroke="#262626" stroke-linecap="butt" stroke-linejoin="miter" stroke-width="0.5"/>
   <polyline fill="none" points="62.4,100.35 66.12,100.35" stroke="#262626" stroke-linecap="butt" stroke-linejoin="miter" stroke-width="0.5"/>
   <polyline fill="none" points="434.4,100.35 430.68,100.35" stroke="#262626" stroke-linecap="butt" stroke-linejoin="miter" stroke-width="0.5"/>
   <polyline fill="none" points="62.4,27 66.12,27" stroke="#262626" stroke-linecap="butt" stroke-linejoin="miter" stroke-width="0.5"/>
   <polyline fill="none" points="434.4,27 430.68,27" stroke="#262626" stroke-linecap="butt" stroke-linejoin="miter" stroke-width="0.5"/>
   <g font-family="FreeSans" font-size="11.6513" font-style="normal" font-weight="normal" transform="translate(37.5743,325.4) rotate(-0,19,-5)" xml:space="preserve">
    <text fill="rgb(38,38,38)" x="0 4 10 13 " y="-0">-0.5</text>
   </g>
   <g font-family="FreeSans" font-size="11.6513" font-style="normal" font-weight="normal" transform="translate(50.5743,252.05) rotate(-0,6,-5)" xml:space="preserve">
    <text fill="rgb(38,38,38)" x="0 " y="-0">0</text>
   </g>
   <g font-family="FreeSans" font-size="11.6513" font-style="normal" font-weight="normal" transform="translate(41.5743,178.7) rotate(-0,15,-5)" xml:space="preserve">
    <text fill="rgb(38,38,38)" x="0 6 9 " y="-0">0.5</text>
   </g>
   <g font-family="FreeSans" font-size="11.6513" font-style="normal" font-weight="normal" transform="translate(50.5743,105.35) rotate(-0,6,-5)" xml:space="preserve">
    <text fill="rgb(38,38,38)" x="0 " y="-0">1</text>
   </g>
   <g font-family="FreeSans" font-size="11.6513" font-style="normal" font-weight="normal" transform="translate(41.5743,32) rotate(-0,15,-5)" xml:space="preserve">
    <text fill="rgb(38,38,38)" x="0 6 9 " y="-0">1.5</text>
   </g>
   <polyline fill="none" points="62.4,320.4 434.4,320.4" stroke="#262626" stroke-dasharray="16,0" stroke-linecap="square" stroke-linejoin="miter" stroke-width="0.5"/>
   <polyline fill="none" points="62.4,27 434.4,27" stroke="#262626" stroke-dasharray="16,0" stroke-linecap="square" stroke-linejoin="miter" stroke-width="0.5"/>
   <polyline fill="none" points="62.4,320.4 62.4,27" stroke="#262626" stroke-dasharray="16,0" stroke-linecap="square" stroke-linejoin="miter" stroke-width="0.5"/>
   <polyline fill="none" points="434.4,320.4 434.4,27" stroke="#262626" stroke-dasharray="16,0" stroke-linecap="square" stroke-linejoin="miter" stroke-width="0.5"/>
   <polyline fill="none" points="62.4,100.35 66.12,214.15 69.84,275.547 73.56,301.199 77.28,303.828 81,292.934 84.72,275.409 88.44,256.066 92.16,238.084 95.88,223.383 99.6,212.935 103.32,207.02 107.04,205.435 110.76,207.658 114.48,212.98 118.2,220.604 121.92,229.719 125.64,239.555 129.36,249.416 133.08,258.709 136.8,266.947 140.52,273.757 144.24,278.878 147.96,282.15 151.68,283.504 155.4,282.952 159.12,280.57 162.84,276.489 166.56,270.877 170.28,263.933 174,255.87 177.72,246.911 181.44,237.277 185.16,227.183 188.88,216.829 192.6,206.401 196.32,196.065 200.04,185.966 203.76,176.225 207.48,166.945 211.2,158.203 214.92,150.058 218.64,142.552 222.36,135.705 226.08,129.527 229.8,124.011 233.52,119.141 237.24,114.889 240.96,111.225 244.68,108.107 248.4,105.494 252.12,103.342 255.84,101.603 259.56,100.232 263.28,99.1835 267,98.4147 270.72,97.8843 274.44,97.554 278.16,97.3888 281.88,97.3565 285.6,97.4287 289.32,97.5802 293.04,97.789 296.76,98.0363 300.48,98.3062 304.2,98.5858 307.92,98.8645 311.64,99.1339 315.36,99.3879 319.08,99.622 322.8,99.8331 326.52,100.02 330.24,100.181 333.96,100.317 337.68,100.429 341.4,100.519 345.12,100.587 348.84,100.637 352.56,100.67 356.28,100.689 360,100.695 363.72,100.691 367.44,100.679 371.16,100.66 374.88,100.637 378.6,100.611 382.32,100.583 386.04,100.554 389.76,100.525 393.48,100.496 397.2,100.47 400.92,100.445 404.64,100.422 408.36,100.402 412.08,100.384 415.8,100.368 419.52,100.355 423.24,100.344 426.96,100.335 430.68,100.328 434.4,100.323" stroke="#0071bc" stroke-linecap="butt" stroke-linejoin="round" stroke-width="1.5"/>
   <polyline fill="none" points="62.4,247.05 66.12,256.707 69.84,258.715 73.56,256.019 77.28,250.843 81,244.812 84.72,239.063 88.44,234.339 92.16,231.067 95.88,229.435 99.6,229.446 103.32,230.973 107.04,233.795 110.76,237.638 114.48,242.199 118.2,247.165 121.92,252.238 125.64,257.137 129.36,261.617 133.08,265.465 136.8,268.51 140.52,270.622 144.24,271.709 147.96,271.718 151.68,270.629 155.4,268.455 159.12,265.236 162.84,261.034 166.56,255.929 170.28,250.018 174,243.406 177.72,236.205 181.44,228.531 185.16,220.5 188.88,212.225 192.6,203.817 196.32,195.376 200.04,186.999 203.76,178.771 207.48,170.767 211.2,163.055 214.92,155.69 218.64,148.716 222.36,142.171 226.08,136.079 229.8,130.458 233.52,125.317 237.24,120.657 240.96,116.473 244.68,112.753 248.4,109.481 252.12,106.638 255.84,104.199 259.56,102.138 263.28,100.427 267,99.037 270.72,97.9378 274.44,97.0994 278.16,96.4922 281.88,96.0875 285.6,95.8577 289.32,95.7766 293.04,95.8195 296.76,95.9637 300.48,96.1884 304.2,96.4746 307.92,96.8054 311.64,97.1658 315.36,97.5429 319.08,97.9254 322.8,98.304 326.52,98.6709 330.24,99.0198 333.96,99.3461 337.68,99.646 341.4,99.9173 345.12,100.158 348.84,100.369 352.56,100.549 356.28,100.699 360,100.821 363.72,100.917 367.44,100.987 371.16,101.035 374.88,101.063 378.6,101.073 382.32,101.068 386.04,101.049 389.76,101.02 393.48,100.982 397.2,100.938 400.92,100.888 404.64,100.835 408.36,100.781 412.08,100.726 415.8,100.672 419.52,100.619 423.24,100.569 426.96,100.522 430.68,100.479 434.4,100.439" stroke="#d85218" stroke-linecap="butt" stroke-linejoin="round" stroke-width="1.5"/>
   <polyline fill="none" points="62.4,247.05 66.12,246.595 69.84,245.56 73.56,244.351 77.28,243.257 81,242.476 84.72,242.129 88.44,242.272 92.16,242.911 95.88,244.014 99.6,245.517 103.32,247.337 107.04,249.376 110.76,251.531 114.48,253.695 118.2,255.762 121.92,257.635 125.64,259.22 129.36,260.439 133.08,261.22 136.8,261.508 140.52,261.257 144.24,260.437 147.96,259.027 151.68,257.022 155.4,254.426 159.12,251.253 162.84,247.527 166.56,243.28 170.28,238.551 174,233.385 177.72,227.832 181.44,221.944 185.16,215.777 188.88,209.386 192.6,202.83 196.32,196.164 200.04,189.442 203.76,182.719 207.48,176.044 211.2,169.464 214.92,163.023 218.64,156.759 222.36,150.708 226.08,144.901 229.8,139.365 233.52,134.121 237.24,129.187 240.96,124.577 244.68,120.299 248.4,116.359 252.12,112.76 255.84,109.499 259.56,106.571 263.28,103.968 267,101.682 270.72,99.6988 274.44,98.0048 278.16,96.5844 281.88,95.4207 285.6,94.4956 289.32,93.7907 293.04,93.287 296.76,92.9654 300.48,92.807 304.2,92.7928 307.92,92.9047 311.64,93.1248 315.36,93.4363 319.08,93.823 322.8,94.2699 326.52,94.7627 330.24,95.2886 333.96,95.8355 337.68,96.3928 341.4,96.9509 345.12,97.5012 348.84,98.0365 352.56,98.5504 356.28,99.0378 360,99.4943 363.72,99.9167 367.44,100.303 371.16,100.65 374.88,100.959 378.6,101.228 382.32,101.458 386.04,101.65 389.76,101.805 393.48,101.924 397.2,102.011 400.92,102.066 404.64,102.094 408.36,102.095 412.08,102.072 415.8,102.029 419.52,101.968 423.24,101.892 426.96,101.803 430.68,101.704 434.4,101.597" stroke="#ecb01f" stroke-linecap="butt" stroke-linejoin="round" stroke-width="1.5"/>
   <polyline fill="none" points="62.4,247.05 211.2,247.05 211.2,100.35 434.4,100.35" stroke="#000000" stroke-dasharray="8,3,2,3" stroke-linecap="butt" stroke-linejoin="round" stroke-width="1"/>
  </g>
  <clipPath id="cp00480360">
   <polygon points="0,360 480,360 480,0 0,0"/>
  </clipPath>
  <g clip-path="url(#cp00480360)">
   <polygon fill="#ffffff" points="303.347,312.389 426.389,312.389 426.389,248.363 303.347,248.363" shape-rendering="crispEdges"/>
   <polyline fill="none" points="303.347,312.389 426.389,312.389" stroke="#262626" stroke-dasharray="16,0" stroke-linecap="square" stroke-linejoin="miter" stroke-width="0.5"/>
   <polyline fill="none" points="303.347,248.363 426.389,248.363" stroke="#262626" stroke-dasharray="16,0" stroke-linecap="square" stroke-linejoin="miter" stroke-width="0.5"/>
   <polyline fill="none" points="303.347,312.389 303.347,248.363" stroke="#262626" stroke-dasharray="16,0" stroke-linecap="square" stroke-linejoin="miter" stroke-width="0.5"/>
   <polyline fill="none" points="426.389,312.389 426.389,248.363" stroke="#262626" stroke-dasharray="16,0" stroke-linecap="square" stroke-linejoin="miter" stroke-width="0.5"/>
   <polyline fill="none" points="307.353,257.868 327.379,257.868" stroke="#0071bc" stroke-linecap="butt" stroke-linejoin="round" stroke-width="1.5"/>
   <g font-family="FreeSans" font-size="10.4862" font-style="normal" font-weight="normal" transform="translate(331.384,263.368) rotate(-0,-0,-5.5)" xml:space="preserve">
    <text fill="rgb(0,0,0)" x="0 7 13 19 25 28 34 40 46 49 52 61 67 " y="-2">Pade n=4, m=4</text>
   </g>
   <polyline fill="none" points="307.353,272.874 327.379,272.874" stroke="#d85218" stroke-linecap="butt" stroke-linejoin="round" stroke-width="1.5"/>
   <g font-family="FreeSans" font-size="10.4862" font-style="normal" font-weight="normal" transform="translate(331.384,278.374) rotate(-0,-0,-5.5)" xml:space="preserve">
    <text fill="rgb(0,0,0)" x="0 7 13 19 25 28 34 40 46 49 52 61 67 " y="-2">Pade n=4, m=3</text>
   </g>
   <polyline fill="none" points="307.353,287.879 327.379,287.879" stroke="#ecb01f" stroke-linecap="butt" stroke-linejoin="round" stroke-width="1.5"/>
   <g font-family="FreeSans" font-size="10.4862" font-style="normal" font-weight="normal" transform="translate(331.384,293.379) rotate(-0,-0,-5.5)" xml:space="preserve">
    <text fill="rgb(0,0,0)" x="0 7 13 19 25 28 34 40 46 49 52 61 67 " y="-2">Pade n=4, m=2</text>
   </g>
   <polyline fill="none" points="307.353,302.884 327.379,302.884" stroke="#000000" stroke-dasharray="8,3,2,3" stroke-linecap="butt" stroke-linejoin="round" stroke-width="1"/>
   <g font-family="FreeSans" font-size="10.4862" font-style="normal" font-weight="normal" transform="translate(331.384,308.384) rotate(-0,-0,-5.5)" xml:space="preserve">
    <text fill="rgb(0,0,0)" x="0 7 13 15 21 26 29 32 38 41 47 53 59 65 71 77 83 86 " y="-2">Delay  1.000e+00 s</text>
   </g>
  </g>
 </g>
</svg>
