<?xml version='1.0' encoding='UTF-8' standalone='no'?>
<svg height="360pt" viewBox="0 0 480 360" width="480pt" xmlns="http://www.w3.org/2000/svg" xmlns:xlink="http://www.w3.org/1999/xlink">
 <title>Figure 1</title>
 <desc>
Creator: GL2PS 1.4.2, (C) 1999-2020 C. Geuzaine
For: Octave
CreationDate: Sun Feb 15 20:18:56 2026
</desc>
 <defs/>
 <polygon fill="#ffffff" points="0,0 480,0 480,360 0,360"/>
 <g>
  <polygon fill="#ffffff" points="0,360 480,360 480,0 0,0" shape-rendering="crispEdges"/>
  <clipPath id="cp00480360">
   <polygon points="0,360 480,360 480,0 0,0"/>
  </clipPath>
  <g clip-path="url(#cp00480360)">
   <polygon fill="#ffffff" points="62.4,320.4 434.4,320.4 434.4,27 62.4,27" shape-rendering="crispEdges"/>
   <polyline fill="none" points="122.337,320.4 122.337,27" stroke="#262626" stroke-dasharray="16,0" stroke-linecap="butt" stroke-linejoin="miter" stroke-opacity="0.15" stroke-width="0.5"/>
   <polyline fill="none" points="186.878,320.4 186.878,27" stroke="#262626" stroke-dasharray="16,0" stroke-linecap="butt" stroke-linejoin="miter" stroke-opacity="0.15" stroke-width="0.5"/>
   <polyline fill="none" points="251.419,320.4 251.419,27" stroke="#262626" stroke-dasharray="16,0" stroke-linecap="butt" stroke-linejoin="miter" stroke-opacity="0.15" stroke-width="0.5"/>
   <polyline fill="none" points="315.96,320.4 315.96,27" stroke="#262626" stroke-dasharray="16,0" stroke-linecap="butt" stroke-linejoin="miter" stroke-opacity="0.15" stroke-width="0.5"/>
   <polyline fill="none" points="380.502,320.4 380.502,27" stroke="#262626" stroke-dasharray="16,0" stroke-linecap="butt" stroke-linejoin="miter" stroke-opacity="0.15" stroke-width="0.5"/>
   <polyline fill="none" points="122.337,320.4 122.337,316.675" stroke="#262626" stroke-linecap="butt" stroke-linejoin="miter" stroke-width="0.5"/>
   <polyline fill="none" points="122.337,27 122.337,30.7251" stroke="#262626" stroke-linecap="butt" stroke-linejoin="miter" stroke-width="0.5"/>
   <polyline fill="none" points="186.878,320.4 186.878,316.675" stroke="#262626" stroke-linecap="butt" stroke-linejoin="miter" stroke-width="0.5"/>
   <polyline fill="none" points="186.878,27 186.878,30.7251" stroke="#262626" stroke-linecap="butt" stroke-linejoin="miter" stroke-width="0.5"/>
   <polyline fill="none" points="251.419,320.4 251.419,316.675" stroke="#262626" stroke-linecap="butt" stroke-linejoin="miter" stroke-width="0.5"/>
   <polyline fill="none" points="251.419,27 251.419,30.7251" stroke="#262626" stroke-linecap="butt" stroke-linejoin="miter" stroke-width="0.5"/>
   <polyline fill="none" points="315.96,320.4 315.96,316.675" stroke="#262626" stroke-linecap="butt" stroke-linejoin="miter" stroke-width="0.5"/>
   <polyline fill="none" points="315.96,27 315.96,30.7251" stroke="#262626" stroke-linecap="butt" stroke-linejoin="miter" stroke-width="0.5"/>
   <polyline fill="none" points="380.502,320.4 380.502,316.675" stroke="#262626" stroke-linecap="butt" stroke-linejoin="miter" stroke-width="0.5"/>
   <polyline fill="none" points="380.502,27 380.502,30.7251" stroke="#262626" stroke-linecap="butt" stroke-linejoin="miter" stroke-width="0.5"/>
   <g font-family="FreeSans" font-size="11.6513" font-style="normal" font-weight="normal" transform="translate(117.337,339.15) rotate(-0,5,-10)" xml:space="preserve">
    <text fill="rgb(38,38,38)" x="0 4 " y="-0">-8</text>
   </g>
   <g font-family="FreeSans" font-size="11.6513" font-style="normal" font-weight="normal" transform="translate(181.878,339.15) rotate(-0,5,-10)" xml:space="preserve">
    <text fill="rgb(38,38,38)" x="0 4 " y="-0">-6</text>
   </g>
   <g font-family="FreeSans" font-size="11.6513" font-style="normal" font-weight="normal" transform="translate(246.419,339.15) rotate(-0,5,-10)" xml:space="preserve">
    <text fill="rgb(38,38,38)" x="0 4 " y="-0">-4</text>
   </g>
   <g font-family="FreeSans" font-size="11.6513" font-style="normal" font-weight="normal" transform="translate(310.96,339.15) rotate(-0,5,-10)" xml:space="preserve">
    <text fill="rgb(38,38,38)" x="0 4 " y="-0">-2</text>
   </g>
   <g font-family="FreeSans" font-size="11.6513" font-style="normal" font-weight="normal" transform="translate(377.502,339.15) rotate(-0,3,-10)" xml:space="preserve">
    <text fill="rgb(38,38,38)" x="0 " y="-0">0</text>
   </g>
   <polyline fill="none" points="62.4,304.707 434.4,304.707" stroke="#262626" stroke-dasharray="16,0" stroke-linecap="butt" stroke-linejoin="miter" stroke-opacity="0.15" stroke-width="0.5"/>
   <polyline fill="none" points="62.4,261.038 434.4,261.038" stroke="#262626" stroke-dasharray="16,0" stroke-linecap="butt" stroke-linejoin="miter" stroke-opacity="0.15" stroke-width="0.5"/>
   <polyline fill="none" points="62.4,217.369 434.4,217.369" stroke="#262626" stroke-dasharray="16,0" stroke-linecap="butt" stroke-linejoin="miter" stroke-opacity="0.15" stroke-width="0.5"/>
   <polyline fill="none" points="62.4,173.7 434.4,173.7" stroke="#262626" stroke-dasharray="16,0" stroke-linecap="butt" stroke-linejoin="miter" stroke-opacity="0.15" stroke-width="0.5"/>
   <polyline fill="none" points="62.4,130.031 434.4,130.031" stroke="#262626" stroke-dasharray="16,0" stroke-linecap="butt" stroke-linejoin="miter" stroke-opacity="0.15" stroke-width="0.5"/>
   <polyline fill="none" points="62.4,86.3619 434.4,86.3619" stroke="#262626" stroke-dasharray="16,0" stroke-linecap="butt" stroke-linejoin="miter" stroke-opacity="0.15" stroke-width="0.5"/>
   <polyline fill="none" points="62.4,42.6929 434.4,42.6929" stroke="#262626" stroke-dasharray="16,0" stroke-linecap="butt" stroke-linejoin="miter" stroke-opacity="0.15" stroke-width="0.5"/>
   <polyline fill="none" points="62.4,304.707 66.12,304.707" stroke="#262626" stroke-linecap="butt" stroke-linejoin="miter" stroke-width="0.5"/>
   <polyline fill="none" points="434.4,304.707 430.68,304.707" stroke="#262626" stroke-linecap="butt" stroke-linejoin="miter" stroke-width="0.5"/>
   <polyline fill="none" points="62.4,261.038 66.12,261.038" stroke="#262626" stroke-linecap="butt" stroke-linejoin="miter" stroke-width="0.5"/>
   <polyline fill="none" points="434.4,261.038 430.68,261.038" stroke="#262626" stroke-linecap="butt" stroke-linejoin="miter" stroke-width="0.5"/>
   <polyline fill="none" points="62.4,217.369 66.12,217.369" stroke="#262626" stroke-linecap="butt" stroke-linejoin="miter" stroke-width="0.5"/>
   <polyline fill="none" points="434.4,217.369 430.68,217.369" stroke="#262626" stroke-linecap="butt" stroke-linejoin="miter" stroke-width="0.5"/>
   <polyline fill="none" points="62.4,173.7 66.12,173.7" stroke="#262626" stroke-linecap="butt" stroke-linejoin="miter" stroke-width="0.5"/>
   <polyline fill="none" points="434.4,173.7 430.68,173.7" stroke="#262626" stroke-linecap="butt" stroke-linejoin="miter" stroke-width="0.5"/>
   <polyline fill="none" points="62.4,130.031 66.12,130.031" stroke="#262626" stroke-linecap="butt" stroke-linejoin="miter" stroke-width="0.5"/>
   <polyline fill="none" points="434.4,130.031 430.68,130.031" stroke="#262626" stroke-linecap="butt" stroke-linejoin="miter" stroke-width="0.5"/>
   <polyline fill="none" points="62.4,86.3619 66.12,86.3619" stroke="#262626" stroke-linecap="butt" stroke-linejoin="miter" stroke-width="0.5"/>
   <polyline fill="none" points="434.4,86.3619 430.68,86.3619" stroke="#262626" stroke-linecap="butt" stroke-linejoin="miter" stroke-width="0.5"/>
   <polyline fill="none" points="62.4,42.6929 66.12,42.6929" stroke="#262626" stroke-linecap="butt" stroke-linejoin="miter" stroke-width="0.5"/>
   <polyline fill="none" points="434.4,42.6929 430.68,42.6929" stroke="#262626" stroke-linecap="butt" stroke-linejoin="miter" stroke-width="0.5"/>
   <g font-family="FreeSans" font-size="11.6513" font-style="normal" font-weight="normal" transform="translate(46.5743,309.707) rotate(-0,10,-5)" xml:space="preserve">
    <text fill="rgb(38,38,38)" x="0 4 " y="-0">-6</text>
   </g>
   <g font-family="FreeSans" font-size="11.6513" font-style="normal" font-weight="normal" transform="translate(46.5743,266.038) rotate(-0,10,-5)" xml:space="preserve">
    <text fill="rgb(38,38,38)" x="0 4 " y="-0">-4</text>
   </g>
   <g font-family="FreeSans" font-size="11.6513" font-style="normal" font-weight="normal" transform="translate(46.5743,222.369) rotate(-0,10,-5)" xml:space="preserve">
    <text fill="rgb(38,38,38)" x="0 4 " y="-0">-2</text>
   </g>
   <g font-family="FreeSans" font-size="11.6513" font-style="normal" font-weight="normal" transform="translate(50.5743,178.7) rotate(-0,6,-5)" xml:space="preserve">
    <text fill="rgb(38,38,38)" x="0 " y="-0">0</text>
   </g>
   <g font-family="FreeSans" font-size="11.6513" font-style="normal" font-weight="normal" transform="translate(50.5743,135.031) rotate(-0,6,-5)" xml:space="preserve">
    <text fill="rgb(38,38,38)" x="0 " y="-0">2</text>
   </g>
   <g font-family="FreeSans" font-size="11.6513" font-style="normal" font-weight="normal" transform="translate(50.5743,91.3619) rotate(-0,6,-5)" xml:space="preserve">
    <text fill="rgb(38,38,38)" x="0 " y="-0">4</text>
   </g>
   <g font-family="FreeSans" font-size="11.6513" font-style="normal" font-weight="normal" transform="translate(50.5743,47.6929) rotate(-0,6,-5)" xml:space="preserve">
    <text fill="rgb(38,38,38)" x="0 " y="-0">6</text>
   </g>
   <polyline fill="none" points="62.4,320.4 434.4,320.4" stroke="#262626" stroke-dasharray="16,0" stroke-linecap="square" stroke-linejoin="miter" stroke-width="0.5"/>
   <polyline fill="none" points="62.4,27 434.4,27" stroke="#262626" stroke-dasharray="16,0" stroke-linecap="square" stroke-linejoin="miter" stroke-width="0.5"/>
   <polyline fill="none" points="62.4,320.4 62.4,27" stroke="#262626" stroke-dasharray="16,0" stroke-linecap="square" stroke-linejoin="miter" stroke-width="0.5"/>
   <polyline fill="none" points="434.4,320.4 434.4,27" stroke="#262626" stroke-dasharray="16,0" stroke-linecap="square" stroke-linejoin="miter" stroke-width="0.5"/>
   <g font-family="FreeSans" font-size="12.8165" font-style="normal" font-weight="normal" transform="translate(221.9,355.15) rotate(-0,26.5,-11)" xml:space="preserve">
    <text fill="rgb(38,38,38)" x="0 9 16 23 26 29 38 44 47 " y="-0">Real Axis</text>
   </g>
   <g font-family="FreeSans" font-size="12.8165" font-style="normal" font-weight="normal" transform="translate(0.574332,173.7) rotate(-90,41,0)" xml:space="preserve">
    <text fill="rgb(38,38,38)" x="0 4 14 21 28 31 38 45 49 55 58 67 73 76 " y="-3">Imaginary Axis</text>
   </g>
   <g font-family="FreeSans" font-size="12.8165" font-style="normal" font-weight="bold" transform="translate(146.4,17) rotate(-0,102,0)" xml:space="preserve">
    <text fill="rgb(0,0,0)" x="0 9 17 25 29 33 36 44 51 59 66 70 78 82 86 95 99 106 110 117 120 127 134 141 145 148 151 155 162 169 176 179 186 193 200 " y="-3">Root locus g (K = 0.000 .. 357.156)</text>
   </g>
   <polyline fill="none" points="305.203,173.7 430.633,26.7066" stroke="#000000" stroke-dasharray="9,7" stroke-linecap="butt" stroke-linejoin="round" stroke-width="0.5"/>
   <polyline fill="none" points="305.203,173.7 62.028,173.7" stroke="#000000" stroke-dasharray="9,7" stroke-linecap="butt" stroke-linejoin="round" stroke-width="0.5"/>
   <polyline fill="none" points="305.203,173.7 430.633,320.693" stroke="#000000" stroke-dasharray="9,7" stroke-linecap="butt" stroke-linejoin="round" stroke-width="0.5"/>
   <polyline fill="none" points="315.96,173.7 314.716,173.7 313.475,173.7 312.235,173.7 310.993,173.7 309.744,173.7 308.487,173.7 307.221,173.7 305.944,173.7 304.656,173.7 303.356,173.7 302.044,173.7 300.721,173.7 299.389,173.7 298.047,173.7 296.7,173.7 295.348,173.7 294.34,173.7 293.332,173.7 292.326,173.7 291.323,173.7 290.323,173.7 289.329,173.7 288.341,173.7 287.36,173.7 283.532,173.7 279.891,173.7 276.467,173.7 273.267,173.7 270.282,173.7 267.5,173.7 264.901,173.7 262.467,173.7 260.18,173.7 258.025,173.7 255.988,173.7 254.057,173.7 252.221,173.7 250.47,173.7 248.251,173.7 246.154,173.7 244.165,173.7 242.272,173.7 240.465,173.7 238.737,173.7 237.079,173.7 235.485,173.7 233.951,173.7 232.47,173.7 231.039,173.7 229.654,173.7 228.311,173.7 227.008,173.7 225.743,173.7 224.512,173.7 223.313,173.7 222.145,173.7 221.005,173.7 219.892,173.7 218.805,173.7 217.743,173.7 216.703,173.7 215.685,173.7 211.81,173.7 208.211,173.7 204.844,173.7 201.676,173.7 198.681,173.7 195.837,173.7 193.127,173.7 190.536,173.7 188.052,173.7 185.666,173.7 183.367,173.7 181.149,173.7 179.005,173.7 176.929,173.7 174.915,173.7 172.961,173.7 171.061,173.7 169.211,173.7 167.41,173.7 165.653,173.7 163.938,173.7 162.262,173.7 160.625,173.7 159.022,173.7 157.453,173.7 155.916,173.7 154.41,173.7 152.932,173.7 151.482,173.7 150.058,173.7 148.659,173.7 147.285,173.7 145.933,173.7 144.604,173.7 143.296,173.7 142.008,173.7 140.74,173.7 139.491,173.7 138.261,173.7 137.047,173.7 135.851,173.7 134.671,173.7 133.508,173.7 132.359,173.7 131.225,173.7 130.106,173.7 129,173.7 127.908,173.7 126.83,173.7 125.764,173.7 124.71,173.7 123.668,173.7 122.638,173.7 121.619,173.7 120.612,173.7 119.615,173.7 118.628,173.7 117.652,173.7 113.844,173.7 110.18,173.7 106.647,173.7 103.235,173.7 99.9333,173.7 96.7335,173.7 93.6283,173.7 90.6108,173.7 87.6752,173.7 84.8162,173.7 82.0289,173.7 79.3091,173.7" stroke="#0000ff" stroke-linecap="butt" stroke-linejoin="round" stroke-width="2"/>
   <polyline fill="none" points="348.231,173.7 349.003,173.7 349.762,173.7 350.514,173.7 351.263,173.7 352.014,173.7 352.772,173.7 353.543,173.7 354.333,173.7 355.15,173.7 356.004,173.7 356.909,173.7 357.885,173.7 358.968,173.7 360.223,173.7 361.823,173.7 365.579,173.7 365.601,175.86 365.622,176.746 365.64,177.421 365.657,177.985 365.672,178.479 365.685,178.922 365.697,179.326 365.707,179.7 365.734,180.981 365.742,182.034 365.731,182.942 365.704,183.745 365.663,184.469 365.608,185.13 365.542,185.74 365.465,186.307 365.377,186.836 365.28,187.334 365.174,187.804 365.06,188.248 364.938,188.669 364.809,189.07 364.626,189.576 364.432,190.052 364.227,190.5 364.012,190.923 363.789,191.322 363.558,191.699 363.319,192.055 363.073,192.392 362.822,192.711 362.565,193.011 362.304,193.295 362.04,193.562 361.772,193.813 361.502,194.049 361.23,194.271 360.958,194.478 360.685,194.672 360.413,194.852 360.143,195.02 359.875,195.176 359.609,195.32 359.347,195.454 359.089,195.576 358.834,195.689 357.869,196.052 356.997,196.299 356.225,196.46 355.547,196.56 354.956,196.617 354.441,196.645 353.991,196.653 353.596,196.649 353.248,196.635 352.94,196.617 352.666,196.594 352.421,196.57 352.2,196.545 352.001,196.519 351.82,196.493 351.656,196.468 351.505,196.443 351.367,196.42 351.24,196.396 351.123,196.374 351.014,196.352 350.913,196.332 350.82,196.312 350.732,196.293 350.65,196.275 350.573,196.257 350.501,196.24 350.434,196.224 350.37,196.209 350.309,196.194 350.252,196.18 350.198,196.166 350.147,196.153 350.099,196.14 350.052,196.128 350.008,196.116 349.967,196.105 349.927,196.094 349.888,196.083 349.852,196.073 349.817,196.064 349.783,196.054 349.751,196.045 349.72,196.036 349.691,196.028 349.663,196.019 349.635,196.011 349.609,196.004 349.583,195.996 349.559,195.989 349.535,195.982 349.513,195.975 349.491,195.968 349.469,195.962 349.449,195.956 349.429,195.95 349.41,195.944 349.391,195.938 349.322,195.917 349.261,195.897 349.206,195.88 349.157,195.864 349.113,195.849 349.072,195.836 349.035,195.824 349.002,195.812 348.971,195.802 348.942,195.792 348.915,195.783 348.891,195.775" stroke="#0000ff" stroke-linecap="butt" stroke-linejoin="round" stroke-width="2"/>
   <polyline fill="none" points="380.502,173.7 380.014,173.7 379.512,173.7 378.992,173.7 378.454,173.7 377.894,173.7 377.31,173.7 376.698,173.7 376.053,173.7 375.368,173.7 374.635,173.7 373.839,173.7 372.963,173.7 371.97,173.7 370.796,173.7 369.27,173.7 365.579,173.7 365.601,171.54 365.622,170.654 365.64,169.979 365.657,169.415 365.672,168.921 365.685,168.478 365.697,168.074 365.707,167.7 365.734,166.419 365.742,165.366 365.731,164.458 365.704,163.655 365.663,162.931 365.608,162.27 365.542,161.66 365.465,161.093 365.377,160.564 365.28,160.066 365.174,159.596 365.06,159.152 364.938,158.731 364.809,158.33 364.626,157.824 364.432,157.348 364.227,156.9 364.012,156.477 363.789,156.078 363.558,155.701 363.319,155.345 363.073,155.008 362.822,154.689 362.565,154.389 362.304,154.105 362.04,153.838 361.772,153.587 361.502,153.351 361.23,153.129 360.958,152.922 360.685,152.728 360.413,152.548 360.143,152.38 359.875,152.224 359.609,152.08 359.347,151.946 359.089,151.824 358.834,151.711 357.869,151.348 356.997,151.101 356.225,150.94 355.547,150.84 354.956,150.783 354.441,150.755 353.991,150.747 353.596,150.751 353.248,150.765 352.94,150.783 352.666,150.806 352.421,150.83 352.2,150.855 352.001,150.881 351.82,150.907 351.656,150.932 351.505,150.957 351.367,150.98 351.24,151.004 351.123,151.026 351.014,151.048 350.913,151.068 350.82,151.088 350.732,151.107 350.65,151.125 350.573,151.143 350.501,151.16 350.434,151.176 350.37,151.191 350.309,151.206 350.252,151.22 350.198,151.234 350.147,151.247 350.099,151.26 350.052,151.272 350.008,151.284 349.967,151.295 349.927,151.306 349.888,151.317 349.852,151.327 349.817,151.336 349.783,151.346 349.751,151.355 349.72,151.364 349.691,151.372 349.663,151.381 349.635,151.389 349.609,151.396 349.583,151.404 349.559,151.411 349.535,151.418 349.513,151.425 349.491,151.432 349.469,151.438 349.449,151.444 349.429,151.45 349.41,151.456 349.391,151.462 349.322,151.484 349.261,151.503 349.206,151.52 349.157,151.536 349.113,151.551 349.072,151.564 349.035,151.576 349.002,151.588 348.971,151.598 348.942,151.608 348.915,151.617 348.891,151.625" stroke="#0000ff" stroke-linecap="butt" stroke-linejoin="round" stroke-width="2"/>
   <polyline fill="none" points="283.69,217.369 284.17,217.179 284.662,216.993 285.165,216.809 285.682,216.63 286.21,216.454 286.751,216.285 287.305,216.121 287.871,215.963 288.449,215.813 289.039,215.671 289.64,215.539 290.252,215.416 290.873,215.303 291.503,215.202 292.14,215.113 292.783,215.036 293.265,214.987 293.748,214.946 294.233,214.911 294.718,214.884 295.203,214.865 295.687,214.853 296.169,214.847 296.649,214.849 298.536,214.922 300.349,215.086 302.072,215.321 303.699,215.608 305.232,215.932 306.678,216.281 308.044,216.645 309.338,217.018 310.569,217.395 311.743,217.774 312.868,218.151 313.947,218.526 314.987,218.898 315.992,219.266 317.285,219.752 318.528,220.23 319.727,220.7 320.888,221.164 322.014,221.622 323.11,222.073 324.178,222.52 325.22,222.962 326.239,223.401 327.236,223.836 328.212,224.268 329.17,224.698 330.109,225.127 331.03,225.554 331.935,225.981 332.823,226.407 333.695,226.832 334.551,227.258 335.391,227.683 336.215,228.109 337.024,228.535 337.818,228.961 338.596,229.387 339.359,229.813 342.262,231.514 344.934,233.201 347.389,234.863 349.651,236.489 351.739,238.072 353.676,239.608 355.482,241.097 357.172,242.537 358.762,243.931 360.263,245.28 361.687,246.587 363.041,247.853 364.334,249.082 365.571,250.274 366.758,251.433 367.9,252.561 369.001,253.658 370.063,254.728 371.091,255.771 372.087,256.789 373.053,257.783 373.992,258.755 374.904,259.706 375.793,260.637 376.659,261.548 377.505,262.441 378.33,263.317 379.137,264.176 379.926,265.02 380.698,265.848 381.454,266.661 382.195,267.461 382.922,268.248 383.636,269.021 384.336,269.783 385.024,270.532 385.699,271.27 386.364,271.997 387.018,272.714 387.661,273.42 388.294,274.117 388.917,274.804 389.531,275.482 390.136,276.151 390.733,276.811 391.321,277.463 391.901,278.107 392.473,278.743 393.038,279.371 393.595,279.992 394.146,280.606 394.69,281.212 395.227,281.813 395.757,282.406 396.282,282.993 396.8,283.574 397.312,284.148 397.819,284.717 399.792,286.936 401.685,289.071 403.506,291.129 405.262,293.118 406.957,295.042 408.597,296.907 410.187,298.716 411.729,300.475 413.228,302.186 414.686,303.853 416.106,305.478 417.491,307.064" stroke="#0000ff" stroke-linecap="butt" stroke-linejoin="round" stroke-width="2"/>
   <polyline fill="none" points="283.69,130.031 284.17,130.221 284.662,130.407 285.165,130.591 285.682,130.77 286.21,130.946 286.751,131.115 287.305,131.279 287.871,131.437 288.449,131.587 289.039,131.729 289.64,131.861 290.252,131.984 290.873,132.097 291.503,132.198 292.14,132.287 292.783,132.364 293.265,132.413 293.748,132.454 294.233,132.489 294.718,132.516 295.203,132.535 295.687,132.547 296.169,132.553 296.649,132.551 298.536,132.478 300.349,132.314 302.072,132.079 303.699,131.792 305.232,131.468 306.678,131.119 308.044,130.755 309.338,130.382 310.569,130.005 311.743,129.626 312.868,129.249 313.947,128.874 314.987,128.502 315.992,128.134 317.285,127.648 318.528,127.17 319.727,126.7 320.888,126.236 322.014,125.778 323.11,125.327 324.178,124.88 325.22,124.438 326.239,123.999 327.236,123.564 328.212,123.132 329.17,122.702 330.109,122.273 331.03,121.846 331.935,121.419 332.823,120.993 333.695,120.568 334.551,120.142 335.391,119.717 336.215,119.291 337.024,118.865 337.818,118.439 338.596,118.013 339.359,117.587 342.262,115.886 344.934,114.199 347.389,112.537 349.651,110.911 351.739,109.328 353.676,107.792 355.482,106.303 357.172,104.863 358.762,103.469 360.263,102.12 361.687,100.813 363.041,99.5469 364.334,98.3185 365.571,97.1258 366.758,95.9667 367.9,94.8393 369.001,93.7416 370.063,92.6721 371.091,91.629 372.087,90.6109 373.053,89.6165 373.992,88.6445 374.904,87.6938 375.793,86.7632 376.659,85.8518 377.505,84.9586 378.33,84.0829 379.137,83.2237 379.926,82.3804 380.698,81.5522 381.454,80.7385 382.195,79.9388 382.922,79.1523 383.636,78.3787 384.336,77.6174 385.024,76.8679 385.699,76.1298 386.364,75.4026 387.018,74.686 387.661,73.9797 388.294,73.2832 388.917,72.5962 389.531,71.9184 390.136,71.2495 390.733,70.5892 391.321,69.9373 391.901,69.2935 392.473,68.6575 393.038,68.0291 393.595,67.4081 394.146,66.7943 394.69,66.1875 395.227,65.5875 395.757,64.994 396.282,64.407 396.8,63.8262 397.312,63.2515 397.819,62.6828 399.792,60.4641 401.685,58.3293 403.506,56.271 405.262,54.2825 406.957,52.3583 408.597,50.4934 410.187,48.6835 411.729,46.9247 413.228,45.2136 414.686,43.5469 416.106,41.922 417.491,40.3364" stroke="#0000ff" stroke-linecap="butt" stroke-linejoin="round" stroke-width="2"/>
   <polyline fill="none" points="278.69,125.031 288.69,135.031" stroke="#bf0000" stroke-linecap="square" stroke-linejoin="miter" stroke-width="2"/>
   <polyline fill="none" points="278.69,135.031 288.69,125.031" stroke="#bf0000" stroke-linecap="square" stroke-linejoin="miter" stroke-width="2"/>
   <polyline fill="none" points="278.69,212.369 288.69,222.369" stroke="#bf0000" stroke-linecap="square" stroke-linejoin="miter" stroke-width="2"/>
   <polyline fill="none" points="278.69,222.369 288.69,212.369" stroke="#bf0000" stroke-linecap="square" stroke-linejoin="miter" stroke-width="2"/>
   <polyline fill="none" points="310.96,168.7 320.96,178.7" stroke="#bf0000" stroke-linecap="square" stroke-linejoin="miter" stroke-width="2"/>
   <polyline fill="none" points="310.96,178.7 320.96,168.7" stroke="#bf0000" stroke-linecap="square" stroke-linejoin="miter" stroke-width="2"/>
   <polyline fill="none" points="343.231,168.7 353.231,178.7" stroke="#bf0000" stroke-linecap="square" stroke-linejoin="miter" stroke-width="2"/>
   <polyline fill="none" points="343.231,178.7 353.231,168.7" stroke="#bf0000" stroke-linecap="square" stroke-linejoin="miter" stroke-width="2"/>
   <polyline fill="none" points="375.502,168.7 385.502,178.7" stroke="#bf0000" stroke-linecap="square" stroke-linejoin="miter" stroke-width="2"/>
   <polyline fill="none" points="375.502,178.7 385.502,168.7" stroke="#bf0000" stroke-linecap="square" stroke-linejoin="miter" stroke-width="2"/>
   <polyline fill="none" points="353.231,151.865 352.736,154.035 351.348,155.775 349.344,156.74 347.118,156.74 345.114,155.775 343.726,154.035 343.231,151.865 343.726,149.696 345.114,147.956 347.118,146.991 349.344,146.991 351.348,147.956 352.736,149.696 353.231,151.865" stroke="#00bf00" stroke-linecap="round" stroke-linejoin="round" stroke-width="2"/>
   <polyline fill="none" points="353.231,195.535 352.736,197.704 351.348,199.444 349.344,200.409 347.118,200.409 345.114,199.444 343.726,197.704 343.231,195.535 343.726,193.365 345.114,191.625 347.118,190.66 349.344,190.66 351.348,191.625 352.736,193.365 353.231,195.535" stroke="#00bf00" stroke-linecap="round" stroke-linejoin="round" stroke-width="2"/>
  </g>
  <clipPath id="cp00480360">
   <polygon points="0,360 480,360 480,0 0,0"/>
  </clipPath>
  <g clip-path="url(#cp00480360)">
   <polygon fill="#ffffff" points="319.347,97.8368 426.389,97.8368 426.389,35.0105 319.347,35.0105" shape-rendering="crispEdges"/>
   <polyline fill="none" points="319.347,97.8368 426.389,97.8368" stroke="#262626" stroke-dasharray="16,0" stroke-linecap="square" stroke-linejoin="miter" stroke-width="0.5"/>
   <polyline fill="none" points="319.347,35.0105 426.389,35.0105" stroke="#262626" stroke-dasharray="16,0" stroke-linecap="square" stroke-linejoin="miter" stroke-width="0.5"/>
   <polyline fill="none" points="319.347,97.8368 319.347,35.0105" stroke="#262626" stroke-dasharray="16,0" stroke-linecap="square" stroke-linejoin="miter" stroke-width="0.5"/>
   <polyline fill="none" points="426.389,97.8368 426.389,35.0105" stroke="#262626" stroke-dasharray="16,0" stroke-linecap="square" stroke-linejoin="miter" stroke-width="0.5"/>
   <polyline fill="none" points="323.353,44.5158 343.379,44.5158" stroke="#000000" stroke-dasharray="9,7" stroke-linecap="butt" stroke-linejoin="round" stroke-width="0.5"/>
   <g font-family="FreeSans" font-size="10.4862" font-style="normal" font-weight="normal" transform="translate(347.384,50.0158) rotate(-0,-0,-5.5)" xml:space="preserve">
    <text fill="rgb(0,0,0)" x="0 6 11 16 25 31 34 40 43 49 " y="-3">asymptotes</text>
   </g>
   <polyline fill="none" points="323.353,59.0211 343.379,59.0211" stroke="#0000ff" stroke-linecap="butt" stroke-linejoin="round" stroke-width="2"/>
   <g font-family="FreeSans" font-size="10.4862" font-style="normal" font-weight="normal" transform="translate(347.384,64.0211) rotate(-0,-0,-5)" xml:space="preserve">
    <text fill="rgb(0,0,0)" x="0 2 8 13 19 " y="-1">locus</text>
   </g>
   <polyline fill="none" points="329.366,70.0263 337.366,78.0263" stroke="#bf0000" stroke-linecap="square" stroke-linejoin="miter" stroke-width="2"/>
   <polyline fill="none" points="329.366,78.0263 337.366,70.0263" stroke="#bf0000" stroke-linecap="square" stroke-linejoin="miter" stroke-width="2"/>
   <g font-family="FreeSans" font-size="10.4862" font-style="normal" font-weight="normal" transform="translate(347.384,80.0263) rotate(-0,-0,-6)" xml:space="preserve">
    <text fill="rgb(0,0,0)" x="0 6 12 18 24 27 29 35 41 47 50 56 62 64 70 " y="-3">open loop poles</text>
   </g>
   <polyline fill="none" points="337.366,88.9316 336.97,90.6671 335.86,92.0589 334.256,92.8313 332.476,92.8313 330.872,92.0589 329.762,90.6671 329.366,88.9316 329.762,87.196 330.872,85.8043 332.476,85.0319 334.256,85.0319 335.86,85.8043 336.97,87.196 337.366,88.9316" stroke="#00bf00" stroke-linecap="round" stroke-linejoin="round" stroke-width="2"/>
   <g font-family="FreeSans" font-size="10.4862" font-style="normal" font-weight="normal" transform="translate(347.384,92.4316) rotate(-0,-0,-3.5)" xml:space="preserve">
    <text fill="rgb(0,0,0)" x="0 5 11 14 20 " y="-0">zeros</text>
   </g>
  </g>
 </g>
</svg>
