<?xml version='1.0' encoding='UTF-8' standalone='no'?>
<svg height="360pt" viewBox="0 0 480 360" width="480pt" xmlns="http://www.w3.org/2000/svg" xmlns:xlink="http://www.w3.org/1999/xlink">
 <title>Figure 1</title>
 <desc>
Creator: GL2PS 1.4.2, (C) 1999-2020 C. Geuzaine
For: Octave
CreationDate: Sun Feb 15 22:27:23 2026
</desc>
 <defs/>
 <polygon fill="#ffffff" points="0,0 480,0 480,360 0,360"/>
 <g>
  <polygon fill="#ffffff" points="0,360 480,360 480,0 0,0" shape-rendering="crispEdges"/>
  <clipPath id="cp00480360">
   <polygon points="0,360 480,360 480,0 0,0"/>
  </clipPath>
  <g clip-path="url(#cp00480360)">
   <polygon fill="#ffffff" points="62.4,320.4 434.4,320.4 434.4,27 62.4,27" shape-rendering="crispEdges"/>
   <polyline fill="none" points="100.165,320.4 100.165,27" stroke="#262626" stroke-dasharray="16,0" stroke-linecap="butt" stroke-linejoin="miter" stroke-opacity="0.15" stroke-width="0.5"/>
   <polyline fill="none" points="155.868,320.4 155.868,27" stroke="#262626" stroke-dasharray="16,0" stroke-linecap="butt" stroke-linejoin="miter" stroke-opacity="0.15" stroke-width="0.5"/>
   <polyline fill="none" points="211.572,320.4 211.572,27" stroke="#262626" stroke-dasharray="16,0" stroke-linecap="butt" stroke-linejoin="miter" stroke-opacity="0.15" stroke-width="0.5"/>
   <polyline fill="none" points="267.275,320.4 267.275,27" stroke="#262626" stroke-dasharray="16,0" stroke-linecap="butt" stroke-linejoin="miter" stroke-opacity="0.15" stroke-width="0.5"/>
   <polyline fill="none" points="322.978,320.4 322.978,27" stroke="#262626" stroke-dasharray="16,0" stroke-linecap="butt" stroke-linejoin="miter" stroke-opacity="0.15" stroke-width="0.5"/>
   <polyline fill="none" points="378.681,320.4 378.681,27" stroke="#262626" stroke-dasharray="16,0" stroke-linecap="butt" stroke-linejoin="miter" stroke-opacity="0.15" stroke-width="0.5"/>
   <polyline fill="none" points="434.385,320.4 434.385,27" stroke="#262626" stroke-dasharray="16,0" stroke-linecap="butt" stroke-linejoin="miter" stroke-opacity="0.15" stroke-width="0.5"/>
   <polyline fill="none" points="100.165,320.4 100.165,316.675" stroke="#262626" stroke-linecap="butt" stroke-linejoin="miter" stroke-width="0.5"/>
   <polyline fill="none" points="100.165,27 100.165,30.7251" stroke="#262626" stroke-linecap="butt" stroke-linejoin="miter" stroke-width="0.5"/>
   <polyline fill="none" points="155.868,320.4 155.868,316.675" stroke="#262626" stroke-linecap="butt" stroke-linejoin="miter" stroke-width="0.5"/>
   <polyline fill="none" points="155.868,27 155.868,30.7251" stroke="#262626" stroke-linecap="butt" stroke-linejoin="miter" stroke-width="0.5"/>
   <polyline fill="none" points="211.572,320.4 211.572,316.675" stroke="#262626" stroke-linecap="butt" stroke-linejoin="miter" stroke-width="0.5"/>
   <polyline fill="none" points="211.572,27 211.572,30.7251" stroke="#262626" stroke-linecap="butt" stroke-linejoin="miter" stroke-width="0.5"/>
   <polyline fill="none" points="267.275,320.4 267.275,316.675" stroke="#262626" stroke-linecap="butt" stroke-linejoin="miter" stroke-width="0.5"/>
   <polyline fill="none" points="267.275,27 267.275,30.7251" stroke="#262626" stroke-linecap="butt" stroke-linejoin="miter" stroke-width="0.5"/>
   <polyline fill="none" points="322.978,320.4 322.978,316.675" stroke="#262626" stroke-linecap="butt" stroke-linejoin="miter" stroke-width="0.5"/>
   <polyline fill="none" points="322.978,27 322.978,30.7251" stroke="#262626" stroke-linecap="butt" stroke-linejoin="miter" stroke-width="0.5"/>
   <polyline fill="none" points="378.681,320.4 378.681,316.675" stroke="#262626" stroke-linecap="butt" stroke-linejoin="miter" stroke-width="0.5"/>
   <polyline fill="none" points="378.681,27 378.681,30.7251" stroke="#262626" stroke-linecap="butt" stroke-linejoin="miter" stroke-width="0.5"/>
   <polyline fill="none" points="434.385,320.4 434.385,316.675" stroke="#262626" stroke-linecap="butt" stroke-linejoin="miter" stroke-width="0.5"/>
   <polyline fill="none" points="434.385,27 434.385,30.7251" stroke="#262626" stroke-linecap="butt" stroke-linejoin="miter" stroke-width="0.5"/>
   <g font-family="FreeSans" font-size="11.6513" font-style="normal" font-weight="normal" transform="translate(95.1651,339.15) rotate(-0,5,-10)" xml:space="preserve">
    <text fill="rgb(38,38,38)" x="0 4 " y="-0">-5</text>
   </g>
   <g font-family="FreeSans" font-size="11.6513" font-style="normal" font-weight="normal" transform="translate(150.868,339.15) rotate(-0,5,-10)" xml:space="preserve">
    <text fill="rgb(38,38,38)" x="0 4 " y="-0">-4</text>
   </g>
   <g font-family="FreeSans" font-size="11.6513" font-style="normal" font-weight="normal" transform="translate(206.572,339.15) rotate(-0,5,-10)" xml:space="preserve">
    <text fill="rgb(38,38,38)" x="0 4 " y="-0">-3</text>
   </g>
   <g font-family="FreeSans" font-size="11.6513" font-style="normal" font-weight="normal" transform="translate(262.275,339.15) rotate(-0,5,-10)" xml:space="preserve">
    <text fill="rgb(38,38,38)" x="0 4 " y="-0">-2</text>
   </g>
   <g font-family="FreeSans" font-size="11.6513" font-style="normal" font-weight="normal" transform="translate(317.978,339.15) rotate(-0,5,-10)" xml:space="preserve">
    <text fill="rgb(38,38,38)" x="0 4 " y="-0">-1</text>
   </g>
   <g font-family="FreeSans" font-size="11.6513" font-style="normal" font-weight="normal" transform="translate(375.681,339.15) rotate(-0,3,-10)" xml:space="preserve">
    <text fill="rgb(38,38,38)" x="0 " y="-0">0</text>
   </g>
   <g font-family="FreeSans" font-size="11.6513" font-style="normal" font-weight="normal" transform="translate(431.385,339.15) rotate(-0,3,-10)" xml:space="preserve">
    <text fill="rgb(38,38,38)" x="0 " y="-0">1</text>
   </g>
   <polyline fill="none" points="62.4,250.965 434.4,250.965" stroke="#262626" stroke-dasharray="16,0" stroke-linecap="butt" stroke-linejoin="miter" stroke-opacity="0.15" stroke-width="0.5"/>
   <polyline fill="none" points="62.4,173.7 434.4,173.7" stroke="#262626" stroke-dasharray="16,0" stroke-linecap="butt" stroke-linejoin="miter" stroke-opacity="0.15" stroke-width="0.5"/>
   <polyline fill="none" points="62.4,96.4351 434.4,96.4351" stroke="#262626" stroke-dasharray="16,0" stroke-linecap="butt" stroke-linejoin="miter" stroke-opacity="0.15" stroke-width="0.5"/>
   <polyline fill="none" points="62.4,250.965 66.12,250.965" stroke="#262626" stroke-linecap="butt" stroke-linejoin="miter" stroke-width="0.5"/>
   <polyline fill="none" points="434.4,250.965 430.68,250.965" stroke="#262626" stroke-linecap="butt" stroke-linejoin="miter" stroke-width="0.5"/>
   <polyline fill="none" points="62.4,173.7 66.12,173.7" stroke="#262626" stroke-linecap="butt" stroke-linejoin="miter" stroke-width="0.5"/>
   <polyline fill="none" points="434.4,173.7 430.68,173.7" stroke="#262626" stroke-linecap="butt" stroke-linejoin="miter" stroke-width="0.5"/>
   <polyline fill="none" points="62.4,96.4351 66.12,96.4351" stroke="#262626" stroke-linecap="butt" stroke-linejoin="miter" stroke-width="0.5"/>
   <polyline fill="none" points="434.4,96.4351 430.68,96.4351" stroke="#262626" stroke-linecap="butt" stroke-linejoin="miter" stroke-width="0.5"/>
   <g font-family="FreeSans" font-size="11.6513" font-style="normal" font-weight="normal" transform="translate(46.5743,255.965) rotate(-0,10,-5)" xml:space="preserve">
    <text fill="rgb(38,38,38)" x="0 4 " y="-0">-2</text>
   </g>
   <g font-family="FreeSans" font-size="11.6513" font-style="normal" font-weight="normal" transform="translate(50.5743,178.7) rotate(-0,6,-5)" xml:space="preserve">
    <text fill="rgb(38,38,38)" x="0 " y="-0">0</text>
   </g>
   <g font-family="FreeSans" font-size="11.6513" font-style="normal" font-weight="normal" transform="translate(50.5743,101.435) rotate(-0,6,-5)" xml:space="preserve">
    <text fill="rgb(38,38,38)" x="0 " y="-0">2</text>
   </g>
   <polyline fill="none" points="62.4,320.4 434.4,320.4" stroke="#262626" stroke-dasharray="16,0" stroke-linecap="square" stroke-linejoin="miter" stroke-width="0.5"/>
   <polyline fill="none" points="62.4,27 434.4,27" stroke="#262626" stroke-dasharray="16,0" stroke-linecap="square" stroke-linejoin="miter" stroke-width="0.5"/>
   <polyline fill="none" points="62.4,320.4 62.4,27" stroke="#262626" stroke-dasharray="16,0" stroke-linecap="square" stroke-linejoin="miter" stroke-width="0.5"/>
   <polyline fill="none" points="434.4,320.4 434.4,27" stroke="#262626" stroke-dasharray="16,0" stroke-linecap="square" stroke-linejoin="miter" stroke-width="0.5"/>
   <g font-family="FreeSans" font-size="12.8165" font-style="normal" font-weight="normal" transform="translate(221.9,355.15) rotate(-0,26.5,-11)" xml:space="preserve">
    <text fill="rgb(38,38,38)" x="0 9 16 23 26 29 38 44 47 " y="-0">Real Axis</text>
   </g>
   <g font-family="FreeSans" font-size="12.8165" font-style="normal" font-weight="normal" transform="translate(0.574332,173.7) rotate(-90,41,0)" xml:space="preserve">
    <text fill="rgb(38,38,38)" x="0 4 14 21 28 31 38 45 49 55 58 67 73 76 " y="-3">Imaginary Axis</text>
   </g>
   <g font-family="FreeSans" font-size="12.8165" font-style="normal" font-weight="bold" transform="translate(143.4,17) rotate(-0,105,0)" xml:space="preserve">
    <text fill="rgb(0,0,0)" x="0 9 17 25 29 33 36 44 51 59 66 70 77 84 91 95 99 108 112 119 123 130 133 140 147 154 158 161 164 168 175 182 185 192 199 206 " y="-3">Root locus sys (K = 0.000 .. 66.593)</text>
   </g>
   <polyline fill="none" points="304.41,173.7 426.778,26.7066" stroke="#000000" stroke-dasharray="9,7" stroke-linecap="butt" stroke-linejoin="round" stroke-width="0.5"/>
   <polyline fill="none" points="304.41,173.7 62.0281,173.7" stroke="#000000" stroke-dasharray="9,7" stroke-linecap="butt" stroke-linejoin="round" stroke-width="0.5"/>
   <polyline fill="none" points="304.41,173.7 426.778,320.693" stroke="#000000" stroke-dasharray="9,7" stroke-linecap="butt" stroke-linejoin="round" stroke-width="0.5"/>
   <polyline fill="none" points="378.681,173.7 377.367,173.7 376.001,173.7 374.575,173.7 373.085,173.7 371.522,173.7 369.875,173.7 368.133,173.7 366.28,173.7 364.297,173.7 362.156,173.7 359.822,173.7 357.242,173.7 356.55,173.7 355.837,173.7 355.1,173.7 354.338,173.7 353.547,173.7 352.726,173.7 351.87,173.7 350.977,173.7 350.04,173.7 349.055,173.7 348.015,173.7 346.91,173.7 345.729,173.7 344.457,173.7 343.073,173.7 342.706,173.7 342.33,173.7 341.943,173.7 341.845,173.7 341.746,173.7 341.646,173.7 341.546,173.7 341.416,173.7 341.286,173.7 341.154,173.7 341.02,173.7 340.473,173.7 339.903,173.7 339.306,173.7 338.68,173.7 338.019,173.7 337.318,173.7 336.571,173.7 335.767,173.7 334.895,173.7 333.934,173.7 332.858,173.7 331.616,173.7 330.115,173.7 328.107,173.7 327.444,173.7 326.649,173.7 325.597,173.7 322.978,173.7 323.01,175.013 323.042,175.556 323.074,175.972 323.106,176.321 323.231,177.396 323.355,178.215 323.476,178.899 323.942,180.979 324.381,182.531 324.796,183.809 325.191,184.91 325.569,185.886 325.93,186.767 326.277,187.573 326.611,188.318 326.933,189.013 327.244,189.665 327.546,190.28 328.668,192.452 329.17,193.376 329.65,194.236 330.109,195.043 330.55,195.802 330.975,196.521 331.385,197.205 331.781,197.857 332.165,198.48 333.592,200.742 334.878,202.718 336.055,204.481 337.143,206.081 338.157,207.551 339.11,208.913 340.009,210.185 340.862,211.381 341.674,212.511 342.451,213.582 343.194,214.603 343.909,215.579 344.598,216.513 345.262,217.411 345.904,218.276 346.527,219.11 347.13,219.916 347.716,220.696 348.286,221.453 348.84,222.187 349.381,222.901 349.908,223.596 350.423,224.273 350.926,224.932 351.418,225.576 351.9,226.206 352.371,226.82 352.834,227.422 353.287,228.011 353.731,228.588 355.432,230.787 357.023,232.834 358.52,234.752 359.936,236.56 361.282,238.273 362.565,239.902 363.793,241.456 364.97,242.944 366.103,244.372 367.195,245.746 368.249,247.07 369.268,248.349 370.256,249.587 371.215,250.787 372.146,251.951 373.052,253.082 373.934,254.182 374.794,255.253 375.633,256.298 376.453,257.317 377.254,258.312 378.037,259.285 378.804,260.237 379.555,261.168 380.291,262.081 381.013,262.975 381.722,263.852 382.417,264.712 383.1,265.557 383.771,266.386 384.431,267.201 385.08,268.003 385.719,268.791 386.348,269.567 386.967,270.33 387.577,271.081 388.177,271.822 388.77,272.551 389.354,273.27 389.93,273.979 390.498,274.678 391.059,275.368 391.612,276.049 392.158,276.72 392.698,277.383 393.231,278.038 393.758,278.685 394.278,279.324 394.793,279.956 395.301,280.58 395.804,281.197 396.302,281.807 396.794,282.411 397.28,283.007 397.762,283.598 398.239,284.182 398.711,284.76 399.178,285.333 399.64,285.899 400.098,286.46 401.888,288.65 403.613,290.761 405.28,292.798 406.893,294.769 408.456,296.678 409.974,298.531 411.448,300.33 412.883,302.079 414.281,303.783 415.643,305.444 416.973,307.064" stroke="#0000ff" stroke-linecap="butt" stroke-linejoin="round" stroke-width="2"/>
   <polyline fill="none" points="267.275,212.332 267.932,211.418 268.615,210.461 269.328,209.456 270.073,208.397 270.855,207.275 271.678,206.081 272.549,204.802 273.475,203.422 274.467,201.919 275.538,200.26 276.705,198.401 277.994,196.271 278.34,195.683 278.697,195.068 279.065,194.423 279.447,193.744 279.842,193.026 280.253,192.264 280.68,191.45 281.127,190.575 281.595,189.625 282.088,188.584 282.608,187.427 283.161,186.114 283.751,184.581 284.387,182.703 285.079,180.162 285.263,179.318 285.451,178.306 285.644,176.971 285.693,176.536 285.743,176.018 285.792,175.341 285.843,173.7 288.591,173.7 289.774,173.7 290.701,173.7 291.497,173.7 294.052,173.7 296.124,173.7 297.962,173.7 299.665,173.7 301.286,173.7 302.859,173.7 304.41,173.7 305.961,173.7 307.534,173.7 309.156,173.7 310.859,173.7 312.697,173.7 314.769,173.7 317.323,173.7 318.119,173.7 319.047,173.7 320.229,173.7 322.978,173.7 323.01,172.387 323.042,171.844 323.074,171.428 323.106,171.079 323.231,170.004 323.355,169.185 323.476,168.501 323.942,166.421 324.381,164.869 324.796,163.591 325.191,162.49 325.569,161.514 325.93,160.633 326.277,159.827 326.611,159.082 326.933,158.387 327.244,157.735 327.546,157.12 328.668,154.948 329.17,154.024 329.65,153.164 330.109,152.357 330.55,151.598 330.975,150.879 331.385,150.195 331.781,149.543 332.165,148.92 333.592,146.658 334.878,144.682 336.055,142.919 337.143,141.319 338.157,139.849 339.11,138.487 340.009,137.215 340.862,136.019 341.674,134.889 342.451,133.818 343.194,132.797 343.909,131.821 344.598,130.887 345.262,129.989 345.904,129.124 346.527,128.29 347.13,127.484 347.716,126.704 348.286,125.947 348.84,125.213 349.381,124.499 349.908,123.804 350.423,123.128 350.926,122.468 351.418,121.824 351.9,121.195 352.371,120.58 352.834,119.978 353.287,119.389 353.731,118.812 355.432,116.613 357.023,114.566 358.52,112.648 359.936,110.84 361.282,109.127 362.565,107.498 363.793,105.944 364.97,104.456 366.103,103.028 367.195,101.654 368.249,100.33 369.268,99.0506 370.256,97.8128 371.215,96.6133 372.146,95.4494 373.052,94.3184 373.934,93.2182 374.794,92.1467 375.633,91.1022 376.453,90.0829 377.254,89.0876 378.037,88.1147 378.804,87.1631 379.555,86.2317 380.291,85.3194 381.013,84.4253 381.722,83.5484 382.417,82.688 383.1,81.8434 383.771,81.0138 384.431,80.1986 385.08,79.3972 385.719,78.609 386.348,77.8335 386.967,77.0701 387.577,76.3185 388.177,75.5782 388.77,74.8487 389.354,74.1297 389.93,73.4208 390.498,72.7217 391.059,72.032 391.612,71.3515 392.158,70.6797 392.698,70.0166 393.231,69.3617 393.758,68.7148 394.278,68.0757 394.793,67.4442 395.301,66.82 395.804,66.203 396.302,65.5928 396.794,64.9895 397.28,64.3926 397.762,63.8022 398.239,63.218 398.711,62.6398 399.178,62.0675 399.64,61.5009 400.098,60.94 401.888,58.7498 403.613,56.6393 405.28,54.6016 406.893,52.6308 408.456,50.7216 409.974,48.8695 411.448,47.0703 412.883,45.3205 414.281,43.6169 415.643,41.9563 416.973,40.3364" stroke="#0000ff" stroke-linecap="butt" stroke-linejoin="round" stroke-width="2"/>
   <polyline fill="none" points="267.275,135.068 267.932,135.982 268.615,136.939 269.328,137.944 270.073,139.003 270.855,140.125 271.678,141.319 272.549,142.598 273.475,143.978 274.467,145.481 275.538,147.14 276.705,148.999 277.994,151.129 278.34,151.717 278.697,152.332 279.065,152.977 279.447,153.656 279.842,154.374 280.253,155.136 280.68,155.95 281.127,156.825 281.595,157.775 282.088,158.816 282.608,159.973 283.161,161.286 283.751,162.819 284.387,164.697 285.079,167.238 285.263,168.082 285.451,169.094 285.644,170.429 285.693,170.864 285.743,171.382 285.792,172.059 285.843,173.7 283.223,173.7 282.172,173.7 281.376,173.7 280.714,173.7 278.706,173.7 277.204,173.7 275.963,173.7 274.886,173.7 273.926,173.7 273.054,173.7 272.25,173.7 271.503,173.7 270.802,173.7 270.141,173.7 269.514,173.7 268.918,173.7 268.347,173.7 267.801,173.7 267.667,173.7 267.535,173.7 267.404,173.7 267.275,173.7 267.211,173.7 267.147,173.7 267.083,173.7 267.019,173.7 266.768,173.7 266.522,173.7 266.279,173.7 265.347,173.7 264.47,173.7 263.639,173.7 262.849,173.7 262.094,173.7 261.372,173.7 260.678,173.7 260.01,173.7 259.365,173.7 258.742,173.7 258.139,173.7 255.895,173.7 254.891,173.7 253.931,173.7 253.013,173.7 252.13,173.7 251.281,173.7 250.461,173.7 249.669,173.7 248.901,173.7 246.048,173.7 243.475,173.7 241.122,173.7 238.946,173.7 236.917,173.7 235.012,173.7 233.213,173.7 231.507,173.7 229.882,173.7 228.33,173.7 226.842,173.7 225.413,173.7 224.036,173.7 222.707,173.7 221.422,173.7 220.178,173.7 218.971,173.7 217.8,173.7 216.66,173.7 215.551,173.7 214.469,173.7 213.415,173.7 212.385,173.7 211.379,173.7 210.395,173.7 209.431,173.7 208.488,173.7 207.564,173.7 206.657,173.7 205.768,173.7 202.367,173.7 199.186,173.7 196.191,173.7 193.359,173.7 190.667,173.7 188.101,173.7 185.646,173.7 183.29,173.7 181.025,173.7 178.842,173.7 176.734,173.7 174.695,173.7 172.719,173.7 170.802,173.7 168.939,173.7 167.127,173.7 165.363,173.7 163.643,173.7 161.964,173.7 160.326,173.7 158.724,173.7 157.157,173.7 155.623,173.7 154.121,173.7 152.649,173.7 151.205,173.7 149.788,173.7 148.397,173.7 147.031,173.7 145.688,173.7 144.369,173.7 143.07,173.7 141.793,173.7 140.536,173.7 139.298,173.7 138.078,173.7 136.876,173.7 135.692,173.7 134.524,173.7 133.372,173.7 132.236,173.7 131.114,173.7 130.007,173.7 128.914,173.7 127.835,173.7 126.769,173.7 125.715,173.7 124.675,173.7 123.646,173.7 122.628,173.7 121.623,173.7 120.628,173.7 119.644,173.7 118.67,173.7 117.707,173.7 116.754,173.7 115.81,173.7 114.876,173.7 113.951,173.7 113.035,173.7 109.456,173.7 106.005,173.7 102.672,173.7 99.4456,173.7 96.3188,173.7 93.2839,173.7 90.3345,173.7 87.4648,173.7 84.6696,173.7 81.9442,173.7 79.2845,173.7" stroke="#0000ff" stroke-linecap="butt" stroke-linejoin="round" stroke-width="2"/>
   <polyline fill="none" points="262.275,130.068 272.275,140.068" stroke="#bf0000" stroke-linecap="square" stroke-linejoin="miter" stroke-width="2"/>
   <polyline fill="none" points="262.275,140.068 272.275,130.068" stroke="#bf0000" stroke-linecap="square" stroke-linejoin="miter" stroke-width="2"/>
   <polyline fill="none" points="262.275,207.332 272.275,217.332" stroke="#bf0000" stroke-linecap="square" stroke-linejoin="miter" stroke-width="2"/>
   <polyline fill="none" points="262.275,217.332 272.275,207.332" stroke="#bf0000" stroke-linecap="square" stroke-linejoin="miter" stroke-width="2"/>
   <polyline fill="none" points="373.681,168.7 383.681,178.7" stroke="#bf0000" stroke-linecap="square" stroke-linejoin="miter" stroke-width="2"/>
   <polyline fill="none" points="373.681,178.7 383.681,168.7" stroke="#bf0000" stroke-linecap="square" stroke-linejoin="miter" stroke-width="2"/>
   <polyline fill="none" points="378.681,150.521 378.347,150.522 378.013,150.525 377.679,150.531 377.345,150.539 377.011,150.549 376.677,150.562 376.344,150.577 376.01,150.595 375.677,150.614 375.345,150.636 375.012,150.661 374.68,150.687 374.349,150.716 374.018,150.747 373.687,150.781 373.357,150.817 373.027,150.855 372.698,150.895 372.369,150.938 372.041,150.983 371.714,151.03 371.388,151.079 371.062,151.131 370.737,151.185 370.413,151.241 370.089,151.3 369.767,151.36 369.445,151.423 369.124,151.488 368.805,151.556 368.486,151.625 368.168,151.697 367.851,151.771 367.536,151.847 367.221,151.926 366.908,152.006 366.595,152.089 366.284,152.174 365.975,152.261 365.666,152.35 365.359,152.442 365.053,152.535 364.749,152.631 364.446,152.728 364.144,152.828 363.844,152.93 363.545,153.034 363.248,153.14 362.952,153.248 362.658,153.358 362.366,153.47 362.075,153.584 361.785,153.701 361.498,153.819 361.212,153.939 360.928,154.061 360.646,154.185 360.365,154.311 360.087,154.439 359.81,154.569 359.535,154.701 359.262,154.835 358.991,154.97 358.722,155.108 358.455,155.247 358.19,155.388 357.927,155.531 357.666,155.676 357.407,155.823 357.15,155.971 356.896,156.122 356.643,156.274 356.393,156.427 356.145,156.583 355.9,156.74 355.656,156.899 355.415,157.059 355.176,157.221 354.94,157.385 354.706,157.551 354.474,157.718 354.245,157.886 354.018,158.057 353.794,158.229 353.572,158.402 353.353,158.577 353.136,158.753 352.922,158.931 352.71,159.111 352.501,159.291 352.295,159.474 352.091,159.657 351.89,159.843 351.691,160.029 351.495,160.217 351.302,160.406 351.112,160.597 350.925,160.789 350.74,160.982 350.558,161.176 350.379,161.372 350.202,161.569 350.029,161.767 349.858,161.966 349.69,162.167 349.526,162.368 349.364,162.571 349.205,162.775 349.049,162.98 348.895,163.186 348.745,163.393 348.598,163.601 348.454,163.81 348.313,164.02 348.175,164.231 348.04,164.444 347.908,164.656 347.779,164.87 347.653,165.085 347.531,165.301 347.411,165.517 347.295,165.734 347.182,165.953 347.071,166.171 346.964,166.391 346.861,166.611 346.76,166.832 346.663,167.054 346.568,167.276 346.477,167.5 346.39,167.723 346.305,167.947 346.224,168.172 346.146,168.398 346.071,168.624 345.999,168.85 345.931,169.077 345.866,169.304 345.804,169.532 345.746,169.76 345.691,169.989 345.639,170.218 345.59,170.447 345.545,170.677 345.503,170.907 345.464,171.137 345.429,171.368 345.397,171.598 345.368,171.829 345.343,172.06 345.321,172.292 345.303,172.523 345.287,172.755 345.275,172.986 345.267,173.218 345.261,173.45 345.259,173.682 345.261,173.913 345.266,174.145 345.274,174.377 345.285,174.608 345.3,174.84 345.318,175.072 345.339,175.303 345.364,175.534 345.392,175.765 345.424,175.996 345.458,176.226 345.497,176.457 345.538,176.687 345.583,176.916 345.631,177.146 345.682,177.375 345.737,177.603 345.795,177.832 345.856,178.06 345.92,178.287 345.988,178.514 346.059,178.74 346.133,178.966 346.211,179.192 346.292,179.417 346.376,179.641 346.463,179.865 346.554,180.088 346.647,180.311 346.744,180.532 346.844,180.754 346.948,180.974 347.054,181.194 347.164,181.413 347.277,181.631 347.393,181.848 347.512,182.065 347.634,182.281 347.759,182.495 347.887,182.71 348.019,182.923 348.153,183.135 348.291,183.346 348.431,183.556 348.575,183.766 348.722,183.974 348.871,184.181 349.024,184.387 349.18,184.593 349.338,184.797 349.5,185 349.664,185.201 349.831,185.402 350.001,185.602 350.174,185.8 350.35,185.997 350.529,186.193 350.711,186.387 350.895,186.581 351.082,186.773 351.272,186.964 351.465,187.153 351.66,187.341 351.858,187.528 352.059,187.713 352.262,187.897 352.468,188.08 352.677,188.261 352.888,188.44 353.102,188.619 353.318,188.795 353.537,188.97 353.758,189.144 353.982,189.316 354.209,189.487 354.438,189.655 354.669,189.823 354.903,189.989 355.139,190.153 355.377,190.315 355.618,190.476 355.861,190.635 356.106,190.792 356.354,190.948 356.603,191.102 356.855,191.254 357.11,191.405 357.366,191.554 357.625,191.701 357.885,191.846 358.148,191.989 358.413,192.13 358.679,192.27 358.948,192.408 359.219,192.544 359.491,192.678 359.766,192.81 360.042,192.94 360.321,193.069 360.601,193.195 360.883,193.319 361.167,193.442 361.452,193.562 361.74,193.681 362.029,193.797 362.319,193.912 362.611,194.024 362.905,194.135 363.201,194.243 363.498,194.349 363.796,194.454 364.096,194.556 364.397,194.656 364.7,194.754 365.005,194.85 365.31,194.944 365.617,195.035 365.926,195.125 366.235,195.212 366.546,195.297 366.858,195.381 367.171,195.461 367.485,195.54 367.801,195.617 368.117,195.691 368.435,195.763 368.754,195.833 369.073,195.901 369.394,195.967 369.715,196.03 370.038,196.091 370.361,196.15 370.685,196.206 371.01,196.261 371.336,196.313 371.662,196.363 371.989,196.41 372.317,196.455 372.646,196.498 372.975,196.539 373.304,196.577 373.634,196.614 373.965,196.648 374.296,196.679 374.628,196.708 374.959,196.735 375.292,196.76 375.624,196.782 375.957,196.802 376.291,196.82 376.624,196.836 376.958,196.849 377.292,196.859 377.626,196.868 377.96,196.874 378.294,196.878 378.628,196.879" stroke="#000000" stroke-dasharray="1,3,1,3,1,3,1,3" stroke-linecap="butt" stroke-linejoin="round" stroke-width="0.6"/>
   <polyline fill="none" points="378.681,127.341 378.013,127.343 377.345,127.35 376.676,127.362 376.008,127.378 375.341,127.399 374.673,127.424 374.006,127.455 373.34,127.489 372.674,127.529 372.008,127.573 371.343,127.621 370.679,127.674 370.016,127.732 369.354,127.795 368.692,127.862 368.032,127.933 367.373,128.009 366.714,128.09 366.057,128.175 365.402,128.265 364.747,128.36 364.094,128.458 363.442,128.562 362.792,128.67 362.144,128.782 361.497,128.899 360.852,129.021 360.209,129.146 359.567,129.277 358.928,129.412 358.29,129.551 357.655,129.694 357.021,129.842 356.39,129.995 355.761,130.152 355.134,130.313 354.51,130.478 353.888,130.648 353.268,130.822 352.651,131.001 352.037,131.183 351.425,131.37 350.816,131.561 350.21,131.757 349.607,131.956 349.006,132.16 348.409,132.368 347.814,132.58 347.223,132.796 346.635,133.016 346.05,133.24 345.468,133.469 344.89,133.701 344.315,133.938 343.743,134.178 343.175,134.422 342.61,134.67 342.049,134.922 341.492,135.178 340.938,135.438 340.389,135.702 339.843,135.969 339.301,136.241 338.763,136.516 338.228,136.794 337.698,137.077 337.172,137.363 336.65,137.653 336.133,137.946 335.619,138.243 335.11,138.543 334.606,138.847 334.105,139.155 333.609,139.465 333.118,139.78 332.631,140.097 332.149,140.418 331.671,140.743 331.199,141.07 330.73,141.401 330.267,141.736 329.809,142.073 329.355,142.413 328.907,142.757 328.463,143.104 328.024,143.454 327.591,143.807 327.162,144.162 326.739,144.521 326.321,144.883 325.908,145.247 325.5,145.615 325.098,145.985 324.701,146.358 324.31,146.734 323.923,147.112 323.543,147.493 323.168,147.877 322.798,148.263 322.434,148.652 322.076,149.044 321.723,149.437 321.376,149.834 321.035,150.232 320.699,150.633 320.37,151.036 320.046,151.442 319.728,151.85 319.416,152.26 319.11,152.672 318.809,153.086 318.515,153.502 318.227,153.921 317.945,154.341 317.669,154.763 317.399,155.187 317.135,155.613 316.877,156.041 316.626,156.47 316.38,156.901 316.141,157.334 315.908,157.769 315.682,158.205 315.461,158.643 315.248,159.082 315.04,159.523 314.839,159.965 314.644,160.408 314.455,160.853 314.273,161.299 314.098,161.746 313.929,162.195 313.766,162.645 313.61,163.095 313.46,163.547 313.317,164 313.181,164.454 313.05,164.908 312.927,165.364 312.81,165.821 312.7,166.278 312.596,166.736 312.499,167.194 312.408,167.654 312.325,168.114 312.247,168.574 312.177,169.035 312.113,169.497 312.056,169.958 312.005,170.421 311.961,170.883 311.924,171.346 311.893,171.809 311.869,172.273 311.852,172.736 311.841,173.2 311.837,173.663 311.84,174.127 311.85,174.59 311.866,175.054 311.889,175.517 311.918,175.98 311.955,176.443 311.997,176.906 312.047,177.368 312.103,177.83 312.166,178.291 312.236,178.753 312.312,179.213 312.395,179.673 312.484,180.133 312.58,180.591 312.683,181.049 312.792,181.507 312.908,181.963 313.03,182.419 313.159,182.874 313.295,183.328 313.437,183.781 313.586,184.233 313.741,184.684 313.902,185.134 314.07,185.582 314.245,186.03 314.426,186.476 314.613,186.921 314.807,187.365 315.007,187.807 315.214,188.248 315.427,188.687 315.646,189.125 315.872,189.562 316.104,189.997 316.342,190.43 316.586,190.861 316.837,191.291 317.093,191.719 317.356,192.145 317.625,192.57 317.9,192.992 318.182,193.413 318.469,193.831 318.762,194.248 319.061,194.662 319.367,195.075 319.678,195.485 319.995,195.893 320.318,196.299 320.647,196.703 320.981,197.104 321.321,197.503 321.668,197.9 322.019,198.294 322.377,198.686 322.74,199.075 323.108,199.462 323.483,199.846 323.862,200.227 324.248,200.606 324.638,200.982 325.034,201.356 325.436,201.726 325.843,202.094 326.255,202.459 326.672,202.821 327.094,203.181 327.522,203.537 327.955,203.89 328.393,204.241 328.836,204.588 329.283,204.932 329.736,205.273 330.194,205.611 330.656,205.946 331.124,206.277 331.596,206.605 332.073,206.93 332.554,207.252 333.04,207.57 333.531,207.885 334.026,208.196 334.526,208.504 335.03,208.809 335.538,209.11 336.051,209.407 336.568,209.701 337.089,209.991 337.614,210.278 338.144,210.561 338.677,210.84 339.215,211.116 339.756,211.388 340.301,211.656 340.851,211.92 341.404,212.18 341.96,212.437 342.521,212.69 343.085,212.939 343.652,213.184 344.223,213.424 344.798,213.661 345.376,213.894 345.957,214.123 346.541,214.348 347.129,214.569 347.72,214.786 348.314,214.999 348.911,215.207 349.511,215.412 350.114,215.612 350.719,215.808 351.328,216 351.939,216.187 352.553,216.371 353.17,216.55 353.789,216.724 354.41,216.895 355.034,217.061 355.661,217.223 356.289,217.38 356.92,217.534 357.553,217.682 358.189,217.827 358.826,217.967 359.465,218.102 360.106,218.233 360.749,218.36 361.394,218.482 362.041,218.599 362.689,218.713 363.339,218.821 363.99,218.925 364.643,219.025 365.297,219.12 365.953,219.211 366.61,219.297 367.268,219.378 367.927,219.455 368.587,219.527 369.248,219.595 369.911,219.658 370.574,219.717 371.238,219.771 371.902,219.82 372.568,219.865 373.233,219.905 373.9,219.94 374.567,219.971 375.234,219.997 375.902,220.019 376.57,220.036 377.238,220.048 377.906,220.056 378.575,220.059" stroke="#000000" stroke-dasharray="1,3,1,3,1,3,1,3" stroke-linecap="butt" stroke-linejoin="round" stroke-width="0.6"/>
   <polyline fill="none" points="378.681,104.162 377.679,104.165 376.676,104.176 375.674,104.193 374.672,104.217 373.67,104.249 372.669,104.287 371.668,104.332 370.669,104.384 369.67,104.443 368.671,104.509 367.674,104.582 366.678,104.662 365.684,104.748 364.69,104.842 363.698,104.942 362.707,105.05 361.718,105.164 360.731,105.285 359.745,105.413 358.762,105.548 357.78,105.689 356.8,105.838 355.823,105.993 354.848,106.155 353.875,106.323 352.905,106.499 351.937,106.681 350.972,106.87 350.01,107.065 349.051,107.267 348.094,107.476 347.141,107.692 346.191,107.914 345.244,108.142 344.3,108.378 343.36,108.619 342.424,108.867 341.491,109.122 340.561,109.383 339.636,109.651 338.714,109.925 337.797,110.205 336.883,110.492 335.974,110.785 335.069,111.084 334.169,111.39 333.272,111.702 332.381,112.02 331.494,112.344 330.611,112.674 329.734,113.011 328.861,113.353 327.994,113.702 327.131,114.056 326.274,114.417 325.422,114.783 324.575,115.156 323.733,115.534 322.897,115.918 322.067,116.307 321.242,116.703 320.423,117.104 319.61,117.511 318.803,117.924 318.002,118.342 317.207,118.765 316.418,119.194 315.635,119.629 314.858,120.069 314.088,120.514 313.325,120.965 312.568,121.421 311.817,121.882 311.073,122.348 310.336,122.82 309.606,123.296 308.883,123.778 308.166,124.264 307.457,124.756 306.755,125.252 306.06,125.753 305.372,126.259 304.692,126.77 304.019,127.286 303.354,127.806 302.696,128.331 302.045,128.86 301.403,129.394 300.768,129.932 300.14,130.474 299.521,131.021 298.91,131.572 298.306,132.128 297.711,132.687 297.124,133.251 296.544,133.818 295.974,134.39 295.411,134.966 294.857,135.545 294.311,136.128 293.773,136.715 293.244,137.306 292.724,137.9 292.212,138.498 291.708,139.1 291.214,139.705 290.728,140.313 290.251,140.925 289.783,141.54 289.324,142.158 288.873,142.779 288.432,143.403 288,144.031 287.576,144.661 287.162,145.294 286.757,145.931 286.362,146.569 285.975,147.211 285.598,147.855 285.23,148.502 284.871,149.152 284.522,149.803 284.182,150.458 283.852,151.114 283.531,151.773 283.219,152.434 282.917,153.097 282.625,153.762 282.342,154.429 282.069,155.099 281.806,155.77 281.552,156.442 281.308,157.117 281.074,157.793 280.85,158.471 280.635,159.15 280.43,159.831 280.235,160.513 280.05,161.196 279.874,161.881 279.709,162.567 279.553,163.254 279.408,163.942 279.272,164.631 279.146,165.32 279.03,166.011 278.924,166.703 278.829,167.395 278.743,168.088 278.667,168.781 278.601,169.475 278.545,170.169 278.499,170.864 278.463,171.559 278.437,172.254 278.421,172.949 278.416,173.645 278.42,174.34 278.434,175.035 278.458,175.73 278.493,176.425 278.537,177.12 278.591,177.815 278.656,178.508 278.73,179.202 278.814,179.895 278.909,180.587 279.013,181.279 279.127,181.97 279.251,182.66 279.385,183.349 279.53,184.037 279.684,184.724 279.847,185.41 280.021,186.095 280.205,186.779 280.398,187.461 280.602,188.142 280.815,188.821 281.038,189.499 281.27,190.176 281.513,190.85 281.765,191.523 282.027,192.195 282.298,192.864 282.579,193.532 282.87,194.197 283.171,194.861 283.48,195.522 283.8,196.181 284.129,196.838 284.467,197.493 284.815,198.145 285.172,198.795 285.538,199.442 285.914,200.086 286.299,200.729 286.694,201.368 287.097,202.004 287.51,202.638 287.932,203.269 288.363,203.897 288.802,204.522 289.251,205.144 289.709,205.762 290.176,206.378 290.652,206.99 291.136,207.599 291.629,208.204 292.131,208.806 292.641,209.405 293.161,210 293.688,210.591 294.224,211.179 294.769,211.762 295.322,212.342 295.883,212.919 296.453,213.491 297.031,214.059 297.617,214.623 298.211,215.184 298.813,215.74 299.423,216.291 300.041,216.839 300.667,217.382 301.301,217.921 301.942,218.456 302.592,218.985 303.248,219.511 303.913,220.032 304.584,220.548 305.264,221.06 305.95,221.566 306.644,222.068 307.345,222.566 308.053,223.058 308.768,223.545 309.49,224.028 310.22,224.505 310.955,224.977 311.698,225.444 312.448,225.906 313.204,226.363 313.966,226.814 314.735,227.261 315.511,227.701 316.293,228.137 317.081,228.567 317.875,228.991 318.675,229.41 319.481,229.824 320.293,230.231 321.112,230.633 321.935,231.03 322.765,231.421 323.6,231.806 324.44,232.185 325.286,232.558 326.138,232.925 326.994,233.287 327.856,233.642 328.723,233.992 329.595,234.335 330.471,234.673 331.353,235.004 332.239,235.329 333.13,235.648 334.026,235.961 334.925,236.267 335.83,236.568 336.738,236.862 337.651,237.15 338.568,237.431 339.489,237.706 340.414,237.975 341.342,238.237 342.275,238.492 343.211,238.742 344.15,238.984 345.094,239.221 346.04,239.45 346.99,239.673 347.942,239.89 348.898,240.1 349.857,240.303 350.819,240.5 351.783,240.689 352.751,240.873 353.721,241.049 354.693,241.219 355.668,241.382 356.645,241.538 357.624,241.688 358.605,241.83 359.588,241.966 360.574,242.095 361.561,242.217 362.55,242.332 363.54,242.441 364.532,242.543 365.525,242.637 366.52,242.725 367.516,242.806 368.513,242.88 369.511,242.947 370.509,243.007 371.509,243.06 372.51,243.107 373.511,243.146 374.512,243.178 375.514,243.204 376.517,243.222 377.519,243.234 378.522,243.238" stroke="#000000" stroke-dasharray="1,3,1,3,1,3,1,3" stroke-linecap="butt" stroke-linejoin="round" stroke-width="0.6"/>
   <polyline fill="none" points="378.681,80.9821 377.345,80.9868 376.008,81.0007 374.671,81.0238 373.335,81.0563 372,81.098 370.665,81.149 369.331,81.2092 367.998,81.2787 366.666,81.3574 365.335,81.4453 364.005,81.5425 362.677,81.6489 361.351,81.7645 360.026,81.8893 358.703,82.0233 357.382,82.1664 356.064,82.3187 354.747,82.4801 353.433,82.6507 352.122,82.8303 350.813,83.019 349.507,83.2169 348.204,83.4237 346.903,83.6396 345.606,83.8645 344.313,84.0984 343.023,84.3412 341.736,84.593 340.453,84.8537 339.174,85.1232 337.899,85.4016 336.628,85.6889 335.361,85.985 334.098,86.2898 332.84,86.6034 331.587,86.9256 330.338,87.2566 329.094,87.5962 327.855,87.9444 326.621,88.3012 325.392,88.6665 324.169,89.0403 322.951,89.4226 321.738,89.8134 320.532,90.2125 319.331,90.6199 318.136,91.0357 316.947,91.4597 315.764,91.892 314.588,92.3324 313.418,92.781 312.255,93.2376 311.098,93.7024 309.948,94.1751 308.804,94.6557 307.668,95.1443 306.539,95.6407 305.417,96.145 304.303,96.657 303.196,97.1766 302.096,97.704 301.004,98.2389 299.92,98.7814 298.844,99.3314 297.775,99.8888 296.715,100.454 295.663,101.026 294.619,101.605 293.584,102.192 292.557,102.785 291.539,103.386 290.53,103.994 289.529,104.609 288.537,105.231 287.555,105.859 286.581,106.495 285.617,107.137 284.661,107.786 283.716,108.441 282.78,109.103 281.853,109.771 280.936,110.446 280.029,111.127 279.132,111.814 278.244,112.508 277.367,113.207 276.5,113.913 275.643,114.625 274.796,115.342 273.96,116.066 273.134,116.795 272.319,117.53 271.515,118.27 270.721,119.016 269.938,119.768 269.165,120.524 268.404,121.287 267.654,122.054 266.915,122.827 266.187,123.604 265.47,124.387 264.765,125.175 264.071,125.967 263.388,126.764 262.717,127.566 262.058,128.373 261.41,129.184 260.774,129.999 260.15,130.819 259.538,131.644 258.937,132.472 258.349,133.304 257.773,134.141 257.208,134.982 256.656,135.826 256.116,136.674 255.588,137.526 255.073,138.381 254.57,139.24 254.079,140.103 253.601,140.969 253.135,141.838 252.682,142.71 252.242,143.586 251.814,144.464 251.399,145.345 250.996,146.229 250.606,147.116 250.229,148.006 249.865,148.898 249.514,149.793 249.176,150.69 248.851,151.589 248.538,152.491 248.239,153.394 247.953,154.3 247.68,155.207 247.42,156.117 247.173,157.028 246.939,157.941 246.718,158.855 246.511,159.771 246.316,160.689 246.135,161.607 245.968,162.527 245.813,163.448 245.672,164.37 245.544,165.293 245.43,166.217 245.328,167.141 245.241,168.067 245.166,168.992 245.105,169.919 245.057,170.845 245.022,171.772 245.001,172.699 244.994,173.626 244.999,174.553 245.018,175.48 245.051,176.407 245.096,177.334 245.155,178.26 245.228,179.186 245.314,180.111 245.413,181.036 245.525,181.96 245.651,182.883 245.79,183.805 245.942,184.726 246.108,185.646 246.287,186.565 246.479,187.483 246.684,188.399 246.903,189.313 247.134,190.227 247.379,191.138 247.637,192.048 247.908,192.956 248.193,193.862 248.49,194.766 248.8,195.668 249.123,196.567 249.46,197.465 249.809,198.36 250.171,199.252 250.545,200.142 250.933,201.029 251.334,201.914 251.747,202.796 252.173,203.675 252.611,204.551 253.062,205.423 253.526,206.293 254.002,207.159 254.491,208.022 254.992,208.882 255.505,209.738 256.031,210.59 256.569,211.439 257.119,212.284 257.682,213.125 258.256,213.963 258.843,214.796 259.441,215.625 260.052,216.45 260.674,217.27 261.308,218.087 261.954,218.898 262.612,219.706 263.281,220.508 263.961,221.306 264.654,222.1 265.357,222.888 266.072,223.671 266.798,224.45 267.536,225.223 268.284,225.992 269.043,226.755 269.814,227.512 270.595,228.265 271.387,229.011 272.19,229.753 273.004,230.489 273.828,231.219 274.662,231.943 275.507,232.661 276.363,233.374 277.228,234.081 278.104,234.781 278.99,235.476 279.885,236.164 280.791,236.846 281.706,237.522 282.631,238.191 283.566,238.854 284.51,239.51 285.464,240.16 286.427,240.803 287.399,241.44 288.38,242.07 289.37,242.692 290.37,243.308 291.378,243.917 292.395,244.519 293.42,245.114 294.454,245.702 295.496,246.283 296.547,246.856 297.606,247.422 298.673,247.98 299.748,248.532 300.831,249.075 301.922,249.611 303.02,250.14 304.126,250.661 305.239,251.174 306.36,251.679 307.488,252.177 308.623,252.667 309.765,253.149 310.914,253.623 312.07,254.089 313.232,254.547 314.401,254.997 315.577,255.438 316.758,255.872 317.946,256.297 319.14,256.714 320.34,257.123 321.546,257.524 322.757,257.916 323.974,258.299 325.197,258.675 326.425,259.041 327.658,259.399 328.896,259.749 330.139,260.09 331.387,260.422 332.64,260.746 333.898,261.061 335.159,261.367 336.426,261.665 337.696,261.953 338.971,262.233 340.249,262.504 341.531,262.766 342.817,263.019 344.107,263.264 345.4,263.499 346.697,263.725 347.996,263.943 349.299,264.151 350.605,264.35 351.913,264.54 353.224,264.721 354.538,264.893 355.854,265.056 357.172,265.21 358.493,265.355 359.815,265.49 361.14,265.616 362.466,265.733 363.794,265.841 365.123,265.94 366.454,266.029 367.786,266.109 369.118,266.18 370.452,266.242 371.787,266.294 373.123,266.338 374.458,266.372 375.795,266.396 377.132,266.412 378.468,266.418" stroke="#000000" stroke-dasharray="1,3,1,3,1,3,1,3" stroke-linecap="butt" stroke-linejoin="round" stroke-width="0.6"/>
   <polyline fill="none" points="378.681,57.8026 377.01,57.8084 375.339,57.8258 373.669,57.8548 371.999,57.8954 370.329,57.9475 368.661,58.0112 366.993,58.0865 365.327,58.1733 363.662,58.2717 361.998,58.3817 360.336,58.5031 358.676,58.6361 357.018,58.7806 355.362,58.9366 353.709,59.1041 352.058,59.283 350.409,59.4734 348.764,59.6751 347.121,59.8883 345.482,60.1129 343.846,60.3488 342.213,60.5961 340.584,60.8546 338.959,61.1245 337.338,61.4056 335.721,61.698 334.108,62.0015 332.5,62.3162 330.896,62.6421 329.297,62.979 327.703,63.3271 326.114,63.6861 324.531,64.0562 322.952,64.4372 321.38,64.8292 319.813,65.2321 318.252,65.6457 316.697,66.0703 315.148,66.5055 313.606,66.9515 312.07,67.4081 310.541,67.8754 309.018,68.3533 307.503,68.8417 305.994,69.3406 304.493,69.8499 303,70.3696 301.514,70.8997 300.035,71.44 298.565,71.9905 297.102,72.5512 295.648,73.1221 294.202,73.703 292.764,74.2939 291.335,74.8947 289.915,75.5054 288.504,76.1259 287.101,76.7562 285.708,77.3962 284.324,78.0458 282.95,78.705 281.585,79.3737 280.23,80.0518 278.884,80.7392 277.549,81.436 276.224,82.142 274.909,82.8571 273.604,83.5814 272.31,84.3146 271.026,85.0568 269.754,85.8079 268.492,86.5677 267.241,87.3363 266.001,88.1135 264.773,88.8992 263.556,89.6934 262.35,90.4961 261.157,91.307 259.974,92.1262 258.804,92.9536 257.646,93.789 256.5,94.6324 255.366,95.4837 254.244,96.3428 253.135,97.2097 252.039,98.0842 250.955,98.9663 249.883,99.8559 248.825,100.753 247.78,101.657 246.748,102.569 245.729,103.487 244.723,104.413 243.731,105.345 242.752,106.284 241.786,107.231 240.835,108.183 239.897,109.143 238.973,110.108 238.063,111.08 237.168,112.059 236.286,113.043 235.418,114.034 234.565,115.03 233.727,116.033 232.902,117.041 232.093,118.055 231.298,119.074 230.517,120.099 229.752,121.129 229.001,122.165 228.266,123.206 227.545,124.251 226.84,125.302 226.15,126.357 225.475,127.418 224.815,128.482 224.171,129.552 223.542,130.626 222.929,131.704 222.331,132.786 221.749,133.872 221.182,134.963 220.632,136.057 220.097,137.155 219.578,138.257 219.075,139.362 218.588,140.47 218.116,141.582 217.661,142.698 217.222,143.816 216.8,144.937 216.393,146.061 216.003,147.188 215.629,148.318 215.271,149.45 214.929,150.584 214.604,151.721 214.295,152.86 214.003,154.001 213.727,155.144 213.468,156.289 213.225,157.436 212.999,158.584 212.789,159.734 212.596,160.885 212.42,162.038 212.26,163.191 212.117,164.346 211.99,165.502 211.88,166.658 211.787,167.815 211.711,168.973 211.651,170.131 211.608,171.29 211.581,172.449 211.572,173.608 211.579,174.767 211.602,175.926 211.643,177.084 211.7,178.242 211.774,179.4 211.864,180.558 211.972,181.714 212.096,182.87 212.236,184.025 212.393,185.179 212.567,186.331 212.758,187.483 212.965,188.633 213.188,189.781 213.428,190.928 213.685,192.073 213.958,193.217 214.248,194.358 214.554,195.498 214.876,196.635 215.215,197.77 215.57,198.902 215.942,200.032 216.33,201.159 216.734,202.284 217.154,203.406 217.59,204.525 218.043,205.64 218.511,206.753 218.996,207.862 219.497,208.968 220.013,210.07 220.545,211.168 221.094,212.263 221.657,213.354 222.237,214.441 222.832,215.524 223.443,216.603 224.07,217.677 224.711,218.748 225.369,219.813 226.041,220.874 226.729,221.93 227.432,222.982 228.15,224.028 228.883,225.07 229.631,226.106 230.394,227.137 231.172,228.163 231.965,229.183 232.772,230.198 233.594,231.207 234.431,232.21 235.282,233.208 236.147,234.199 237.026,235.185 237.92,236.164 238.827,237.137 239.749,238.104 240.685,239.064 241.634,240.018 242.597,240.965 243.574,241.906 244.564,242.839 245.568,243.766 246.584,244.686 247.615,245.598 248.658,246.504 249.714,247.402 250.783,248.293 251.865,249.176 252.96,250.052 254.067,250.92 255.186,251.78 256.318,252.633 257.463,253.477 258.619,254.314 259.787,255.143 260.967,255.963 262.159,256.775 263.363,257.579 264.578,258.375 265.805,259.162 267.043,259.941 268.292,260.71 269.552,261.472 270.823,262.224 272.105,262.968 273.397,263.702 274.7,264.428 276.013,265.145 277.337,265.852 278.671,266.55 280.015,267.239 281.368,267.919 282.732,268.589 284.105,269.25 285.487,269.901 286.879,270.543 288.28,271.174 289.69,271.796 291.108,272.409 292.536,273.011 293.972,273.604 295.417,274.186 296.87,274.759 298.331,275.321 299.8,275.873 301.278,276.415 302.762,276.947 304.255,277.468 305.755,277.979 307.262,278.48 308.776,278.97 310.298,279.449 311.826,279.918 313.361,280.377 314.902,280.824 316.45,281.261 318.004,281.687 319.564,282.103 321.13,282.507 322.702,282.901 324.279,283.284 325.862,283.656 327.45,284.016 329.043,284.366 330.641,284.705 332.244,285.033 333.852,285.349 335.464,285.654 337.08,285.949 338.7,286.231 340.325,286.503 341.953,286.763 343.585,287.013 345.221,287.25 346.86,287.477 348.502,287.692 350.147,287.895 351.795,288.087 353.446,288.268 355.099,288.438 356.754,288.595 358.412,288.742 360.072,288.876 361.733,289 363.397,289.112 365.062,289.212 366.728,289.3 368.395,289.378 370.064,289.443 371.733,289.497 373.403,289.54 375.073,289.57 376.744,289.59 378.415,289.597" stroke="#000000" stroke-dasharray="1,3,1,3,1,3,1,3" stroke-linecap="butt" stroke-linejoin="round" stroke-width="0.6"/>
   <polyline fill="none" points="378.681,34.6232 376.676,34.6302 374.671,34.651 372.666,34.6858 370.662,34.7344 368.659,34.797 366.657,34.8735 364.656,34.9638 362.656,35.068 360.658,35.1861 358.662,35.318 356.667,35.4637 354.675,35.6234 352.686,35.7968 350.699,35.9839 348.714,36.1849 346.733,36.3996 344.755,36.628 342.78,36.8701 340.809,37.126 338.842,37.3955 336.879,37.6786 334.919,37.9753 332.965,38.2856 331.014,38.6094 329.069,38.9467 327.129,39.2975 325.193,39.6618 323.263,40.0395 321.339,40.4305 319.42,40.8348 317.507,41.2525 315.601,41.6833 313.7,42.1274 311.807,42.5847 309.919,43.0551 308.039,43.5385 306.166,44.0349 304.3,44.5443 302.442,45.0666 300.591,45.6018 298.748,46.1497 296.912,46.7105 295.086,47.2839 293.267,47.87 291.457,48.4687 289.656,49.0799 287.863,49.7035 286.08,50.3396 284.306,50.9879 282.541,51.6486 280.786,52.3215 279.041,53.0065 277.306,53.7036 275.581,54.4126 273.866,55.1336 272.162,55.8665 270.468,56.6111 268.785,57.3674 267.113,58.1354 265.453,58.9149 263.803,59.706 262.165,60.5084 260.539,61.3221 258.925,62.1471 257.322,62.9832 255.732,63.8304 254.154,64.6886 252.588,65.5576 251.035,66.4376 249.495,67.3282 247.968,68.2295 246.454,69.1413 244.953,70.0635 243.465,70.9962 241.991,71.9391 240.531,72.8921 239.084,73.8553 237.652,74.8284 236.233,75.8114 234.829,76.8043 233.439,77.8068 232.063,78.8188 230.703,79.8404 229.357,80.8714 228.026,81.9117 226.71,82.9611 225.409,84.0196 224.124,85.087 222.854,86.1634 221.6,87.2485 220.361,88.3422 219.138,89.4445 217.931,90.5551 216.74,91.6742 215.566,92.8014 214.408,93.9367 213.266,95.08 212.14,96.2311 211.032,97.39 209.94,98.5565 208.865,99.7305 207.807,100.912 206.766,102.101 205.742,103.297 204.736,104.499 203.746,105.709 202.775,106.926 201.821,108.149 200.885,109.379 199.966,110.615 199.065,111.858 198.183,113.107 197.318,114.362 196.472,115.622 195.643,116.889 194.833,118.161 194.042,119.439 193.269,120.722 192.514,122.011 191.778,123.304 191.061,124.603 190.362,125.907 189.683,127.215 189.022,128.528 188.38,129.846 187.757,131.168 187.153,132.494 186.569,133.825 186.003,135.159 185.457,136.497 184.931,137.839 184.423,139.185 183.935,140.534 183.467,141.886 183.018,143.241 182.589,144.6 182.179,145.961 181.789,147.325 181.418,148.692 181.067,150.062 180.737,151.433 180.425,152.807 180.134,154.183 179.863,155.561 179.611,156.941 179.379,158.322 179.168,159.705 178.976,161.09 178.804,162.475 178.652,163.862 178.52,165.25 178.408,166.638 178.317,168.028 178.245,169.418 178.193,170.808 178.161,172.199 178.15,173.589 178.158,174.98 178.187,176.371 178.235,177.761 178.304,179.151 178.392,180.54 178.501,181.929 178.63,183.317 178.778,184.704 178.947,186.09 179.136,187.474 179.344,188.858 179.573,190.239 179.821,191.619 180.089,192.998 180.378,194.374 180.686,195.748 181.013,197.12 181.361,198.49 181.728,199.857 182.115,201.222 182.522,202.584 182.948,203.943 183.394,205.299 183.859,206.651 184.344,208.001 184.849,209.347 185.372,210.689 185.915,212.028 186.478,213.363 187.059,214.694 187.66,216.021 188.279,217.344 188.918,218.662 189.576,219.976 190.253,221.285 190.948,222.59 191.663,223.889 192.396,225.184 193.147,226.473 193.917,227.757 194.706,229.036 195.513,230.309 196.338,231.576 197.182,232.838 198.044,234.094 198.924,235.344 199.821,236.587 200.737,237.825 201.671,239.055 202.622,240.28 203.591,241.497 204.577,242.708 205.581,243.912 206.602,245.109 207.64,246.299 208.695,247.482 209.767,248.657 210.857,249.825 211.963,250.985 213.085,252.137 214.225,253.282 215.38,254.418 216.552,255.547 217.74,256.667 218.945,257.779 220.165,258.883 221.401,259.978 222.653,261.064 223.921,262.142 225.203,263.211 226.502,264.271 227.815,265.322 229.144,266.364 230.487,267.396 231.846,268.419 233.219,269.433 234.606,270.437 236.008,271.431 237.425,272.416 238.855,273.39 240.299,274.355 241.758,275.31 243.23,276.254 244.715,277.189 246.214,278.113 247.726,279.026 249.251,279.929 250.789,280.821 252.34,281.703 253.904,282.574 255.48,283.434 257.068,284.283 258.669,285.121 260.281,285.947 261.906,286.763 263.542,287.567 265.189,288.36 266.848,289.141 268.518,289.911 270.199,290.669 271.891,291.416 273.594,292.15 275.307,292.873 277.03,293.584 278.764,294.283 280.508,294.97 282.261,295.645 284.024,296.308 285.797,296.958 287.579,297.596 289.37,298.222 291.17,298.835 292.978,299.435 294.795,300.024 296.621,300.599 298.455,301.162 300.297,301.712 302.146,302.249 304.004,302.773 305.868,303.285 307.74,303.783 309.62,304.269 311.506,304.741 313.398,305.201 315.298,305.647 317.203,306.08 319.115,306.5 321.033,306.906 322.956,307.299 324.886,307.679 326.82,308.045 328.76,308.398 330.704,308.738 332.654,309.064 334.608,309.376 336.566,309.675 338.529,309.96 340.496,310.232 342.466,310.49 344.44,310.734 346.418,310.965 348.399,311.182 350.382,311.385 352.369,311.574 354.358,311.75 356.35,311.912 358.344,312.06 360.34,312.194 362.338,312.314 364.337,312.421 366.338,312.513 368.34,312.592 370.343,312.657 372.347,312.707 374.352,312.744 376.357,312.767 378.362,312.777" stroke="#000000" stroke-dasharray="1,3,1,3,1,3,1,3" stroke-linecap="butt" stroke-linejoin="round" stroke-width="0.6"/>
   <polyline fill="none" points="279.626,26.7066 279.031,26.8984 276.92,27.5968 274.818,28.3098 272.727,29.0374 270.646,29.7795 268.577,30.5359 266.518,31.3067 264.471,32.0917 262.434,32.8909 260.41,33.7041 258.397,34.5314 256.397,35.3726 254.408,36.2275 252.432,37.0963 250.469,37.9787 248.519,38.8747 246.581,39.7841 244.657,40.707 242.746,41.6431 240.849,42.5925 238.965,43.5549 237.096,44.5304 235.24,45.5188 233.399,46.52 231.573,47.5339 229.761,48.5605 227.964,49.5995 226.183,50.651 224.416,51.7148 222.665,52.7908 220.929,53.8788 219.21,54.9789 217.506,56.0908 215.818,57.2145 214.147,58.3498 212.492,59.4967 210.853,60.655 209.232,61.8246 207.627,63.0053 206.04,64.1972 204.469,65.4 202.917,66.6136 201.381,67.8379 199.864,69.0728 198.364,70.3182 196.883,71.5739 195.419,72.8399 193.974,74.1159 192.548,75.4019 191.139,76.6977 189.75,78.0032 188.38,79.3183 187.029,80.6428 185.696,81.9766 184.384,83.3196 183.09,84.6716 181.816,86.0326 180.562,87.4023 179.328,88.7806 178.113,90.1674 176.919,91.5626 175.745,92.966 174.591,94.3774 173.457,95.7968 172.344,97.224 171.252,98.6588 170.18,100.101 169.129,101.551 168.1,103.008 167.091,104.472 166.103,105.943 165.137,107.42 164.192,108.905 163.268,110.395 162.366,111.893 161.486,113.396 160.627,114.905 159.791,116.42 158.976,117.941 158.183,119.468 157.412,121 156.663,122.537 155.936,124.079 155.232,125.627 154.55,127.179 153.891,128.735 153.253,130.297 152.639,131.862 152.047,133.432 151.478,135.006 150.931,136.583 150.407,138.165 149.906,139.75 149.428,141.338 148.973,142.93 148.541,144.524 148.132,146.122 147.746,147.722 147.383,149.325 147.043,150.93 146.726,152.538 146.433,154.148 146.162,155.759 145.915,157.373 145.691,158.988 145.491,160.605 145.314,162.222 145.16,163.841 145.03,165.462 144.922,167.082 144.839,168.704 144.778,170.326 144.741,171.948 144.728,173.571 144.738,175.193 144.771,176.816 144.827,178.438 144.908,180.059 145.011,181.68 145.138,183.301 145.288,184.92 145.461,186.538 145.658,188.155 145.878,189.77 146.121,191.384 146.388,192.996 146.678,194.606 146.991,196.214 147.327,197.82 147.686,199.423 148.069,201.024 148.474,202.622 148.903,204.217 149.354,205.809 149.829,207.398 150.326,208.983 150.846,210.565 151.389,212.143 151.955,213.718 152.543,215.288 153.154,216.854 153.788,218.416 154.444,219.974 155.122,221.527 155.823,223.075 156.546,224.618 157.291,226.156 158.058,227.689 158.848,229.216 159.659,230.738 160.493,232.254 161.348,233.764 162.225,235.268 163.123,236.767 164.043,238.258 164.985,239.744 165.948,241.222 166.932,242.694 167.938,244.16 168.964,245.618 170.011,247.068 171.08,248.512 172.169,249.948 173.279,251.376 174.409,252.797 175.559,254.21 176.73,255.614 177.922,257.011 179.133,258.399 180.364,259.779 181.615,261.15 182.886,262.512 184.176,263.866 185.486,265.21 186.815,266.545 188.163,267.871 189.531,269.188 190.917,270.495 192.322,271.792 193.746,273.08 195.188,274.358 196.648,275.625 198.127,276.882 199.624,278.13 201.138,279.366 202.671,280.592 204.221,281.807 205.788,283.012 207.373,284.206 208.975,285.388 210.594,286.56 212.23,287.72 213.882,288.868 215.551,290.005 217.236,291.131 218.937,292.245 220.654,293.347 222.387,294.437 224.136,295.515 225.9,296.58 227.68,297.634 229.474,298.675 231.283,299.703 233.108,300.719 234.946,301.723 236.799,302.713 238.667,303.691 240.548,304.655 242.443,305.607 244.352,306.545 246.274,307.47 248.209,308.381 250.158,309.28 252.119,310.164 254.093,311.035 256.079,311.892 258.078,312.736 260.089,313.565 262.111,314.381 264.145,315.182 266.191,315.969 268.248,316.742 270.316,317.501 272.395,318.245 274.484,318.975 276.584,319.691 278.694,320.391 279.628,320.693" stroke="#000000" stroke-dasharray="1,3,1,3,1,3,1,3" stroke-linecap="butt" stroke-linejoin="round" stroke-width="0.6"/>
   <polyline fill="none" points="215.689,26.7066 214.749,27.2072 212.645,28.3514 210.557,29.5102 208.487,30.6834 206.433,31.8709 204.397,33.0726 202.378,34.2883 200.377,35.518 198.393,36.7615 196.428,38.0187 194.481,39.2895 192.552,40.5737 190.642,41.8712 188.75,43.1819 186.878,44.5057 185.025,45.8423 183.191,47.1918 181.377,48.5539 179.582,49.9285 177.807,51.3155 176.053,52.7148 174.318,54.1261 172.605,55.5494 170.911,56.9845 169.239,58.4313 167.587,59.8896 165.957,61.3593 164.348,62.8402 162.76,64.3322 161.194,65.8352 159.65,67.3489 158.127,68.8733 156.627,70.4081 155.148,71.9533 153.693,73.5086 152.259,75.074 150.849,76.6493 149.461,78.2342 148.096,79.8287 146.754,81.4326 145.435,83.0457 144.139,84.6678 142.867,86.2989 141.619,87.9387 140.394,89.5871 139.193,91.2439 138.016,92.9089 136.864,94.582 135.735,96.2631 134.631,97.9518 133.551,99.6482 132.495,101.352 131.464,103.063 130.458,104.781 129.477,106.506 128.521,108.238 127.589,109.976 126.683,111.72 125.802,113.471 124.946,115.228 124.116,116.991 123.311,118.759 122.531,120.533 121.778,122.312 121.049,124.096 120.347,125.885 119.671,127.679 119.02,129.478 118.395,131.281 117.797,133.088 117.224,134.9 116.678,136.715 116.158,138.534 115.664,140.356 115.196,142.182 114.755,144.011 114.34,145.843 113.952,147.678 113.59,149.515 113.254,151.354 112.945,153.196 112.663,155.04 112.407,156.886 112.178,158.734 111.976,160.583 111.8,162.433 111.651,164.285 111.528,166.137 111.433,167.99 111.364,169.844 111.321,171.698 111.306,173.552 111.317,175.407 111.355,177.261 111.42,179.115 111.511,180.968 111.629,182.82 111.774,184.672 111.946,186.523 112.144,188.372 112.369,190.22 112.62,192.066 112.899,193.91 113.203,195.752 113.534,197.592 113.892,199.43 114.276,201.265 114.687,203.098 115.124,204.927 115.588,206.753 116.077,208.576 116.593,210.396 117.136,212.211 117.704,214.023 118.298,215.831 118.919,217.635 119.565,219.434 120.238,221.229 120.936,223.019 121.66,224.804 122.41,226.584 123.185,228.359 123.986,230.128 124.812,231.892 125.664,233.649 126.541,235.401 127.443,237.147 128.37,238.886 129.323,240.619 130.3,242.345 131.302,244.064 132.329,245.776 133.381,247.481 134.457,249.179 135.557,250.869 136.682,252.551 137.831,254.225 139.004,255.892 140.201,257.55 141.422,259.199 142.667,260.841 143.935,262.473 145.227,264.097 146.542,265.711 147.88,267.317 149.242,268.913 150.626,270.499 152.033,272.076 153.463,273.643 154.915,275.2 156.39,276.747 157.887,278.283 159.406,279.809 160.947,281.324 162.509,282.829 164.093,284.323 165.699,285.806 167.326,287.277 168.974,288.737 170.644,290.186 172.334,291.623 174.044,293.048 175.775,294.461 177.527,295.862 179.298,297.251 181.089,298.628 182.901,299.992 184.731,301.344 186.581,302.682 188.451,304.008 190.339,305.321 192.246,306.621 194.172,307.907 196.116,309.18 198.079,310.439 200.06,311.685 202.058,312.917 204.074,314.135 206.108,315.339 208.159,316.528 210.227,317.704 212.311,318.865 214.413,320.012 215.688,320.693" stroke="#000000" stroke-dasharray="1,3,1,3,1,3,1,3" stroke-linecap="butt" stroke-linejoin="round" stroke-width="0.6"/>
   <polyline fill="none" points="165.241,26.7066 165.009,26.8672 162.902,28.3564 160.818,29.8601 158.755,31.3783 156.713,32.9106 154.695,34.4571 152.698,36.0175 150.724,37.5916 148.773,39.1794 146.845,40.7806 144.94,42.3951 143.059,44.0227 141.201,45.6633 139.366,47.3167 137.556,48.9827 135.77,50.6613 134.008,52.3521 132.271,54.055 130.558,55.7699 128.87,57.4966 127.207,59.235 125.569,60.9847 123.956,62.7458 122.369,64.5179 120.808,66.301 119.272,68.0948 117.763,69.8991 116.279,71.7138 114.822,73.5388 113.391,75.3737 111.986,77.2185 110.608,79.0729 109.257,80.9369 107.933,82.81 106.636,84.6923 105.367,86.5834 104.124,88.4833 102.909,90.3917 101.722,92.3084 100.562,94.2333 99.4303,96.1661 98.3263,98.1067 97.2504,100.055 96.2026,102.01 95.1831,103.973 94.1919,105.943 93.2291,107.919 92.295,109.902 91.3894,111.891 90.5126,113.887 89.6646,115.888 88.8455,117.896 88.0554,119.909 87.2943,121.927 86.5624,123.95 85.8596,125.979 85.1862,128.012 84.5421,130.05 83.9275,132.092 83.3423,134.138 82.7866,136.188 82.2605,138.242 81.7641,140.3 81.2974,142.361 80.8604,144.425 80.4532,146.492 80.0758,148.561 79.7282,150.633 79.4106,152.708 79.1229,154.785 78.8652,156.863 78.6374,158.943 78.4396,161.025 78.2718,163.108 78.1341,165.192 78.0265,167.276 77.9489,169.362 77.9014,171.448 77.884,173.534 77.8966,175.62 77.9393,177.706 78.0121,179.791 78.115,181.876 78.2479,183.96 78.4109,186.044 78.6039,188.125 78.8269,190.206 79.0798,192.285 79.3628,194.361 79.6757,196.436 80.0184,198.509 80.3911,200.579 80.7935,202.646 81.2258,204.711 81.6878,206.772 82.1795,208.83 82.7008,210.885 83.2518,212.936 83.8323,214.983 84.4423,217.025 85.0817,219.064 85.7504,221.098 86.4485,223.127 87.1758,225.151 87.9322,227.17 88.7177,229.184 89.5322,231.192 90.3756,233.195 91.2478,235.191 92.1488,237.182 93.0785,239.166 94.0366,241.143 95.0233,243.114 96.0384,245.078 97.0817,247.034 98.1531,248.984 99.2526,250.925 100.38,252.859 101.535,254.786 102.718,256.704 103.929,258.613 105.167,260.515 106.432,262.407 107.725,264.291 109.045,266.165 110.391,268.031 111.765,269.887 113.165,271.733 114.592,273.57 116.045,275.396 117.525,277.213 119.03,279.019 120.562,280.814 122.119,282.599 123.702,284.373 125.31,286.136 126.944,287.887 128.603,289.627 130.287,291.356 131.996,293.073 133.73,294.778 135.488,296.47 137.27,298.151 139.076,299.819 140.907,301.474 142.761,303.117 144.639,304.747 146.54,306.363 148.465,307.967 150.412,309.556 152.382,311.133 154.375,312.695 156.39,314.244 158.428,315.779 160.488,317.299 162.569,318.805 164.672,320.297 165.243,320.693" stroke="#000000" stroke-dasharray="1,3,1,3,1,3,1,3" stroke-linecap="butt" stroke-linejoin="round" stroke-width="0.6"/>
   <polyline fill="none" points="120.266,26.7066 118.969,27.8056 116.878,29.6141 114.814,31.437 112.776,33.2741 110.764,35.1252 108.78,36.9903 106.822,38.869 104.892,40.7611 102.989,42.6666 101.113,44.5851 99.2652,46.5166 97.4454,48.4608 95.6537,50.4175 93.8903,52.3866 92.1553,54.3677 90.4491,56.3608 88.7717,58.3657 87.1232,60.382 85.5039,62.4098 83.9139,64.4486 82.3534,66.4984 80.8225,68.5588 79.3214,70.6298 77.8503,72.7111 76.4092,74.8025 74.9984,76.9038 73.6179,79.0148 72.2679,81.1352 70.9486,83.2649 69.6601,85.4037 68.4024,87.5512 67.1758,89.7074 65.9803,91.872 64.8161,94.0447 63.6833,96.2255 62.582,98.4139 62.028,99.5511" stroke="#000000" stroke-dasharray="1,3,1,3,1,3,1,3" stroke-linecap="butt" stroke-linejoin="round" stroke-width="0.6"/>
   <polyline fill="none" points="62.028,247.85 62.4095,248.637 63.5058,250.827 64.6336,253.008 65.7928,255.183 66.9833,257.348 68.205,259.506 69.4577,261.655 70.7413,263.795 72.0557,265.926 73.4009,268.048 74.7765,270.161 76.1825,272.263 77.6188,274.356 79.0851,276.439 80.5815,278.512 82.1076,280.574 83.6634,282.626 85.2487,284.666 86.8633,286.696 88.5071,288.714 90.18,290.721 91.8817,292.716 93.6121,294.699 95.3709,296.67 97.1581,298.628 98.9735,300.575 100.817,302.508 102.688,304.429 104.587,306.336 106.513,308.231 108.466,310.111 110.447,311.979 112.454,313.832 114.487,315.671 116.548,317.497 118.634,319.307 120.264,320.693" stroke="#000000" stroke-dasharray="1,3,1,3,1,3,1,3" stroke-linecap="butt" stroke-linejoin="round" stroke-width="0.6"/>
   <polyline fill="none" points="78.2887,26.7066 77.5126,27.4672 75.4192,29.5632 73.3561,31.6736 71.3236,33.7983 69.3218,35.9369 67.3509,38.0893 65.4112,40.2552 63.5028,42.4345 62.028,44.1572" stroke="#000000" stroke-dasharray="1,3,1,3,1,3,1,3" stroke-linecap="butt" stroke-linejoin="round" stroke-width="0.6"/>
   <polyline fill="none" points="62.028,303.241 63.2017,304.617 65.1051,306.799 67.0399,308.967 69.0058,311.121 71.0027,313.262 73.0304,315.389 75.0886,317.502 77.1772,319.6 78.2891,320.693" stroke="#000000" stroke-dasharray="1,3,1,3,1,3,1,3" stroke-linecap="butt" stroke-linejoin="round" stroke-width="0.6"/>
   <g font-family="FreeSans" font-size="11.6513" font-style="normal" font-weight="normal" transform="translate(384.261,155.521) rotate(-0,-0,-5)" xml:space="preserve">
    <text fill="rgb(0,0,0)" x="0 6 9 15 " y="-0">0.60</text>
   </g>
   <g font-family="FreeSans" font-size="11.6513" font-style="normal" font-weight="normal" transform="translate(384.261,132.341) rotate(-0,-0,-5)" xml:space="preserve">
    <text fill="rgb(0,0,0)" x="0 6 9 15 " y="-0">1.20</text>
   </g>
   <g font-family="FreeSans" font-size="11.6513" font-style="normal" font-weight="normal" transform="translate(384.261,109.162) rotate(-0,-0,-5)" xml:space="preserve">
    <text fill="rgb(0,0,0)" x="0 6 9 15 " y="-0">1.80</text>
   </g>
   <g font-family="FreeSans" font-size="11.6513" font-style="normal" font-weight="normal" transform="translate(384.261,85.9821) rotate(-0,-0,-5)" xml:space="preserve">
    <text fill="rgb(0,0,0)" x="0 6 9 15 " y="-0">2.40</text>
   </g>
   <g font-family="FreeSans" font-size="11.6513" font-style="normal" font-weight="normal" transform="translate(384.261,62.8027) rotate(-0,-0,-5)" xml:space="preserve">
    <text fill="rgb(0,0,0)" x="0 6 9 15 " y="-0">3.00</text>
   </g>
   <g font-family="FreeSans" font-size="11.6513" font-style="normal" font-weight="normal" transform="translate(384.261,39.6232) rotate(-0,-0,-5)" xml:space="preserve">
    <text fill="rgb(0,0,0)" x="0 6 9 15 " y="-0">3.60</text>
   </g>
   <g font-family="FreeSans" font-size="11.6513" font-style="normal" font-weight="normal" transform="translate(384.261,179.2) rotate(-0,-0,-5.5)" xml:space="preserve">
    <text fill="rgb(0,0,0)" x="0 6 9 13 19 26 29 " y="-1">0 rad/s</text>
   </g>
   <g font-family="FreeSans" font-size="11.6513" font-style="normal" font-weight="normal" transform="translate(384.261,201.879) rotate(-0,-0,-5)" xml:space="preserve">
    <text fill="rgb(0,0,0)" x="0 6 9 15 " y="-0">0.60</text>
   </g>
   <g font-family="FreeSans" font-size="11.6513" font-style="normal" font-weight="normal" transform="translate(384.261,225.059) rotate(-0,-0,-5)" xml:space="preserve">
    <text fill="rgb(0,0,0)" x="0 6 9 15 " y="-0">1.20</text>
   </g>
   <g font-family="FreeSans" font-size="11.6513" font-style="normal" font-weight="normal" transform="translate(384.261,248.238) rotate(-0,-0,-5)" xml:space="preserve">
    <text fill="rgb(0,0,0)" x="0 6 9 15 " y="-0">1.80</text>
   </g>
   <g font-family="FreeSans" font-size="11.6513" font-style="normal" font-weight="normal" transform="translate(384.261,271.418) rotate(-0,-0,-5)" xml:space="preserve">
    <text fill="rgb(0,0,0)" x="0 6 9 15 " y="-0">2.40</text>
   </g>
   <g font-family="FreeSans" font-size="11.6513" font-style="normal" font-weight="normal" transform="translate(384.261,294.597) rotate(-0,-0,-5)" xml:space="preserve">
    <text fill="rgb(0,0,0)" x="0 6 9 15 " y="-0">3.00</text>
   </g>
   <g font-family="FreeSans" font-size="11.6513" font-style="normal" font-weight="normal" transform="translate(384.261,317.777) rotate(-0,-0,-5)" xml:space="preserve">
    <text fill="rgb(0,0,0)" x="0 6 9 15 " y="-0">3.60</text>
   </g>
   <polyline fill="none" points="378.681,173.7 62.028,173.7" stroke="#000000" stroke-dasharray="1,3,1,3,1,3,1,3" stroke-linecap="butt" stroke-linejoin="round" stroke-width="0.6"/>
   <g font-family="FreeSans" font-size="11.6513" font-style="normal" font-weight="normal" transform="translate(67.98,178.7) rotate(-0,-0,-5)" xml:space="preserve">
    <text fill="rgb(0,0,0)" x="0 6 9 15 " y="-0">1.00</text>
   </g>
   <polyline fill="none" points="378.681,173.7 62.028,144.788" stroke="#000000" stroke-dasharray="1,3,1,3,1,3,1,3" stroke-linecap="butt" stroke-linejoin="round" stroke-width="0.6"/>
   <g font-family="FreeSans" font-size="11.6513" font-style="normal" font-weight="normal" transform="translate(67.98,150.331) rotate(-0,-0,-5)" xml:space="preserve">
    <text fill="rgb(0,0,0)" x="0 6 9 15 " y="-0">0.99</text>
   </g>
   <polyline fill="none" points="378.681,173.7 62.028,114.855" stroke="#000000" stroke-dasharray="1,3,1,3,1,3,1,3" stroke-linecap="butt" stroke-linejoin="round" stroke-width="0.6"/>
   <g font-family="FreeSans" font-size="11.6513" font-style="normal" font-weight="normal" transform="translate(67.98,120.961) rotate(-0,-0,-5)" xml:space="preserve">
    <text fill="rgb(0,0,0)" x="0 6 9 15 " y="-0">0.97</text>
   </g>
   <polyline fill="none" points="378.681,173.7 62.028,82.7338" stroke="#000000" stroke-dasharray="1,3,1,3,1,3,1,3" stroke-linecap="butt" stroke-linejoin="round" stroke-width="0.6"/>
   <g font-family="FreeSans" font-size="11.6513" font-style="normal" font-weight="normal" transform="translate(67.98,89.4436) rotate(-0,-0,-5)" xml:space="preserve">
    <text fill="rgb(0,0,0)" x="0 6 9 15 " y="-0">0.92</text>
   </g>
   <polyline fill="none" points="378.681,173.7 62.028,46.907" stroke="#000000" stroke-dasharray="1,3,1,3,1,3,1,3" stroke-linecap="butt" stroke-linejoin="round" stroke-width="0.6"/>
   <g font-family="FreeSans" font-size="11.6513" font-style="normal" font-weight="normal" transform="translate(67.98,54.2903) rotate(-0,-0,-5)" xml:space="preserve">
    <text fill="rgb(0,0,0)" x="0 6 9 15 " y="-0">0.87</text>
   </g>
   <polyline fill="none" points="378.681,173.7 102.467,26.7066" stroke="#000000" stroke-dasharray="1,3,1,3,1,3,1,3" stroke-linecap="butt" stroke-linejoin="round" stroke-width="0.6"/>
   <g font-family="FreeSans" font-size="11.6513" font-style="normal" font-weight="normal" transform="translate(111.289,36.401) rotate(-0,-0,-5)" xml:space="preserve">
    <text fill="rgb(0,0,0)" x="0 6 9 15 " y="-0">0.79</text>
   </g>
   <polyline fill="none" points="378.681,173.7 166.735,26.7066" stroke="#000000" stroke-dasharray="1,3,1,3,1,3,1,3" stroke-linecap="butt" stroke-linejoin="round" stroke-width="0.6"/>
   <g font-family="FreeSans" font-size="11.6513" font-style="normal" font-weight="normal" transform="translate(173.504,36.401) rotate(-0,-0,-5)" xml:space="preserve">
    <text fill="rgb(0,0,0)" x="0 6 9 15 " y="-0">0.71</text>
   </g>
   <polyline fill="none" points="378.681,173.7 216.049,26.7066" stroke="#000000" stroke-dasharray="1,3,1,3,1,3,1,3" stroke-linecap="butt" stroke-linejoin="round" stroke-width="0.6"/>
   <g font-family="FreeSans" font-size="11.6513" font-style="normal" font-weight="normal" transform="translate(221.243,36.401) rotate(-0,-0,-5)" xml:space="preserve">
    <text fill="rgb(0,0,0)" x="0 6 9 15 " y="-0">0.61</text>
   </g>
   <polyline fill="none" points="378.681,173.7 256.314,26.7066" stroke="#000000" stroke-dasharray="1,3,1,3,1,3,1,3" stroke-linecap="butt" stroke-linejoin="round" stroke-width="0.6"/>
   <g font-family="FreeSans" font-size="11.6513" font-style="normal" font-weight="normal" transform="translate(260.222,36.401) rotate(-0,-0,-5)" xml:space="preserve">
    <text fill="rgb(0,0,0)" x="0 6 9 15 " y="-0">0.50</text>
   </g>
   <polyline fill="none" points="378.681,173.7 290.89,26.7066" stroke="#000000" stroke-dasharray="1,3,1,3,1,3,1,3" stroke-linecap="butt" stroke-linejoin="round" stroke-width="0.6"/>
   <g font-family="FreeSans" font-size="11.6513" font-style="normal" font-weight="normal" transform="translate(293.694,36.401) rotate(-0,-0,-5)" xml:space="preserve">
    <text fill="rgb(0,0,0)" x="0 6 9 15 " y="-0">0.38</text>
   </g>
   <polyline fill="none" points="378.681,173.7 321.891,26.7066" stroke="#000000" stroke-dasharray="1,3,1,3,1,3,1,3" stroke-linecap="butt" stroke-linejoin="round" stroke-width="0.6"/>
   <g font-family="FreeSans" font-size="11.6513" font-style="normal" font-weight="normal" transform="translate(323.704,36.401) rotate(-0,-0,-5)" xml:space="preserve">
    <text fill="rgb(0,0,0)" x="0 6 9 15 " y="-0">0.26</text>
   </g>
   <polyline fill="none" points="378.681,173.7 350.778,26.7066" stroke="#000000" stroke-dasharray="1,3,1,3,1,3,1,3" stroke-linecap="butt" stroke-linejoin="round" stroke-width="0.6"/>
   <g font-family="FreeSans" font-size="11.6513" font-style="normal" font-weight="normal" transform="translate(351.669,36.401) rotate(-0,-0,-5)" xml:space="preserve">
    <text fill="rgb(0,0,0)" x="0 6 9 15 " y="-0">0.13</text>
   </g>
   <polyline fill="none" points="378.681,173.7 378.681,26.7066" stroke="#000000" stroke-dasharray="1,3,1,3,1,3,1,3" stroke-linecap="butt" stroke-linejoin="round" stroke-width="0.6"/>
   <g font-family="FreeSans" font-size="11.6513" font-style="normal" font-weight="normal" transform="translate(378.681,320.999) rotate(-0,-0,-5)" xml:space="preserve">
    <text fill="rgb(0,0,0)" x="0 6 9 15 " y="-0">0.00</text>
   </g>
   <polyline fill="none" points="378.681,173.7 62.028,202.612" stroke="#000000" stroke-dasharray="1,3,1,3,1,3,1,3" stroke-linecap="butt" stroke-linejoin="round" stroke-width="0.6"/>
   <g font-family="FreeSans" font-size="11.6513" font-style="normal" font-weight="normal" transform="translate(67.98,207.069) rotate(-0,-0,-5)" xml:space="preserve">
    <text fill="rgb(0,0,0)" x="0 6 9 15 " y="-0">0.99</text>
   </g>
   <polyline fill="none" points="378.681,173.7 62.028,232.545" stroke="#000000" stroke-dasharray="1,3,1,3,1,3,1,3" stroke-linecap="butt" stroke-linejoin="round" stroke-width="0.6"/>
   <g font-family="FreeSans" font-size="11.6513" font-style="normal" font-weight="normal" transform="translate(67.98,236.439) rotate(-0,-0,-5)" xml:space="preserve">
    <text fill="rgb(0,0,0)" x="0 6 9 15 " y="-0">0.97</text>
   </g>
   <polyline fill="none" points="378.681,173.7 62.028,264.666" stroke="#000000" stroke-dasharray="1,3,1,3,1,3,1,3" stroke-linecap="butt" stroke-linejoin="round" stroke-width="0.6"/>
   <g font-family="FreeSans" font-size="11.6513" font-style="normal" font-weight="normal" transform="translate(67.98,267.956) rotate(-0,-0,-5)" xml:space="preserve">
    <text fill="rgb(0,0,0)" x="0 6 9 15 " y="-0">0.92</text>
   </g>
   <polyline fill="none" points="378.681,173.7 62.028,300.493" stroke="#000000" stroke-dasharray="1,3,1,3,1,3,1,3" stroke-linecap="butt" stroke-linejoin="round" stroke-width="0.6"/>
   <g font-family="FreeSans" font-size="11.6513" font-style="normal" font-weight="normal" transform="translate(67.98,303.11) rotate(-0,-0,-5)" xml:space="preserve">
    <text fill="rgb(0,0,0)" x="0 6 9 15 " y="-0">0.87</text>
   </g>
   <polyline fill="none" points="378.681,173.7 102.467,320.693" stroke="#000000" stroke-dasharray="1,3,1,3,1,3,1,3" stroke-linecap="butt" stroke-linejoin="round" stroke-width="0.6"/>
   <g font-family="FreeSans" font-size="11.6513" font-style="normal" font-weight="normal" transform="translate(111.289,320.999) rotate(-0,-0,-5)" xml:space="preserve">
    <text fill="rgb(0,0,0)" x="0 6 9 15 " y="-0">0.79</text>
   </g>
   <polyline fill="none" points="378.681,173.7 166.735,320.693" stroke="#000000" stroke-dasharray="1,3,1,3,1,3,1,3" stroke-linecap="butt" stroke-linejoin="round" stroke-width="0.6"/>
   <g font-family="FreeSans" font-size="11.6513" font-style="normal" font-weight="normal" transform="translate(173.504,320.999) rotate(-0,-0,-5)" xml:space="preserve">
    <text fill="rgb(0,0,0)" x="0 6 9 15 " y="-0">0.71</text>
   </g>
   <polyline fill="none" points="378.681,173.7 216.049,320.693" stroke="#000000" stroke-dasharray="1,3,1,3,1,3,1,3" stroke-linecap="butt" stroke-linejoin="round" stroke-width="0.6"/>
   <g font-family="FreeSans" font-size="11.6513" font-style="normal" font-weight="normal" transform="translate(221.243,320.999) rotate(-0,-0,-5)" xml:space="preserve">
    <text fill="rgb(0,0,0)" x="0 6 9 15 " y="-0">0.61</text>
   </g>
   <polyline fill="none" points="378.681,173.7 256.314,320.693" stroke="#000000" stroke-dasharray="1,3,1,3,1,3,1,3" stroke-linecap="butt" stroke-linejoin="round" stroke-width="0.6"/>
   <g font-family="FreeSans" font-size="11.6513" font-style="normal" font-weight="normal" transform="translate(260.222,320.999) rotate(-0,-0,-5)" xml:space="preserve">
    <text fill="rgb(0,0,0)" x="0 6 9 15 " y="-0">0.50</text>
   </g>
   <polyline fill="none" points="378.681,173.7 290.89,320.693" stroke="#000000" stroke-dasharray="1,3,1,3,1,3,1,3" stroke-linecap="butt" stroke-linejoin="round" stroke-width="0.6"/>
   <g font-family="FreeSans" font-size="11.6513" font-style="normal" font-weight="normal" transform="translate(293.694,320.999) rotate(-0,-0,-5)" xml:space="preserve">
    <text fill="rgb(0,0,0)" x="0 6 9 15 " y="-0">0.38</text>
   </g>
   <polyline fill="none" points="378.681,173.7 321.891,320.693" stroke="#000000" stroke-dasharray="1,3,1,3,1,3,1,3" stroke-linecap="butt" stroke-linejoin="round" stroke-width="0.6"/>
   <g font-family="FreeSans" font-size="11.6513" font-style="normal" font-weight="normal" transform="translate(323.704,320.999) rotate(-0,-0,-5)" xml:space="preserve">
    <text fill="rgb(0,0,0)" x="0 6 9 15 " y="-0">0.26</text>
   </g>
   <polyline fill="none" points="378.681,173.7 350.778,320.693" stroke="#000000" stroke-dasharray="1,3,1,3,1,3,1,3" stroke-linecap="butt" stroke-linejoin="round" stroke-width="0.6"/>
   <g font-family="FreeSans" font-size="11.6513" font-style="normal" font-weight="normal" transform="translate(351.669,320.999) rotate(-0,-0,-5)" xml:space="preserve">
    <text fill="rgb(0,0,0)" x="0 6 9 15 " y="-0">0.13</text>
   </g>
   <polyline fill="none" points="378.681,173.7 378.681,320.693" stroke="#000000" stroke-dasharray="1,3,1,3,1,3,1,3" stroke-linecap="butt" stroke-linejoin="round" stroke-width="0.6"/>
   <g font-family="FreeSans" font-size="11.6513" font-style="normal" font-weight="normal" transform="translate(378.681,320.999) rotate(-0,-0,-5)" xml:space="preserve">
    <text fill="rgb(0,0,0)" x="0 6 9 15 " y="-0">0.00</text>
   </g>
   <polyline fill="none" points="378.681,173.7 378.681,26.7066" stroke="#000000" stroke-linecap="butt" stroke-linejoin="round" stroke-width="0.3"/>
   <polyline fill="none" points="378.681,173.7 378.681,320.693" stroke="#000000" stroke-linecap="butt" stroke-linejoin="round" stroke-width="0.3"/>
  </g>
  <clipPath id="cp00480360">
   <polygon points="0,360 480,360 480,0 0,0"/>
  </clipPath>
  <g clip-path="url(#cp00480360)">
   <polygon fill="#ffffff" points="319.347,84.0316 426.389,84.0316 426.389,35.0105 319.347,35.0105" shape-rendering="crispEdges"/>
   <polyline fill="none" points="319.347,84.0316 426.389,84.0316" stroke="#262626" stroke-dasharray="16,0" stroke-linecap="square" stroke-linejoin="miter" stroke-width="0.5"/>
   <polyline fill="none" points="319.347,35.0105 426.389,35.0105" stroke="#262626" stroke-dasharray="16,0" stroke-linecap="square" stroke-linejoin="miter" stroke-width="0.5"/>
   <polyline fill="none" points="319.347,84.0316 319.347,35.0105" stroke="#262626" stroke-dasharray="16,0" stroke-linecap="square" stroke-linejoin="miter" stroke-width="0.5"/>
   <polyline fill="none" points="426.389,84.0316 426.389,35.0105" stroke="#262626" stroke-dasharray="16,0" stroke-linecap="square" stroke-linejoin="miter" stroke-width="0.5"/>
   <polyline fill="none" points="323.353,44.5158 343.379,44.5158" stroke="#000000" stroke-dasharray="9,7" stroke-linecap="butt" stroke-linejoin="round" stroke-width="0.5"/>
   <g font-family="FreeSans" font-size="10.4862" font-style="normal" font-weight="normal" transform="translate(347.384,50.0158) rotate(-0,-0,-5.5)" xml:space="preserve">
    <text fill="rgb(0,0,0)" x="0 6 11 16 25 31 34 40 43 49 " y="-3">asymptotes</text>
   </g>
   <polyline fill="none" points="323.353,59.0211 343.379,59.0211" stroke="#0000ff" stroke-linecap="butt" stroke-linejoin="round" stroke-width="2"/>
   <g font-family="FreeSans" font-size="10.4862" font-style="normal" font-weight="normal" transform="translate(347.384,64.0211) rotate(-0,-0,-5)" xml:space="preserve">
    <text fill="rgb(0,0,0)" x="0 2 8 13 19 " y="-1">locus</text>
   </g>
   <polyline fill="none" points="329.366,70.0263 337.366,78.0263" stroke="#bf0000" stroke-linecap="square" stroke-linejoin="miter" stroke-width="2"/>
   <polyline fill="none" points="329.366,78.0263 337.366,70.0263" stroke="#bf0000" stroke-linecap="square" stroke-linejoin="miter" stroke-width="2"/>
   <g font-family="FreeSans" font-size="10.4862" font-style="normal" font-weight="normal" transform="translate(347.384,80.0263) rotate(-0,-0,-6)" xml:space="preserve">
    <text fill="rgb(0,0,0)" x="0 6 12 18 24 27 29 35 41 47 50 56 62 64 70 " y="-3">open loop poles</text>
   </g>
  </g>
 </g>
</svg>
