<?xml version='1.0' encoding='UTF-8' standalone='no'?>
<svg height="314pt" viewBox="0 0 418 314" width="418pt" xmlns="http://www.w3.org/2000/svg" xmlns:xlink="http://www.w3.org/1999/xlink">
 <title>Figure 1</title>
 <desc>
Creator: GL2PS 1.4.2, (C) 1999-2020 C. Geuzaine
For: Octave
CreationDate: Sun Feb  8 20:56:06 2026
</desc>
 <defs/>
 <polygon fill="#ffffff" points="0,0 418,0 418,314 0,314"/>
 <g>
  <polygon fill="#ffffff" points="0,314 418,314 418,0 0,0" shape-rendering="crispEdges"/>
  <clipPath id="cp00418314">
   <polygon points="0,314 418,314 418,0 0,0"/>
  </clipPath>
  <g clip-path="url(#cp00418314)">
   <polygon fill="#ffffff" points="54.4343,279.499 378.946,279.499 378.946,23.5533 54.4343,23.5533" shape-rendering="crispEdges"/>
   <polyline fill="none" points="87.3785,279.499 87.3785,23.5533" stroke="#262626" stroke-dasharray="16,0" stroke-linecap="butt" stroke-linejoin="miter" stroke-opacity="0.15" stroke-width="0.5"/>
   <polyline fill="none" points="135.971,279.499 135.971,23.5533" stroke="#262626" stroke-dasharray="16,0" stroke-linecap="butt" stroke-linejoin="miter" stroke-opacity="0.15" stroke-width="0.5"/>
   <polyline fill="none" points="184.563,279.499 184.563,23.5533" stroke="#262626" stroke-dasharray="16,0" stroke-linecap="butt" stroke-linejoin="miter" stroke-opacity="0.15" stroke-width="0.5"/>
   <polyline fill="none" points="233.156,279.499 233.156,23.5533" stroke="#262626" stroke-dasharray="16,0" stroke-linecap="butt" stroke-linejoin="miter" stroke-opacity="0.15" stroke-width="0.5"/>
   <polyline fill="none" points="281.748,279.499 281.748,23.5533" stroke="#262626" stroke-dasharray="16,0" stroke-linecap="butt" stroke-linejoin="miter" stroke-opacity="0.15" stroke-width="0.5"/>
   <polyline fill="none" points="330.341,279.499 330.341,23.5533" stroke="#262626" stroke-dasharray="16,0" stroke-linecap="butt" stroke-linejoin="miter" stroke-opacity="0.15" stroke-width="0.5"/>
   <polyline fill="none" points="378.933,279.499 378.933,23.5533" stroke="#262626" stroke-dasharray="16,0" stroke-linecap="butt" stroke-linejoin="miter" stroke-opacity="0.15" stroke-width="0.5"/>
   <polyline fill="none" points="87.3785,279.499 87.3785,276.255" stroke="#262626" stroke-linecap="butt" stroke-linejoin="miter" stroke-width="0.5"/>
   <polyline fill="none" points="87.3785,23.5533 87.3785,26.7977" stroke="#262626" stroke-linecap="butt" stroke-linejoin="miter" stroke-width="0.5"/>
   <polyline fill="none" points="135.971,279.499 135.971,276.255" stroke="#262626" stroke-linecap="butt" stroke-linejoin="miter" stroke-width="0.5"/>
   <polyline fill="none" points="135.971,23.5533 135.971,26.7977" stroke="#262626" stroke-linecap="butt" stroke-linejoin="miter" stroke-width="0.5"/>
   <polyline fill="none" points="184.563,279.499 184.563,276.255" stroke="#262626" stroke-linecap="butt" stroke-linejoin="miter" stroke-width="0.5"/>
   <polyline fill="none" points="184.563,23.5533 184.563,26.7977" stroke="#262626" stroke-linecap="butt" stroke-linejoin="miter" stroke-width="0.5"/>
   <polyline fill="none" points="233.156,279.499 233.156,276.255" stroke="#262626" stroke-linecap="butt" stroke-linejoin="miter" stroke-width="0.5"/>
   <polyline fill="none" points="233.156,23.5533 233.156,26.7977" stroke="#262626" stroke-linecap="butt" stroke-linejoin="miter" stroke-width="0.5"/>
   <polyline fill="none" points="281.748,279.499 281.748,276.255" stroke="#262626" stroke-linecap="butt" stroke-linejoin="miter" stroke-width="0.5"/>
   <polyline fill="none" points="281.748,23.5533 281.748,26.7977" stroke="#262626" stroke-linecap="butt" stroke-linejoin="miter" stroke-width="0.5"/>
   <polyline fill="none" points="330.341,279.499 330.341,276.255" stroke="#262626" stroke-linecap="butt" stroke-linejoin="miter" stroke-width="0.5"/>
   <polyline fill="none" points="330.341,23.5533 330.341,26.7977" stroke="#262626" stroke-linecap="butt" stroke-linejoin="miter" stroke-width="0.5"/>
   <polyline fill="none" points="378.933,279.499 378.933,276.255" stroke="#262626" stroke-linecap="butt" stroke-linejoin="miter" stroke-width="0.5"/>
   <polyline fill="none" points="378.933,23.5533 378.933,26.7977" stroke="#262626" stroke-linecap="butt" stroke-linejoin="miter" stroke-width="0.5"/>
   <g font-family="FreeSans" font-size="10" font-style="normal" font-weight="normal" transform="translate(82.8785,294.998) rotate(-0,4.5,-8)" xml:space="preserve">
    <text fill="rgb(38,38,38)" x="0 3 " y="-0">-5</text>
   </g>
   <g font-family="FreeSans" font-size="10" font-style="normal" font-weight="normal" transform="translate(131.471,294.998) rotate(-0,4.5,-8)" xml:space="preserve">
    <text fill="rgb(38,38,38)" x="0 3 " y="-0">-4</text>
   </g>
   <g font-family="FreeSans" font-size="10" font-style="normal" font-weight="normal" transform="translate(180.063,294.998) rotate(-0,4.5,-8)" xml:space="preserve">
    <text fill="rgb(38,38,38)" x="0 3 " y="-0">-3</text>
   </g>
   <g font-family="FreeSans" font-size="10" font-style="normal" font-weight="normal" transform="translate(228.656,294.998) rotate(-0,4.5,-8)" xml:space="preserve">
    <text fill="rgb(38,38,38)" x="0 3 " y="-0">-2</text>
   </g>
   <g font-family="FreeSans" font-size="10" font-style="normal" font-weight="normal" transform="translate(277.248,294.998) rotate(-0,4.5,-8)" xml:space="preserve">
    <text fill="rgb(38,38,38)" x="0 3 " y="-0">-1</text>
   </g>
   <g font-family="FreeSans" font-size="10" font-style="normal" font-weight="normal" transform="translate(327.341,294.998) rotate(-0,3,-8)" xml:space="preserve">
    <text fill="rgb(38,38,38)" x="0 " y="-0">0</text>
   </g>
   <g font-family="FreeSans" font-size="10" font-style="normal" font-weight="normal" transform="translate(375.933,294.998) rotate(-0,3,-8)" xml:space="preserve">
    <text fill="rgb(38,38,38)" x="0 " y="-0">1</text>
   </g>
   <polyline fill="none" points="54.4343,218.928 378.946,218.928" stroke="#262626" stroke-dasharray="16,0" stroke-linecap="butt" stroke-linejoin="miter" stroke-opacity="0.15" stroke-width="0.5"/>
   <polyline fill="none" points="54.4343,151.526 378.946,151.526" stroke="#262626" stroke-dasharray="16,0" stroke-linecap="butt" stroke-linejoin="miter" stroke-opacity="0.15" stroke-width="0.5"/>
   <polyline fill="none" points="54.4343,84.1246 378.946,84.1246" stroke="#262626" stroke-dasharray="16,0" stroke-linecap="butt" stroke-linejoin="miter" stroke-opacity="0.15" stroke-width="0.5"/>
   <polyline fill="none" points="54.4343,218.928 57.6746,218.928" stroke="#262626" stroke-linecap="butt" stroke-linejoin="miter" stroke-width="0.5"/>
   <polyline fill="none" points="378.946,218.928 375.706,218.928" stroke="#262626" stroke-linecap="butt" stroke-linejoin="miter" stroke-width="0.5"/>
   <polyline fill="none" points="54.4343,151.526 57.6746,151.526" stroke="#262626" stroke-linecap="butt" stroke-linejoin="miter" stroke-width="0.5"/>
   <polyline fill="none" points="378.946,151.526 375.706,151.526" stroke="#262626" stroke-linecap="butt" stroke-linejoin="miter" stroke-width="0.5"/>
   <polyline fill="none" points="54.4343,84.1246 57.6746,84.1246" stroke="#262626" stroke-linecap="butt" stroke-linejoin="miter" stroke-width="0.5"/>
   <polyline fill="none" points="378.946,84.1246 375.706,84.1246" stroke="#262626" stroke-linecap="butt" stroke-linejoin="miter" stroke-width="0.5"/>
   <g font-family="FreeSans" font-size="10" font-style="normal" font-weight="normal" transform="translate(40.4418,222.928) rotate(-0,9,-4)" xml:space="preserve">
    <text fill="rgb(38,38,38)" x="0 3 " y="-0">-2</text>
   </g>
   <g font-family="FreeSans" font-size="10" font-style="normal" font-weight="normal" transform="translate(43.4418,155.526) rotate(-0,6,-4)" xml:space="preserve">
    <text fill="rgb(38,38,38)" x="0 " y="-0">0</text>
   </g>
   <g font-family="FreeSans" font-size="10" font-style="normal" font-weight="normal" transform="translate(43.4418,88.1246) rotate(-0,6,-4)" xml:space="preserve">
    <text fill="rgb(38,38,38)" x="0 " y="-0">2</text>
   </g>
   <polyline fill="none" points="54.4343,279.499 378.946,279.499" stroke="#262626" stroke-dasharray="16,0" stroke-linecap="square" stroke-linejoin="miter" stroke-width="0.5"/>
   <polyline fill="none" points="54.4343,23.5533 378.946,23.5533" stroke="#262626" stroke-dasharray="16,0" stroke-linecap="square" stroke-linejoin="miter" stroke-width="0.5"/>
   <polyline fill="none" points="54.4343,279.499 54.4343,23.5533" stroke="#262626" stroke-dasharray="16,0" stroke-linecap="square" stroke-linejoin="miter" stroke-width="0.5"/>
   <polyline fill="none" points="378.946,279.499 378.946,23.5533" stroke="#262626" stroke-dasharray="16,0" stroke-linecap="square" stroke-linejoin="miter" stroke-width="0.5"/>
   <g font-family="FreeSans" font-size="10" font-style="normal" font-weight="normal" transform="translate(196.19,308.998) rotate(-0,20.5,-9)" xml:space="preserve">
    <text fill="rgb(38,38,38)" x="0 7 12 17 19 22 29 34 36 " y="-0">Real Axis</text>
   </g>
   <g font-family="FreeSans" font-size="10" font-style="normal" font-weight="normal" transform="translate(3.4418,151.526) rotate(-90,32,0)" xml:space="preserve">
    <text fill="rgb(38,38,38)" x="0 3 11 16 22 24 29 34 37 42 45 52 57 59 " y="-2">Imaginary Axis</text>
   </g>
   <g font-family="FreeSans" font-size="10" font-style="normal" font-weight="bold" transform="translate(130.69,13.5533) rotate(-0,86,0)" xml:space="preserve">
    <text fill="rgb(0,0,0)" x="0 7 13 19 22 25 28 34 40 46 52 55 61 66 72 75 78 85 88 94 97 103 106 112 118 124 127 130 133 136 142 148 151 157 163 169 " y="-2">Root locus sys (K = 0.000 .. 66.593)</text>
   </g>
   <polyline fill="none" points="265.551,151.526 372.297,23.2973" stroke="#000000" stroke-dasharray="9,7" stroke-linecap="butt" stroke-linejoin="round" stroke-width="0.5"/>
   <polyline fill="none" points="265.551,151.526 54.1098,151.526" stroke="#000000" stroke-dasharray="9,7" stroke-linecap="butt" stroke-linejoin="round" stroke-width="0.5"/>
   <polyline fill="none" points="265.551,151.526 372.297,279.755" stroke="#000000" stroke-dasharray="9,7" stroke-linecap="butt" stroke-linejoin="round" stroke-width="0.5"/>
   <polyline fill="none" points="330.341,151.526 329.194,151.526 328.002,151.526 326.759,151.526 325.459,151.526 324.095,151.526 322.658,151.526 321.139,151.526 319.522,151.526 317.792,151.526 315.925,151.526 313.888,151.526 311.638,151.526 311.035,151.526 310.412,151.526 309.77,151.526 309.104,151.526 308.415,151.526 307.698,151.526 306.952,151.526 306.172,151.526 305.356,151.526 304.496,151.526 303.589,151.526 302.625,151.526 301.595,151.526 300.485,151.526 299.278,151.526 298.958,151.526 298.629,151.526 298.292,151.526 298.206,151.526 298.12,151.526 298.033,151.526 297.946,151.526 297.833,151.526 297.719,151.526 297.603,151.526 297.487,151.526 297.01,151.526 296.513,151.526 295.992,151.526 295.445,151.526 294.869,151.526 294.257,151.526 293.605,151.526 292.905,151.526 292.143,151.526 291.306,151.526 290.367,151.526 289.284,151.526 287.974,151.526 286.222,151.526 285.644,151.526 284.951,151.526 284.033,151.526 281.748,151.526 281.776,152.672 281.804,153.145 281.832,153.508 281.86,153.813 281.969,154.751 282.077,155.465 282.182,156.062 282.589,157.876 282.972,159.23 283.334,160.345 283.679,161.305 284.008,162.156 284.323,162.925 284.626,163.628 284.917,164.279 285.198,164.885 285.47,165.453 285.733,165.99 286.712,167.884 287.15,168.69 287.568,169.441 287.969,170.144 288.354,170.807 288.724,171.434 289.082,172.031 289.427,172.599 289.762,173.143 291.007,175.117 292.129,176.84 293.155,178.378 294.105,179.774 294.99,181.056 295.82,182.244 296.605,183.354 297.349,184.397 298.058,185.382 298.735,186.317 299.384,187.208 300.007,188.059 300.608,188.874 301.187,189.658 301.748,190.412 302.29,191.139 302.817,191.842 303.328,192.523 303.825,193.183 304.309,193.824 304.78,194.447 305.24,195.053 305.69,195.643 306.129,196.219 306.558,196.78 306.978,197.329 307.389,197.866 307.792,198.39 308.188,198.904 308.576,199.408 310.059,201.326 311.447,203.111 312.753,204.785 313.988,206.362 315.162,207.856 316.282,209.277 317.353,210.633 318.38,211.931 319.368,213.177 320.32,214.375 321.24,215.53 322.129,216.646 322.991,217.726 323.827,218.772 324.64,219.788 325.43,220.774 326.199,221.734 326.95,222.669 327.682,223.58 328.396,224.469 329.095,225.337 329.779,226.186 330.447,227.016 331.103,227.829 331.745,228.625 332.375,229.405 332.993,230.169 333.599,230.92 334.195,231.657 334.781,232.38 335.356,233.092 335.923,233.791 336.48,234.478 337.028,235.155 337.568,235.821 338.1,236.476 338.624,237.122 339.141,237.759 339.65,238.386 340.153,239.004 340.649,239.614 341.138,240.216 341.62,240.809 342.097,241.395 342.568,241.974 343.033,242.545 343.492,243.109 343.946,243.667 344.395,244.218 344.839,244.762 345.278,245.301 345.711,245.833 346.141,246.359 346.565,246.88 346.985,247.395 347.401,247.905 347.813,248.409 348.22,248.908 348.624,249.402 349.023,249.892 350.584,251.802 352.089,253.644 353.543,255.421 354.951,257.14 356.314,258.806 357.638,260.421 358.925,261.991 360.176,263.517 361.395,265.004 362.584,266.452 363.744,267.865" stroke="#0000ff" stroke-linecap="butt" stroke-linejoin="round" stroke-width="2"/>
   <polyline fill="none" points="233.156,185.227 233.729,184.43 234.325,183.595 234.947,182.718 235.597,181.794 236.279,180.815 236.997,179.774 237.757,178.658 238.565,177.454 239.43,176.143 240.364,174.696 241.382,173.074 242.507,171.216 242.809,170.703 243.12,170.166 243.441,169.604 243.774,169.011 244.119,168.385 244.477,167.721 244.85,167.011 245.24,166.247 245.648,165.419 246.078,164.511 246.532,163.501 247.013,162.355 247.529,161.018 248.083,159.38 248.687,157.163 248.847,156.427 249.011,155.545 249.18,154.38 249.223,154 249.266,153.548 249.309,152.958 249.353,151.526 251.751,151.526 252.783,151.526 253.592,151.526 254.286,151.526 256.514,151.526 258.322,151.526 259.925,151.526 261.411,151.526 262.825,151.526 264.198,151.526 265.551,151.526 266.904,151.526 268.276,151.526 269.69,151.526 271.176,151.526 272.78,151.526 274.587,151.526 276.815,151.526 277.51,151.526 278.319,151.526 279.35,151.526 281.748,151.526 281.776,150.381 281.804,149.907 281.832,149.545 281.86,149.24 281.969,148.302 282.077,147.588 282.182,146.991 282.589,145.177 282.972,143.822 283.334,142.708 283.679,141.747 284.008,140.896 284.323,140.128 284.626,139.424 284.917,138.774 285.198,138.168 285.47,137.599 285.733,137.063 286.712,135.168 287.15,134.362 287.568,133.611 287.969,132.908 288.354,132.245 288.724,131.618 289.082,131.022 289.427,130.453 289.762,129.909 291.007,127.936 292.129,126.213 293.155,124.674 294.105,123.279 294.99,121.997 295.82,120.809 296.605,119.699 297.349,118.656 298.058,117.67 298.735,116.735 299.384,115.845 300.007,114.994 300.608,114.178 301.187,113.395 301.748,112.641 302.29,111.913 302.817,111.21 303.328,110.529 303.825,109.869 304.309,109.229 304.78,108.606 305.24,108 305.69,107.41 306.129,106.834 306.558,106.272 306.978,105.723 307.389,105.187 307.792,104.662 308.188,104.148 308.576,103.645 310.059,101.727 311.447,99.9412 312.753,98.2677 313.988,96.6903 315.162,95.1962 316.282,93.7754 317.353,92.4195 318.38,91.1216 319.368,89.8759 320.32,88.6775 321.24,87.5222 322.129,86.4062 322.991,85.3264 323.827,84.2801 324.64,83.2647 325.43,82.2781 326.199,81.3183 326.95,80.3837 327.682,79.4725 328.396,78.5834 329.095,77.7151 329.779,76.8664 330.447,76.0363 331.103,75.2237 331.745,74.4279 332.375,73.6479 332.993,72.883 333.599,72.1324 334.195,71.3956 334.781,70.672 335.356,69.9608 335.923,69.2617 336.48,68.5741 337.028,67.8976 337.568,67.2317 338.1,66.576 338.624,65.9302 339.141,65.2939 339.65,64.6666 340.153,64.0482 340.649,63.4384 341.138,62.8367 341.62,62.2431 342.097,61.6571 342.568,61.0786 343.033,60.5073 343.492,59.943 343.946,59.3855 344.395,58.8346 344.839,58.2901 345.278,57.7518 345.711,57.2195 346.141,56.6932 346.565,56.1725 346.985,55.6575 347.401,55.1478 347.813,54.6435 348.22,54.1442 348.624,53.65 349.023,53.1607 350.584,51.2501 352.089,49.4089 353.543,47.6314 354.951,45.9121 356.314,44.2467 357.638,42.631 358.925,41.0615 360.176,39.5351 361.395,38.0489 362.584,36.6004 363.744,35.1872" stroke="#0000ff" stroke-linecap="butt" stroke-linejoin="round" stroke-width="2"/>
   <polyline fill="none" points="233.156,117.825 233.729,118.623 234.325,119.458 234.947,120.334 235.597,121.258 236.279,122.237 236.997,123.279 237.757,124.394 238.565,125.598 239.43,126.91 240.364,128.357 241.382,129.978 242.507,131.837 242.809,132.35 243.12,132.886 243.441,133.449 243.774,134.041 244.119,134.667 244.477,135.332 244.85,136.042 245.24,136.806 245.648,137.634 246.078,138.542 246.532,139.552 247.013,140.697 247.529,142.034 248.083,143.672 248.687,145.889 248.847,146.625 249.011,147.508 249.18,148.673 249.223,149.052 249.266,149.504 249.309,150.095 249.353,151.526 247.068,151.526 246.151,151.526 245.457,151.526 244.879,151.526 243.127,151.526 241.818,151.526 240.735,151.526 239.796,151.526 238.958,151.526 238.197,151.526 237.496,151.526 236.844,151.526 236.233,151.526 235.656,151.526 235.109,151.526 234.589,151.526 234.091,151.526 233.614,151.526 233.498,151.526 233.383,151.526 233.269,151.526 233.156,151.526 233.1,151.526 233.044,151.526 232.988,151.526 232.933,151.526 232.714,151.526 232.499,151.526 232.287,151.526 231.474,151.526 230.709,151.526 229.984,151.526 229.294,151.526 228.636,151.526 228.006,151.526 227.401,151.526 226.818,151.526 226.256,151.526 225.712,151.526 225.186,151.526 223.228,151.526 222.352,151.526 221.516,151.526 220.714,151.526 219.944,151.526 219.203,151.526 218.488,151.526 217.797,151.526 217.128,151.526 214.638,151.526 212.394,151.526 210.341,151.526 208.443,151.526 206.673,151.526 205.011,151.526 203.442,151.526 201.954,151.526 200.537,151.526 199.182,151.526 197.884,151.526 196.637,151.526 195.436,151.526 194.277,151.526 193.156,151.526 192.071,151.526 191.018,151.526 189.996,151.526 189.002,151.526 188.034,151.526 187.091,151.526 186.171,151.526 185.273,151.526 184.395,151.526 183.536,151.526 182.696,151.526 181.873,151.526 181.067,151.526 180.276,151.526 179.501,151.526 176.534,151.526 173.759,151.526 171.146,151.526 168.675,151.526 166.328,151.526 164.089,151.526 161.947,151.526 159.892,151.526 157.916,151.526 156.012,151.526 154.173,151.526 152.394,151.526 150.67,151.526 148.998,151.526 147.373,151.526 145.792,151.526 144.253,151.526 142.753,151.526 141.289,151.526 139.859,151.526 138.462,151.526 137.095,151.526 135.757,151.526 134.447,151.526 133.162,151.526 131.903,151.526 130.667,151.526 129.453,151.526 128.262,151.526 127.09,151.526 125.939,151.526 124.807,151.526 123.692,151.526 122.595,151.526 121.515,151.526 120.452,151.526 119.403,151.526 118.37,151.526 117.351,151.526 116.346,151.526 115.355,151.526 114.377,151.526 113.411,151.526 112.458,151.526 111.516,151.526 110.586,151.526 109.667,151.526 108.759,151.526 107.862,151.526 106.974,151.526 106.097,151.526 105.229,151.526 104.371,151.526 103.521,151.526 102.681,151.526 101.849,151.526 101.026,151.526 100.211,151.526 99.4043,151.526 98.6052,151.526 95.4834,151.526 92.4732,151.526 89.5651,151.526 86.7508,151.526 84.0231,151.526 81.3757,151.526 78.8028,151.526 76.2994,151.526 73.861,151.526 71.4836,151.526 69.1633,151.526" stroke="#0000ff" stroke-linecap="butt" stroke-linejoin="round" stroke-width="2"/>
   <polyline fill="none" points="228.156,112.825 238.156,122.825" stroke="#bf0000" stroke-linecap="square" stroke-linejoin="miter" stroke-width="2"/>
   <polyline fill="none" points="228.156,122.825 238.156,112.825" stroke="#bf0000" stroke-linecap="square" stroke-linejoin="miter" stroke-width="2"/>
   <polyline fill="none" points="228.156,180.227 238.156,190.227" stroke="#bf0000" stroke-linecap="square" stroke-linejoin="miter" stroke-width="2"/>
   <polyline fill="none" points="228.156,190.227 238.156,180.227" stroke="#bf0000" stroke-linecap="square" stroke-linejoin="miter" stroke-width="2"/>
   <polyline fill="none" points="325.341,146.526 335.341,156.526" stroke="#bf0000" stroke-linecap="square" stroke-linejoin="miter" stroke-width="2"/>
   <polyline fill="none" points="325.341,156.526 335.341,146.526" stroke="#bf0000" stroke-linecap="square" stroke-linejoin="miter" stroke-width="2"/>
   <polyline fill="none" points="330.341,131.306 330.049,131.307 329.757,131.31 329.466,131.315 329.175,131.322 328.883,131.331 328.592,131.342 328.301,131.355 328.011,131.37 327.72,131.388 327.43,131.407 327.14,131.428 326.85,131.451 326.561,131.476 326.272,131.504 325.984,131.533 325.696,131.564 325.408,131.597 325.121,131.632 324.834,131.67 324.548,131.709 324.263,131.75 323.978,131.793 323.694,131.838 323.41,131.885 323.127,131.934 322.845,131.985 322.564,132.038 322.283,132.093 322.003,132.15 321.725,132.209 321.446,132.27 321.169,132.332 320.893,132.397 320.618,132.463 320.343,132.532 320.07,132.602 319.797,132.674 319.526,132.748 319.256,132.824 318.987,132.902 318.719,132.982 318.452,133.063 318.186,133.146 317.922,133.232 317.659,133.319 317.397,133.408 317.136,133.498 316.877,133.591 316.619,133.685 316.363,133.781 316.108,133.879 315.854,133.979 315.601,134.08 315.351,134.183 315.101,134.288 314.854,134.394 314.607,134.503 314.363,134.613 314.12,134.724 313.878,134.838 313.638,134.953 313.4,135.069 313.164,135.188 312.929,135.307 312.696,135.429 312.465,135.552 312.235,135.677 312.008,135.803 311.782,135.931 311.558,136.061 311.336,136.192 311.116,136.324 310.898,136.458 310.681,136.594 310.467,136.731 310.255,136.87 310.044,137.01 309.836,137.151 309.63,137.294 309.426,137.438 309.224,137.584 309.024,137.731 308.826,137.88 308.63,138.03 308.437,138.181 308.245,138.334 308.056,138.488 307.869,138.643 307.685,138.799 307.502,138.957 307.322,139.116 307.144,139.276 306.969,139.438 306.796,139.6 306.625,139.764 306.457,139.929 306.291,140.096 306.127,140.263 305.966,140.431 305.807,140.601 305.651,140.772 305.497,140.944 305.346,141.116 305.197,141.29 305.05,141.465 304.907,141.641 304.765,141.818 304.627,141.996 304.491,142.175 304.357,142.354 304.226,142.535 304.098,142.717 303.972,142.899 303.849,143.082 303.728,143.266 303.611,143.451 303.496,143.637 303.383,143.824 303.274,144.011 303.167,144.199 303.062,144.388 302.961,144.578 302.862,144.768 302.766,144.959 302.672,145.15 302.582,145.342 302.494,145.535 302.409,145.729 302.327,145.923 302.248,146.117 302.171,146.312 302.097,146.508 302.026,146.704 301.958,146.901 301.893,147.098 301.83,147.295 301.771,147.493 301.714,147.692 301.66,147.89 301.609,148.089 301.561,148.289 301.516,148.489 301.474,148.689 301.434,148.889 301.398,149.09 301.364,149.29 301.333,149.492 301.305,149.693 301.28,149.894 301.258,150.096 301.239,150.298 301.223,150.5 301.209,150.702 301.199,150.904 301.191,151.106 301.187,151.308 301.185,151.51 301.186,151.712 301.19,151.915 301.198,152.117 301.207,152.319 301.22,152.521 301.236,152.723 301.255,152.924 301.276,153.126 301.301,153.328 301.328,153.529 301.359,153.73 301.392,153.931 301.428,154.132 301.467,154.332 301.509,154.532 301.554,154.732 301.601,154.931 301.652,155.13 301.705,155.329 301.762,155.528 301.821,155.726 301.883,155.923 301.948,156.12 302.015,156.317 302.086,156.513 302.159,156.709 302.235,156.904 302.314,157.099 302.396,157.293 302.48,157.486 302.568,157.679 302.658,157.872 302.751,158.063 302.846,158.254 302.945,158.445 303.046,158.634 303.15,158.823 303.256,159.011 303.366,159.199 303.478,159.386 303.592,159.572 303.71,159.757 303.83,159.941 303.952,160.124 304.077,160.307 304.205,160.489 304.336,160.669 304.469,160.849 304.605,161.028 304.743,161.206 304.884,161.383 305.027,161.559 305.173,161.734 305.322,161.908 305.473,162.081 305.626,162.253 305.782,162.424 305.94,162.594 306.101,162.763 306.264,162.93 306.43,163.097 306.598,163.262 306.768,163.426 306.941,163.589 307.116,163.751 307.294,163.911 307.473,164.07 307.655,164.228 307.84,164.385 308.026,164.54 308.215,164.694 308.406,164.847 308.599,164.999 308.794,165.149 308.992,165.298 309.192,165.445 309.393,165.591 309.597,165.735 309.803,165.879 310.011,166.02 310.221,166.161 310.433,166.299 310.647,166.437 310.863,166.573 311.081,166.707 311.301,166.84 311.523,166.971 311.746,167.101 311.972,167.229 312.199,167.355 312.428,167.48 312.659,167.604 312.892,167.726 313.126,167.846 313.362,167.965 313.6,168.081 313.84,168.197 314.081,168.31 314.324,168.422 314.568,168.532 314.814,168.641 315.062,168.748 315.311,168.853 315.561,168.956 315.813,169.058 316.067,169.158 316.322,169.256 316.578,169.352 316.836,169.447 317.095,169.54 317.355,169.631 317.617,169.72 317.88,169.807 318.144,169.893 318.41,169.976 318.676,170.058 318.944,170.138 319.213,170.216 319.483,170.292 319.754,170.367 320.026,170.439 320.3,170.51 320.574,170.578 320.849,170.645 321.125,170.71 321.402,170.773 321.68,170.834 321.959,170.893 322.239,170.95 322.519,171.006 322.8,171.059 323.082,171.11 323.365,171.159 323.649,171.207 323.933,171.252 324.217,171.296 324.503,171.337 324.789,171.377 325.075,171.414 325.362,171.45 325.65,171.483 325.938,171.515 326.226,171.544 326.515,171.572 326.804,171.597 327.094,171.621 327.384,171.642 327.674,171.662 327.964,171.679 328.255,171.695 328.546,171.708 328.837,171.72 329.128,171.729 329.42,171.737 329.711,171.742 330.003,171.745 330.294,171.747" stroke="#000000" stroke-dasharray="1,3,1,3,1,3,1,3" stroke-linecap="butt" stroke-linejoin="round" stroke-width="0.6"/>
   <polyline fill="none" points="330.341,111.085 329.757,111.087 329.174,111.093 328.591,111.103 328.009,111.118 327.426,111.136 326.844,111.158 326.262,111.184 325.681,111.215 325.1,111.249 324.519,111.287 323.939,111.33 323.36,111.376 322.781,111.427 322.204,111.481 321.627,111.539 321.051,111.602 320.475,111.668 319.901,111.739 319.328,111.813 318.756,111.891 318.185,111.974 317.615,112.06 317.047,112.15 316.48,112.244 315.914,112.342 315.35,112.444 314.787,112.55 314.226,112.66 313.666,112.774 313.108,112.892 312.552,113.013 311.998,113.138 311.445,113.267 310.895,113.4 310.346,113.537 309.799,113.678 309.254,113.822 308.712,113.97 308.171,114.122 307.633,114.278 307.097,114.437 306.564,114.6 306.032,114.767 305.504,114.937 304.977,115.111 304.454,115.289 303.932,115.47 303.414,115.655 302.898,115.844 302.385,116.036 301.874,116.232 301.367,116.431 300.862,116.633 300.361,116.84 299.862,117.049 299.367,117.262 298.874,117.479 298.385,117.699 297.899,117.922 297.416,118.149 296.936,118.379 296.46,118.612 295.987,118.849 295.518,119.089 295.052,119.332 294.589,119.578 294.13,119.828 293.675,120.08 293.223,120.336 292.776,120.595 292.332,120.857 291.891,121.122 291.455,121.391 291.022,121.662 290.594,121.936 290.169,122.213 289.748,122.493 289.332,122.776 288.919,123.062 288.511,123.351 288.107,123.642 287.707,123.937 287.311,124.234 286.92,124.533 286.533,124.836 286.15,125.141 285.772,125.449 285.398,125.759 285.029,126.072 284.664,126.388 284.304,126.706 283.948,127.026 283.597,127.349 283.251,127.675 282.91,128.002 282.573,128.333 282.241,128.665 281.913,129 281.591,129.337 281.274,129.676 280.961,130.017 280.653,130.361 280.351,130.706 280.053,131.054 279.76,131.404 279.473,131.756 279.19,132.11 278.913,132.465 278.641,132.823 278.373,133.182 278.112,133.544 277.855,133.907 277.603,134.272 277.357,134.638 277.116,135.007 276.881,135.377 276.651,135.748 276.426,136.121 276.207,136.496 275.992,136.872 275.784,137.25 275.581,137.629 275.383,138.009 275.191,138.391 275.004,138.774 274.823,139.159 274.648,139.544 274.478,139.931 274.313,140.319 274.155,140.708 274.001,141.099 273.854,141.49 273.712,141.882 273.576,142.275 273.445,142.669 273.32,143.064 273.201,143.46 273.088,143.857 272.98,144.254 272.878,144.653 272.782,145.051 272.691,145.451 272.607,145.851 272.528,146.252 272.455,146.653 272.387,147.055 272.326,147.457 272.27,147.859 272.22,148.262 272.176,148.666 272.137,149.069 272.105,149.473 272.078,149.877 272.057,150.281 272.042,150.685 272.033,151.09 272.03,151.494 272.032,151.898 272.04,152.303 272.055,152.707 272.074,153.111 272.1,153.515 272.132,153.919 272.169,154.323 272.212,154.726 272.261,155.129 272.316,155.532 272.377,155.934 272.443,156.336 272.516,156.737 272.594,157.138 272.677,157.538 272.767,157.937 272.862,158.336 272.963,158.735 273.07,159.132 273.183,159.529 273.301,159.925 273.425,160.32 273.555,160.715 273.69,161.108 273.831,161.5 273.978,161.892 274.13,162.282 274.288,162.671 274.451,163.06 274.62,163.447 274.795,163.832 274.975,164.217 275.161,164.6 275.352,164.982 275.549,165.363 275.751,165.742 275.959,166.12 276.172,166.497 276.391,166.872 276.615,167.245 276.844,167.617 277.079,167.987 277.319,168.356 277.564,168.722 277.814,169.088 278.07,169.451 278.331,169.813 278.598,170.172 278.869,170.53 279.146,170.886 279.427,171.24 279.714,171.593 280.006,171.943 280.303,172.291 280.605,172.637 280.912,172.981 281.223,173.322 281.54,173.662 281.862,173.999 282.188,174.334 282.52,174.667 282.856,174.998 283.196,175.326 283.542,175.652 283.892,175.975 284.247,176.296 284.606,176.614 284.97,176.93 285.339,177.244 285.712,177.554 286.09,177.863 286.471,178.168 286.858,178.471 287.248,178.771 287.643,179.069 288.043,179.364 288.446,179.655 288.854,179.945 289.266,180.231 289.682,180.514 290.102,180.795 290.526,181.072 290.954,181.347 291.386,181.619 291.821,181.887 292.261,182.153 292.705,182.416 293.152,182.675 293.603,182.931 294.058,183.185 294.516,183.435 294.978,183.682 295.443,183.925 295.912,184.166 296.384,184.403 296.86,184.637 297.339,184.867 297.822,185.094 298.307,185.318 298.796,185.539 299.288,185.756 299.783,185.969 300.281,186.18 300.782,186.386 301.286,186.59 301.793,186.789 302.303,186.986 302.816,187.178 303.331,187.367 303.85,187.553 304.37,187.735 304.894,187.913 305.42,188.088 305.948,188.259 306.479,188.426 307.012,188.59 307.548,188.75 308.086,188.906 308.626,189.058 309.168,189.207 309.712,189.352 310.259,189.493 310.807,189.631 311.357,189.764 311.91,189.894 312.464,190.02 313.02,190.142 313.577,190.26 314.137,190.374 314.698,190.485 315.26,190.591 315.824,190.694 316.39,190.793 316.957,190.887 317.525,190.978 318.094,191.065 318.665,191.148 319.237,191.227 319.81,191.302 320.384,191.373 320.959,191.44 321.535,191.503 322.112,191.562 322.689,191.618 323.268,191.669 323.847,191.716 324.427,191.759 325.007,191.798 325.588,191.833 326.169,191.864 326.751,191.891 327.333,191.913 327.916,191.932 328.499,191.947 329.082,191.958 329.665,191.964 330.248,191.967" stroke="#000000" stroke-dasharray="1,3,1,3,1,3,1,3" stroke-linecap="butt" stroke-linejoin="round" stroke-width="0.6"/>
   <polyline fill="none" points="330.341,90.8648 329.466,90.8678 328.591,90.8769 327.717,90.8921 326.843,90.9133 325.969,90.9406 325.096,90.974 324.223,91.0133 323.351,91.0588 322.479,91.1103 321.608,91.1678 320.739,91.2314 319.87,91.301 319.002,91.3767 318.135,91.4583 317.27,91.5459 316.406,91.6396 315.543,91.7392 314.681,91.8448 313.822,91.9564 312.964,92.074 312.107,92.1975 311.253,92.3269 310.4,92.4622 309.55,92.6035 308.701,92.7506 307.855,92.9036 307.01,93.0625 306.169,93.2272 305.329,93.3978 304.492,93.5741 303.658,93.7563 302.827,93.9442 301.998,94.1379 301.172,94.3374 300.349,94.5425 299.528,94.7534 298.711,94.9699 297.897,95.1921 297.087,95.4199 296.28,95.6533 295.476,95.8924 294.675,96.1369 293.878,96.3871 293.085,96.6427 292.296,96.9038 291.51,97.1704 290.728,97.4424 289.95,97.7198 289.177,98.0026 288.407,98.2908 287.641,98.5843 286.88,98.8831 286.123,99.1871 285.371,99.4964 284.623,99.8109 283.88,100.131 283.141,100.455 282.407,100.785 281.678,101.12 280.953,101.46 280.234,101.805 279.52,102.155 278.81,102.51 278.106,102.87 277.407,103.235 276.713,103.604 276.025,103.978 275.342,104.358 274.665,104.741 273.993,105.13 273.327,105.523 272.667,105.921 272.012,106.323 271.363,106.73 270.72,107.141 270.083,107.557 269.452,107.977 268.827,108.401 268.209,108.83 267.596,109.263 266.99,109.7 266.39,110.142 265.796,110.587 265.209,111.037 264.629,111.491 264.055,111.948 263.487,112.41 262.927,112.876 262.373,113.345 261.826,113.818 261.286,114.296 260.752,114.776 260.226,115.261 259.706,115.749 259.194,116.24 258.689,116.736 258.191,117.234 257.7,117.736 257.216,118.242 256.74,118.751 256.271,119.263 255.81,119.778 255.356,120.297 254.909,120.818 254.47,121.343 254.039,121.871 253.615,122.401 253.199,122.935 252.791,123.471 252.39,124.01 251.997,124.552 251.612,125.097 251.235,125.644 250.866,126.194 250.504,126.747 250.151,127.302 249.806,127.859 249.469,128.419 249.139,128.981 248.818,129.545 248.506,130.112 248.201,130.68 247.904,131.251 247.616,131.824 247.336,132.398 247.065,132.975 246.801,133.553 246.546,134.134 246.3,134.716 246.062,135.299 245.832,135.885 245.611,136.472 245.398,137.06 245.193,137.65 244.998,138.241 244.81,138.834 244.632,139.427 244.461,140.022 244.3,140.619 244.147,141.216 244.003,141.814 243.867,142.413 243.74,143.014 243.621,143.615 243.512,144.216 243.411,144.819 243.318,145.422 243.234,146.026 243.16,146.63 243.093,147.235 243.036,147.841 242.987,148.446 242.947,149.052 242.916,149.658 242.893,150.265 242.879,150.871 242.874,151.478 242.878,152.085 242.89,152.691 242.911,153.298 242.941,153.904 242.98,154.51 243.027,155.116 243.084,155.721 243.148,156.326 243.222,156.93 243.304,157.534 243.395,158.138 243.495,158.74 243.603,159.342 243.72,159.943 243.846,160.544 243.98,161.143 244.123,161.741 244.275,162.339 244.435,162.935 244.604,163.53 244.781,164.124 244.967,164.717 245.162,165.309 245.365,165.899 245.576,166.487 245.796,167.074 246.024,167.66 246.261,168.244 246.507,168.826 246.76,169.407 247.022,169.986 247.292,170.562 247.571,171.137 247.858,171.71 248.153,172.282 248.457,172.85 248.768,173.417 249.088,173.982 249.416,174.544 249.752,175.104 250.096,175.662 250.448,176.217 250.808,176.77 251.176,177.321 251.551,177.868 251.935,178.413 252.327,178.956 252.726,179.496 253.133,180.032 253.548,180.566 253.971,181.098 254.401,181.626 254.839,182.151 255.284,182.673 255.737,183.192 256.197,183.708 256.665,184.22 257.14,184.73 257.622,185.236 258.112,185.738 258.609,186.238 259.113,186.733 259.624,187.226 260.143,187.714 260.668,188.199 261.2,188.681 261.739,189.158 262.285,189.632 262.838,190.102 263.398,190.568 263.964,191.031 264.537,191.489 265.116,191.943 265.702,192.394 266.295,192.84 266.894,193.282 267.499,193.72 268.111,194.154 268.728,194.583 269.352,195.008 269.982,195.429 270.618,195.846 271.26,196.258 271.908,196.665 272.562,197.068 273.221,197.467 273.887,197.86 274.558,198.25 275.234,198.634 275.916,199.014 276.603,199.389 277.296,199.759 277.994,200.125 278.698,200.485 279.406,200.841 280.12,201.192 280.838,201.538 281.562,201.878 282.29,202.214 283.024,202.545 283.762,202.871 284.504,203.191 285.251,203.506 286.003,203.816 286.759,204.121 287.52,204.421 288.285,204.715 289.054,205.004 289.827,205.288 290.604,205.566 291.385,205.839 292.17,206.107 292.959,206.369 293.752,206.625 294.548,206.876 295.348,207.122 296.151,207.361 296.958,207.596 297.768,207.824 298.582,208.048 299.398,208.265 300.218,208.477 301.04,208.683 301.866,208.883 302.694,209.078 303.526,209.267 304.359,209.45 305.196,209.627 306.035,209.798 306.876,209.964 307.72,210.124 308.566,210.278 309.414,210.426 310.265,210.568 311.117,210.704 311.971,210.835 312.827,210.959 313.685,211.078 314.544,211.19 315.405,211.297 316.268,211.397 317.132,211.492 317.997,211.581 318.864,211.663 319.731,211.74 320.6,211.81 321.47,211.875 322.34,211.933 323.212,211.986 324.084,212.032 324.957,212.073 325.83,212.107 326.704,212.135 327.578,212.157 328.452,212.174 329.327,212.184 330.201,212.188" stroke="#000000" stroke-dasharray="1,3,1,3,1,3,1,3" stroke-linecap="butt" stroke-linejoin="round" stroke-width="0.6"/>
   <polyline fill="none" points="330.341,70.6443 329.174,70.6483 328.008,70.6605 326.842,70.6807 325.677,70.709 324.512,70.7454 323.347,70.7898 322.184,70.8424 321.021,70.903 319.859,70.9717 318.698,71.0484 317.538,71.1331 316.379,71.226 315.222,71.3268 314.067,71.4357 312.913,71.5525 311.761,71.6774 310.61,71.8102 309.462,71.9511 308.315,72.0998 307.171,72.2566 306.03,72.4212 304.89,72.5938 303.753,72.7742 302.619,72.9626 301.488,73.1587 300.359,73.3627 299.234,73.5746 298.111,73.7942 296.992,74.0216 295.876,74.2568 294.764,74.4996 293.655,74.7502 292.55,75.0085 291.449,75.2744 290.351,75.548 289.258,75.8291 288.168,76.1178 287.083,76.414 286.002,76.7178 284.926,77.0291 283.854,77.3477 282.787,77.6738 281.724,78.0073 280.667,78.3482 279.614,78.6963 278.566,79.0518 277.524,79.4145 276.487,79.7844 275.455,80.1615 274.429,80.5457 273.408,80.937 272.393,81.3353 271.384,81.7407 270.381,82.1531 269.384,82.5724 268.393,82.9986 267.408,83.4317 266.429,83.8715 265.457,84.3181 264.491,84.7715 263.532,85.2315 262.579,85.6982 261.633,86.1714 260.695,86.6512 259.763,87.1374 258.838,87.6301 257.92,88.1292 257.01,88.6347 256.106,89.1464 255.211,89.6643 254.323,90.1885 253.442,90.7187 252.569,91.2551 251.704,91.7975 250.847,92.3458 249.997,92.9001 249.156,93.4602 248.323,94.0262 247.498,94.5979 246.681,95.1752 245.873,95.7583 245.073,96.3469 244.282,96.941 243.499,97.5406 242.725,98.1455 241.96,98.7558 241.203,99.3714 240.456,99.9922 239.717,100.618 238.988,101.249 238.267,101.885 237.556,102.526 236.854,103.172 236.162,103.823 235.479,104.479 234.805,105.139 234.141,105.804 233.486,106.473 232.842,107.147 232.207,107.826 231.581,108.508 230.966,109.195 230.361,109.887 229.765,110.582 229.18,111.282 228.605,111.985 228.04,112.693 227.485,113.404 226.941,114.12 226.406,114.839 225.883,115.561 225.369,116.287 224.866,117.017 224.374,117.75 223.892,118.487 223.421,119.227 222.961,119.97 222.511,120.716 222.072,121.466 221.644,122.218 221.227,122.973 220.821,123.732 220.426,124.492 220.042,125.256 219.668,126.022 219.306,126.791 218.955,127.562 218.615,128.336 218.286,129.112 217.969,129.89 217.662,130.671 217.367,131.453 217.083,132.238 216.811,133.024 216.55,133.813 216.3,134.603 216.062,135.394 215.835,136.188 215.62,136.983 215.416,137.779 215.223,138.577 215.042,139.376 214.873,140.176 214.715,140.977 214.569,141.78 214.434,142.583 214.311,143.387 214.199,144.193 214.099,144.998 214.011,145.805 213.934,146.612 213.869,147.419 213.816,148.227 213.774,149.036 213.744,149.844 213.726,150.653 213.719,151.462 213.724,152.271 213.74,153.079 213.768,153.888 213.808,154.696 213.86,155.504 213.923,156.312 213.998,157.119 214.084,157.926 214.182,158.732 214.292,159.537 214.413,160.341 214.546,161.145 214.691,161.947 214.847,162.749 215.014,163.549 215.194,164.349 215.384,165.147 215.586,165.943 215.8,166.738 216.025,167.532 216.262,168.324 216.509,169.114 216.769,169.903 217.039,170.69 217.321,171.474 217.615,172.257 217.919,173.038 218.235,173.816 218.562,174.593 218.9,175.367 219.249,176.139 219.61,176.908 219.981,177.675 220.364,178.439 220.757,179.2 221.162,179.959 221.577,180.714 222.004,181.467 222.441,182.217 222.889,182.964 223.347,183.707 223.817,184.448 224.297,185.185 224.787,185.919 225.288,186.649 225.8,187.376 226.322,188.099 226.855,188.819 227.398,189.535 227.951,190.247 228.514,190.955 229.088,191.659 229.672,192.359 230.265,193.055 230.869,193.747 231.483,194.435 232.106,195.118 232.74,195.798 233.383,196.472 234.036,197.142 234.699,197.808 235.371,198.469 236.052,199.125 236.743,199.777 237.444,200.424 238.153,201.065 238.872,201.702 239.6,202.334 240.337,202.961 241.083,203.583 241.839,204.199 242.602,204.81 243.375,205.416 244.156,206.016 244.946,206.611 245.745,207.201 246.552,207.785 247.367,208.363 248.191,208.936 249.023,209.502 249.863,210.064 250.711,210.619 251.567,211.168 252.431,211.711 253.302,212.249 254.182,212.78 255.069,213.305 255.963,213.824 256.865,214.337 257.775,214.843 258.691,215.343 259.615,215.837 260.546,216.324 261.483,216.805 262.428,217.279 263.38,217.747 264.338,218.208 265.302,218.663 266.274,219.11 267.251,219.551 268.235,219.985 269.226,220.413 270.222,220.833 271.224,221.247 272.232,221.653 273.246,222.053 274.266,222.445 275.291,222.83 276.322,223.209 277.359,223.58 278.4,223.943 279.447,224.3 280.499,224.649 281.556,224.991 282.617,225.326 283.684,225.653 284.755,225.973 285.831,226.286 286.911,226.591 287.995,226.888 289.084,227.178 290.177,227.46 291.274,227.735 292.374,228.002 293.479,228.262 294.587,228.513 295.699,228.758 296.814,228.994 297.933,229.223 299.055,229.443 300.18,229.656 301.308,229.862 302.439,230.059 303.573,230.249 304.709,230.43 305.848,230.604 306.989,230.77 308.133,230.928 309.279,231.078 310.427,231.22 311.577,231.354 312.729,231.481 313.883,231.599 315.038,231.709 316.195,231.811 317.353,231.905 318.513,231.991 319.674,232.069 320.836,232.139 321.998,232.201 323.162,232.255 324.326,232.301 325.491,232.338 326.657,232.368 327.823,232.389 328.989,232.403 330.155,232.408" stroke="#000000" stroke-dasharray="1,3,1,3,1,3,1,3" stroke-linecap="butt" stroke-linejoin="round" stroke-width="0.6"/>
   <polyline fill="none" points="330.341,50.4238 328.883,50.4289 327.425,50.444 325.968,50.4693 324.511,50.5047 323.055,50.5502 321.599,50.6057 320.144,50.6714 318.691,50.7472 317.238,50.833 315.787,50.9289 314.337,51.0349 312.889,51.1509 311.443,51.2769 309.998,51.413 308.556,51.5591 307.116,51.7152 305.678,51.8812 304.242,52.0573 302.809,52.2433 301.379,52.4391 299.952,52.645 298.528,52.8607 297.107,53.0862 295.689,53.3216 294.275,53.5669 292.864,53.8219 291.457,54.0867 290.054,54.3612 288.655,54.6455 287.26,54.9394 285.87,55.243 284.484,55.5562 283.102,55.8791 281.726,56.2115 280.354,56.5534 278.987,56.9048 277.625,57.2657 276.269,57.636 274.918,58.0157 273.572,58.4048 272.232,58.8031 270.898,59.2107 269.57,59.6276 268.248,60.0537 266.932,60.4889 265.623,60.9332 264.32,61.3865 263.024,61.8489 261.734,62.3203 260.451,62.8005 259.175,63.2897 257.907,63.7876 256.645,64.2944 255.391,64.8098 254.145,65.3339 252.906,65.8667 251.674,66.408 250.451,66.9578 249.236,67.5161 248.029,68.0828 246.829,68.6579 245.639,69.2412 244.457,69.8327 243.283,70.4324 242.118,71.0402 240.962,71.6561 239.815,72.28 238.677,72.9118 237.548,73.5514 236.428,74.1988 235.318,74.854 234.217,75.5169 233.126,76.1873 232.045,76.8653 230.973,77.5507 229.911,78.2436 228.86,78.9437 227.818,79.6512 226.787,80.3658 225.766,81.0875 224.756,81.8163 223.756,82.552 222.767,83.2947 221.789,84.0441 220.821,84.8003 219.864,85.5632 218.919,86.3327 217.984,87.1087 217.061,87.8912 216.149,88.68 215.249,89.4751 214.36,90.2764 213.483,91.0838 212.617,91.8972 211.763,92.7167 210.921,93.542 210.091,94.3731 209.273,95.2099 208.467,96.0524 207.673,96.9004 206.892,97.7538 206.123,98.6127 205.366,99.4768 204.622,100.346 203.89,101.221 203.171,102.1 202.465,102.985 201.771,103.874 201.091,104.768 200.423,105.667 199.768,106.57 199.126,107.478 198.498,108.39 197.882,109.306 197.28,110.227 196.692,111.152 196.116,112.081 195.554,113.014 195.005,113.951 194.47,114.891 193.949,115.835 193.441,116.783 192.947,117.734 192.467,118.689 192,119.646 191.547,120.607 191.109,121.572 190.684,122.539 190.273,123.509 189.876,124.481 189.493,125.457 189.124,126.435 188.769,127.416 188.429,128.399 188.102,129.384 187.79,130.372 187.492,131.361 187.209,132.353 186.939,133.347 186.684,134.342 186.444,135.339 186.218,136.338 186.006,137.338 185.808,138.34 185.626,139.343 185.457,140.347 185.303,141.353 185.164,142.359 185.039,143.366 184.928,144.375 184.833,145.383 184.751,146.393 184.685,147.403 184.632,148.413 184.595,149.424 184.572,150.435 184.563,151.446 184.569,152.457 184.59,153.468 184.625,154.478 184.675,155.489 184.74,156.499 184.819,157.508 184.912,158.517 185.02,159.526 185.143,160.533 185.28,161.54 185.432,162.545 185.598,163.549 185.778,164.553 185.973,165.555 186.183,166.555 186.407,167.554 186.645,168.552 186.898,169.547 187.165,170.541 187.446,171.533 187.742,172.523 188.052,173.511 188.376,174.497 188.714,175.48 189.066,176.461 189.433,177.44 189.814,178.416 190.209,179.389 190.617,180.36 191.04,181.327 191.477,182.292 191.927,183.253 192.392,184.212 192.87,185.167 193.362,186.118 193.867,187.067 194.387,188.011 194.919,188.952 195.466,189.89 196.026,190.823 196.599,191.753 197.186,192.678 197.786,193.6 198.399,194.517 199.025,195.43 199.665,196.338 200.318,197.242 200.983,198.142 201.662,199.037 202.353,199.927 203.058,200.812 203.775,201.692 204.504,202.567 205.246,203.438 206.001,204.303 206.768,205.162 207.548,206.017 208.34,206.865 209.144,207.709 209.96,208.546 210.788,209.378 211.628,210.205 212.48,211.025 213.344,211.84 214.219,212.648 215.107,213.45 216.005,214.246 216.915,215.036 217.837,215.82 218.769,216.597 219.713,217.367 220.668,218.131 221.634,218.888 222.61,219.639 223.598,220.383 224.596,221.119 225.605,221.849 226.624,222.572 227.653,223.288 228.693,223.997 229.743,224.698 230.803,225.392 231.873,226.079 232.953,226.758 234.043,227.429 235.142,228.093 236.251,228.75 237.369,229.398 238.496,230.039 239.633,230.672 240.779,231.298 241.933,231.915 243.097,232.524 244.269,233.125 245.45,233.718 246.639,234.302 247.837,234.879 249.043,235.447 250.257,236.006 251.479,236.557 252.709,237.1 253.947,237.634 255.192,238.16 256.445,238.677 257.705,239.185 258.973,239.684 260.248,240.175 261.529,240.656 262.818,241.129 264.113,241.593 265.415,242.048 266.723,242.493 268.038,242.93 269.359,243.358 270.686,243.776 272.02,244.185 273.358,244.585 274.703,244.975 276.053,245.357 277.409,245.728 278.77,246.091 280.136,246.444 281.507,246.787 282.883,247.121 284.264,247.445 285.649,247.76 287.039,248.065 288.433,248.361 289.831,248.647 291.233,248.923 292.64,249.189 294.05,249.446 295.463,249.692 296.881,249.929 298.301,250.157 299.725,250.374 301.152,250.581 302.581,250.779 304.014,250.966 305.449,251.144 306.886,251.312 308.326,251.469 309.768,251.617 311.213,251.755 312.659,251.882 314.107,252 315.556,252.107 317.007,252.205 318.459,252.292 319.913,252.37 321.367,252.437 322.823,252.494 324.279,252.541 325.736,252.578 327.193,252.605 328.651,252.622 330.108,252.629" stroke="#000000" stroke-dasharray="1,3,1,3,1,3,1,3" stroke-linecap="butt" stroke-linejoin="round" stroke-width="0.6"/>
   <polyline fill="none" points="330.341,30.2033 328.591,30.2094 326.842,30.2276 325.093,30.2579 323.345,30.3004 321.598,30.3549 319.851,30.4217 318.105,30.5005 316.361,30.5914 314.618,30.6944 312.876,30.8094 311.137,30.9366 309.399,31.0758 307.663,31.2271 305.93,31.3904 304.199,31.5657 302.471,31.753 300.745,31.9522 299.022,32.1635 297.303,32.3866 295.587,32.6217 293.874,32.8687 292.165,33.1275 290.46,33.3982 288.759,33.6807 287.061,33.975 285.369,34.281 283.68,34.5988 281.997,34.9282 280.318,35.2693 278.644,35.622 276.976,35.9864 275.313,36.3622 273.655,36.7496 272.003,37.1485 270.357,37.5588 268.716,37.9805 267.082,38.4136 265.454,38.858 263.833,39.3136 262.219,39.7805 260.611,40.2585 259.01,40.7477 257.416,41.2479 255.83,41.7592 254.251,42.2814 252.68,42.8145 251.116,43.3586 249.56,43.9135 248.013,44.4791 246.473,45.0554 244.942,45.6423 243.42,46.2399 241.906,46.848 240.401,47.4666 238.905,48.0955 237.419,48.7348 235.941,49.3844 234.473,50.0442 233.015,50.7141 231.566,51.3941 230.127,52.0842 228.699,52.7841 227.28,53.494 225.872,54.2137 224.474,54.9431 223.086,55.6821 221.71,56.4307 220.344,57.1889 218.989,57.9564 217.646,58.7334 216.314,59.5196 214.993,60.315 213.683,61.1195 212.386,61.9331 211.1,62.7556 209.826,63.587 208.564,64.4272 207.314,65.2762 206.077,66.1337 204.852,66.9998 203.639,67.8743 202.439,68.7572 201.252,69.6483 200.078,70.5477 198.917,71.4552 197.769,72.3706 196.634,73.294 195.513,74.2252 194.405,75.1641 193.311,76.1107 192.231,77.0648 191.164,78.0264 190.111,78.9953 189.072,79.9715 188.048,80.9548 187.037,81.9451 186.041,82.9425 185.059,83.9466 184.092,84.9576 183.14,85.9752 182.202,86.9994 181.279,88.03 180.371,89.0669 179.478,90.1101 178.6,91.1595 177.737,92.2149 176.89,93.2762 176.057,94.3433 175.241,95.4162 174.439,96.4946 173.654,97.5786 172.884,98.668 172.129,99.7626 171.391,100.862 170.668,101.967 169.962,103.077 169.271,104.192 168.597,105.311 167.938,106.435 167.296,107.564 166.671,108.697 166.061,109.834 165.468,110.976 164.892,112.121 164.332,113.27 163.789,114.424 163.262,115.581 162.752,116.741 162.259,117.905 161.783,119.072 161.323,120.243 160.881,121.417 160.455,122.594 160.046,123.773 159.655,124.956 159.28,126.141 158.923,127.328 158.582,128.518 158.259,129.711 157.953,130.905 157.664,132.102 157.393,133.3 157.139,134.501 156.902,135.703 156.683,136.906 156.48,138.112 156.296,139.318 156.128,140.526 155.979,141.734 155.846,142.944 155.731,144.155 155.634,145.366 155.553,146.578 155.491,147.791 155.446,149.003 155.418,150.216 155.408,151.43 155.415,152.643 155.44,153.856 155.482,155.069 155.542,156.281 155.62,157.493 155.714,158.705 155.827,159.916 155.956,161.125 156.103,162.334 156.268,163.542 156.45,164.749 156.649,165.954 156.866,167.158 157.1,168.36 157.351,169.561 157.62,170.76 157.906,171.957 158.209,173.152 158.53,174.344 158.867,175.535 159.222,176.723 159.594,177.908 159.983,179.091 160.389,180.271 160.812,181.448 161.252,182.623 161.708,183.794 162.182,184.962 162.673,186.126 163.18,187.287 163.704,188.445 164.244,189.599 164.802,190.749 165.376,191.895 165.966,193.037 166.573,194.175 167.196,195.308 167.835,196.438 168.491,197.562 169.163,198.683 169.851,199.798 170.555,200.909 171.275,202.014 172.011,203.115 172.762,204.21 173.53,205.301 174.313,206.386 175.112,207.465 175.926,208.539 176.756,209.607 177.601,210.669 178.461,211.725 179.337,212.776 180.228,213.82 181.133,214.858 182.054,215.889 182.989,216.915 183.94,217.933 184.904,218.945 185.884,219.951 186.878,220.949 187.886,221.94 188.908,222.925 189.945,223.902 190.995,224.872 192.06,225.835 193.138,226.79 194.23,227.738 195.336,228.678 196.455,229.611 197.588,230.535 198.733,231.452 199.892,232.361 201.064,233.261 202.249,234.154 203.447,235.038 204.658,235.914 205.881,236.781 207.116,237.64 208.364,238.491 209.624,239.332 210.896,240.165 212.18,240.989 213.476,241.804 214.783,242.61 216.102,243.407 217.433,244.194 218.775,244.973 220.128,245.742 221.492,246.502 222.866,247.252 224.252,247.992 225.648,248.723 227.055,249.444 228.472,250.156 229.899,250.857 231.336,251.549 232.783,252.231 234.24,252.902 235.707,253.564 237.183,254.215 238.668,254.856 240.163,255.486 241.666,256.107 243.178,256.716 244.699,257.316 246.229,257.904 247.767,258.482 249.313,259.05 250.868,259.606 252.43,260.152 254,260.687 255.578,261.211 257.163,261.724 258.756,262.226 260.355,262.717 261.962,263.197 263.576,263.665 265.196,264.123 266.823,264.569 268.456,265.004 270.095,265.427 271.74,265.839 273.391,266.24 275.048,266.629 276.711,267.007 278.378,267.373 280.051,267.728 281.729,268.071 283.412,268.402 285.1,268.722 286.792,269.03 288.488,269.326 290.189,269.61 291.893,269.883 293.602,270.143 295.314,270.392 297.029,270.629 298.748,270.854 300.47,271.067 302.196,271.269 303.923,271.458 305.654,271.635 307.387,271.8 309.122,271.953 310.86,272.094 312.599,272.224 314.34,272.341 316.083,272.445 317.827,272.538 319.573,272.619 321.319,272.688 323.067,272.744 324.815,272.789 326.564,272.821 328.313,272.841 330.062,272.849" stroke="#000000" stroke-dasharray="1,3,1,3,1,3,1,3" stroke-linecap="butt" stroke-linejoin="round" stroke-width="0.6"/>
   <polyline fill="none" points="243.93,23.2974 243.411,23.4646 241.569,24.0739 239.736,24.696 237.912,25.3307 236.097,25.978 234.291,26.6379 232.495,27.3102 230.709,27.995 228.933,28.6922 227.167,29.4016 225.411,30.1233 223.666,30.8571 221.932,31.6029 220.208,32.3607 218.495,33.1305 216.794,33.9121 215.104,34.7054 213.425,35.5105 211.758,36.3271 210.103,37.1553 208.46,37.9949 206.829,38.8459 205.211,39.7081 203.605,40.5815 202.011,41.466 200.431,42.3615 198.863,43.2679 197.309,44.1852 195.768,45.1131 194.24,46.0517 192.726,47.0009 191.226,47.9605 189.74,48.9305 188.268,49.9107 186.81,50.9011 185.366,51.9016 183.937,52.912 182.522,53.9323 181.122,54.9623 179.738,56.002 178.368,57.0513 177.013,58.11 175.674,59.178 174.35,60.2553 173.042,61.3417 171.749,62.4371 170.473,63.5415 169.212,64.6546 167.968,65.7764 166.739,66.9068 165.528,68.0457 164.332,69.1928 163.153,70.3483 161.991,71.5118 160.846,72.6834 159.718,73.8628 158.606,75.05 157.512,76.2449 156.435,77.4473 155.376,78.657 154.334,79.8741 153.31,81.0983 152.303,82.3296 151.314,83.5678 150.343,84.8128 149.391,86.0645 148.456,87.3227 147.539,88.5873 146.641,89.8583 145.761,91.1354 144.899,92.4185 144.056,93.7076 143.232,95.0024 142.426,96.3028 141.639,97.6088 140.871,98.9202 140.122,100.237 139.392,101.559 138.682,102.885 137.99,104.217 137.317,105.553 136.664,106.894 136.03,108.24 135.416,109.59 134.821,110.944 134.246,112.302 133.69,113.664 133.154,115.029 132.637,116.399 132.141,117.772 131.664,119.148 131.207,120.527 130.77,121.91 130.353,123.295 129.956,124.684 129.579,126.075 129.222,127.469 128.885,128.865 128.568,130.263 128.272,131.663 127.996,133.066 127.74,134.47 127.504,135.876 127.288,137.283 127.093,138.692 126.918,140.102 126.764,141.514 126.629,142.926 126.516,144.339 126.422,145.753 126.349,147.168 126.297,148.583 126.264,149.998 126.252,151.414 126.261,152.829 126.29,154.244 126.339,155.659 126.409,157.074 126.499,158.488 126.61,159.901 126.741,161.314 126.892,162.725 127.064,164.136 127.256,165.545 127.468,166.953 127.701,168.359 127.954,169.763 128.227,171.166 128.52,172.567 128.833,173.965 129.167,175.362 129.521,176.756 129.895,178.147 130.288,179.536 130.702,180.922 131.136,182.305 131.59,183.685 132.063,185.062 132.557,186.435 133.07,187.805 133.603,189.172 134.156,190.534 134.728,191.893 135.32,193.247 135.931,194.598 136.562,195.944 137.212,197.286 137.881,198.623 138.57,199.955 139.278,201.283 140.005,202.605 140.751,203.923 141.516,205.235 142.3,206.542 143.102,207.843 143.924,209.139 144.764,210.429 145.622,211.713 146.499,212.991 147.395,214.263 148.309,215.529 149.24,216.788 150.19,218.041 151.159,219.287 152.144,220.526 153.148,221.758 154.17,222.984 155.209,224.202 156.266,225.413 157.34,226.617 158.431,227.813 159.539,229.001 160.665,230.182 161.808,231.355 162.967,232.519 164.143,233.676 165.336,234.825 166.545,235.965 167.771,237.097 169.013,238.22 170.271,239.334 171.545,240.44 172.835,241.537 174.141,242.625 175.462,243.703 176.799,244.773 178.151,245.833 179.518,246.884 180.901,247.925 182.298,248.957 183.71,249.979 185.137,250.991 186.579,251.993 188.034,252.985 189.504,253.967 190.989,254.938 192.487,255.899 193.998,256.85 195.524,257.791 197.063,258.72 198.615,259.639 200.18,260.547 201.759,261.445 203.35,262.331 204.954,263.206 206.571,264.07 208.199,264.923 209.841,265.764 211.494,266.594 213.159,267.413 214.836,268.22 216.524,269.015 218.224,269.798 219.935,270.57 221.656,271.33 223.389,272.077 225.133,272.813 226.887,273.537 228.651,274.248 230.426,274.947 232.21,275.634 234.005,276.308 235.809,276.97 237.622,277.62 239.445,278.256 241.277,278.88 243.117,279.492 243.931,279.755" stroke="#000000" stroke-dasharray="1,3,1,3,1,3,1,3" stroke-linecap="butt" stroke-linejoin="round" stroke-width="0.6"/>
   <polyline fill="none" points="188.155,23.2974 187.335,23.734 185.5,24.7322 183.679,25.7431 181.872,26.7665 180.081,27.8024 178.305,28.8507 176.543,29.9112 174.797,30.9839 173.067,32.0687 171.353,33.1654 169.654,34.274 167.971,35.3942 166.305,36.5261 164.655,37.6695 163.022,38.8243 161.405,39.9903 159.805,41.1675 158.223,42.3557 156.657,43.5549 155.109,44.7648 153.579,45.9854 152.066,47.2166 150.571,48.4582 149.094,49.7101 147.635,50.9722 146.194,52.2444 144.772,53.5264 143.368,54.8183 141.983,56.1198 140.617,57.4309 139.269,58.7514 137.941,60.0812 136.632,61.4201 135.343,62.7681 134.073,64.1248 132.822,65.4904 131.592,66.8645 130.381,68.2471 129.19,69.6381 128.02,71.0372 126.869,72.4444 125.739,73.8595 124.63,75.2823 123.541,76.7128 122.472,78.1508 121.425,79.5961 120.398,81.0486 119.392,82.5081 118.408,83.9745 117.444,85.4477 116.502,86.9275 115.581,88.4138 114.682,89.9064 113.804,91.4051 112.948,92.9099 112.114,94.4205 111.302,95.9368 110.511,97.4586 109.743,98.9859 108.996,100.518 108.272,102.056 107.569,103.599 106.89,105.146 106.232,106.698 105.597,108.255 104.984,109.815 104.394,111.38 103.826,112.949 103.282,114.522 102.759,116.099 102.26,117.679 101.783,119.262 101.33,120.849 100.899,122.439 100.491,124.032 100.106,125.627 99.7439,127.225 99.405,128.826 99.0893,130.428 98.7966,132.033 98.5271,133.64 98.2809,135.249 98.0577,136.859 97.8579,138.471 97.6813,140.084 97.5279,141.698 97.3979,143.313 97.291,144.929 97.2076,146.545 97.1474,148.162 97.1106,149.78 97.0971,151.397 97.1069,153.015 97.14,154.632 97.1964,156.25 97.2762,157.866 97.3793,159.482 97.5056,161.098 97.6553,162.712 97.8282,164.325 98.0244,165.937 98.2438,167.547 98.4864,169.156 98.7522,170.763 99.0411,172.369 99.3532,173.972 99.6884,175.573 100.047,177.171 100.428,178.767 100.832,180.36 101.259,181.95 101.709,183.537 102.183,185.122 102.678,186.702 103.197,188.279 103.738,189.853 104.302,191.422 104.889,192.988 105.498,194.55 106.129,196.107 106.783,197.66 107.46,199.208 108.158,200.751 108.879,202.289 109.622,203.823 110.387,205.351 111.174,206.874 111.983,208.391 112.814,209.902 113.667,211.408 114.541,212.908 115.437,214.401 116.354,215.889 117.293,217.369 118.253,218.844 119.234,220.311 120.236,221.772 121.26,223.226 122.304,224.672 123.369,226.111 124.455,227.543 125.561,228.967 126.688,230.383 127.835,231.792 129.003,233.192 130.19,234.584 131.398,235.968 132.625,237.344 133.872,238.711 135.139,240.069 136.426,241.418 137.732,242.759 139.057,244.09 140.401,245.412 141.764,246.724 143.146,248.027 144.547,249.321 145.966,250.605 147.404,251.878 148.86,253.142 150.334,254.396 151.826,255.639 153.336,256.872 154.864,258.094 156.41,259.306 157.972,260.506 159.552,261.696 161.149,262.875 162.763,264.043 164.394,265.2 166.041,266.345 167.705,267.479 169.385,268.601 171.081,269.711 172.793,270.81 174.521,271.897 176.264,272.971 178.023,274.034 179.797,275.084 181.586,276.122 183.39,277.147 185.209,278.16 187.042,279.16 188.155,279.755" stroke="#000000" stroke-dasharray="1,3,1,3,1,3,1,3" stroke-linecap="butt" stroke-linejoin="round" stroke-width="0.6"/>
   <polyline fill="none" points="144.147,23.2974 143.945,23.4374 142.107,24.7365 140.288,26.0483 138.489,27.3727 136.708,28.7094 134.947,30.0584 133.205,31.4196 131.483,32.7928 129.781,34.1779 128.099,35.5747 126.438,36.9831 124.796,38.403 123.176,39.8341 121.575,41.2765 119.996,42.7298 118.438,44.1941 116.901,45.669 115.385,47.1546 113.891,48.6506 112.419,50.1569 110.968,51.6733 109.539,53.1997 108.133,54.7359 106.748,56.2818 105.386,57.8373 104.047,59.4021 102.73,60.9761 101.435,62.5592 100.164,64.1511 98.9157,65.7518 97.6905,67.3611 96.4886,68.9788 95.3101,70.6048 94.1551,72.2388 93.0237,73.8808 91.916,75.5306 90.8322,77.1879 89.7723,78.8527 88.7365,80.5247 87.7249,82.2039 86.7374,83.89 85.7744,85.5828 84.8358,87.2822 83.9218,88.9881 83.0324,90.7002 82.1678,92.4184 81.3279,94.1425 80.513,95.8723 79.723,97.6078 78.9582,99.3486 78.2184,101.095 77.5038,102.846 76.8146,104.602 76.1507,106.362 75.5122,108.127 74.8992,109.897 74.3117,111.67 73.7499,113.448 73.2137,115.23 72.7032,117.015 72.2184,118.803 71.7595,120.595 71.3265,122.39 70.9193,124.188 70.5381,125.988 70.1829,127.791 69.8537,129.597 69.5505,131.404 69.2734,133.214 69.0224,135.025 68.7975,136.839 68.5989,138.653 68.4263,140.469 68.28,142.286 68.1599,144.104 68.066,145.923 67.9983,147.742 67.9568,149.562 67.9416,151.381 67.9527,153.201 67.9899,155.021 68.0534,156.84 68.1432,158.659 68.2591,160.477 68.4013,162.294 68.5696,164.11 68.7642,165.925 68.9848,167.738 69.2317,169.55 69.5046,171.36 69.8036,173.168 70.1287,174.974 70.4798,176.777 70.8568,178.578 71.2599,180.377 71.6888,182.172 72.1436,183.964 72.6242,185.753 73.1306,187.539 73.6627,189.321 74.2205,191.099 74.8039,192.873 75.4128,194.644 76.0473,196.409 76.7071,198.171 77.3924,199.927 78.1029,201.679 78.8386,203.426 79.5995,205.168 80.3855,206.904 81.1964,208.635 82.0323,210.36 82.8931,212.079 83.7785,213.792 84.6886,215.499 85.6233,217.199 86.5824,218.893 87.5659,220.581 88.5738,222.261 89.6057,223.934 90.6618,225.6 91.7418,227.258 92.8457,228.909 93.9733,230.553 95.1246,232.188 96.2993,233.815 97.4975,235.434 98.719,237.045 99.9636,238.647 101.231,240.24 102.522,241.825 103.835,243.4 105.171,244.967 106.53,246.524 107.911,248.071 109.314,249.609 110.739,251.137 112.186,252.655 113.655,254.163 115.146,255.66 116.658,257.148 118.192,258.624 119.747,260.09 121.323,261.545 122.919,262.989 124.537,264.422 126.175,265.844 127.833,267.254 129.512,268.653 131.211,270.04 132.93,271.415 134.668,272.778 136.426,274.129 138.204,275.468 140,276.794 141.816,278.108 143.651,279.409 144.148,279.755" stroke="#000000" stroke-dasharray="1,3,1,3,1,3,1,3" stroke-linecap="butt" stroke-linejoin="round" stroke-width="0.6"/>
   <polyline fill="none" points="104.913,23.2974 103.782,24.2561 101.958,25.8337 100.157,27.4239 98.3793,29.0265 96.6247,30.6413 94.8934,32.2682 93.1856,33.9071 91.5016,35.5577 89.8415,37.2199 88.2053,38.8936 86.5935,40.5785 85.0059,42.2745 83.4429,43.9814 81.9047,45.6991 80.3912,47.4274 78.9028,49.166 77.4395,50.915 76.0014,52.674 74.5888,54.4428 73.2018,56.2214 71.8405,58.0095 70.5051,59.8069 69.1956,61.6135 67.9123,63.4291 66.6552,65.2536 65.4244,67.0866 64.2202,68.9281 63.0425,70.7779 61.8916,72.6357 60.7676,74.5014 59.6704,76.3748 58.6004,78.2558 57.5575,80.144 56.5419,82.0394 55.5537,83.9418 54.593,85.8509 54.1098,86.8428" stroke="#000000" stroke-dasharray="1,3,1,3,1,3,1,3" stroke-linecap="butt" stroke-linejoin="round" stroke-width="0.6"/>
   <polyline fill="none" points="54.1098,216.21 54.4425,216.897 55.3989,218.807 56.3827,220.711 57.394,222.607 58.4325,224.496 59.4982,226.379 60.591,228.253 61.7108,230.12 62.8574,231.979 64.0308,233.83 65.2308,235.673 66.4574,237.508 67.7103,239.333 68.9894,241.15 70.2948,242.958 71.6261,244.757 72.9833,246.547 74.3662,248.327 75.7747,250.097 77.2087,251.858 78.668,253.609 80.1525,255.349 81.6619,257.079 83.1963,258.798 84.7553,260.507 86.339,262.205 87.947,263.891 89.5793,265.567 91.2356,267.231 92.9158,268.883 94.6198,270.524 96.3474,272.153 98.0983,273.77 99.8725,275.374 101.67,276.966 103.49,278.546 104.912,279.755" stroke="#000000" stroke-dasharray="1,3,1,3,1,3,1,3" stroke-linecap="butt" stroke-linejoin="round" stroke-width="0.6"/>
   <polyline fill="none" points="68.2947,23.2974 67.6177,23.9609 65.7915,25.7893 63.9918,27.6303 62.2188,29.4837 60.4725,31.3493 58.7532,33.227 57.0611,35.1164 55.3963,37.0175 54.1098,38.5203" stroke="#000000" stroke-dasharray="1,3,1,3,1,3,1,3" stroke-linecap="butt" stroke-linejoin="round" stroke-width="0.6"/>
   <polyline fill="none" points="54.1098,264.531 55.1337,265.731 56.7941,267.634 58.4819,269.525 60.1968,271.405 61.9388,273.272 63.7076,275.128 65.5031,276.971 67.3251,278.801 68.295,279.755" stroke="#000000" stroke-dasharray="1,3,1,3,1,3,1,3" stroke-linecap="butt" stroke-linejoin="round" stroke-width="0.6"/>
   <g font-family="FreeSans" font-size="10" font-style="normal" font-weight="normal" transform="translate(335.208,135.306) rotate(-0,-0,-4)" xml:space="preserve">
    <text fill="rgb(0,0,0)" x="0 6 9 15 " y="-0">0.60</text>
   </g>
   <g font-family="FreeSans" font-size="10" font-style="normal" font-weight="normal" transform="translate(335.208,115.085) rotate(-0,-0,-4)" xml:space="preserve">
    <text fill="rgb(0,0,0)" x="0 6 9 15 " y="-0">1.20</text>
   </g>
   <g font-family="FreeSans" font-size="10" font-style="normal" font-weight="normal" transform="translate(335.208,94.8648) rotate(-0,-0,-4)" xml:space="preserve">
    <text fill="rgb(0,0,0)" x="0 6 9 15 " y="-0">1.80</text>
   </g>
   <g font-family="FreeSans" font-size="10" font-style="normal" font-weight="normal" transform="translate(335.208,74.6443) rotate(-0,-0,-4)" xml:space="preserve">
    <text fill="rgb(0,0,0)" x="0 6 9 15 " y="-0">2.40</text>
   </g>
   <g font-family="FreeSans" font-size="10" font-style="normal" font-weight="normal" transform="translate(335.208,54.4238) rotate(-0,-0,-4)" xml:space="preserve">
    <text fill="rgb(0,0,0)" x="0 6 9 15 " y="-0">3.00</text>
   </g>
   <g font-family="FreeSans" font-size="10" font-style="normal" font-weight="normal" transform="translate(335.208,34.2033) rotate(-0,-0,-4)" xml:space="preserve">
    <text fill="rgb(0,0,0)" x="0 6 9 15 " y="-0">3.60</text>
   </g>
   <g font-family="FreeSans" font-size="10" font-style="normal" font-weight="normal" transform="translate(335.208,156.526) rotate(-0,-0,-5)" xml:space="preserve">
    <text fill="rgb(0,0,0)" x="0 6 9 12 17 23 26 " y="-1">0 rad/s</text>
   </g>
   <g font-family="FreeSans" font-size="10" font-style="normal" font-weight="normal" transform="translate(335.208,175.747) rotate(-0,-0,-4)" xml:space="preserve">
    <text fill="rgb(0,0,0)" x="0 6 9 15 " y="-0">0.60</text>
   </g>
   <g font-family="FreeSans" font-size="10" font-style="normal" font-weight="normal" transform="translate(335.208,195.967) rotate(-0,-0,-4)" xml:space="preserve">
    <text fill="rgb(0,0,0)" x="0 6 9 15 " y="-0">1.20</text>
   </g>
   <g font-family="FreeSans" font-size="10" font-style="normal" font-weight="normal" transform="translate(335.208,216.188) rotate(-0,-0,-4)" xml:space="preserve">
    <text fill="rgb(0,0,0)" x="0 6 9 15 " y="-0">1.80</text>
   </g>
   <g font-family="FreeSans" font-size="10" font-style="normal" font-weight="normal" transform="translate(335.208,236.408) rotate(-0,-0,-4)" xml:space="preserve">
    <text fill="rgb(0,0,0)" x="0 6 9 15 " y="-0">2.40</text>
   </g>
   <g font-family="FreeSans" font-size="10" font-style="normal" font-weight="normal" transform="translate(335.208,256.629) rotate(-0,-0,-4)" xml:space="preserve">
    <text fill="rgb(0,0,0)" x="0 6 9 15 " y="-0">3.00</text>
   </g>
   <g font-family="FreeSans" font-size="10" font-style="normal" font-weight="normal" transform="translate(335.208,276.849) rotate(-0,-0,-4)" xml:space="preserve">
    <text fill="rgb(0,0,0)" x="0 6 9 15 " y="-0">3.60</text>
   </g>
   <polyline fill="none" points="330.341,151.526 54.1098,151.526" stroke="#000000" stroke-dasharray="1,3,1,3,1,3,1,3" stroke-linecap="butt" stroke-linejoin="round" stroke-width="0.6"/>
   <g font-family="FreeSans" font-size="10" font-style="normal" font-weight="normal" transform="translate(59.302,155.526) rotate(-0,-0,-4)" xml:space="preserve">
    <text fill="rgb(0,0,0)" x="0 6 9 15 " y="-0">1.00</text>
   </g>
   <polyline fill="none" points="330.341,151.526 54.1098,126.305" stroke="#000000" stroke-dasharray="1,3,1,3,1,3,1,3" stroke-linecap="butt" stroke-linejoin="round" stroke-width="0.6"/>
   <g font-family="FreeSans" font-size="10" font-style="normal" font-weight="normal" transform="translate(59.302,130.779) rotate(-0,-0,-4)" xml:space="preserve">
    <text fill="rgb(0,0,0)" x="0 6 9 15 " y="-0">0.99</text>
   </g>
   <polyline fill="none" points="330.341,151.526 54.1098,100.193" stroke="#000000" stroke-dasharray="1,3,1,3,1,3,1,3" stroke-linecap="butt" stroke-linejoin="round" stroke-width="0.6"/>
   <g font-family="FreeSans" font-size="10" font-style="normal" font-weight="normal" transform="translate(59.302,105.158) rotate(-0,-0,-4)" xml:space="preserve">
    <text fill="rgb(0,0,0)" x="0 6 9 15 " y="-0">0.97</text>
   </g>
   <polyline fill="none" points="330.341,151.526 54.1098,72.1723" stroke="#000000" stroke-dasharray="1,3,1,3,1,3,1,3" stroke-linecap="butt" stroke-linejoin="round" stroke-width="0.6"/>
   <g font-family="FreeSans" font-size="10" font-style="normal" font-weight="normal" transform="translate(59.302,77.6639) rotate(-0,-0,-4)" xml:space="preserve">
    <text fill="rgb(0,0,0)" x="0 6 9 15 " y="-0">0.92</text>
   </g>
   <polyline fill="none" points="330.341,151.526 54.1098,40.9191" stroke="#000000" stroke-dasharray="1,3,1,3,1,3,1,3" stroke-linecap="butt" stroke-linejoin="round" stroke-width="0.6"/>
   <g font-family="FreeSans" font-size="10" font-style="normal" font-weight="normal" transform="translate(59.302,46.9981) rotate(-0,-0,-4)" xml:space="preserve">
    <text fill="rgb(0,0,0)" x="0 6 9 15 " y="-0">0.87</text>
   </g>
   <polyline fill="none" points="330.341,151.526 89.3869,23.2974" stroke="#000000" stroke-dasharray="1,3,1,3,1,3,1,3" stroke-linecap="butt" stroke-linejoin="round" stroke-width="0.6"/>
   <g font-family="FreeSans" font-size="10" font-style="normal" font-weight="normal" transform="translate(97.082,31.3925) rotate(-0,-0,-4)" xml:space="preserve">
    <text fill="rgb(0,0,0)" x="0 6 9 15 " y="-0">0.79</text>
   </g>
   <polyline fill="none" points="330.341,151.526 145.45,23.2974" stroke="#000000" stroke-dasharray="1,3,1,3,1,3,1,3" stroke-linecap="butt" stroke-linejoin="round" stroke-width="0.6"/>
   <g font-family="FreeSans" font-size="10" font-style="normal" font-weight="normal" transform="translate(151.355,31.3925) rotate(-0,-0,-4)" xml:space="preserve">
    <text fill="rgb(0,0,0)" x="0 6 9 15 " y="-0">0.71</text>
   </g>
   <polyline fill="none" points="330.341,151.526 188.469,23.2974" stroke="#000000" stroke-dasharray="1,3,1,3,1,3,1,3" stroke-linecap="butt" stroke-linejoin="round" stroke-width="0.6"/>
   <g font-family="FreeSans" font-size="10" font-style="normal" font-weight="normal" transform="translate(193,31.3925) rotate(-0,-0,-4)" xml:space="preserve">
    <text fill="rgb(0,0,0)" x="0 6 9 15 " y="-0">0.61</text>
   </g>
   <polyline fill="none" points="330.341,151.526 223.594,23.2974" stroke="#000000" stroke-dasharray="1,3,1,3,1,3,1,3" stroke-linecap="butt" stroke-linejoin="round" stroke-width="0.6"/>
   <g font-family="FreeSans" font-size="10" font-style="normal" font-weight="normal" transform="translate(227.003,31.3925) rotate(-0,-0,-4)" xml:space="preserve">
    <text fill="rgb(0,0,0)" x="0 6 9 15 " y="-0">0.50</text>
   </g>
   <polyline fill="none" points="330.341,151.526 253.756,23.2974" stroke="#000000" stroke-dasharray="1,3,1,3,1,3,1,3" stroke-linecap="butt" stroke-linejoin="round" stroke-width="0.6"/>
   <g font-family="FreeSans" font-size="10" font-style="normal" font-weight="normal" transform="translate(256.202,31.3925) rotate(-0,-0,-4)" xml:space="preserve">
    <text fill="rgb(0,0,0)" x="0 6 9 15 " y="-0">0.38</text>
   </g>
   <polyline fill="none" points="330.341,151.526 280.799,23.2974" stroke="#000000" stroke-dasharray="1,3,1,3,1,3,1,3" stroke-linecap="butt" stroke-linejoin="round" stroke-width="0.6"/>
   <g font-family="FreeSans" font-size="10" font-style="normal" font-weight="normal" transform="translate(282.382,31.3925) rotate(-0,-0,-4)" xml:space="preserve">
    <text fill="rgb(0,0,0)" x="0 6 9 15 " y="-0">0.26</text>
   </g>
   <polyline fill="none" points="330.341,151.526 305.999,23.2974" stroke="#000000" stroke-dasharray="1,3,1,3,1,3,1,3" stroke-linecap="butt" stroke-linejoin="round" stroke-width="0.6"/>
   <g font-family="FreeSans" font-size="10" font-style="normal" font-weight="normal" transform="translate(306.777,31.3925) rotate(-0,-0,-4)" xml:space="preserve">
    <text fill="rgb(0,0,0)" x="0 6 9 15 " y="-0">0.13</text>
   </g>
   <polyline fill="none" points="330.341,151.526 330.341,23.2974" stroke="#000000" stroke-dasharray="1,3,1,3,1,3,1,3" stroke-linecap="butt" stroke-linejoin="round" stroke-width="0.6"/>
   <g font-family="FreeSans" font-size="10" font-style="normal" font-weight="normal" transform="translate(330.341,279.66) rotate(-0,-0,-4)" xml:space="preserve">
    <text fill="rgb(0,0,0)" x="0 6 9 15 " y="-0">0.00</text>
   </g>
   <polyline fill="none" points="330.341,151.526 54.1098,176.748" stroke="#000000" stroke-dasharray="1,3,1,3,1,3,1,3" stroke-linecap="butt" stroke-linejoin="round" stroke-width="0.6"/>
   <g font-family="FreeSans" font-size="10" font-style="normal" font-weight="normal" transform="translate(59.302,180.274) rotate(-0,-0,-4)" xml:space="preserve">
    <text fill="rgb(0,0,0)" x="0 6 9 15 " y="-0">0.99</text>
   </g>
   <polyline fill="none" points="330.341,151.526 54.1098,202.859" stroke="#000000" stroke-dasharray="1,3,1,3,1,3,1,3" stroke-linecap="butt" stroke-linejoin="round" stroke-width="0.6"/>
   <g font-family="FreeSans" font-size="10" font-style="normal" font-weight="normal" transform="translate(59.302,205.894) rotate(-0,-0,-4)" xml:space="preserve">
    <text fill="rgb(0,0,0)" x="0 6 9 15 " y="-0">0.97</text>
   </g>
   <polyline fill="none" points="330.341,151.526 54.1098,230.88" stroke="#000000" stroke-dasharray="1,3,1,3,1,3,1,3" stroke-linecap="butt" stroke-linejoin="round" stroke-width="0.6"/>
   <g font-family="FreeSans" font-size="10" font-style="normal" font-weight="normal" transform="translate(59.302,233.389) rotate(-0,-0,-4)" xml:space="preserve">
    <text fill="rgb(0,0,0)" x="0 6 9 15 " y="-0">0.92</text>
   </g>
   <polyline fill="none" points="330.341,151.526 54.1098,262.133" stroke="#000000" stroke-dasharray="1,3,1,3,1,3,1,3" stroke-linecap="butt" stroke-linejoin="round" stroke-width="0.6"/>
   <g font-family="FreeSans" font-size="10" font-style="normal" font-weight="normal" transform="translate(59.302,264.054) rotate(-0,-0,-4)" xml:space="preserve">
    <text fill="rgb(0,0,0)" x="0 6 9 15 " y="-0">0.87</text>
   </g>
   <polyline fill="none" points="330.341,151.526 89.3869,279.755" stroke="#000000" stroke-dasharray="1,3,1,3,1,3,1,3" stroke-linecap="butt" stroke-linejoin="round" stroke-width="0.6"/>
   <g font-family="FreeSans" font-size="10" font-style="normal" font-weight="normal" transform="translate(97.082,279.66) rotate(-0,-0,-4)" xml:space="preserve">
    <text fill="rgb(0,0,0)" x="0 6 9 15 " y="-0">0.79</text>
   </g>
   <polyline fill="none" points="330.341,151.526 145.45,279.755" stroke="#000000" stroke-dasharray="1,3,1,3,1,3,1,3" stroke-linecap="butt" stroke-linejoin="round" stroke-width="0.6"/>
   <g font-family="FreeSans" font-size="10" font-style="normal" font-weight="normal" transform="translate(151.355,279.66) rotate(-0,-0,-4)" xml:space="preserve">
    <text fill="rgb(0,0,0)" x="0 6 9 15 " y="-0">0.71</text>
   </g>
   <polyline fill="none" points="330.341,151.526 188.469,279.755" stroke="#000000" stroke-dasharray="1,3,1,3,1,3,1,3" stroke-linecap="butt" stroke-linejoin="round" stroke-width="0.6"/>
   <g font-family="FreeSans" font-size="10" font-style="normal" font-weight="normal" transform="translate(193,279.66) rotate(-0,-0,-4)" xml:space="preserve">
    <text fill="rgb(0,0,0)" x="0 6 9 15 " y="-0">0.61</text>
   </g>
   <polyline fill="none" points="330.341,151.526 223.594,279.755" stroke="#000000" stroke-dasharray="1,3,1,3,1,3,1,3" stroke-linecap="butt" stroke-linejoin="round" stroke-width="0.6"/>
   <g font-family="FreeSans" font-size="10" font-style="normal" font-weight="normal" transform="translate(227.003,279.66) rotate(-0,-0,-4)" xml:space="preserve">
    <text fill="rgb(0,0,0)" x="0 6 9 15 " y="-0">0.50</text>
   </g>
   <polyline fill="none" points="330.341,151.526 253.756,279.755" stroke="#000000" stroke-dasharray="1,3,1,3,1,3,1,3" stroke-linecap="butt" stroke-linejoin="round" stroke-width="0.6"/>
   <g font-family="FreeSans" font-size="10" font-style="normal" font-weight="normal" transform="translate(256.202,279.66) rotate(-0,-0,-4)" xml:space="preserve">
    <text fill="rgb(0,0,0)" x="0 6 9 15 " y="-0">0.38</text>
   </g>
   <polyline fill="none" points="330.341,151.526 280.799,279.755" stroke="#000000" stroke-dasharray="1,3,1,3,1,3,1,3" stroke-linecap="butt" stroke-linejoin="round" stroke-width="0.6"/>
   <g font-family="FreeSans" font-size="10" font-style="normal" font-weight="normal" transform="translate(282.382,279.66) rotate(-0,-0,-4)" xml:space="preserve">
    <text fill="rgb(0,0,0)" x="0 6 9 15 " y="-0">0.26</text>
   </g>
   <polyline fill="none" points="330.341,151.526 305.999,279.755" stroke="#000000" stroke-dasharray="1,3,1,3,1,3,1,3" stroke-linecap="butt" stroke-linejoin="round" stroke-width="0.6"/>
   <g font-family="FreeSans" font-size="10" font-style="normal" font-weight="normal" transform="translate(306.777,279.66) rotate(-0,-0,-4)" xml:space="preserve">
    <text fill="rgb(0,0,0)" x="0 6 9 15 " y="-0">0.13</text>
   </g>
   <polyline fill="none" points="330.341,151.526 330.341,279.755" stroke="#000000" stroke-dasharray="1,3,1,3,1,3,1,3" stroke-linecap="butt" stroke-linejoin="round" stroke-width="0.6"/>
   <g font-family="FreeSans" font-size="10" font-style="normal" font-weight="normal" transform="translate(330.341,279.66) rotate(-0,-0,-4)" xml:space="preserve">
    <text fill="rgb(0,0,0)" x="0 6 9 15 " y="-0">0.00</text>
   </g>
   <polyline fill="none" points="330.341,151.526 330.341,23.2974" stroke="#000000" stroke-linecap="butt" stroke-linejoin="round" stroke-width="0.3"/>
   <polyline fill="none" points="330.341,151.526 330.341,279.755" stroke="#000000" stroke-linecap="butt" stroke-linejoin="round" stroke-width="0.3"/>
  </g>
  <clipPath id="cp00418314">
   <polygon points="0,314 418,314 418,0 0,0"/>
  </clipPath>
  <g clip-path="url(#cp00418314)">
   <polygon fill="#ffffff" points="270.894,78.5849 370.936,78.5849 370.936,31.5638 270.894,31.5638" shape-rendering="crispEdges"/>
   <polyline fill="none" points="270.894,78.5849 370.936,78.5849" stroke="#262626" stroke-dasharray="16,0" stroke-linecap="square" stroke-linejoin="miter" stroke-width="0.5"/>
   <polyline fill="none" points="270.894,31.5638 370.936,31.5638" stroke="#262626" stroke-dasharray="16,0" stroke-linecap="square" stroke-linejoin="miter" stroke-width="0.5"/>
   <polyline fill="none" points="270.894,78.5849 270.894,31.5638" stroke="#262626" stroke-dasharray="16,0" stroke-linecap="square" stroke-linejoin="miter" stroke-width="0.5"/>
   <polyline fill="none" points="370.936,78.5849 370.936,31.5638" stroke="#262626" stroke-dasharray="16,0" stroke-linecap="square" stroke-linejoin="miter" stroke-width="0.5"/>
   <polyline fill="none" points="274.899,40.5691 294.925,40.5691" stroke="#000000" stroke-dasharray="9,7" stroke-linecap="butt" stroke-linejoin="round" stroke-width="0.5"/>
   <g font-family="FreeSans" font-size="10" font-style="normal" font-weight="normal" transform="translate(298.931,45.5691) rotate(-0,-0,-5)" xml:space="preserve">
    <text fill="rgb(0,0,0)" x="0 5 10 15 23 29 32 37 40 45 " y="-2">asymptotes</text>
   </g>
   <polyline fill="none" points="274.899,54.5744 294.925,54.5744" stroke="#0000ff" stroke-linecap="butt" stroke-linejoin="round" stroke-width="2"/>
   <g font-family="FreeSans" font-size="10" font-style="normal" font-weight="normal" transform="translate(298.931,59.5744) rotate(-0,-0,-5)" xml:space="preserve">
    <text fill="rgb(0,0,0)" x="0 2 7 12 17 " y="-1">locus</text>
   </g>
   <polyline fill="none" points="280.912,65.0796 288.912,73.0796" stroke="#bf0000" stroke-linecap="square" stroke-linejoin="miter" stroke-width="2"/>
   <polyline fill="none" points="280.912,73.0796 288.912,65.0796" stroke="#bf0000" stroke-linecap="square" stroke-linejoin="miter" stroke-width="2"/>
   <g font-family="FreeSans" font-size="10" font-style="normal" font-weight="normal" transform="translate(298.931,74.5796) rotate(-0,-0,-5.5)" xml:space="preserve">
    <text fill="rgb(0,0,0)" x="0 5 11 16 21 24 26 31 36 42 45 51 56 58 63 " y="-2">open loop poles</text>
   </g>
  </g>
 </g>
</svg>
