<?xml version='1.0' encoding='UTF-8' standalone='no'?>
<svg height="360pt" viewBox="0 0 480 360" width="480pt" xmlns="http://www.w3.org/2000/svg" xmlns:xlink="http://www.w3.org/1999/xlink">
 <title>Figure 1</title>
 <desc>
Creator: GL2PS 1.4.2, (C) 1999-2020 C. Geuzaine
For: Octave
CreationDate: Sun Feb 15 20:18:48 2026
</desc>
 <defs/>
 <polygon fill="#ffffff" points="0,0 480,0 480,360 0,360"/>
 <g>
  <polygon fill="#ffffff" points="0,360 480,360 480,0 0,0" shape-rendering="crispEdges"/>
  <clipPath id="cp00480360">
   <polygon points="0,360 480,360 480,0 0,0"/>
  </clipPath>
  <g clip-path="url(#cp00480360)">
   <polygon fill="#ffffff" points="62.4,320.4 434.4,320.4 434.4,27 62.4,27" shape-rendering="crispEdges"/>
   <polyline fill="none" points="100.165,320.4 100.165,27" stroke="#262626" stroke-dasharray="16,0" stroke-linecap="butt" stroke-linejoin="miter" stroke-opacity="0.15" stroke-width="0.5"/>
   <polyline fill="none" points="155.868,320.4 155.868,27" stroke="#262626" stroke-dasharray="16,0" stroke-linecap="butt" stroke-linejoin="miter" stroke-opacity="0.15" stroke-width="0.5"/>
   <polyline fill="none" points="211.572,320.4 211.572,27" stroke="#262626" stroke-dasharray="16,0" stroke-linecap="butt" stroke-linejoin="miter" stroke-opacity="0.15" stroke-width="0.5"/>
   <polyline fill="none" points="267.275,320.4 267.275,27" stroke="#262626" stroke-dasharray="16,0" stroke-linecap="butt" stroke-linejoin="miter" stroke-opacity="0.15" stroke-width="0.5"/>
   <polyline fill="none" points="322.978,320.4 322.978,27" stroke="#262626" stroke-dasharray="16,0" stroke-linecap="butt" stroke-linejoin="miter" stroke-opacity="0.15" stroke-width="0.5"/>
   <polyline fill="none" points="378.681,320.4 378.681,27" stroke="#262626" stroke-dasharray="16,0" stroke-linecap="butt" stroke-linejoin="miter" stroke-opacity="0.15" stroke-width="0.5"/>
   <polyline fill="none" points="434.385,320.4 434.385,27" stroke="#262626" stroke-dasharray="16,0" stroke-linecap="butt" stroke-linejoin="miter" stroke-opacity="0.15" stroke-width="0.5"/>
   <polyline fill="none" points="100.165,320.4 100.165,316.675" stroke="#262626" stroke-linecap="butt" stroke-linejoin="miter" stroke-width="0.5"/>
   <polyline fill="none" points="100.165,27 100.165,30.7251" stroke="#262626" stroke-linecap="butt" stroke-linejoin="miter" stroke-width="0.5"/>
   <polyline fill="none" points="155.868,320.4 155.868,316.675" stroke="#262626" stroke-linecap="butt" stroke-linejoin="miter" stroke-width="0.5"/>
   <polyline fill="none" points="155.868,27 155.868,30.7251" stroke="#262626" stroke-linecap="butt" stroke-linejoin="miter" stroke-width="0.5"/>
   <polyline fill="none" points="211.572,320.4 211.572,316.675" stroke="#262626" stroke-linecap="butt" stroke-linejoin="miter" stroke-width="0.5"/>
   <polyline fill="none" points="211.572,27 211.572,30.7251" stroke="#262626" stroke-linecap="butt" stroke-linejoin="miter" stroke-width="0.5"/>
   <polyline fill="none" points="267.275,320.4 267.275,316.675" stroke="#262626" stroke-linecap="butt" stroke-linejoin="miter" stroke-width="0.5"/>
   <polyline fill="none" points="267.275,27 267.275,30.7251" stroke="#262626" stroke-linecap="butt" stroke-linejoin="miter" stroke-width="0.5"/>
   <polyline fill="none" points="322.978,320.4 322.978,316.675" stroke="#262626" stroke-linecap="butt" stroke-linejoin="miter" stroke-width="0.5"/>
   <polyline fill="none" points="322.978,27 322.978,30.7251" stroke="#262626" stroke-linecap="butt" stroke-linejoin="miter" stroke-width="0.5"/>
   <polyline fill="none" points="378.681,320.4 378.681,316.675" stroke="#262626" stroke-linecap="butt" stroke-linejoin="miter" stroke-width="0.5"/>
   <polyline fill="none" points="378.681,27 378.681,30.7251" stroke="#262626" stroke-linecap="butt" stroke-linejoin="miter" stroke-width="0.5"/>
   <polyline fill="none" points="434.385,320.4 434.385,316.675" stroke="#262626" stroke-linecap="butt" stroke-linejoin="miter" stroke-width="0.5"/>
   <polyline fill="none" points="434.385,27 434.385,30.7251" stroke="#262626" stroke-linecap="butt" stroke-linejoin="miter" stroke-width="0.5"/>
   <g font-family="FreeSans" font-size="11.6513" font-style="normal" font-weight="normal" transform="translate(95.1651,339.15) rotate(-0,5,-10)" xml:space="preserve">
    <text fill="rgb(38,38,38)" x="0 4 " y="-0">-5</text>
   </g>
   <g font-family="FreeSans" font-size="11.6513" font-style="normal" font-weight="normal" transform="translate(150.868,339.15) rotate(-0,5,-10)" xml:space="preserve">
    <text fill="rgb(38,38,38)" x="0 4 " y="-0">-4</text>
   </g>
   <g font-family="FreeSans" font-size="11.6513" font-style="normal" font-weight="normal" transform="translate(206.572,339.15) rotate(-0,5,-10)" xml:space="preserve">
    <text fill="rgb(38,38,38)" x="0 4 " y="-0">-3</text>
   </g>
   <g font-family="FreeSans" font-size="11.6513" font-style="normal" font-weight="normal" transform="translate(262.275,339.15) rotate(-0,5,-10)" xml:space="preserve">
    <text fill="rgb(38,38,38)" x="0 4 " y="-0">-2</text>
   </g>
   <g font-family="FreeSans" font-size="11.6513" font-style="normal" font-weight="normal" transform="translate(317.978,339.15) rotate(-0,5,-10)" xml:space="preserve">
    <text fill="rgb(38,38,38)" x="0 4 " y="-0">-1</text>
   </g>
   <g font-family="FreeSans" font-size="11.6513" font-style="normal" font-weight="normal" transform="translate(375.681,339.15) rotate(-0,3,-10)" xml:space="preserve">
    <text fill="rgb(38,38,38)" x="0 " y="-0">0</text>
   </g>
   <g font-family="FreeSans" font-size="11.6513" font-style="normal" font-weight="normal" transform="translate(431.385,339.15) rotate(-0,3,-10)" xml:space="preserve">
    <text fill="rgb(38,38,38)" x="0 " y="-0">1</text>
   </g>
   <polyline fill="none" points="62.4,250.965 434.4,250.965" stroke="#262626" stroke-dasharray="16,0" stroke-linecap="butt" stroke-linejoin="miter" stroke-opacity="0.15" stroke-width="0.5"/>
   <polyline fill="none" points="62.4,173.7 434.4,173.7" stroke="#262626" stroke-dasharray="16,0" stroke-linecap="butt" stroke-linejoin="miter" stroke-opacity="0.15" stroke-width="0.5"/>
   <polyline fill="none" points="62.4,96.4351 434.4,96.4351" stroke="#262626" stroke-dasharray="16,0" stroke-linecap="butt" stroke-linejoin="miter" stroke-opacity="0.15" stroke-width="0.5"/>
   <polyline fill="none" points="62.4,250.965 66.12,250.965" stroke="#262626" stroke-linecap="butt" stroke-linejoin="miter" stroke-width="0.5"/>
   <polyline fill="none" points="434.4,250.965 430.68,250.965" stroke="#262626" stroke-linecap="butt" stroke-linejoin="miter" stroke-width="0.5"/>
   <polyline fill="none" points="62.4,173.7 66.12,173.7" stroke="#262626" stroke-linecap="butt" stroke-linejoin="miter" stroke-width="0.5"/>
   <polyline fill="none" points="434.4,173.7 430.68,173.7" stroke="#262626" stroke-linecap="butt" stroke-linejoin="miter" stroke-width="0.5"/>
   <polyline fill="none" points="62.4,96.4351 66.12,96.4351" stroke="#262626" stroke-linecap="butt" stroke-linejoin="miter" stroke-width="0.5"/>
   <polyline fill="none" points="434.4,96.4351 430.68,96.4351" stroke="#262626" stroke-linecap="butt" stroke-linejoin="miter" stroke-width="0.5"/>
   <g font-family="FreeSans" font-size="11.6513" font-style="normal" font-weight="normal" transform="translate(46.5743,255.965) rotate(-0,10,-5)" xml:space="preserve">
    <text fill="rgb(38,38,38)" x="0 4 " y="-0">-2</text>
   </g>
   <g font-family="FreeSans" font-size="11.6513" font-style="normal" font-weight="normal" transform="translate(50.5743,178.7) rotate(-0,6,-5)" xml:space="preserve">
    <text fill="rgb(38,38,38)" x="0 " y="-0">0</text>
   </g>
   <g font-family="FreeSans" font-size="11.6513" font-style="normal" font-weight="normal" transform="translate(50.5743,101.435) rotate(-0,6,-5)" xml:space="preserve">
    <text fill="rgb(38,38,38)" x="0 " y="-0">2</text>
   </g>
   <polyline fill="none" points="62.4,320.4 434.4,320.4" stroke="#262626" stroke-dasharray="16,0" stroke-linecap="square" stroke-linejoin="miter" stroke-width="0.5"/>
   <polyline fill="none" points="62.4,27 434.4,27" stroke="#262626" stroke-dasharray="16,0" stroke-linecap="square" stroke-linejoin="miter" stroke-width="0.5"/>
   <polyline fill="none" points="62.4,320.4 62.4,27" stroke="#262626" stroke-dasharray="16,0" stroke-linecap="square" stroke-linejoin="miter" stroke-width="0.5"/>
   <polyline fill="none" points="434.4,320.4 434.4,27" stroke="#262626" stroke-dasharray="16,0" stroke-linecap="square" stroke-linejoin="miter" stroke-width="0.5"/>
   <g font-family="FreeSans" font-size="12.8165" font-style="normal" font-weight="normal" transform="translate(221.9,355.15) rotate(-0,26.5,-11)" xml:space="preserve">
    <text fill="rgb(38,38,38)" x="0 9 16 23 26 29 38 44 47 " y="-0">Real Axis</text>
   </g>
   <g font-family="FreeSans" font-size="12.8165" font-style="normal" font-weight="normal" transform="translate(0.574332,173.7) rotate(-90,41,0)" xml:space="preserve">
    <text fill="rgb(38,38,38)" x="0 4 14 21 28 31 38 45 49 55 58 67 73 76 " y="-3">Imaginary Axis</text>
   </g>
   <g font-family="FreeSans" font-size="12.8165" font-style="normal" font-weight="bold" transform="translate(143.4,17) rotate(-0,105,0)" xml:space="preserve">
    <text fill="rgb(0,0,0)" x="0 9 17 25 29 33 36 44 51 59 66 70 77 84 91 95 99 108 112 119 123 130 133 140 147 154 158 161 164 168 175 182 185 192 199 206 " y="-3">Root locus sys (K = 0.000 .. 66.593)</text>
   </g>
   <polyline fill="none" points="304.41,173.7 426.778,26.7066" stroke="#000000" stroke-dasharray="9,7" stroke-linecap="butt" stroke-linejoin="round" stroke-width="0.5"/>
   <polyline fill="none" points="304.41,173.7 62.0281,173.7" stroke="#000000" stroke-dasharray="9,7" stroke-linecap="butt" stroke-linejoin="round" stroke-width="0.5"/>
   <polyline fill="none" points="304.41,173.7 426.778,320.693" stroke="#000000" stroke-dasharray="9,7" stroke-linecap="butt" stroke-linejoin="round" stroke-width="0.5"/>
   <polyline fill="none" points="378.681,173.7 377.367,173.7 376.001,173.7 374.575,173.7 373.085,173.7 371.522,173.7 369.875,173.7 368.133,173.7 366.28,173.7 364.297,173.7 362.156,173.7 359.822,173.7 357.242,173.7 356.55,173.7 355.837,173.7 355.1,173.7 354.338,173.7 353.547,173.7 352.726,173.7 351.87,173.7 350.977,173.7 350.04,173.7 349.055,173.7 348.015,173.7 346.91,173.7 345.729,173.7 344.457,173.7 343.073,173.7 342.706,173.7 342.33,173.7 341.943,173.7 341.845,173.7 341.746,173.7 341.646,173.7 341.546,173.7 341.416,173.7 341.286,173.7 341.154,173.7 341.02,173.7 340.473,173.7 339.903,173.7 339.306,173.7 338.68,173.7 338.019,173.7 337.318,173.7 336.571,173.7 335.767,173.7 334.895,173.7 333.934,173.7 332.858,173.7 331.616,173.7 330.115,173.7 328.107,173.7 327.444,173.7 326.649,173.7 325.597,173.7 322.978,173.7 323.01,175.013 323.042,175.556 323.074,175.972 323.106,176.321 323.231,177.396 323.355,178.215 323.476,178.899 323.942,180.979 324.381,182.531 324.796,183.809 325.191,184.91 325.569,185.886 325.93,186.767 326.277,187.573 326.611,188.318 326.933,189.013 327.244,189.665 327.546,190.28 328.668,192.452 329.17,193.376 329.65,194.236 330.109,195.043 330.55,195.802 330.975,196.521 331.385,197.205 331.781,197.857 332.165,198.48 333.592,200.742 334.878,202.718 336.055,204.481 337.143,206.081 338.157,207.551 339.11,208.913 340.009,210.185 340.862,211.381 341.674,212.511 342.451,213.582 343.194,214.603 343.909,215.579 344.598,216.513 345.262,217.411 345.904,218.276 346.527,219.11 347.13,219.916 347.716,220.696 348.286,221.453 348.84,222.187 349.381,222.901 349.908,223.596 350.423,224.273 350.926,224.932 351.418,225.576 351.9,226.206 352.371,226.82 352.834,227.422 353.287,228.011 353.731,228.588 355.432,230.787 357.023,232.834 358.52,234.752 359.936,236.56 361.282,238.273 362.565,239.902 363.793,241.456 364.97,242.944 366.103,244.372 367.195,245.746 368.249,247.07 369.268,248.349 370.256,249.587 371.215,250.787 372.146,251.951 373.052,253.082 373.934,254.182 374.794,255.253 375.633,256.298 376.453,257.317 377.254,258.312 378.037,259.285 378.804,260.237 379.555,261.168 380.291,262.081 381.013,262.975 381.722,263.852 382.417,264.712 383.1,265.557 383.771,266.386 384.431,267.201 385.08,268.003 385.719,268.791 386.348,269.567 386.967,270.33 387.577,271.081 388.177,271.822 388.77,272.551 389.354,273.27 389.93,273.979 390.498,274.678 391.059,275.368 391.612,276.049 392.158,276.72 392.698,277.383 393.231,278.038 393.758,278.685 394.278,279.324 394.793,279.956 395.301,280.58 395.804,281.197 396.302,281.807 396.794,282.411 397.28,283.007 397.762,283.598 398.239,284.182 398.711,284.76 399.178,285.333 399.64,285.899 400.098,286.46 401.888,288.65 403.613,290.761 405.28,292.798 406.893,294.769 408.456,296.678 409.974,298.531 411.448,300.33 412.883,302.079 414.281,303.783 415.643,305.444 416.973,307.064" stroke="#0000ff" stroke-linecap="butt" stroke-linejoin="round" stroke-width="2"/>
   <polyline fill="none" points="267.275,212.332 267.932,211.418 268.615,210.461 269.328,209.456 270.073,208.397 270.855,207.275 271.678,206.081 272.549,204.802 273.475,203.422 274.467,201.919 275.538,200.26 276.705,198.401 277.994,196.271 278.34,195.683 278.697,195.068 279.065,194.423 279.447,193.744 279.842,193.026 280.253,192.264 280.68,191.45 281.127,190.575 281.595,189.625 282.088,188.584 282.608,187.427 283.161,186.114 283.751,184.581 284.387,182.703 285.079,180.162 285.263,179.318 285.451,178.306 285.644,176.971 285.693,176.536 285.743,176.018 285.792,175.341 285.843,173.7 288.591,173.7 289.774,173.7 290.701,173.7 291.497,173.7 294.052,173.7 296.124,173.7 297.962,173.7 299.665,173.7 301.286,173.7 302.859,173.7 304.41,173.7 305.961,173.7 307.534,173.7 309.156,173.7 310.859,173.7 312.697,173.7 314.769,173.7 317.323,173.7 318.119,173.7 319.047,173.7 320.229,173.7 322.978,173.7 323.01,172.387 323.042,171.844 323.074,171.428 323.106,171.079 323.231,170.004 323.355,169.185 323.476,168.501 323.942,166.421 324.381,164.869 324.796,163.591 325.191,162.49 325.569,161.514 325.93,160.633 326.277,159.827 326.611,159.082 326.933,158.387 327.244,157.735 327.546,157.12 328.668,154.948 329.17,154.024 329.65,153.164 330.109,152.357 330.55,151.598 330.975,150.879 331.385,150.195 331.781,149.543 332.165,148.92 333.592,146.658 334.878,144.682 336.055,142.919 337.143,141.319 338.157,139.849 339.11,138.487 340.009,137.215 340.862,136.019 341.674,134.889 342.451,133.818 343.194,132.797 343.909,131.821 344.598,130.887 345.262,129.989 345.904,129.124 346.527,128.29 347.13,127.484 347.716,126.704 348.286,125.947 348.84,125.213 349.381,124.499 349.908,123.804 350.423,123.128 350.926,122.468 351.418,121.824 351.9,121.195 352.371,120.58 352.834,119.978 353.287,119.389 353.731,118.812 355.432,116.613 357.023,114.566 358.52,112.648 359.936,110.84 361.282,109.127 362.565,107.498 363.793,105.944 364.97,104.456 366.103,103.028 367.195,101.654 368.249,100.33 369.268,99.0506 370.256,97.8128 371.215,96.6133 372.146,95.4494 373.052,94.3184 373.934,93.2182 374.794,92.1467 375.633,91.1022 376.453,90.0829 377.254,89.0876 378.037,88.1147 378.804,87.1631 379.555,86.2317 380.291,85.3194 381.013,84.4253 381.722,83.5484 382.417,82.688 383.1,81.8434 383.771,81.0138 384.431,80.1986 385.08,79.3972 385.719,78.609 386.348,77.8335 386.967,77.0701 387.577,76.3185 388.177,75.5782 388.77,74.8487 389.354,74.1297 389.93,73.4208 390.498,72.7217 391.059,72.032 391.612,71.3515 392.158,70.6797 392.698,70.0166 393.231,69.3617 393.758,68.7148 394.278,68.0757 394.793,67.4442 395.301,66.82 395.804,66.203 396.302,65.5928 396.794,64.9895 397.28,64.3926 397.762,63.8022 398.239,63.218 398.711,62.6398 399.178,62.0675 399.64,61.5009 400.098,60.94 401.888,58.7498 403.613,56.6393 405.28,54.6016 406.893,52.6308 408.456,50.7216 409.974,48.8695 411.448,47.0703 412.883,45.3205 414.281,43.6169 415.643,41.9563 416.973,40.3364" stroke="#0000ff" stroke-linecap="butt" stroke-linejoin="round" stroke-width="2"/>
   <polyline fill="none" points="267.275,135.068 267.932,135.982 268.615,136.939 269.328,137.944 270.073,139.003 270.855,140.125 271.678,141.319 272.549,142.598 273.475,143.978 274.467,145.481 275.538,147.14 276.705,148.999 277.994,151.129 278.34,151.717 278.697,152.332 279.065,152.977 279.447,153.656 279.842,154.374 280.253,155.136 280.68,155.95 281.127,156.825 281.595,157.775 282.088,158.816 282.608,159.973 283.161,161.286 283.751,162.819 284.387,164.697 285.079,167.238 285.263,168.082 285.451,169.094 285.644,170.429 285.693,170.864 285.743,171.382 285.792,172.059 285.843,173.7 283.223,173.7 282.172,173.7 281.376,173.7 280.714,173.7 278.706,173.7 277.204,173.7 275.963,173.7 274.886,173.7 273.926,173.7 273.054,173.7 272.25,173.7 271.503,173.7 270.802,173.7 270.141,173.7 269.514,173.7 268.918,173.7 268.347,173.7 267.801,173.7 267.667,173.7 267.535,173.7 267.404,173.7 267.275,173.7 267.211,173.7 267.147,173.7 267.083,173.7 267.019,173.7 266.768,173.7 266.522,173.7 266.279,173.7 265.347,173.7 264.47,173.7 263.639,173.7 262.849,173.7 262.094,173.7 261.372,173.7 260.678,173.7 260.01,173.7 259.365,173.7 258.742,173.7 258.139,173.7 255.895,173.7 254.891,173.7 253.931,173.7 253.013,173.7 252.13,173.7 251.281,173.7 250.461,173.7 249.669,173.7 248.901,173.7 246.048,173.7 243.475,173.7 241.122,173.7 238.946,173.7 236.917,173.7 235.012,173.7 233.213,173.7 231.507,173.7 229.882,173.7 228.33,173.7 226.842,173.7 225.413,173.7 224.036,173.7 222.707,173.7 221.422,173.7 220.178,173.7 218.971,173.7 217.8,173.7 216.66,173.7 215.551,173.7 214.469,173.7 213.415,173.7 212.385,173.7 211.379,173.7 210.395,173.7 209.431,173.7 208.488,173.7 207.564,173.7 206.657,173.7 205.768,173.7 202.367,173.7 199.186,173.7 196.191,173.7 193.359,173.7 190.667,173.7 188.101,173.7 185.646,173.7 183.29,173.7 181.025,173.7 178.842,173.7 176.734,173.7 174.695,173.7 172.719,173.7 170.802,173.7 168.939,173.7 167.127,173.7 165.363,173.7 163.643,173.7 161.964,173.7 160.326,173.7 158.724,173.7 157.157,173.7 155.623,173.7 154.121,173.7 152.649,173.7 151.205,173.7 149.788,173.7 148.397,173.7 147.031,173.7 145.688,173.7 144.369,173.7 143.07,173.7 141.793,173.7 140.536,173.7 139.298,173.7 138.078,173.7 136.876,173.7 135.692,173.7 134.524,173.7 133.372,173.7 132.236,173.7 131.114,173.7 130.007,173.7 128.914,173.7 127.835,173.7 126.769,173.7 125.715,173.7 124.675,173.7 123.646,173.7 122.628,173.7 121.623,173.7 120.628,173.7 119.644,173.7 118.67,173.7 117.707,173.7 116.754,173.7 115.81,173.7 114.876,173.7 113.951,173.7 113.035,173.7 109.456,173.7 106.005,173.7 102.672,173.7 99.4456,173.7 96.3188,173.7 93.2839,173.7 90.3345,173.7 87.4648,173.7 84.6696,173.7 81.9442,173.7 79.2845,173.7" stroke="#0000ff" stroke-linecap="butt" stroke-linejoin="round" stroke-width="2"/>
   <polyline fill="none" points="262.275,130.068 272.275,140.068" stroke="#bf0000" stroke-linecap="square" stroke-linejoin="miter" stroke-width="2"/>
   <polyline fill="none" points="262.275,140.068 272.275,130.068" stroke="#bf0000" stroke-linecap="square" stroke-linejoin="miter" stroke-width="2"/>
   <polyline fill="none" points="262.275,207.332 272.275,217.332" stroke="#bf0000" stroke-linecap="square" stroke-linejoin="miter" stroke-width="2"/>
   <polyline fill="none" points="262.275,217.332 272.275,207.332" stroke="#bf0000" stroke-linecap="square" stroke-linejoin="miter" stroke-width="2"/>
   <polyline fill="none" points="373.681,168.7 383.681,178.7" stroke="#bf0000" stroke-linecap="square" stroke-linejoin="miter" stroke-width="2"/>
   <polyline fill="none" points="373.681,178.7 383.681,168.7" stroke="#bf0000" stroke-linecap="square" stroke-linejoin="miter" stroke-width="2"/>
   <polyline fill="none" points="378.681,135.068 378.124,135.069 377.567,135.075 377.01,135.085 376.454,135.098 375.897,135.116 375.341,135.137 374.785,135.162 374.23,135.191 373.675,135.224 373.12,135.261 372.566,135.301 372.013,135.345 371.46,135.394 370.908,135.446 370.357,135.501 369.807,135.561 369.257,135.624 368.709,135.692 368.161,135.763 367.615,135.838 367.069,135.916 366.525,135.999 365.982,136.085 365.441,136.175 364.9,136.269 364.361,136.366 363.824,136.467 363.287,136.572 362.753,136.681 362.22,136.793 361.689,136.909 361.159,137.029 360.631,137.152 360.105,137.279 359.581,137.41 359.059,137.544 358.538,137.682 358.02,137.823 357.504,137.969 356.99,138.117 356.478,138.269 355.968,138.425 355.46,138.584 354.955,138.747 354.452,138.914 353.952,139.083 353.454,139.257 352.959,139.433 352.466,139.613 351.976,139.797 351.488,139.984 351.004,140.174 350.522,140.368 350.042,140.565 349.566,140.765 349.093,140.968 348.622,141.175 348.155,141.385 347.69,141.599 347.229,141.815 346.771,142.035 346.316,142.258 345.864,142.484 345.416,142.713 344.971,142.945 344.529,143.181 344.09,143.419 343.656,143.66 343.224,143.905 342.796,144.152 342.372,144.403 341.952,144.656 341.535,144.912 341.121,145.171 340.712,145.433 340.306,145.698 339.904,145.965 339.506,146.236 339.112,146.509 338.722,146.785 338.336,147.063 337.954,147.344 337.576,147.628 337.202,147.914 336.833,148.203 336.467,148.495 336.106,148.789 335.749,149.085 335.396,149.384 335.048,149.686 334.703,149.99 334.364,150.296 334.029,150.604 333.698,150.915 333.371,151.228 333.05,151.544 332.733,151.861 332.42,152.181 332.112,152.503 331.809,152.827 331.51,153.153 331.216,153.481 330.927,153.811 330.643,154.143 330.363,154.478 330.088,154.814 329.818,155.152 329.553,155.491 329.293,155.833 329.038,156.176 328.788,156.522 328.543,156.869 328.303,157.217 328.068,157.567 327.837,157.919 327.612,158.273 327.393,158.627 327.178,158.984 326.968,159.342 326.764,159.701 326.565,160.062 326.37,160.424 326.182,160.788 325.998,161.152 325.82,161.518 325.647,161.886 325.479,162.254 325.317,162.623 325.16,162.994 325.008,163.366 324.862,163.739 324.721,164.112 324.585,164.487 324.455,164.863 324.33,165.239 324.211,165.617 324.097,165.995 323.989,166.374 323.886,166.753 323.789,167.134 323.697,167.515 323.61,167.896 323.529,168.279 323.454,168.661 323.384,169.045 323.32,169.428 323.261,169.813 323.208,170.197 323.16,170.582 323.118,170.967 323.081,171.353 323.05,171.738 323.024,172.124 323.005,172.51 322.99,172.897 322.981,173.283 322.978,173.669 322.98,174.056 322.988,174.442 323.002,174.828 323.021,175.214 323.046,175.6 323.076,175.986 323.111,176.371 323.153,176.757 323.2,177.142 323.252,177.526 323.31,177.91 323.373,178.294 323.442,178.678 323.517,179.06 323.597,179.443 323.683,179.824 323.774,180.206 323.87,180.586 323.972,180.966 324.08,181.345 324.193,181.723 324.311,182.101 324.435,182.477 324.564,182.853 324.699,183.228 324.839,183.602 324.984,183.975 325.135,184.347 325.291,184.718 325.453,185.087 325.62,185.456 325.792,185.823 325.969,186.189 326.152,186.554 326.34,186.918 326.533,187.28 326.732,187.641 326.935,188.001 327.144,188.359 327.358,188.716 327.577,189.071 327.801,189.425 328.031,189.777 328.265,190.127 328.504,190.476 328.749,190.823 328.998,191.169 329.252,191.512 329.512,191.854 329.776,192.194 330.045,192.533 330.319,192.869 330.598,193.203 330.881,193.536 331.17,193.866 331.463,194.195 331.761,194.521 332.063,194.846 332.371,195.168 332.682,195.488 332.999,195.806 333.32,196.122 333.646,196.435 333.976,196.746 334.31,197.055 334.649,197.362 334.992,197.666 335.34,197.968 335.692,198.267 336.049,198.564 336.409,198.859 336.774,199.151 337.143,199.44 337.516,199.727 337.894,200.011 338.275,200.292 338.661,200.571 339.05,200.848 339.443,201.121 339.841,201.392 340.242,201.66 340.647,201.925 341.056,202.187 341.469,202.447 341.885,202.703 342.305,202.957 342.729,203.208 343.156,203.456 343.587,203.701 344.021,203.943 344.459,204.182 344.9,204.417 345.345,204.65 345.792,204.88 346.244,205.106 346.698,205.33 347.156,205.55 347.617,205.767 348.08,205.981 348.547,206.191 349.017,206.399 349.49,206.603 349.966,206.804 350.445,207.001 350.927,207.195 351.411,207.386 351.898,207.574 352.388,207.758 352.88,207.938 353.375,208.116 353.873,208.289 354.373,208.46 354.875,208.627 355.38,208.79 355.887,208.95 356.396,209.106 356.908,209.259 357.422,209.408 357.938,209.554 358.456,209.696 358.976,209.834 359.498,209.969 360.021,210.1 360.547,210.228 361.075,210.352 361.604,210.472 362.135,210.589 362.668,210.702 363.202,210.811 363.738,210.916 364.275,211.018 364.814,211.116 365.354,211.21 365.896,211.301 366.439,211.388 366.983,211.471 367.528,211.55 368.074,211.626 368.622,211.697 369.17,211.765 369.719,211.829 370.269,211.889 370.821,211.946 371.372,211.998 371.925,212.047 372.478,212.092 373.032,212.133 373.586,212.171 374.141,212.204 374.697,212.233 375.253,212.259 375.809,212.281 376.365,212.299 376.922,212.313 377.479,212.323 378.036,212.33 378.593,212.332" stroke="#000000" stroke-dasharray="1,3,1,3,1,3,1,3" stroke-linecap="butt" stroke-linejoin="round" stroke-width="0.6"/>
   <polyline fill="none" points="378.681,109.57 377.757,109.573 376.832,109.583 375.908,109.599 374.984,109.621 374.06,109.65 373.137,109.686 372.214,109.727 371.292,109.775 370.371,109.83 369.45,109.891 368.53,109.958 367.612,110.031 366.694,110.111 365.778,110.198 364.863,110.29 363.95,110.389 363.038,110.495 362.127,110.606 361.218,110.724 360.311,110.848 359.406,110.979 358.502,111.116 357.601,111.259 356.702,111.408 355.805,111.564 354.91,111.726 354.017,111.894 353.127,112.068 352.24,112.248 351.355,112.434 350.473,112.627 349.594,112.826 348.718,113.03 347.845,113.241 346.975,113.458 346.107,113.681 345.244,113.91 344.383,114.145 343.526,114.386 342.673,114.632 341.823,114.885 340.977,115.144 340.134,115.408 339.296,115.678 338.461,115.954 337.631,116.236 336.804,116.524 335.982,116.817 335.164,117.116 334.35,117.421 333.541,117.731 332.736,118.047 331.936,118.368 331.141,118.695 330.35,119.028 329.564,119.366 328.783,119.709 328.007,120.058 327.236,120.412 326.47,120.771 325.71,121.136 324.955,121.506 324.205,121.881 323.46,122.262 322.721,122.647 321.988,123.038 321.26,123.434 320.539,123.834 319.822,124.24 319.112,124.651 318.408,125.066 317.71,125.487 317.018,125.912 316.332,126.342 315.652,126.777 314.979,127.216 314.312,127.66 313.651,128.109 312.997,128.562 312.349,129.02 311.708,129.483 311.074,129.949 310.447,130.42 309.826,130.896 309.212,131.375 308.606,131.859 308.006,132.347 307.413,132.84 306.828,133.336 306.249,133.836 305.678,134.341 305.114,134.849 304.558,135.361 304.009,135.877 303.467,136.397 302.933,136.92 302.406,137.447 301.887,137.978 301.376,138.513 300.873,139.05 300.377,139.592 299.889,140.137 299.409,140.685 298.937,141.236 298.473,141.791 298.017,142.349 297.569,142.91 297.129,143.474 296.697,144.041 296.274,144.611 295.858,145.184 295.451,145.76 295.053,146.338 294.662,146.92 294.28,147.504 293.907,148.09 293.542,148.68 293.185,149.271 292.838,149.866 292.498,150.462 292.167,151.061 291.845,151.662 291.532,152.265 291.227,152.871 290.931,153.478 290.644,154.088 290.366,154.7 290.096,155.313 289.835,155.928 289.584,156.545 289.341,157.164 289.107,157.785 288.882,158.407 288.666,159.03 288.459,159.655 288.261,160.282 288.072,160.909 287.892,161.538 287.721,162.169 287.559,162.8 287.407,163.433 287.263,164.066 287.129,164.701 287.004,165.336 286.888,165.972 286.781,166.609 286.683,167.247 286.595,167.885 286.516,168.524 286.446,169.164 286.385,169.804 286.333,170.444 286.291,171.084 286.258,171.725 286.234,172.366 286.219,173.008 286.214,173.649 286.218,174.29 286.231,174.931 286.253,175.573 286.285,176.213 286.326,176.854 286.376,177.495 286.435,178.134 286.504,178.774 286.582,179.413 286.669,180.051 286.765,180.689 286.87,181.326 286.985,181.963 287.108,182.598 287.241,183.233 287.383,183.867 287.534,184.499 287.695,185.131 287.864,185.761 288.043,186.391 288.23,187.019 288.427,187.645 288.632,188.27 288.847,188.894 289.07,189.517 289.303,190.137 289.544,190.756 289.795,191.374 290.054,191.989 290.322,192.603 290.599,193.215 290.885,193.825 291.179,194.433 291.483,195.038 291.795,195.642 292.116,196.243 292.445,196.843 292.783,197.44 293.129,198.034 293.485,198.626 293.848,199.216 294.22,199.803 294.601,200.387 294.99,200.969 295.387,201.548 295.793,202.125 296.207,202.698 296.629,203.269 297.06,203.836 297.498,204.401 297.945,204.962 298.4,205.521 298.863,206.076 299.333,206.628 299.812,207.176 300.299,207.722 300.793,208.264 301.296,208.802 301.806,209.337 302.323,209.868 302.849,210.396 303.381,210.92 303.922,211.441 304.47,211.957 305.025,212.47 305.588,212.979 306.158,213.484 306.735,213.985 307.319,214.482 307.911,214.975 308.51,215.463 309.115,215.948 309.728,216.428 310.347,216.904 310.974,217.376 311.607,217.843 312.247,218.306 312.893,218.765 313.546,219.219 314.206,219.668 314.872,220.113 315.544,220.553 316.223,220.989 316.908,221.42 317.599,221.846 318.296,222.267 319,222.683 319.709,223.095 320.424,223.501 321.145,223.903 321.872,224.299 322.604,224.691 323.342,225.077 324.086,225.458 324.835,225.835 325.589,226.205 326.349,226.571 327.114,226.931 327.884,227.286 328.659,227.636 329.439,227.98 330.224,228.319 331.014,228.652 331.809,228.98 332.608,229.302 333.412,229.619 334.221,229.93 335.034,230.236 335.851,230.536 336.673,230.83 337.499,231.118 338.329,231.401 339.163,231.678 340.001,231.949 340.842,232.215 341.688,232.474 342.537,232.728 343.39,232.975 344.247,233.217 345.106,233.453 345.97,233.683 346.836,233.907 347.706,234.125 348.579,234.336 349.454,234.542 350.333,234.742 351.215,234.935 352.099,235.123 352.986,235.304 353.876,235.479 354.768,235.648 355.662,235.811 356.559,235.967 357.458,236.118 358.359,236.262 359.262,236.4 360.167,236.531 361.073,236.656 361.982,236.775 362.892,236.888 363.804,236.994 364.718,237.094 365.632,237.188 366.548,237.275 367.466,237.356 368.384,237.431 369.303,237.499 370.224,237.561 371.145,237.617 372.067,237.666 372.99,237.708 373.913,237.745 374.837,237.774 375.761,237.798 376.685,237.815 377.609,237.826 378.534,237.83" stroke="#000000" stroke-dasharray="1,3,1,3,1,3,1,3" stroke-linecap="butt" stroke-linejoin="round" stroke-width="0.6"/>
   <polyline fill="none" points="378.681,87.5497 377.439,87.554 376.197,87.5669 374.955,87.5884 373.714,87.6186 372.473,87.6573 371.233,87.7047 369.993,87.7606 368.755,87.8252 367.517,87.8983 366.28,87.98 365.045,88.0703 363.811,88.1692 362.578,88.2766 361.348,88.3925 360.118,88.517 358.891,88.65 357.666,88.7915 356.443,88.9415 355.222,89.1 354.003,89.2669 352.787,89.4423 351.573,89.6261 350.362,89.8183 349.154,90.0189 347.949,90.2278 346.747,90.4452 345.548,90.6708 344.353,90.9047 343.161,91.1469 341.972,91.3974 340.788,91.6561 339.606,91.923 338.429,92.1981 337.256,92.4814 336.087,92.7727 334.922,93.0721 333.762,93.3797 332.606,93.6952 331.455,94.0188 330.309,94.3503 329.167,94.6897 328.03,95.037 326.898,95.3923 325.772,95.7553 324.651,96.1262 323.535,96.5048 322.425,96.8911 321.32,97.2851 320.221,97.6867 319.128,98.0959 318.041,98.5128 316.96,98.9371 315.885,99.3689 314.816,99.8081 313.754,100.255 312.698,100.709 311.649,101.17 310.607,101.638 309.571,102.114 308.542,102.597 307.521,103.087 306.506,103.584 305.499,104.088 304.499,104.599 303.506,105.117 302.521,105.642 301.544,106.173 300.574,106.712 299.612,107.257 298.658,107.809 297.712,108.367 296.774,108.932 295.844,109.503 294.923,110.081 294.009,110.665 293.105,111.255 292.209,111.852 291.321,112.455 290.443,113.063 289.573,113.678 288.712,114.299 287.86,114.926 287.017,115.559 286.183,116.198 285.359,116.842 284.543,117.492 283.738,118.148 282.942,118.809 282.155,119.476 281.378,120.148 280.611,120.826 279.853,121.508 279.106,122.196 278.368,122.89 277.64,123.588 276.923,124.291 276.216,124.999 275.518,125.712 274.832,126.43 274.155,127.153 273.489,127.88 272.834,128.612 272.189,129.348 271.555,130.089 270.932,130.834 270.319,131.583 269.717,132.337 269.126,133.095 268.546,133.857 267.977,134.623 267.419,135.392 266.872,136.166 266.337,136.943 265.813,137.724 265.299,138.509 264.798,139.297 264.307,140.088 263.828,140.883 263.361,141.681 262.905,142.483 262.461,143.287 262.028,144.095 261.607,144.905 261.198,145.719 260.8,146.535 260.414,147.354 260.04,148.175 259.678,148.999 259.328,149.826 258.99,150.655 258.664,151.486 258.349,152.32 258.047,153.155 257.757,153.993 257.479,154.833 257.213,155.674 256.959,156.517 256.717,157.362 256.488,158.209 256.271,159.057 256.066,159.907 255.873,160.758 255.692,161.61 255.524,162.464 255.368,163.319 255.225,164.174 255.094,165.031 254.975,165.889 254.868,166.747 254.774,167.606 254.693,168.466 254.623,169.326 254.566,170.186 254.522,171.047 254.49,171.909 254.47,172.77 254.463,173.631 254.468,174.493 254.486,175.354 254.516,176.216 254.559,177.077 254.613,177.937 254.681,178.797 254.76,179.657 254.853,180.516 254.957,181.375 255.074,182.232 255.203,183.089 255.345,183.945 255.499,184.8 255.665,185.654 255.843,186.506 256.034,187.358 256.237,188.208 256.452,189.056 256.68,189.903 256.92,190.748 257.172,191.592 257.436,192.434 257.712,193.274 258,194.112 258.3,194.947 258.613,195.781 258.937,196.613 259.273,197.442 259.622,198.269 259.982,199.094 260.354,199.916 260.738,200.735 261.134,201.552 261.541,202.365 261.96,203.176 262.391,203.984 262.834,204.789 263.288,205.591 263.753,206.39 264.23,207.185 264.719,207.977 265.219,208.766 265.73,209.551 266.253,210.333 266.786,211.111 267.331,211.885 267.888,212.655 268.455,213.422 269.033,214.184 269.622,214.942 270.222,215.697 270.833,216.447 271.455,217.193 272.087,217.934 272.731,218.671 273.384,219.404 274.049,220.132 274.723,220.855 275.408,221.574 276.104,222.288 276.81,222.996 277.525,223.701 278.251,224.4 278.987,225.094 279.733,225.782 280.489,226.466 281.255,227.144 282.03,227.817 282.816,228.485 283.61,229.147 284.415,229.804 285.228,230.455 286.051,231.1 286.883,231.739 287.725,232.373 288.575,233.001 289.435,233.623 290.303,234.239 291.181,234.849 292.067,235.453 292.961,236.05 293.865,236.642 294.777,237.227 295.697,237.805 296.625,238.378 297.562,238.944 298.507,239.503 299.459,240.056 300.42,240.602 301.389,241.141 302.365,241.674 303.349,242.2 304.34,242.719 305.339,243.231 306.345,243.736 307.359,244.234 308.379,244.725 309.407,245.209 310.441,245.686 311.483,246.156 312.531,246.618 313.586,247.073 314.647,247.521 315.714,247.962 316.788,248.395 317.868,248.82 318.954,249.238 320.047,249.649 321.145,250.051 322.248,250.447 323.358,250.834 324.473,251.214 325.593,251.586 326.719,251.95 327.85,252.307 328.985,252.656 330.126,252.996 331.272,253.329 332.423,253.654 333.578,253.971 334.737,254.279 335.901,254.58 337.07,254.873 338.242,255.157 339.419,255.434 340.599,255.702 341.783,255.962 342.971,256.214 344.163,256.457 345.358,256.693 346.556,256.919 347.758,257.138 348.962,257.348 350.17,257.55 351.38,257.744 352.593,257.929 353.809,258.106 355.027,258.274 356.248,258.434 357.471,258.585 358.696,258.728 359.923,258.862 361.152,258.988 362.382,259.106 363.615,259.214 364.848,259.315 366.083,259.406 367.32,259.489 368.557,259.564 369.796,259.63 371.035,259.687 372.275,259.736 373.516,259.776 374.758,259.807 375.999,259.83 377.241,259.845 378.484,259.85" stroke="#000000" stroke-dasharray="1,3,1,3,1,3,1,3" stroke-linecap="butt" stroke-linejoin="round" stroke-width="0.6"/>
   <g font-family="FreeSans" font-size="11.6513" font-style="normal" font-weight="normal" transform="translate(384.261,140.068) rotate(-0,-0,-5)" xml:space="preserve">
    <text fill="rgb(0,0,0)" x="0 6 9 15 " y="-0">1.00</text>
   </g>
   <g font-family="FreeSans" font-size="11.6513" font-style="normal" font-weight="normal" transform="translate(384.261,114.57) rotate(-0,-0,-5)" xml:space="preserve">
    <text fill="rgb(0,0,0)" x="0 6 9 15 " y="-0">1.66</text>
   </g>
   <g font-family="FreeSans" font-size="11.6513" font-style="normal" font-weight="normal" transform="translate(384.261,92.5496) rotate(-0,-0,-5)" xml:space="preserve">
    <text fill="rgb(0,0,0)" x="0 6 9 15 " y="-0">2.23</text>
   </g>
   <g font-family="FreeSans" font-size="11.6513" font-style="normal" font-weight="normal" transform="translate(384.261,179.2) rotate(-0,-0,-5.5)" xml:space="preserve">
    <text fill="rgb(0,0,0)" x="0 6 9 13 19 26 29 " y="-1">0 rad/s</text>
   </g>
   <g font-family="FreeSans" font-size="11.6513" font-style="normal" font-weight="normal" transform="translate(384.261,217.332) rotate(-0,-0,-5)" xml:space="preserve">
    <text fill="rgb(0,0,0)" x="0 6 9 15 " y="-0">1.00</text>
   </g>
   <g font-family="FreeSans" font-size="11.6513" font-style="normal" font-weight="normal" transform="translate(384.261,242.83) rotate(-0,-0,-5)" xml:space="preserve">
    <text fill="rgb(0,0,0)" x="0 6 9 15 " y="-0">1.66</text>
   </g>
   <g font-family="FreeSans" font-size="11.6513" font-style="normal" font-weight="normal" transform="translate(384.261,264.85) rotate(-0,-0,-5)" xml:space="preserve">
    <text fill="rgb(0,0,0)" x="0 6 9 15 " y="-0">2.23</text>
   </g>
   <polyline fill="none" points="378.681,173.7 256.314,26.7066" stroke="#000000" stroke-dasharray="1,3,1,3,1,3,1,3" stroke-linecap="butt" stroke-linejoin="round" stroke-width="0.6"/>
   <g font-family="FreeSans" font-size="11.6513" font-style="normal" font-weight="normal" transform="translate(260.222,36.401) rotate(-0,-0,-5)" xml:space="preserve">
    <text fill="rgb(0,0,0)" x="0 6 9 15 " y="-0">0.50</text>
   </g>
   <polyline fill="none" points="378.681,173.7 170.932,26.7066" stroke="#000000" stroke-dasharray="1,3,1,3,1,3,1,3" stroke-linecap="butt" stroke-linejoin="round" stroke-width="0.6"/>
   <g font-family="FreeSans" font-size="11.6513" font-style="normal" font-weight="normal" transform="translate(177.567,36.401) rotate(-0,-0,-5)" xml:space="preserve">
    <text fill="rgb(0,0,0)" x="0 6 9 15 " y="-0">0.70</text>
   </g>
   <polyline fill="none" points="378.681,173.7 62.028,61.1895" stroke="#000000" stroke-dasharray="1,3,1,3,1,3,1,3" stroke-linecap="butt" stroke-linejoin="round" stroke-width="0.6"/>
   <g font-family="FreeSans" font-size="11.6513" font-style="normal" font-weight="normal" transform="translate(67.98,68.3043) rotate(-0,-0,-5)" xml:space="preserve">
    <text fill="rgb(0,0,0)" x="0 6 9 15 " y="-0">0.89</text>
   </g>
   <polyline fill="none" points="378.681,173.7 256.314,320.693" stroke="#000000" stroke-dasharray="1,3,1,3,1,3,1,3" stroke-linecap="butt" stroke-linejoin="round" stroke-width="0.6"/>
   <g font-family="FreeSans" font-size="11.6513" font-style="normal" font-weight="normal" transform="translate(260.222,320.999) rotate(-0,-0,-5)" xml:space="preserve">
    <text fill="rgb(0,0,0)" x="0 6 9 15 " y="-0">0.50</text>
   </g>
   <polyline fill="none" points="378.681,173.7 170.932,320.693" stroke="#000000" stroke-dasharray="1,3,1,3,1,3,1,3" stroke-linecap="butt" stroke-linejoin="round" stroke-width="0.6"/>
   <g font-family="FreeSans" font-size="11.6513" font-style="normal" font-weight="normal" transform="translate(177.567,320.999) rotate(-0,-0,-5)" xml:space="preserve">
    <text fill="rgb(0,0,0)" x="0 6 9 15 " y="-0">0.70</text>
   </g>
   <polyline fill="none" points="378.681,173.7 62.028,286.211" stroke="#000000" stroke-dasharray="1,3,1,3,1,3,1,3" stroke-linecap="butt" stroke-linejoin="round" stroke-width="0.6"/>
   <g font-family="FreeSans" font-size="11.6513" font-style="normal" font-weight="normal" transform="translate(67.98,289.096) rotate(-0,-0,-5)" xml:space="preserve">
    <text fill="rgb(0,0,0)" x="0 6 9 15 " y="-0">0.89</text>
   </g>
   <polyline fill="none" points="378.681,173.7 378.681,26.7066" stroke="#000000" stroke-linecap="butt" stroke-linejoin="round" stroke-width="0.3"/>
   <polyline fill="none" points="378.681,173.7 378.681,320.693" stroke="#000000" stroke-linecap="butt" stroke-linejoin="round" stroke-width="0.3"/>
  </g>
  <clipPath id="cp00480360">
   <polygon points="0,360 480,360 480,0 0,0"/>
  </clipPath>
  <g clip-path="url(#cp00480360)">
   <polygon fill="#ffffff" points="319.347,84.0316 426.389,84.0316 426.389,35.0105 319.347,35.0105" shape-rendering="crispEdges"/>
   <polyline fill="none" points="319.347,84.0316 426.389,84.0316" stroke="#262626" stroke-dasharray="16,0" stroke-linecap="square" stroke-linejoin="miter" stroke-width="0.5"/>
   <polyline fill="none" points="319.347,35.0105 426.389,35.0105" stroke="#262626" stroke-dasharray="16,0" stroke-linecap="square" stroke-linejoin="miter" stroke-width="0.5"/>
   <polyline fill="none" points="319.347,84.0316 319.347,35.0105" stroke="#262626" stroke-dasharray="16,0" stroke-linecap="square" stroke-linejoin="miter" stroke-width="0.5"/>
   <polyline fill="none" points="426.389,84.0316 426.389,35.0105" stroke="#262626" stroke-dasharray="16,0" stroke-linecap="square" stroke-linejoin="miter" stroke-width="0.5"/>
   <polyline fill="none" points="323.353,44.5158 343.379,44.5158" stroke="#000000" stroke-dasharray="9,7" stroke-linecap="butt" stroke-linejoin="round" stroke-width="0.5"/>
   <g font-family="FreeSans" font-size="10.4862" font-style="normal" font-weight="normal" transform="translate(347.384,50.0158) rotate(-0,-0,-5.5)" xml:space="preserve">
    <text fill="rgb(0,0,0)" x="0 6 11 16 25 31 34 40 43 49 " y="-3">asymptotes</text>
   </g>
   <polyline fill="none" points="323.353,59.0211 343.379,59.0211" stroke="#0000ff" stroke-linecap="butt" stroke-linejoin="round" stroke-width="2"/>
   <g font-family="FreeSans" font-size="10.4862" font-style="normal" font-weight="normal" transform="translate(347.384,64.0211) rotate(-0,-0,-5)" xml:space="preserve">
    <text fill="rgb(0,0,0)" x="0 2 8 13 19 " y="-1">locus</text>
   </g>
   <polyline fill="none" points="329.366,70.0263 337.366,78.0263" stroke="#bf0000" stroke-linecap="square" stroke-linejoin="miter" stroke-width="2"/>
   <polyline fill="none" points="329.366,78.0263 337.366,70.0263" stroke="#bf0000" stroke-linecap="square" stroke-linejoin="miter" stroke-width="2"/>
   <g font-family="FreeSans" font-size="10.4862" font-style="normal" font-weight="normal" transform="translate(347.384,80.0263) rotate(-0,-0,-6)" xml:space="preserve">
    <text fill="rgb(0,0,0)" x="0 6 12 18 24 27 29 35 41 47 50 56 62 64 70 " y="-3">open loop poles</text>
   </g>
  </g>
 </g>
</svg>
