<?xml version='1.0' encoding='UTF-8' standalone='no'?>
<svg height="360pt" viewBox="0 0 480 360" width="480pt" xmlns="http://www.w3.org/2000/svg" xmlns:xlink="http://www.w3.org/1999/xlink">
 <title>Figure 1</title>
 <desc>
Creator: GL2PS 1.4.2, (C) 1999-2020 C. Geuzaine
For: Octave
CreationDate: Wed Mar 11 06:49:12 2026
</desc>
 <defs/>
 <polygon fill="#ffffff" points="0,0 480,0 480,360 0,360"/>
 <g>
  <polygon fill="#ffffff" points="0,360 480,360 480,0 0,0" shape-rendering="crispEdges"/>
  <clipPath id="cp00480360">
   <polygon points="0,360 480,360 480,0 0,0"/>
  </clipPath>
  <g clip-path="url(#cp00480360)">
   <polygon fill="#ffffff" points="62.4,320.4 434.4,320.4 434.4,27 62.4,27" shape-rendering="crispEdges"/>
   <polyline fill="none" points="115.74,320.4 115.74,27" stroke="#262626" stroke-dasharray="16,0" stroke-linecap="butt" stroke-linejoin="miter" stroke-opacity="0.15" stroke-width="0.5"/>
   <polyline fill="none" points="216.813,320.4 216.813,27" stroke="#262626" stroke-dasharray="16,0" stroke-linecap="butt" stroke-linejoin="miter" stroke-opacity="0.15" stroke-width="0.5"/>
   <polyline fill="none" points="317.887,320.4 317.887,27" stroke="#262626" stroke-dasharray="16,0" stroke-linecap="butt" stroke-linejoin="miter" stroke-opacity="0.15" stroke-width="0.5"/>
   <polyline fill="none" points="418.96,320.4 418.96,27" stroke="#262626" stroke-dasharray="16,0" stroke-linecap="butt" stroke-linejoin="miter" stroke-opacity="0.15" stroke-width="0.5"/>
   <polyline fill="none" points="115.74,320.4 115.74,316.675" stroke="#262626" stroke-linecap="butt" stroke-linejoin="miter" stroke-width="0.5"/>
   <polyline fill="none" points="115.74,27 115.74,30.7251" stroke="#262626" stroke-linecap="butt" stroke-linejoin="miter" stroke-width="0.5"/>
   <polyline fill="none" points="216.813,320.4 216.813,316.675" stroke="#262626" stroke-linecap="butt" stroke-linejoin="miter" stroke-width="0.5"/>
   <polyline fill="none" points="216.813,27 216.813,30.7251" stroke="#262626" stroke-linecap="butt" stroke-linejoin="miter" stroke-width="0.5"/>
   <polyline fill="none" points="317.887,320.4 317.887,316.675" stroke="#262626" stroke-linecap="butt" stroke-linejoin="miter" stroke-width="0.5"/>
   <polyline fill="none" points="317.887,27 317.887,30.7251" stroke="#262626" stroke-linecap="butt" stroke-linejoin="miter" stroke-width="0.5"/>
   <polyline fill="none" points="418.96,320.4 418.96,316.675" stroke="#262626" stroke-linecap="butt" stroke-linejoin="miter" stroke-width="0.5"/>
   <polyline fill="none" points="418.96,27 418.96,30.7251" stroke="#262626" stroke-linecap="butt" stroke-linejoin="miter" stroke-width="0.5"/>
   <g font-family="FreeSans" font-size="11.6513" font-style="normal" font-weight="normal" transform="translate(107.74,339.15) rotate(-0,8,-10)" xml:space="preserve">
    <text fill="rgb(38,38,38)" x="0 4 10 " y="-0">-10</text>
   </g>
   <g font-family="FreeSans" font-size="11.6513" font-style="normal" font-weight="normal" transform="translate(211.813,339.15) rotate(-0,5,-10)" xml:space="preserve">
    <text fill="rgb(38,38,38)" x="0 4 " y="-0">-5</text>
   </g>
   <g font-family="FreeSans" font-size="11.6513" font-style="normal" font-weight="normal" transform="translate(314.887,339.15) rotate(-0,3,-10)" xml:space="preserve">
    <text fill="rgb(38,38,38)" x="0 " y="-0">0</text>
   </g>
   <g font-family="FreeSans" font-size="11.6513" font-style="normal" font-weight="normal" transform="translate(415.96,339.15) rotate(-0,3,-10)" xml:space="preserve">
    <text fill="rgb(38,38,38)" x="0 " y="-0">5</text>
   </g>
   <polyline fill="none" points="62.4,303.183 434.4,303.183" stroke="#262626" stroke-dasharray="16,0" stroke-linecap="butt" stroke-linejoin="miter" stroke-opacity="0.15" stroke-width="0.5"/>
   <polyline fill="none" points="62.4,238.442 434.4,238.442" stroke="#262626" stroke-dasharray="16,0" stroke-linecap="butt" stroke-linejoin="miter" stroke-opacity="0.15" stroke-width="0.5"/>
   <polyline fill="none" points="62.4,173.7 434.4,173.7" stroke="#262626" stroke-dasharray="16,0" stroke-linecap="butt" stroke-linejoin="miter" stroke-opacity="0.15" stroke-width="0.5"/>
   <polyline fill="none" points="62.4,108.958 434.4,108.958" stroke="#262626" stroke-dasharray="16,0" stroke-linecap="butt" stroke-linejoin="miter" stroke-opacity="0.15" stroke-width="0.5"/>
   <polyline fill="none" points="62.4,44.2166 434.4,44.2166" stroke="#262626" stroke-dasharray="16,0" stroke-linecap="butt" stroke-linejoin="miter" stroke-opacity="0.15" stroke-width="0.5"/>
   <polyline fill="none" points="62.4,303.183 66.12,303.183" stroke="#262626" stroke-linecap="butt" stroke-linejoin="miter" stroke-width="0.5"/>
   <polyline fill="none" points="434.4,303.183 430.68,303.183" stroke="#262626" stroke-linecap="butt" stroke-linejoin="miter" stroke-width="0.5"/>
   <polyline fill="none" points="62.4,238.442 66.12,238.442" stroke="#262626" stroke-linecap="butt" stroke-linejoin="miter" stroke-width="0.5"/>
   <polyline fill="none" points="434.4,238.442 430.68,238.442" stroke="#262626" stroke-linecap="butt" stroke-linejoin="miter" stroke-width="0.5"/>
   <polyline fill="none" points="62.4,173.7 66.12,173.7" stroke="#262626" stroke-linecap="butt" stroke-linejoin="miter" stroke-width="0.5"/>
   <polyline fill="none" points="434.4,173.7 430.68,173.7" stroke="#262626" stroke-linecap="butt" stroke-linejoin="miter" stroke-width="0.5"/>
   <polyline fill="none" points="62.4,108.958 66.12,108.958" stroke="#262626" stroke-linecap="butt" stroke-linejoin="miter" stroke-width="0.5"/>
   <polyline fill="none" points="434.4,108.958 430.68,108.958" stroke="#262626" stroke-linecap="butt" stroke-linejoin="miter" stroke-width="0.5"/>
   <polyline fill="none" points="62.4,44.2166 66.12,44.2166" stroke="#262626" stroke-linecap="butt" stroke-linejoin="miter" stroke-width="0.5"/>
   <polyline fill="none" points="434.4,44.2166 430.68,44.2166" stroke="#262626" stroke-linecap="butt" stroke-linejoin="miter" stroke-width="0.5"/>
   <g font-family="FreeSans" font-size="11.6513" font-style="normal" font-weight="normal" transform="translate(40.5743,308.183) rotate(-0,16,-5)" xml:space="preserve">
    <text fill="rgb(38,38,38)" x="0 4 10 " y="-0">-10</text>
   </g>
   <g font-family="FreeSans" font-size="11.6513" font-style="normal" font-weight="normal" transform="translate(46.5743,243.442) rotate(-0,10,-5)" xml:space="preserve">
    <text fill="rgb(38,38,38)" x="0 4 " y="-0">-5</text>
   </g>
   <g font-family="FreeSans" font-size="11.6513" font-style="normal" font-weight="normal" transform="translate(50.5743,178.7) rotate(-0,6,-5)" xml:space="preserve">
    <text fill="rgb(38,38,38)" x="0 " y="-0">0</text>
   </g>
   <g font-family="FreeSans" font-size="11.6513" font-style="normal" font-weight="normal" transform="translate(50.5743,113.958) rotate(-0,6,-5)" xml:space="preserve">
    <text fill="rgb(38,38,38)" x="0 " y="-0">5</text>
   </g>
   <g font-family="FreeSans" font-size="11.6513" font-style="normal" font-weight="normal" transform="translate(44.5743,49.2166) rotate(-0,12,-5)" xml:space="preserve">
    <text fill="rgb(38,38,38)" x="0 6 " y="-0">10</text>
   </g>
   <polyline fill="none" points="62.4,320.4 434.4,320.4" stroke="#262626" stroke-dasharray="16,0" stroke-linecap="square" stroke-linejoin="miter" stroke-width="0.5"/>
   <polyline fill="none" points="62.4,27 434.4,27" stroke="#262626" stroke-dasharray="16,0" stroke-linecap="square" stroke-linejoin="miter" stroke-width="0.5"/>
   <polyline fill="none" points="62.4,320.4 62.4,27" stroke="#262626" stroke-dasharray="16,0" stroke-linecap="square" stroke-linejoin="miter" stroke-width="0.5"/>
   <polyline fill="none" points="434.4,320.4 434.4,27" stroke="#262626" stroke-dasharray="16,0" stroke-linecap="square" stroke-linejoin="miter" stroke-width="0.5"/>
   <g font-family="FreeSans" font-size="12.8165" font-style="normal" font-weight="normal" transform="translate(221.9,355.15) rotate(-0,26.5,-11)" xml:space="preserve">
    <text fill="rgb(38,38,38)" x="0 9 16 23 26 29 38 44 47 " y="-0">Real Axis</text>
   </g>
   <g font-family="FreeSans" font-size="12.8165" font-style="normal" font-weight="normal" transform="translate(-5.42567,173.7) rotate(-90,41,0)" xml:space="preserve">
    <text fill="rgb(38,38,38)" x="0 4 14 21 28 31 38 45 49 55 58 67 73 76 " y="-3">Imaginary Axis</text>
   </g>
   <g font-family="FreeSans" font-size="12.8165" font-style="normal" font-weight="bold" transform="translate(136.4,17) rotate(-0,112,0)" xml:space="preserve">
    <text fill="rgb(0,0,0)" x="0 9 17 25 29 33 36 44 51 59 66 70 77 84 91 95 99 108 112 119 123 130 133 140 147 154 158 161 164 168 175 182 189 196 199 206 213 220 " y="-3">Root locus sys (K = 0.000 .. 1565.458)</text>
   </g>
   <polyline fill="none" points="304.41,173.7 434.772,29.07" stroke="#000000" stroke-dasharray="9,7" stroke-linecap="butt" stroke-linejoin="round" stroke-width="0.5"/>
   <polyline fill="none" points="304.41,173.7 62.028,173.7" stroke="#000000" stroke-dasharray="9,7" stroke-linecap="butt" stroke-linejoin="round" stroke-width="0.5"/>
   <polyline fill="none" points="304.41,173.7 434.772,318.33" stroke="#000000" stroke-dasharray="9,7" stroke-linecap="butt" stroke-linejoin="round" stroke-width="0.5"/>
   <polyline fill="none" points="297.672,173.7 298.877,173.7 300.342,173.7 302.308,173.7 302.957,173.7 303.734,173.7 304.76,173.7 307.286,173.7 307.214,176.191 307.141,177.23 307.068,178.032 306.995,178.712 306.698,180.846 306.396,182.527 306.088,183.984 305.774,185.306 305.455,186.541 305.129,187.716 304.798,188.852 304.461,189.965 304.121,191.065 303.78,192.167 303.44,193.28 303.109,194.419 302.797,195.597 302.525,196.83 302.332,198.138 302.286,199.531 302.492,200.991 303.04,202.439 303.893,203.758 304.904,204.895 305.948,205.867 306.966,206.71 307.936,207.459 308.853,208.135 309.72,208.755 310.539,209.329 311.316,209.867 314.074,211.753 316.411,213.351 318.448,214.76 320.262,216.035 321.903,217.204 323.403,218.291 324.789,219.308 326.079,220.267 327.287,221.177 328.455,222.066 329.557,222.914 330.603,223.727 331.598,224.508 332.548,225.259 333.457,225.985 334.329,226.686 335.169,227.366 335.977,228.025 336.758,228.665 337.513,229.288 338.244,229.895 338.952,230.486 339.641,231.064 340.309,231.627 340.96,232.179 341.594,232.718 342.212,233.246 342.815,233.763 343.404,234.27 345.632,236.206 347.686,238.014 349.595,239.712 350.488,240.514 351.355,241.294 352.195,242.055 352.402,242.242 352.607,242.428 352.81,242.613 353.012,242.797 353.219,242.986 353.424,243.173 353.628,243.359 353.831,243.544 354.627,244.273 355.403,244.985 356.159,245.683 356.525,246.021 356.886,246.355 357.244,246.686 357.597,247.014 358.971,248.295 360.288,249.529 361.553,250.72 362.772,251.872 363.947,252.989 365.083,254.072 366.183,255.124 367.249,256.148 368.284,257.145 369.289,258.117 370.268,259.065 371.221,259.992 372.15,260.897 373.056,261.783 373.942,262.65 374.807,263.499 375.653,264.332 376.482,265.148 377.293,265.95 378.088,266.737 378.868,267.509 379.633,268.269 380.384,269.016 381.121,269.75 381.846,270.473 382.558,271.185 383.259,271.886 383.948,272.576 384.626,273.257 385.294,273.928 385.951,274.589 386.599,275.242 387.238,275.885 387.867,276.521 388.488,277.148 389.1,277.767 389.704,278.379 390.3,278.983 390.888,279.58 391.469,280.17 392.043,280.753 392.61,281.33 393.17,281.9 393.723,282.464 394.271,283.022 394.811,283.574 395.346,284.121 395.875,284.662 396.398,285.197 396.916,285.727 397.428,286.252 397.935,286.772 398.437,287.287 398.934,287.797 399.425,288.302 401.346,290.278 403.197,292.188 404.984,294.035 406.712,295.825 408.386,297.563 410.01,299.251 411.588,300.894 413.122,302.494 414.615,304.054 416.071,305.577 417.491,307.064" stroke="#0000ff" stroke-linecap="butt" stroke-linejoin="round" stroke-width="2"/>
   <polyline fill="none" points="317.887,173.7 316.438,173.7 314.727,173.7 312.513,173.7 311.802,173.7 310.962,173.7 309.875,173.7 307.286,173.7 307.214,171.209 307.141,170.17 307.068,169.368 306.995,168.688 306.698,166.554 306.396,164.873 306.088,163.416 305.774,162.094 305.455,160.859 305.129,159.684 304.798,158.548 304.461,157.435 304.121,156.335 303.78,155.233 303.44,154.12 303.109,152.981 302.797,151.803 302.525,150.57 302.332,149.262 302.286,147.869 302.492,146.409 303.04,144.961 303.893,143.642 304.904,142.505 305.948,141.534 306.966,140.69 307.936,139.941 308.853,139.265 309.72,138.645 310.539,138.071 311.316,137.533 314.074,135.647 316.411,134.049 318.448,132.64 320.262,131.365 321.903,130.196 323.403,129.109 324.789,128.092 326.079,127.133 327.287,126.223 328.455,125.334 329.557,124.486 330.603,123.673 331.598,122.892 332.548,122.141 333.457,121.415 334.329,120.714 335.169,120.034 335.977,119.375 336.758,118.735 337.513,118.112 338.244,117.505 338.952,116.914 339.641,116.336 340.309,115.773 340.96,115.221 341.594,114.682 342.212,114.154 342.815,113.637 343.404,113.13 345.632,111.194 347.686,109.386 349.595,107.688 350.488,106.886 351.355,106.106 352.195,105.345 352.402,105.158 352.607,104.972 352.81,104.787 353.012,104.603 353.219,104.414 353.424,104.227 353.628,104.041 353.831,103.856 354.627,103.127 355.403,102.415 356.159,101.717 356.525,101.379 356.886,101.045 357.244,100.714 357.597,100.386 358.971,99.1053 360.288,97.8715 361.553,96.6802 362.772,95.5279 363.947,94.4115 365.083,93.3282 366.183,92.2758 367.249,91.252 368.284,90.255 369.289,89.283 370.268,88.3346 371.221,87.4083 372.15,86.5028 373.056,85.6171 373.942,84.75 374.807,83.9007 375.653,83.0681 376.482,82.2516 377.293,81.4503 378.088,80.6635 378.868,79.8906 379.633,79.131 380.384,78.3842 381.121,77.6496 381.846,76.9266 382.558,76.2149 383.259,75.514 383.948,74.8236 384.626,74.1431 385.294,73.4724 385.951,72.8109 386.599,72.1585 387.238,71.5148 387.867,70.8795 388.488,70.2523 389.1,69.6331 389.704,69.0215 390.3,68.4173 390.888,67.8202 391.469,67.2302 392.043,66.6469 392.61,66.0702 393.17,65.4999 393.723,64.9358 394.271,64.3778 394.811,63.8257 395.346,63.2793 395.875,62.7385 396.398,62.2031 396.916,61.673 397.428,61.1482 397.935,60.6284 398.437,60.1135 398.934,59.6034 399.425,59.0981 401.346,57.1216 403.197,55.2124 404.984,53.3651 406.712,51.5747 408.386,49.8372 410.01,48.1487 411.588,46.506 413.122,44.9059 414.615,43.3459 416.071,41.8234 417.491,40.3364" stroke="#0000ff" stroke-linecap="butt" stroke-linejoin="round" stroke-width="2"/>
   <polyline fill="none" points="277.457,218.554 277.579,218.406 277.702,218.255 277.826,218.103 277.857,218.064 277.888,218.026 277.92,217.987 277.951,217.948 278.023,217.859 278.096,217.768 278.169,217.677 278.242,217.585 278.538,217.209 278.84,216.819 279.148,216.414 279.462,215.993 279.782,215.553 280.108,215.093 280.439,214.609 280.775,214.097 281.115,213.555 281.457,212.976 281.797,212.354 282.128,211.679 282.44,210.942 282.711,210.127 282.904,209.219 282.95,208.209 282.744,207.115 282.196,206.02 281.344,205.04 280.333,204.231 279.288,203.575 278.271,203.036 277.301,202.583 276.383,202.194 275.517,201.852 274.697,201.547 273.921,201.272 271.163,200.367 268.826,199.656 266.788,199.056 264.974,198.525 263.334,198.041 261.833,197.59 260.447,197.164 259.157,196.757 257.949,196.363 256.782,195.971 255.679,195.587 254.634,195.209 253.639,194.837 252.689,194.468 251.78,194.102 250.907,193.738 250.068,193.374 249.259,193.01 248.479,192.646 247.724,192.28 246.993,191.913 246.284,191.543 245.596,191.17 244.927,190.793 244.276,190.412 243.643,190.027 243.025,189.636 242.422,189.24 241.833,188.836 239.604,187.139 237.55,185.256 235.642,183.06 234.748,181.786 233.882,180.286 233.041,178.346 232.835,177.722 232.63,176.982 232.426,176.019 232.224,173.7 228.347,173.7 226.624,173.7 225.257,173.7 224.076,173.7 220.267,173.7 217.193,173.7 214.512,173.7 213.29,173.7 212.121,173.7 210.997,173.7 209.913,173.7 205.898,173.7 202.274,173.7 198.94,173.7 195.835,173.7 192.917,173.7 190.156,173.7 187.531,173.7 185.023,173.7 182.62,173.7 180.31,173.7 178.084,173.7 175.934,173.7 173.853,173.7 171.836,173.7 169.879,173.7 167.975,173.7 166.123,173.7 164.318,173.7 162.557,173.7 160.838,173.7 159.159,173.7 157.516,173.7 155.908,173.7 154.333,173.7 152.79,173.7 151.276,173.7 149.791,173.7 148.333,173.7 146.901,173.7 145.494,173.7 144.11,173.7 142.75,173.7 141.41,173.7 140.092,173.7 138.794,173.7 137.516,173.7 136.256,173.7 135.013,173.7 133.789,173.7 132.581,173.7 131.389,173.7 130.213,173.7 129.052,173.7 127.906,173.7 126.773,173.7 125.655,173.7 124.55,173.7 123.458,173.7 122.379,173.7 121.311,173.7 120.256,173.7 119.212,173.7 118.18,173.7 117.158,173.7 116.147,173.7 112.205,173.7 108.413,173.7 104.759,173.7 101.229,173.7 97.8148,173.7 94.5064,173.7 91.2962,173.7 88.1773,173.7 85.1434,173.7 82.189,173.7 79.3091,173.7" stroke="#0000ff" stroke-linecap="butt" stroke-linejoin="round" stroke-width="2"/>
   <polyline fill="none" points="277.457,128.846 277.579,128.994 277.702,129.145 277.826,129.297 277.857,129.336 277.888,129.374 277.92,129.413 277.951,129.452 278.023,129.541 278.096,129.632 278.169,129.723 278.242,129.815 278.538,130.191 278.84,130.581 279.148,130.986 279.462,131.407 279.782,131.847 280.108,132.307 280.439,132.792 280.775,133.303 281.115,133.845 281.457,134.424 281.797,135.046 282.128,135.721 282.44,136.458 282.711,137.273 282.904,138.181 282.95,139.191 282.744,140.285 282.196,141.38 281.344,142.36 280.333,143.169 279.288,143.825 278.271,144.364 277.301,144.817 276.383,145.206 275.517,145.548 274.697,145.853 273.921,146.128 271.163,147.033 268.826,147.744 266.788,148.344 264.974,148.876 263.334,149.359 261.833,149.81 260.447,150.236 259.157,150.643 257.949,151.037 256.782,151.429 255.679,151.813 254.634,152.191 253.639,152.563 252.689,152.932 251.78,153.298 250.907,153.662 250.068,154.026 249.259,154.39 248.479,154.754 247.724,155.12 246.993,155.487 246.284,155.857 245.596,156.23 244.927,156.607 244.276,156.988 243.643,157.373 243.025,157.764 242.422,158.16 241.833,158.564 239.604,160.261 237.55,162.144 235.642,164.34 234.748,165.614 233.882,167.114 233.041,169.054 232.835,169.678 232.63,170.418 232.426,171.381 232.224,173.7 235.688,173.7 237.001,173.7 237.959,173.7 238.735,173.7 240.952,173.7 242.474,173.7 243.643,173.7 244.133,173.7 244.579,173.7 244.989,173.7 245.366,173.7 246.634,173.7 247.624,173.7 248.426,173.7 249.094,173.7 249.662,173.7 250.15,173.7 250.576,173.7 250.952,173.7 251.286,173.7 251.585,173.7 251.854,173.7 252.099,173.7 252.321,173.7 252.525,173.7 252.712,173.7 252.884,173.7 253.044,173.7 253.192,173.7 253.33,173.7 253.458,173.7 253.579,173.7 253.691,173.7 253.797,173.7 253.897,173.7 253.991,173.7 254.08,173.7 254.164,173.7 254.244,173.7 254.32,173.7 254.392,173.7 254.46,173.7 254.525,173.7 254.587,173.7 254.647,173.7 254.704,173.7 254.758,173.7 254.81,173.7 254.86,173.7 254.908,173.7 254.954,173.7 254.998,173.7 255.04,173.7 255.081,173.7 255.121,173.7 255.159,173.7 255.195,173.7 255.231,173.7 255.265,173.7 255.298,173.7 255.33,173.7 255.361,173.7 255.391,173.7 255.42,173.7 255.448,173.7 255.475,173.7 255.576,173.7 255.666,173.7 255.747,173.7 255.82,173.7 255.886,173.7 255.947,173.7 256.002,173.7 256.052,173.7 256.099,173.7 256.142,173.7 256.182,173.7" stroke="#0000ff" stroke-linecap="butt" stroke-linejoin="round" stroke-width="2"/>
   <polyline fill="none" points="272.457,123.846 282.457,133.846" stroke="#bf0000" stroke-linecap="square" stroke-linejoin="miter" stroke-width="2"/>
   <polyline fill="none" points="272.457,133.846 282.457,123.846" stroke="#bf0000" stroke-linecap="square" stroke-linejoin="miter" stroke-width="2"/>
   <polyline fill="none" points="272.457,213.554 282.457,223.554" stroke="#bf0000" stroke-linecap="square" stroke-linejoin="miter" stroke-width="2"/>
   <polyline fill="none" points="272.457,223.554 282.457,213.554" stroke="#bf0000" stroke-linecap="square" stroke-linejoin="miter" stroke-width="2"/>
   <polyline fill="none" points="292.672,168.7 302.672,178.7" stroke="#bf0000" stroke-linecap="square" stroke-linejoin="miter" stroke-width="2"/>
   <polyline fill="none" points="292.672,178.7 302.672,168.7" stroke="#bf0000" stroke-linecap="square" stroke-linejoin="miter" stroke-width="2"/>
   <polyline fill="none" points="312.887,168.7 322.887,178.7" stroke="#bf0000" stroke-linecap="square" stroke-linejoin="miter" stroke-width="2"/>
   <polyline fill="none" points="312.887,178.7 322.887,168.7" stroke="#bf0000" stroke-linecap="square" stroke-linejoin="miter" stroke-width="2"/>
   <polyline fill="none" points="262.243,173.7 261.747,175.869 260.36,177.609 258.355,178.575 256.13,178.575 254.125,177.609 252.738,175.869 252.243,173.7 252.738,171.531 254.125,169.791 256.13,168.825 258.355,168.825 260.36,169.791 261.747,171.531 262.243,173.7" stroke="#00bf00" stroke-linecap="round" stroke-linejoin="round" stroke-width="2"/>
   <polyline fill="none" points="317.887,147.803 317.482,147.805 317.078,147.809 316.674,147.815 316.27,147.824 315.866,147.836 315.462,147.85 315.059,147.867 314.656,147.886 314.253,147.908 313.85,147.933 313.448,147.96 313.047,147.99 312.646,148.022 312.245,148.057 311.845,148.094 311.445,148.134 311.047,148.177 310.649,148.222 310.251,148.269 309.855,148.32 309.459,148.372 309.064,148.428 308.67,148.485 308.276,148.546 307.884,148.608 307.493,148.674 307.103,148.742 306.714,148.812 306.326,148.885 305.939,148.96 305.553,149.038 305.169,149.118 304.786,149.201 304.404,149.286 304.023,149.373 303.644,149.463 303.267,149.556 302.891,149.651 302.516,149.748 302.143,149.848 301.771,149.95 301.401,150.054 301.033,150.161 300.666,150.27 300.301,150.381 299.938,150.495 299.577,150.611 299.217,150.73 298.86,150.851 298.504,150.974 298.15,151.099 297.798,151.226 297.448,151.356 297.1,151.488 296.755,151.622 296.411,151.759 296.07,151.898 295.73,152.038 295.393,152.181 295.059,152.327 294.726,152.474 294.396,152.623 294.068,152.775 293.742,152.928 293.419,153.084 293.099,153.242 292.781,153.402 292.465,153.563 292.152,153.727 291.841,153.893 291.533,154.061 291.228,154.231 290.926,154.402 290.626,154.576 290.328,154.752 290.034,154.929 289.742,155.109 289.454,155.29 289.168,155.473 288.884,155.658 288.604,155.844 288.327,156.033 288.053,156.223 287.781,156.415 287.513,156.609 287.248,156.804 286.985,157.001 286.726,157.2 286.47,157.4 286.217,157.602 285.968,157.806 285.721,158.011 285.478,158.218 285.238,158.426 285.001,158.636 284.767,158.848 284.537,159.061 284.31,159.275 284.087,159.491 283.867,159.708 283.65,159.927 283.436,160.147 283.227,160.368 283.02,160.591 282.817,160.815 282.618,161.04 282.422,161.266 282.23,161.494 282.041,161.723 281.856,161.953 281.674,162.185 281.496,162.417 281.322,162.651 281.151,162.886 280.984,163.122 280.821,163.358 280.661,163.596 280.505,163.835 280.353,164.075 280.205,164.316 280.06,164.558 279.919,164.801 279.782,165.044 279.649,165.289 279.52,165.534 279.394,165.78 279.273,166.027 279.155,166.275 279.041,166.523 278.931,166.773 278.824,167.023 278.722,167.273 278.624,167.524 278.529,167.776 278.439,168.028 278.352,168.281 278.27,168.535 278.191,168.789 278.116,169.043 278.046,169.298 277.979,169.554 277.916,169.81 277.857,170.066 277.803,170.322 277.752,170.579 277.705,170.837 277.663,171.094 277.624,171.352 277.589,171.61 277.559,171.868 277.532,172.127 277.509,172.385 277.491,172.644 277.476,172.903 277.466,173.161 277.46,173.42 277.457,173.679 277.459,173.938 277.465,174.197 277.475,174.456 277.488,174.715 277.506,174.974 277.528,175.232 277.554,175.491 277.584,175.749 277.618,176.007 277.656,176.265 277.698,176.522 277.744,176.78 277.794,177.037 277.848,177.293 277.906,177.55 277.969,177.805 278.035,178.061 278.105,178.316 278.179,178.571 278.257,178.825 278.339,179.078 278.425,179.331 278.515,179.584 278.608,179.836 278.706,180.087 278.808,180.338 278.913,180.588 279.023,180.837 279.136,181.085 279.254,181.333 279.375,181.58 279.5,181.827 279.628,182.072 279.761,182.317 279.897,182.561 280.038,182.803 280.182,183.045 280.329,183.286 280.481,183.527 280.636,183.766 280.795,184.004 280.958,184.241 281.124,184.477 281.294,184.712 281.468,184.946 281.646,185.178 281.827,185.41 282.011,185.64 282.199,185.869 282.391,186.097 282.586,186.324 282.785,186.55 282.988,186.774 283.193,186.997 283.403,187.218 283.616,187.438 283.832,187.657 284.051,187.875 284.274,188.091 284.501,188.305 284.73,188.518 284.963,188.73 285.2,188.94 285.439,189.149 285.682,189.356 285.928,189.561 286.177,189.765 286.43,189.968 286.685,190.168 286.944,190.367 287.206,190.565 287.47,190.76 287.738,190.954 288.009,191.147 288.283,191.337 288.56,191.526 288.84,191.713 289.122,191.898 289.408,192.081 289.696,192.263 289.987,192.442 290.281,192.62 290.578,192.796 290.878,192.97 291.18,193.142 291.485,193.312 291.792,193.48 292.102,193.646 292.415,193.811 292.73,193.973 293.048,194.133 293.368,194.291 293.691,194.447 294.016,194.601 294.343,194.753 294.673,194.903 295.005,195.05 295.34,195.196 295.677,195.339 296.015,195.48 296.357,195.619 296.7,195.756 297.045,195.891 297.393,196.023 297.742,196.153 298.094,196.281 298.447,196.407 298.803,196.53 299.16,196.651 299.519,196.77 299.88,196.886 300.243,197.001 300.608,197.112 300.974,197.222 301.342,197.329 301.712,197.434 302.083,197.536 302.456,197.636 302.831,197.734 303.207,197.829 303.584,197.922 303.963,198.012 304.343,198.1 304.725,198.186 305.108,198.269 305.492,198.35 305.877,198.428 306.264,198.504 306.652,198.577 307.041,198.647 307.431,198.716 307.822,198.781 308.214,198.845 308.607,198.905 309.001,198.963 309.396,199.019 309.791,199.072 310.188,199.123 310.585,199.171 310.983,199.216 311.382,199.259 311.781,199.3 312.181,199.338 312.582,199.373 312.983,199.405 313.384,199.436 313.786,199.463 314.189,199.488 314.592,199.511 314.995,199.53 315.398,199.548 315.802,199.562 316.206,199.574 316.61,199.584 317.014,199.591 317.418,199.595 317.822,199.597" stroke="#000000" stroke-dasharray="1,3,1,3,1,3,1,3" stroke-linecap="butt" stroke-linejoin="round" stroke-width="0.6"/>
   <polyline fill="none" points="317.887,121.907 317.078,121.909 316.27,121.917 315.461,121.93 314.653,121.948 313.845,121.971 313.038,122 312.231,122.033 311.425,122.072 310.619,122.116 309.814,122.165 309.01,122.22 308.207,122.279 307.405,122.344 306.603,122.413 305.803,122.488 305.004,122.568 304.207,122.653 303.411,122.743 302.616,122.839 301.822,122.939 301.031,123.044 300.241,123.155 299.453,123.271 298.666,123.391 297.882,123.517 297.099,123.647 296.319,123.783 295.541,123.924 294.765,124.069 293.991,124.22 293.22,124.375 292.451,124.536 291.685,124.701 290.921,124.872 290.16,125.047 289.402,125.227 288.647,125.412 287.895,125.601 287.145,125.796 286.399,125.995 285.656,126.199 284.916,126.408 284.179,126.622 283.446,126.84 282.716,127.063 281.99,127.29 281.267,127.523 280.548,127.76 279.832,128.001 279.121,128.247 278.413,128.498 277.71,128.753 277.01,129.012 276.314,129.276 275.623,129.545 274.936,129.818 274.253,130.095 273.574,130.377 272.9,130.663 272.23,130.953 271.565,131.248 270.905,131.547 270.249,131.85 269.598,132.157 268.952,132.468 268.311,132.784 267.675,133.103 267.043,133.427 266.417,133.755 265.796,134.086 265.18,134.422 264.57,134.761 263.964,135.105 263.365,135.452 262.77,135.803 262.181,136.158 261.598,136.517 261.02,136.879 260.448,137.245 259.882,137.615 259.322,137.989 258.767,138.365 258.218,138.746 257.676,139.13 257.139,139.517 256.608,139.908 256.084,140.302 255.566,140.7 255.054,141.101 254.548,141.505 254.048,141.912 253.555,142.323 253.069,142.736 252.589,143.153 252.115,143.573 251.648,143.995 251.187,144.421 250.734,144.85 250.287,145.282 249.846,145.716 249.413,146.153 248.986,146.593 248.567,147.036 248.154,147.481 247.748,147.929 247.349,148.38 246.957,148.833 246.573,149.288 246.195,149.746 245.825,150.207 245.462,150.669 245.106,151.135 244.757,151.602 244.416,152.071 244.082,152.543 243.755,153.017 243.436,153.493 243.124,153.971 242.82,154.45 242.523,154.932 242.234,155.416 241.952,155.901 241.678,156.389 241.412,156.878 241.153,157.368 240.902,157.861 240.658,158.355 240.423,158.85 240.195,159.347 239.975,159.845 239.762,160.345 239.558,160.846 239.361,161.349 239.172,161.852 238.991,162.357 238.818,162.863 238.653,163.37 238.495,163.878 238.346,164.387 238.204,164.897 238.071,165.408 237.946,165.919 237.828,166.432 237.719,166.945 237.617,167.459 237.524,167.973 237.438,168.488 237.361,169.004 237.292,169.52 237.23,170.036 237.177,170.553 237.132,171.07 237.095,171.588 237.066,172.105 237.045,172.623 237.033,173.141 237.028,173.659 237.031,174.177 237.043,174.695 237.062,175.212 237.09,175.73 237.126,176.247 237.17,176.765 237.221,177.281 237.281,177.798 237.349,178.314 237.425,178.83 237.51,179.345 237.602,179.859 237.702,180.373 237.81,180.887 237.926,181.399 238.05,181.911 238.183,182.422 238.323,182.932 238.471,183.441 238.627,183.949 238.791,184.456 238.963,184.963 239.143,185.468 239.33,185.971 239.526,186.474 239.729,186.975 239.94,187.475 240.159,187.974 240.386,188.471 240.62,188.967 240.863,189.461 241.112,189.953 241.37,190.444 241.635,190.934 241.908,191.421 242.189,191.907 242.477,192.391 242.772,192.873 243.075,193.353 243.386,193.831 243.704,194.307 244.029,194.782 244.362,195.254 244.702,195.724 245.05,196.191 245.404,196.657 245.766,197.12 246.136,197.581 246.512,198.039 246.896,198.495 247.286,198.948 247.684,199.399 248.089,199.848 248.5,200.293 248.919,200.737 249.345,201.177 249.777,201.615 250.216,202.049 250.662,202.482 251.115,202.911 251.574,203.337 252.04,203.76 252.513,204.18 252.992,204.598 253.477,205.012 253.969,205.423 254.468,205.831 254.973,206.235 255.484,206.637 256.001,207.035 256.525,207.429 257.054,207.821 257.59,208.209 258.132,208.593 258.679,208.974 259.233,209.352 259.793,209.726 260.358,210.096 260.929,210.463 261.506,210.826 262.088,211.185 262.676,211.54 263.27,211.892 263.869,212.24 264.473,212.584 265.083,212.924 265.698,213.261 266.318,213.593 266.943,213.921 267.574,214.245 268.209,214.566 268.85,214.882 269.495,215.194 270.145,215.502 270.8,215.806 271.46,216.105 272.124,216.4 272.793,216.691 273.466,216.978 274.144,217.26 274.827,217.538 275.513,217.812 276.204,218.081 276.899,218.346 277.598,218.606 278.301,218.862 279.008,219.113 279.719,219.36 280.434,219.602 281.152,219.84 281.874,220.073 282.6,220.301 283.329,220.525 284.062,220.744 284.798,220.958 285.538,221.168 286.28,221.373 287.026,221.573 287.775,221.768 288.527,221.958 289.282,222.144 290.039,222.325 290.8,222.501 291.563,222.672 292.329,222.838 293.097,222.999 293.868,223.156 294.642,223.307 295.417,223.453 296.195,223.595 296.975,223.731 297.757,223.863 298.541,223.989 299.327,224.111 300.115,224.227 300.905,224.338 301.696,224.444 302.489,224.546 303.284,224.642 304.08,224.733 304.877,224.819 305.676,224.899 306.476,224.975 307.277,225.046 308.079,225.111 308.882,225.171 309.686,225.226 310.491,225.276 311.296,225.321 312.103,225.361 312.909,225.395 313.717,225.424 314.524,225.449 315.333,225.468 316.141,225.481 316.949,225.49 317.758,225.493" stroke="#000000" stroke-dasharray="1,3,1,3,1,3,1,3" stroke-linecap="butt" stroke-linejoin="round" stroke-width="0.6"/>
   <polyline fill="none" points="317.887,96.01 316.674,96.0139 315.461,96.0255 314.249,96.0449 313.036,96.0721 311.825,96.1071 310.614,96.1497 309.403,96.2002 308.194,96.2585 306.985,96.3244 305.778,96.3981 304.572,96.4795 303.367,96.5687 302.164,96.6655 300.962,96.7701 299.762,96.8824 298.563,97.0023 297.367,97.1299 296.172,97.2651 294.98,97.4081 293.79,97.5586 292.603,97.7167 291.418,97.8825 290.236,98.0558 289.056,98.2367 287.879,98.4252 286.706,98.6211 285.535,98.8246 284.368,99.0356 283.204,99.254 282.044,99.4799 280.887,99.7132 279.733,99.9539 278.584,100.202 277.439,100.457 276.297,100.72 275.16,100.99 274.027,101.267 272.898,101.552 271.774,101.844 270.655,102.143 269.54,102.449 268.43,102.762 267.325,103.082 266.225,103.41 265.131,103.744 264.041,104.086 262.957,104.434 261.878,104.789 260.805,105.152 259.738,105.521 258.677,105.896 257.621,106.279 256.572,106.668 255.528,107.065 254.491,107.467 253.46,107.877 252.436,108.293 251.418,108.715 250.407,109.144 249.402,109.58 248.405,110.022 247.414,110.47 246.43,110.924 245.454,111.385 244.485,111.852 243.523,112.325 242.568,112.805 241.622,113.29 240.682,113.782 239.751,114.279 238.827,114.783 237.911,115.292 237.003,115.807 236.104,116.328 235.212,116.855 234.329,117.387 233.454,117.925 232.587,118.469 231.729,119.018 230.88,119.573 230.039,120.133 229.207,120.698 228.384,121.269 227.57,121.845 226.765,122.426 225.969,123.012 225.183,123.603 224.405,124.2 223.637,124.801 222.878,125.407 222.129,126.018 221.39,126.634 220.66,127.254 219.939,127.879 219.229,128.509 218.528,129.143 217.838,129.782 217.157,130.425 216.487,131.072 215.826,131.724 215.176,132.38 214.536,133.04 213.907,133.704 213.287,134.372 212.679,135.044 212.08,135.72 211.493,136.399 210.916,137.082 210.349,137.77 209.794,138.46 209.249,139.154 208.715,139.852 208.192,140.553 207.68,141.257 207.179,141.965 206.689,142.675 206.211,143.389 205.743,144.106 205.287,144.826 204.841,145.548 204.408,146.274 203.985,147.002 203.574,147.733 203.174,148.467 202.786,149.203 202.409,149.941 202.044,150.682 201.691,151.425 201.349,152.17 201.019,152.918 200.7,153.668 200.393,154.419 200.098,155.173 199.815,155.928 199.543,156.685 199.283,157.444 199.036,158.205 198.8,158.967 198.575,159.73 198.363,160.495 198.163,161.261 197.975,162.029 197.799,162.798 197.635,163.567 197.482,164.338 197.342,165.11 197.214,165.882 197.098,166.656 196.994,167.43 196.902,168.204 196.823,168.98 196.755,169.755 196.7,170.531 196.656,171.308 196.625,172.084 196.606,172.861 196.599,173.638 196.604,174.415 196.621,175.192 196.65,175.969 196.692,176.745 196.745,177.521 196.811,178.297 196.889,179.072 196.979,179.847 197.081,180.621 197.195,181.395 197.321,182.167 197.459,182.939 197.61,183.71 197.772,184.48 197.946,185.249 198.132,186.016 198.331,186.783 198.541,187.548 198.763,188.312 198.997,189.074 199.243,189.835 199.501,190.594 199.771,191.351 200.052,192.107 200.345,192.861 200.65,193.613 200.967,194.363 201.295,195.111 201.636,195.856 201.987,196.6 202.351,197.341 202.725,198.08 203.112,198.816 203.51,199.55 203.919,200.282 204.34,201.01 204.772,201.736 205.215,202.459 205.67,203.18 206.135,203.897 206.612,204.611 207.101,205.322 207.6,206.03 208.11,206.735 208.631,207.437 209.163,208.135 209.706,208.83 210.26,209.521 210.825,210.208 211.4,210.892 211.986,211.573 212.583,212.249 213.19,212.922 213.807,213.59 214.435,214.255 215.073,214.915 215.722,215.572 216.381,216.224 217.05,216.872 217.729,217.516 218.418,218.155 219.117,218.79 219.826,219.421 220.544,220.047 221.273,220.668 222.011,221.284 222.758,221.896 223.516,222.503 224.282,223.105 225.058,223.702 225.843,224.294 226.638,224.881 227.442,225.463 228.254,226.04 229.076,226.611 229.906,227.177 230.745,227.738 231.593,228.294 232.45,228.844 233.315,229.388 234.189,229.927 235.071,230.461 235.961,230.988 236.859,231.51 237.766,232.026 238.681,232.536 239.603,233.041 240.533,233.539 241.471,234.032 242.417,234.518 243.37,234.999 244.331,235.473 245.299,235.941 246.274,236.403 247.257,236.858 248.246,237.308 249.243,237.75 250.246,238.187 251.256,238.617 252.273,239.04 253.297,239.457 254.326,239.868 255.362,240.272 256.405,240.669 257.453,241.059 258.508,241.443 259.569,241.82 260.635,242.19 261.707,242.553 262.785,242.91 263.868,243.259 264.957,243.602 266.051,243.937 267.15,244.266 268.254,244.587 269.363,244.902 270.477,245.209 271.596,245.509 272.719,245.802 273.847,246.088 274.979,246.366 276.116,246.637 277.257,246.901 278.401,247.158 279.55,247.407 280.703,247.649 281.859,247.883 283.019,248.111 284.182,248.33 285.349,248.542 286.519,248.747 287.692,248.944 288.869,249.134 290.048,249.316 291.23,249.49 292.414,249.657 293.601,249.817 294.791,249.968 295.982,250.113 297.176,250.249 298.373,250.378 299.571,250.499 300.77,250.613 301.972,250.718 303.175,250.816 304.38,250.907 305.586,250.989 306.793,251.064 308.001,251.132 309.211,251.191 310.421,251.243 311.632,251.287 312.843,251.323 314.055,251.351 315.268,251.372 316.481,251.385 317.693,251.39" stroke="#000000" stroke-dasharray="1,3,1,3,1,3,1,3" stroke-linecap="butt" stroke-linejoin="round" stroke-width="0.6"/>
   <polyline fill="none" points="317.887,70.1133 316.27,70.1185 314.652,70.134 313.036,70.1599 311.42,70.1961 309.804,70.2427 308.189,70.2997 306.576,70.367 304.963,70.4446 303.352,70.5325 301.742,70.6308 300.134,70.7393 298.527,70.8582 296.923,70.9874 295.32,71.1268 293.72,71.2765 292.122,71.4364 290.527,71.6065 288.934,71.7869 287.345,71.9774 285.758,72.1781 284.175,72.389 282.595,72.61 281.019,72.8411 279.446,73.0823 277.877,73.3336 276.312,73.5948 274.752,73.8661 273.195,74.1474 271.643,74.4387 270.096,74.7398 268.553,75.0509 267.016,75.3718 265.483,75.7026 263.956,76.0431 262.434,76.3935 260.918,76.7535 259.407,77.1233 257.902,77.5027 256.404,77.8917 254.911,78.2903 253.425,78.6985 251.945,79.1161 250.471,79.5432 249.005,79.9797 247.545,80.4256 246.092,80.8809 244.647,81.3454 243.209,81.8191 241.778,82.302 240.355,82.7941 238.94,83.2953 237.532,83.8055 236.133,84.3246 234.742,84.8528 233.359,85.3898 231.985,85.9356 230.619,86.4902 229.262,87.0536 227.913,87.6256 226.574,88.2062 225.244,88.7953 223.923,89.393 222.612,89.9991 221.31,90.6135 220.017,91.2363 218.735,91.8673 217.462,92.5065 216.2,93.1538 214.948,93.8092 213.705,94.4725 212.474,95.1438 211.253,95.8229 210.042,96.5098 208.843,97.2045 207.654,97.9068 206.476,98.6166 205.309,99.334 204.154,100.059 203.01,100.791 201.878,101.53 200.757,102.277 199.648,103.031 198.55,103.792 197.465,104.56 196.392,105.335 195.33,106.116 194.281,106.905 193.245,107.7 192.221,108.501 191.209,109.309 190.21,110.124 189.224,110.945 188.251,111.772 187.29,112.606 186.343,113.445 185.409,114.291 184.488,115.142 183.581,116 182.687,116.863 181.806,117.732 180.939,118.606 180.086,119.486 179.246,120.372 178.421,121.262 177.609,122.158 176.812,123.059 176.028,123.966 175.259,124.877 174.504,125.793 173.763,126.713 173.037,127.639 172.325,128.569 171.627,129.504 170.945,130.443 170.277,131.386 169.624,132.334 168.985,133.285 168.362,134.241 167.753,135.201 167.16,136.165 166.581,137.132 166.018,138.103 165.47,139.077 164.937,140.055 164.419,141.037 163.917,142.021 163.43,143.009 162.959,144 162.503,144.994 162.063,145.991 161.638,146.99 161.229,147.992 160.835,148.997 160.457,150.004 160.095,151.014 159.749,152.026 159.418,153.04 159.104,154.056 158.805,155.074 158.522,156.094 158.255,157.115 158.004,158.139 157.77,159.164 157.551,160.19 157.348,161.218 157.161,162.246 156.99,163.277 156.835,164.308 156.697,165.34 156.574,166.373 156.468,167.406 156.378,168.44 156.304,169.475 156.246,170.51 156.204,171.546 156.179,172.582 156.169,173.618 156.176,174.653 156.199,175.689 156.238,176.725 156.294,177.76 156.365,178.795 156.453,179.829 156.556,180.863 156.676,181.896 156.812,182.928 156.964,183.959 157.133,184.99 157.317,186.019 157.517,187.047 157.734,188.073 157.966,189.098 158.214,190.122 158.479,191.144 158.759,192.164 159.055,193.182 159.367,194.199 159.695,195.213 160.039,196.225 160.399,197.235 160.774,198.243 161.165,199.248 161.572,200.25 161.994,201.25 162.432,202.247 162.885,203.242 163.354,204.233 163.838,205.221 164.338,206.207 164.853,207.189 165.384,208.167 165.93,209.142 166.491,210.114 167.067,211.082 167.658,212.046 168.264,213.006 168.885,213.963 169.521,214.915 170.172,215.863 170.837,216.807 171.518,217.747 172.213,218.682 172.922,219.613 173.646,220.539 174.385,221.461 175.137,222.378 175.905,223.29 176.686,224.197 177.481,225.099 178.291,225.995 179.114,226.887 179.951,227.773 180.802,228.654 181.667,229.529 182.546,230.399 183.437,231.263 184.343,232.121 185.262,232.974 186.194,233.82 187.139,234.661 188.097,235.495 189.068,236.324 190.052,237.146 191.049,237.961 192.059,238.77 193.081,239.573 194.115,240.369 195.162,241.159 196.222,241.941 197.293,242.717 198.377,243.486 199.472,244.248 200.579,245.003 201.698,245.751 202.829,246.492 203.971,247.225 205.125,247.951 206.29,248.67 207.465,249.381 208.652,250.084 209.85,250.78 211.059,251.468 212.279,252.149 213.509,252.821 214.749,253.486 216,254.142 217.261,254.791 218.532,255.431 219.813,256.064 221.103,256.688 222.404,257.304 223.714,257.911 225.033,258.51 226.362,259.101 227.699,259.683 229.046,260.256 230.402,260.821 231.766,261.377 233.14,261.924 234.521,262.462 235.911,262.992 237.309,263.512 238.715,264.024 240.129,264.527 241.551,265.02 242.981,265.505 244.418,265.98 245.862,266.446 247.313,266.902 248.772,267.35 250.237,267.788 251.71,268.216 253.188,268.636 254.674,269.045 256.165,269.445 257.663,269.836 259.167,270.217 260.677,270.588 262.192,270.95 263.713,271.302 265.24,271.644 266.771,271.976 268.308,272.299 269.85,272.611 271.396,272.914 272.948,273.207 274.503,273.49 276.063,273.763 277.628,274.026 279.196,274.278 280.768,274.521 282.344,274.754 283.923,274.977 285.506,275.189 287.092,275.391 288.681,275.583 290.273,275.765 291.868,275.937 293.465,276.099 295.065,276.25 296.667,276.391 298.271,276.522 299.878,276.642 301.486,276.753 303.095,276.853 304.706,276.942 306.319,277.021 307.932,277.09 309.547,277.149 311.162,277.197 312.778,277.235 314.395,277.263 316.012,277.28 317.629,277.287" stroke="#000000" stroke-dasharray="1,3,1,3,1,3,1,3" stroke-linecap="butt" stroke-linejoin="round" stroke-width="0.6"/>
   <polyline fill="none" points="317.887,44.2166 315.865,44.2231 313.844,44.2425 311.823,44.2749 309.803,44.3202 307.784,44.3784 305.765,44.4496 303.748,44.5337 301.732,44.6307 299.718,44.7407 297.706,44.8635 295.695,44.9992 293.687,45.1478 291.682,45.3092 289.678,45.4835 287.678,45.6706 285.681,45.8705 283.687,46.0831 281.696,46.3086 279.709,46.5468 277.726,46.7976 275.747,47.0612 273.772,47.3375 271.802,47.6264 269.836,47.9279 267.875,48.2419 265.919,48.5685 263.968,48.9077 262.022,49.2593 260.082,49.6233 258.148,49.9998 256.22,50.3886 254.298,50.7898 252.382,51.2032 250.473,51.6289 248.571,52.0668 246.676,52.5169 244.787,52.9791 242.906,53.4534 241.033,53.9396 239.167,54.4379 237.309,54.9481 235.459,55.4702 233.618,56.004 231.784,56.5497 229.96,57.1071 228.144,57.6761 226.337,58.2567 224.539,58.8489 222.751,59.4525 220.972,60.0676 219.203,60.6941 217.444,61.3318 215.695,61.9808 213.956,62.641 212.227,63.3122 210.509,63.9945 208.802,64.6878 207.105,65.392 205.42,66.107 203.746,66.8328 202.083,67.5692 200.432,68.3163 198.793,69.0739 197.166,69.8419 195.55,70.6204 193.947,71.4091 192.356,72.2081 190.778,73.0172 189.213,73.8365 187.66,74.6656 186.121,75.5047 184.594,76.3536 183.081,77.2123 181.582,78.0806 180.096,78.9584 178.623,79.8458 177.165,80.7425 175.721,81.6485 174.291,82.5637 172.875,83.488 171.474,84.4214 170.088,85.3637 168.716,86.3148 167.359,87.2747 166.018,88.2431 164.691,89.2202 163.38,90.2057 162.084,91.1995 160.804,92.2016 159.54,93.2118 158.291,94.2301 157.058,95.2563 155.842,96.2904 154.641,97.3322 153.457,98.3817 152.29,99.4387 151.139,100.503 150.004,101.575 148.887,102.654 147.786,103.74 146.702,104.833 145.636,105.933 144.586,107.04 143.554,108.153 142.54,109.273 141.543,110.399 140.563,111.532 139.602,112.671 138.658,113.816 137.732,114.967 136.824,116.124 135.934,117.286 135.063,118.455 134.209,119.628 133.374,120.808 132.558,121.992 131.76,123.182 130.981,124.377 130.22,125.576 129.478,126.781 128.755,127.99 128.051,129.204 127.366,130.422 126.699,131.644 126.052,132.871 125.425,134.102 124.816,135.337 124.227,136.575 123.657,137.817 123.106,139.063 122.575,140.313 122.064,141.565 121.572,142.821 121.1,144.08 120.647,145.342 120.214,146.607 119.801,147.875 119.408,149.145 119.035,150.417 118.681,151.692 118.348,152.969 118.034,154.248 117.74,155.529 117.467,156.812 117.213,158.097 116.979,159.383 116.766,160.671 116.573,161.96 116.399,163.25 116.246,164.541 116.113,165.833 116.001,167.126 115.908,168.419 115.836,169.713 115.784,171.007 115.752,172.302 115.74,173.597 115.748,174.892 115.777,176.186 115.826,177.481 115.895,178.775 115.985,180.068 116.094,181.361 116.224,182.654 116.374,183.945 116.544,185.235 116.734,186.524 116.944,187.812 117.174,189.098 117.425,190.383 117.695,191.666 117.986,192.948 118.296,194.227 118.627,195.505 118.977,196.78 119.347,198.053 119.737,199.323 120.147,200.591 120.577,201.856 121.026,203.119 121.496,204.378 121.984,205.635 122.493,206.888 123.021,208.138 123.568,209.384 124.135,210.627 124.721,211.866 125.326,213.102 125.951,214.333 126.595,215.561 127.258,216.784 127.94,218.003 128.641,219.217 129.362,220.427 130.1,221.632 130.858,222.833 131.635,224.028 132.43,225.219 133.243,226.404 134.075,227.584 134.926,228.759 135.794,229.928 136.681,231.092 137.586,232.249 138.509,233.401 139.45,234.547 140.409,235.687 141.386,236.821 142.38,237.948 143.392,239.069 144.421,240.184 145.467,241.291 146.531,242.392 147.612,243.487 148.71,244.574 149.825,245.654 150.957,246.727 152.105,247.792 153.27,248.85 154.452,249.901 155.649,250.944 156.864,251.979 158.094,253.007 159.34,254.027 160.602,255.038 161.879,256.041 163.173,257.037 164.481,258.023 165.805,259.002 167.145,259.972 168.499,260.933 169.868,261.885 171.253,262.829 172.651,263.764 174.065,264.69 175.492,265.606 176.934,266.514 178.39,267.412 179.86,268.301 181.344,269.18 182.841,270.05 184.352,270.91 185.877,271.761 187.414,272.601 188.965,273.432 190.528,274.253 192.104,275.064 193.693,275.864 195.294,276.655 196.907,277.435 198.533,278.205 200.17,278.964 201.82,279.713 203.48,280.451 205.153,281.178 206.836,281.895 208.531,282.601 210.236,283.296 211.953,283.98 213.68,284.653 215.417,285.315 217.165,285.966 218.922,286.605 220.69,287.233 222.467,287.85 224.254,288.456 226.05,289.05 227.856,289.632 229.67,290.203 231.493,290.762 233.325,291.31 235.165,291.846 237.014,292.37 238.871,292.882 240.735,293.382 242.607,293.87 244.487,294.346 246.374,294.81 248.269,295.262 250.17,295.702 252.078,296.13 253.993,296.545 255.913,296.948 257.841,297.339 259.774,297.718 261.713,298.084 263.658,298.437 265.608,298.778 267.563,299.107 269.523,299.423 271.488,299.726 273.458,300.017 275.432,300.296 277.411,300.561 279.393,300.814 281.38,301.054 283.37,301.282 285.363,301.497 287.36,301.698 289.36,301.888 291.362,302.064 293.368,302.227 295.375,302.378 297.385,302.516 299.397,302.641 301.411,302.753 303.427,302.852 305.444,302.938 307.462,303.011 309.481,303.071 311.501,303.119 313.522,303.153 315.543,303.175 317.565,303.183" stroke="#000000" stroke-dasharray="1,3,1,3,1,3,1,3" stroke-linecap="butt" stroke-linejoin="round" stroke-width="0.6"/>
   <polyline fill="none" points="239.269,26.7066 236.991,27.2147 234.708,27.7402 232.433,28.2803 230.167,28.8349 227.91,29.404 225.662,29.9876 223.423,30.5855 221.194,31.1977 218.974,31.8242 216.764,32.4648 214.564,33.1196 212.374,33.7885 210.195,34.4713 208.027,35.1681 205.87,35.8787 203.724,36.6031 201.589,37.3412 199.467,38.0929 197.355,38.8582 195.256,39.637 193.17,40.4292 191.095,41.2347 189.034,42.0534 186.985,42.8854 184.949,43.7304 182.927,44.5884 180.918,45.4593 178.923,46.343 176.941,47.2395 174.974,48.1486 173.021,49.0703 171.083,50.0045 169.159,50.951 167.25,51.9097 165.356,52.8807 163.478,53.8637 161.615,54.8588 159.767,55.8657 157.936,56.8844 156.12,57.9148 154.321,58.9567 152.537,60.0101 150.771,61.0749 149.021,62.151 147.288,63.2382 145.572,64.3365 143.873,65.4457 142.192,66.5657 140.528,67.6964 138.882,68.8378 137.254,69.9896 135.644,71.1518 134.052,72.3242 132.479,73.5068 130.924,74.6994 129.388,75.9019 127.87,77.1142 126.372,78.3361 124.893,79.5676 123.433,80.8085 121.992,82.0587 120.571,83.3181 119.17,84.5864 117.789,85.8637 116.428,87.1498 115.087,88.4445 113.766,89.7478 112.465,91.0594 111.186,92.3794 109.926,93.7074 108.688,95.0435 107.47,96.3874 106.274,97.739 105.099,99.0983 103.945,100.465 102.812,101.839 101.701,103.22 100.612,104.608 99.5438,106.004 98.4979,107.406 97.4739,108.814 96.4719,110.229 95.4921,111.651 94.5345,113.078 93.5993,114.512 92.6865,115.951 91.7962,117.397 90.9286,118.848 90.0836,120.304 89.2614,121.766 88.4621,123.233 87.6857,124.705 86.9323,126.182 86.202,127.664 85.4949,129.15 84.811,130.641 84.1505,132.136 83.5133,133.635 82.8995,135.138 82.3093,136.646 81.7426,138.156 81.1995,139.671 80.6801,141.188 80.1844,142.709 79.7124,144.234 79.2643,145.761 78.8401,147.29 78.4398,148.823 78.0634,150.358 77.7109,151.895 77.3825,153.435 77.0782,154.976 76.7979,156.52 76.5418,158.065 76.3097,159.611 76.1019,161.16 75.9182,162.709 75.7587,164.259 75.6234,165.811 75.5124,167.363 75.4256,168.916 75.363,170.469 75.3247,172.023 75.3106,173.576 75.3208,175.13 75.3553,176.684 75.414,178.237 75.4969,179.79 75.6041,181.342 75.7355,182.894 75.8912,184.444 76.071,185.994 76.275,187.542 76.5032,189.089 76.7555,190.634 77.032,192.178 77.3325,193.72 77.657,195.26 78.0056,196.797 78.3782,198.333 78.7747,199.866 79.1952,201.396 79.6395,202.923 80.1076,204.448 80.5995,205.969 81.1152,207.488 81.6545,209.003 82.2174,210.514 82.8039,212.022 83.414,213.526 84.0474,215.025 84.7043,216.521 85.3844,218.013 86.0878,219.5 86.8145,220.982 87.5641,222.46 88.3369,223.933 89.1325,225.401 89.9511,226.863 90.7925,228.321 91.6565,229.772 92.5432,231.219 93.4525,232.659 94.3841,234.094 95.3381,235.522 96.3144,236.945 97.3128,238.361 98.3333,239.771 99.3757,241.174 100.44,242.57 101.526,243.959 102.634,245.342 103.763,246.717 104.914,248.085 106.085,249.445 107.279,250.798 108.493,252.143 109.728,253.48 110.984,254.81 112.26,256.131 113.557,257.444 114.875,258.748 116.213,260.045 117.571,261.332 118.949,262.611 120.347,263.881 121.765,265.141 123.202,266.393 124.659,267.635 126.135,268.868 127.63,270.092 129.145,271.306 130.678,272.51 132.23,273.704 133.8,274.888 135.389,276.062 136.996,277.226 138.622,278.38 140.265,279.523 141.926,280.655 143.604,281.777 145.3,282.888 147.013,283.988 148.744,285.077 150.491,286.154 152.255,287.221 154.035,288.276 155.832,289.32 157.645,290.352 159.475,291.373 161.32,292.382 163.18,293.379 165.056,294.364 166.948,295.336 168.854,296.297 170.776,297.246 172.712,298.182 174.662,299.105 176.627,300.017 178.606,300.915 180.599,301.801 182.606,302.674 184.626,303.534 186.66,304.381 188.706,305.215 190.766,306.036 192.838,306.843 194.923,307.638 197.02,308.419 199.129,309.186 201.251,309.94 203.383,310.68 205.528,311.407 207.683,312.12 209.849,312.819 212.027,313.504 214.214,314.175 216.413,314.832 218.621,315.475 220.839,316.103 223.067,316.718 225.305,317.318 227.552,317.904 229.807,318.475 232.072,319.032 234.345,319.575 236.627,320.103 238.916,320.616 239.274,320.693" stroke="#000000" stroke-dasharray="1,3,1,3,1,3,1,3" stroke-linecap="butt" stroke-linejoin="round" stroke-width="0.6"/>
   <polyline fill="none" points="152.274,26.7066 151.155,27.2234 148.877,28.2987 146.616,29.3885 144.371,30.4928 142.144,31.6114 139.935,32.7441 137.743,33.891 135.57,35.0519 133.414,36.2266 131.277,37.4151 129.159,38.6172 127.059,39.8328 124.979,41.0618 122.918,42.3041 120.877,43.5595 118.855,44.8279 116.853,46.1092 114.871,47.4033 112.909,48.71 110.968,50.0291 109.048,51.3607 107.149,52.7045 105.27,54.0604 103.413,55.4283 101.577,56.808 99.7634,58.1993 97.9711,59.6022 96.2009,61.0166 94.4528,62.4422 92.727,63.8789 91.0238,65.3266 89.3433,66.7852 87.6856,68.2544 86.051,69.7342 84.4395,71.2243 82.8514,72.7248 81.2867,74.2353 79.7458,75.7558 78.2286,77.286 76.7354,78.8259 75.2664,80.3753 73.8215,81.9341 72.4012,83.502 71.0053,85.0789 69.6341,86.6646 68.2878,88.2591 66.9664,89.8622 65.6701,91.4736 64.399,93.0932 63.1533,94.7209 62.028,96.2292" stroke="#000000" stroke-dasharray="1,3,1,3,1,3,1,3" stroke-linecap="butt" stroke-linejoin="round" stroke-width="0.6"/>
   <polyline fill="none" points="62.028,251.168 62.9573,252.419 64.1989,254.048 65.466,255.669 66.7583,257.282 68.0757,258.886 69.418,260.482 70.7853,262.069 72.1772,263.648 73.5937,265.217 75.0346,266.777 76.4998,268.328 77.9892,269.869 79.5025,271.401 81.0397,272.923 82.6006,274.435 84.185,275.937 85.7928,277.429 87.4237,278.911 89.0778,280.382 90.7547,281.842 92.4543,283.291 94.1764,284.73 95.921,286.157 97.6877,287.573 99.4765,288.978 101.287,290.371 103.119,291.753 104.973,293.123 106.848,294.48 108.744,295.826 110.661,297.16 112.599,298.481 114.557,299.789 116.536,301.086 118.535,302.369 120.553,303.639 122.592,304.897 124.65,306.141 126.727,307.372 128.823,308.59 130.939,309.794 133.073,310.985 135.225,312.162 137.396,313.325 139.585,314.474 141.791,315.609 144.015,316.73 146.257,317.837 148.516,318.929 150.791,320.006 152.273,320.693" stroke="#000000" stroke-dasharray="1,3,1,3,1,3,1,3" stroke-linecap="butt" stroke-linejoin="round" stroke-width="0.6"/>
   <polyline fill="none" points="89.97,26.7066 88.1337,27.882 85.8687,29.3609 83.627,30.8542 81.4086,32.3619 79.214,33.8837 77.0431,35.4194 74.8964,36.969 72.774,38.5323 70.676,40.1091 68.6029,41.6992 66.5546,43.3026 64.5315,44.9189 62.5337,46.5482 62.028,46.9692" stroke="#000000" stroke-dasharray="1,3,1,3,1,3,1,3" stroke-linecap="butt" stroke-linejoin="round" stroke-width="0.6"/>
   <polyline fill="none" points="62.028,300.433 62.2178,300.591 64.2116,302.222 66.2307,303.841 68.275,305.446 70.3442,307.039 72.4382,308.617 74.5567,310.183 76.6996,311.735 78.8666,313.273 81.0575,314.797 83.2721,316.307 85.5101,317.802 87.7714,319.283 89.9672,320.693" stroke="#000000" stroke-dasharray="1,3,1,3,1,3,1,3" stroke-linecap="butt" stroke-linejoin="round" stroke-width="0.6"/>
   <g font-family="FreeSans" font-size="11.6513" font-style="normal" font-weight="normal" transform="translate(323.467,152.803) rotate(-0,-0,-5)" xml:space="preserve">
    <text fill="rgb(0,0,0)" x="0 3 " y="-0"> 2</text>
   </g>
   <g font-family="FreeSans" font-size="11.6513" font-style="normal" font-weight="normal" transform="translate(323.467,126.907) rotate(-0,-0,-5)" xml:space="preserve">
    <text fill="rgb(0,0,0)" x="0 3 " y="-0"> 4</text>
   </g>
   <g font-family="FreeSans" font-size="11.6513" font-style="normal" font-weight="normal" transform="translate(323.467,101.01) rotate(-0,-0,-5)" xml:space="preserve">
    <text fill="rgb(0,0,0)" x="0 3 " y="-0"> 6</text>
   </g>
   <g font-family="FreeSans" font-size="11.6513" font-style="normal" font-weight="normal" transform="translate(323.467,75.1133) rotate(-0,-0,-5)" xml:space="preserve">
    <text fill="rgb(0,0,0)" x="0 3 " y="-0"> 8</text>
   </g>
   <g font-family="FreeSans" font-size="11.6513" font-style="normal" font-weight="normal" transform="translate(323.467,49.2166) rotate(-0,-0,-5)" xml:space="preserve">
    <text fill="rgb(0,0,0)" x="0 6 " y="-0">10</text>
   </g>
   <g font-family="FreeSans" font-size="11.6513" font-style="normal" font-weight="normal" transform="translate(323.467,179.2) rotate(-0,-0,-5.5)" xml:space="preserve">
    <text fill="rgb(0,0,0)" x="0 6 9 13 19 26 29 " y="-1">0 rad/s</text>
   </g>
   <g font-family="FreeSans" font-size="11.6513" font-style="normal" font-weight="normal" transform="translate(323.467,204.597) rotate(-0,-0,-5)" xml:space="preserve">
    <text fill="rgb(0,0,0)" x="0 3 " y="-0"> 2</text>
   </g>
   <g font-family="FreeSans" font-size="11.6513" font-style="normal" font-weight="normal" transform="translate(323.467,230.493) rotate(-0,-0,-5)" xml:space="preserve">
    <text fill="rgb(0,0,0)" x="0 3 " y="-0"> 4</text>
   </g>
   <g font-family="FreeSans" font-size="11.6513" font-style="normal" font-weight="normal" transform="translate(323.467,256.39) rotate(-0,-0,-5)" xml:space="preserve">
    <text fill="rgb(0,0,0)" x="0 3 " y="-0"> 6</text>
   </g>
   <g font-family="FreeSans" font-size="11.6513" font-style="normal" font-weight="normal" transform="translate(323.467,282.287) rotate(-0,-0,-5)" xml:space="preserve">
    <text fill="rgb(0,0,0)" x="0 3 " y="-0"> 8</text>
   </g>
   <g font-family="FreeSans" font-size="11.6513" font-style="normal" font-weight="normal" transform="translate(323.467,308.183) rotate(-0,-0,-5)" xml:space="preserve">
    <text fill="rgb(0,0,0)" x="0 6 " y="-0">10</text>
   </g>
   <polyline fill="none" points="317.887,173.7 62.028,173.7" stroke="#000000" stroke-dasharray="1,3,1,3,1,3,1,3" stroke-linecap="butt" stroke-linejoin="round" stroke-width="0.6"/>
   <g font-family="FreeSans" font-size="11.6513" font-style="normal" font-weight="normal" transform="translate(67.98,178.7) rotate(-0,-0,-5)" xml:space="preserve">
    <text fill="rgb(0,0,0)" x="0 6 9 15 " y="-0">1.00</text>
   </g>
   <polyline fill="none" points="317.887,173.7 62.028,152.124" stroke="#000000" stroke-dasharray="1,3,1,3,1,3,1,3" stroke-linecap="butt" stroke-linejoin="round" stroke-width="0.6"/>
   <g font-family="FreeSans" font-size="11.6513" font-style="normal" font-weight="normal" transform="translate(67.98,157.626) rotate(-0,-0,-5)" xml:space="preserve">
    <text fill="rgb(0,0,0)" x="0 6 9 15 " y="-0">0.99</text>
   </g>
   <polyline fill="none" points="317.887,173.7 62.028,129.786" stroke="#000000" stroke-dasharray="1,3,1,3,1,3,1,3" stroke-linecap="butt" stroke-linejoin="round" stroke-width="0.6"/>
   <g font-family="FreeSans" font-size="11.6513" font-style="normal" font-weight="normal" transform="translate(67.98,135.808) rotate(-0,-0,-5)" xml:space="preserve">
    <text fill="rgb(0,0,0)" x="0 6 9 15 " y="-0">0.97</text>
   </g>
   <polyline fill="none" points="317.887,173.7 62.028,105.815" stroke="#000000" stroke-dasharray="1,3,1,3,1,3,1,3" stroke-linecap="butt" stroke-linejoin="round" stroke-width="0.6"/>
   <g font-family="FreeSans" font-size="11.6513" font-style="normal" font-weight="normal" transform="translate(67.98,112.395) rotate(-0,-0,-5)" xml:space="preserve">
    <text fill="rgb(0,0,0)" x="0 6 9 15 " y="-0">0.92</text>
   </g>
   <polyline fill="none" points="317.887,173.7 62.028,79.0792" stroke="#000000" stroke-dasharray="1,3,1,3,1,3,1,3" stroke-linecap="butt" stroke-linejoin="round" stroke-width="0.6"/>
   <g font-family="FreeSans" font-size="11.6513" font-style="normal" font-weight="normal" transform="translate(67.98,86.2803) rotate(-0,-0,-5)" xml:space="preserve">
    <text fill="rgb(0,0,0)" x="0 6 9 15 " y="-0">0.87</text>
   </g>
   <polyline fill="none" points="317.887,173.7 62.028,47.9442" stroke="#000000" stroke-dasharray="1,3,1,3,1,3,1,3" stroke-linecap="butt" stroke-linejoin="round" stroke-width="0.6"/>
   <g font-family="FreeSans" font-size="11.6513" font-style="normal" font-weight="normal" transform="translate(67.98,55.8697) rotate(-0,-0,-5)" xml:space="preserve">
    <text fill="rgb(0,0,0)" x="0 6 9 15 " y="-0">0.79</text>
   </g>
   <polyline fill="none" points="317.887,173.7 88.4037,26.7066" stroke="#000000" stroke-dasharray="1,3,1,3,1,3,1,3" stroke-linecap="butt" stroke-linejoin="round" stroke-width="0.6"/>
   <g font-family="FreeSans" font-size="11.6513" font-style="normal" font-weight="normal" transform="translate(95.7325,36.401) rotate(-0,-0,-5)" xml:space="preserve">
    <text fill="rgb(0,0,0)" x="0 6 9 15 " y="-0">0.71</text>
   </g>
   <polyline fill="none" points="317.887,173.7 141.798,26.7066" stroke="#000000" stroke-dasharray="1,3,1,3,1,3,1,3" stroke-linecap="butt" stroke-linejoin="round" stroke-width="0.6"/>
   <g font-family="FreeSans" font-size="11.6513" font-style="normal" font-weight="normal" transform="translate(147.422,36.401) rotate(-0,-0,-5)" xml:space="preserve">
    <text fill="rgb(0,0,0)" x="0 6 9 15 " y="-0">0.61</text>
   </g>
   <polyline fill="none" points="317.887,173.7 185.395,26.7066" stroke="#000000" stroke-dasharray="1,3,1,3,1,3,1,3" stroke-linecap="butt" stroke-linejoin="round" stroke-width="0.6"/>
   <g font-family="FreeSans" font-size="11.6513" font-style="normal" font-weight="normal" transform="translate(189.626,36.401) rotate(-0,-0,-5)" xml:space="preserve">
    <text fill="rgb(0,0,0)" x="0 6 9 15 " y="-0">0.50</text>
   </g>
   <polyline fill="none" points="317.887,173.7 222.832,26.7066" stroke="#000000" stroke-dasharray="1,3,1,3,1,3,1,3" stroke-linecap="butt" stroke-linejoin="round" stroke-width="0.6"/>
   <g font-family="FreeSans" font-size="11.6513" font-style="normal" font-weight="normal" transform="translate(225.867,36.401) rotate(-0,-0,-5)" xml:space="preserve">
    <text fill="rgb(0,0,0)" x="0 6 9 15 " y="-0">0.38</text>
   </g>
   <polyline fill="none" points="317.887,173.7 256.397,26.7066" stroke="#000000" stroke-dasharray="1,3,1,3,1,3,1,3" stroke-linecap="butt" stroke-linejoin="round" stroke-width="0.6"/>
   <g font-family="FreeSans" font-size="11.6513" font-style="normal" font-weight="normal" transform="translate(258.361,36.401) rotate(-0,-0,-5)" xml:space="preserve">
    <text fill="rgb(0,0,0)" x="0 6 9 15 " y="-0">0.26</text>
   </g>
   <polyline fill="none" points="317.887,173.7 287.675,26.7066" stroke="#000000" stroke-dasharray="1,3,1,3,1,3,1,3" stroke-linecap="butt" stroke-linejoin="round" stroke-width="0.6"/>
   <g font-family="FreeSans" font-size="11.6513" font-style="normal" font-weight="normal" transform="translate(288.639,36.401) rotate(-0,-0,-5)" xml:space="preserve">
    <text fill="rgb(0,0,0)" x="0 6 9 15 " y="-0">0.13</text>
   </g>
   <polyline fill="none" points="317.887,173.7 317.887,26.7066" stroke="#000000" stroke-dasharray="1,3,1,3,1,3,1,3" stroke-linecap="butt" stroke-linejoin="round" stroke-width="0.6"/>
   <g font-family="FreeSans" font-size="11.6513" font-style="normal" font-weight="normal" transform="translate(317.887,320.999) rotate(-0,-0,-5)" xml:space="preserve">
    <text fill="rgb(0,0,0)" x="0 6 9 15 " y="-0">0.00</text>
   </g>
   <polyline fill="none" points="317.887,173.7 62.028,195.276" stroke="#000000" stroke-dasharray="1,3,1,3,1,3,1,3" stroke-linecap="butt" stroke-linejoin="round" stroke-width="0.6"/>
   <g font-family="FreeSans" font-size="11.6513" font-style="normal" font-weight="normal" transform="translate(67.98,199.774) rotate(-0,-0,-5)" xml:space="preserve">
    <text fill="rgb(0,0,0)" x="0 6 9 15 " y="-0">0.99</text>
   </g>
   <polyline fill="none" points="317.887,173.7 62.028,217.614" stroke="#000000" stroke-dasharray="1,3,1,3,1,3,1,3" stroke-linecap="butt" stroke-linejoin="round" stroke-width="0.6"/>
   <g font-family="FreeSans" font-size="11.6513" font-style="normal" font-weight="normal" transform="translate(67.98,221.592) rotate(-0,-0,-5)" xml:space="preserve">
    <text fill="rgb(0,0,0)" x="0 6 9 15 " y="-0">0.97</text>
   </g>
   <polyline fill="none" points="317.887,173.7 62.028,241.585" stroke="#000000" stroke-dasharray="1,3,1,3,1,3,1,3" stroke-linecap="butt" stroke-linejoin="round" stroke-width="0.6"/>
   <g font-family="FreeSans" font-size="11.6513" font-style="normal" font-weight="normal" transform="translate(67.98,245.005) rotate(-0,-0,-5)" xml:space="preserve">
    <text fill="rgb(0,0,0)" x="0 6 9 15 " y="-0">0.92</text>
   </g>
   <polyline fill="none" points="317.887,173.7 62.028,268.321" stroke="#000000" stroke-dasharray="1,3,1,3,1,3,1,3" stroke-linecap="butt" stroke-linejoin="round" stroke-width="0.6"/>
   <g font-family="FreeSans" font-size="11.6513" font-style="normal" font-weight="normal" transform="translate(67.98,271.12) rotate(-0,-0,-5)" xml:space="preserve">
    <text fill="rgb(0,0,0)" x="0 6 9 15 " y="-0">0.87</text>
   </g>
   <polyline fill="none" points="317.887,173.7 62.028,299.456" stroke="#000000" stroke-dasharray="1,3,1,3,1,3,1,3" stroke-linecap="butt" stroke-linejoin="round" stroke-width="0.6"/>
   <g font-family="FreeSans" font-size="11.6513" font-style="normal" font-weight="normal" transform="translate(67.98,301.53) rotate(-0,-0,-5)" xml:space="preserve">
    <text fill="rgb(0,0,0)" x="0 6 9 15 " y="-0">0.79</text>
   </g>
   <polyline fill="none" points="317.887,173.7 88.4037,320.693" stroke="#000000" stroke-dasharray="1,3,1,3,1,3,1,3" stroke-linecap="butt" stroke-linejoin="round" stroke-width="0.6"/>
   <g font-family="FreeSans" font-size="11.6513" font-style="normal" font-weight="normal" transform="translate(95.7325,320.999) rotate(-0,-0,-5)" xml:space="preserve">
    <text fill="rgb(0,0,0)" x="0 6 9 15 " y="-0">0.71</text>
   </g>
   <polyline fill="none" points="317.887,173.7 141.798,320.693" stroke="#000000" stroke-dasharray="1,3,1,3,1,3,1,3" stroke-linecap="butt" stroke-linejoin="round" stroke-width="0.6"/>
   <g font-family="FreeSans" font-size="11.6513" font-style="normal" font-weight="normal" transform="translate(147.422,320.999) rotate(-0,-0,-5)" xml:space="preserve">
    <text fill="rgb(0,0,0)" x="0 6 9 15 " y="-0">0.61</text>
   </g>
   <polyline fill="none" points="317.887,173.7 185.395,320.693" stroke="#000000" stroke-dasharray="1,3,1,3,1,3,1,3" stroke-linecap="butt" stroke-linejoin="round" stroke-width="0.6"/>
   <g font-family="FreeSans" font-size="11.6513" font-style="normal" font-weight="normal" transform="translate(189.626,320.999) rotate(-0,-0,-5)" xml:space="preserve">
    <text fill="rgb(0,0,0)" x="0 6 9 15 " y="-0">0.50</text>
   </g>
   <polyline fill="none" points="317.887,173.7 222.832,320.693" stroke="#000000" stroke-dasharray="1,3,1,3,1,3,1,3" stroke-linecap="butt" stroke-linejoin="round" stroke-width="0.6"/>
   <g font-family="FreeSans" font-size="11.6513" font-style="normal" font-weight="normal" transform="translate(225.867,320.999) rotate(-0,-0,-5)" xml:space="preserve">
    <text fill="rgb(0,0,0)" x="0 6 9 15 " y="-0">0.38</text>
   </g>
   <polyline fill="none" points="317.887,173.7 256.397,320.693" stroke="#000000" stroke-dasharray="1,3,1,3,1,3,1,3" stroke-linecap="butt" stroke-linejoin="round" stroke-width="0.6"/>
   <g font-family="FreeSans" font-size="11.6513" font-style="normal" font-weight="normal" transform="translate(258.361,320.999) rotate(-0,-0,-5)" xml:space="preserve">
    <text fill="rgb(0,0,0)" x="0 6 9 15 " y="-0">0.26</text>
   </g>
   <polyline fill="none" points="317.887,173.7 287.675,320.693" stroke="#000000" stroke-dasharray="1,3,1,3,1,3,1,3" stroke-linecap="butt" stroke-linejoin="round" stroke-width="0.6"/>
   <g font-family="FreeSans" font-size="11.6513" font-style="normal" font-weight="normal" transform="translate(288.639,320.999) rotate(-0,-0,-5)" xml:space="preserve">
    <text fill="rgb(0,0,0)" x="0 6 9 15 " y="-0">0.13</text>
   </g>
   <polyline fill="none" points="317.887,173.7 317.887,320.693" stroke="#000000" stroke-dasharray="1,3,1,3,1,3,1,3" stroke-linecap="butt" stroke-linejoin="round" stroke-width="0.6"/>
   <g font-family="FreeSans" font-size="11.6513" font-style="normal" font-weight="normal" transform="translate(317.887,320.999) rotate(-0,-0,-5)" xml:space="preserve">
    <text fill="rgb(0,0,0)" x="0 6 9 15 " y="-0">0.00</text>
   </g>
   <polyline fill="none" points="317.887,173.7 317.887,26.7066" stroke="#000000" stroke-linecap="butt" stroke-linejoin="round" stroke-width="0.3"/>
   <polyline fill="none" points="317.887,173.7 317.887,320.693" stroke="#000000" stroke-linecap="butt" stroke-linejoin="round" stroke-width="0.3"/>
  </g>
  <clipPath id="cp00480360">
   <polygon points="0,360 480,360 480,0 0,0"/>
  </clipPath>
  <g clip-path="url(#cp00480360)">
   <polygon fill="#ffffff" points="319.347,97.8368 426.389,97.8368 426.389,35.0105 319.347,35.0105" shape-rendering="crispEdges"/>
   <polyline fill="none" points="319.347,97.8368 426.389,97.8368" stroke="#262626" stroke-dasharray="16,0" stroke-linecap="square" stroke-linejoin="miter" stroke-width="0.5"/>
   <polyline fill="none" points="319.347,35.0105 426.389,35.0105" stroke="#262626" stroke-dasharray="16,0" stroke-linecap="square" stroke-linejoin="miter" stroke-width="0.5"/>
   <polyline fill="none" points="319.347,97.8368 319.347,35.0105" stroke="#262626" stroke-dasharray="16,0" stroke-linecap="square" stroke-linejoin="miter" stroke-width="0.5"/>
   <polyline fill="none" points="426.389,97.8368 426.389,35.0105" stroke="#262626" stroke-dasharray="16,0" stroke-linecap="square" stroke-linejoin="miter" stroke-width="0.5"/>
   <polyline fill="none" points="323.353,44.5158 343.379,44.5158" stroke="#000000" stroke-dasharray="9,7" stroke-linecap="butt" stroke-linejoin="round" stroke-width="0.5"/>
   <g font-family="FreeSans" font-size="10.4862" font-style="normal" font-weight="normal" transform="translate(347.384,50.0158) rotate(-0,-0,-5.5)" xml:space="preserve">
    <text fill="rgb(0,0,0)" x="0 6 11 16 25 31 34 40 43 49 " y="-3">asymptotes</text>
   </g>
   <polyline fill="none" points="323.353,59.0211 343.379,59.0211" stroke="#0000ff" stroke-linecap="butt" stroke-linejoin="round" stroke-width="2"/>
   <g font-family="FreeSans" font-size="10.4862" font-style="normal" font-weight="normal" transform="translate(347.384,64.0211) rotate(-0,-0,-5)" xml:space="preserve">
    <text fill="rgb(0,0,0)" x="0 2 8 13 19 " y="-1">locus</text>
   </g>
   <polyline fill="none" points="329.366,70.0263 337.366,78.0263" stroke="#bf0000" stroke-linecap="square" stroke-linejoin="miter" stroke-width="2"/>
   <polyline fill="none" points="329.366,78.0263 337.366,70.0263" stroke="#bf0000" stroke-linecap="square" stroke-linejoin="miter" stroke-width="2"/>
   <g font-family="FreeSans" font-size="10.4862" font-style="normal" font-weight="normal" transform="translate(347.384,80.0263) rotate(-0,-0,-6)" xml:space="preserve">
    <text fill="rgb(0,0,0)" x="0 6 12 18 24 27 29 35 41 47 50 56 62 64 70 " y="-3">open loop poles</text>
   </g>
   <polyline fill="none" points="337.366,88.9316 336.97,90.6671 335.86,92.0589 334.256,92.8313 332.476,92.8313 330.872,92.0589 329.762,90.6671 329.366,88.9316 329.762,87.196 330.872,85.8043 332.476,85.0319 334.256,85.0319 335.86,85.8043 336.97,87.196 337.366,88.9316" stroke="#00bf00" stroke-linecap="round" stroke-linejoin="round" stroke-width="2"/>
   <g font-family="FreeSans" font-size="10.4862" font-style="normal" font-weight="normal" transform="translate(347.384,92.4316) rotate(-0,-0,-3.5)" xml:space="preserve">
    <text fill="rgb(0,0,0)" x="0 5 11 14 20 " y="-0">zeros</text>
   </g>
  </g>
 </g>
</svg>
