<?xml version='1.0' encoding='UTF-8' standalone='no'?>
<svg height="314pt" viewBox="0 0 418 314" width="418pt" xmlns="http://www.w3.org/2000/svg" xmlns:xlink="http://www.w3.org/1999/xlink">
 <title>Figure 1</title>
 <desc>
Creator: GL2PS 1.4.2, (C) 1999-2020 C. Geuzaine
For: Octave
CreationDate: Sun Feb  8 20:56:09 2026
</desc>
 <defs/>
 <polygon fill="#ffffff" points="0,0 418,0 418,314 0,314"/>
 <g>
  <polygon fill="#ffffff" points="0,314 418,314 418,0 0,0" shape-rendering="crispEdges"/>
  <clipPath id="cp00418314">
   <polygon points="0,314 418,314 418,0 0,0"/>
  </clipPath>
  <g clip-path="url(#cp00418314)">
   <polygon fill="#ffffff" points="54.4343,279.499 378.946,279.499 378.946,23.5533 54.4343,23.5533" shape-rendering="crispEdges"/>
   <polyline fill="none" points="87.3785,279.499 87.3785,23.5533" stroke="#262626" stroke-dasharray="16,0" stroke-linecap="butt" stroke-linejoin="miter" stroke-opacity="0.15" stroke-width="0.5"/>
   <polyline fill="none" points="135.971,279.499 135.971,23.5533" stroke="#262626" stroke-dasharray="16,0" stroke-linecap="butt" stroke-linejoin="miter" stroke-opacity="0.15" stroke-width="0.5"/>
   <polyline fill="none" points="184.563,279.499 184.563,23.5533" stroke="#262626" stroke-dasharray="16,0" stroke-linecap="butt" stroke-linejoin="miter" stroke-opacity="0.15" stroke-width="0.5"/>
   <polyline fill="none" points="233.156,279.499 233.156,23.5533" stroke="#262626" stroke-dasharray="16,0" stroke-linecap="butt" stroke-linejoin="miter" stroke-opacity="0.15" stroke-width="0.5"/>
   <polyline fill="none" points="281.748,279.499 281.748,23.5533" stroke="#262626" stroke-dasharray="16,0" stroke-linecap="butt" stroke-linejoin="miter" stroke-opacity="0.15" stroke-width="0.5"/>
   <polyline fill="none" points="330.341,279.499 330.341,23.5533" stroke="#262626" stroke-dasharray="16,0" stroke-linecap="butt" stroke-linejoin="miter" stroke-opacity="0.15" stroke-width="0.5"/>
   <polyline fill="none" points="378.933,279.499 378.933,23.5533" stroke="#262626" stroke-dasharray="16,0" stroke-linecap="butt" stroke-linejoin="miter" stroke-opacity="0.15" stroke-width="0.5"/>
   <polyline fill="none" points="87.3785,279.499 87.3785,276.255" stroke="#262626" stroke-linecap="butt" stroke-linejoin="miter" stroke-width="0.5"/>
   <polyline fill="none" points="87.3785,23.5533 87.3785,26.7977" stroke="#262626" stroke-linecap="butt" stroke-linejoin="miter" stroke-width="0.5"/>
   <polyline fill="none" points="135.971,279.499 135.971,276.255" stroke="#262626" stroke-linecap="butt" stroke-linejoin="miter" stroke-width="0.5"/>
   <polyline fill="none" points="135.971,23.5533 135.971,26.7977" stroke="#262626" stroke-linecap="butt" stroke-linejoin="miter" stroke-width="0.5"/>
   <polyline fill="none" points="184.563,279.499 184.563,276.255" stroke="#262626" stroke-linecap="butt" stroke-linejoin="miter" stroke-width="0.5"/>
   <polyline fill="none" points="184.563,23.5533 184.563,26.7977" stroke="#262626" stroke-linecap="butt" stroke-linejoin="miter" stroke-width="0.5"/>
   <polyline fill="none" points="233.156,279.499 233.156,276.255" stroke="#262626" stroke-linecap="butt" stroke-linejoin="miter" stroke-width="0.5"/>
   <polyline fill="none" points="233.156,23.5533 233.156,26.7977" stroke="#262626" stroke-linecap="butt" stroke-linejoin="miter" stroke-width="0.5"/>
   <polyline fill="none" points="281.748,279.499 281.748,276.255" stroke="#262626" stroke-linecap="butt" stroke-linejoin="miter" stroke-width="0.5"/>
   <polyline fill="none" points="281.748,23.5533 281.748,26.7977" stroke="#262626" stroke-linecap="butt" stroke-linejoin="miter" stroke-width="0.5"/>
   <polyline fill="none" points="330.341,279.499 330.341,276.255" stroke="#262626" stroke-linecap="butt" stroke-linejoin="miter" stroke-width="0.5"/>
   <polyline fill="none" points="330.341,23.5533 330.341,26.7977" stroke="#262626" stroke-linecap="butt" stroke-linejoin="miter" stroke-width="0.5"/>
   <polyline fill="none" points="378.933,279.499 378.933,276.255" stroke="#262626" stroke-linecap="butt" stroke-linejoin="miter" stroke-width="0.5"/>
   <polyline fill="none" points="378.933,23.5533 378.933,26.7977" stroke="#262626" stroke-linecap="butt" stroke-linejoin="miter" stroke-width="0.5"/>
   <g font-family="FreeSans" font-size="10" font-style="normal" font-weight="normal" transform="translate(82.8785,294.998) rotate(-0,4.5,-8)" xml:space="preserve">
    <text fill="rgb(38,38,38)" x="0 3 " y="-0">-5</text>
   </g>
   <g font-family="FreeSans" font-size="10" font-style="normal" font-weight="normal" transform="translate(131.471,294.998) rotate(-0,4.5,-8)" xml:space="preserve">
    <text fill="rgb(38,38,38)" x="0 3 " y="-0">-4</text>
   </g>
   <g font-family="FreeSans" font-size="10" font-style="normal" font-weight="normal" transform="translate(180.063,294.998) rotate(-0,4.5,-8)" xml:space="preserve">
    <text fill="rgb(38,38,38)" x="0 3 " y="-0">-3</text>
   </g>
   <g font-family="FreeSans" font-size="10" font-style="normal" font-weight="normal" transform="translate(228.656,294.998) rotate(-0,4.5,-8)" xml:space="preserve">
    <text fill="rgb(38,38,38)" x="0 3 " y="-0">-2</text>
   </g>
   <g font-family="FreeSans" font-size="10" font-style="normal" font-weight="normal" transform="translate(277.248,294.998) rotate(-0,4.5,-8)" xml:space="preserve">
    <text fill="rgb(38,38,38)" x="0 3 " y="-0">-1</text>
   </g>
   <g font-family="FreeSans" font-size="10" font-style="normal" font-weight="normal" transform="translate(327.341,294.998) rotate(-0,3,-8)" xml:space="preserve">
    <text fill="rgb(38,38,38)" x="0 " y="-0">0</text>
   </g>
   <g font-family="FreeSans" font-size="10" font-style="normal" font-weight="normal" transform="translate(375.933,294.998) rotate(-0,3,-8)" xml:space="preserve">
    <text fill="rgb(38,38,38)" x="0 " y="-0">1</text>
   </g>
   <polyline fill="none" points="54.4343,218.928 378.946,218.928" stroke="#262626" stroke-dasharray="16,0" stroke-linecap="butt" stroke-linejoin="miter" stroke-opacity="0.15" stroke-width="0.5"/>
   <polyline fill="none" points="54.4343,151.526 378.946,151.526" stroke="#262626" stroke-dasharray="16,0" stroke-linecap="butt" stroke-linejoin="miter" stroke-opacity="0.15" stroke-width="0.5"/>
   <polyline fill="none" points="54.4343,84.1246 378.946,84.1246" stroke="#262626" stroke-dasharray="16,0" stroke-linecap="butt" stroke-linejoin="miter" stroke-opacity="0.15" stroke-width="0.5"/>
   <polyline fill="none" points="54.4343,218.928 57.6746,218.928" stroke="#262626" stroke-linecap="butt" stroke-linejoin="miter" stroke-width="0.5"/>
   <polyline fill="none" points="378.946,218.928 375.706,218.928" stroke="#262626" stroke-linecap="butt" stroke-linejoin="miter" stroke-width="0.5"/>
   <polyline fill="none" points="54.4343,151.526 57.6746,151.526" stroke="#262626" stroke-linecap="butt" stroke-linejoin="miter" stroke-width="0.5"/>
   <polyline fill="none" points="378.946,151.526 375.706,151.526" stroke="#262626" stroke-linecap="butt" stroke-linejoin="miter" stroke-width="0.5"/>
   <polyline fill="none" points="54.4343,84.1246 57.6746,84.1246" stroke="#262626" stroke-linecap="butt" stroke-linejoin="miter" stroke-width="0.5"/>
   <polyline fill="none" points="378.946,84.1246 375.706,84.1246" stroke="#262626" stroke-linecap="butt" stroke-linejoin="miter" stroke-width="0.5"/>
   <g font-family="FreeSans" font-size="10" font-style="normal" font-weight="normal" transform="translate(40.4418,222.928) rotate(-0,9,-4)" xml:space="preserve">
    <text fill="rgb(38,38,38)" x="0 3 " y="-0">-2</text>
   </g>
   <g font-family="FreeSans" font-size="10" font-style="normal" font-weight="normal" transform="translate(43.4418,155.526) rotate(-0,6,-4)" xml:space="preserve">
    <text fill="rgb(38,38,38)" x="0 " y="-0">0</text>
   </g>
   <g font-family="FreeSans" font-size="10" font-style="normal" font-weight="normal" transform="translate(43.4418,88.1246) rotate(-0,6,-4)" xml:space="preserve">
    <text fill="rgb(38,38,38)" x="0 " y="-0">2</text>
   </g>
   <polyline fill="none" points="54.4343,279.499 378.946,279.499" stroke="#262626" stroke-dasharray="16,0" stroke-linecap="square" stroke-linejoin="miter" stroke-width="0.5"/>
   <polyline fill="none" points="54.4343,23.5533 378.946,23.5533" stroke="#262626" stroke-dasharray="16,0" stroke-linecap="square" stroke-linejoin="miter" stroke-width="0.5"/>
   <polyline fill="none" points="54.4343,279.499 54.4343,23.5533" stroke="#262626" stroke-dasharray="16,0" stroke-linecap="square" stroke-linejoin="miter" stroke-width="0.5"/>
   <polyline fill="none" points="378.946,279.499 378.946,23.5533" stroke="#262626" stroke-dasharray="16,0" stroke-linecap="square" stroke-linejoin="miter" stroke-width="0.5"/>
   <g font-family="FreeSans" font-size="10" font-style="normal" font-weight="normal" transform="translate(196.19,308.998) rotate(-0,20.5,-9)" xml:space="preserve">
    <text fill="rgb(38,38,38)" x="0 7 12 17 19 22 29 34 36 " y="-0">Real Axis</text>
   </g>
   <g font-family="FreeSans" font-size="10" font-style="normal" font-weight="normal" transform="translate(3.4418,151.526) rotate(-90,32,0)" xml:space="preserve">
    <text fill="rgb(38,38,38)" x="0 3 11 16 22 24 29 34 37 42 45 52 57 59 " y="-2">Imaginary Axis</text>
   </g>
   <g font-family="FreeSans" font-size="10" font-style="normal" font-weight="bold" transform="translate(130.69,13.5533) rotate(-0,86,0)" xml:space="preserve">
    <text fill="rgb(0,0,0)" x="0 7 13 19 22 25 28 34 40 46 52 55 61 66 72 75 78 85 88 94 97 103 106 112 118 124 127 130 133 136 142 148 151 157 163 169 " y="-2">Root locus sys (K = 0.000 .. 66.593)</text>
   </g>
   <polyline fill="none" points="265.551,151.526 372.297,23.2973" stroke="#000000" stroke-dasharray="9,7" stroke-linecap="butt" stroke-linejoin="round" stroke-width="0.5"/>
   <polyline fill="none" points="265.551,151.526 54.1098,151.526" stroke="#000000" stroke-dasharray="9,7" stroke-linecap="butt" stroke-linejoin="round" stroke-width="0.5"/>
   <polyline fill="none" points="265.551,151.526 372.297,279.755" stroke="#000000" stroke-dasharray="9,7" stroke-linecap="butt" stroke-linejoin="round" stroke-width="0.5"/>
   <polyline fill="none" points="330.341,151.526 329.194,151.526 328.002,151.526 326.759,151.526 325.459,151.526 324.095,151.526 322.658,151.526 321.139,151.526 319.522,151.526 317.792,151.526 315.925,151.526 313.888,151.526 311.638,151.526 311.035,151.526 310.412,151.526 309.77,151.526 309.104,151.526 308.415,151.526 307.698,151.526 306.952,151.526 306.172,151.526 305.356,151.526 304.496,151.526 303.589,151.526 302.625,151.526 301.595,151.526 300.485,151.526 299.278,151.526 298.958,151.526 298.629,151.526 298.292,151.526 298.206,151.526 298.12,151.526 298.033,151.526 297.946,151.526 297.833,151.526 297.719,151.526 297.603,151.526 297.487,151.526 297.01,151.526 296.513,151.526 295.992,151.526 295.445,151.526 294.869,151.526 294.257,151.526 293.605,151.526 292.905,151.526 292.143,151.526 291.306,151.526 290.367,151.526 289.284,151.526 287.974,151.526 286.222,151.526 285.644,151.526 284.951,151.526 284.033,151.526 281.748,151.526 281.776,152.672 281.804,153.145 281.832,153.508 281.86,153.813 281.969,154.751 282.077,155.465 282.182,156.062 282.589,157.876 282.972,159.23 283.334,160.345 283.679,161.305 284.008,162.156 284.323,162.925 284.626,163.628 284.917,164.279 285.198,164.885 285.47,165.453 285.733,165.99 286.712,167.884 287.15,168.69 287.568,169.441 287.969,170.144 288.354,170.807 288.724,171.434 289.082,172.031 289.427,172.599 289.762,173.143 291.007,175.117 292.129,176.84 293.155,178.378 294.105,179.774 294.99,181.056 295.82,182.244 296.605,183.354 297.349,184.397 298.058,185.382 298.735,186.317 299.384,187.208 300.007,188.059 300.608,188.874 301.187,189.658 301.748,190.412 302.29,191.139 302.817,191.842 303.328,192.523 303.825,193.183 304.309,193.824 304.78,194.447 305.24,195.053 305.69,195.643 306.129,196.219 306.558,196.78 306.978,197.329 307.389,197.866 307.792,198.39 308.188,198.904 308.576,199.408 310.059,201.326 311.447,203.111 312.753,204.785 313.988,206.362 315.162,207.856 316.282,209.277 317.353,210.633 318.38,211.931 319.368,213.177 320.32,214.375 321.24,215.53 322.129,216.646 322.991,217.726 323.827,218.772 324.64,219.788 325.43,220.774 326.199,221.734 326.95,222.669 327.682,223.58 328.396,224.469 329.095,225.337 329.779,226.186 330.447,227.016 331.103,227.829 331.745,228.625 332.375,229.405 332.993,230.169 333.599,230.92 334.195,231.657 334.781,232.38 335.356,233.092 335.923,233.791 336.48,234.478 337.028,235.155 337.568,235.821 338.1,236.476 338.624,237.122 339.141,237.759 339.65,238.386 340.153,239.004 340.649,239.614 341.138,240.216 341.62,240.809 342.097,241.395 342.568,241.974 343.033,242.545 343.492,243.109 343.946,243.667 344.395,244.218 344.839,244.762 345.278,245.301 345.711,245.833 346.141,246.359 346.565,246.88 346.985,247.395 347.401,247.905 347.813,248.409 348.22,248.908 348.624,249.402 349.023,249.892 350.584,251.802 352.089,253.644 353.543,255.421 354.951,257.14 356.314,258.806 357.638,260.421 358.925,261.991 360.176,263.517 361.395,265.004 362.584,266.452 363.744,267.865" stroke="#0000ff" stroke-linecap="butt" stroke-linejoin="round" stroke-width="2"/>
   <polyline fill="none" points="233.156,185.227 233.729,184.43 234.325,183.595 234.947,182.718 235.597,181.794 236.279,180.815 236.997,179.774 237.757,178.658 238.565,177.454 239.43,176.143 240.364,174.696 241.382,173.074 242.507,171.216 242.809,170.703 243.12,170.166 243.441,169.604 243.774,169.011 244.119,168.385 244.477,167.721 244.85,167.011 245.24,166.247 245.648,165.419 246.078,164.511 246.532,163.501 247.013,162.355 247.529,161.018 248.083,159.38 248.687,157.163 248.847,156.427 249.011,155.545 249.18,154.38 249.223,154 249.266,153.548 249.309,152.958 249.353,151.526 251.751,151.526 252.783,151.526 253.592,151.526 254.286,151.526 256.514,151.526 258.322,151.526 259.925,151.526 261.411,151.526 262.825,151.526 264.198,151.526 265.551,151.526 266.904,151.526 268.276,151.526 269.69,151.526 271.176,151.526 272.78,151.526 274.587,151.526 276.815,151.526 277.51,151.526 278.319,151.526 279.35,151.526 281.748,151.526 281.776,150.381 281.804,149.907 281.832,149.545 281.86,149.24 281.969,148.302 282.077,147.588 282.182,146.991 282.589,145.177 282.972,143.822 283.334,142.708 283.679,141.747 284.008,140.896 284.323,140.128 284.626,139.424 284.917,138.774 285.198,138.168 285.47,137.599 285.733,137.063 286.712,135.168 287.15,134.362 287.568,133.611 287.969,132.908 288.354,132.245 288.724,131.618 289.082,131.022 289.427,130.453 289.762,129.909 291.007,127.936 292.129,126.213 293.155,124.674 294.105,123.279 294.99,121.997 295.82,120.809 296.605,119.699 297.349,118.656 298.058,117.67 298.735,116.735 299.384,115.845 300.007,114.994 300.608,114.178 301.187,113.395 301.748,112.641 302.29,111.913 302.817,111.21 303.328,110.529 303.825,109.869 304.309,109.229 304.78,108.606 305.24,108 305.69,107.41 306.129,106.834 306.558,106.272 306.978,105.723 307.389,105.187 307.792,104.662 308.188,104.148 308.576,103.645 310.059,101.727 311.447,99.9412 312.753,98.2677 313.988,96.6903 315.162,95.1962 316.282,93.7754 317.353,92.4195 318.38,91.1216 319.368,89.8759 320.32,88.6775 321.24,87.5222 322.129,86.4062 322.991,85.3264 323.827,84.2801 324.64,83.2647 325.43,82.2781 326.199,81.3183 326.95,80.3837 327.682,79.4725 328.396,78.5834 329.095,77.7151 329.779,76.8664 330.447,76.0363 331.103,75.2237 331.745,74.4279 332.375,73.6479 332.993,72.883 333.599,72.1324 334.195,71.3956 334.781,70.672 335.356,69.9608 335.923,69.2617 336.48,68.5741 337.028,67.8976 337.568,67.2317 338.1,66.576 338.624,65.9302 339.141,65.2939 339.65,64.6666 340.153,64.0482 340.649,63.4384 341.138,62.8367 341.62,62.2431 342.097,61.6571 342.568,61.0786 343.033,60.5073 343.492,59.943 343.946,59.3855 344.395,58.8346 344.839,58.2901 345.278,57.7518 345.711,57.2195 346.141,56.6932 346.565,56.1725 346.985,55.6575 347.401,55.1478 347.813,54.6435 348.22,54.1442 348.624,53.65 349.023,53.1607 350.584,51.2501 352.089,49.4089 353.543,47.6314 354.951,45.9121 356.314,44.2467 357.638,42.631 358.925,41.0615 360.176,39.5351 361.395,38.0489 362.584,36.6004 363.744,35.1872" stroke="#0000ff" stroke-linecap="butt" stroke-linejoin="round" stroke-width="2"/>
   <polyline fill="none" points="233.156,117.825 233.729,118.623 234.325,119.458 234.947,120.334 235.597,121.258 236.279,122.237 236.997,123.279 237.757,124.394 238.565,125.598 239.43,126.91 240.364,128.357 241.382,129.978 242.507,131.837 242.809,132.35 243.12,132.886 243.441,133.449 243.774,134.041 244.119,134.667 244.477,135.332 244.85,136.042 245.24,136.806 245.648,137.634 246.078,138.542 246.532,139.552 247.013,140.697 247.529,142.034 248.083,143.672 248.687,145.889 248.847,146.625 249.011,147.508 249.18,148.673 249.223,149.052 249.266,149.504 249.309,150.095 249.353,151.526 247.068,151.526 246.151,151.526 245.457,151.526 244.879,151.526 243.127,151.526 241.818,151.526 240.735,151.526 239.796,151.526 238.958,151.526 238.197,151.526 237.496,151.526 236.844,151.526 236.233,151.526 235.656,151.526 235.109,151.526 234.589,151.526 234.091,151.526 233.614,151.526 233.498,151.526 233.383,151.526 233.269,151.526 233.156,151.526 233.1,151.526 233.044,151.526 232.988,151.526 232.933,151.526 232.714,151.526 232.499,151.526 232.287,151.526 231.474,151.526 230.709,151.526 229.984,151.526 229.294,151.526 228.636,151.526 228.006,151.526 227.401,151.526 226.818,151.526 226.256,151.526 225.712,151.526 225.186,151.526 223.228,151.526 222.352,151.526 221.516,151.526 220.714,151.526 219.944,151.526 219.203,151.526 218.488,151.526 217.797,151.526 217.128,151.526 214.638,151.526 212.394,151.526 210.341,151.526 208.443,151.526 206.673,151.526 205.011,151.526 203.442,151.526 201.954,151.526 200.537,151.526 199.182,151.526 197.884,151.526 196.637,151.526 195.436,151.526 194.277,151.526 193.156,151.526 192.071,151.526 191.018,151.526 189.996,151.526 189.002,151.526 188.034,151.526 187.091,151.526 186.171,151.526 185.273,151.526 184.395,151.526 183.536,151.526 182.696,151.526 181.873,151.526 181.067,151.526 180.276,151.526 179.501,151.526 176.534,151.526 173.759,151.526 171.146,151.526 168.675,151.526 166.328,151.526 164.089,151.526 161.947,151.526 159.892,151.526 157.916,151.526 156.012,151.526 154.173,151.526 152.394,151.526 150.67,151.526 148.998,151.526 147.373,151.526 145.792,151.526 144.253,151.526 142.753,151.526 141.289,151.526 139.859,151.526 138.462,151.526 137.095,151.526 135.757,151.526 134.447,151.526 133.162,151.526 131.903,151.526 130.667,151.526 129.453,151.526 128.262,151.526 127.09,151.526 125.939,151.526 124.807,151.526 123.692,151.526 122.595,151.526 121.515,151.526 120.452,151.526 119.403,151.526 118.37,151.526 117.351,151.526 116.346,151.526 115.355,151.526 114.377,151.526 113.411,151.526 112.458,151.526 111.516,151.526 110.586,151.526 109.667,151.526 108.759,151.526 107.862,151.526 106.974,151.526 106.097,151.526 105.229,151.526 104.371,151.526 103.521,151.526 102.681,151.526 101.849,151.526 101.026,151.526 100.211,151.526 99.4043,151.526 98.6052,151.526 95.4834,151.526 92.4732,151.526 89.5651,151.526 86.7508,151.526 84.0231,151.526 81.3757,151.526 78.8028,151.526 76.2994,151.526 73.861,151.526 71.4836,151.526 69.1633,151.526" stroke="#0000ff" stroke-linecap="butt" stroke-linejoin="round" stroke-width="2"/>
   <polyline fill="none" points="228.156,112.825 238.156,122.825" stroke="#bf0000" stroke-linecap="square" stroke-linejoin="miter" stroke-width="2"/>
   <polyline fill="none" points="228.156,122.825 238.156,112.825" stroke="#bf0000" stroke-linecap="square" stroke-linejoin="miter" stroke-width="2"/>
   <polyline fill="none" points="228.156,180.227 238.156,190.227" stroke="#bf0000" stroke-linecap="square" stroke-linejoin="miter" stroke-width="2"/>
   <polyline fill="none" points="228.156,190.227 238.156,180.227" stroke="#bf0000" stroke-linecap="square" stroke-linejoin="miter" stroke-width="2"/>
   <polyline fill="none" points="325.341,146.526 335.341,156.526" stroke="#bf0000" stroke-linecap="square" stroke-linejoin="miter" stroke-width="2"/>
   <polyline fill="none" points="325.341,156.526 335.341,146.526" stroke="#bf0000" stroke-linecap="square" stroke-linejoin="miter" stroke-width="2"/>
   <polyline fill="none" points="330.341,117.825 329.855,117.827 329.369,117.832 328.883,117.841 328.397,117.852 327.912,117.868 327.427,117.886 326.942,117.908 326.457,117.933 325.973,117.962 325.489,117.994 325.006,118.029 324.523,118.068 324.041,118.11 323.56,118.155 323.079,118.204 322.599,118.256 322.12,118.311 321.641,118.37 321.163,118.432 320.687,118.497 320.211,118.566 319.736,118.638 319.263,118.713 318.79,118.791 318.319,118.873 317.848,118.958 317.379,119.046 316.912,119.138 316.445,119.233 315.98,119.331 315.517,119.432 315.055,119.536 314.594,119.644 314.136,119.755 313.678,119.869 313.223,119.986 312.769,120.106 312.317,120.229 311.866,120.356 311.418,120.486 310.971,120.619 310.526,120.754 310.084,120.893 309.643,121.035 309.204,121.18 308.768,121.329 308.334,121.48 307.902,121.634 307.472,121.791 307.044,121.951 306.619,122.114 306.196,122.28 305.775,122.449 305.357,122.621 304.942,122.795 304.529,122.973 304.118,123.153 303.711,123.337 303.306,123.523 302.903,123.712 302.504,123.903 302.107,124.098 301.713,124.295 301.321,124.495 300.933,124.698 300.548,124.903 300.165,125.111 299.786,125.321 299.41,125.535 299.036,125.75 298.666,125.969 298.299,126.19 297.936,126.413 297.575,126.639 297.218,126.868 296.864,127.099 296.514,127.332 296.166,127.568 295.823,127.806 295.482,128.047 295.146,128.29 294.812,128.535 294.483,128.782 294.157,129.032 293.834,129.284 293.515,129.539 293.2,129.795 292.888,130.054 292.581,130.315 292.277,130.577 291.977,130.842 291.68,131.11 291.388,131.379 291.099,131.65 290.815,131.923 290.534,132.198 290.257,132.475 289.985,132.754 289.716,133.035 289.451,133.318 289.191,133.602 288.935,133.888 288.682,134.176 288.434,134.466 288.19,134.758 287.951,135.051 287.715,135.346 287.484,135.642 287.257,135.94 287.035,136.24 286.816,136.541 286.602,136.843 286.393,137.147 286.188,137.453 285.987,137.76 285.791,138.068 285.599,138.378 285.412,138.689 285.229,139.001 285.051,139.314 284.877,139.629 284.707,139.945 284.543,140.262 284.383,140.58 284.227,140.9 284.076,141.22 283.93,141.541 283.788,141.864 283.651,142.187 283.519,142.511 283.391,142.836 283.268,143.163 283.15,143.489 283.037,143.817 282.928,144.146 282.824,144.475 282.724,144.805 282.63,145.135 282.54,145.466 282.455,145.798 282.375,146.131 282.3,146.464 282.229,146.797 282.163,147.131 282.102,147.465 282.046,147.8 281.995,148.135 281.948,148.471 281.907,148.806 281.87,149.142 281.838,149.479 281.811,149.815 281.789,150.152 281.771,150.489 281.759,150.825 281.751,151.162 281.748,151.499 281.75,151.836 281.757,152.173 281.769,152.51 281.785,152.847 281.807,153.184 281.833,153.52 281.864,153.857 281.9,154.193 281.941,154.528 281.987,154.864 282.038,155.199 282.093,155.534 282.153,155.868 282.218,156.202 282.288,156.536 282.363,156.869 282.442,157.201 282.526,157.533 282.615,157.865 282.709,158.195 282.808,158.525 282.911,158.855 283.019,159.183 283.132,159.511 283.249,159.838 283.371,160.164 283.498,160.489 283.63,160.814 283.766,161.137 283.907,161.46 284.053,161.781 284.203,162.102 284.358,162.421 284.517,162.74 284.681,163.057 284.849,163.373 285.023,163.688 285.2,164.002 285.382,164.314 285.569,164.625 285.76,164.935 285.956,165.244 286.156,165.551 286.36,165.856 286.569,166.161 286.782,166.464 287,166.765 287.221,167.065 287.448,167.363 287.678,167.66 287.913,167.955 288.152,168.248 288.395,168.54 288.643,168.83 288.894,169.118 289.15,169.405 289.41,169.69 289.674,169.973 289.942,170.254 290.214,170.533 290.49,170.81 290.77,171.086 291.054,171.359 291.342,171.631 291.633,171.9 291.929,172.168 292.229,172.433 292.532,172.696 292.839,172.957 293.15,173.216 293.465,173.473 293.783,173.728 294.105,173.98 294.43,174.23 294.76,174.478 295.092,174.724 295.429,174.967 295.768,175.208 296.112,175.447 296.458,175.683 296.808,175.917 297.161,176.148 297.518,176.377 297.878,176.603 298.241,176.827 298.608,177.049 298.977,177.267 299.35,177.484 299.726,177.697 300.105,177.908 300.487,178.117 300.871,178.322 301.259,178.525 301.65,178.726 302.044,178.923 302.44,179.118 302.839,179.31 303.241,179.5 303.646,179.686 304.053,179.87 304.463,180.051 304.876,180.229 305.291,180.404 305.709,180.576 306.129,180.746 306.551,180.912 306.976,181.076 307.403,181.236 307.833,181.394 308.265,181.548 308.699,181.7 309.135,181.849 309.573,181.994 310.013,182.137 310.456,182.276 310.9,182.413 311.346,182.546 311.795,182.676 312.245,182.803 312.697,182.927 313.15,183.048 313.606,183.165 314.063,183.28 314.521,183.391 314.982,183.499 315.443,183.604 315.907,183.706 316.371,183.804 316.837,183.9 317.305,183.992 317.774,184.081 318.244,184.166 318.715,184.248 319.187,184.327 319.661,184.403 320.135,184.475 320.611,184.545 321.087,184.61 321.565,184.673 322.043,184.732 322.522,184.788 323.002,184.841 323.483,184.89 323.965,184.936 324.447,184.978 324.929,185.017 325.412,185.053 325.896,185.086 326.38,185.115 326.865,185.141 327.349,185.163 327.835,185.182 328.32,185.198 328.806,185.21 329.291,185.219 329.777,185.225 330.263,185.227" stroke="#000000" stroke-dasharray="1,3,1,3,1,3,1,3" stroke-linecap="butt" stroke-linejoin="round" stroke-width="0.6"/>
   <polyline fill="none" points="330.341,95.5829 329.534,95.5857 328.727,95.5941 327.921,95.6081 327.115,95.6276 326.309,95.6528 325.504,95.6836 324.699,95.7199 323.894,95.7618 323.091,95.8093 322.288,95.8624 321.485,95.921 320.684,95.9852 319.884,96.0549 319.085,96.1302 318.286,96.2111 317.489,96.2975 316.694,96.3893 315.899,96.4867 315.107,96.5896 314.315,96.698 313.525,96.8119 312.737,96.9313 311.951,97.0561 311.167,97.1864 310.384,97.322 309.604,97.4632 308.825,97.6097 308.049,97.7616 307.275,97.9189 306.503,98.0815 305.733,98.2495 304.967,98.4228 304.202,98.6015 303.44,98.7854 302.681,98.9746 301.925,99.169 301.171,99.3687 300.421,99.5736 299.673,99.7837 298.929,99.999 298.187,100.219 297.449,100.445 296.714,100.676 295.983,100.911 295.255,101.152 294.53,101.398 293.809,101.649 293.092,101.905 292.378,102.166 291.668,102.431 290.962,102.702 290.26,102.978 289.562,103.258 288.869,103.543 288.179,103.833 287.493,104.128 286.812,104.427 286.135,104.732 285.463,105.041 284.795,105.354 284.131,105.672 283.472,105.995 282.818,106.322 282.169,106.654 281.524,106.991 280.884,107.331 280.25,107.677 279.62,108.026 278.995,108.38 278.376,108.738 277.761,109.101 277.152,109.468 276.549,109.839 275.95,110.214 275.357,110.593 274.77,110.976 274.188,111.364 273.612,111.755 273.041,112.151 272.476,112.55 271.917,112.953 271.364,113.361 270.816,113.771 270.275,114.186 269.74,114.605 269.21,115.027 268.687,115.452 268.17,115.882 267.659,116.315 267.155,116.751 266.656,117.191 266.165,117.635 265.679,118.081 265.2,118.532 264.728,118.985 264.262,119.442 263.802,119.901 263.35,120.365 262.904,120.831 262.465,121.3 262.032,121.772 261.607,122.247 261.188,122.726 260.776,123.207 260.371,123.69 259.973,124.177 259.583,124.666 259.199,125.159 258.822,125.653 258.453,126.151 258.09,126.65 257.735,127.153 257.388,127.657 257.047,128.165 256.714,128.674 256.388,129.186 256.07,129.7 255.759,130.216 255.455,130.734 255.159,131.255 254.871,131.777 254.59,132.302 254.316,132.828 254.05,133.356 253.792,133.886 253.542,134.418 253.299,134.951 253.064,135.486 252.836,136.023 252.617,136.561 252.405,137.101 252.201,137.642 252.004,138.185 251.816,138.729 251.635,139.274 251.463,139.821 251.298,140.368 251.141,140.917 250.992,141.467 250.851,142.018 250.718,142.569 250.593,143.122 250.475,143.676 250.366,144.23 250.265,144.785 250.172,145.341 250.087,145.897 250.009,146.454 249.94,147.011 249.879,147.569 249.826,148.127 249.781,148.686 249.744,149.245 249.715,149.804 249.695,150.363 249.682,150.922 249.677,151.482 249.681,152.041 249.692,152.6 249.712,153.16 249.739,153.719 249.775,154.278 249.818,154.836 249.87,155.395 249.93,155.953 249.998,156.51 250.074,157.067 250.158,157.623 250.25,158.179 250.349,158.734 250.457,159.289 250.573,159.842 250.697,160.395 250.829,160.947 250.969,161.498 251.117,162.048 251.272,162.597 251.436,163.145 251.607,163.691 251.787,164.237 251.974,164.781 252.169,165.324 252.372,165.865 252.582,166.405 252.801,166.944 253.027,167.481 253.261,168.016 253.502,168.55 253.752,169.082 254.009,169.612 254.273,170.141 254.546,170.667 254.825,171.192 255.113,171.715 255.407,172.235 255.71,172.754 256.02,173.271 256.337,173.785 256.661,174.297 256.993,174.807 257.333,175.314 257.679,175.82 258.033,176.322 258.395,176.822 258.763,177.32 259.138,177.815 259.521,178.308 259.911,178.798 260.307,179.285 260.711,179.769 261.122,180.25 261.539,180.729 261.964,181.205 262.395,181.678 262.833,182.147 263.278,182.614 263.73,183.077 264.188,183.538 264.653,183.995 265.124,184.449 265.602,184.9 266.087,185.347 266.578,185.791 267.075,186.231 267.578,186.668 268.088,187.102 268.604,187.532 269.127,187.958 269.655,188.381 270.189,188.8 270.73,189.215 271.276,189.627 271.829,190.034 272.387,190.438 272.951,190.838 273.52,191.234 274.096,191.626 274.677,192.015 275.263,192.399 275.855,192.778 276.453,193.154 277.056,193.526 277.664,193.893 278.278,194.257 278.896,194.616 279.52,194.97 280.149,195.32 280.783,195.666 281.422,196.008 282.066,196.345 282.714,196.677 283.368,197.005 284.026,197.329 284.689,197.648 285.356,197.962 286.028,198.272 286.704,198.577 287.384,198.877 288.069,199.173 288.758,199.463 289.452,199.749 290.149,200.031 290.85,200.307 291.556,200.578 292.265,200.845 292.978,201.106 293.695,201.363 294.415,201.615 295.139,201.861 295.867,202.103 296.598,202.34 297.332,202.571 298.07,202.797 298.81,203.019 299.554,203.235 300.302,203.446 301.052,203.651 301.805,203.852 302.561,204.047 303.319,204.237 304.081,204.422 304.845,204.602 305.611,204.776 306.38,204.945 307.152,205.108 307.925,205.266 308.701,205.419 309.479,205.566 310.26,205.708 311.042,205.845 311.826,205.976 312.612,206.102 313.4,206.222 314.189,206.337 314.98,206.446 315.773,206.55 316.567,206.648 317.363,206.741 318.159,206.828 318.957,206.91 319.756,206.986 320.557,207.057 321.358,207.122 322.16,207.181 322.963,207.235 323.766,207.283 324.571,207.326 325.375,207.363 326.181,207.395 326.986,207.421 327.793,207.442 328.599,207.457 329.405,207.466 330.212,207.469" stroke="#000000" stroke-dasharray="1,3,1,3,1,3,1,3" stroke-linecap="butt" stroke-linejoin="round" stroke-width="0.6"/>
   <polyline fill="none" points="330.341,76.3734 329.257,76.3772 328.173,76.3885 327.09,76.4073 326.007,76.4336 324.925,76.4674 323.843,76.5087 322.761,76.5575 321.681,76.6138 320.601,76.6776 319.522,76.7489 318.445,76.8277 317.368,76.9139 316.293,77.0076 315.219,77.1087 314.147,77.2173 313.077,77.3333 312.008,77.4568 310.941,77.5876 309.876,77.7259 308.812,77.8715 307.752,78.0245 306.693,78.1848 305.637,78.3525 304.583,78.5275 303.532,78.7097 302.483,78.8993 301.437,79.0962 300.394,79.3002 299.354,79.5115 298.318,79.73 297.284,79.9557 296.254,80.1885 295.227,80.4285 294.204,80.6756 293.184,80.9297 292.168,81.191 291.155,81.4592 290.147,81.7345 289.143,82.0167 288.143,82.3059 287.147,82.6021 286.155,82.905 285.168,83.2149 284.185,83.5316 283.207,83.8551 282.234,84.1854 281.265,84.5224 280.302,84.8661 279.343,85.2165 278.389,85.5735 277.441,85.937 276.498,86.3072 275.56,86.6839 274.628,87.067 273.702,87.4566 272.781,87.8526 271.865,88.255 270.956,88.6637 270.053,89.0787 269.155,89.5 268.264,89.9274 267.379,90.361 266.5,90.8007 265.628,91.2465 264.762,91.6983 263.903,92.1561 263.05,92.6198 262.204,93.0895 261.365,93.5649 260.532,94.0462 259.707,94.5332 258.889,95.0259 258.078,95.5243 257.274,96.0283 256.477,96.5378 255.688,97.0528 254.907,97.5732 254.132,98.0991 253.366,98.6303 252.607,99.1668 251.856,99.7085 251.113,100.255 250.377,100.807 249.65,101.365 248.931,101.927 248.22,102.494 247.517,103.066 246.822,103.643 246.136,104.224 245.458,104.811 244.789,105.402 244.128,105.997 243.476,106.597 242.833,107.202 242.198,107.811 241.572,108.425 240.955,109.042 240.347,109.664 239.748,110.291 239.158,110.921 238.577,111.555 238.005,112.194 237.443,112.836 236.889,113.482 236.346,114.132 235.811,114.786 235.286,115.444 234.771,116.105 234.265,116.769 233.768,117.437 233.282,118.109 232.805,118.783 232.337,119.462 231.88,120.143 231.432,120.827 230.995,121.515 230.567,122.205 230.149,122.899 229.741,123.595 229.344,124.294 228.956,124.996 228.579,125.7 228.211,126.407 227.854,127.117 227.508,127.829 227.171,128.543 226.845,129.26 226.529,129.979 226.223,130.7 225.928,131.423 225.644,132.148 225.37,132.875 225.106,133.604 224.853,134.335 224.61,135.067 224.378,135.801 224.157,136.537 223.946,137.274 223.746,138.013 223.556,138.753 223.377,139.494 223.209,140.236 223.052,140.98 222.905,141.725 222.769,142.47 222.644,143.217 222.529,143.964 222.426,144.712 222.333,145.461 222.251,146.21 222.18,146.96 222.119,147.71 222.07,148.461 222.031,149.212 222.003,149.963 221.986,150.715 221.979,151.466 221.984,152.218 221.999,152.969 222.026,153.721 222.063,154.472 222.111,155.223 222.169,155.973 222.239,156.723 222.319,157.472 222.41,158.221 222.512,158.969 222.625,159.717 222.748,160.464 222.883,161.209 223.028,161.954 223.183,162.698 223.35,163.44 223.527,164.182 223.715,164.922 223.913,165.661 224.122,166.398 224.342,167.134 224.572,167.868 224.813,168.601 225.065,169.332 225.327,170.061 225.599,170.789 225.882,171.514 226.176,172.238 226.48,172.959 226.794,173.678 227.118,174.395 227.453,175.11 227.798,175.822 228.154,176.532 228.52,177.24 228.895,177.945 229.281,178.647 229.677,179.346 230.084,180.043 230.5,180.737 230.926,181.428 231.362,182.116 231.808,182.801 232.264,183.483 232.73,184.161 233.205,184.837 233.69,185.509 234.185,186.177 234.689,186.842 235.203,187.504 235.727,188.162 236.26,188.816 236.802,189.467 237.354,190.114 237.915,190.757 238.485,191.396 239.065,192.031 239.653,192.662 240.251,193.289 240.858,193.911 241.473,194.53 242.098,195.144 242.731,195.754 243.373,196.359 244.024,196.96 244.683,197.556 245.351,198.148 246.028,198.735 246.713,199.318 247.406,199.895 248.107,200.468 248.817,201.036 249.535,201.599 250.261,202.157 250.995,202.709 251.737,203.257 252.487,203.8 253.245,204.337 254.01,204.869 254.783,205.396 255.563,205.917 256.351,206.433 257.147,206.943 257.949,207.448 258.759,207.948 259.576,208.441 260.401,208.929 261.232,209.411 262.07,209.888 262.915,210.358 263.766,210.823 264.625,211.282 265.489,211.734 266.361,212.181 267.239,212.622 268.123,213.056 269.013,213.485 269.909,213.907 270.812,214.323 271.72,214.733 272.634,215.136 273.555,215.533 274.48,215.924 275.412,216.308 276.348,216.686 277.291,217.057 278.238,217.422 279.191,217.78 280.149,218.131 281.111,218.476 282.079,218.814 283.052,219.145 284.029,219.47 285.011,219.788 285.998,220.099 286.989,220.403 287.984,220.7 288.983,220.99 289.987,221.273 290.995,221.55 292.006,221.819 293.022,222.082 294.041,222.337 295.064,222.585 296.09,222.826 297.12,223.06 298.153,223.287 299.189,223.507 300.229,223.719 301.271,223.924 302.316,224.122 303.364,224.313 304.415,224.496 305.469,224.673 306.525,224.841 307.583,225.003 308.643,225.157 309.706,225.304 310.771,225.443 311.838,225.575 312.906,225.7 313.977,225.817 315.049,225.927 316.122,226.029 317.197,226.124 318.273,226.212 319.351,226.292 320.429,226.364 321.509,226.429 322.589,226.487 323.671,226.537 324.752,226.579 325.835,226.614 326.918,226.642 328.001,226.661 329.084,226.674 330.168,226.679" stroke="#000000" stroke-dasharray="1,3,1,3,1,3,1,3" stroke-linecap="butt" stroke-linejoin="round" stroke-width="0.6"/>
   <g font-family="FreeSans" font-size="10" font-style="normal" font-weight="normal" transform="translate(335.208,121.825) rotate(-0,-0,-4)" xml:space="preserve">
    <text fill="rgb(0,0,0)" x="0 6 9 15 " y="-0">1.00</text>
   </g>
   <g font-family="FreeSans" font-size="10" font-style="normal" font-weight="normal" transform="translate(335.208,99.5829) rotate(-0,-0,-4)" xml:space="preserve">
    <text fill="rgb(0,0,0)" x="0 6 9 15 " y="-0">1.66</text>
   </g>
   <g font-family="FreeSans" font-size="10" font-style="normal" font-weight="normal" transform="translate(335.208,80.3734) rotate(-0,-0,-4)" xml:space="preserve">
    <text fill="rgb(0,0,0)" x="0 6 9 15 " y="-0">2.23</text>
   </g>
   <g font-family="FreeSans" font-size="10" font-style="normal" font-weight="normal" transform="translate(335.208,156.526) rotate(-0,-0,-5)" xml:space="preserve">
    <text fill="rgb(0,0,0)" x="0 6 9 12 17 23 26 " y="-1">0 rad/s</text>
   </g>
   <g font-family="FreeSans" font-size="10" font-style="normal" font-weight="normal" transform="translate(335.208,189.227) rotate(-0,-0,-4)" xml:space="preserve">
    <text fill="rgb(0,0,0)" x="0 6 9 15 " y="-0">1.00</text>
   </g>
   <g font-family="FreeSans" font-size="10" font-style="normal" font-weight="normal" transform="translate(335.208,211.47) rotate(-0,-0,-4)" xml:space="preserve">
    <text fill="rgb(0,0,0)" x="0 6 9 15 " y="-0">1.66</text>
   </g>
   <g font-family="FreeSans" font-size="10" font-style="normal" font-weight="normal" transform="translate(335.208,230.679) rotate(-0,-0,-4)" xml:space="preserve">
    <text fill="rgb(0,0,0)" x="0 6 9 15 " y="-0">2.23</text>
   </g>
   <polyline fill="none" points="330.341,151.526 223.594,23.2974" stroke="#000000" stroke-dasharray="1,3,1,3,1,3,1,3" stroke-linecap="butt" stroke-linejoin="round" stroke-width="0.6"/>
   <g font-family="FreeSans" font-size="10" font-style="normal" font-weight="normal" transform="translate(227.003,31.3925) rotate(-0,-0,-4)" xml:space="preserve">
    <text fill="rgb(0,0,0)" x="0 6 9 15 " y="-0">0.50</text>
   </g>
   <polyline fill="none" points="330.341,151.526 149.112,23.2974" stroke="#000000" stroke-dasharray="1,3,1,3,1,3,1,3" stroke-linecap="butt" stroke-linejoin="round" stroke-width="0.6"/>
   <g font-family="FreeSans" font-size="10" font-style="normal" font-weight="normal" transform="translate(154.9,31.3925) rotate(-0,-0,-4)" xml:space="preserve">
    <text fill="rgb(0,0,0)" x="0 6 9 15 " y="-0">0.70</text>
   </g>
   <polyline fill="none" points="330.341,151.526 54.1098,53.3783" stroke="#000000" stroke-dasharray="1,3,1,3,1,3,1,3" stroke-linecap="butt" stroke-linejoin="round" stroke-width="0.6"/>
   <g font-family="FreeSans" font-size="10" font-style="normal" font-weight="normal" transform="translate(59.302,59.2232) rotate(-0,-0,-4)" xml:space="preserve">
    <text fill="rgb(0,0,0)" x="0 6 9 15 " y="-0">0.89</text>
   </g>
   <polyline fill="none" points="330.341,151.526 223.594,279.755" stroke="#000000" stroke-dasharray="1,3,1,3,1,3,1,3" stroke-linecap="butt" stroke-linejoin="round" stroke-width="0.6"/>
   <g font-family="FreeSans" font-size="10" font-style="normal" font-weight="normal" transform="translate(227.003,279.66) rotate(-0,-0,-4)" xml:space="preserve">
    <text fill="rgb(0,0,0)" x="0 6 9 15 " y="-0">0.50</text>
   </g>
   <polyline fill="none" points="330.341,151.526 149.112,279.755" stroke="#000000" stroke-dasharray="1,3,1,3,1,3,1,3" stroke-linecap="butt" stroke-linejoin="round" stroke-width="0.6"/>
   <g font-family="FreeSans" font-size="10" font-style="normal" font-weight="normal" transform="translate(154.9,279.66) rotate(-0,-0,-4)" xml:space="preserve">
    <text fill="rgb(0,0,0)" x="0 6 9 15 " y="-0">0.70</text>
   </g>
   <polyline fill="none" points="330.341,151.526 54.1098,249.674" stroke="#000000" stroke-dasharray="1,3,1,3,1,3,1,3" stroke-linecap="butt" stroke-linejoin="round" stroke-width="0.6"/>
   <g font-family="FreeSans" font-size="10" font-style="normal" font-weight="normal" transform="translate(59.302,251.829) rotate(-0,-0,-4)" xml:space="preserve">
    <text fill="rgb(0,0,0)" x="0 6 9 15 " y="-0">0.89</text>
   </g>
   <polyline fill="none" points="330.341,151.526 330.341,23.2974" stroke="#000000" stroke-linecap="butt" stroke-linejoin="round" stroke-width="0.3"/>
   <polyline fill="none" points="330.341,151.526 330.341,279.755" stroke="#000000" stroke-linecap="butt" stroke-linejoin="round" stroke-width="0.3"/>
  </g>
  <clipPath id="cp00418314">
   <polygon points="0,314 418,314 418,0 0,0"/>
  </clipPath>
  <g clip-path="url(#cp00418314)">
   <polygon fill="#ffffff" points="270.894,78.5849 370.936,78.5849 370.936,31.5638 270.894,31.5638" shape-rendering="crispEdges"/>
   <polyline fill="none" points="270.894,78.5849 370.936,78.5849" stroke="#262626" stroke-dasharray="16,0" stroke-linecap="square" stroke-linejoin="miter" stroke-width="0.5"/>
   <polyline fill="none" points="270.894,31.5638 370.936,31.5638" stroke="#262626" stroke-dasharray="16,0" stroke-linecap="square" stroke-linejoin="miter" stroke-width="0.5"/>
   <polyline fill="none" points="270.894,78.5849 270.894,31.5638" stroke="#262626" stroke-dasharray="16,0" stroke-linecap="square" stroke-linejoin="miter" stroke-width="0.5"/>
   <polyline fill="none" points="370.936,78.5849 370.936,31.5638" stroke="#262626" stroke-dasharray="16,0" stroke-linecap="square" stroke-linejoin="miter" stroke-width="0.5"/>
   <polyline fill="none" points="274.899,40.5691 294.925,40.5691" stroke="#000000" stroke-dasharray="9,7" stroke-linecap="butt" stroke-linejoin="round" stroke-width="0.5"/>
   <g font-family="FreeSans" font-size="10" font-style="normal" font-weight="normal" transform="translate(298.931,45.5691) rotate(-0,-0,-5)" xml:space="preserve">
    <text fill="rgb(0,0,0)" x="0 5 10 15 23 29 32 37 40 45 " y="-2">asymptotes</text>
   </g>
   <polyline fill="none" points="274.899,54.5744 294.925,54.5744" stroke="#0000ff" stroke-linecap="butt" stroke-linejoin="round" stroke-width="2"/>
   <g font-family="FreeSans" font-size="10" font-style="normal" font-weight="normal" transform="translate(298.931,59.5744) rotate(-0,-0,-5)" xml:space="preserve">
    <text fill="rgb(0,0,0)" x="0 2 7 12 17 " y="-1">locus</text>
   </g>
   <polyline fill="none" points="280.912,65.0796 288.912,73.0796" stroke="#bf0000" stroke-linecap="square" stroke-linejoin="miter" stroke-width="2"/>
   <polyline fill="none" points="280.912,73.0796 288.912,65.0796" stroke="#bf0000" stroke-linecap="square" stroke-linejoin="miter" stroke-width="2"/>
   <g font-family="FreeSans" font-size="10" font-style="normal" font-weight="normal" transform="translate(298.931,74.5796) rotate(-0,-0,-5.5)" xml:space="preserve">
    <text fill="rgb(0,0,0)" x="0 5 11 16 21 24 26 31 36 42 45 51 56 58 63 " y="-2">open loop poles</text>
   </g>
  </g>
 </g>
</svg>
