<?xml version='1.0' encoding='UTF-8' standalone='no'?>
<svg height="314pt" viewBox="0 0 418 314" width="418pt" xmlns="http://www.w3.org/2000/svg" xmlns:xlink="http://www.w3.org/1999/xlink">
 <title>Figure 1</title>
 <desc>
Creator: GL2PS 1.4.2, (C) 1999-2020 C. Geuzaine
For: Octave
CreationDate: Sun Feb  8 20:56:08 2026
</desc>
 <defs/>
 <polygon fill="#ffffff" points="0,0 418,0 418,314 0,314"/>
 <g>
  <polygon fill="#ffffff" points="0,314 418,314 418,0 0,0" shape-rendering="crispEdges"/>
  <clipPath id="cp00418314">
   <polygon points="0,314 418,314 418,0 0,0"/>
  </clipPath>
  <g clip-path="url(#cp00418314)">
   <polygon fill="#ffffff" points="54.4343,279.499 378.946,279.499 378.946,23.5533 54.4343,23.5533" shape-rendering="crispEdges"/>
   <polyline fill="none" points="100.965,279.499 100.965,23.5533" stroke="#262626" stroke-dasharray="16,0" stroke-linecap="butt" stroke-linejoin="miter" stroke-opacity="0.15" stroke-width="0.5"/>
   <polyline fill="none" points="189.136,279.499 189.136,23.5533" stroke="#262626" stroke-dasharray="16,0" stroke-linecap="butt" stroke-linejoin="miter" stroke-opacity="0.15" stroke-width="0.5"/>
   <polyline fill="none" points="277.307,279.499 277.307,23.5533" stroke="#262626" stroke-dasharray="16,0" stroke-linecap="butt" stroke-linejoin="miter" stroke-opacity="0.15" stroke-width="0.5"/>
   <polyline fill="none" points="365.477,279.499 365.477,23.5533" stroke="#262626" stroke-dasharray="16,0" stroke-linecap="butt" stroke-linejoin="miter" stroke-opacity="0.15" stroke-width="0.5"/>
   <polyline fill="none" points="100.965,279.499 100.965,276.255" stroke="#262626" stroke-linecap="butt" stroke-linejoin="miter" stroke-width="0.5"/>
   <polyline fill="none" points="100.965,23.5533 100.965,26.7977" stroke="#262626" stroke-linecap="butt" stroke-linejoin="miter" stroke-width="0.5"/>
   <polyline fill="none" points="189.136,279.499 189.136,276.255" stroke="#262626" stroke-linecap="butt" stroke-linejoin="miter" stroke-width="0.5"/>
   <polyline fill="none" points="189.136,23.5533 189.136,26.7977" stroke="#262626" stroke-linecap="butt" stroke-linejoin="miter" stroke-width="0.5"/>
   <polyline fill="none" points="277.307,279.499 277.307,276.255" stroke="#262626" stroke-linecap="butt" stroke-linejoin="miter" stroke-width="0.5"/>
   <polyline fill="none" points="277.307,23.5533 277.307,26.7977" stroke="#262626" stroke-linecap="butt" stroke-linejoin="miter" stroke-width="0.5"/>
   <polyline fill="none" points="365.477,279.499 365.477,276.255" stroke="#262626" stroke-linecap="butt" stroke-linejoin="miter" stroke-width="0.5"/>
   <polyline fill="none" points="365.477,23.5533 365.477,26.7977" stroke="#262626" stroke-linecap="butt" stroke-linejoin="miter" stroke-width="0.5"/>
   <g font-family="FreeSans" font-size="10" font-style="normal" font-weight="normal" transform="translate(93.465,294.998) rotate(-0,7.5,-8)" xml:space="preserve">
    <text fill="rgb(38,38,38)" x="0 3 9 " y="-0">-10</text>
   </g>
   <g font-family="FreeSans" font-size="10" font-style="normal" font-weight="normal" transform="translate(184.636,294.998) rotate(-0,4.5,-8)" xml:space="preserve">
    <text fill="rgb(38,38,38)" x="0 3 " y="-0">-5</text>
   </g>
   <g font-family="FreeSans" font-size="10" font-style="normal" font-weight="normal" transform="translate(274.307,294.998) rotate(-0,3,-8)" xml:space="preserve">
    <text fill="rgb(38,38,38)" x="0 " y="-0">0</text>
   </g>
   <g font-family="FreeSans" font-size="10" font-style="normal" font-weight="normal" transform="translate(362.477,294.998) rotate(-0,3,-8)" xml:space="preserve">
    <text fill="rgb(38,38,38)" x="0 " y="-0">5</text>
   </g>
   <polyline fill="none" points="54.4343,264.48 378.946,264.48" stroke="#262626" stroke-dasharray="16,0" stroke-linecap="butt" stroke-linejoin="miter" stroke-opacity="0.15" stroke-width="0.5"/>
   <polyline fill="none" points="54.4343,208.003 378.946,208.003" stroke="#262626" stroke-dasharray="16,0" stroke-linecap="butt" stroke-linejoin="miter" stroke-opacity="0.15" stroke-width="0.5"/>
   <polyline fill="none" points="54.4343,151.526 378.946,151.526" stroke="#262626" stroke-dasharray="16,0" stroke-linecap="butt" stroke-linejoin="miter" stroke-opacity="0.15" stroke-width="0.5"/>
   <polyline fill="none" points="54.4343,95.0492 378.946,95.0492" stroke="#262626" stroke-dasharray="16,0" stroke-linecap="butt" stroke-linejoin="miter" stroke-opacity="0.15" stroke-width="0.5"/>
   <polyline fill="none" points="54.4343,38.5721 378.946,38.5721" stroke="#262626" stroke-dasharray="16,0" stroke-linecap="butt" stroke-linejoin="miter" stroke-opacity="0.15" stroke-width="0.5"/>
   <polyline fill="none" points="54.4343,264.48 57.6745,264.48" stroke="#262626" stroke-linecap="butt" stroke-linejoin="miter" stroke-width="0.5"/>
   <polyline fill="none" points="378.946,264.48 375.706,264.48" stroke="#262626" stroke-linecap="butt" stroke-linejoin="miter" stroke-width="0.5"/>
   <polyline fill="none" points="54.4343,208.003 57.6745,208.003" stroke="#262626" stroke-linecap="butt" stroke-linejoin="miter" stroke-width="0.5"/>
   <polyline fill="none" points="378.946,208.003 375.706,208.003" stroke="#262626" stroke-linecap="butt" stroke-linejoin="miter" stroke-width="0.5"/>
   <polyline fill="none" points="54.4343,151.526 57.6745,151.526" stroke="#262626" stroke-linecap="butt" stroke-linejoin="miter" stroke-width="0.5"/>
   <polyline fill="none" points="378.946,151.526 375.706,151.526" stroke="#262626" stroke-linecap="butt" stroke-linejoin="miter" stroke-width="0.5"/>
   <polyline fill="none" points="54.4343,95.0492 57.6745,95.0492" stroke="#262626" stroke-linecap="butt" stroke-linejoin="miter" stroke-width="0.5"/>
   <polyline fill="none" points="378.946,95.0492 375.706,95.0492" stroke="#262626" stroke-linecap="butt" stroke-linejoin="miter" stroke-width="0.5"/>
   <polyline fill="none" points="54.4343,38.5721 57.6745,38.5721" stroke="#262626" stroke-linecap="butt" stroke-linejoin="miter" stroke-width="0.5"/>
   <polyline fill="none" points="378.946,38.5721 375.706,38.5721" stroke="#262626" stroke-linecap="butt" stroke-linejoin="miter" stroke-width="0.5"/>
   <g font-family="FreeSans" font-size="10" font-style="normal" font-weight="normal" transform="translate(34.4418,268.48) rotate(-0,15,-4)" xml:space="preserve">
    <text fill="rgb(38,38,38)" x="0 3 9 " y="-0">-10</text>
   </g>
   <g font-family="FreeSans" font-size="10" font-style="normal" font-weight="normal" transform="translate(40.4418,212.003) rotate(-0,9,-4)" xml:space="preserve">
    <text fill="rgb(38,38,38)" x="0 3 " y="-0">-5</text>
   </g>
   <g font-family="FreeSans" font-size="10" font-style="normal" font-weight="normal" transform="translate(43.4418,155.526) rotate(-0,6,-4)" xml:space="preserve">
    <text fill="rgb(38,38,38)" x="0 " y="-0">0</text>
   </g>
   <g font-family="FreeSans" font-size="10" font-style="normal" font-weight="normal" transform="translate(43.4418,99.0492) rotate(-0,6,-4)" xml:space="preserve">
    <text fill="rgb(38,38,38)" x="0 " y="-0">5</text>
   </g>
   <g font-family="FreeSans" font-size="10" font-style="normal" font-weight="normal" transform="translate(37.4418,42.5721) rotate(-0,12,-4)" xml:space="preserve">
    <text fill="rgb(38,38,38)" x="0 6 " y="-0">10</text>
   </g>
   <polyline fill="none" points="54.4343,279.499 378.946,279.499" stroke="#262626" stroke-dasharray="16,0" stroke-linecap="square" stroke-linejoin="miter" stroke-width="0.5"/>
   <polyline fill="none" points="54.4343,23.5533 378.946,23.5533" stroke="#262626" stroke-dasharray="16,0" stroke-linecap="square" stroke-linejoin="miter" stroke-width="0.5"/>
   <polyline fill="none" points="54.4343,279.499 54.4343,23.5533" stroke="#262626" stroke-dasharray="16,0" stroke-linecap="square" stroke-linejoin="miter" stroke-width="0.5"/>
   <polyline fill="none" points="378.946,279.499 378.946,23.5533" stroke="#262626" stroke-dasharray="16,0" stroke-linecap="square" stroke-linejoin="miter" stroke-width="0.5"/>
   <g font-family="FreeSans" font-size="10" font-style="normal" font-weight="normal" transform="translate(196.19,308.998) rotate(-0,20.5,-9)" xml:space="preserve">
    <text fill="rgb(38,38,38)" x="0 7 12 17 19 22 29 34 36 " y="-0">Real Axis</text>
   </g>
   <g font-family="FreeSans" font-size="10" font-style="normal" font-weight="normal" transform="translate(-2.5582,151.526) rotate(-90,32,0)" xml:space="preserve">
    <text fill="rgb(38,38,38)" x="0 3 11 16 22 24 29 34 37 42 45 52 57 59 " y="-2">Imaginary Axis</text>
   </g>
   <g font-family="FreeSans" font-size="10" font-style="normal" font-weight="bold" transform="translate(124.69,13.5533) rotate(-0,92,0)" xml:space="preserve">
    <text fill="rgb(0,0,0)" x="0 7 13 19 22 25 28 34 40 46 52 55 61 66 72 75 78 85 88 94 97 103 106 112 118 124 127 130 133 136 142 148 154 160 163 169 175 181 " y="-2">Root locus sys (K = 0.000 .. 1565.458)</text>
   </g>
   <polyline fill="none" points="265.55,151.526 379.271,25.359" stroke="#000000" stroke-dasharray="9,7" stroke-linecap="butt" stroke-linejoin="round" stroke-width="0.5"/>
   <polyline fill="none" points="265.55,151.526 54.1098,151.526" stroke="#000000" stroke-dasharray="9,7" stroke-linecap="butt" stroke-linejoin="round" stroke-width="0.5"/>
   <polyline fill="none" points="265.55,151.526 379.271,277.693" stroke="#000000" stroke-dasharray="9,7" stroke-linecap="butt" stroke-linejoin="round" stroke-width="0.5"/>
   <polyline fill="none" points="259.672,151.526 260.723,151.526 262.002,151.526 263.717,151.526 264.283,151.526 264.961,151.526 265.855,151.526 268.059,151.526 267.996,153.699 267.933,154.605 267.869,155.305 267.805,155.898 267.547,157.76 267.283,159.226 267.014,160.497 266.741,161.651 266.462,162.728 266.177,163.753 265.888,164.744 265.595,165.715 265.299,166.675 265,167.636 264.704,168.607 264.415,169.6 264.143,170.628 263.906,171.704 263.738,172.845 263.698,174.06 263.877,175.334 264.355,176.596 265.099,177.747 265.981,178.739 266.892,179.587 267.78,180.323 268.626,180.976 269.426,181.565 270.182,182.106 270.897,182.607 271.575,183.077 273.981,184.721 276.019,186.115 277.797,187.345 279.379,188.457 280.81,189.477 282.119,190.425 283.328,191.312 284.453,192.149 285.507,192.942 286.525,193.718 287.487,194.458 288.399,195.167 289.267,195.848 290.096,196.504 290.889,197.137 291.65,197.749 292.382,198.341 293.088,198.916 293.769,199.475 294.427,200.018 295.065,200.548 295.683,201.064 296.283,201.567 296.867,202.059 297.435,202.54 297.988,203.01 298.527,203.471 299.053,203.922 299.566,204.364 301.51,206.053 303.302,207.63 304.967,209.112 305.747,209.811 306.502,210.492 307.236,211.155 307.416,211.319 307.595,211.481 307.772,211.642 307.948,211.803 308.129,211.967 308.308,212.13 308.486,212.293 308.662,212.454 309.357,213.09 310.034,213.712 310.693,214.32 311.012,214.615 311.328,214.907 311.639,215.196 311.947,215.482 313.146,216.599 314.295,217.675 315.399,218.714 316.462,219.719 317.487,220.693 318.478,221.638 319.438,222.556 320.367,223.449 321.27,224.319 322.147,225.167 323.001,225.994 323.832,226.802 324.643,227.592 325.433,228.365 326.206,229.121 326.961,229.862 327.699,230.588 328.422,231.301 329.129,232 329.823,232.686 330.503,233.36 331.171,234.023 331.826,234.674 332.469,235.315 333.101,235.946 333.723,236.567 334.334,237.178 334.935,237.781 335.526,238.374 336.109,238.959 336.682,239.536 337.248,240.105 337.805,240.667 338.354,241.221 338.895,241.768 339.429,242.308 339.956,242.842 340.476,243.369 340.989,243.89 341.496,244.405 341.997,244.913 342.491,245.417 342.98,245.914 343.462,246.406 343.94,246.893 344.411,247.375 344.878,247.851 345.339,248.323 345.796,248.79 346.247,249.252 346.694,249.71 347.136,250.164 347.574,250.613 348.007,251.058 348.436,251.499 350.112,253.223 351.726,254.888 353.285,256.5 354.793,258.062 356.253,259.577 357.67,261.05 359.046,262.483 360.384,263.879 361.687,265.24 362.957,266.568 364.196,267.865" stroke="#0000ff" stroke-linecap="butt" stroke-linejoin="round" stroke-width="2"/>
   <polyline fill="none" points="277.307,151.526 276.043,151.526 274.55,151.526 272.619,151.526 271.999,151.526 271.266,151.526 270.317,151.526 268.059,151.526 267.996,149.353 267.933,148.447 267.869,147.748 267.805,147.154 267.547,145.293 267.283,143.826 267.014,142.555 266.741,141.402 266.462,140.325 266.177,139.299 265.888,138.308 265.595,137.338 265.299,136.378 265,135.417 264.704,134.445 264.415,133.452 264.143,132.425 263.906,131.349 263.738,130.208 263.698,128.993 263.877,127.719 264.355,126.456 265.099,125.305 265.981,124.314 266.892,123.466 267.78,122.73 268.626,122.077 269.426,121.487 270.182,120.946 270.897,120.445 271.575,119.976 273.981,118.331 276.019,116.937 277.797,115.707 279.379,114.596 280.81,113.575 282.119,112.628 283.328,111.74 284.453,110.903 285.507,110.11 286.525,109.335 287.487,108.595 288.399,107.886 289.267,107.205 290.096,106.549 290.889,105.916 291.65,105.304 292.382,104.711 293.088,104.136 293.769,103.577 294.427,103.034 295.065,102.505 295.683,101.989 296.283,101.485 296.867,100.994 297.435,100.513 297.988,100.042 298.527,99.5819 299.053,99.1307 299.566,98.6883 301.51,96.9993 303.302,95.4225 304.967,93.9406 305.747,93.2414 306.502,92.5606 307.236,91.897 307.416,91.7337 307.595,91.5714 307.772,91.41 307.948,91.2496 308.129,91.0853 308.308,90.9221 308.486,90.7598 308.662,90.5985 309.357,89.9625 310.034,89.3408 310.693,88.7326 311.012,88.4377 311.328,88.1459 311.639,87.8569 311.947,87.5709 313.146,86.4539 314.295,85.3776 315.399,84.3384 316.462,83.3332 317.487,82.3593 318.478,81.4143 319.438,80.4962 320.367,79.6032 321.27,78.7334 322.147,77.8855 323.001,77.0582 323.832,76.2501 324.643,75.4603 325.433,74.6876 326.206,73.9312 326.961,73.1903 327.699,72.464 328.422,71.7517 329.129,71.0527 329.823,70.3664 330.503,69.6922 331.171,69.0295 331.826,68.378 332.469,67.7372 333.101,67.1065 333.723,66.4857 334.334,65.8742 334.935,65.2719 335.526,64.6783 336.109,64.0932 336.682,63.5162 337.248,62.9471 337.805,62.3855 338.354,61.8313 338.895,61.2842 339.429,60.744 339.956,60.2105 340.476,59.6834 340.989,59.1626 341.496,58.6479 341.997,58.139 342.491,57.636 342.98,57.1385 343.462,56.6464 343.94,56.1596 344.411,55.6779 344.878,55.2013 345.339,54.7295 345.796,54.2625 346.247,53.8001 346.694,53.3423 347.136,52.8888 347.574,52.4396 348.007,51.9947 348.436,51.5538 350.112,49.8297 351.726,48.1642 353.285,46.5527 354.793,44.9909 356.253,43.4752 357.67,42.0023 359.046,40.5692 360.384,39.1734 361.687,37.8125 362.957,36.4844 364.196,35.1872" stroke="#0000ff" stroke-linecap="butt" stroke-linejoin="round" stroke-width="2"/>
   <polyline fill="none" points="242.038,190.655 242.145,190.525 242.252,190.394 242.36,190.261 242.387,190.227 242.414,190.194 242.441,190.16 242.469,190.126 242.532,190.048 242.595,189.969 242.659,189.889 242.723,189.809 242.981,189.481 243.245,189.141 243.513,188.788 243.787,188.42 244.066,188.037 244.35,187.635 244.639,187.213 244.933,186.767 245.229,186.293 245.527,185.788 245.824,185.245 246.113,184.657 246.385,184.014 246.622,183.303 246.79,182.511 246.83,181.63 246.65,180.676 246.172,179.721 245.428,178.866 244.547,178.159 243.636,177.587 242.748,177.118 241.902,176.723 241.101,176.383 240.346,176.085 239.631,175.819 238.953,175.578 236.547,174.789 234.509,174.169 232.731,173.645 231.149,173.182 229.718,172.76 228.409,172.367 227.2,171.995 226.075,171.64 225.021,171.297 224.002,170.954 223.041,170.619 222.128,170.29 221.26,169.965 220.432,169.643 219.639,169.324 218.877,169.006 218.145,168.689 217.44,168.371 216.759,168.054 216.1,167.735 215.463,167.414 214.845,167.091 214.244,166.766 213.661,166.437 213.093,166.105 212.54,165.769 212.001,165.428 211.475,165.082 210.961,164.73 209.017,163.25 207.226,161.607 205.561,159.692 204.781,158.58 204.025,157.272 203.292,155.579 203.112,155.034 202.933,154.389 202.756,153.549 202.579,151.526 199.197,151.526 197.694,151.526 196.502,151.526 195.472,151.526 192.148,151.526 189.467,151.526 187.128,151.526 186.063,151.526 185.043,151.526 184.062,151.526 183.117,151.526 179.614,151.526 176.452,151.526 173.544,151.526 170.835,151.526 168.29,151.526 165.882,151.526 163.591,151.526 161.404,151.526 159.308,151.526 157.292,151.526 155.35,151.526 153.475,151.526 151.66,151.526 149.9,151.526 148.193,151.526 146.532,151.526 144.916,151.526 143.342,151.526 141.806,151.526 140.306,151.526 138.841,151.526 137.408,151.526 136.005,151.526 134.632,151.526 133.285,151.526 131.965,151.526 130.67,151.526 129.398,151.526 128.149,151.526 126.921,151.526 125.714,151.526 124.527,151.526 123.359,151.526 122.209,151.526 121.076,151.526 119.961,151.526 118.862,151.526 117.778,151.526 116.71,151.526 115.656,151.526 114.616,151.526 113.59,151.526 112.578,151.526 111.578,151.526 110.59,151.526 109.614,151.526 108.651,151.526 107.698,151.526 106.756,151.526 105.825,151.526 104.905,151.526 103.994,151.526 103.093,151.526 102.202,151.526 101.32,151.526 97.8815,151.526 94.5738,151.526 91.3857,151.526 88.3068,151.526 85.3282,151.526 82.4421,151.526 79.6417,151.526 76.921,151.526 74.2744,151.526 71.6971,151.526 69.1848,151.526" stroke="#0000ff" stroke-linecap="butt" stroke-linejoin="round" stroke-width="2"/>
   <polyline fill="none" points="242.038,112.398 242.145,112.527 242.252,112.659 242.36,112.792 242.387,112.825 242.414,112.859 242.441,112.893 242.469,112.926 242.532,113.005 242.595,113.084 242.659,113.163 242.723,113.244 242.981,113.572 243.245,113.912 243.513,114.265 243.787,114.632 244.066,115.016 244.35,115.418 244.639,115.84 244.933,116.286 245.229,116.759 245.527,117.264 245.824,117.807 246.113,118.395 246.385,119.039 246.622,119.75 246.79,120.541 246.83,121.423 246.65,122.377 246.172,123.332 245.428,124.187 244.547,124.893 243.636,125.465 242.748,125.935 241.902,126.33 241.101,126.67 240.346,126.968 239.631,127.234 238.953,127.474 236.547,128.263 234.509,128.883 232.731,129.407 231.149,129.871 229.718,130.293 228.409,130.686 227.2,131.057 226.075,131.413 225.021,131.756 224.002,132.099 223.041,132.434 222.128,132.763 221.26,133.088 220.432,133.409 219.639,133.729 218.877,134.047 218.145,134.364 217.44,134.681 216.759,134.999 216.1,135.318 215.463,135.639 214.845,135.961 214.244,136.287 213.661,136.615 213.093,136.947 212.54,137.283 212.001,137.624 211.475,137.97 210.961,138.322 209.017,139.802 207.226,141.446 205.561,143.361 204.781,144.472 204.025,145.781 203.292,147.473 203.112,148.018 202.933,148.663 202.756,149.503 202.579,151.526 205.601,151.526 206.746,151.526 207.582,151.526 208.259,151.526 210.193,151.526 211.521,151.526 212.541,151.526 212.968,151.526 213.357,151.526 213.714,151.526 214.044,151.526 215.149,151.526 216.013,151.526 216.713,151.526 217.296,151.526 217.791,151.526 218.217,151.526 218.589,151.526 218.917,151.526 219.208,151.526 219.469,151.526 219.704,151.526 219.917,151.526 220.111,151.526 220.288,151.526 220.451,151.526 220.602,151.526 220.741,151.526 220.87,151.526 220.991,151.526 221.103,151.526 221.208,151.526 221.306,151.526 221.399,151.526 221.486,151.526 221.568,151.526 221.645,151.526 221.719,151.526 221.788,151.526 221.854,151.526 221.917,151.526 221.977,151.526 222.034,151.526 222.088,151.526 222.14,151.526 222.189,151.526 222.237,151.526 222.282,151.526 222.326,151.526 222.367,151.526 222.407,151.526 222.446,151.526 222.483,151.526 222.519,151.526 222.553,151.526 222.586,151.526 222.618,151.526 222.649,151.526 222.679,151.526 222.708,151.526 222.736,151.526 222.763,151.526 222.789,151.526 222.814,151.526 222.838,151.526 222.862,151.526 222.95,151.526 223.029,151.526 223.1,151.526 223.163,151.526 223.221,151.526 223.274,151.526 223.322,151.526 223.366,151.526 223.407,151.526 223.444,151.526 223.479,151.526" stroke="#0000ff" stroke-linecap="butt" stroke-linejoin="round" stroke-width="2"/>
   <polyline fill="none" points="237.038,107.398 247.038,117.398" stroke="#bf0000" stroke-linecap="square" stroke-linejoin="miter" stroke-width="2"/>
   <polyline fill="none" points="237.038,117.398 247.038,107.398" stroke="#bf0000" stroke-linecap="square" stroke-linejoin="miter" stroke-width="2"/>
   <polyline fill="none" points="237.038,185.655 247.038,195.655" stroke="#bf0000" stroke-linecap="square" stroke-linejoin="miter" stroke-width="2"/>
   <polyline fill="none" points="237.038,195.655 247.038,185.655" stroke="#bf0000" stroke-linecap="square" stroke-linejoin="miter" stroke-width="2"/>
   <polyline fill="none" points="254.672,146.526 264.672,156.526" stroke="#bf0000" stroke-linecap="square" stroke-linejoin="miter" stroke-width="2"/>
   <polyline fill="none" points="254.672,156.526 264.672,146.526" stroke="#bf0000" stroke-linecap="square" stroke-linejoin="miter" stroke-width="2"/>
   <polyline fill="none" points="272.307,146.526 282.307,156.526" stroke="#bf0000" stroke-linecap="square" stroke-linejoin="miter" stroke-width="2"/>
   <polyline fill="none" points="272.307,156.526 282.307,146.526" stroke="#bf0000" stroke-linecap="square" stroke-linejoin="miter" stroke-width="2"/>
   <polyline fill="none" points="229.404,151.526 228.909,153.696 227.522,155.435 225.517,156.401 223.292,156.401 221.287,155.435 219.899,153.696 219.404,151.526 219.899,149.357 221.287,147.617 223.292,146.652 225.517,146.652 227.522,147.617 228.909,149.357 229.404,151.526" stroke="#00bf00" stroke-linecap="round" stroke-linejoin="round" stroke-width="2"/>
   <polyline fill="none" points="277.307,128.935 276.954,128.937 276.601,128.94 276.249,128.946 275.896,128.953 275.544,128.964 275.192,128.976 274.84,128.991 274.488,129.008 274.137,129.027 273.786,129.048 273.435,129.072 273.085,129.098 272.735,129.126 272.385,129.156 272.036,129.189 271.688,129.224 271.34,129.261 270.993,129.3 270.646,129.342 270.3,129.386 269.955,129.432 269.61,129.48 269.266,129.53 268.923,129.583 268.581,129.638 268.24,129.695 267.899,129.754 267.56,129.815 267.222,129.879 266.884,129.944 266.548,130.012 266.212,130.082 265.878,130.154 265.545,130.229 265.213,130.305 264.882,130.384 264.553,130.464 264.225,130.547 263.898,130.632 263.572,130.719 263.248,130.808 262.926,130.899 262.604,130.992 262.284,131.087 261.966,131.184 261.649,131.284 261.334,131.385 261.02,131.488 260.708,131.594 260.398,131.701 260.089,131.81 259.782,131.921 259.477,132.035 259.174,132.15 258.872,132.267 258.573,132.386 258.275,132.507 257.979,132.63 257.685,132.755 257.393,132.881 257.103,133.01 256.814,133.14 256.528,133.272 256.245,133.406 255.963,133.542 255.683,133.68 255.405,133.819 255.13,133.96 254.857,134.103 254.586,134.248 254.318,134.394 254.051,134.542 253.787,134.692 253.526,134.844 253.266,134.997 253.009,135.152 252.755,135.308 252.503,135.466 252.254,135.626 252.007,135.787 251.762,135.95 251.52,136.114 251.281,136.28 251.044,136.448 250.81,136.617 250.579,136.787 250.35,136.959 250.124,137.132 249.901,137.307 249.68,137.484 249.462,137.661 249.247,137.84 249.035,138.021 248.825,138.202 248.619,138.386 248.415,138.57 248.214,138.756 248.016,138.943 247.821,139.131 247.629,139.32 247.44,139.511 247.254,139.703 247.071,139.896 246.891,140.09 246.714,140.286 246.54,140.482 246.369,140.68 246.201,140.879 246.037,141.078 245.875,141.279 245.717,141.481 245.562,141.684 245.41,141.888 245.261,142.092 245.115,142.298 244.972,142.505 244.833,142.712 244.697,142.921 244.565,143.13 244.435,143.34 244.309,143.551 244.186,143.763 244.067,143.976 243.95,144.189 243.837,144.403 243.728,144.618 243.622,144.833 243.519,145.049 243.42,145.266 243.324,145.483 243.231,145.701 243.142,145.92 243.056,146.139 242.973,146.359 242.894,146.579 242.819,146.799 242.747,147.02 242.678,147.242 242.613,147.464 242.551,147.687 242.493,147.909 242.439,148.133 242.387,148.356 242.34,148.58 242.295,148.804 242.255,149.028 242.217,149.253 242.184,149.478 242.153,149.703 242.127,149.928 242.103,150.154 242.084,150.379 242.068,150.605 242.055,150.831 242.046,151.056 242.04,151.282 242.038,151.508 242.04,151.734 242.045,151.96 242.053,152.186 242.065,152.412 242.081,152.637 242.1,152.863 242.123,153.088 242.149,153.314 242.178,153.539 242.212,153.764 242.248,153.988 242.289,154.213 242.332,154.437 242.379,154.661 242.43,154.884 242.484,155.108 242.542,155.33 242.603,155.553 242.668,155.775 242.736,155.997 242.807,156.218 242.882,156.439 242.961,156.659 243.042,156.879 243.128,157.098 243.216,157.316 243.309,157.535 243.404,157.752 243.503,157.969 243.605,158.185 243.711,158.401 243.82,158.615 243.932,158.83 244.048,159.043 244.167,159.256 244.289,159.468 244.415,159.679 244.544,159.889 244.676,160.098 244.811,160.307 244.95,160.515 245.092,160.721 245.237,160.927 245.386,161.132 245.537,161.336 245.692,161.539 245.85,161.741 246.011,161.942 246.175,162.142 246.342,162.341 246.513,162.539 246.686,162.736 246.863,162.931 247.042,163.126 247.225,163.319 247.41,163.511 247.599,163.702 247.791,163.891 247.985,164.08 248.183,164.267 248.383,164.453 248.586,164.638 248.792,164.821 249.001,165.003 249.213,165.184 249.428,165.363 249.645,165.541 249.865,165.717 250.088,165.892 250.314,166.066 250.542,166.238 250.773,166.409 251.007,166.578 251.243,166.746 251.482,166.912 251.723,167.076 251.968,167.24 252.214,167.401 252.463,167.561 252.715,167.719 252.969,167.876 253.225,168.031 253.484,168.185 253.745,168.336 254.009,168.486 254.275,168.635 254.543,168.781 254.814,168.926 255.086,169.07 255.361,169.211 255.639,169.351 255.918,169.489 256.199,169.625 256.483,169.759 256.769,169.891 257.057,170.022 257.346,170.151 257.638,170.278 257.932,170.403 258.227,170.526 258.525,170.647 258.824,170.767 259.126,170.884 259.429,171 259.734,171.113 260.04,171.225 260.349,171.334 260.659,171.442 260.971,171.548 261.284,171.651 261.599,171.753 261.916,171.852 262.234,171.95 262.553,172.045 262.874,172.139 263.197,172.23 263.521,172.32 263.846,172.407 264.173,172.492 264.501,172.575 264.83,172.656 265.16,172.735 265.492,172.812 265.825,172.886 266.159,172.959 266.494,173.029 266.83,173.097 267.168,173.163 267.506,173.227 267.845,173.289 268.186,173.348 268.527,173.406 268.869,173.461 269.212,173.514 269.555,173.565 269.9,173.613 270.245,173.66 270.591,173.704 270.937,173.746 271.284,173.785 271.632,173.823 271.981,173.858 272.33,173.891 272.679,173.922 273.029,173.95 273.379,173.977 273.73,174.001 274.081,174.022 274.432,174.042 274.784,174.059 275.136,174.074 275.488,174.087 275.84,174.098 276.193,174.106 276.545,174.112 276.898,174.116 277.25,174.117" stroke="#000000" stroke-dasharray="1,3,1,3,1,3,1,3" stroke-linecap="butt" stroke-linejoin="round" stroke-width="0.6"/>
   <polyline fill="none" points="277.307,106.345 276.601,106.347 275.896,106.354 275.191,106.365 274.486,106.381 273.781,106.401 273.077,106.426 272.373,106.455 271.67,106.489 270.967,106.527 270.265,106.57 269.563,106.618 268.862,106.669 268.163,106.726 267.464,106.787 266.766,106.852 266.069,106.922 265.373,106.996 264.678,107.075 263.985,107.158 263.293,107.245 262.603,107.337 261.913,107.434 261.226,107.534 260.54,107.64 259.856,107.749 259.173,107.863 258.492,107.981 257.813,108.104 257.136,108.231 256.462,108.363 255.789,108.498 255.118,108.638 254.45,108.782 253.784,108.931 253.12,109.084 252.458,109.241 251.799,109.402 251.143,109.568 250.489,109.737 249.838,109.911 249.19,110.089 248.545,110.271 247.902,110.458 247.262,110.648 246.626,110.843 245.992,111.041 245.362,111.244 244.734,111.45 244.11,111.661 243.49,111.876 242.872,112.094 242.258,112.317 241.648,112.543 241.041,112.774 240.438,113.008 239.839,113.246 239.243,113.488 238.651,113.733 238.063,113.983 237.479,114.236 236.898,114.493 236.322,114.754 235.75,115.018 235.182,115.286 234.619,115.558 234.059,115.833 233.504,116.112 232.954,116.394 232.407,116.68 231.866,116.969 231.328,117.262 230.796,117.558 230.268,117.858 229.745,118.161 229.226,118.467 228.712,118.777 228.204,119.09 227.7,119.406 227.201,119.725 226.707,120.048 226.218,120.374 225.734,120.702 225.255,121.034 224.782,121.369 224.314,121.707 223.851,122.048 223.393,122.392 222.941,122.739 222.495,123.088 222.053,123.441 221.618,123.796 221.188,124.154 220.763,124.515 220.344,124.879 219.931,125.245 219.524,125.614 219.122,125.985 218.726,126.359 218.336,126.736 217.952,127.114 217.574,127.496 217.202,127.88 216.836,128.266 216.476,128.654 216.121,129.045 215.774,129.438 215.432,129.833 215.096,130.231 214.767,130.63 214.444,131.032 214.127,131.436 213.817,131.841 213.512,132.249 213.215,132.659 212.923,133.07 212.638,133.483 212.36,133.899 212.088,134.315 211.823,134.734 211.564,135.154 211.311,135.576 211.066,136 210.827,136.425 210.594,136.851 210.368,137.279 210.149,137.709 209.937,138.14 209.731,138.572 209.533,139.005 209.34,139.44 209.155,139.876 208.977,140.313 208.805,140.751 208.64,141.191 208.482,141.631 208.331,142.072 208.187,142.515 208.05,142.958 207.92,143.402 207.796,143.847 207.68,144.292 207.57,144.739 207.468,145.186 207.372,145.633 207.284,146.082 207.202,146.531 207.128,146.98 207.061,147.43 207,147.88 206.947,148.33 206.9,148.781 206.861,149.232 206.829,149.684 206.803,150.135 206.785,150.587 206.774,151.038 206.77,151.49 206.773,151.942 206.783,152.394 206.8,152.846 206.824,153.297 206.855,153.748 206.894,154.2 206.939,154.65 206.991,155.101 207.05,155.551 207.117,156.001 207.19,156.45 207.271,156.899 207.358,157.348 207.452,157.795 207.554,158.243 207.662,158.689 207.777,159.135 207.9,159.58 208.029,160.024 208.165,160.467 208.308,160.91 208.458,161.351 208.615,161.792 208.778,162.231 208.949,162.669 209.126,163.107 209.31,163.543 209.501,163.978 209.699,164.412 209.904,164.844 210.115,165.275 210.333,165.705 210.558,166.133 210.789,166.56 211.027,166.985 211.272,167.409 211.523,167.831 211.781,168.252 212.045,168.67 212.316,169.088 212.594,169.503 212.877,169.917 213.168,170.328 213.465,170.738 213.768,171.146 214.077,171.552 214.393,171.956 214.715,172.358 215.043,172.758 215.378,173.156 215.719,173.551 216.066,173.945 216.419,174.336 216.778,174.725 217.143,175.111 217.514,175.496 217.891,175.877 218.275,176.257 218.664,176.634 219.059,177.008 219.459,177.38 219.866,177.749 220.278,178.116 220.696,178.48 221.12,178.841 221.549,179.199 221.984,179.555 222.424,179.908 222.87,180.258 223.321,180.606 223.778,180.95 224.24,181.291 224.707,181.63 225.18,181.965 225.657,182.297 226.14,182.627 226.629,182.953 227.122,183.276 227.62,183.596 228.123,183.912 228.631,184.226 229.144,184.536 229.662,184.843 230.184,185.146 230.711,185.447 231.243,185.743 231.78,186.037 232.321,186.327 232.866,186.613 233.416,186.896 233.971,187.175 234.529,187.451 235.092,187.723 235.66,187.992 236.231,188.257 236.806,188.518 237.386,188.776 237.969,189.029 238.557,189.28 239.148,189.526 239.743,189.768 240.342,190.007 240.945,190.242 241.551,190.473 242.161,190.7 242.774,190.923 243.391,191.142 244.011,191.358 244.635,191.569 245.261,191.776 245.891,191.979 246.524,192.179 247.161,192.374 247.8,192.565 248.442,192.752 249.087,192.935 249.735,193.113 250.386,193.288 251.039,193.458 251.695,193.624 252.353,193.786 253.014,193.944 253.678,194.097 254.343,194.247 255.012,194.392 255.682,194.532 256.354,194.669 257.029,194.801 257.705,194.928 258.384,195.052 259.064,195.171 259.747,195.285 260.431,195.396 261.116,195.502 261.804,195.603 262.493,195.7 263.183,195.793 263.875,195.881 264.568,195.965 265.262,196.044 265.958,196.119 266.655,196.19 267.352,196.256 268.051,196.317 268.751,196.374 269.452,196.427 270.153,196.475 270.855,196.518 271.558,196.558 272.261,196.592 272.965,196.622 273.669,196.648 274.374,196.669 275.079,196.685 275.784,196.697 276.489,196.705 277.194,196.708" stroke="#000000" stroke-dasharray="1,3,1,3,1,3,1,3" stroke-linecap="butt" stroke-linejoin="round" stroke-width="0.6"/>
   <polyline fill="none" points="277.307,83.7538 276.249,83.7571 275.191,83.7673 274.133,83.7843 273.076,83.808 272.019,83.8385 270.962,83.8757 269.906,83.9197 268.851,83.9705 267.797,84.028 266.744,84.0923 265.691,84.1634 264.64,84.2411 263.591,84.3256 262.542,84.4168 261.495,84.5148 260.45,84.6194 259.406,84.7307 258.364,84.8487 257.324,84.9734 256.286,85.1047 255.251,85.2427 254.217,85.3872 253.185,85.5385 252.156,85.6963 251.13,85.8606 250.106,86.0316 249.085,86.2091 248.067,86.3931 247.051,86.5837 246.039,86.7807 245.03,86.9842 244.024,87.1942 243.021,87.4106 242.022,87.6334 241.026,87.8626 240.034,88.0982 239.046,88.3401 238.061,88.5883 237.081,88.8428 236.104,89.1037 235.132,89.3707 234.164,89.6439 233.2,89.9234 232.24,90.209 231.285,90.5007 230.335,90.7985 229.389,91.1024 228.448,91.4124 227.512,91.7283 226.581,92.0503 225.655,92.3782 224.734,92.712 223.819,93.0517 222.908,93.3972 222.004,93.7485 221.104,94.1057 220.211,94.4685 219.323,94.8371 218.441,95.2113 217.565,95.5912 216.694,95.9767 215.83,96.3677 214.972,96.7642 214.12,97.1662 213.275,97.5737 212.436,97.9865 211.603,98.4047 210.777,98.8282 209.958,99.257 209.145,99.691 208.339,100.13 207.54,100.574 206.748,101.024 205.964,101.478 205.186,101.938 204.415,102.402 203.652,102.872 202.896,103.346 202.148,103.825 201.407,104.309 200.673,104.797 199.948,105.29 199.23,105.788 198.52,106.291 197.817,106.798 197.123,107.309 196.437,107.825 195.759,108.345 195.089,108.869 194.427,109.398 193.773,109.931 193.128,110.468 192.491,111.01 191.863,111.555 191.243,112.104 190.632,112.657 190.03,113.214 189.436,113.775 188.851,114.34 188.275,114.909 187.708,115.481 187.149,116.056 186.6,116.636 186.06,117.218 185.529,117.805 185.007,118.394 184.494,118.987 183.991,119.583 183.497,120.182 183.012,120.785 182.537,121.39 182.072,121.999 181.615,122.61 181.169,123.225 180.732,123.842 180.304,124.462 179.887,125.085 179.479,125.71 179.081,126.338 178.692,126.968 178.314,127.601 177.945,128.237 177.587,128.874 177.238,129.514 176.899,130.156 176.571,130.8 176.252,131.447 175.944,132.095 175.645,132.745 175.357,133.397 175.079,134.051 174.812,134.707 174.554,135.364 174.307,136.023 174.07,136.684 173.844,137.346 173.627,138.009 173.422,138.674 173.226,139.34 173.041,140.007 172.867,140.676 172.702,141.345 172.549,142.016 172.405,142.687 172.273,143.359 172.15,144.033 172.039,144.707 171.937,145.381 171.847,146.056 171.767,146.732 171.697,147.408 171.638,148.085 171.59,148.762 171.552,149.439 171.525,150.117 171.508,150.795 171.502,151.472 171.506,152.15 171.521,152.828 171.547,153.505 171.583,154.182 171.63,154.86 171.687,155.536 171.755,156.213 171.833,156.888 171.922,157.564 172.022,158.238 172.132,158.913 172.252,159.586 172.384,160.258 172.525,160.93 172.677,161.601 172.84,162.27 173.013,162.939 173.196,163.606 173.39,164.273 173.594,164.938 173.809,165.601 174.033,166.264 174.269,166.924 174.514,167.583 174.77,168.241 175.036,168.897 175.312,169.551 175.599,170.204 175.896,170.854 176.202,171.503 176.519,172.149 176.846,172.794 177.183,173.436 177.53,174.077 177.887,174.715 178.254,175.35 178.631,175.983 179.018,176.614 179.415,177.243 179.821,177.868 180.237,178.491 180.663,179.112 181.098,179.73 181.544,180.344 181.998,180.956 182.462,181.565 182.936,182.171 183.419,182.774 183.912,183.374 184.414,183.971 184.925,184.564 185.445,185.154 185.975,185.741 186.513,186.324 187.061,186.904 187.618,187.48 188.184,188.053 188.759,188.622 189.342,189.187 189.934,189.749 190.536,190.307 191.145,190.86 191.764,191.41 192.391,191.956 193.026,192.498 193.67,193.036 194.322,193.57 194.983,194.099 195.651,194.624 196.328,195.145 197.013,195.662 197.706,196.174 198.407,196.681 199.116,197.185 199.833,197.683 200.557,198.177 201.289,198.666 202.029,199.151 202.776,199.631 203.531,200.106 204.293,200.576 205.063,201.041 205.839,201.501 206.623,201.956 207.414,202.407 208.212,202.852 209.016,203.292 209.828,203.727 210.646,204.156 211.471,204.581 212.303,205 213.141,205.413 213.985,205.822 214.836,206.225 215.693,206.622 216.556,207.014 217.426,207.4 218.301,207.781 219.182,208.156 220.069,208.526 220.962,208.889 221.86,209.247 222.764,209.6 223.673,209.946 224.588,210.287 225.508,210.622 226.433,210.95 227.363,211.273 228.299,211.59 229.239,211.901 230.184,212.206 231.133,212.505 232.088,212.797 233.046,213.084 234.01,213.364 234.977,213.639 235.949,213.907 236.925,214.168 237.905,214.424 238.889,214.673 239.877,214.916 240.868,215.153 241.863,215.383 242.862,215.607 243.864,215.824 244.869,216.035 245.878,216.24 246.89,216.438 247.905,216.629 248.923,216.814 249.943,216.993 250.967,217.165 251.993,217.33 253.021,217.489 254.052,217.642 255.086,217.787 256.121,217.926 257.159,218.059 258.199,218.184 259.24,218.303 260.284,218.416 261.329,218.521 262.375,218.62 263.424,218.713 264.473,218.798 265.524,218.877 266.576,218.949 267.629,219.015 268.683,219.073 269.738,219.125 270.794,219.17 271.85,219.209 272.907,219.24 273.964,219.265 275.022,219.283 276.08,219.294 277.138,219.299" stroke="#000000" stroke-dasharray="1,3,1,3,1,3,1,3" stroke-linecap="butt" stroke-linejoin="round" stroke-width="0.6"/>
   <polyline fill="none" points="277.307,61.1629 275.896,61.1674 274.485,61.181 273.075,61.2036 271.665,61.2352 270.256,61.2759 268.847,61.3255 267.44,61.3842 266.033,61.4519 264.627,61.5287 263.223,61.6144 261.82,61.7091 260.418,61.8128 259.019,61.9254 257.621,62.047 256.225,62.1776 254.831,62.3171 253.439,62.4655 252.05,62.6229 250.664,62.7891 249.28,62.9642 247.898,63.1481 246.52,63.3409 245.145,63.5425 243.773,63.7529 242.405,63.9721 241.039,64.2 239.678,64.4367 238.32,64.6821 236.966,64.9361 235.617,65.1989 234.271,65.4702 232.93,65.7502 231.593,66.0387 230.26,66.3358 228.933,66.6414 227.61,66.9555 226.292,67.2781 224.98,67.609 223.672,67.9484 222.37,68.2961 221.073,68.6522 219.783,69.0165 218.497,69.3891 217.218,69.7699 215.945,70.1589 214.677,70.556 213.416,70.9612 212.162,71.3744 210.914,71.7957 209.672,72.225 208.438,72.6622 207.21,73.1072 205.989,73.5601 204.776,74.0208 203.569,74.4893 202.37,74.9655 201.179,75.4493 199.995,75.9407 198.819,76.4397 197.651,76.9462 196.49,77.4601 195.338,77.9815 194.194,78.5102 193.058,79.0462 191.931,79.5895 190.812,80.1399 189.702,80.6975 188.601,81.2622 187.508,81.8339 186.425,82.4126 185.35,82.9981 184.285,83.5906 183.229,84.1898 182.183,84.7958 181.146,85.4084 180.118,86.0277 179.101,86.6535 178.093,87.2857 177.095,87.9244 176.107,88.5695 175.129,89.2209 174.161,89.8785 173.204,90.5422 172.257,91.2121 171.321,91.888 170.395,92.5698 169.48,93.2576 168.576,93.9512 167.683,94.6505 166.8,95.3555 165.929,96.0661 165.068,96.7823 164.219,97.504 163.382,98.231 162.555,98.9634 161.741,99.7011 160.937,100.444 160.146,101.192 159.366,101.945 158.598,102.703 157.841,103.466 157.097,104.233 156.365,105.005 155.644,105.783 154.936,106.564 154.241,107.35 153.557,108.141 152.886,108.935 152.227,109.735 151.581,110.538 150.947,111.345 150.326,112.157 149.718,112.972 149.123,113.791 148.54,114.614 147.97,115.441 147.413,116.271 146.869,117.105 146.339,117.942 145.821,118.782 145.316,119.626 144.825,120.473 144.347,121.323 143.882,122.177 143.43,123.033 142.992,123.892 142.567,124.753 142.156,125.618 141.758,126.485 141.374,127.354 141.004,128.226 140.647,129.1 140.304,129.977 139.974,130.855 139.658,131.736 139.356,132.619 139.068,133.503 138.793,134.39 138.533,135.278 138.286,136.167 138.053,137.059 137.834,137.951 137.629,138.845 137.438,139.741 137.261,140.637 137.098,141.535 136.949,142.433 136.814,143.333 136.694,144.233 136.587,145.134 136.494,146.036 136.415,146.938 136.351,147.841 136.3,148.744 136.264,149.647 136.242,150.551 136.233,151.454 136.239,152.358 136.259,153.261 136.294,154.165 136.342,155.068 136.404,155.971 136.48,156.873 136.571,157.775 136.676,158.676 136.794,159.576 136.927,160.476 137.074,161.375 137.234,162.272 137.409,163.169 137.598,164.065 137.801,164.959 138.017,165.852 138.248,166.743 138.492,167.633 138.751,168.521 139.023,169.408 139.309,170.293 139.609,171.176 139.923,172.057 140.25,172.936 140.591,173.813 140.946,174.687 141.314,175.56 141.696,176.429 142.092,177.297 142.501,178.162 142.924,179.024 143.36,179.883 143.809,180.74 144.272,181.593 144.748,182.444 145.237,183.292 145.74,184.136 146.255,184.977 146.784,185.815 147.326,186.649 147.881,187.48 148.448,188.307 149.029,189.131 149.623,189.95 150.229,190.766 150.848,191.578 151.479,192.386 152.124,193.19 152.78,193.99 153.449,194.786 154.131,195.577 154.825,196.363 155.531,197.146 156.249,197.924 156.979,198.697 157.722,199.465 158.476,200.229 159.243,200.987 160.021,201.741 160.81,202.49 161.612,203.233 162.425,203.972 163.249,204.705 164.085,205.433 164.933,206.156 165.791,206.873 166.661,207.584 167.541,208.29 168.433,208.99 169.335,209.685 170.249,210.373 171.173,211.056 172.108,211.733 173.053,212.404 174.008,213.069 174.974,213.727 175.95,214.38 176.937,215.026 177.933,215.665 178.939,216.299 179.955,216.926 180.981,217.546 182.017,218.16 183.062,218.767 184.116,219.367 185.18,219.96 186.253,220.547 187.335,221.127 188.426,221.7 189.526,222.265 190.635,222.824 191.752,223.376 192.878,223.92 194.013,224.457 195.155,224.987 196.306,225.51 197.465,226.025 198.632,226.533 199.807,227.033 200.99,227.525 202.18,228.01 203.378,228.488 204.583,228.958 205.796,229.419 207.015,229.874 208.242,230.32 209.475,230.758 210.716,231.189 211.963,231.611 213.216,232.026 214.476,232.432 215.742,232.831 217.015,233.221 218.293,233.603 219.577,233.977 220.867,234.343 222.163,234.7 223.464,235.049 224.771,235.39 226.083,235.722 227.4,236.046 228.722,236.362 230.049,236.669 231.38,236.967 232.716,237.257 234.057,237.538 235.402,237.811 236.751,238.075 238.104,238.33 239.461,238.577 240.822,238.815 242.187,239.045 243.555,239.265 244.926,239.477 246.301,239.68 247.679,239.874 249.059,240.06 250.443,240.236 251.829,240.404 253.218,240.562 254.609,240.712 256.003,240.853 257.398,240.985 258.796,241.108 260.195,241.222 261.596,241.327 262.999,241.424 264.403,241.511 265.809,241.589 267.215,241.658 268.623,241.718 270.031,241.769 271.441,241.811 272.85,241.844 274.261,241.868 275.671,241.883 277.082,241.889" stroke="#000000" stroke-dasharray="1,3,1,3,1,3,1,3" stroke-linecap="butt" stroke-linejoin="round" stroke-width="0.6"/>
   <polyline fill="none" points="277.307,38.5721 275.543,38.5778 273.78,38.5947 272.017,38.6229 270.255,38.6624 268.493,38.7133 266.732,38.7754 264.973,38.8487 263.214,38.9334 261.457,39.0293 259.702,39.1364 257.948,39.2548 256.196,39.3844 254.447,39.5252 252.699,39.6772 250.954,39.8405 249.212,40.0148 247.473,40.2004 245.736,40.397 244.003,40.6048 242.273,40.8237 240.546,41.0536 238.824,41.2946 237.105,41.5466 235.39,41.8096 233.679,42.0836 231.973,42.3685 230.271,42.6643 228.574,42.971 226.881,43.2886 225.194,43.617 223.512,43.9562 221.835,44.3062 220.164,44.6668 218.499,45.0382 216.839,45.4202 215.186,45.8128 213.539,46.216 211.898,46.6297 210.264,47.054 208.636,47.4886 207.015,47.9337 205.401,48.3891 203.795,48.8548 202.196,49.3308 200.604,49.817 199.02,50.3134 197.444,50.8199 195.876,51.3365 194.316,51.8631 192.764,52.3997 191.221,52.9461 189.686,53.5025 188.16,54.0686 186.643,54.6445 185.135,55.2301 183.636,55.8253 182.147,56.43 180.667,57.0443 179.197,57.6681 177.737,58.3012 176.286,58.9436 174.846,59.5953 173.416,60.2562 171.996,60.9262 170.587,61.6053 169.189,62.2934 167.801,62.9903 166.424,63.6962 165.059,64.4108 163.704,65.1342 162.361,65.8661 161.03,66.6067 159.71,67.3557 158.402,68.1132 157.105,68.879 155.821,69.653 154.549,70.4353 153.289,71.2256 152.042,72.024 150.807,72.8303 149.585,73.6445 148.375,74.4665 147.179,75.2962 145.995,76.1335 144.825,76.9784 143.667,77.8307 142.524,78.6904 141.393,79.5574 140.277,80.4315 139.174,81.3128 138.084,82.2011 137.009,83.0963 135.948,83.9984 134.901,84.9072 133.868,85.8227 132.849,86.7448 131.845,87.6733 130.855,88.6082 129.88,89.5495 128.92,90.4969 127.975,91.4504 127.045,92.4099 126.129,93.3753 125.229,94.3466 124.344,95.3235 123.474,96.3061 122.62,97.2942 121.781,98.2878 120.957,99.2866 120.15,100.291 119.358,101.3 118.581,102.314 117.821,103.333 117.077,104.357 116.348,105.386 115.636,106.419 114.94,107.457 114.26,108.499 113.597,109.546 112.949,110.596 112.319,111.651 111.704,112.71 111.107,113.773 110.526,114.839 109.961,115.909 109.413,116.983 108.883,118.06 108.369,119.141 107.871,120.224 107.391,121.311 106.928,122.401 106.482,123.494 106.053,124.589 105.641,125.688 105.246,126.789 104.868,127.892 104.508,128.998 104.165,130.106 103.839,131.216 103.531,132.328 103.24,133.442 102.966,134.558 102.71,135.675 102.471,136.794 102.25,137.915 102.046,139.037 101.86,140.16 101.691,141.285 101.54,142.41 101.407,143.536 101.291,144.663 101.192,145.791 101.112,146.919 101.049,148.048 101.003,149.177 100.975,150.307 100.965,151.436 100.972,152.566 100.998,153.695 101.04,154.824 101.101,155.953 101.178,157.082 101.274,158.21 101.387,159.337 101.518,160.463 101.666,161.589 101.832,162.713 102.015,163.837 102.216,164.959 102.435,166.08 102.671,167.199 102.924,168.317 103.195,169.433 103.483,170.547 103.789,171.66 104.112,172.77 104.452,173.879 104.81,174.985 105.185,176.088 105.577,177.19 105.986,178.288 106.412,179.384 106.856,180.478 107.316,181.568 107.794,182.655 108.288,183.74 108.8,184.821 109.328,185.898 109.873,186.972 110.435,188.043 111.013,189.11 111.608,190.173 112.22,191.233 112.848,192.288 113.492,193.34 114.153,194.387 114.831,195.43 115.524,196.468 116.234,197.502 116.96,198.532 117.702,199.556 118.459,200.576 119.233,201.591 120.022,202.601 120.828,203.606 121.649,204.606 122.485,205.6 123.337,206.589 124.204,207.573 125.087,208.551 125.985,209.523 126.898,210.489 127.826,211.45 128.769,212.404 129.727,213.353 130.699,214.295 131.686,215.231 132.688,216.16 133.704,217.083 134.735,218 135.78,218.91 136.839,219.813 137.912,220.709 138.999,221.599 140.1,222.481 141.215,223.356 142.343,224.224 143.484,225.085 144.639,225.939 145.808,226.785 146.989,227.623 148.184,228.454 149.391,229.278 150.611,230.093 151.844,230.901 153.09,231.7 154.348,232.492 155.618,233.275 156.9,234.051 158.194,234.818 159.501,235.577 160.819,236.327 162.148,237.069 163.49,237.802 164.842,238.527 166.206,239.243 167.581,239.95 168.967,240.649 170.364,241.338 171.771,242.019 173.189,242.69 174.617,243.353 176.056,244.006 177.505,244.65 178.964,245.284 180.432,245.909 181.911,246.525 183.399,247.132 184.896,247.728 186.402,248.315 187.918,248.893 189.442,249.46 190.976,250.018 192.518,250.566 194.068,251.105 195.627,251.633 197.194,252.151 198.769,252.659 200.351,253.157 201.942,253.645 203.54,254.123 205.145,254.59 206.758,255.047 208.377,255.494 210.004,255.93 211.637,256.356 213.277,256.771 214.923,257.176 216.576,257.57 218.234,257.954 219.899,258.327 221.569,258.69 223.245,259.041 224.926,259.382 226.612,259.712 228.304,260.032 230,260.34 231.701,260.638 233.407,260.924 235.117,261.2 236.831,261.465 238.55,261.718 240.272,261.961 241.998,262.193 243.727,262.414 245.46,262.623 247.196,262.822 248.935,263.009 250.677,263.185 252.421,263.35 254.168,263.504 255.918,263.646 257.669,263.778 259.422,263.898 261.178,264.007 262.934,264.105 264.693,264.191 266.452,264.266 268.213,264.33 269.974,264.383 271.736,264.424 273.499,264.454 275.262,264.473 277.026,264.48" stroke="#000000" stroke-dasharray="1,3,1,3,1,3,1,3" stroke-linecap="butt" stroke-linejoin="round" stroke-width="0.6"/>
   <polyline fill="none" points="208.725,23.2974 206.737,23.7406 204.746,24.199 202.762,24.6701 200.785,25.154 198.816,25.6504 196.855,26.1595 194.902,26.6811 192.957,27.2151 191.02,27.7616 189.093,28.3205 187.174,28.8917 185.264,29.4752 183.363,30.0708 181.471,30.6786 179.59,31.2986 177.717,31.9305 175.855,32.5743 174.003,33.2301 172.162,33.8977 170.331,34.5771 168.51,35.2682 166.701,35.9708 164.902,36.6851 163.115,37.4108 161.339,38.1479 159.575,38.8964 157.823,39.6562 156.082,40.4271 154.354,41.2091 152.638,42.0022 150.934,42.8062 149.243,43.6211 147.565,44.4468 145.9,45.2832 144.248,46.1302 142.609,46.9877 140.984,47.8557 139.372,48.7341 137.774,49.6228 136.19,50.5216 134.621,51.4305 133.065,52.3495 131.524,53.2784 129.997,54.2171 128.486,55.1655 126.989,56.1235 125.507,57.0912 124.04,58.0682 122.589,59.0546 121.153,60.0502 119.733,61.055 118.328,62.0688 116.94,63.0916 115.567,64.1232 114.211,65.1636 112.871,66.2126 111.547,67.2701 110.24,68.3361 108.949,69.4104 107.676,70.4928 106.419,71.5834 105.18,72.682 103.958,73.7885 102.753,74.9027 101.565,76.0246 100.395,77.1541 99.243,78.291 98.1086,79.4352 96.9921,80.5866 95.8937,81.7451 94.8133,82.9106 93.7513,84.083 92.7076,85.2621 91.6823,86.4478 90.6756,87.64 89.6876,88.8387 88.7183,90.0436 87.7679,91.2546 86.8364,92.4717 85.924,93.6946 85.0308,94.9234 84.1567,96.1578 83.302,97.3978 82.4667,98.6431 81.6508,99.8938 80.8545,101.15 80.0779,102.41 79.321,103.676 78.5839,104.947 77.8666,106.222 77.1693,107.502 76.4921,108.786 75.8349,110.074 75.1978,111.367 74.581,112.663 73.9844,113.964 73.4082,115.268 72.8523,116.576 72.3169,117.887 71.802,119.202 71.3077,120.52 70.8339,121.841 70.3808,123.165 69.9484,124.492 69.5367,125.821 69.1458,127.153 68.7757,128.488 68.4265,129.825 68.0981,131.164 67.7907,132.505 67.5042,133.848 67.2387,135.193 66.9942,136.539 66.7708,137.887 66.5684,139.236 66.387,140.587 66.2268,141.938 66.0877,143.291 65.9697,144.644 65.8728,145.998 65.797,147.353 65.7425,148.708 65.709,150.063 65.6968,151.418 65.7057,152.774 65.7357,154.129 65.7869,155.484 65.8593,156.839 65.9528,158.193 66.0675,159.546 66.2032,160.899 66.3601,162.251 66.5381,163.601 66.7371,164.951 66.9572,166.299 67.1984,167.645 67.4605,168.99 67.7437,170.334 68.0477,171.675 68.3728,173.014 68.7187,174.352 69.0854,175.687 69.473,177.019 69.8814,178.349 70.3105,179.676 70.7603,181.001 71.2308,182.322 71.7219,183.641 72.2335,184.956 72.7657,186.268 73.3183,187.576 73.8913,188.881 74.4846,190.182 75.0982,191.479 75.7321,192.773 76.3861,194.062 77.0602,195.346 77.7542,196.627 78.4683,197.903 79.2023,199.174 79.956,200.441 80.7295,201.702 81.5227,202.959 82.3354,204.21 83.1676,205.457 84.0193,206.698 84.8903,207.933 85.7805,209.163 86.6899,210.386 87.6183,211.604 88.5657,212.816 89.5319,214.022 90.517,215.222 91.5207,216.415 92.543,217.602 93.5838,218.782 94.643,219.956 95.7204,221.122 96.816,222.282 97.9296,223.434 99.0611,224.58 100.211,225.718 101.378,226.848 102.562,227.972 103.764,229.087 104.984,230.195 106.221,231.295 107.475,232.386 108.745,233.47 110.033,234.546 111.338,235.613 112.659,236.672 113.996,237.722 115.35,238.764 116.72,239.797 118.106,240.821 119.508,241.837 120.926,242.843 122.359,243.84 123.808,244.828 125.272,245.806 126.752,246.775 128.246,247.735 129.756,248.685 131.28,249.625 132.819,250.556 134.372,251.476 135.939,252.387 137.521,253.287 139.117,254.178 140.726,255.058 142.349,255.927 143.986,256.786 145.636,257.635 147.299,258.473 148.975,259.301 150.664,260.117 152.366,260.923 154.08,261.718 155.806,262.502 157.545,263.274 159.295,264.036 161.058,264.786 162.832,265.525 164.617,266.253 166.414,266.969 168.221,267.673 170.04,268.366 171.87,269.047 173.709,269.717 175.56,270.374 177.42,271.02 179.291,271.654 181.171,272.276 183.061,272.886 184.96,273.483 186.869,274.069 188.786,274.642 190.713,275.203 192.648,275.751 194.592,276.287 196.543,276.811 198.503,277.322 200.471,277.82 202.447,278.306 204.43,278.779 206.42,279.24 208.417,279.687 208.729,279.755" stroke="#000000" stroke-dasharray="1,3,1,3,1,3,1,3" stroke-linecap="butt" stroke-linejoin="round" stroke-width="0.6"/>
   <polyline fill="none" points="132.835,23.2974 131.86,23.7482 129.872,24.6862 127.899,25.6369 125.941,26.6002 123.999,27.576 122.071,28.5642 120.159,29.5646 118.263,30.5773 116.383,31.6021 114.519,32.6389 112.671,33.6875 110.84,34.7479 109.025,35.82 107.227,36.9037 105.446,37.9989 103.682,39.1054 101.936,40.2231 100.207,41.352 98.4959,42.4919 96.8026,43.6426 95.1274,44.8042 93.4704,45.9765 91.8318,47.1593 90.2118,48.3525 88.6105,49.5561 87.028,50.7698 85.4645,51.9937 83.9203,53.2274 82.3953,54.4711 80.8899,55.7244 79.4041,56.9873 77.9381,58.2596 76.492,59.5413 75.066,60.8322 73.6603,62.1322 72.2749,63.441 70.91,64.7587 69.5658,66.0851 68.2423,67.42 66.9397,68.7634 65.6582,70.1149 64.3978,71.4747 63.1587,72.8425 61.9411,74.2181 60.7449,75.6014 59.5704,76.9924 58.4177,78.3907 57.2869,79.7965 56.1781,81.2093 55.0914,82.6293 54.1098,83.945" stroke="#000000" stroke-dasharray="1,3,1,3,1,3,1,3" stroke-linecap="butt" stroke-linejoin="round" stroke-width="0.6"/>
   <polyline fill="none" points="54.1098,219.105 54.9204,220.196 56.0036,221.617 57.1088,223.031 58.2362,224.438 59.3854,225.838 60.5564,227.23 61.7491,228.615 62.9633,229.991 64.199,231.36 65.456,232.721 66.7342,234.074 68.0334,235.419 69.3536,236.755 70.6945,238.083 72.0561,239.402 73.4383,240.712 74.8408,242.014 76.2636,243.306 77.7065,244.589 79.1693,245.863 80.652,247.128 82.1543,248.382 83.6761,249.628 85.2173,250.863 86.7777,252.088 88.3571,253.304 89.9555,254.509 91.5726,255.704 93.2082,256.888 94.8623,258.062 96.5346,259.226 98.225,260.378 99.9333,261.52 101.659,262.65 103.403,263.77 105.164,264.878 106.942,265.975 108.737,267.061 110.549,268.135 112.378,269.197 114.224,270.247 116.085,271.286 117.963,272.313 119.856,273.327 121.766,274.33 123.691,275.32 125.631,276.298 127.586,277.263 129.557,278.216 131.542,279.156 132.835,279.755" stroke="#000000" stroke-dasharray="1,3,1,3,1,3,1,3" stroke-linecap="butt" stroke-linejoin="round" stroke-width="0.6"/>
   <polyline fill="none" points="78.4848,23.2974 76.8829,24.3227 74.9071,25.6128 72.9515,26.9155 71.0164,28.2307 69.1018,29.5582 67.2081,30.8979 65.3354,32.2497 63.484,33.6134 61.6538,34.9889 59.8453,36.3761 58.0585,37.7747 56.2936,39.1848 54.5509,40.606 54.1098,40.9733" stroke="#000000" stroke-dasharray="1,3,1,3,1,3,1,3" stroke-linecap="butt" stroke-linejoin="round" stroke-width="0.6"/>
   <polyline fill="none" points="54.1098,262.081 54.2754,262.219 56.0146,263.642 57.776,265.054 59.5593,266.454 61.3644,267.843 63.191,269.221 65.0391,270.586 66.9085,271.94 68.7988,273.282 70.7101,274.611 72.6419,275.928 74.5943,277.233 76.5669,278.525 78.4824,279.755" stroke="#000000" stroke-dasharray="1,3,1,3,1,3,1,3" stroke-linecap="butt" stroke-linejoin="round" stroke-width="0.6"/>
   <g font-family="FreeSans" font-size="10" font-style="normal" font-weight="normal" transform="translate(282.174,132.935) rotate(-0,-0,-4)" xml:space="preserve">
    <text fill="rgb(0,0,0)" x="0 3 " y="-0"> 2</text>
   </g>
   <g font-family="FreeSans" font-size="10" font-style="normal" font-weight="normal" transform="translate(282.174,110.345) rotate(-0,-0,-4)" xml:space="preserve">
    <text fill="rgb(0,0,0)" x="0 3 " y="-0"> 4</text>
   </g>
   <g font-family="FreeSans" font-size="10" font-style="normal" font-weight="normal" transform="translate(282.174,87.7537) rotate(-0,-0,-4)" xml:space="preserve">
    <text fill="rgb(0,0,0)" x="0 3 " y="-0"> 6</text>
   </g>
   <g font-family="FreeSans" font-size="10" font-style="normal" font-weight="normal" transform="translate(282.174,65.1629) rotate(-0,-0,-4)" xml:space="preserve">
    <text fill="rgb(0,0,0)" x="0 3 " y="-0"> 8</text>
   </g>
   <g font-family="FreeSans" font-size="10" font-style="normal" font-weight="normal" transform="translate(282.174,42.5721) rotate(-0,-0,-4)" xml:space="preserve">
    <text fill="rgb(0,0,0)" x="0 6 " y="-0">10</text>
   </g>
   <g font-family="FreeSans" font-size="10" font-style="normal" font-weight="normal" transform="translate(282.174,156.526) rotate(-0,-0,-5)" xml:space="preserve">
    <text fill="rgb(0,0,0)" x="0 6 9 12 17 23 26 " y="-1">0 rad/s</text>
   </g>
   <g font-family="FreeSans" font-size="10" font-style="normal" font-weight="normal" transform="translate(282.174,178.117) rotate(-0,-0,-4)" xml:space="preserve">
    <text fill="rgb(0,0,0)" x="0 3 " y="-0"> 2</text>
   </g>
   <g font-family="FreeSans" font-size="10" font-style="normal" font-weight="normal" transform="translate(282.174,200.708) rotate(-0,-0,-4)" xml:space="preserve">
    <text fill="rgb(0,0,0)" x="0 3 " y="-0"> 4</text>
   </g>
   <g font-family="FreeSans" font-size="10" font-style="normal" font-weight="normal" transform="translate(282.174,223.299) rotate(-0,-0,-4)" xml:space="preserve">
    <text fill="rgb(0,0,0)" x="0 3 " y="-0"> 6</text>
   </g>
   <g font-family="FreeSans" font-size="10" font-style="normal" font-weight="normal" transform="translate(282.174,245.89) rotate(-0,-0,-4)" xml:space="preserve">
    <text fill="rgb(0,0,0)" x="0 3 " y="-0"> 8</text>
   </g>
   <g font-family="FreeSans" font-size="10" font-style="normal" font-weight="normal" transform="translate(282.174,268.48) rotate(-0,-0,-4)" xml:space="preserve">
    <text fill="rgb(0,0,0)" x="0 6 " y="-0">10</text>
   </g>
   <polyline fill="none" points="277.307,151.526 54.1098,151.526" stroke="#000000" stroke-dasharray="1,3,1,3,1,3,1,3" stroke-linecap="butt" stroke-linejoin="round" stroke-width="0.6"/>
   <g font-family="FreeSans" font-size="10" font-style="normal" font-weight="normal" transform="translate(59.302,155.526) rotate(-0,-0,-4)" xml:space="preserve">
    <text fill="rgb(0,0,0)" x="0 6 9 15 " y="-0">1.00</text>
   </g>
   <polyline fill="none" points="277.307,151.526 54.1098,132.704" stroke="#000000" stroke-dasharray="1,3,1,3,1,3,1,3" stroke-linecap="butt" stroke-linejoin="round" stroke-width="0.6"/>
   <g font-family="FreeSans" font-size="10" font-style="normal" font-weight="normal" transform="translate(59.302,137.142) rotate(-0,-0,-4)" xml:space="preserve">
    <text fill="rgb(0,0,0)" x="0 6 9 15 " y="-0">0.99</text>
   </g>
   <polyline fill="none" points="277.307,151.526 54.1098,113.218" stroke="#000000" stroke-dasharray="1,3,1,3,1,3,1,3" stroke-linecap="butt" stroke-linejoin="round" stroke-width="0.6"/>
   <g font-family="FreeSans" font-size="10" font-style="normal" font-weight="normal" transform="translate(59.302,118.11) rotate(-0,-0,-4)" xml:space="preserve">
    <text fill="rgb(0,0,0)" x="0 6 9 15 " y="-0">0.97</text>
   </g>
   <polyline fill="none" points="277.307,151.526 54.1098,92.3074" stroke="#000000" stroke-dasharray="1,3,1,3,1,3,1,3" stroke-linecap="butt" stroke-linejoin="round" stroke-width="0.6"/>
   <g font-family="FreeSans" font-size="10" font-style="normal" font-weight="normal" transform="translate(59.302,97.685) rotate(-0,-0,-4)" xml:space="preserve">
    <text fill="rgb(0,0,0)" x="0 6 9 15 " y="-0">0.92</text>
   </g>
   <polyline fill="none" points="277.307,151.526 54.1098,68.9843" stroke="#000000" stroke-dasharray="1,3,1,3,1,3,1,3" stroke-linecap="butt" stroke-linejoin="round" stroke-width="0.6"/>
   <g font-family="FreeSans" font-size="10" font-style="normal" font-weight="normal" transform="translate(59.302,74.9044) rotate(-0,-0,-4)" xml:space="preserve">
    <text fill="rgb(0,0,0)" x="0 6 9 15 " y="-0">0.87</text>
   </g>
   <polyline fill="none" points="277.307,151.526 54.1098,41.8239" stroke="#000000" stroke-dasharray="1,3,1,3,1,3,1,3" stroke-linecap="butt" stroke-linejoin="round" stroke-width="0.6"/>
   <g font-family="FreeSans" font-size="10" font-style="normal" font-weight="normal" transform="translate(59.302,48.3759) rotate(-0,-0,-4)" xml:space="preserve">
    <text fill="rgb(0,0,0)" x="0 6 9 15 " y="-0">0.79</text>
   </g>
   <polyline fill="none" points="277.307,151.526 77.1184,23.2974" stroke="#000000" stroke-dasharray="1,3,1,3,1,3,1,3" stroke-linecap="butt" stroke-linejoin="round" stroke-width="0.6"/>
   <g font-family="FreeSans" font-size="10" font-style="normal" font-weight="normal" transform="translate(83.5117,31.3925) rotate(-0,-0,-4)" xml:space="preserve">
    <text fill="rgb(0,0,0)" x="0 6 9 15 " y="-0">0.71</text>
   </g>
   <polyline fill="none" points="277.307,151.526 123.697,23.2974" stroke="#000000" stroke-dasharray="1,3,1,3,1,3,1,3" stroke-linecap="butt" stroke-linejoin="round" stroke-width="0.6"/>
   <g font-family="FreeSans" font-size="10" font-style="normal" font-weight="normal" transform="translate(128.603,31.3925) rotate(-0,-0,-4)" xml:space="preserve">
    <text fill="rgb(0,0,0)" x="0 6 9 15 " y="-0">0.61</text>
   </g>
   <polyline fill="none" points="277.307,151.526 161.728,23.2974" stroke="#000000" stroke-dasharray="1,3,1,3,1,3,1,3" stroke-linecap="butt" stroke-linejoin="round" stroke-width="0.6"/>
   <g font-family="FreeSans" font-size="10" font-style="normal" font-weight="normal" transform="translate(165.419,31.3925) rotate(-0,-0,-4)" xml:space="preserve">
    <text fill="rgb(0,0,0)" x="0 6 9 15 " y="-0">0.50</text>
   </g>
   <polyline fill="none" points="277.307,151.526 194.386,23.2974" stroke="#000000" stroke-dasharray="1,3,1,3,1,3,1,3" stroke-linecap="butt" stroke-linejoin="round" stroke-width="0.6"/>
   <g font-family="FreeSans" font-size="10" font-style="normal" font-weight="normal" transform="translate(197.034,31.3925) rotate(-0,-0,-4)" xml:space="preserve">
    <text fill="rgb(0,0,0)" x="0 6 9 15 " y="-0">0.38</text>
   </g>
   <polyline fill="none" points="277.307,151.526 223.666,23.2974" stroke="#000000" stroke-dasharray="1,3,1,3,1,3,1,3" stroke-linecap="butt" stroke-linejoin="round" stroke-width="0.6"/>
   <g font-family="FreeSans" font-size="10" font-style="normal" font-weight="normal" transform="translate(225.379,31.3925) rotate(-0,-0,-4)" xml:space="preserve">
    <text fill="rgb(0,0,0)" x="0 6 9 15 " y="-0">0.26</text>
   </g>
   <polyline fill="none" points="277.307,151.526 250.951,23.2974" stroke="#000000" stroke-dasharray="1,3,1,3,1,3,1,3" stroke-linecap="butt" stroke-linejoin="round" stroke-width="0.6"/>
   <g font-family="FreeSans" font-size="10" font-style="normal" font-weight="normal" transform="translate(251.793,31.3925) rotate(-0,-0,-4)" xml:space="preserve">
    <text fill="rgb(0,0,0)" x="0 6 9 15 " y="-0">0.13</text>
   </g>
   <polyline fill="none" points="277.307,151.526 277.307,23.2974" stroke="#000000" stroke-dasharray="1,3,1,3,1,3,1,3" stroke-linecap="butt" stroke-linejoin="round" stroke-width="0.6"/>
   <g font-family="FreeSans" font-size="10" font-style="normal" font-weight="normal" transform="translate(277.307,279.66) rotate(-0,-0,-4)" xml:space="preserve">
    <text fill="rgb(0,0,0)" x="0 6 9 15 " y="-0">0.00</text>
   </g>
   <polyline fill="none" points="277.307,151.526 54.1098,170.348" stroke="#000000" stroke-dasharray="1,3,1,3,1,3,1,3" stroke-linecap="butt" stroke-linejoin="round" stroke-width="0.6"/>
   <g font-family="FreeSans" font-size="10" font-style="normal" font-weight="normal" transform="translate(59.302,173.91) rotate(-0,-0,-4)" xml:space="preserve">
    <text fill="rgb(0,0,0)" x="0 6 9 15 " y="-0">0.99</text>
   </g>
   <polyline fill="none" points="277.307,151.526 54.1098,189.834" stroke="#000000" stroke-dasharray="1,3,1,3,1,3,1,3" stroke-linecap="butt" stroke-linejoin="round" stroke-width="0.6"/>
   <g font-family="FreeSans" font-size="10" font-style="normal" font-weight="normal" transform="translate(59.302,192.943) rotate(-0,-0,-4)" xml:space="preserve">
    <text fill="rgb(0,0,0)" x="0 6 9 15 " y="-0">0.97</text>
   </g>
   <polyline fill="none" points="277.307,151.526 54.1098,210.745" stroke="#000000" stroke-dasharray="1,3,1,3,1,3,1,3" stroke-linecap="butt" stroke-linejoin="round" stroke-width="0.6"/>
   <g font-family="FreeSans" font-size="10" font-style="normal" font-weight="normal" transform="translate(59.302,213.367) rotate(-0,-0,-4)" xml:space="preserve">
    <text fill="rgb(0,0,0)" x="0 6 9 15 " y="-0">0.92</text>
   </g>
   <polyline fill="none" points="277.307,151.526 54.1098,234.068" stroke="#000000" stroke-dasharray="1,3,1,3,1,3,1,3" stroke-linecap="butt" stroke-linejoin="round" stroke-width="0.6"/>
   <g font-family="FreeSans" font-size="10" font-style="normal" font-weight="normal" transform="translate(59.302,236.148) rotate(-0,-0,-4)" xml:space="preserve">
    <text fill="rgb(0,0,0)" x="0 6 9 15 " y="-0">0.87</text>
   </g>
   <polyline fill="none" points="277.307,151.526 54.1098,261.229" stroke="#000000" stroke-dasharray="1,3,1,3,1,3,1,3" stroke-linecap="butt" stroke-linejoin="round" stroke-width="0.6"/>
   <g font-family="FreeSans" font-size="10" font-style="normal" font-weight="normal" transform="translate(59.302,262.677) rotate(-0,-0,-4)" xml:space="preserve">
    <text fill="rgb(0,0,0)" x="0 6 9 15 " y="-0">0.79</text>
   </g>
   <polyline fill="none" points="277.307,151.526 77.1184,279.755" stroke="#000000" stroke-dasharray="1,3,1,3,1,3,1,3" stroke-linecap="butt" stroke-linejoin="round" stroke-width="0.6"/>
   <g font-family="FreeSans" font-size="10" font-style="normal" font-weight="normal" transform="translate(83.5117,279.66) rotate(-0,-0,-4)" xml:space="preserve">
    <text fill="rgb(0,0,0)" x="0 6 9 15 " y="-0">0.71</text>
   </g>
   <polyline fill="none" points="277.307,151.526 123.697,279.755" stroke="#000000" stroke-dasharray="1,3,1,3,1,3,1,3" stroke-linecap="butt" stroke-linejoin="round" stroke-width="0.6"/>
   <g font-family="FreeSans" font-size="10" font-style="normal" font-weight="normal" transform="translate(128.603,279.66) rotate(-0,-0,-4)" xml:space="preserve">
    <text fill="rgb(0,0,0)" x="0 6 9 15 " y="-0">0.61</text>
   </g>
   <polyline fill="none" points="277.307,151.526 161.728,279.755" stroke="#000000" stroke-dasharray="1,3,1,3,1,3,1,3" stroke-linecap="butt" stroke-linejoin="round" stroke-width="0.6"/>
   <g font-family="FreeSans" font-size="10" font-style="normal" font-weight="normal" transform="translate(165.419,279.66) rotate(-0,-0,-4)" xml:space="preserve">
    <text fill="rgb(0,0,0)" x="0 6 9 15 " y="-0">0.50</text>
   </g>
   <polyline fill="none" points="277.307,151.526 194.386,279.755" stroke="#000000" stroke-dasharray="1,3,1,3,1,3,1,3" stroke-linecap="butt" stroke-linejoin="round" stroke-width="0.6"/>
   <g font-family="FreeSans" font-size="10" font-style="normal" font-weight="normal" transform="translate(197.034,279.66) rotate(-0,-0,-4)" xml:space="preserve">
    <text fill="rgb(0,0,0)" x="0 6 9 15 " y="-0">0.38</text>
   </g>
   <polyline fill="none" points="277.307,151.526 223.666,279.755" stroke="#000000" stroke-dasharray="1,3,1,3,1,3,1,3" stroke-linecap="butt" stroke-linejoin="round" stroke-width="0.6"/>
   <g font-family="FreeSans" font-size="10" font-style="normal" font-weight="normal" transform="translate(225.379,279.66) rotate(-0,-0,-4)" xml:space="preserve">
    <text fill="rgb(0,0,0)" x="0 6 9 15 " y="-0">0.26</text>
   </g>
   <polyline fill="none" points="277.307,151.526 250.951,279.755" stroke="#000000" stroke-dasharray="1,3,1,3,1,3,1,3" stroke-linecap="butt" stroke-linejoin="round" stroke-width="0.6"/>
   <g font-family="FreeSans" font-size="10" font-style="normal" font-weight="normal" transform="translate(251.793,279.66) rotate(-0,-0,-4)" xml:space="preserve">
    <text fill="rgb(0,0,0)" x="0 6 9 15 " y="-0">0.13</text>
   </g>
   <polyline fill="none" points="277.307,151.526 277.307,279.755" stroke="#000000" stroke-dasharray="1,3,1,3,1,3,1,3" stroke-linecap="butt" stroke-linejoin="round" stroke-width="0.6"/>
   <g font-family="FreeSans" font-size="10" font-style="normal" font-weight="normal" transform="translate(277.307,279.66) rotate(-0,-0,-4)" xml:space="preserve">
    <text fill="rgb(0,0,0)" x="0 6 9 15 " y="-0">0.00</text>
   </g>
   <polyline fill="none" points="277.307,151.526 277.307,23.2974" stroke="#000000" stroke-linecap="butt" stroke-linejoin="round" stroke-width="0.3"/>
   <polyline fill="none" points="277.307,151.526 277.307,279.755" stroke="#000000" stroke-linecap="butt" stroke-linejoin="round" stroke-width="0.3"/>
  </g>
  <clipPath id="cp00418314">
   <polygon points="0,314 418,314 418,0 0,0"/>
  </clipPath>
  <g clip-path="url(#cp00418314)">
   <polygon fill="#ffffff" points="270.894,91.9358 370.936,91.9358 370.936,31.5638 270.894,31.5638" shape-rendering="crispEdges"/>
   <polyline fill="none" points="270.894,91.9358 370.936,91.9358" stroke="#262626" stroke-dasharray="16,0" stroke-linecap="square" stroke-linejoin="miter" stroke-width="0.5"/>
   <polyline fill="none" points="270.894,31.5638 370.936,31.5638" stroke="#262626" stroke-dasharray="16,0" stroke-linecap="square" stroke-linejoin="miter" stroke-width="0.5"/>
   <polyline fill="none" points="270.894,91.9358 270.894,31.5638" stroke="#262626" stroke-dasharray="16,0" stroke-linecap="square" stroke-linejoin="miter" stroke-width="0.5"/>
   <polyline fill="none" points="370.936,91.9358 370.936,31.5638" stroke="#262626" stroke-dasharray="16,0" stroke-linecap="square" stroke-linejoin="miter" stroke-width="0.5"/>
   <polyline fill="none" points="274.899,40.5691 294.925,40.5691" stroke="#000000" stroke-dasharray="9,7" stroke-linecap="butt" stroke-linejoin="round" stroke-width="0.5"/>
   <g font-family="FreeSans" font-size="10" font-style="normal" font-weight="normal" transform="translate(298.931,45.5691) rotate(-0,-0,-5)" xml:space="preserve">
    <text fill="rgb(0,0,0)" x="0 5 10 15 23 29 32 37 40 45 " y="-2">asymptotes</text>
   </g>
   <polyline fill="none" points="274.899,54.5744 294.925,54.5744" stroke="#0000ff" stroke-linecap="butt" stroke-linejoin="round" stroke-width="2"/>
   <g font-family="FreeSans" font-size="10" font-style="normal" font-weight="normal" transform="translate(298.931,59.5744) rotate(-0,-0,-5)" xml:space="preserve">
    <text fill="rgb(0,0,0)" x="0 2 7 12 17 " y="-1">locus</text>
   </g>
   <polyline fill="none" points="280.912,65.0796 288.912,73.0796" stroke="#bf0000" stroke-linecap="square" stroke-linejoin="miter" stroke-width="2"/>
   <polyline fill="none" points="280.912,73.0796 288.912,65.0796" stroke="#bf0000" stroke-linecap="square" stroke-linejoin="miter" stroke-width="2"/>
   <g font-family="FreeSans" font-size="10" font-style="normal" font-weight="normal" transform="translate(298.931,74.5796) rotate(-0,-0,-5.5)" xml:space="preserve">
    <text fill="rgb(0,0,0)" x="0 5 11 16 21 24 26 31 36 42 45 51 56 58 63 " y="-2">open loop poles</text>
   </g>
   <polyline fill="none" points="288.912,83.2577 288.516,84.9932 287.406,86.385 285.802,87.1574 284.022,87.1574 282.418,86.385 281.308,84.9932 280.912,83.2577 281.308,81.5221 282.418,80.1304 284.022,79.358 285.802,79.358 287.406,80.1304 288.516,81.5221 288.912,83.2577" stroke="#00bf00" stroke-linecap="round" stroke-linejoin="round" stroke-width="2"/>
   <g font-family="FreeSans" font-size="10" font-style="normal" font-weight="normal" transform="translate(298.931,86.7577) rotate(-0,-0,-3.5)" xml:space="preserve">
    <text fill="rgb(0,0,0)" x="0 5 10 13 18 " y="-0">zeros</text>
   </g>
  </g>
 </g>
</svg>
