<?xml version='1.0' encoding='UTF-8' standalone='no'?>
<svg height="314pt" viewBox="0 0 418 314" width="418pt" xmlns="http://www.w3.org/2000/svg" xmlns:xlink="http://www.w3.org/1999/xlink">
 <title>Figure 1</title>
 <desc>
Creator: GL2PS 1.4.2, (C) 1999-2020 C. Geuzaine
For: Octave
CreationDate: Sun Feb  8 20:55:56 2026
</desc>
 <defs/>
 <polygon fill="#ffffff" points="0,0 418,0 418,314 0,314"/>
 <g>
  <polygon fill="#ffffff" points="0,314 418,314 418,0 0,0" shape-rendering="crispEdges"/>
  <clipPath id="cp00418314">
   <polygon points="0,314 418,314 418,0 0,0"/>
  </clipPath>
  <g clip-path="url(#cp00418314)">
   <polygon fill="#ffffff" points="54.4343,279.499 378.946,279.499 378.946,23.5533 54.4343,23.5533" shape-rendering="crispEdges"/>
   <polyline fill="none" points="54.4343,279.499 54.4343,23.5533" stroke="#262626" stroke-dasharray="16,0" stroke-linecap="butt" stroke-linejoin="miter" stroke-opacity="0.15" stroke-width="0.5"/>
   <polyline fill="none" points="126.548,279.499 126.548,23.5533" stroke="#262626" stroke-dasharray="16,0" stroke-linecap="butt" stroke-linejoin="miter" stroke-opacity="0.15" stroke-width="0.5"/>
   <polyline fill="none" points="198.662,279.499 198.662,23.5533" stroke="#262626" stroke-dasharray="16,0" stroke-linecap="butt" stroke-linejoin="miter" stroke-opacity="0.15" stroke-width="0.5"/>
   <polyline fill="none" points="270.776,279.499 270.776,23.5533" stroke="#262626" stroke-dasharray="16,0" stroke-linecap="butt" stroke-linejoin="miter" stroke-opacity="0.15" stroke-width="0.5"/>
   <polyline fill="none" points="342.889,279.499 342.889,23.5533" stroke="#262626" stroke-dasharray="16,0" stroke-linecap="butt" stroke-linejoin="miter" stroke-opacity="0.15" stroke-width="0.5"/>
   <polyline fill="none" points="54.4343,279.499 54.4343,276.255" stroke="#262626" stroke-linecap="butt" stroke-linejoin="miter" stroke-width="0.5"/>
   <polyline fill="none" points="54.4343,23.5533 54.4343,26.7977" stroke="#262626" stroke-linecap="butt" stroke-linejoin="miter" stroke-width="0.5"/>
   <polyline fill="none" points="126.548,279.499 126.548,276.255" stroke="#262626" stroke-linecap="butt" stroke-linejoin="miter" stroke-width="0.5"/>
   <polyline fill="none" points="126.548,23.5533 126.548,26.7977" stroke="#262626" stroke-linecap="butt" stroke-linejoin="miter" stroke-width="0.5"/>
   <polyline fill="none" points="198.662,279.499 198.662,276.255" stroke="#262626" stroke-linecap="butt" stroke-linejoin="miter" stroke-width="0.5"/>
   <polyline fill="none" points="198.662,23.5533 198.662,26.7977" stroke="#262626" stroke-linecap="butt" stroke-linejoin="miter" stroke-width="0.5"/>
   <polyline fill="none" points="270.776,279.499 270.776,276.255" stroke="#262626" stroke-linecap="butt" stroke-linejoin="miter" stroke-width="0.5"/>
   <polyline fill="none" points="270.776,23.5533 270.776,26.7977" stroke="#262626" stroke-linecap="butt" stroke-linejoin="miter" stroke-width="0.5"/>
   <polyline fill="none" points="342.889,279.499 342.889,276.255" stroke="#262626" stroke-linecap="butt" stroke-linejoin="miter" stroke-width="0.5"/>
   <polyline fill="none" points="342.889,23.5533 342.889,26.7977" stroke="#262626" stroke-linecap="butt" stroke-linejoin="miter" stroke-width="0.5"/>
   <g font-family="FreeSans" font-size="10" font-style="normal" font-weight="normal" transform="translate(51.4343,294.998) rotate(-0,3,-8)" xml:space="preserve">
    <text fill="rgb(38,38,38)" x="0 " y="-0">0</text>
   </g>
   <g font-family="FreeSans" font-size="10" font-style="normal" font-weight="normal" transform="translate(123.548,294.998) rotate(-0,3,-8)" xml:space="preserve">
    <text fill="rgb(38,38,38)" x="0 " y="-0">2</text>
   </g>
   <g font-family="FreeSans" font-size="10" font-style="normal" font-weight="normal" transform="translate(195.662,294.998) rotate(-0,3,-8)" xml:space="preserve">
    <text fill="rgb(38,38,38)" x="0 " y="-0">4</text>
   </g>
   <g font-family="FreeSans" font-size="10" font-style="normal" font-weight="normal" transform="translate(267.776,294.998) rotate(-0,3,-8)" xml:space="preserve">
    <text fill="rgb(38,38,38)" x="0 " y="-0">6</text>
   </g>
   <g font-family="FreeSans" font-size="10" font-style="normal" font-weight="normal" transform="translate(339.89,294.998) rotate(-0,3,-8)" xml:space="preserve">
    <text fill="rgb(38,38,38)" x="0 " y="-0">8</text>
   </g>
   <polyline fill="none" points="54.4343,267.865 378.946,267.865" stroke="#262626" stroke-dasharray="16,0" stroke-linecap="butt" stroke-linejoin="miter" stroke-opacity="0.15" stroke-width="0.5"/>
   <polyline fill="none" points="54.4343,227.049 378.946,227.049" stroke="#262626" stroke-dasharray="16,0" stroke-linecap="butt" stroke-linejoin="miter" stroke-opacity="0.15" stroke-width="0.5"/>
   <polyline fill="none" points="54.4343,186.232 378.946,186.232" stroke="#262626" stroke-dasharray="16,0" stroke-linecap="butt" stroke-linejoin="miter" stroke-opacity="0.15" stroke-width="0.5"/>
   <polyline fill="none" points="54.4343,145.415 378.946,145.415" stroke="#262626" stroke-dasharray="16,0" stroke-linecap="butt" stroke-linejoin="miter" stroke-opacity="0.15" stroke-width="0.5"/>
   <polyline fill="none" points="54.4343,104.599 378.946,104.599" stroke="#262626" stroke-dasharray="16,0" stroke-linecap="butt" stroke-linejoin="miter" stroke-opacity="0.15" stroke-width="0.5"/>
   <polyline fill="none" points="54.4343,63.7819 378.946,63.7819" stroke="#262626" stroke-dasharray="16,0" stroke-linecap="butt" stroke-linejoin="miter" stroke-opacity="0.15" stroke-width="0.5"/>
   <polyline fill="none" points="54.4343,267.865 57.6745,267.865" stroke="#262626" stroke-linecap="butt" stroke-linejoin="miter" stroke-width="0.5"/>
   <polyline fill="none" points="378.946,267.865 375.706,267.865" stroke="#262626" stroke-linecap="butt" stroke-linejoin="miter" stroke-width="0.5"/>
   <polyline fill="none" points="54.4343,227.049 57.6745,227.049" stroke="#262626" stroke-linecap="butt" stroke-linejoin="miter" stroke-width="0.5"/>
   <polyline fill="none" points="378.946,227.049 375.706,227.049" stroke="#262626" stroke-linecap="butt" stroke-linejoin="miter" stroke-width="0.5"/>
   <polyline fill="none" points="54.4343,186.232 57.6745,186.232" stroke="#262626" stroke-linecap="butt" stroke-linejoin="miter" stroke-width="0.5"/>
   <polyline fill="none" points="378.946,186.232 375.706,186.232" stroke="#262626" stroke-linecap="butt" stroke-linejoin="miter" stroke-width="0.5"/>
   <polyline fill="none" points="54.4343,145.415 57.6745,145.415" stroke="#262626" stroke-linecap="butt" stroke-linejoin="miter" stroke-width="0.5"/>
   <polyline fill="none" points="378.946,145.415 375.706,145.415" stroke="#262626" stroke-linecap="butt" stroke-linejoin="miter" stroke-width="0.5"/>
   <polyline fill="none" points="54.4343,104.599 57.6745,104.599" stroke="#262626" stroke-linecap="butt" stroke-linejoin="miter" stroke-width="0.5"/>
   <polyline fill="none" points="378.946,104.599 375.706,104.599" stroke="#262626" stroke-linecap="butt" stroke-linejoin="miter" stroke-width="0.5"/>
   <polyline fill="none" points="54.4343,63.7819 57.6745,63.7819" stroke="#262626" stroke-linecap="butt" stroke-linejoin="miter" stroke-width="0.5"/>
   <polyline fill="none" points="378.946,63.7819 375.706,63.7819" stroke="#262626" stroke-linecap="butt" stroke-linejoin="miter" stroke-width="0.5"/>
   <g font-family="FreeSans" font-size="10" font-style="normal" font-weight="normal" transform="translate(43.4418,271.865) rotate(-0,6,-4)" xml:space="preserve">
    <text fill="rgb(38,38,38)" x="0 " y="-0">0</text>
   </g>
   <g font-family="FreeSans" font-size="10" font-style="normal" font-weight="normal" transform="translate(28.4418,231.049) rotate(-0,21,-4)" xml:space="preserve">
    <text fill="rgb(38,38,38)" x="0 6 9 15 " y="-0">0.05</text>
   </g>
   <g font-family="FreeSans" font-size="10" font-style="normal" font-weight="normal" transform="translate(34.4418,190.232) rotate(-0,15,-4)" xml:space="preserve">
    <text fill="rgb(38,38,38)" x="0 6 9 " y="-0">0.1</text>
   </g>
   <g font-family="FreeSans" font-size="10" font-style="normal" font-weight="normal" transform="translate(28.4418,149.415) rotate(-0,21,-4)" xml:space="preserve">
    <text fill="rgb(38,38,38)" x="0 6 9 15 " y="-0">0.15</text>
   </g>
   <g font-family="FreeSans" font-size="10" font-style="normal" font-weight="normal" transform="translate(34.4418,108.599) rotate(-0,15,-4)" xml:space="preserve">
    <text fill="rgb(38,38,38)" x="0 6 9 " y="-0">0.2</text>
   </g>
   <g font-family="FreeSans" font-size="10" font-style="normal" font-weight="normal" transform="translate(28.4418,67.7819) rotate(-0,21,-4)" xml:space="preserve">
    <text fill="rgb(38,38,38)" x="0 6 9 15 " y="-0">0.25</text>
   </g>
   <polyline fill="none" points="54.4343,279.499 378.946,279.499" stroke="#262626" stroke-dasharray="16,0" stroke-linecap="square" stroke-linejoin="miter" stroke-width="0.5"/>
   <polyline fill="none" points="54.4343,23.5533 378.946,23.5533" stroke="#262626" stroke-dasharray="16,0" stroke-linecap="square" stroke-linejoin="miter" stroke-width="0.5"/>
   <polyline fill="none" points="54.4343,279.499 54.4343,23.5533" stroke="#262626" stroke-dasharray="16,0" stroke-linecap="square" stroke-linejoin="miter" stroke-width="0.5"/>
   <polyline fill="none" points="378.946,279.499 378.946,23.5533" stroke="#262626" stroke-dasharray="16,0" stroke-linecap="square" stroke-linejoin="miter" stroke-width="0.5"/>
   <g font-family="FreeSans" font-size="10" font-style="normal" font-weight="bold" transform="translate(118.19,13.5533) rotate(-0,98.5,0)" xml:space="preserve">
    <text fill="rgb(0,0,0)" x="0 7 10 16 22 25 29 35 41 47 53 59 65 71 74 80 83 86 92 95 102 108 114 117 120 124 130 136 142 145 151 155 158 161 167 173 179 182 185 191 " y="-2">Step response of a PT2 transfer function</text>
   </g>
   <g font-family="FreeSans" font-size="10" font-style="normal" font-weight="normal" transform="translate(17.9418,151.526) rotate(-90,5.5,0)" xml:space="preserve">
    <text fill="rgb(38,38,38)" x="0 5 " y="-2">y1</text>
   </g>
   <g font-family="FreeSans" font-size="10" font-style="normal" font-weight="normal" transform="translate(199.19,310.998) rotate(-0,17.5,-11)" xml:space="preserve">
    <text fill="rgb(38,38,38)" x="0 6 8 16 21 24 27 32 " y="-2">Time [s]</text>
   </g>
   <polyline fill="none" points="54.4343,267.865 57.6794,266.286 60.9245,261.842 64.1696,254.962 67.4148,246.057 70.6599,235.518 73.905,223.711 77.1501,210.975 80.3953,197.62 83.6404,183.926 86.8855,170.143 90.1306,156.49 93.3757,143.159 96.6209,130.311 99.866,118.077 103.111,106.568 106.356,95.8636 109.601,86.0259 112.846,77.094 116.092,69.0885 119.337,62.0137 122.582,55.8591 125.827,50.6016 129.072,46.2075 132.317,42.6343 135.562,39.8323 138.807,37.7467 142.053,36.3185 145.298,35.4861 148.543,35.1872 151.788,35.3587 155.033,35.9388 158.278,36.8669 161.523,38.0852 164.768,39.5385 168.014,41.1751 171.259,42.9472 174.504,44.8109 177.749,46.7262 180.994,48.6578 184.239,50.5744 187.484,52.4488 190.729,54.258 193.974,55.9828 197.22,57.6079 200.465,59.1212 203.71,60.5139 206.955,61.7802 210.2,62.9169 213.445,63.9231 216.69,64.8001 219.935,65.551 223.181,66.1802 226.426,66.6937 229.671,67.0983 232.916,67.4016 236.161,67.6118 239.406,67.7375 242.651,67.7875 245.896,67.7706 249.142,67.6954 252.387,67.5705 255.632,67.404 258.877,67.2037 262.122,66.977 265.367,66.7305 268.612,66.4705 271.857,66.2027 275.103,65.932 278.348,65.663 281.593,65.3995 284.838,65.1448 288.083,64.9017 291.328,64.6723 294.573,64.4583 297.818,64.2612 301.064,64.0817 304.309,63.9203 307.554,63.7773 310.799,63.6523 314.044,63.5451 317.289,63.455 320.534,63.3813 323.779,63.3229 327.024,63.2788 330.27,63.2479 333.515,63.229 336.76,63.2209 340.005,63.2223 343.25,63.2319 346.495,63.2487 349.74,63.2714 352.985,63.299 356.231,63.3304 359.476,63.3647 362.721,63.4009 365.966,63.4383 369.211,63.4763 372.456,63.514 375.701,63.5511 378.946,63.5869" stroke="#0071bc" stroke-linecap="butt" stroke-linejoin="round" stroke-width="0.5"/>
  </g>
 </g>
</svg>
