<?xml version='1.0' encoding='UTF-8' standalone='no'?>
<svg height="360pt" viewBox="0 0 480 360" width="480pt" xmlns="http://www.w3.org/2000/svg" xmlns:xlink="http://www.w3.org/1999/xlink">
 <title>Figure 1</title>
 <desc>
Creator: GL2PS 1.4.2, (C) 1999-2020 C. Geuzaine
For: Octave
CreationDate: Wed Mar 11 06:48:09 2026
</desc>
 <defs/>
 <polygon fill="#ffffff" points="0,0 480,0 480,360 0,360"/>
 <g>
  <polygon fill="#ffffff" points="0,360 480,360 480,0 0,0" shape-rendering="crispEdges"/>
  <clipPath id="cp00480360">
   <polygon points="0,360 480,360 480,0 0,0"/>
  </clipPath>
  <g clip-path="url(#cp00480360)">
   <polygon fill="#ffffff" points="62.4,148.834 434.4,148.834 434.4,44.1339 62.4,44.1339" shape-rendering="crispEdges"/>
   <polyline fill="none" points="62.4,148.834 62.4,44.1339" stroke="#262626" stroke-dasharray="16,0" stroke-linecap="butt" stroke-linejoin="miter" stroke-opacity="0.15" stroke-width="0.5"/>
   <polyline fill="none" points="155.4,148.834 155.4,44.1339" stroke="#262626" stroke-dasharray="16,0" stroke-linecap="butt" stroke-linejoin="miter" stroke-opacity="0.15" stroke-width="0.5"/>
   <polyline fill="none" points="248.4,148.834 248.4,44.1339" stroke="#262626" stroke-dasharray="16,0" stroke-linecap="butt" stroke-linejoin="miter" stroke-opacity="0.15" stroke-width="0.5"/>
   <polyline fill="none" points="341.4,148.834 341.4,44.1339" stroke="#262626" stroke-dasharray="16,0" stroke-linecap="butt" stroke-linejoin="miter" stroke-opacity="0.15" stroke-width="0.5"/>
   <polyline fill="none" points="434.4,148.834 434.4,44.1339" stroke="#262626" stroke-dasharray="16,0" stroke-linecap="butt" stroke-linejoin="miter" stroke-opacity="0.15" stroke-width="0.5"/>
   <polyline fill="none" points="62.4,148.834 62.4,145.124" stroke="#262626" stroke-linecap="butt" stroke-linejoin="miter" stroke-width="0.5"/>
   <polyline fill="none" points="62.4,44.1339 62.4,47.8432" stroke="#262626" stroke-linecap="butt" stroke-linejoin="miter" stroke-width="0.5"/>
   <polyline fill="none" points="155.4,148.834 155.4,145.124" stroke="#262626" stroke-linecap="butt" stroke-linejoin="miter" stroke-width="0.5"/>
   <polyline fill="none" points="155.4,44.1339 155.4,47.8432" stroke="#262626" stroke-linecap="butt" stroke-linejoin="miter" stroke-width="0.5"/>
   <polyline fill="none" points="248.4,148.834 248.4,145.124" stroke="#262626" stroke-linecap="butt" stroke-linejoin="miter" stroke-width="0.5"/>
   <polyline fill="none" points="248.4,44.1339 248.4,47.8432" stroke="#262626" stroke-linecap="butt" stroke-linejoin="miter" stroke-width="0.5"/>
   <polyline fill="none" points="341.4,148.834 341.4,145.124" stroke="#262626" stroke-linecap="butt" stroke-linejoin="miter" stroke-width="0.5"/>
   <polyline fill="none" points="341.4,44.1339 341.4,47.8432" stroke="#262626" stroke-linecap="butt" stroke-linejoin="miter" stroke-width="0.5"/>
   <polyline fill="none" points="434.4,148.834 434.4,145.124" stroke="#262626" stroke-linecap="butt" stroke-linejoin="miter" stroke-width="0.5"/>
   <polyline fill="none" points="434.4,44.1339 434.4,47.8432" stroke="#262626" stroke-linecap="butt" stroke-linejoin="miter" stroke-width="0.5"/>
   <g font-family="FreeSans" font-size="11.6513" font-style="normal" font-weight="normal" transform="translate(59.4,167.547) rotate(-0,3,-10)" xml:space="preserve">
    <text fill="rgb(38,38,38)" x="0 " y="-0">0</text>
   </g>
   <g font-family="FreeSans" font-size="11.6513" font-style="normal" font-weight="normal" transform="translate(152.4,167.547) rotate(-0,3,-10)" xml:space="preserve">
    <text fill="rgb(38,38,38)" x="0 " y="-0">2</text>
   </g>
   <g font-family="FreeSans" font-size="11.6513" font-style="normal" font-weight="normal" transform="translate(245.4,167.547) rotate(-0,3,-10)" xml:space="preserve">
    <text fill="rgb(38,38,38)" x="0 " y="-0">4</text>
   </g>
   <g font-family="FreeSans" font-size="11.6513" font-style="normal" font-weight="normal" transform="translate(338.4,167.547) rotate(-0,3,-10)" xml:space="preserve">
    <text fill="rgb(38,38,38)" x="0 " y="-0">6</text>
   </g>
   <g font-family="FreeSans" font-size="11.6513" font-style="normal" font-weight="normal" transform="translate(431.4,167.547) rotate(-0,3,-10)" xml:space="preserve">
    <text fill="rgb(38,38,38)" x="0 " y="-0">8</text>
   </g>
   <polyline fill="none" points="62.4,144.075 434.4,144.075" stroke="#262626" stroke-dasharray="16,0" stroke-linecap="butt" stroke-linejoin="miter" stroke-opacity="0.15" stroke-width="0.5"/>
   <polyline fill="none" points="62.4,120.553 434.4,120.553" stroke="#262626" stroke-dasharray="16,0" stroke-linecap="butt" stroke-linejoin="miter" stroke-opacity="0.15" stroke-width="0.5"/>
   <polyline fill="none" points="62.4,97.0305 434.4,97.0305" stroke="#262626" stroke-dasharray="16,0" stroke-linecap="butt" stroke-linejoin="miter" stroke-opacity="0.15" stroke-width="0.5"/>
   <polyline fill="none" points="62.4,73.5083 434.4,73.5083" stroke="#262626" stroke-dasharray="16,0" stroke-linecap="butt" stroke-linejoin="miter" stroke-opacity="0.15" stroke-width="0.5"/>
   <polyline fill="none" points="62.4,49.9862 434.4,49.9862" stroke="#262626" stroke-dasharray="16,0" stroke-linecap="butt" stroke-linejoin="miter" stroke-opacity="0.15" stroke-width="0.5"/>
   <polyline fill="none" points="62.4,144.075 66.12,144.075" stroke="#262626" stroke-linecap="butt" stroke-linejoin="miter" stroke-width="0.5"/>
   <polyline fill="none" points="434.4,144.075 430.68,144.075" stroke="#262626" stroke-linecap="butt" stroke-linejoin="miter" stroke-width="0.5"/>
   <polyline fill="none" points="62.4,120.553 66.12,120.553" stroke="#262626" stroke-linecap="butt" stroke-linejoin="miter" stroke-width="0.5"/>
   <polyline fill="none" points="434.4,120.553 430.68,120.553" stroke="#262626" stroke-linecap="butt" stroke-linejoin="miter" stroke-width="0.5"/>
   <polyline fill="none" points="62.4,97.0305 66.12,97.0305" stroke="#262626" stroke-linecap="butt" stroke-linejoin="miter" stroke-width="0.5"/>
   <polyline fill="none" points="434.4,97.0305 430.68,97.0305" stroke="#262626" stroke-linecap="butt" stroke-linejoin="miter" stroke-width="0.5"/>
   <polyline fill="none" points="62.4,73.5083 66.12,73.5083" stroke="#262626" stroke-linecap="butt" stroke-linejoin="miter" stroke-width="0.5"/>
   <polyline fill="none" points="434.4,73.5083 430.68,73.5083" stroke="#262626" stroke-linecap="butt" stroke-linejoin="miter" stroke-width="0.5"/>
   <polyline fill="none" points="62.4,49.9862 66.12,49.9862" stroke="#262626" stroke-linecap="butt" stroke-linejoin="miter" stroke-width="0.5"/>
   <polyline fill="none" points="434.4,49.9862 430.68,49.9862" stroke="#262626" stroke-linecap="butt" stroke-linejoin="miter" stroke-width="0.5"/>
   <g font-family="FreeSans" font-size="11.6513" font-style="normal" font-weight="normal" transform="translate(46.5743,149.075) rotate(-0,10,-5)" xml:space="preserve">
    <text fill="rgb(38,38,38)" x="0 4 " y="-0">-1</text>
   </g>
   <g font-family="FreeSans" font-size="11.6513" font-style="normal" font-weight="normal" transform="translate(37.5743,125.553) rotate(-0,19,-5)" xml:space="preserve">
    <text fill="rgb(38,38,38)" x="0 4 10 13 " y="-0">-0.5</text>
   </g>
   <g font-family="FreeSans" font-size="11.6513" font-style="normal" font-weight="normal" transform="translate(50.5743,102.03) rotate(-0,6,-5)" xml:space="preserve">
    <text fill="rgb(38,38,38)" x="0 " y="-0">0</text>
   </g>
   <g font-family="FreeSans" font-size="11.6513" font-style="normal" font-weight="normal" transform="translate(41.5743,78.5083) rotate(-0,15,-5)" xml:space="preserve">
    <text fill="rgb(38,38,38)" x="0 6 9 " y="-0">0.5</text>
   </g>
   <g font-family="FreeSans" font-size="11.6513" font-style="normal" font-weight="normal" transform="translate(50.5743,54.9862) rotate(-0,6,-5)" xml:space="preserve">
    <text fill="rgb(38,38,38)" x="0 " y="-0">1</text>
   </g>
   <polyline fill="none" points="62.4,148.834 434.4,148.834" stroke="#262626" stroke-dasharray="16,0" stroke-linecap="square" stroke-linejoin="miter" stroke-width="0.5"/>
   <polyline fill="none" points="62.4,44.1339 434.4,44.1339" stroke="#262626" stroke-dasharray="16,0" stroke-linecap="square" stroke-linejoin="miter" stroke-width="0.5"/>
   <polyline fill="none" points="62.4,148.834 62.4,44.1339" stroke="#262626" stroke-dasharray="16,0" stroke-linecap="square" stroke-linejoin="miter" stroke-width="0.5"/>
   <polyline fill="none" points="434.4,148.834 434.4,44.1339" stroke="#262626" stroke-dasharray="16,0" stroke-linecap="square" stroke-linejoin="miter" stroke-width="0.5"/>
   <g font-family="FreeSans" font-size="12.8165" font-style="normal" font-weight="bold" transform="translate(107.4,34.1338) rotate(-0,141,0)" xml:space="preserve">
    <text fill="rgb(0,0,0)" x="0 9 13 20 28 32 37 44 51 59 67 75 82 89 93 100 103 106 110 118 125 132 139 146 153 157 165 169 173 180 187 191 195 202 210 218 222 229 237 245 249 257 262 270 277 " y="-3">Step response all-passes of 1st and 2nd order</text>
   </g>
   <g font-family="FreeSans" font-size="12.8165" font-style="normal" font-weight="normal" transform="translate(26.0743,96.4838) rotate(-90,6.5,0)" xml:space="preserve">
    <text fill="rgb(38,38,38)" x="0 6 " y="-3">y1</text>
   </g>
   <g font-family="FreeSans" font-size="12.8165" font-style="normal" font-weight="normal" transform="translate(225.9,186.547) rotate(-0,22.5,-14)" xml:space="preserve">
    <text fill="rgb(38,38,38)" x="0 8 11 21 28 31 35 41 " y="-3">Time [s]</text>
   </g>
   <polyline fill="none" points="62.4,144.075 66.12,138.242 69.84,132.77 73.56,127.638 77.28,122.824 81,118.309 84.72,114.073 88.44,110.1 92.16,106.373 95.88,102.877 99.6,99.5984 103.32,96.5227 107.04,93.6376 110.76,90.9315 114.48,88.3931 118.2,86.012 121.92,83.7786 125.64,81.6837 129.36,79.7186 133.08,77.8753 136.8,76.1463 140.52,74.5245 144.24,73.0033 147.96,71.5763 151.68,70.2379 155.4,68.9824 159.12,67.8047 162.84,66.7 166.56,65.6639 170.28,64.6919 174,63.7802 177.72,62.9251 181.44,62.123 185.16,61.3705 188.88,60.6648 192.6,60.0027 196.32,59.3817 200.04,58.7993 203.76,58.2529 207.48,57.7404 211.2,57.2597 214.92,56.8088 218.64,56.3858 222.36,55.9891 226.08,55.6169 229.8,55.2679 233.52,54.9404 237.24,54.6333 240.96,54.3452 244.68,54.075 248.4,53.8215 252.12,53.5837 255.84,53.3607 259.56,53.1515 263.28,52.9552 267,52.7712 270.72,52.5985 274.44,52.4366 278.16,52.2847 281.88,52.1422 285.6,52.0085 289.32,51.8831 293.04,51.7655 296.76,51.6552 300.48,51.5518 304.2,51.4547 307.92,51.3636 311.64,51.2783 315.36,51.1982 319.08,51.123 322.8,51.0526 326.52,50.9865 330.24,50.9244 333.96,50.8663 337.68,50.8117 341.4,50.7605 345.12,50.7125 348.84,50.6675 352.56,50.6253 356.28,50.5856 360,50.5485 363.72,50.5136 367.44,50.4809 371.16,50.4503 374.88,50.4215 378.6,50.3945 382.32,50.3692 386.04,50.3455 389.76,50.3232 393.48,50.3023 397.2,50.2827 400.92,50.2643 404.64,50.2471 408.36,50.2309 412.08,50.2157 415.8,50.2015 419.52,50.1881 423.24,50.1756 426.96,50.1639 430.68,50.1529 434.4,50.1425" stroke="#0071bc" stroke-linecap="butt" stroke-linejoin="round" stroke-width="0.5"/>
   <polyline fill="none" points="62.4,49.9862 66.12,80.6764 69.84,99.6383 73.56,109.744 77.28,113.382 81,112.495 84.72,108.62 88.44,102.947 92.16,96.3646 95.88,89.5192 99.6,82.8563 103.32,76.6654 107.04,71.1157 110.76,66.287 114.48,62.1949 118.2,58.8113 121.92,56.0802 125.64,53.9297 129.36,52.2813 133.08,51.0559 136.8,50.1784 140.52,49.5801 144.24,49.2003 147.96,48.987 151.68,48.8965 155.4,48.8929 159.12,48.9479 162.84,49.0392 166.56,49.1502 170.28,49.2684 174,49.3853 177.72,49.4952 181.44,49.5946 185.16,49.6818 188.88,49.7562 192.6,49.8182 196.32,49.8685 200.04,49.9084 203.76,49.9393 207.48,49.9624 211.2,49.9792 214.92,49.9908 218.64,49.9983 222.36,50.0027 226.08,50.0048 229.8,50.0052 233.52,50.0045 237.24,50.0031 240.96,50.0013 244.68,49.9992 248.4,49.9972 252.12,49.9952 255.84,49.9935 259.56,49.9919 263.28,49.9905 267,49.9894 270.72,49.9885 274.44,49.9877 278.16,49.9872 281.88,49.9867 285.6,49.9864 289.32,49.9862 293.04,49.986 296.76,49.986 300.48,49.9859 304.2,49.9859 307.92,49.9859 311.64,49.9859 315.36,49.986 319.08,49.986 322.8,49.986 326.52,49.9861 330.24,49.9861 333.96,49.9861 337.68,49.9861 341.4,49.9861 345.12,49.9862 348.84,49.9862 352.56,49.9862 356.28,49.9862 360,49.9862 363.72,49.9862 367.44,49.9862 371.16,49.9862 374.88,49.9862 378.6,49.9862 382.32,49.9862 386.04,49.9862 389.76,49.9862 393.48,49.9862 397.2,49.9862 400.92,49.9862 404.64,49.9862 408.36,49.9862 412.08,49.9862 415.8,49.9862 419.52,49.9862 423.24,49.9862 426.96,49.9862 430.68,49.9862 434.4,49.9862" stroke="#d85218" stroke-linecap="butt" stroke-linejoin="round" stroke-width="0.5"/>
  </g>
  <clipPath id="cp00480360">
   <polygon points="0,360 480,360 480,0 0,0"/>
  </clipPath>
  <g clip-path="url(#cp00480360)">
   <polygon fill="#ffffff" points="380.347,84.1602 426.389,84.1602 426.389,52.1443 380.347,52.1443" shape-rendering="crispEdges"/>
   <polyline fill="none" points="380.347,84.1602 426.389,84.1602" stroke="#262626" stroke-dasharray="16,0" stroke-linecap="square" stroke-linejoin="miter" stroke-width="0.5"/>
   <polyline fill="none" points="380.347,52.1443 426.389,52.1443" stroke="#262626" stroke-dasharray="16,0" stroke-linecap="square" stroke-linejoin="miter" stroke-width="0.5"/>
   <polyline fill="none" points="380.347,84.1602 380.347,52.1443" stroke="#262626" stroke-dasharray="16,0" stroke-linecap="square" stroke-linejoin="miter" stroke-width="0.5"/>
   <polyline fill="none" points="426.389,84.1602 426.389,52.1443" stroke="#262626" stroke-dasharray="16,0" stroke-linecap="square" stroke-linejoin="miter" stroke-width="0.5"/>
   <polyline fill="none" points="384.353,61.1496 404.379,61.1496" stroke="#0071bc" stroke-linecap="butt" stroke-linejoin="round" stroke-width="0.5"/>
   <g font-family="FreeSans" font-size="10.4862" font-style="normal" font-weight="normal" transform="translate(408.384,66.1496) rotate(-0,-0,-5)" xml:space="preserve">
    <text fill="rgb(0,0,0)" x="0 8 " y="-1">G1</text>
   </g>
   <polyline fill="none" points="384.353,75.1549 404.379,75.1549" stroke="#d85218" stroke-linecap="butt" stroke-linejoin="round" stroke-width="0.5"/>
   <g font-family="FreeSans" font-size="10.4862" font-style="normal" font-weight="normal" transform="translate(408.384,80.1549) rotate(-0,-0,-5)" xml:space="preserve">
    <text fill="rgb(0,0,0)" x="0 8 " y="-1">G2</text>
   </g>
  </g>
  <clipPath id="cp00480360">
   <polygon points="0,360 480,360 480,0 0,0"/>
  </clipPath>
  <g clip-path="url(#cp00480360)">
   <polygon fill="#ffffff" points="62.4,320.4 434.4,320.4 434.4,215.7 62.4,215.7" shape-rendering="crispEdges"/>
   <polyline fill="none" points="62.4,320.4 62.4,215.7" stroke="#262626" stroke-dasharray="16,0" stroke-linecap="butt" stroke-linejoin="miter" stroke-opacity="0.15" stroke-width="0.5"/>
   <polyline fill="none" points="155.4,320.4 155.4,215.7" stroke="#262626" stroke-dasharray="16,0" stroke-linecap="butt" stroke-linejoin="miter" stroke-opacity="0.15" stroke-width="0.5"/>
   <polyline fill="none" points="248.4,320.4 248.4,215.7" stroke="#262626" stroke-dasharray="16,0" stroke-linecap="butt" stroke-linejoin="miter" stroke-opacity="0.15" stroke-width="0.5"/>
   <polyline fill="none" points="341.4,320.4 341.4,215.7" stroke="#262626" stroke-dasharray="16,0" stroke-linecap="butt" stroke-linejoin="miter" stroke-opacity="0.15" stroke-width="0.5"/>
   <polyline fill="none" points="434.4,320.4 434.4,215.7" stroke="#262626" stroke-dasharray="16,0" stroke-linecap="butt" stroke-linejoin="miter" stroke-opacity="0.15" stroke-width="0.5"/>
   <polyline fill="none" points="62.4,320.4 62.4,316.691" stroke="#262626" stroke-linecap="butt" stroke-linejoin="miter" stroke-width="0.5"/>
   <polyline fill="none" points="62.4,215.7 62.4,219.409" stroke="#262626" stroke-linecap="butt" stroke-linejoin="miter" stroke-width="0.5"/>
   <polyline fill="none" points="155.4,320.4 155.4,316.691" stroke="#262626" stroke-linecap="butt" stroke-linejoin="miter" stroke-width="0.5"/>
   <polyline fill="none" points="155.4,215.7 155.4,219.409" stroke="#262626" stroke-linecap="butt" stroke-linejoin="miter" stroke-width="0.5"/>
   <polyline fill="none" points="248.4,320.4 248.4,316.691" stroke="#262626" stroke-linecap="butt" stroke-linejoin="miter" stroke-width="0.5"/>
   <polyline fill="none" points="248.4,215.7 248.4,219.409" stroke="#262626" stroke-linecap="butt" stroke-linejoin="miter" stroke-width="0.5"/>
   <polyline fill="none" points="341.4,320.4 341.4,316.691" stroke="#262626" stroke-linecap="butt" stroke-linejoin="miter" stroke-width="0.5"/>
   <polyline fill="none" points="341.4,215.7 341.4,219.409" stroke="#262626" stroke-linecap="butt" stroke-linejoin="miter" stroke-width="0.5"/>
   <polyline fill="none" points="434.4,320.4 434.4,316.691" stroke="#262626" stroke-linecap="butt" stroke-linejoin="miter" stroke-width="0.5"/>
   <polyline fill="none" points="434.4,215.7 434.4,219.409" stroke="#262626" stroke-linecap="butt" stroke-linejoin="miter" stroke-width="0.5"/>
   <g font-family="FreeSans" font-size="11.6513" font-style="normal" font-weight="normal" transform="translate(59.4,339.114) rotate(-0,3,-10)" xml:space="preserve">
    <text fill="rgb(38,38,38)" x="0 " y="-0">0</text>
   </g>
   <g font-family="FreeSans" font-size="11.6513" font-style="normal" font-weight="normal" transform="translate(152.4,339.114) rotate(-0,3,-10)" xml:space="preserve">
    <text fill="rgb(38,38,38)" x="0 " y="-0">2</text>
   </g>
   <g font-family="FreeSans" font-size="11.6513" font-style="normal" font-weight="normal" transform="translate(245.4,339.114) rotate(-0,3,-10)" xml:space="preserve">
    <text fill="rgb(38,38,38)" x="0 " y="-0">4</text>
   </g>
   <g font-family="FreeSans" font-size="11.6513" font-style="normal" font-weight="normal" transform="translate(338.4,339.114) rotate(-0,3,-10)" xml:space="preserve">
    <text fill="rgb(38,38,38)" x="0 " y="-0">6</text>
   </g>
   <g font-family="FreeSans" font-size="11.6513" font-style="normal" font-weight="normal" transform="translate(431.4,339.114) rotate(-0,3,-10)" xml:space="preserve">
    <text fill="rgb(38,38,38)" x="0 " y="-0">8</text>
   </g>
   <polyline fill="none" points="62.4,315.641 434.4,315.641" stroke="#262626" stroke-dasharray="16,0" stroke-linecap="butt" stroke-linejoin="miter" stroke-opacity="0.15" stroke-width="0.5"/>
   <polyline fill="none" points="62.4,302.123 434.4,302.123" stroke="#262626" stroke-dasharray="16,0" stroke-linecap="butt" stroke-linejoin="miter" stroke-opacity="0.15" stroke-width="0.5"/>
   <polyline fill="none" points="62.4,288.605 434.4,288.605" stroke="#262626" stroke-dasharray="16,0" stroke-linecap="butt" stroke-linejoin="miter" stroke-opacity="0.15" stroke-width="0.5"/>
   <polyline fill="none" points="62.4,275.086 434.4,275.086" stroke="#262626" stroke-dasharray="16,0" stroke-linecap="butt" stroke-linejoin="miter" stroke-opacity="0.15" stroke-width="0.5"/>
   <polyline fill="none" points="62.4,261.568 434.4,261.568" stroke="#262626" stroke-dasharray="16,0" stroke-linecap="butt" stroke-linejoin="miter" stroke-opacity="0.15" stroke-width="0.5"/>
   <polyline fill="none" points="62.4,248.05 434.4,248.05" stroke="#262626" stroke-dasharray="16,0" stroke-linecap="butt" stroke-linejoin="miter" stroke-opacity="0.15" stroke-width="0.5"/>
   <polyline fill="none" points="62.4,234.532 434.4,234.532" stroke="#262626" stroke-dasharray="16,0" stroke-linecap="butt" stroke-linejoin="miter" stroke-opacity="0.15" stroke-width="0.5"/>
   <polyline fill="none" points="62.4,221.014 434.4,221.014" stroke="#262626" stroke-dasharray="16,0" stroke-linecap="butt" stroke-linejoin="miter" stroke-opacity="0.15" stroke-width="0.5"/>
   <polyline fill="none" points="62.4,315.641 66.12,315.641" stroke="#262626" stroke-linecap="butt" stroke-linejoin="miter" stroke-width="0.5"/>
   <polyline fill="none" points="434.4,315.641 430.68,315.641" stroke="#262626" stroke-linecap="butt" stroke-linejoin="miter" stroke-width="0.5"/>
   <polyline fill="none" points="62.4,302.123 66.12,302.123" stroke="#262626" stroke-linecap="butt" stroke-linejoin="miter" stroke-width="0.5"/>
   <polyline fill="none" points="434.4,302.123 430.68,302.123" stroke="#262626" stroke-linecap="butt" stroke-linejoin="miter" stroke-width="0.5"/>
   <polyline fill="none" points="62.4,288.605 66.12,288.605" stroke="#262626" stroke-linecap="butt" stroke-linejoin="miter" stroke-width="0.5"/>
   <polyline fill="none" points="434.4,288.605 430.68,288.605" stroke="#262626" stroke-linecap="butt" stroke-linejoin="miter" stroke-width="0.5"/>
   <polyline fill="none" points="62.4,275.086 66.12,275.086" stroke="#262626" stroke-linecap="butt" stroke-linejoin="miter" stroke-width="0.5"/>
   <polyline fill="none" points="434.4,275.086 430.68,275.086" stroke="#262626" stroke-linecap="butt" stroke-linejoin="miter" stroke-width="0.5"/>
   <polyline fill="none" points="62.4,261.568 66.12,261.568" stroke="#262626" stroke-linecap="butt" stroke-linejoin="miter" stroke-width="0.5"/>
   <polyline fill="none" points="434.4,261.568 430.68,261.568" stroke="#262626" stroke-linecap="butt" stroke-linejoin="miter" stroke-width="0.5"/>
   <polyline fill="none" points="62.4,248.05 66.12,248.05" stroke="#262626" stroke-linecap="butt" stroke-linejoin="miter" stroke-width="0.5"/>
   <polyline fill="none" points="434.4,248.05 430.68,248.05" stroke="#262626" stroke-linecap="butt" stroke-linejoin="miter" stroke-width="0.5"/>
   <polyline fill="none" points="62.4,234.532 66.12,234.532" stroke="#262626" stroke-linecap="butt" stroke-linejoin="miter" stroke-width="0.5"/>
   <polyline fill="none" points="434.4,234.532 430.68,234.532" stroke="#262626" stroke-linecap="butt" stroke-linejoin="miter" stroke-width="0.5"/>
   <polyline fill="none" points="62.4,221.014 66.12,221.014" stroke="#262626" stroke-linecap="butt" stroke-linejoin="miter" stroke-width="0.5"/>
   <polyline fill="none" points="434.4,221.014 430.68,221.014" stroke="#262626" stroke-linecap="butt" stroke-linejoin="miter" stroke-width="0.5"/>
   <g font-family="FreeSans" font-size="11.6513" font-style="normal" font-weight="normal" transform="translate(50.5743,320.641) rotate(-0,6,-5)" xml:space="preserve">
    <text fill="rgb(38,38,38)" x="0 " y="-0">0</text>
   </g>
   <g font-family="FreeSans" font-size="11.6513" font-style="normal" font-weight="normal" transform="translate(41.5743,307.123) rotate(-0,15,-5)" xml:space="preserve">
    <text fill="rgb(38,38,38)" x="0 6 9 " y="-0">0.2</text>
   </g>
   <g font-family="FreeSans" font-size="11.6513" font-style="normal" font-weight="normal" transform="translate(41.5743,293.605) rotate(-0,15,-5)" xml:space="preserve">
    <text fill="rgb(38,38,38)" x="0 6 9 " y="-0">0.4</text>
   </g>
   <g font-family="FreeSans" font-size="11.6513" font-style="normal" font-weight="normal" transform="translate(41.5743,280.086) rotate(-0,15,-5)" xml:space="preserve">
    <text fill="rgb(38,38,38)" x="0 6 9 " y="-0">0.6</text>
   </g>
   <g font-family="FreeSans" font-size="11.6513" font-style="normal" font-weight="normal" transform="translate(41.5743,266.568) rotate(-0,15,-5)" xml:space="preserve">
    <text fill="rgb(38,38,38)" x="0 6 9 " y="-0">0.8</text>
   </g>
   <g font-family="FreeSans" font-size="11.6513" font-style="normal" font-weight="normal" transform="translate(50.5743,253.05) rotate(-0,6,-5)" xml:space="preserve">
    <text fill="rgb(38,38,38)" x="0 " y="-0">1</text>
   </g>
   <g font-family="FreeSans" font-size="11.6513" font-style="normal" font-weight="normal" transform="translate(41.5743,239.532) rotate(-0,15,-5)" xml:space="preserve">
    <text fill="rgb(38,38,38)" x="0 6 9 " y="-0">1.2</text>
   </g>
   <g font-family="FreeSans" font-size="11.6513" font-style="normal" font-weight="normal" transform="translate(41.5743,226.014) rotate(-0,15,-5)" xml:space="preserve">
    <text fill="rgb(38,38,38)" x="0 6 9 " y="-0">1.4</text>
   </g>
   <polyline fill="none" points="62.4,320.4 434.4,320.4" stroke="#262626" stroke-dasharray="16,0" stroke-linecap="square" stroke-linejoin="miter" stroke-width="0.5"/>
   <polyline fill="none" points="62.4,215.7 434.4,215.7" stroke="#262626" stroke-dasharray="16,0" stroke-linecap="square" stroke-linejoin="miter" stroke-width="0.5"/>
   <polyline fill="none" points="62.4,320.4 62.4,215.7" stroke="#262626" stroke-dasharray="16,0" stroke-linecap="square" stroke-linejoin="miter" stroke-width="0.5"/>
   <polyline fill="none" points="434.4,320.4 434.4,215.7" stroke="#262626" stroke-dasharray="16,0" stroke-linecap="square" stroke-linejoin="miter" stroke-width="0.5"/>
   <g font-family="FreeSans" font-size="12.8165" font-style="normal" font-weight="bold" transform="translate(118.4,205.7) rotate(-0,130,0)" xml:space="preserve">
    <text fill="rgb(0,0,0)" x="0 9 13 20 28 32 37 44 51 59 67 75 82 89 93 102 " y="-3">Step response PT</text>
    <text fill="rgb(0,0,0)" font-size="8.97153" x="110 " y="-1">2</text>
    <text fill="rgb(0,0,0)" x="115 119 129 133 137 145 149 156 164 172 176 184 188 195 202 207 214 218 222 229 236 240 244 252 " y="-3"> with zoh-discretization</text>
   </g>
   <g font-family="FreeSans" font-size="12.8165" font-style="normal" font-weight="normal" transform="translate(30.0743,268.05) rotate(-90,6.5,0)" xml:space="preserve">
    <text fill="rgb(38,38,38)" x="0 6 " y="-3">y1</text>
   </g>
   <g font-family="FreeSans" font-size="12.8165" font-style="normal" font-weight="normal" transform="translate(225.9,358.114) rotate(-0,22.5,-14)" xml:space="preserve">
    <text fill="rgb(38,38,38)" x="0 8 11 21 28 31 35 41 " y="-3">Time [s]</text>
   </g>
   <polyline fill="none" points="62.4,315.641 66.12,314.94 69.84,312.924 73.56,309.735 77.28,305.529 81,300.47 84.72,294.728 88.44,288.471 92.16,281.868 95.88,275.081 99.6,268.262 103.32,261.554 107.04,255.085 110.76,248.97 114.48,243.306 118.2,238.174 121.92,233.64 125.64,229.748 129.36,226.531 133.08,224.001 136.8,222.158 140.52,220.987 144.24,220.459 147.96,220.537 151.68,221.172 155.4,222.308 159.12,223.883 162.84,225.832 166.56,228.086 170.28,230.575 174,233.231 177.72,235.985 181.44,238.775 185.16,241.54 188.88,244.226 192.6,246.783 196.32,249.17 200.04,251.35 203.76,253.296 207.48,254.984 211.2,256.4 214.92,257.537 218.64,258.392 222.36,258.97 226.08,259.28 229.8,259.336 233.52,259.157 237.24,258.764 240.96,258.183 244.68,257.438 248.4,256.559 252.12,255.573 255.84,254.509 259.56,253.395 263.28,252.257 267,251.12 270.72,250.008 274.44,248.941 278.16,247.938 281.88,247.015 285.6,246.183 289.32,245.454 293.04,244.834 296.76,244.328 300.48,243.936 304.2,243.659 307.92,243.493 311.64,243.433 315.36,243.472 319.08,243.602 322.8,243.813 326.52,244.094 330.24,244.435 333.96,244.824 337.68,245.248 341.4,245.698 345.12,246.161 348.84,246.627 352.56,247.086 356.28,247.53 360,247.95 363.72,248.34 367.44,248.694 371.16,249.008 374.88,249.278 378.6,249.502 382.32,249.679 386.04,249.809 389.76,249.893 393.48,249.933 397.2,249.932 400.92,249.892 404.64,249.817 408.36,249.712 412.08,249.581 415.8,249.429 419.52,249.26 423.24,249.079 426.96,248.892 430.68,248.701 434.4,248.512" stroke="#0071bc" stroke-linecap="butt" stroke-linejoin="round" stroke-width="0.5"/>
   <polyline fill="none" points="62.4,315.641 93.4016,315.641 93.4016,279.616 124.403,279.616 124.403,230.969 155.405,230.969 155.405,222.309 186.406,222.309 186.406,242.451 217.408,242.451 217.408,258.14 248.409,258.14 248.409,256.557 279.411,256.557 279.411,247.618 310.412,247.618 310.412,243.442 341.414,243.442 341.414,245.699 372.415,245.699 372.415,249.104 403.417,249.104 403.417,249.845" stroke="#d85218" stroke-linecap="butt" stroke-linejoin="round" stroke-width="0.5"/>
  </g>
  <clipPath id="cp00480360">
   <polygon points="0,360 480,360 480,0 0,0"/>
  </clipPath>
  <g clip-path="url(#cp00480360)">
   <polygon fill="#ffffff" points="380.347,255.726 426.389,255.726 426.389,223.711 380.347,223.711" shape-rendering="crispEdges"/>
   <polyline fill="none" points="380.347,255.726 426.389,255.726" stroke="#262626" stroke-dasharray="16,0" stroke-linecap="square" stroke-linejoin="miter" stroke-width="0.5"/>
   <polyline fill="none" points="380.347,223.711 426.389,223.711" stroke="#262626" stroke-dasharray="16,0" stroke-linecap="square" stroke-linejoin="miter" stroke-width="0.5"/>
   <polyline fill="none" points="380.347,255.726 380.347,223.711" stroke="#262626" stroke-dasharray="16,0" stroke-linecap="square" stroke-linejoin="miter" stroke-width="0.5"/>
   <polyline fill="none" points="426.389,255.726 426.389,223.711" stroke="#262626" stroke-dasharray="16,0" stroke-linecap="square" stroke-linejoin="miter" stroke-width="0.5"/>
   <polyline fill="none" points="384.353,232.716 404.379,232.716" stroke="#0071bc" stroke-linecap="butt" stroke-linejoin="round" stroke-width="0.5"/>
   <g font-family="FreeSans" font-size="10.4862" font-style="normal" font-weight="normal" transform="translate(408.384,237.716) rotate(-0,-0,-5)" xml:space="preserve">
    <text fill="rgb(0,0,0)" x="0 " y="-1">G</text>
   </g>
   <polyline fill="none" points="384.353,246.721 404.379,246.721" stroke="#d85218" stroke-linecap="butt" stroke-linejoin="round" stroke-width="0.5"/>
   <g font-family="FreeSans" font-size="10.4862" font-style="normal" font-weight="normal" transform="translate(408.384,251.721) rotate(-0,-0,-5)" xml:space="preserve">
    <text fill="rgb(0,0,0)" x="0 8 " y="-1">Gd</text>
   </g>
  </g>
 </g>
</svg>
