<?xml version='1.0' encoding='UTF-8' standalone='no'?>
<svg height="314pt" viewBox="0 0 418 314" width="418pt" xmlns="http://www.w3.org/2000/svg" xmlns:xlink="http://www.w3.org/1999/xlink">
 <title>Figure 1</title>
 <desc>
Creator: GL2PS 1.4.2, (C) 1999-2020 C. Geuzaine
For: Octave
CreationDate: Sun Feb  8 20:55:56 2026
</desc>
 <defs/>
 <polygon fill="#ffffff" points="0,0 418,0 418,314 0,314"/>
 <g>
  <polygon fill="#ffffff" points="0,314 418,314 418,0 0,0" shape-rendering="crispEdges"/>
  <clipPath id="cp00418314">
   <polygon points="0,314 418,314 418,0 0,0"/>
  </clipPath>
  <g clip-path="url(#cp00418314)">
   <polygon fill="#ffffff" points="54.4343,279.499 378.946,279.499 378.946,23.5533 54.4343,23.5533" shape-rendering="crispEdges"/>
   <polyline fill="none" points="54.4343,279.499 54.4343,23.5533" stroke="#262626" stroke-dasharray="16,0" stroke-linecap="butt" stroke-linejoin="miter" stroke-opacity="0.15" stroke-width="0.5"/>
   <polyline fill="none" points="135.562,279.499 135.562,23.5533" stroke="#262626" stroke-dasharray="16,0" stroke-linecap="butt" stroke-linejoin="miter" stroke-opacity="0.15" stroke-width="0.5"/>
   <polyline fill="none" points="216.69,279.499 216.69,23.5533" stroke="#262626" stroke-dasharray="16,0" stroke-linecap="butt" stroke-linejoin="miter" stroke-opacity="0.15" stroke-width="0.5"/>
   <polyline fill="none" points="297.818,279.499 297.818,23.5533" stroke="#262626" stroke-dasharray="16,0" stroke-linecap="butt" stroke-linejoin="miter" stroke-opacity="0.15" stroke-width="0.5"/>
   <polyline fill="none" points="378.946,279.499 378.946,23.5533" stroke="#262626" stroke-dasharray="16,0" stroke-linecap="butt" stroke-linejoin="miter" stroke-opacity="0.15" stroke-width="0.5"/>
   <polyline fill="none" points="54.4343,279.499 54.4343,276.255" stroke="#262626" stroke-linecap="butt" stroke-linejoin="miter" stroke-width="0.5"/>
   <polyline fill="none" points="54.4343,23.5533 54.4343,26.7977" stroke="#262626" stroke-linecap="butt" stroke-linejoin="miter" stroke-width="0.5"/>
   <polyline fill="none" points="135.562,279.499 135.562,276.255" stroke="#262626" stroke-linecap="butt" stroke-linejoin="miter" stroke-width="0.5"/>
   <polyline fill="none" points="135.562,23.5533 135.562,26.7977" stroke="#262626" stroke-linecap="butt" stroke-linejoin="miter" stroke-width="0.5"/>
   <polyline fill="none" points="216.69,279.499 216.69,276.255" stroke="#262626" stroke-linecap="butt" stroke-linejoin="miter" stroke-width="0.5"/>
   <polyline fill="none" points="216.69,23.5533 216.69,26.7977" stroke="#262626" stroke-linecap="butt" stroke-linejoin="miter" stroke-width="0.5"/>
   <polyline fill="none" points="297.818,279.499 297.818,276.255" stroke="#262626" stroke-linecap="butt" stroke-linejoin="miter" stroke-width="0.5"/>
   <polyline fill="none" points="297.818,23.5533 297.818,26.7977" stroke="#262626" stroke-linecap="butt" stroke-linejoin="miter" stroke-width="0.5"/>
   <polyline fill="none" points="378.946,279.499 378.946,276.255" stroke="#262626" stroke-linecap="butt" stroke-linejoin="miter" stroke-width="0.5"/>
   <polyline fill="none" points="378.946,23.5533 378.946,26.7977" stroke="#262626" stroke-linecap="butt" stroke-linejoin="miter" stroke-width="0.5"/>
   <g font-family="FreeSans" font-size="10" font-style="normal" font-weight="normal" transform="translate(51.4343,294.998) rotate(-0,3,-8)" xml:space="preserve">
    <text fill="rgb(38,38,38)" x="0 " y="-0">0</text>
   </g>
   <g font-family="FreeSans" font-size="10" font-style="normal" font-weight="normal" transform="translate(132.562,294.998) rotate(-0,3,-8)" xml:space="preserve">
    <text fill="rgb(38,38,38)" x="0 " y="-0">2</text>
   </g>
   <g font-family="FreeSans" font-size="10" font-style="normal" font-weight="normal" transform="translate(213.69,294.998) rotate(-0,3,-8)" xml:space="preserve">
    <text fill="rgb(38,38,38)" x="0 " y="-0">4</text>
   </g>
   <g font-family="FreeSans" font-size="10" font-style="normal" font-weight="normal" transform="translate(294.818,294.998) rotate(-0,3,-8)" xml:space="preserve">
    <text fill="rgb(38,38,38)" x="0 " y="-0">6</text>
   </g>
   <g font-family="FreeSans" font-size="10" font-style="normal" font-weight="normal" transform="translate(375.946,294.998) rotate(-0,3,-8)" xml:space="preserve">
    <text fill="rgb(38,38,38)" x="0 " y="-0">8</text>
   </g>
   <polyline fill="none" points="54.4343,267.865 378.946,267.865" stroke="#262626" stroke-dasharray="16,0" stroke-linecap="butt" stroke-linejoin="miter" stroke-opacity="0.15" stroke-width="0.5"/>
   <polyline fill="none" points="54.4343,227.047 378.946,227.047" stroke="#262626" stroke-dasharray="16,0" stroke-linecap="butt" stroke-linejoin="miter" stroke-opacity="0.15" stroke-width="0.5"/>
   <polyline fill="none" points="54.4343,186.229 378.946,186.229" stroke="#262626" stroke-dasharray="16,0" stroke-linecap="butt" stroke-linejoin="miter" stroke-opacity="0.15" stroke-width="0.5"/>
   <polyline fill="none" points="54.4343,145.411 378.946,145.411" stroke="#262626" stroke-dasharray="16,0" stroke-linecap="butt" stroke-linejoin="miter" stroke-opacity="0.15" stroke-width="0.5"/>
   <polyline fill="none" points="54.4343,104.592 378.946,104.592" stroke="#262626" stroke-dasharray="16,0" stroke-linecap="butt" stroke-linejoin="miter" stroke-opacity="0.15" stroke-width="0.5"/>
   <polyline fill="none" points="54.4343,63.7741 378.946,63.7741" stroke="#262626" stroke-dasharray="16,0" stroke-linecap="butt" stroke-linejoin="miter" stroke-opacity="0.15" stroke-width="0.5"/>
   <polyline fill="none" points="54.4343,267.865 57.6745,267.865" stroke="#262626" stroke-linecap="butt" stroke-linejoin="miter" stroke-width="0.5"/>
   <polyline fill="none" points="378.946,267.865 375.706,267.865" stroke="#262626" stroke-linecap="butt" stroke-linejoin="miter" stroke-width="0.5"/>
   <polyline fill="none" points="54.4343,227.047 57.6745,227.047" stroke="#262626" stroke-linecap="butt" stroke-linejoin="miter" stroke-width="0.5"/>
   <polyline fill="none" points="378.946,227.047 375.706,227.047" stroke="#262626" stroke-linecap="butt" stroke-linejoin="miter" stroke-width="0.5"/>
   <polyline fill="none" points="54.4343,186.229 57.6745,186.229" stroke="#262626" stroke-linecap="butt" stroke-linejoin="miter" stroke-width="0.5"/>
   <polyline fill="none" points="378.946,186.229 375.706,186.229" stroke="#262626" stroke-linecap="butt" stroke-linejoin="miter" stroke-width="0.5"/>
   <polyline fill="none" points="54.4343,145.411 57.6745,145.411" stroke="#262626" stroke-linecap="butt" stroke-linejoin="miter" stroke-width="0.5"/>
   <polyline fill="none" points="378.946,145.411 375.706,145.411" stroke="#262626" stroke-linecap="butt" stroke-linejoin="miter" stroke-width="0.5"/>
   <polyline fill="none" points="54.4343,104.592 57.6745,104.592" stroke="#262626" stroke-linecap="butt" stroke-linejoin="miter" stroke-width="0.5"/>
   <polyline fill="none" points="378.946,104.592 375.706,104.592" stroke="#262626" stroke-linecap="butt" stroke-linejoin="miter" stroke-width="0.5"/>
   <polyline fill="none" points="54.4343,63.7741 57.6745,63.7741" stroke="#262626" stroke-linecap="butt" stroke-linejoin="miter" stroke-width="0.5"/>
   <polyline fill="none" points="378.946,63.7741 375.706,63.7741" stroke="#262626" stroke-linecap="butt" stroke-linejoin="miter" stroke-width="0.5"/>
   <g font-family="FreeSans" font-size="10" font-style="normal" font-weight="normal" transform="translate(43.4418,271.865) rotate(-0,6,-4)" xml:space="preserve">
    <text fill="rgb(38,38,38)" x="0 " y="-0">0</text>
   </g>
   <g font-family="FreeSans" font-size="10" font-style="normal" font-weight="normal" transform="translate(28.4418,231.047) rotate(-0,21,-4)" xml:space="preserve">
    <text fill="rgb(38,38,38)" x="0 6 9 15 " y="-0">0.05</text>
   </g>
   <g font-family="FreeSans" font-size="10" font-style="normal" font-weight="normal" transform="translate(34.4418,190.229) rotate(-0,15,-4)" xml:space="preserve">
    <text fill="rgb(38,38,38)" x="0 6 9 " y="-0">0.1</text>
   </g>
   <g font-family="FreeSans" font-size="10" font-style="normal" font-weight="normal" transform="translate(28.4418,149.411) rotate(-0,21,-4)" xml:space="preserve">
    <text fill="rgb(38,38,38)" x="0 6 9 15 " y="-0">0.15</text>
   </g>
   <g font-family="FreeSans" font-size="10" font-style="normal" font-weight="normal" transform="translate(34.4418,108.592) rotate(-0,15,-4)" xml:space="preserve">
    <text fill="rgb(38,38,38)" x="0 6 9 " y="-0">0.2</text>
   </g>
   <g font-family="FreeSans" font-size="10" font-style="normal" font-weight="normal" transform="translate(28.4418,67.7741) rotate(-0,21,-4)" xml:space="preserve">
    <text fill="rgb(38,38,38)" x="0 6 9 15 " y="-0">0.25</text>
   </g>
   <polyline fill="none" points="54.4343,279.499 378.946,279.499" stroke="#262626" stroke-dasharray="16,0" stroke-linecap="square" stroke-linejoin="miter" stroke-width="0.5"/>
   <polyline fill="none" points="54.4343,23.5533 378.946,23.5533" stroke="#262626" stroke-dasharray="16,0" stroke-linecap="square" stroke-linejoin="miter" stroke-width="0.5"/>
   <polyline fill="none" points="54.4343,279.499 54.4343,23.5533" stroke="#262626" stroke-dasharray="16,0" stroke-linecap="square" stroke-linejoin="miter" stroke-width="0.5"/>
   <polyline fill="none" points="378.946,279.499 378.946,23.5533" stroke="#262626" stroke-dasharray="16,0" stroke-linecap="square" stroke-linejoin="miter" stroke-width="0.5"/>
   <g font-family="FreeSans" font-size="10" font-style="normal" font-weight="bold" transform="translate(89.6904,13.5533) rotate(-0,127,0)" xml:space="preserve">
    <text fill="rgb(0,0,0)" x="0 7 10 16 22 25 29 35 41 47 53 59 65 71 74 80 83 86 92 95 101 104 110 116 120 126 129 132 137 143 149 152 159 165 171 174 177 181 187 193 199 202 208 212 215 218 224 230 236 239 242 248 " y="-2">Step response of a discretized PT2 transfer function</text>
   </g>
   <g font-family="FreeSans" font-size="10" font-style="normal" font-weight="normal" transform="translate(17.9418,151.526) rotate(-90,5.5,0)" xml:space="preserve">
    <text fill="rgb(38,38,38)" x="0 5 " y="-2">y1</text>
   </g>
   <g font-family="FreeSans" font-size="10" font-style="normal" font-weight="normal" transform="translate(199.19,310.998) rotate(-0,17.5,-11)" xml:space="preserve">
    <text fill="rgb(38,38,38)" x="0 6 8 16 21 24 27 32 " y="-2">Time [s]</text>
   </g>
   <polyline fill="none" points="54.4343,267.865 58.4907,267.865 58.4907,265.926 62.5471,265.926 62.5471,260.508 66.6035,260.508 66.6035,252.198 70.6599,252.198 70.6599,241.551 74.7163,241.551 74.7163,229.092 78.7727,229.092 78.7727,215.302 82.8291,215.302 82.8291,200.624 86.8855,200.624 86.8855,185.453 90.9419,185.453 90.9419,170.139 94.9983,170.139 94.9983,154.986 99.0547,154.986 99.0547,140.252 103.111,140.252 103.111,126.153 107.168,126.153 107.168,112.861 111.224,112.861 111.224,100.511 115.28,100.511 115.28,89.1993 119.337,89.1993 119.337,78.9921 123.393,78.9921 123.393,69.9245 127.45,69.9245 127.45,62.0058 131.506,62.0058 131.506,55.223 135.562,55.223 135.562,49.5436 139.619,49.5436 139.619,44.9191 143.675,44.9191 143.675,41.2883 147.732,41.2883 147.732,38.5802 151.788,38.5802 151.788,36.7164 155.844,36.7164 155.844,35.614 159.901,35.614 159.901,35.1872 163.957,35.1872 163.957,35.3499 168.014,35.3499 168.014,36.017 172.07,36.017 172.07,37.1058 176.126,37.1058 176.126,38.5374 180.183,38.5374 180.183,40.2375 184.239,40.2375 184.239,42.1372 188.296,42.1372 188.296,44.1735 192.352,44.1735 192.352,46.2896 196.408,46.2896 196.408,48.4351 200.465,48.4351 200.465,50.5661 204.521,50.5661 204.521,52.6452 208.578,52.6452 208.578,54.6411 212.634,54.6411 212.634,56.5282 216.69,56.5282 216.69,58.2869 220.747,58.2869 220.747,59.9023 224.803,59.9023 224.803,61.3645 228.86,61.3645 228.86,62.6678 232.916,62.6678 232.916,63.81 236.972,63.81 236.972,64.7924 241.029,64.7924 241.029,65.6191 245.085,65.6191 245.085,66.2964 249.142,66.2964 249.142,66.8327 253.198,66.8327 253.198,67.2375 257.254,67.2375 257.254,67.5217 261.311,67.5217 261.311,67.6969 265.367,67.6969 265.367,67.7749 269.424,67.7749 269.424,67.7679 273.48,67.7679 273.48,67.6878 277.536,67.6878 277.536,67.5462 281.593,67.5462 281.593,67.3545 285.649,67.3545 285.649,67.1231 289.706,67.1231 289.706,66.8618 293.762,66.8618 293.762,66.5797 297.818,66.5797 297.818,66.2848 301.875,66.2848 301.875,65.9845 305.931,65.9845 305.931,65.685 309.988,65.685 309.988,65.3918 314.044,65.3918 314.044,65.1095 318.1,65.1095 318.1,64.8417 322.157,64.8417 322.157,64.5914 326.213,64.5914 326.213,64.3608 330.27,64.3608 330.27,64.1515 334.326,64.1515 334.326,63.9643 338.382,63.9643 338.382,63.7997 342.439,63.7997 342.439,63.6576 346.495,63.6576 346.495,63.5373 350.552,63.5373 350.552,63.4383 354.608,63.4383 354.608,63.3592 358.664,63.3592 358.664,63.2989 362.721,63.2989 362.721,63.2558 366.777,63.2558 366.777,63.2283 370.834,63.2283 370.834,63.2147 374.89,63.2147 374.89,63.2134 378.946,63.2134 378.946,63.2227" stroke="#0071bc" stroke-linecap="butt" stroke-linejoin="round" stroke-width="0.5"/>
  </g>
 </g>
</svg>
