<?xml version='1.0' encoding='UTF-8' standalone='no'?>
<svg height="360pt" viewBox="0 0 480 360" width="480pt" xmlns="http://www.w3.org/2000/svg" xmlns:xlink="http://www.w3.org/1999/xlink">
 <title>Figure 1</title>
 <desc>
Creator: GL2PS 1.4.2, (C) 1999-2020 C. Geuzaine
For: Octave
CreationDate: Wed Mar 11 06:49:25 2026
</desc>
 <defs/>
 <polygon fill="#ffffff" points="0,0 480,0 480,360 0,360"/>
 <g>
  <polygon fill="#ffffff" points="0,360 480,360 480,0 0,0" shape-rendering="crispEdges"/>
  <clipPath id="cp00480360">
   <polygon points="0,360 480,360 480,0 0,0"/>
  </clipPath>
  <g clip-path="url(#cp00480360)">
   <polygon fill="#ffffff" points="62.4,320.4 434.4,320.4 434.4,27 62.4,27" shape-rendering="crispEdges"/>
   <polyline fill="none" points="117.867,320.4 117.867,27" stroke="#262626" stroke-dasharray="16,0" stroke-linecap="butt" stroke-linejoin="miter" stroke-opacity="0.15" stroke-width="0.5"/>
   <polyline fill="none" points="177.792,320.4 177.792,27" stroke="#262626" stroke-dasharray="16,0" stroke-linecap="butt" stroke-linejoin="miter" stroke-opacity="0.15" stroke-width="0.5"/>
   <polyline fill="none" points="237.717,320.4 237.717,27" stroke="#262626" stroke-dasharray="16,0" stroke-linecap="butt" stroke-linejoin="miter" stroke-opacity="0.15" stroke-width="0.5"/>
   <polyline fill="none" points="297.641,320.4 297.641,27" stroke="#262626" stroke-dasharray="16,0" stroke-linecap="butt" stroke-linejoin="miter" stroke-opacity="0.15" stroke-width="0.5"/>
   <polyline fill="none" points="357.566,320.4 357.566,27" stroke="#262626" stroke-dasharray="16,0" stroke-linecap="butt" stroke-linejoin="miter" stroke-opacity="0.15" stroke-width="0.5"/>
   <polyline fill="none" points="417.491,320.4 417.491,27" stroke="#262626" stroke-dasharray="16,0" stroke-linecap="butt" stroke-linejoin="miter" stroke-opacity="0.15" stroke-width="0.5"/>
   <polyline fill="none" points="117.867,320.4 117.867,316.675" stroke="#262626" stroke-linecap="butt" stroke-linejoin="miter" stroke-width="0.5"/>
   <polyline fill="none" points="117.867,27 117.867,30.7251" stroke="#262626" stroke-linecap="butt" stroke-linejoin="miter" stroke-width="0.5"/>
   <polyline fill="none" points="177.792,320.4 177.792,316.675" stroke="#262626" stroke-linecap="butt" stroke-linejoin="miter" stroke-width="0.5"/>
   <polyline fill="none" points="177.792,27 177.792,30.7251" stroke="#262626" stroke-linecap="butt" stroke-linejoin="miter" stroke-width="0.5"/>
   <polyline fill="none" points="237.717,320.4 237.717,316.675" stroke="#262626" stroke-linecap="butt" stroke-linejoin="miter" stroke-width="0.5"/>
   <polyline fill="none" points="237.717,27 237.717,30.7251" stroke="#262626" stroke-linecap="butt" stroke-linejoin="miter" stroke-width="0.5"/>
   <polyline fill="none" points="297.641,320.4 297.641,316.675" stroke="#262626" stroke-linecap="butt" stroke-linejoin="miter" stroke-width="0.5"/>
   <polyline fill="none" points="297.641,27 297.641,30.7251" stroke="#262626" stroke-linecap="butt" stroke-linejoin="miter" stroke-width="0.5"/>
   <polyline fill="none" points="357.566,320.4 357.566,316.675" stroke="#262626" stroke-linecap="butt" stroke-linejoin="miter" stroke-width="0.5"/>
   <polyline fill="none" points="357.566,27 357.566,30.7251" stroke="#262626" stroke-linecap="butt" stroke-linejoin="miter" stroke-width="0.5"/>
   <polyline fill="none" points="417.491,320.4 417.491,316.675" stroke="#262626" stroke-linecap="butt" stroke-linejoin="miter" stroke-width="0.5"/>
   <polyline fill="none" points="417.491,27 417.491,30.7251" stroke="#262626" stroke-linecap="butt" stroke-linejoin="miter" stroke-width="0.5"/>
   <g font-family="FreeSans" font-size="11.6513" font-style="normal" font-weight="normal" transform="translate(112.867,339.15) rotate(-0,5,-10)" xml:space="preserve">
    <text fill="rgb(38,38,38)" x="0 4 " y="-0">-1</text>
   </g>
   <g font-family="FreeSans" font-size="11.6513" font-style="normal" font-weight="normal" transform="translate(168.292,339.15) rotate(-0,9.5,-10)" xml:space="preserve">
    <text fill="rgb(38,38,38)" x="0 4 10 13 " y="-0">-0.5</text>
   </g>
   <g font-family="FreeSans" font-size="11.6513" font-style="normal" font-weight="normal" transform="translate(234.717,339.15) rotate(-0,3,-10)" xml:space="preserve">
    <text fill="rgb(38,38,38)" x="0 " y="-0">0</text>
   </g>
   <g font-family="FreeSans" font-size="11.6513" font-style="normal" font-weight="normal" transform="translate(290.141,339.15) rotate(-0,7.5,-10)" xml:space="preserve">
    <text fill="rgb(38,38,38)" x="0 6 9 " y="-0">0.5</text>
   </g>
   <g font-family="FreeSans" font-size="11.6513" font-style="normal" font-weight="normal" transform="translate(354.566,339.15) rotate(-0,3,-10)" xml:space="preserve">
    <text fill="rgb(38,38,38)" x="0 " y="-0">1</text>
   </g>
   <g font-family="FreeSans" font-size="11.6513" font-style="normal" font-weight="normal" transform="translate(409.991,339.15) rotate(-0,7.5,-10)" xml:space="preserve">
    <text fill="rgb(38,38,38)" x="0 6 9 " y="-0">1.5</text>
   </g>
   <polyline fill="none" points="62.4,307.064 434.4,307.064" stroke="#262626" stroke-dasharray="16,0" stroke-linecap="butt" stroke-linejoin="miter" stroke-opacity="0.15" stroke-width="0.5"/>
   <polyline fill="none" points="62.4,240.382 434.4,240.382" stroke="#262626" stroke-dasharray="16,0" stroke-linecap="butt" stroke-linejoin="miter" stroke-opacity="0.15" stroke-width="0.5"/>
   <polyline fill="none" points="62.4,173.7 434.4,173.7" stroke="#262626" stroke-dasharray="16,0" stroke-linecap="butt" stroke-linejoin="miter" stroke-opacity="0.15" stroke-width="0.5"/>
   <polyline fill="none" points="62.4,107.018 434.4,107.018" stroke="#262626" stroke-dasharray="16,0" stroke-linecap="butt" stroke-linejoin="miter" stroke-opacity="0.15" stroke-width="0.5"/>
   <polyline fill="none" points="62.4,40.3364 434.4,40.3364" stroke="#262626" stroke-dasharray="16,0" stroke-linecap="butt" stroke-linejoin="miter" stroke-opacity="0.15" stroke-width="0.5"/>
   <polyline fill="none" points="62.4,307.064 66.12,307.064" stroke="#262626" stroke-linecap="butt" stroke-linejoin="miter" stroke-width="0.5"/>
   <polyline fill="none" points="434.4,307.064 430.68,307.064" stroke="#262626" stroke-linecap="butt" stroke-linejoin="miter" stroke-width="0.5"/>
   <polyline fill="none" points="62.4,240.382 66.12,240.382" stroke="#262626" stroke-linecap="butt" stroke-linejoin="miter" stroke-width="0.5"/>
   <polyline fill="none" points="434.4,240.382 430.68,240.382" stroke="#262626" stroke-linecap="butt" stroke-linejoin="miter" stroke-width="0.5"/>
   <polyline fill="none" points="62.4,173.7 66.12,173.7" stroke="#262626" stroke-linecap="butt" stroke-linejoin="miter" stroke-width="0.5"/>
   <polyline fill="none" points="434.4,173.7 430.68,173.7" stroke="#262626" stroke-linecap="butt" stroke-linejoin="miter" stroke-width="0.5"/>
   <polyline fill="none" points="62.4,107.018 66.12,107.018" stroke="#262626" stroke-linecap="butt" stroke-linejoin="miter" stroke-width="0.5"/>
   <polyline fill="none" points="434.4,107.018 430.68,107.018" stroke="#262626" stroke-linecap="butt" stroke-linejoin="miter" stroke-width="0.5"/>
   <polyline fill="none" points="62.4,40.3364 66.12,40.3364" stroke="#262626" stroke-linecap="butt" stroke-linejoin="miter" stroke-width="0.5"/>
   <polyline fill="none" points="434.4,40.3364 430.68,40.3364" stroke="#262626" stroke-linecap="butt" stroke-linejoin="miter" stroke-width="0.5"/>
   <g font-family="FreeSans" font-size="11.6513" font-style="normal" font-weight="normal" transform="translate(46.5743,312.064) rotate(-0,10,-5)" xml:space="preserve">
    <text fill="rgb(38,38,38)" x="0 4 " y="-0">-1</text>
   </g>
   <g font-family="FreeSans" font-size="11.6513" font-style="normal" font-weight="normal" transform="translate(37.5743,245.382) rotate(-0,19,-5)" xml:space="preserve">
    <text fill="rgb(38,38,38)" x="0 4 10 13 " y="-0">-0.5</text>
   </g>
   <g font-family="FreeSans" font-size="11.6513" font-style="normal" font-weight="normal" transform="translate(50.5743,178.7) rotate(-0,6,-5)" xml:space="preserve">
    <text fill="rgb(38,38,38)" x="0 " y="-0">0</text>
   </g>
   <g font-family="FreeSans" font-size="11.6513" font-style="normal" font-weight="normal" transform="translate(41.5743,112.018) rotate(-0,15,-5)" xml:space="preserve">
    <text fill="rgb(38,38,38)" x="0 6 9 " y="-0">0.5</text>
   </g>
   <g font-family="FreeSans" font-size="11.6513" font-style="normal" font-weight="normal" transform="translate(50.5743,45.3364) rotate(-0,6,-5)" xml:space="preserve">
    <text fill="rgb(38,38,38)" x="0 " y="-0">1</text>
   </g>
   <polyline fill="none" points="62.4,320.4 434.4,320.4" stroke="#262626" stroke-dasharray="16,0" stroke-linecap="square" stroke-linejoin="miter" stroke-width="0.5"/>
   <polyline fill="none" points="62.4,27 434.4,27" stroke="#262626" stroke-dasharray="16,0" stroke-linecap="square" stroke-linejoin="miter" stroke-width="0.5"/>
   <polyline fill="none" points="62.4,320.4 62.4,27" stroke="#262626" stroke-dasharray="16,0" stroke-linecap="square" stroke-linejoin="miter" stroke-width="0.5"/>
   <polyline fill="none" points="434.4,320.4 434.4,27" stroke="#262626" stroke-dasharray="16,0" stroke-linecap="square" stroke-linejoin="miter" stroke-width="0.5"/>
   <g font-family="FreeSans" font-size="12.8165" font-style="normal" font-weight="normal" transform="translate(221.9,355.15) rotate(-0,26.5,-11)" xml:space="preserve">
    <text fill="rgb(38,38,38)" x="0 9 16 23 26 29 38 44 47 " y="-0">Real Axis</text>
   </g>
   <g font-family="FreeSans" font-size="12.8165" font-style="normal" font-weight="normal" transform="translate(-8.42567,173.7) rotate(-90,41,0)" xml:space="preserve">
    <text fill="rgb(38,38,38)" x="0 4 14 21 28 31 38 45 49 55 58 67 73 76 " y="-3">Imaginary Axis</text>
   </g>
   <g font-family="FreeSans" font-size="12.8165" font-style="normal" font-weight="bold" transform="translate(146.9,17) rotate(-0,101.5,0)" xml:space="preserve">
    <text fill="rgb(0,0,0)" x="0 9 17 25 29 33 36 44 51 59 66 70 77 84 91 95 99 108 112 119 123 130 133 140 147 154 158 161 164 168 175 178 185 192 199 " y="-3">Root locus sys (K = 0.000 .. 3.500)</text>
   </g>
   <polyline fill="none" points="434.772,173.7 62.028,173.7" stroke="#000000" stroke-dasharray="9,7" stroke-linecap="butt" stroke-linejoin="round" stroke-width="0.5"/>
   <polyline fill="none" points="237.717,173.7 237.919,173.7 238.124,173.7 238.332,173.7 238.544,173.7 238.759,173.7 238.978,173.7 239.201,173.7 239.427,173.7 239.657,173.7 239.892,173.7 240.13,173.7 240.373,173.7 240.62,173.7 240.872,173.7 241.128,173.7 241.39,173.7 241.656,173.7 241.928,173.7 242.205,173.7 242.488,173.7 242.776,173.7 243.071,173.7 243.372,173.7 243.679,173.7 243.993,173.7 244.314,173.7 244.642,173.7 244.978,173.7 245.322,173.7 245.675,173.7 246.036,173.7 246.406,173.7 246.786,173.7 247.175,173.7 247.576,173.7 247.987,173.7 248.41,173.7 248.845,173.7 249.293,173.7 249.755,173.7 250.232,173.7 250.724,173.7 251.232,173.7 251.758,173.7 252.303,173.7 252.868,173.7 253.455,173.7 254.065,173.7 254.701,173.7 255.365,173.7 256.059,173.7 256.786,173.7 257.549,173.7 258.354,173.7 259.204,173.7 260.105,173.7 261.065,173.7 262.093,173.7 263.2,173.7 264.401,173.7 265.716,173.7 267.174,173.7 268.816,173.7 270.709,173.7 272.975,173.7 275.875,173.7 280.3,173.7 287.027,173.7 286.738,181.227 286.137,186.881 285.536,190.728 284.935,193.831 284.334,196.497 283.733,198.864 283.132,201.01 282.531,202.984 281.931,204.819 281.33,206.539 280.729,208.159 280.128,209.694 279.527,211.155 278.926,212.549 278.325,213.883 277.724,215.164 277.123,216.396 276.522,217.583 275.921,218.729 275.32,219.837 274.719,220.91 274.118,221.949 273.517,222.957 272.916,223.937 272.315,224.888 271.714,225.814 271.113,226.715 270.512,227.593 269.911,228.449 269.31,229.283 268.709,230.097 268.108,230.892 267.507,231.668 266.906,232.426 266.305,233.167 265.704,233.892 265.103,234.6 264.503,235.293 263.902,235.972 263.301,236.636 262.7,237.285 262.099,237.922 261.498,238.545 260.897,239.155 260.296,239.753 259.695,240.339 259.094,240.913 258.493,241.476 257.892,242.028 257.291,242.568 256.69,243.098 256.089,243.618 255.488,244.127 254.887,244.627 254.286,245.116 253.685,245.596 253.084,246.067 252.483,246.529 251.882,246.981 251.281,247.425 250.68,247.86 250.079,248.286 249.478,248.704 248.877,249.114 248.276,249.516 247.676,249.91 247.075,250.296 246.474,250.674 245.873,251.044 245.272,251.407 244.671,251.763 244.07,252.111 243.469,252.452 242.868,252.786 242.267,253.113 241.666,253.433 241.065,253.746 240.464,254.052 239.863,254.352 239.262,254.645 238.661,254.931 238.06,255.211 237.459,255.485 236.858,255.752 236.257,256.013 235.656,256.267 235.055,256.516 234.454,256.758 233.853,256.994 233.252,257.224 232.651,257.448 232.05,257.667 231.449,257.879 230.849,258.086 230.248,258.286 229.647,258.481 229.046,258.671 228.445,258.854 227.844,259.032 227.243,259.205 226.642,259.371 226.041,259.533 225.44,259.689 224.839,259.839 224.238,259.984 223.637,260.123 223.036,260.257 222.435,260.386 221.834,260.509 221.233,260.627 220.632,260.74 220.031,260.848 219.43,260.95 218.829,261.047 218.228,261.138 217.627,261.225 217.026,261.306 216.425,261.382 215.824,261.453 215.223,261.519 214.622,261.58 214.021,261.636 213.421,261.686 212.82,261.732 212.219,261.772 211.618,261.807 211.017,261.837 210.416,261.862 209.815,261.882 209.214,261.897 208.613,261.907 208.012,261.911 207.411,261.911 206.81,261.906 206.209,261.895 205.608,261.879 205.007,261.859 204.406,261.833 203.805,261.802 203.204,261.766 202.603,261.725 202.002,261.679 201.401,261.628 200.8,261.572 200.199,261.51 199.598,261.444 198.997,261.372 198.396,261.295 197.795,261.213 197.194,261.126 196.594,261.033 195.993,260.935 195.392,260.832 194.791,260.724 194.19,260.611 193.589,260.492 192.988,260.368 192.387,260.238 191.786,260.104 191.185,259.963 190.584,259.818 189.983,259.667 189.382,259.51 188.781,259.348 188.18,259.18 187.579,259.007 186.978,258.828 186.377,258.644 185.776,258.454 185.175,258.258 184.574,258.056 183.973,257.849 183.372,257.636 182.771,257.417 182.17,257.192 181.569,256.961 180.968,256.724 180.367,256.48 179.767,256.231 179.166,255.976 178.565,255.714 177.964,255.446 177.363,255.172 176.762,254.891 176.161,254.603 175.56,254.31 174.959,254.009 174.358,253.702 173.757,253.388 173.156,253.067 172.555,252.739 171.954,252.404 171.353,252.062 170.752,251.713 170.151,251.356 169.55,250.992 168.949,250.62 168.348,250.241 167.747,249.854 167.146,249.459 166.545,249.056 165.944,248.645 165.343,248.226 164.742,247.798 164.141,247.362 163.54,246.917 162.939,246.463 162.339,246 161.738,245.528 161.137,245.047 160.536,244.556 159.935,244.055 159.334,243.544 158.733,243.023 158.132,242.492 157.531,241.95 156.93,241.396 156.329,240.832 155.728,240.256 155.127,239.669 154.526,239.069 153.925,238.457 153.324,237.832 152.723,237.193 152.122,236.542 151.521,235.876 150.92,235.195 150.319,234.5 149.718,233.789 149.117,233.062 148.516,232.319 147.915,231.558 147.314,230.78 146.713,229.982 146.113,229.165 145.512,228.328 144.911,227.469 144.31,226.588 143.709,225.683 143.108,224.754 142.507,223.798 141.906,222.815 141.305,221.802 140.704,220.759 140.103,219.681 139.502,218.568 138.901,217.416 138.3,216.223 137.699,214.984 137.098,213.696 136.497,212.353 135.896,210.95 135.295,209.48 134.694,207.933 134.093,206.299 133.492,204.565 132.891,202.712 132.29,200.715 131.689,198.541 131.088,196.137 130.487,193.419 129.886,190.235 129.285,186.233 128.685,180.012 128.481,173.7 120.133,173.7 114.86,173.7 110.876,173.7 107.473,173.7 104.419,173.7 101.605,173.7 98.9676,173.7 96.4683,173.7 94.0799,173.7 91.7831,173.7 89.5636,173.7 87.4103,173.7 85.3146,173.7 83.2695,173.7 81.2692,173.7 79.3091,173.7" stroke="#0000ff" stroke-linecap="butt" stroke-linejoin="round" stroke-width="2"/>
   <polyline fill="none" points="417.491,173.7 416.087,173.7 414.68,173.7 413.27,173.7 411.856,173.7 410.439,173.7 409.018,173.7 407.593,173.7 406.165,173.7 404.733,173.7 403.297,173.7 401.856,173.7 400.412,173.7 398.962,173.7 397.509,173.7 396.05,173.7 394.587,173.7 393.119,173.7 391.645,173.7 390.166,173.7 388.681,173.7 387.191,173.7 385.694,173.7 384.192,173.7 382.683,173.7 381.167,173.7 379.644,173.7 378.113,173.7 376.575,173.7 375.029,173.7 373.475,173.7 371.912,173.7 370.34,173.7 368.758,173.7 367.167,173.7 365.564,173.7 363.951,173.7 362.326,173.7 360.689,173.7 359.039,173.7 357.375,173.7 355.697,173.7 354.003,173.7 352.293,173.7 350.565,173.7 348.818,173.7 347.051,173.7 345.262,173.7 343.45,173.7 341.612,173.7 339.746,173.7 337.851,173.7 335.922,173.7 333.956,173.7 331.95,173.7 329.898,173.7 327.794,173.7 325.632,173.7 323.402,173.7 321.093,173.7 318.691,173.7 316.173,173.7 313.514,173.7 310.67,173.7 307.575,173.7 304.107,173.7 300.005,173.7 294.378,173.7 287.027,173.7 286.738,166.174 286.137,160.519 285.536,156.672 284.935,153.569 284.334,150.903 283.733,148.536 283.132,146.39 282.531,144.416 281.931,142.581 281.33,140.861 280.729,139.241 280.128,137.706 279.527,136.245 278.926,134.851 278.325,133.517 277.724,132.236 277.123,131.004 276.522,129.817 275.921,128.671 275.32,127.563 274.719,126.49 274.118,125.451 273.517,124.443 272.916,123.463 272.315,122.512 271.714,121.586 271.113,120.685 270.512,119.807 269.911,118.951 269.31,118.117 268.709,117.303 268.108,116.508 267.507,115.732 266.906,114.974 266.305,114.233 265.704,113.508 265.103,112.8 264.503,112.107 263.902,111.428 263.301,110.764 262.7,110.115 262.099,109.478 261.498,108.855 260.897,108.245 260.296,107.647 259.695,107.061 259.094,106.487 258.493,105.924 257.892,105.372 257.291,104.832 256.69,104.302 256.089,103.782 255.488,103.273 254.887,102.773 254.286,102.284 253.685,101.804 253.084,101.333 252.483,100.871 251.882,100.419 251.281,99.9751 250.68,99.5401 250.079,99.1136 249.478,98.6955 248.877,98.2857 248.276,97.8839 247.676,97.4902 247.075,97.1043 246.474,96.7261 245.873,96.3556 245.272,95.9926 244.671,95.6371 244.07,95.2888 243.469,94.9478 242.868,94.6138 242.267,94.2869 241.666,93.967 241.065,93.6539 240.464,93.3476 239.863,93.0481 239.262,92.7551 238.661,92.4687 238.06,92.1888 237.459,91.9154 236.858,91.6483 236.257,91.3875 235.656,91.1329 235.055,90.8845 234.454,90.6422 233.853,90.4061 233.252,90.1759 232.651,89.9517 232.05,89.7335 231.449,89.5211 230.849,89.3145 230.248,89.1137 229.647,88.9188 229.046,88.7294 228.445,88.5458 227.844,88.3678 227.243,88.1954 226.642,88.0286 226.041,87.8673 225.44,87.7115 224.839,87.5612 224.238,87.4163 223.637,87.2769 223.036,87.1428 222.435,87.0141 221.834,86.8907 221.233,86.7727 220.632,86.66 220.031,86.5525 219.43,86.4503 218.829,86.3533 218.228,86.2616 217.627,86.175 217.026,86.0937 216.425,86.0175 215.824,85.9465 215.223,85.8807 214.622,85.8199 214.021,85.7644 213.421,85.7139 212.82,85.6685 212.219,85.6282 211.618,85.5931 211.017,85.563 210.416,85.538 209.815,85.518 209.214,85.5032 208.613,85.4934 208.012,85.4887 207.411,85.4891 206.81,85.4945 206.209,85.505 205.608,85.5206 205.007,85.5413 204.406,85.567 203.805,85.5978 203.204,85.6337 202.603,85.6747 202.002,85.7208 201.401,85.772 200.8,85.8283 200.199,85.8898 199.598,85.9564 198.997,86.0281 198.396,86.105 197.795,86.1871 197.194,86.2744 196.594,86.3669 195.993,86.4646 195.392,86.5675 194.791,86.6758 194.19,86.7892 193.589,86.908 192.988,87.0322 192.387,87.1616 191.786,87.2964 191.185,87.4367 190.584,87.5823 189.983,87.7334 189.382,87.89 188.781,88.0521 188.18,88.2197 187.579,88.3929 186.978,88.5717 186.377,88.7561 185.776,88.9463 185.175,89.1421 184.574,89.3437 183.973,89.5511 183.372,89.7643 182.771,89.9834 182.17,90.2084 181.569,90.4395 180.968,90.6765 180.367,90.9196 179.767,91.1689 179.166,91.4243 178.565,91.686 177.964,91.954 177.363,92.2284 176.762,92.5092 176.161,92.7966 175.56,93.0905 174.959,93.391 174.358,93.6982 173.757,94.0123 173.156,94.3332 172.555,94.6611 171.954,94.996 171.353,95.3381 170.752,95.6874 170.151,96.044 169.55,96.4081 168.949,96.7797 168.348,97.1589 167.747,97.546 167.146,97.9408 166.545,98.3437 165.944,98.7548 165.343,99.174 164.742,99.6017 164.141,100.038 163.54,100.483 162.939,100.937 162.339,101.4 161.738,101.872 161.137,102.353 160.536,102.844 159.935,103.345 159.334,103.856 158.733,104.377 158.132,104.908 157.531,105.45 156.93,106.004 156.329,106.568 155.728,107.144 155.127,107.731 154.526,108.331 153.925,108.943 153.324,109.568 152.723,110.207 152.122,110.858 151.521,111.524 150.92,112.205 150.319,112.9 149.718,113.611 149.117,114.338 148.516,115.081 147.915,115.842 147.314,116.62 146.713,117.418 146.113,118.235 145.512,119.072 144.911,119.931 144.31,120.812 143.709,121.717 143.108,122.646 142.507,123.602 141.906,124.585 141.305,125.598 140.704,126.641 140.103,127.719 139.502,128.832 138.901,129.984 138.3,131.177 137.699,132.416 137.098,133.704 136.497,135.047 135.896,136.45 135.295,137.92 134.694,139.467 134.093,141.101 133.492,142.835 132.891,144.688 132.29,146.685 131.689,148.859 131.088,151.263 130.487,153.981 129.886,157.165 129.285,161.167 128.685,167.388 128.481,173.7 136.035,173.7 140.105,173.7 142.887,173.7 145.089,173.7 146.941,173.7 148.553,173.7 149.988,173.7 151.285,173.7 152.472,173.7 153.567,173.7 154.584,173.7 155.536,173.7 156.429,173.7 157.273,173.7 158.071,173.7 158.829,173.7" stroke="#0000ff" stroke-linecap="butt" stroke-linejoin="round" stroke-width="2"/>
   <polyline fill="none" points="412.491,168.7 422.491,178.7" stroke="#bf0000" stroke-linecap="square" stroke-linejoin="miter" stroke-width="2"/>
   <polyline fill="none" points="412.491,178.7 422.491,168.7" stroke="#bf0000" stroke-linecap="square" stroke-linejoin="miter" stroke-width="2"/>
   <polyline fill="none" points="232.717,168.7 242.717,178.7" stroke="#bf0000" stroke-linecap="square" stroke-linejoin="miter" stroke-width="2"/>
   <polyline fill="none" points="232.717,178.7 242.717,168.7" stroke="#bf0000" stroke-linecap="square" stroke-linejoin="miter" stroke-width="2"/>
   <polyline fill="none" points="212.754,173.7 212.259,175.869 210.872,177.609 208.867,178.575 206.642,178.575 204.637,177.609 203.249,175.869 202.754,173.7 203.249,171.531 204.637,169.791 206.642,168.825 208.867,168.825 210.872,169.791 212.259,171.531 212.754,173.7" stroke="#00bf00" stroke-linecap="round" stroke-linejoin="round" stroke-width="2"/>
   <polyline fill="none" points="351.7,214.912 350.147,214.308 348.636,213.637 347.167,212.903 345.74,212.106 344.351,211.247 343.002,210.328 341.689,209.348 340.414,208.307 339.173,207.203 337.967,206.034 336.795,204.796 335.655,203.486 334.547,202.097 333.47,200.621 332.423,199.045 331.405,197.354 330.415,195.525 329.453,193.523 328.517,191.293 327.608,188.738 326.724,185.656 325.865,181.449 325.865,165.951 326.724,161.744 327.608,158.662 328.517,156.107 329.453,153.877 330.415,151.875 331.405,150.046 332.423,148.355 333.47,146.779 334.547,145.303 335.655,143.914 336.795,142.604 337.967,141.366 339.173,140.197 340.414,139.093 341.689,138.052 343.002,137.072 344.351,136.153 345.74,135.294 347.167,134.497 348.636,133.763 350.147,133.092 351.7,132.488" stroke="#000000" stroke-dasharray="1,3,1,3,1,3,1,3" stroke-linecap="butt" stroke-linejoin="round" stroke-width="0.6"/>
   <g font-family="FreeSans" font-size="11.6513" font-style="normal" font-weight="normal" transform="translate(351.7,137.488) rotate(-0,-0,-5)" xml:space="preserve">
    <text fill="rgb(0,0,0)" x="0 6 9 15 " y="-0">0.1 </text>
    <text fill="rgb(0,0,0)" x="18 " y="-0">π</text>
    <text fill="rgb(0,0,0)" x="25 28 " y="-0">/T</text>
   </g>
   <polyline fill="none" points="334.677,252.089 332.075,249.888 329.624,247.623 327.315,245.303 325.141,242.932 323.094,240.514 321.166,238.054 319.353,235.551 317.646,233.008 316.039,230.422 314.529,227.792 313.108,225.114 311.771,222.381 310.515,219.586 309.335,216.716 308.225,213.756 307.183,210.681 306.205,207.461 305.286,204.046 304.424,200.357 303.615,196.257 302.856,191.458 302.144,185.099 302.144,162.301 302.856,155.942 303.615,151.143 304.424,147.043 305.286,143.354 306.205,139.939 307.183,136.719 308.225,133.644 309.335,130.684 310.515,127.814 311.771,125.019 313.108,122.286 314.529,119.608 316.039,116.978 317.646,114.392 319.353,111.849 321.166,109.346 323.094,106.886 325.141,104.468 327.315,102.097 329.624,99.7766 332.075,97.5122 334.677,95.3108" stroke="#000000" stroke-dasharray="1,3,1,3,1,3,1,3" stroke-linecap="butt" stroke-linejoin="round" stroke-width="0.6"/>
   <g font-family="FreeSans" font-size="11.6513" font-style="normal" font-weight="normal" transform="translate(334.677,100.311) rotate(-0,-0,-5)" xml:space="preserve">
    <text fill="rgb(0,0,0)" x="0 6 9 15 " y="-0">0.2 </text>
    <text fill="rgb(0,0,0)" x="18 " y="-0">π</text>
    <text fill="rgb(0,0,0)" x="25 28 " y="-0">/T</text>
   </g>
   <polyline fill="none" points="308.162,281.593 305.386,277.142 302.881,272.742 300.626,268.398 298.597,264.115 296.775,259.895 295.142,255.737 293.68,251.639 292.376,247.599 291.214,243.611 290.182,239.669 289.268,235.764 288.462,231.886 287.753,228.022 287.132,224.155 286.592,220.263 286.125,216.319 285.724,212.285 285.383,208.103 285.095,203.688 284.857,198.887 284.662,193.387 284.507,186.249 284.507,161.151 284.662,154.013 284.857,148.513 285.095,143.712 285.383,139.297 285.724,135.115 286.125,131.081 286.592,127.137 287.132,123.245 287.753,119.378 288.462,115.514 289.268,111.636 290.182,107.731 291.214,103.789 292.376,99.8008 293.68,95.7606 295.142,91.6631 296.775,87.5051 298.597,83.2848 300.626,79.002 302.881,74.6584 305.386,70.258 308.162,65.8065" stroke="#000000" stroke-dasharray="1,3,1,3,1,3,1,3" stroke-linecap="butt" stroke-linejoin="round" stroke-width="0.6"/>
   <g font-family="FreeSans" font-size="11.6513" font-style="normal" font-weight="normal" transform="translate(308.162,70.8066) rotate(-0,-0,-5)" xml:space="preserve">
    <text fill="rgb(0,0,0)" x="0 6 9 15 " y="-0">0.3 </text>
    <text fill="rgb(0,0,0)" x="18 " y="-0">π</text>
    <text fill="rgb(0,0,0)" x="25 28 " y="-0">/T</text>
   </g>
   <polyline fill="none" points="274.752,300.536 272.891,293.666 271.372,287.077 270.151,280.759 269.19,274.702 268.455,268.893 267.915,263.317 267.545,257.96 267.32,252.806 267.221,247.837 267.229,243.036 267.329,238.384 267.506,233.86 267.748,229.444 268.044,225.11 268.386,220.83 268.765,216.57 269.174,212.286 269.606,207.917 270.057,203.374 270.521,198.506 270.995,193.004 271.475,185.955 271.475,161.445 270.995,154.396 270.521,148.894 270.057,144.026 269.606,139.483 269.174,135.114 268.765,130.83 268.386,126.57 268.044,122.29 267.748,117.956 267.506,113.54 267.329,109.016 267.229,104.364 267.221,99.5631 267.32,94.5941 267.545,89.4396 267.915,84.0826 268.455,78.507 269.19,72.6978 270.151,66.6408 271.372,60.3232 272.891,53.7339 274.752,46.8636" stroke="#000000" stroke-dasharray="1,3,1,3,1,3,1,3" stroke-linecap="butt" stroke-linejoin="round" stroke-width="0.6"/>
   <g font-family="FreeSans" font-size="11.6513" font-style="normal" font-weight="normal" transform="translate(274.752,51.8636) rotate(-0,-0,-5)" xml:space="preserve">
    <text fill="rgb(0,0,0)" x="0 6 9 15 " y="-0">0.4 </text>
    <text fill="rgb(0,0,0)" x="18 " y="-0">π</text>
    <text fill="rgb(0,0,0)" x="25 28 " y="-0">/T</text>
   </g>
   <polyline fill="none" points="237.717,307.064 237.887,298.157 238.353,289.844 239.055,282.08 239.945,274.821 240.981,268.027 242.126,261.656 243.353,255.67 244.636,250.032 245.956,244.707 247.296,239.659 248.643,234.856 249.984,230.265 251.313,225.853 252.621,221.586 253.903,217.429 255.154,213.34 256.373,209.273 257.555,205.165 258.7,200.929 259.808,196.421 260.876,191.356 261.906,184.896 261.906,162.504 260.876,156.044 259.808,150.979 258.7,146.471 257.555,142.235 256.373,138.127 255.154,134.06 253.903,129.971 252.621,125.814 251.313,121.547 249.984,117.135 248.643,112.544 247.296,107.741 245.956,102.693 244.636,97.3676 243.353,91.7298 242.126,85.7441 240.981,79.3734 239.945,72.5789 239.055,65.3204 238.353,57.556 237.887,49.2426 237.717,40.3364" stroke="#000000" stroke-dasharray="1,3,1,3,1,3,1,3" stroke-linecap="butt" stroke-linejoin="round" stroke-width="0.6"/>
   <g font-family="FreeSans" font-size="11.6513" font-style="normal" font-weight="normal" transform="translate(237.717,45.3364) rotate(-0,-0,-5)" xml:space="preserve">
    <text fill="rgb(0,0,0)" x="0 6 9 15 " y="-0">0.5 </text>
    <text fill="rgb(0,0,0)" x="18 " y="-0">π</text>
    <text fill="rgb(0,0,0)" x="25 28 " y="-0">/T</text>
   </g>
   <polyline fill="none" points="200.681,300.536 203.82,290.51 207.049,281.402 210.309,273.114 213.556,265.557 216.755,258.648 219.881,252.315 222.916,246.488 225.845,241.106 228.661,236.113 231.359,231.457 233.934,227.092 236.388,222.973 238.722,219.058 240.938,215.306 243.039,211.678 245.03,208.129 246.915,204.611 248.699,201.065 250.387,197.41 251.983,193.514 253.494,189.123 254.923,183.499 254.923,163.901 253.494,158.277 251.983,153.886 250.387,149.991 248.699,146.335 246.915,142.789 245.03,139.271 243.039,135.722 240.938,132.094 238.722,128.342 236.388,124.427 233.934,120.308 231.359,115.943 228.661,111.287 225.845,106.294 222.916,100.912 219.881,95.0853 216.755,88.7515 213.556,81.8433 210.309,74.286 207.049,65.998 203.82,56.8897 200.681,46.8636" stroke="#000000" stroke-dasharray="1,3,1,3,1,3,1,3" stroke-linecap="butt" stroke-linejoin="round" stroke-width="0.6"/>
   <g font-family="FreeSans" font-size="11.6513" font-style="normal" font-weight="normal" transform="translate(200.681,51.8636) rotate(-0,-0,-5)" xml:space="preserve">
    <text fill="rgb(0,0,0)" x="0 6 9 15 " y="-0">0.6 </text>
    <text fill="rgb(0,0,0)" x="18 " y="-0">π</text>
    <text fill="rgb(0,0,0)" x="25 28 " y="-0">/T</text>
   </g>
   <polyline fill="none" points="167.271,281.593 173.956,271.794 180.349,263.158 186.425,255.523 192.168,248.75 197.573,242.715 202.645,237.31 207.392,232.443 211.826,228.031 215.961,224.003 219.814,220.297 223.402,216.857 226.741,213.635 229.849,210.584 232.742,207.665 235.436,204.836 237.946,202.057 240.285,199.283 242.467,196.463 244.505,193.523 246.409,190.351 248.191,186.728 249.86,182.02 249.86,165.38 248.191,160.672 246.409,157.049 244.505,153.877 242.467,150.937 240.285,148.117 237.946,145.343 235.436,142.564 232.742,139.735 229.849,136.816 226.741,133.765 223.402,130.543 219.814,127.103 215.961,123.397 211.826,119.369 207.392,114.957 202.645,110.09 197.573,104.685 192.168,98.65 186.425,91.8767 180.349,84.2424 173.956,75.6059 167.271,65.8065" stroke="#000000" stroke-dasharray="1,3,1,3,1,3,1,3" stroke-linecap="butt" stroke-linejoin="round" stroke-width="0.6"/>
   <g font-family="FreeSans" font-size="11.6513" font-style="normal" font-weight="normal" transform="translate(167.271,70.8066) rotate(-0,-0,-5)" xml:space="preserve">
    <text fill="rgb(0,0,0)" x="0 6 9 15 " y="-0">0.7 </text>
    <text fill="rgb(0,0,0)" x="18 " y="-0">π</text>
    <text fill="rgb(0,0,0)" x="25 28 " y="-0">/T</text>
   </g>
   <polyline fill="none" points="140.756,252.089 151.061,244.118 160.549,237.376 169.26,231.646 177.24,226.748 184.538,222.529 191.207,218.862 197.298,215.641 202.861,212.779 207.943,210.202 212.589,207.847 216.84,205.664 220.732,203.606 224.302,201.636 227.581,199.719 230.597,197.821 233.376,195.912 235.941,193.955 238.312,191.909 240.51,189.715 242.549,187.28 244.446,184.42 246.214,180.604 246.214,166.796 244.446,162.98 242.549,160.121 240.51,157.685 238.312,155.491 235.941,153.445 233.376,151.488 230.597,149.579 227.581,147.681 224.302,145.764 220.732,143.794 216.84,141.736 212.589,139.553 207.943,137.198 202.861,134.621 197.298,131.759 191.207,128.538 184.538,124.871 177.24,120.652 169.26,115.754 160.549,110.024 151.061,103.282 140.756,95.3108" stroke="#000000" stroke-dasharray="1,3,1,3,1,3,1,3" stroke-linecap="butt" stroke-linejoin="round" stroke-width="0.6"/>
   <g font-family="FreeSans" font-size="11.6513" font-style="normal" font-weight="normal" transform="translate(140.756,100.311) rotate(-0,-0,-5)" xml:space="preserve">
    <text fill="rgb(0,0,0)" x="0 6 9 15 " y="-0">0.8 </text>
    <text fill="rgb(0,0,0)" x="18 " y="-0">π</text>
    <text fill="rgb(0,0,0)" x="25 28 " y="-0">/T</text>
   </g>
   <polyline fill="none" points="123.733,214.912 137.157,210.397 149.163,206.917 159.892,204.226 169.479,202.133 178.047,200.485 185.712,199.159 192.578,198.063 198.737,197.122 204.272,196.277 209.258,195.484 213.76,194.707 217.835,193.917 221.533,193.092 224.899,192.211 227.971,191.255 230.783,190.207 233.364,189.043 235.74,187.736 237.934,186.243 239.965,184.491 241.851,182.333 243.606,179.327 243.606,168.073 241.851,165.067 239.965,162.909 237.934,161.157 235.74,159.664 233.364,158.357 230.783,157.193 227.971,156.145 224.899,155.189 221.533,154.308 217.835,153.483 213.76,152.693 209.258,151.916 204.272,151.123 198.737,150.278 192.578,149.337 185.712,148.241 178.047,146.915 169.479,145.267 159.892,143.174 149.163,140.483 137.157,137.003 123.733,132.488" stroke="#000000" stroke-dasharray="1,3,1,3,1,3,1,3" stroke-linecap="butt" stroke-linejoin="round" stroke-width="0.6"/>
   <g font-family="FreeSans" font-size="11.6513" font-style="normal" font-weight="normal" transform="translate(123.733,137.488) rotate(-0,-0,-5)" xml:space="preserve">
    <text fill="rgb(0,0,0)" x="0 6 9 15 " y="-0">0.9 </text>
    <text fill="rgb(0,0,0)" x="18 " y="-0">π</text>
    <text fill="rgb(0,0,0)" x="25 28 " y="-0">/T</text>
   </g>
   <polyline fill="none" points="117.867,173.7 133.34,174.053 146.822,174.933 158.581,176.121 168.854,177.461 177.85,178.838 185.748,180.172 192.705,181.41 198.854,182.514 204.308,183.463 209.166,184.244 213.51,184.851 217.412,185.28 220.931,185.533 224.118,185.61 227.017,185.511 229.665,185.235 232.094,184.775 234.329,184.117 236.395,183.235 238.31,182.076 240.091,180.524 241.754,178.22 241.754,169.18 240.091,166.876 238.31,165.324 236.395,164.165 234.329,163.283 232.094,162.625 229.665,162.165 227.017,161.889 224.118,161.79 220.931,161.867 217.412,162.12 213.51,162.549 209.166,163.156 204.308,163.937 198.854,164.886 192.705,165.99 185.748,167.228 177.85,168.562 168.854,169.939 158.581,171.279 146.822,172.467 133.34,173.347 117.867,173.7" stroke="#000000" stroke-dasharray="1,3,1,3,1,3,1,3" stroke-linecap="butt" stroke-linejoin="round" stroke-width="0.6"/>
   <g font-family="FreeSans" font-size="11.6513" font-style="normal" font-weight="normal" transform="translate(117.867,178.7) rotate(-0,-0,-5)" xml:space="preserve">
    <text fill="rgb(0,0,0)" x="0 6 9 15 " y="-0">1.0 </text>
    <text fill="rgb(0,0,0)" x="18 " y="-0">π</text>
    <text fill="rgb(0,0,0)" x="25 28 " y="-0">/T</text>
   </g>
   <polyline fill="none" points="357.566,173.7 357.33,165.326 356.621,156.985 355.443,148.71 353.801,140.534 351.7,132.488 349.15,124.606 346.16,116.917 342.742,109.452 338.909,102.24 334.677,95.3108 330.062,88.6908 325.083,82.4063 319.759,76.4821 314.112,70.9416 308.162,65.8065 301.935,61.0974 295.455,56.8326 288.746,53.029 281.836,49.7016 274.752,46.8636 267.522,44.5262 260.174,42.6986 252.738,41.388 245.242,40.5995 237.717,40.3364 230.191,40.5995 222.696,41.388 215.259,42.6986 207.911,44.5262 200.681,46.8636 193.597,49.7016 186.687,53.029 179.979,56.8326 173.498,61.0974 167.271,65.8065 161.322,70.9416 155.674,76.4821 150.35,82.4063 145.371,88.6908 140.756,95.3108 136.524,102.24 132.692,109.452 129.274,116.917 126.283,124.606 123.733,132.488 121.632,140.534 119.99,148.71 118.812,156.985 118.104,165.326 117.867,173.7" stroke="#000000" stroke-dasharray="1,3,1,3,1,3,1,3" stroke-linecap="butt" stroke-linejoin="round" stroke-width="0.6"/>
   <polyline fill="none" points="357.566,173.7 357.33,182.074 356.621,190.415 355.443,198.69 353.801,206.866 351.7,214.912 349.15,222.794 346.16,230.483 342.742,237.948 338.909,245.16 334.677,252.089 330.062,258.709 325.083,264.994 319.759,270.918 314.112,276.458 308.162,281.593 301.935,286.303 295.455,290.567 288.746,294.371 281.836,297.698 274.752,300.536 267.522,302.874 260.174,304.701 252.738,306.012 245.242,306.8 237.717,307.064 230.191,306.8 222.696,306.012 215.259,304.701 207.911,302.874 200.681,300.536 193.597,297.698 186.687,294.371 179.979,290.567 173.498,286.303 167.271,281.593 161.322,276.458 155.674,270.918 150.35,264.994 145.371,258.709 140.756,252.089 136.524,245.16 132.692,237.948 129.274,230.483 126.283,222.794 123.733,214.912 121.632,206.866 119.99,198.69 118.812,190.415 118.104,182.074 117.867,173.7" stroke="#000000" stroke-dasharray="1,3,1,3,1,3,1,3" stroke-linecap="butt" stroke-linejoin="round" stroke-width="0.6"/>
   <g font-family="FreeSans" font-size="11.6513" font-style="normal" font-weight="normal" transform="translate(260.174,47.6986) rotate(-0,-0,-5)" xml:space="preserve">
    <text fill="rgb(0,0,0)" x="0 6 9 " y="-0">0.0</text>
   </g>
   <polyline fill="none" points="357.566,173.7 356.583,165.42 355.146,157.276 353.266,149.298 350.956,141.516 348.231,133.957 345.107,126.648 341.601,119.615 337.731,112.881 333.517,106.471 328.98,100.404 324.142,94.7005 319.025,89.3779 313.653,84.4525 308.051,79.9387 302.243,75.8489 296.254,72.1939 290.11,68.9827 283.838,66.2223 277.463,63.9178 271.011,62.0727 264.51,60.6884 257.985,59.7646 251.462,59.2992 244.966,59.2883 238.523,59.7262 232.158,60.6056 225.893,61.9176 219.753,63.6516 213.761,65.7955 207.937,68.3358 202.303,71.2577 196.878,74.5448 191.68,78.1797 186.729,82.1439 182.039,86.4176 177.626,90.9803 173.504,95.8103 169.685,100.886 166.18,106.183 163,111.679 160.153,117.35 157.645,123.171 155.483,129.117 153.67,135.164 152.21,141.287 151.103,147.46 150.35,153.659 149.948,159.859 149.896,166.036 150.189,172.166 150.189,172.166 150.201,172.32 150.213,172.473 150.225,172.627 150.238,172.78 150.25,172.934 150.263,173.087 150.276,173.24 150.289,173.394 150.303,173.547 150.317,173.7" stroke="#000000" stroke-dasharray="1,3,1,3,1,3,1,3" stroke-linecap="butt" stroke-linejoin="round" stroke-width="0.6"/>
   <polyline fill="none" points="357.566,173.7 356.583,181.98 355.146,190.124 353.266,198.102 350.956,205.884 348.231,213.443 345.107,220.752 341.601,227.785 337.731,234.519 333.517,240.929 328.98,246.996 324.142,252.7 319.025,258.022 313.653,262.947 308.051,267.461 302.243,271.551 296.254,275.206 290.11,278.417 283.838,281.178 277.463,283.482 271.011,285.327 264.51,286.712 257.985,287.635 251.462,288.101 244.966,288.112 238.523,287.674 232.158,286.794 225.893,285.482 219.753,283.748 213.761,281.605 207.937,279.064 202.303,276.142 196.878,272.855 191.68,269.22 186.729,265.256 182.039,260.982 177.626,256.42 173.504,251.59 169.685,246.514 166.18,241.217 163,235.721 160.153,230.05 157.645,224.229 155.483,218.283 153.67,212.236 152.21,206.113 151.103,199.94 150.35,193.741 149.948,187.541 149.896,181.364 150.189,175.234 150.189,175.234 150.201,175.08 150.213,174.927 150.225,174.773 150.238,174.62 150.25,174.466 150.263,174.313 150.276,174.16 150.289,174.006 150.303,173.853 150.317,173.7" stroke="#000000" stroke-dasharray="1,3,1,3,1,3,1,3" stroke-linecap="butt" stroke-linejoin="round" stroke-width="0.6"/>
   <g font-family="FreeSans" font-size="11.6513" font-style="normal" font-weight="normal" transform="translate(264.51,65.6884) rotate(-0,-0,-5)" xml:space="preserve">
    <text fill="rgb(0,0,0)" x="0 6 9 " y="-0">0.1</text>
   </g>
   <polyline fill="none" points="357.566,173.7 355.845,165.597 353.707,157.728 351.169,150.115 348.253,142.784 344.977,135.755 341.366,129.048 337.439,122.682 333.222,116.673 328.737,111.035 324.009,105.781 319.062,100.923 313.92,96.4681 308.609,92.4252 303.154,88.7995 297.579,85.5946 291.909,82.8126 286.168,80.4539 280.381,78.5172 274.572,76.9995 268.763,75.8963 262.977,75.2017 257.237,74.9082 251.563,75.007 245.975,75.488 240.494,76.3399 235.139,77.55 229.926,79.1049 224.873,80.9898 219.996,83.1893 215.308,85.6869 210.825,88.4656 206.557,91.5075 202.517,94.7942 198.714,98.3069 195.158,102.026 191.856,105.933 188.814,110.006 186.039,114.227 183.534,118.574 181.302,123.029 179.345,127.571 177.665,132.179 176.26,136.835 175.13,141.519 174.271,146.213 173.681,150.897 173.356,155.553 173.289,160.165 173.475,164.715 173.907,169.187 173.907,169.187 173.965,169.643 174.026,170.098 174.089,170.552 174.155,171.005 174.223,171.457 174.294,171.908 174.367,172.358 174.443,172.806 174.521,173.254 174.601,173.7" stroke="#000000" stroke-dasharray="1,3,1,3,1,3,1,3" stroke-linecap="butt" stroke-linejoin="round" stroke-width="0.6"/>
   <polyline fill="none" points="357.566,173.7 355.845,181.803 353.707,189.672 351.169,197.285 348.253,204.616 344.977,211.645 341.366,218.352 337.439,224.718 333.222,230.727 328.737,236.365 324.009,241.619 319.062,246.478 313.92,250.932 308.609,254.975 303.154,258.601 297.579,261.805 291.909,264.587 286.168,266.946 280.381,268.883 274.572,270.401 268.763,271.504 262.977,272.198 257.237,272.492 251.563,272.393 245.975,271.912 240.494,271.06 235.139,269.85 229.926,268.295 224.873,266.41 219.996,264.211 215.308,261.713 210.825,258.934 206.557,255.893 202.517,252.606 198.714,249.093 195.158,245.374 191.856,241.467 188.814,237.394 186.039,233.173 183.534,228.826 181.302,224.371 179.345,219.829 177.665,215.221 176.26,210.565 175.13,205.881 174.271,201.187 173.681,196.503 173.356,191.847 173.289,187.235 173.475,182.685 173.907,178.213 173.907,178.213 173.965,177.757 174.026,177.302 174.089,176.848 174.155,176.395 174.223,175.943 174.294,175.492 174.367,175.042 174.443,174.594 174.521,174.146 174.601,173.7" stroke="#000000" stroke-dasharray="1,3,1,3,1,3,1,3" stroke-linecap="butt" stroke-linejoin="round" stroke-width="0.6"/>
   <g font-family="FreeSans" font-size="11.6513" font-style="normal" font-weight="normal" transform="translate(274.572,81.9995) rotate(-0,-0,-5)" xml:space="preserve">
    <text fill="rgb(0,0,0)" x="0 6 9 " y="-0">0.2</text>
   </g>
   <polyline fill="none" points="357.566,173.7 355.117,165.86 352.304,158.341 349.151,151.16 345.683,144.331 341.925,137.869 337.903,131.785 333.641,126.088 329.166,120.787 324.502,115.886 319.674,111.391 314.708,107.303 309.627,103.624 304.456,100.352 299.217,97.4854 293.934,95.02 288.629,92.9505 283.323,91.2704 278.036,89.9717 272.789,89.0453 267.601,88.4811 262.488,88.2678 257.469,88.3933 252.559,88.8446 247.773,89.6078 243.125,90.6684 238.628,92.0114 234.294,93.6212 230.134,95.4814 226.157,97.5759 222.372,99.8877 218.786,102.4 215.406,105.095 212.238,107.956 209.286,110.967 206.553,114.108 204.041,117.364 201.754,120.718 199.69,124.154 197.849,127.653 196.232,131.202 194.834,134.784 193.655,138.385 192.69,141.988 191.935,145.582 191.385,149.151 191.035,152.683 190.878,156.166 190.909,159.588 191.12,162.939 191.504,166.206 191.504,166.206 191.622,166.982 191.749,167.752 191.885,168.516 192.031,169.275 192.186,170.028 192.35,170.775 192.523,171.515 192.704,172.25 192.895,172.978 193.094,173.7" stroke="#000000" stroke-dasharray="1,3,1,3,1,3,1,3" stroke-linecap="butt" stroke-linejoin="round" stroke-width="0.6"/>
   <polyline fill="none" points="357.566,173.7 355.117,181.54 352.304,189.059 349.151,196.24 345.683,203.069 341.925,209.531 337.903,215.615 333.641,221.312 329.166,226.613 324.502,231.514 319.674,236.009 314.708,240.097 309.627,243.776 304.456,247.048 299.217,249.915 293.934,252.38 288.629,254.449 283.323,256.13 278.036,257.428 272.789,258.355 267.601,258.919 262.488,259.132 257.469,259.007 252.559,258.555 247.773,257.792 243.125,256.732 238.628,255.389 234.294,253.779 230.134,251.919 226.157,249.824 222.372,247.512 218.786,245 215.406,242.305 212.238,239.444 209.286,236.433 206.553,233.292 204.041,230.036 201.754,226.682 199.69,223.246 197.849,219.747 196.232,216.198 194.834,212.616 193.655,209.015 192.69,205.412 191.935,201.818 191.385,198.249 191.035,194.717 190.878,191.234 190.909,187.812 191.12,184.461 191.504,181.194 191.504,181.194 191.622,180.418 191.749,179.648 191.885,178.884 192.031,178.125 192.186,177.372 192.35,176.625 192.523,175.885 192.704,175.15 192.895,174.422 193.094,173.7" stroke="#000000" stroke-dasharray="1,3,1,3,1,3,1,3" stroke-linecap="butt" stroke-linejoin="round" stroke-width="0.6"/>
   <g font-family="FreeSans" font-size="11.6513" font-style="normal" font-weight="normal" transform="translate(278.036,94.9717) rotate(-0,-0,-5)" xml:space="preserve">
    <text fill="rgb(0,0,0)" x="0 6 9 " y="-0">0.3</text>
   </g>
   <polyline fill="none" points="357.566,173.7 354.398,166.215 350.936,159.125 347.208,152.44 343.241,146.163 339.062,140.301 334.698,134.854 330.175,129.824 325.518,125.21 320.751,121.008 315.898,117.215 310.982,113.826 306.026,110.833 301.049,108.228 296.072,106.004 291.115,104.149 286.195,102.652 281.33,101.503 276.536,100.688 271.827,100.193 267.218,100.006 262.721,100.112 258.348,100.496 254.11,101.142 250.017,102.037 246.077,103.163 242.299,104.506 238.687,106.049 235.249,107.776 231.99,109.673 228.912,111.724 226.018,113.912 223.312,116.223 220.794,118.642 218.464,121.155 216.323,123.746 214.369,126.403 212.6,129.111 211.015,131.859 209.611,134.633 208.383,137.421 207.329,140.212 206.443,142.995 205.721,145.76 205.158,148.497 204.747,151.196 204.484,153.85 204.361,156.451 204.373,158.99 204.512,161.461 204.773,163.859 204.773,163.859 204.93,164.924 205.11,165.973 205.312,167.004 205.536,168.018 205.78,169.013 206.046,169.989 206.33,170.946 206.634,171.884 206.956,172.802 207.296,173.7" stroke="#000000" stroke-dasharray="1,3,1,3,1,3,1,3" stroke-linecap="butt" stroke-linejoin="round" stroke-width="0.6"/>
   <polyline fill="none" points="357.566,173.7 354.398,181.185 350.936,188.275 347.208,194.96 343.241,201.237 339.062,207.099 334.698,212.546 330.175,217.576 325.518,222.19 320.751,226.392 315.898,230.185 310.982,233.574 306.026,236.567 301.049,239.172 296.072,241.396 291.115,243.251 286.195,244.748 281.33,245.897 276.536,246.712 271.827,247.207 267.218,247.394 262.721,247.288 258.348,246.904 254.11,246.258 250.017,245.363 246.077,244.237 242.299,242.894 238.687,241.351 235.249,239.624 231.99,237.727 228.912,235.676 226.018,233.488 223.312,231.177 220.794,228.758 218.464,226.245 216.323,223.654 214.369,220.997 212.6,218.289 211.015,215.541 209.611,212.767 208.383,209.979 207.329,207.188 206.443,204.405 205.721,201.64 205.158,198.903 204.747,196.204 204.484,193.55 204.361,190.949 204.373,188.41 204.512,185.939 204.773,183.541 204.773,183.541 204.93,182.476 205.11,181.427 205.312,180.396 205.536,179.382 205.78,178.387 206.046,177.411 206.33,176.454 206.634,175.516 206.956,174.598 207.296,173.7" stroke="#000000" stroke-dasharray="1,3,1,3,1,3,1,3" stroke-linecap="butt" stroke-linejoin="round" stroke-width="0.6"/>
   <g font-family="FreeSans" font-size="11.6513" font-style="normal" font-weight="normal" transform="translate(281.33,106.503) rotate(-0,-0,-5)" xml:space="preserve">
    <text fill="rgb(0,0,0)" x="0 6 9 " y="-0">0.4</text>
   </g>
   <polyline fill="none" points="357.566,173.7 353.688,166.671 349.602,160.097 345.337,153.975 340.92,148.302 336.377,143.071 331.733,138.276 327.013,133.909 322.238,129.959 317.431,126.418 312.612,123.273 307.8,120.512 303.013,118.123 298.267,116.093 293.579,114.406 288.963,113.048 284.432,112.006 279.998,111.262 275.672,110.803 271.465,110.613 267.385,110.675 263.439,110.975 259.636,111.496 255.98,112.224 252.478,113.142 249.132,114.236 245.946,115.491 242.922,116.892 240.063,118.425 237.369,120.076 234.841,121.832 232.477,123.679 230.277,125.605 228.24,127.598 226.363,129.646 224.644,131.737 223.08,133.862 221.666,136.01 220.401,138.171 219.278,140.336 218.295,142.497 217.445,144.646 216.725,146.775 216.129,148.878 215.652,150.947 215.288,152.977 215.033,154.963 214.879,156.9 214.823,158.783 214.857,160.608 214.977,162.373 214.977,162.373 215.124,163.694 215.317,164.975 215.552,166.216 215.827,167.415 216.14,168.571 216.487,169.685 216.867,170.755 217.277,171.781 217.714,172.763 218.177,173.7" stroke="#000000" stroke-dasharray="1,3,1,3,1,3,1,3" stroke-linecap="butt" stroke-linejoin="round" stroke-width="0.6"/>
   <polyline fill="none" points="357.566,173.7 353.688,180.729 349.602,187.303 345.337,193.425 340.92,199.098 336.377,204.329 331.733,209.124 327.013,213.491 322.238,217.441 317.431,220.982 312.612,224.127 307.8,226.888 303.013,229.277 298.267,231.307 293.579,232.994 288.963,234.352 284.432,235.394 279.998,236.138 275.672,236.597 271.465,236.787 267.385,236.725 263.439,236.425 259.636,235.904 255.98,235.176 252.478,234.258 249.132,233.164 245.946,231.909 242.922,230.508 240.063,228.975 237.369,227.324 234.841,225.568 232.477,223.721 230.277,221.795 228.24,219.802 226.363,217.754 224.644,215.663 223.08,213.538 221.666,211.39 220.401,209.229 219.278,207.064 218.295,204.903 217.445,202.754 216.725,200.625 216.129,198.522 215.652,196.453 215.288,194.423 215.033,192.437 214.879,190.5 214.823,188.617 214.857,186.792 214.977,185.027 214.977,185.027 215.124,183.706 215.317,182.425 215.552,181.184 215.827,179.985 216.14,178.829 216.487,177.715 216.867,176.645 217.277,175.619 217.714,174.637 218.177,173.7" stroke="#000000" stroke-dasharray="1,3,1,3,1,3,1,3" stroke-linecap="butt" stroke-linejoin="round" stroke-width="0.6"/>
   <g font-family="FreeSans" font-size="11.6513" font-style="normal" font-weight="normal" transform="translate(284.432,117.006) rotate(-0,-0,-5)" xml:space="preserve">
    <text fill="rgb(0,0,0)" x="0 6 9 " y="-0">0.5</text>
   </g>
   <polyline fill="none" points="357.566,173.7 352.986,167.247 348.301,161.287 343.535,155.808 338.714,150.794 333.858,146.232 328.99,142.105 324.128,138.398 319.291,135.095 314.495,132.178 309.756,129.631 305.086,127.436 300.5,125.577 296.009,124.035 291.622,122.795 287.348,121.838 283.196,121.147 279.173,120.707 275.285,120.5 271.536,120.51 267.931,120.722 264.473,121.119 261.164,121.688 258.006,122.413 255.001,123.281 252.148,124.277 249.447,125.388 246.898,126.603 244.5,127.908 242.249,129.293 240.145,130.746 238.185,132.257 236.365,133.815 234.682,135.412 233.133,137.039 231.714,138.686 230.421,140.347 229.25,142.015 228.196,143.681 227.254,145.341 226.421,146.988 225.691,148.617 225.06,150.223 224.523,151.802 224.075,153.349 223.711,154.861 223.427,156.335 223.218,157.768 223.079,159.158 223.006,160.501 222.995,161.798 222.995,161.798 223.059,163.349 223.204,164.822 223.422,166.215 223.704,167.526 224.043,168.756 224.432,169.904 224.864,170.972 225.333,171.959 225.833,172.868 226.357,173.7" stroke="#000000" stroke-dasharray="1,3,1,3,1,3,1,3" stroke-linecap="butt" stroke-linejoin="round" stroke-width="0.6"/>
   <polyline fill="none" points="357.566,173.7 352.986,180.153 348.301,186.113 343.535,191.592 338.714,196.606 333.858,201.168 328.99,205.295 324.128,209.002 319.291,212.305 314.495,215.222 309.756,217.769 305.086,219.964 300.5,221.823 296.009,223.365 291.622,224.605 287.348,225.562 283.196,226.253 279.173,226.693 275.285,226.9 271.536,226.89 267.931,226.678 264.473,226.281 261.164,225.712 258.006,224.987 255.001,224.119 252.148,223.123 249.447,222.012 246.898,220.797 244.5,219.492 242.249,218.107 240.145,216.654 238.185,215.143 236.365,213.585 234.682,211.988 233.133,210.361 231.714,208.714 230.421,207.053 229.25,205.385 228.196,203.719 227.254,202.059 226.421,200.412 225.691,198.783 225.06,197.177 224.523,195.598 224.075,194.051 223.711,192.539 223.427,191.065 223.218,189.632 223.079,188.242 223.006,186.899 222.995,185.602 222.995,185.602 223.059,184.051 223.204,182.578 223.422,181.185 223.704,179.874 224.043,178.644 224.432,177.496 224.864,176.428 225.333,175.441 225.833,174.532 226.357,173.7" stroke="#000000" stroke-dasharray="1,3,1,3,1,3,1,3" stroke-linecap="butt" stroke-linejoin="round" stroke-width="0.6"/>
   <g font-family="FreeSans" font-size="11.6513" font-style="normal" font-weight="normal" transform="translate(287.348,126.838) rotate(-0,-0,-5)" xml:space="preserve">
    <text fill="rgb(0,0,0)" x="0 6 9 " y="-0">0.6</text>
   </g>
   <polyline fill="none" points="357.566,173.7 352.294,167.975 347.032,162.754 341.801,158.014 336.617,153.733 331.496,149.887 326.452,146.455 321.497,143.415 316.643,140.745 311.9,138.425 307.275,136.434 302.778,134.751 298.413,133.356 294.187,132.232 290.103,131.359 286.165,130.719 282.375,130.296 278.736,130.072 275.249,130.032 271.913,130.16 268.729,130.442 265.696,130.864 262.813,131.412 260.078,132.074 257.488,132.837 255.042,133.69 252.736,134.623 250.568,135.624 248.534,136.685 246.63,137.797 244.853,138.951 243.199,140.139 241.663,141.353 240.241,142.588 238.93,143.836 237.725,145.092 236.621,146.35 235.614,147.605 234.7,148.854 233.874,150.091 233.132,151.313 232.47,152.517 231.884,153.699 231.369,154.858 230.922,155.99 230.537,157.094 230.213,158.167 229.943,159.209 229.726,160.218 229.558,161.192 229.434,162.132 229.434,162.132 229.309,163.907 229.326,165.536 229.461,167.021 229.694,168.363 230.006,169.566 230.379,170.634 230.798,171.574 231.25,172.393 231.722,173.099 232.205,173.7" stroke="#000000" stroke-dasharray="1,3,1,3,1,3,1,3" stroke-linecap="butt" stroke-linejoin="round" stroke-width="0.6"/>
   <polyline fill="none" points="357.566,173.7 352.294,179.425 347.032,184.646 341.801,189.386 336.617,193.667 331.496,197.513 326.452,200.945 321.497,203.985 316.643,206.655 311.9,208.975 307.275,210.966 302.778,212.649 298.413,214.044 294.187,215.168 290.103,216.041 286.165,216.681 282.375,217.104 278.736,217.328 275.249,217.368 271.913,217.24 268.729,216.958 265.696,216.536 262.813,215.988 260.078,215.326 257.488,214.563 255.042,213.71 252.736,212.777 250.568,211.776 248.534,210.715 246.63,209.603 244.853,208.449 243.199,207.261 241.663,206.047 240.241,204.812 238.93,203.564 237.725,202.308 236.621,201.05 235.614,199.795 234.7,198.546 233.874,197.309 233.132,196.087 232.47,194.883 231.884,193.701 231.369,192.542 230.922,191.41 230.537,190.306 230.213,189.233 229.943,188.191 229.726,187.182 229.558,186.208 229.434,185.268 229.434,185.268 229.309,183.493 229.326,181.864 229.461,180.379 229.694,179.037 230.006,177.834 230.379,176.766 230.798,175.826 231.25,175.007 231.722,174.301 232.205,173.7" stroke="#000000" stroke-dasharray="1,3,1,3,1,3,1,3" stroke-linecap="butt" stroke-linejoin="round" stroke-width="0.6"/>
   <g font-family="FreeSans" font-size="11.6513" font-style="normal" font-weight="normal" transform="translate(286.165,135.719) rotate(-0,-0,-5)" xml:space="preserve">
    <text fill="rgb(0,0,0)" x="0 6 9 " y="-0">0.7</text>
   </g>
   <polyline fill="none" points="357.566,173.7 351.61,168.92 345.796,164.615 340.131,160.756 334.625,157.314 329.281,154.264 324.104,151.578 319.098,149.232 314.265,147.202 309.607,145.466 305.125,144.002 300.818,142.789 296.687,141.809 292.729,141.042 288.943,140.471 285.327,140.079 281.877,139.851 278.592,139.772 275.468,139.828 272.501,140.006 269.687,140.293 267.022,140.678 264.502,141.15 262.122,141.7 259.879,142.317 257.766,142.992 255.781,143.719 253.917,144.489 252.171,145.294 250.538,146.129 249.013,146.988 247.591,147.865 246.268,148.755 245.039,149.654 243.901,150.557 242.848,151.461 241.877,152.361 240.983,153.256 240.162,154.142 239.41,155.016 238.724,155.877 238.1,156.723 237.534,157.551 237.023,158.361 236.564,159.151 236.152,159.92 235.786,160.667 235.462,161.392 235.178,162.094 234.93,162.772 234.717,163.426 234.717,163.426 234.221,165.433 233.996,167.176 233.973,168.665 234.096,169.917 234.318,170.953 234.604,171.796 234.923,172.469 235.256,172.997 235.585,173.4 235.899,173.7" stroke="#000000" stroke-dasharray="1,3,1,3,1,3,1,3" stroke-linecap="butt" stroke-linejoin="round" stroke-width="0.6"/>
   <polyline fill="none" points="357.566,173.7 351.61,178.48 345.796,182.785 340.131,186.644 334.625,190.086 329.281,193.136 324.104,195.822 319.098,198.168 314.265,200.198 309.607,201.934 305.125,203.398 300.818,204.611 296.687,205.591 292.729,206.358 288.943,206.929 285.327,207.321 281.877,207.549 278.592,207.628 275.468,207.572 272.501,207.394 269.687,207.107 267.022,206.722 264.502,206.25 262.122,205.7 259.879,205.083 257.766,204.408 255.781,203.681 253.917,202.911 252.171,202.106 250.538,201.271 249.013,200.412 247.591,199.535 246.268,198.645 245.039,197.746 243.901,196.843 242.848,195.939 241.877,195.039 240.983,194.144 240.162,193.258 239.41,192.384 238.724,191.523 238.1,190.677 237.534,189.849 237.023,189.039 236.564,188.249 236.152,187.48 235.786,186.733 235.462,186.008 235.178,185.306 234.93,184.628 234.717,183.974 234.717,183.974 234.221,181.967 233.996,180.224 233.973,178.735 234.096,177.483 234.318,176.447 234.604,175.604 234.923,174.931 235.256,174.403 235.585,174 235.899,173.7" stroke="#000000" stroke-dasharray="1,3,1,3,1,3,1,3" stroke-linecap="butt" stroke-linejoin="round" stroke-width="0.6"/>
   <g font-family="FreeSans" font-size="11.6513" font-style="normal" font-weight="normal" transform="translate(288.943,145.471) rotate(-0,-0,-5)" xml:space="preserve">
    <text fill="rgb(0,0,0)" x="0 6 9 " y="-0">0.8</text>
   </g>
   <polyline fill="none" points="357.566,173.7 350.934,170.249 344.589,167.179 338.524,164.463 332.731,162.071 327.203,159.978 321.932,158.161 316.911,156.595 312.131,155.261 307.585,154.139 303.264,153.209 299.16,152.455 295.266,151.861 291.574,151.413 288.075,151.095 284.763,150.896 281.63,150.803 278.667,150.805 275.869,150.893 273.227,151.056 270.736,151.286 268.387,151.576 266.176,151.917 264.094,152.303 262.137,152.727 260.298,153.184 258.571,153.669 256.952,154.177 255.433,154.704 254.011,155.244 252.68,155.796 251.436,156.356 250.273,156.921 249.188,157.488 248.177,158.054 247.234,158.619 246.357,159.179 245.541,159.734 244.783,160.282 244.08,160.821 243.428,161.35 242.825,161.869 242.267,162.376 241.752,162.872 241.277,163.355 240.839,163.825 240.437,164.281 240.067,164.724 239.729,165.153 239.418,165.568 239.135,165.969 239.135,165.969 237.836,168.229 237.197,169.949 236.95,171.21 236.919,172.104 236.997,172.719 237.118,173.128 237.245,173.391 237.361,173.553 237.457,173.648 237.534,173.7" stroke="#000000" stroke-dasharray="1,3,1,3,1,3,1,3" stroke-linecap="butt" stroke-linejoin="round" stroke-width="0.6"/>
   <polyline fill="none" points="357.566,173.7 350.934,177.151 344.589,180.221 338.524,182.937 332.731,185.329 327.203,187.422 321.932,189.239 316.911,190.805 312.131,192.139 307.585,193.261 303.264,194.191 299.16,194.945 295.266,195.539 291.574,195.987 288.075,196.305 284.763,196.504 281.63,196.597 278.667,196.595 275.869,196.507 273.227,196.344 270.736,196.114 268.387,195.824 266.176,195.483 264.094,195.097 262.137,194.673 260.298,194.216 258.571,193.731 256.952,193.223 255.433,192.697 254.011,192.156 252.68,191.604 251.436,191.044 250.273,190.479 249.188,189.912 248.177,189.346 247.234,188.781 246.357,188.221 245.541,187.666 244.783,187.118 244.08,186.579 243.428,186.05 242.825,185.531 242.267,185.024 241.752,184.528 241.277,184.045 240.839,183.575 240.437,183.119 240.067,182.676 239.729,182.247 239.418,181.832 239.135,181.431 239.135,181.431 237.836,179.171 237.197,177.451 236.95,176.19 236.919,175.296 236.997,174.681 237.118,174.272 237.245,174.009 237.361,173.847 237.457,173.752 237.534,173.7" stroke="#000000" stroke-dasharray="1,3,1,3,1,3,1,3" stroke-linecap="butt" stroke-linejoin="round" stroke-width="0.6"/>
   <g font-family="FreeSans" font-size="11.6513" font-style="normal" font-weight="normal" transform="translate(291.574,156.413) rotate(-0,-0,-5)" xml:space="preserve">
    <text fill="rgb(0,0,0)" x="0 6 9 " y="-0">0.9</text>
   </g>
   <polyline fill="none" points="357.566,173.7 350.268,173.7 343.413,173.7 336.977,173.7 330.932,173.7 325.255,173.7 319.924,173.7 314.918,173.7 310.216,173.7 305.801,173.7 301.655,173.7 297.761,173.7 294.105,173.7 290.671,173.7 287.446,173.7 284.417,173.7 281.573,173.7 278.903,173.7 276.394,173.7 274.039,173.7 271.827,173.7 269.75,173.7 267.799,173.7 265.967,173.7 264.247,173.7 262.631,173.7 261.114,173.7 259.689,173.7 258.351,173.7 257.094,173.7 255.914,173.7 254.806,173.7 253.765,173.7 252.788,173.7 251.87,173.7 251.008,173.7 250.199,173.7 249.439,173.7 248.725,173.7 248.054,173.7 247.425,173.7 246.834,173.7 246.278,173.7 245.757,173.7 245.267,173.7 244.808,173.7 244.376,173.7 243.97,173.7 243.589,173.7 243.232,173.7 242.896,173.7 242.896,173.7 237.717,173.7 237.717,173.7 237.717,173.7 237.717,173.7 237.717,173.7 237.717,173.7 237.717,173.7 237.717,173.7 237.717,173.7 237.717,173.7" stroke="#000000" stroke-dasharray="1,3,1,3,1,3,1,3" stroke-linecap="butt" stroke-linejoin="round" stroke-width="0.6"/>
   <polyline fill="none" points="357.566,173.7 350.268,173.7 343.413,173.7 336.977,173.7 330.932,173.7 325.255,173.7 319.924,173.7 314.918,173.7 310.216,173.7 305.801,173.7 301.655,173.7 297.761,173.7 294.105,173.7 290.671,173.7 287.446,173.7 284.417,173.7 281.573,173.7 278.903,173.7 276.394,173.7 274.039,173.7 271.827,173.7 269.75,173.7 267.799,173.7 265.967,173.7 264.247,173.7 262.631,173.7 261.114,173.7 259.689,173.7 258.351,173.7 257.094,173.7 255.914,173.7 254.806,173.7 253.765,173.7 252.788,173.7 251.87,173.7 251.008,173.7 250.199,173.7 249.439,173.7 248.725,173.7 248.054,173.7 247.425,173.7 246.834,173.7 246.278,173.7 245.757,173.7 245.267,173.7 244.808,173.7 244.376,173.7 243.97,173.7 243.589,173.7 243.232,173.7 242.896,173.7 242.896,173.7 237.717,173.7 237.717,173.7 237.717,173.7 237.717,173.7 237.717,173.7 237.717,173.7 237.717,173.7 237.717,173.7 237.717,173.7 237.717,173.7" stroke="#000000" stroke-dasharray="1,3,1,3,1,3,1,3" stroke-linecap="butt" stroke-linejoin="round" stroke-width="0.6"/>
   <g font-family="FreeSans" font-size="11.6513" font-style="normal" font-weight="normal" transform="translate(290.671,178.7) rotate(-0,-0,-5)" xml:space="preserve">
    <text fill="rgb(0,0,0)" x="0 6 9 " y="-0">1.0</text>
   </g>
  </g>
  <clipPath id="cp00480360">
   <polygon points="0,360 480,360 480,0 0,0"/>
  </clipPath>
  <g clip-path="url(#cp00480360)">
   <polygon fill="#ffffff" points="319.347,82.8316 426.389,82.8316 426.389,35.0105 319.347,35.0105" shape-rendering="crispEdges"/>
   <polyline fill="none" points="319.347,82.8316 426.389,82.8316" stroke="#262626" stroke-dasharray="16,0" stroke-linecap="square" stroke-linejoin="miter" stroke-width="0.5"/>
   <polyline fill="none" points="319.347,35.0105 426.389,35.0105" stroke="#262626" stroke-dasharray="16,0" stroke-linecap="square" stroke-linejoin="miter" stroke-width="0.5"/>
   <polyline fill="none" points="319.347,82.8316 319.347,35.0105" stroke="#262626" stroke-dasharray="16,0" stroke-linecap="square" stroke-linejoin="miter" stroke-width="0.5"/>
   <polyline fill="none" points="426.389,82.8316 426.389,35.0105" stroke="#262626" stroke-dasharray="16,0" stroke-linecap="square" stroke-linejoin="miter" stroke-width="0.5"/>
   <polyline fill="none" points="323.353,44.0158 343.379,44.0158" stroke="#0000ff" stroke-linecap="butt" stroke-linejoin="round" stroke-width="2"/>
   <g font-family="FreeSans" font-size="10.4862" font-style="normal" font-weight="normal" transform="translate(347.384,49.0158) rotate(-0,-0,-5)" xml:space="preserve">
    <text fill="rgb(0,0,0)" x="0 2 8 13 19 " y="-1">locus</text>
   </g>
   <polyline fill="none" points="329.366,55.0211 337.366,63.0211" stroke="#bf0000" stroke-linecap="square" stroke-linejoin="miter" stroke-width="2"/>
   <polyline fill="none" points="329.366,63.0211 337.366,55.0211" stroke="#bf0000" stroke-linecap="square" stroke-linejoin="miter" stroke-width="2"/>
   <g font-family="FreeSans" font-size="10.4862" font-style="normal" font-weight="normal" transform="translate(347.384,65.0211) rotate(-0,-0,-6)" xml:space="preserve">
    <text fill="rgb(0,0,0)" x="0 6 12 18 24 27 29 35 41 47 50 56 62 64 70 " y="-3">open loop poles</text>
   </g>
   <polyline fill="none" points="337.366,73.9263 336.97,75.6619 335.86,77.0536 334.256,77.826 332.476,77.826 330.872,77.0536 329.762,75.6619 329.366,73.9263 329.762,72.1908 330.872,70.799 332.476,70.0266 334.256,70.0266 335.86,70.799 336.97,72.1908 337.366,73.9263" stroke="#00bf00" stroke-linecap="round" stroke-linejoin="round" stroke-width="2"/>
   <g font-family="FreeSans" font-size="10.4862" font-style="normal" font-weight="normal" transform="translate(347.384,77.4263) rotate(-0,-0,-3.5)" xml:space="preserve">
    <text fill="rgb(0,0,0)" x="0 5 11 14 20 " y="-0">zeros</text>
   </g>
  </g>
 </g>
</svg>
