<?xml version='1.0' encoding='UTF-8' standalone='no'?>
<svg height="314pt" viewBox="0 0 418 314" width="418pt" xmlns="http://www.w3.org/2000/svg" xmlns:xlink="http://www.w3.org/1999/xlink">
 <title>Figure 1</title>
 <desc>
Creator: GL2PS 1.4.2, (C) 1999-2020 C. Geuzaine
For: Octave
CreationDate: Sun Feb  8 20:56:12 2026
</desc>
 <defs/>
 <polygon fill="#ffffff" points="0,0 418,0 418,314 0,314"/>
 <g>
  <polygon fill="#ffffff" points="0,314 418,314 418,0 0,0" shape-rendering="crispEdges"/>
  <clipPath id="cp00418314">
   <polygon points="0,314 418,314 418,0 0,0"/>
  </clipPath>
  <g clip-path="url(#cp00418314)">
   <polygon fill="#ffffff" points="54.4343,279.499 378.946,279.499 378.946,23.5533 54.4343,23.5533" shape-rendering="crispEdges"/>
   <polyline fill="none" points="102.821,279.499 102.821,23.5533" stroke="#262626" stroke-dasharray="16,0" stroke-linecap="butt" stroke-linejoin="miter" stroke-opacity="0.15" stroke-width="0.5"/>
   <polyline fill="none" points="155.096,279.499 155.096,23.5533" stroke="#262626" stroke-dasharray="16,0" stroke-linecap="butt" stroke-linejoin="miter" stroke-opacity="0.15" stroke-width="0.5"/>
   <polyline fill="none" points="207.371,279.499 207.371,23.5533" stroke="#262626" stroke-dasharray="16,0" stroke-linecap="butt" stroke-linejoin="miter" stroke-opacity="0.15" stroke-width="0.5"/>
   <polyline fill="none" points="259.646,279.499 259.646,23.5533" stroke="#262626" stroke-dasharray="16,0" stroke-linecap="butt" stroke-linejoin="miter" stroke-opacity="0.15" stroke-width="0.5"/>
   <polyline fill="none" points="311.921,279.499 311.921,23.5533" stroke="#262626" stroke-dasharray="16,0" stroke-linecap="butt" stroke-linejoin="miter" stroke-opacity="0.15" stroke-width="0.5"/>
   <polyline fill="none" points="364.196,279.499 364.196,23.5533" stroke="#262626" stroke-dasharray="16,0" stroke-linecap="butt" stroke-linejoin="miter" stroke-opacity="0.15" stroke-width="0.5"/>
   <polyline fill="none" points="102.821,279.499 102.821,276.255" stroke="#262626" stroke-linecap="butt" stroke-linejoin="miter" stroke-width="0.5"/>
   <polyline fill="none" points="102.821,23.5533 102.821,26.7977" stroke="#262626" stroke-linecap="butt" stroke-linejoin="miter" stroke-width="0.5"/>
   <polyline fill="none" points="155.096,279.499 155.096,276.255" stroke="#262626" stroke-linecap="butt" stroke-linejoin="miter" stroke-width="0.5"/>
   <polyline fill="none" points="155.096,23.5533 155.096,26.7977" stroke="#262626" stroke-linecap="butt" stroke-linejoin="miter" stroke-width="0.5"/>
   <polyline fill="none" points="207.371,279.499 207.371,276.255" stroke="#262626" stroke-linecap="butt" stroke-linejoin="miter" stroke-width="0.5"/>
   <polyline fill="none" points="207.371,23.5533 207.371,26.7977" stroke="#262626" stroke-linecap="butt" stroke-linejoin="miter" stroke-width="0.5"/>
   <polyline fill="none" points="259.646,279.499 259.646,276.255" stroke="#262626" stroke-linecap="butt" stroke-linejoin="miter" stroke-width="0.5"/>
   <polyline fill="none" points="259.646,23.5533 259.646,26.7977" stroke="#262626" stroke-linecap="butt" stroke-linejoin="miter" stroke-width="0.5"/>
   <polyline fill="none" points="311.921,279.499 311.921,276.255" stroke="#262626" stroke-linecap="butt" stroke-linejoin="miter" stroke-width="0.5"/>
   <polyline fill="none" points="311.921,23.5533 311.921,26.7977" stroke="#262626" stroke-linecap="butt" stroke-linejoin="miter" stroke-width="0.5"/>
   <polyline fill="none" points="364.196,279.499 364.196,276.255" stroke="#262626" stroke-linecap="butt" stroke-linejoin="miter" stroke-width="0.5"/>
   <polyline fill="none" points="364.196,23.5533 364.196,26.7977" stroke="#262626" stroke-linecap="butt" stroke-linejoin="miter" stroke-width="0.5"/>
   <g font-family="FreeSans" font-size="10" font-style="normal" font-weight="normal" transform="translate(98.3208,294.998) rotate(-0,4.5,-8)" xml:space="preserve">
    <text fill="rgb(38,38,38)" x="0 3 " y="-0">-1</text>
   </g>
   <g font-family="FreeSans" font-size="10" font-style="normal" font-weight="normal" transform="translate(146.096,294.998) rotate(-0,9,-8)" xml:space="preserve">
    <text fill="rgb(38,38,38)" x="0 3 9 12 " y="-0">-0.5</text>
   </g>
   <g font-family="FreeSans" font-size="10" font-style="normal" font-weight="normal" transform="translate(204.371,294.998) rotate(-0,3,-8)" xml:space="preserve">
    <text fill="rgb(38,38,38)" x="0 " y="-0">0</text>
   </g>
   <g font-family="FreeSans" font-size="10" font-style="normal" font-weight="normal" transform="translate(252.146,294.998) rotate(-0,7.5,-8)" xml:space="preserve">
    <text fill="rgb(38,38,38)" x="0 6 9 " y="-0">0.5</text>
   </g>
   <g font-family="FreeSans" font-size="10" font-style="normal" font-weight="normal" transform="translate(308.921,294.998) rotate(-0,3,-8)" xml:space="preserve">
    <text fill="rgb(38,38,38)" x="0 " y="-0">1</text>
   </g>
   <g font-family="FreeSans" font-size="10" font-style="normal" font-weight="normal" transform="translate(356.696,294.998) rotate(-0,7.5,-8)" xml:space="preserve">
    <text fill="rgb(38,38,38)" x="0 6 9 " y="-0">1.5</text>
   </g>
   <polyline fill="none" points="54.4343,267.865 378.946,267.865" stroke="#262626" stroke-dasharray="16,0" stroke-linecap="butt" stroke-linejoin="miter" stroke-opacity="0.15" stroke-width="0.5"/>
   <polyline fill="none" points="54.4343,209.696 378.946,209.696" stroke="#262626" stroke-dasharray="16,0" stroke-linecap="butt" stroke-linejoin="miter" stroke-opacity="0.15" stroke-width="0.5"/>
   <polyline fill="none" points="54.4343,151.526 378.946,151.526" stroke="#262626" stroke-dasharray="16,0" stroke-linecap="butt" stroke-linejoin="miter" stroke-opacity="0.15" stroke-width="0.5"/>
   <polyline fill="none" points="54.4343,93.3567 378.946,93.3567" stroke="#262626" stroke-dasharray="16,0" stroke-linecap="butt" stroke-linejoin="miter" stroke-opacity="0.15" stroke-width="0.5"/>
   <polyline fill="none" points="54.4343,35.1872 378.946,35.1872" stroke="#262626" stroke-dasharray="16,0" stroke-linecap="butt" stroke-linejoin="miter" stroke-opacity="0.15" stroke-width="0.5"/>
   <polyline fill="none" points="54.4343,267.865 57.6745,267.865" stroke="#262626" stroke-linecap="butt" stroke-linejoin="miter" stroke-width="0.5"/>
   <polyline fill="none" points="378.946,267.865 375.706,267.865" stroke="#262626" stroke-linecap="butt" stroke-linejoin="miter" stroke-width="0.5"/>
   <polyline fill="none" points="54.4343,209.696 57.6745,209.696" stroke="#262626" stroke-linecap="butt" stroke-linejoin="miter" stroke-width="0.5"/>
   <polyline fill="none" points="378.946,209.696 375.706,209.696" stroke="#262626" stroke-linecap="butt" stroke-linejoin="miter" stroke-width="0.5"/>
   <polyline fill="none" points="54.4343,151.526 57.6745,151.526" stroke="#262626" stroke-linecap="butt" stroke-linejoin="miter" stroke-width="0.5"/>
   <polyline fill="none" points="378.946,151.526 375.706,151.526" stroke="#262626" stroke-linecap="butt" stroke-linejoin="miter" stroke-width="0.5"/>
   <polyline fill="none" points="54.4343,93.3567 57.6745,93.3567" stroke="#262626" stroke-linecap="butt" stroke-linejoin="miter" stroke-width="0.5"/>
   <polyline fill="none" points="378.946,93.3567 375.706,93.3567" stroke="#262626" stroke-linecap="butt" stroke-linejoin="miter" stroke-width="0.5"/>
   <polyline fill="none" points="54.4343,35.1872 57.6745,35.1872" stroke="#262626" stroke-linecap="butt" stroke-linejoin="miter" stroke-width="0.5"/>
   <polyline fill="none" points="378.946,35.1872 375.706,35.1872" stroke="#262626" stroke-linecap="butt" stroke-linejoin="miter" stroke-width="0.5"/>
   <g font-family="FreeSans" font-size="10" font-style="normal" font-weight="normal" transform="translate(40.4418,271.865) rotate(-0,9,-4)" xml:space="preserve">
    <text fill="rgb(38,38,38)" x="0 3 " y="-0">-1</text>
   </g>
   <g font-family="FreeSans" font-size="10" font-style="normal" font-weight="normal" transform="translate(31.4418,213.696) rotate(-0,18,-4)" xml:space="preserve">
    <text fill="rgb(38,38,38)" x="0 3 9 12 " y="-0">-0.5</text>
   </g>
   <g font-family="FreeSans" font-size="10" font-style="normal" font-weight="normal" transform="translate(43.4418,155.526) rotate(-0,6,-4)" xml:space="preserve">
    <text fill="rgb(38,38,38)" x="0 " y="-0">0</text>
   </g>
   <g font-family="FreeSans" font-size="10" font-style="normal" font-weight="normal" transform="translate(34.4418,97.3567) rotate(-0,15,-4)" xml:space="preserve">
    <text fill="rgb(38,38,38)" x="0 6 9 " y="-0">0.5</text>
   </g>
   <g font-family="FreeSans" font-size="10" font-style="normal" font-weight="normal" transform="translate(43.4418,39.1872) rotate(-0,6,-4)" xml:space="preserve">
    <text fill="rgb(38,38,38)" x="0 " y="-0">1</text>
   </g>
   <polyline fill="none" points="54.4343,279.499 378.946,279.499" stroke="#262626" stroke-dasharray="16,0" stroke-linecap="square" stroke-linejoin="miter" stroke-width="0.5"/>
   <polyline fill="none" points="54.4343,23.5533 378.946,23.5533" stroke="#262626" stroke-dasharray="16,0" stroke-linecap="square" stroke-linejoin="miter" stroke-width="0.5"/>
   <polyline fill="none" points="54.4343,279.499 54.4343,23.5533" stroke="#262626" stroke-dasharray="16,0" stroke-linecap="square" stroke-linejoin="miter" stroke-width="0.5"/>
   <polyline fill="none" points="378.946,279.499 378.946,23.5533" stroke="#262626" stroke-dasharray="16,0" stroke-linecap="square" stroke-linejoin="miter" stroke-width="0.5"/>
   <g font-family="FreeSans" font-size="10" font-style="normal" font-weight="normal" transform="translate(196.19,308.998) rotate(-0,20.5,-9)" xml:space="preserve">
    <text fill="rgb(38,38,38)" x="0 7 12 17 19 22 29 34 36 " y="-0">Real Axis</text>
   </g>
   <g font-family="FreeSans" font-size="10" font-style="normal" font-weight="normal" transform="translate(-5.5582,151.526) rotate(-90,32,0)" xml:space="preserve">
    <text fill="rgb(38,38,38)" x="0 3 11 16 22 24 29 34 37 42 45 52 57 59 " y="-2">Imaginary Axis</text>
   </g>
   <g font-family="FreeSans" font-size="10" font-style="normal" font-weight="bold" transform="translate(133.69,13.5533) rotate(-0,83,0)" xml:space="preserve">
    <text fill="rgb(0,0,0)" x="0 7 13 19 22 25 28 34 40 46 52 55 61 66 72 75 78 85 88 94 97 103 106 112 118 124 127 130 133 136 142 145 151 157 163 " y="-2">Root locus sys (K = 0.000 .. 3.500)</text>
   </g>
   <polyline fill="none" points="379.271,151.526 54.1098,151.526" stroke="#000000" stroke-dasharray="9,7" stroke-linecap="butt" stroke-linejoin="round" stroke-width="0.5"/>
   <polyline fill="none" points="207.371,151.526 207.547,151.526 207.726,151.526 207.908,151.526 208.092,151.526 208.28,151.526 208.471,151.526 208.665,151.526 208.863,151.526 209.064,151.526 209.268,151.526 209.476,151.526 209.688,151.526 209.904,151.526 210.123,151.526 210.347,151.526 210.575,151.526 210.807,151.526 211.044,151.526 211.286,151.526 211.533,151.526 211.784,151.526 212.041,151.526 212.304,151.526 212.572,151.526 212.846,151.526 213.126,151.526 213.412,151.526 213.706,151.526 214.006,151.526 214.313,151.526 214.628,151.526 214.951,151.526 215.282,151.526 215.622,151.526 215.971,151.526 216.33,151.526 216.699,151.526 217.079,151.526 217.469,151.526 217.872,151.526 218.288,151.526 218.717,151.526 219.161,151.526 219.62,151.526 220.095,151.526 220.588,151.526 221.1,151.526 221.633,151.526 222.187,151.526 222.766,151.526 223.371,151.526 224.005,151.526 224.672,151.526 225.373,151.526 226.115,151.526 226.901,151.526 227.739,151.526 228.636,151.526 229.601,151.526 230.649,151.526 231.796,151.526 233.068,151.526 234.5,151.526 236.152,151.526 238.128,151.526 240.658,151.526 244.518,151.526 250.387,151.526 250.134,158.092 249.61,163.025 249.086,166.381 248.562,169.088 248.037,171.413 247.513,173.478 246.989,175.35 246.465,177.072 245.94,178.673 245.416,180.173 244.892,181.586 244.368,182.926 243.843,184.199 243.319,185.416 242.795,186.58 242.271,187.697 241.746,188.772 241.222,189.808 240.698,190.807 240.174,191.774 239.649,192.709 239.125,193.616 238.601,194.496 238.077,195.35 237.552,196.18 237.028,196.988 236.504,197.774 235.98,198.54 235.455,199.286 234.931,200.014 234.407,200.724 233.883,201.417 233.359,202.094 232.834,202.756 232.31,203.402 231.786,204.034 231.262,204.652 230.737,205.257 230.213,205.849 229.689,206.428 229.165,206.995 228.64,207.55 228.116,208.093 227.592,208.626 227.068,209.147 226.543,209.659 226.019,210.159 225.495,210.65 224.971,211.131 224.446,211.603 223.922,212.065 223.398,212.519 222.874,212.963 222.349,213.399 221.825,213.826 221.301,214.245 220.777,214.655 220.252,215.058 219.728,215.453 219.204,215.84 218.68,216.219 218.155,216.591 217.631,216.956 217.107,217.314 216.583,217.664 216.058,218.007 215.534,218.344 215.01,218.674 214.486,218.997 213.961,219.314 213.437,219.624 212.913,219.928 212.389,220.225 211.864,220.517 211.34,220.802 210.816,221.081 210.292,221.354 209.767,221.621 209.243,221.883 208.719,222.138 208.195,222.388 207.67,222.632 207.146,222.871 206.622,223.104 206.098,223.331 205.573,223.553 205.049,223.77 204.525,223.981 204.001,224.187 203.476,224.388 202.952,224.584 202.428,224.774 201.904,224.959 201.379,225.139 200.855,225.315 200.331,225.485 199.807,225.65 199.282,225.81 198.758,225.965 198.234,226.116 197.71,226.261 197.185,226.402 196.661,226.538 196.137,226.669 195.613,226.795 195.088,226.917 194.564,227.034 194.04,227.146 193.516,227.254 192.991,227.357 192.467,227.455 191.943,227.549 191.419,227.638 190.894,227.723 190.37,227.803 189.846,227.878 189.322,227.949 188.797,228.016 188.273,228.077 187.749,228.135 187.225,228.188 186.7,228.236 186.176,228.28 185.652,228.32 185.128,228.355 184.603,228.386 184.079,228.412 183.555,228.434 183.031,228.451 182.506,228.464 181.982,228.473 181.458,228.477 180.934,228.477 180.409,228.472 179.885,228.463 179.361,228.449 178.837,228.431 178.312,228.409 177.788,228.382 177.264,228.35 176.74,228.315 176.215,228.274 175.691,228.23 175.167,228.181 174.643,228.127 174.118,228.069 173.594,228.006 173.07,227.939 172.546,227.868 172.021,227.791 171.497,227.711 170.973,227.626 170.449,227.536 169.924,227.441 169.4,227.342 168.876,227.239 168.352,227.13 167.827,227.018 167.303,226.9 166.779,226.778 166.255,226.651 165.73,226.519 165.206,226.382 164.682,226.241 164.158,226.094 163.634,225.943 163.109,225.787 162.585,225.627 162.061,225.461 161.537,225.29 161.012,225.114 160.488,224.933 159.964,224.747 159.44,224.556 158.915,224.36 158.391,224.158 157.867,223.951 157.343,223.739 156.818,223.522 156.294,223.299 155.77,223.071 155.246,222.837 154.721,222.598 154.197,222.353 153.673,222.102 153.149,221.846 152.624,221.583 152.1,221.315 151.576,221.041 151.052,220.761 150.527,220.475 150.003,220.183 149.479,219.885 148.955,219.58 148.43,219.269 147.906,218.951 147.382,218.627 146.858,218.296 146.333,217.959 145.809,217.614 145.285,217.263 144.761,216.904 144.236,216.539 143.712,216.165 143.188,215.785 142.664,215.397 142.139,215.001 141.615,214.597 141.091,214.185 140.567,213.765 140.042,213.337 139.518,212.9 138.994,212.454 138.47,212 137.945,211.536 137.421,211.063 136.897,210.581 136.373,210.089 135.848,209.586 135.324,209.074 134.8,208.55 134.276,208.016 133.751,207.471 133.227,206.914 132.703,206.346 132.179,205.765 131.654,205.171 131.13,204.565 130.606,203.945 130.082,203.311 129.557,202.662 129.033,201.999 128.509,201.319 127.985,200.624 127.46,199.911 126.936,199.181 126.412,198.431 125.888,197.663 125.363,196.874 124.839,196.063 124.315,195.229 123.791,194.372 123.266,193.488 122.742,192.577 122.218,191.638 121.694,190.667 121.169,189.662 120.645,188.621 120.121,187.54 119.597,186.416 119.072,185.245 118.548,184.021 118.024,182.738 117.5,181.389 116.975,179.964 116.451,178.451 115.927,176.834 115.403,175.093 114.878,173.196 114.354,171.099 113.83,168.728 113.306,165.951 112.781,162.459 112.257,157.033 112.08,151.526 104.797,151.526 100.197,151.526 96.7221,151.526 93.7531,151.526 91.089,151.526 88.6341,151.526 86.3338,151.526 84.1536,151.526 82.0701,151.526 80.0665,151.526 78.1303,151.526 76.2519,151.526 74.4237,151.526 72.6396,151.526 70.8947,151.526 69.1848,151.526" stroke="#0000ff" stroke-linecap="butt" stroke-linejoin="round" stroke-width="2"/>
   <polyline fill="none" points="364.196,151.526 362.971,151.526 361.744,151.526 360.513,151.526 359.28,151.526 358.044,151.526 356.805,151.526 355.562,151.526 354.316,151.526 353.066,151.526 351.814,151.526 350.557,151.526 349.297,151.526 348.033,151.526 346.764,151.526 345.492,151.526 344.216,151.526 342.935,151.526 341.649,151.526 340.359,151.526 339.064,151.526 337.764,151.526 336.458,151.526 335.147,151.526 333.831,151.526 332.508,151.526 331.18,151.526 329.845,151.526 328.503,151.526 327.155,151.526 325.799,151.526 324.435,151.526 323.064,151.526 321.684,151.526 320.296,151.526 318.898,151.526 317.491,151.526 316.073,151.526 314.645,151.526 313.206,151.526 311.754,151.526 310.29,151.526 308.812,151.526 307.32,151.526 305.813,151.526 304.289,151.526 302.748,151.526 301.187,151.526 299.606,151.526 298.003,151.526 296.376,151.526 294.722,151.526 293.039,151.526 291.325,151.526 289.575,151.526 287.784,151.526 285.95,151.526 284.063,151.526 282.118,151.526 280.104,151.526 278.008,151.526 275.812,151.526 273.492,151.526 271.011,151.526 268.311,151.526 265.286,151.526 261.708,151.526 256.799,151.526 250.387,151.526 250.134,144.961 249.61,140.027 249.086,136.672 248.562,133.965 248.037,131.64 247.513,129.575 246.989,127.702 246.465,125.98 245.94,124.379 245.416,122.88 244.892,121.466 244.368,120.127 243.843,118.853 243.319,117.637 242.795,116.473 242.271,115.355 241.746,114.281 241.222,113.245 240.698,112.245 240.174,111.279 239.649,110.343 239.125,109.436 238.601,108.557 238.077,107.703 237.552,106.872 237.028,106.065 236.504,105.279 235.98,104.513 235.455,103.766 234.931,103.039 234.407,102.328 233.883,101.635 233.359,100.958 232.834,100.297 232.31,99.6502 231.786,99.0182 231.262,98.4001 230.737,97.7955 230.213,97.2038 229.689,96.6248 229.165,96.0579 228.64,95.5028 228.116,94.9592 227.592,94.4267 227.068,93.905 226.543,93.3939 226.019,92.893 225.495,92.4021 224.971,91.921 224.446,91.4494 223.922,90.9871 223.398,90.5338 222.874,90.0895 222.349,89.6538 221.825,89.2267 221.301,88.8079 220.777,88.3972 220.252,87.9946 219.728,87.5998 219.204,87.2127 218.68,86.8333 218.155,86.4612 217.631,86.0965 217.107,85.739 216.583,85.3885 216.058,85.045 215.534,84.7084 215.01,84.3785 214.486,84.0553 213.961,83.7386 213.437,83.4284 212.913,83.1246 212.389,82.8271 211.864,82.5358 211.34,82.2507 210.816,81.9716 210.292,81.6985 209.767,81.4313 209.243,81.17 208.719,80.9144 208.195,80.6646 207.67,80.4204 207.146,80.1819 206.622,79.9489 206.098,79.7213 205.573,79.4993 205.049,79.2826 204.525,79.0713 204.001,78.8652 203.476,78.6644 202.952,78.4689 202.428,78.2785 201.904,78.0932 201.379,77.913 200.855,77.7379 200.331,77.5678 199.807,77.4026 199.282,77.2424 198.758,77.0872 198.234,76.9368 197.71,76.7912 197.185,76.6505 196.661,76.5146 196.137,76.3835 195.613,76.2571 195.088,76.1355 194.564,76.0185 194.04,75.9063 193.516,75.7986 192.991,75.6957 192.467,75.5973 191.943,75.5036 191.419,75.4144 190.894,75.3298 190.37,75.2498 189.846,75.1743 189.322,75.1034 188.797,75.0369 188.273,74.975 187.749,74.9175 187.225,74.8646 186.7,74.8161 186.176,74.772 185.652,74.7324 185.128,74.6973 184.603,74.6666 184.079,74.6404 183.555,74.6186 183.031,74.6012 182.506,74.5882 181.982,74.5797 181.458,74.5756 180.934,74.5759 180.409,74.5807 179.885,74.5898 179.361,74.6034 178.837,74.6214 178.312,74.6439 177.788,74.6707 177.264,74.7021 176.74,74.7378 176.215,74.778 175.691,74.8227 175.167,74.8718 174.643,74.9255 174.118,74.9836 173.594,75.0461 173.07,75.1132 172.546,75.1848 172.021,75.261 171.497,75.3417 170.973,75.4269 170.449,75.5167 169.924,75.6111 169.4,75.7101 168.876,75.8137 168.352,75.922 167.827,76.035 167.303,76.1526 166.779,76.2749 166.255,76.4019 165.73,76.5338 165.206,76.6703 164.682,76.8117 164.158,76.958 163.634,77.109 163.109,77.265 162.585,77.4259 162.061,77.5918 161.537,77.7626 161.012,77.9384 160.488,78.1194 159.964,78.3054 159.44,78.4965 158.915,78.6928 158.391,78.8943 157.867,79.1011 157.343,79.3132 156.818,79.5307 156.294,79.7535 155.77,79.9818 155.246,80.2156 154.721,80.455 154.197,80.6999 153.673,80.9506 153.149,81.2069 152.624,81.4691 152.1,81.7371 151.576,82.0111 151.052,82.291 150.527,82.5771 150.003,82.8692 149.479,83.1676 148.955,83.4724 148.43,83.7835 147.906,84.1011 147.382,84.4252 146.858,84.7561 146.333,85.0937 145.809,85.4381 145.285,85.7896 144.761,86.1481 144.236,86.5139 143.712,86.887 143.188,87.2676 142.664,87.6557 142.139,88.0516 141.615,88.4554 141.091,88.8672 140.567,89.2872 140.042,89.7155 139.518,90.1524 138.994,90.598 138.47,91.0526 137.945,91.5162 137.421,91.9891 136.897,92.4716 136.373,92.9639 135.848,93.4662 135.324,93.9789 134.8,94.5021 134.276,95.0361 133.751,95.5814 133.227,96.1381 132.703,96.7067 132.179,97.2876 131.654,97.8811 131.13,98.4876 130.606,99.1077 130.082,99.7417 129.557,100.39 129.033,101.054 128.509,101.733 127.985,102.429 127.46,103.141 126.936,103.872 126.412,104.621 125.888,105.39 125.363,106.179 124.839,106.99 124.315,107.823 123.791,108.681 123.266,109.564 122.742,110.475 122.218,111.415 121.694,112.386 121.169,113.391 120.645,114.432 120.121,115.512 119.597,116.636 119.072,117.807 118.548,119.031 118.024,120.314 117.5,121.663 116.975,123.088 116.451,124.601 115.927,126.218 115.403,127.96 114.878,129.857 114.354,131.954 113.83,134.324 113.306,137.102 112.781,140.593 112.257,146.02 112.08,151.526 118.669,151.526 122.22,151.526 124.647,151.526 126.567,151.526 128.183,151.526 129.589,151.526 130.841,151.526 131.973,151.526 133.008,151.526 133.963,151.526 134.851,151.526 135.681,151.526 136.46,151.526 137.196,151.526 137.892,151.526 138.554,151.526" stroke="#0000ff" stroke-linecap="butt" stroke-linejoin="round" stroke-width="2"/>
   <polyline fill="none" points="359.196,146.526 369.196,156.526" stroke="#bf0000" stroke-linecap="square" stroke-linejoin="miter" stroke-width="2"/>
   <polyline fill="none" points="359.196,156.526 369.196,146.526" stroke="#bf0000" stroke-linecap="square" stroke-linejoin="miter" stroke-width="2"/>
   <polyline fill="none" points="202.371,146.526 212.371,156.526" stroke="#bf0000" stroke-linecap="square" stroke-linejoin="miter" stroke-width="2"/>
   <polyline fill="none" points="202.371,156.526 212.371,146.526" stroke="#bf0000" stroke-linecap="square" stroke-linejoin="miter" stroke-width="2"/>
   <polyline fill="none" points="186.233,151.526 185.738,153.696 184.351,155.435 182.346,156.401 180.121,156.401 178.116,155.435 176.728,153.696 176.233,151.526 176.728,149.357 178.116,147.617 180.121,146.652 182.346,146.652 184.351,147.617 185.738,149.357 186.233,151.526" stroke="#00bf00" stroke-linecap="round" stroke-linejoin="round" stroke-width="2"/>
   <polyline fill="none" points="306.804,187.477 305.448,186.95 304.131,186.365 302.85,185.725 301.604,185.029 300.393,184.28 299.215,183.479 298.071,182.624 296.958,181.715 295.876,180.752 294.824,179.732 293.801,178.653 292.807,177.51 291.84,176.298 290.901,175.01 289.987,173.636 289.099,172.161 288.236,170.565 287.396,168.818 286.58,166.873 285.787,164.644 285.016,161.956 284.266,158.286 284.266,144.766 285.016,141.097 285.787,138.408 286.58,136.179 287.396,134.234 288.236,132.487 289.099,130.892 289.987,129.417 290.901,128.042 291.84,126.754 292.807,125.542 293.801,124.4 294.824,123.32 295.876,122.3 296.958,121.337 298.071,120.429 299.215,119.574 300.393,118.772 301.604,118.023 302.85,117.328 304.131,116.687 305.448,116.102 306.804,115.575" stroke="#000000" stroke-dasharray="1,3,1,3,1,3,1,3" stroke-linecap="butt" stroke-linejoin="round" stroke-width="0.6"/>
   <g font-family="FreeSans" font-size="10" font-style="normal" font-weight="normal" transform="translate(306.804,120.075) rotate(-0,-0,-4.5)" xml:space="preserve">
    <text fill="rgb(0,0,0)" x="0 6 9 15 " y="-0">0.1 </text>
    <text fill="rgb(0,0,0)" x="18 " y="-0">π</text>
    <text fill="rgb(0,0,0)" x="24 27 " y="-0">/T</text>
   </g>
   <polyline fill="none" points="291.954,219.909 289.684,217.988 287.545,216.013 285.531,213.989 283.635,211.92 281.849,209.811 280.168,207.665 278.585,205.482 277.096,203.263 275.695,201.007 274.377,198.713 273.138,196.377 271.972,193.993 270.876,191.555 269.846,189.051 268.879,186.469 267.97,183.787 267.116,180.978 266.315,177.998 265.562,174.78 264.857,171.204 264.195,167.018 263.574,161.47 263.574,141.583 264.195,136.035 264.857,131.848 265.562,128.272 266.315,125.054 267.116,122.075 267.97,119.266 268.879,116.584 269.846,114.001 270.876,111.498 271.972,109.059 273.138,106.676 274.377,104.339 275.695,102.045 277.096,99.7895 278.585,97.5706 280.168,95.3876 281.849,93.241 283.635,91.1322 285.531,89.0638 287.545,87.0395 289.684,85.0642 291.954,83.1439" stroke="#000000" stroke-dasharray="1,3,1,3,1,3,1,3" stroke-linecap="butt" stroke-linejoin="round" stroke-width="0.6"/>
   <g font-family="FreeSans" font-size="10" font-style="normal" font-weight="normal" transform="translate(291.954,87.6439) rotate(-0,-0,-4.5)" xml:space="preserve">
    <text fill="rgb(0,0,0)" x="0 6 9 15 " y="-0">0.2 </text>
    <text fill="rgb(0,0,0)" x="18 " y="-0">π</text>
    <text fill="rgb(0,0,0)" x="24 27 " y="-0">/T</text>
   </g>
   <polyline fill="none" points="268.824,245.646 266.402,241.763 264.217,237.925 262.249,234.136 260.479,230.399 258.89,226.718 257.465,223.091 256.19,219.516 255.052,215.992 254.039,212.513 253.139,209.074 252.341,205.668 251.638,202.285 251.019,198.914 250.478,195.54 250.007,192.145 249.6,188.705 249.25,185.185 248.952,181.538 248.701,177.686 248.493,173.498 248.323,168.7 248.188,162.474 248.188,140.579 248.323,134.353 248.493,129.554 248.701,125.366 248.952,121.515 249.25,117.867 249.6,114.348 250.007,110.907 250.478,107.512 251.019,104.139 251.638,100.768 252.341,97.3847 253.139,93.9783 254.039,90.5394 255.052,87.0606 256.19,83.5362 257.465,79.9618 258.89,76.3346 260.479,72.653 262.249,68.9169 264.217,65.1279 266.402,61.2892 268.824,57.406" stroke="#000000" stroke-dasharray="1,3,1,3,1,3,1,3" stroke-linecap="butt" stroke-linejoin="round" stroke-width="0.6"/>
   <g font-family="FreeSans" font-size="10" font-style="normal" font-weight="normal" transform="translate(268.824,61.906) rotate(-0,-0,-4.5)" xml:space="preserve">
    <text fill="rgb(0,0,0)" x="0 6 9 15 " y="-0">0.3 </text>
    <text fill="rgb(0,0,0)" x="18 " y="-0">π</text>
    <text fill="rgb(0,0,0)" x="24 27 " y="-0">/T</text>
   </g>
   <polyline fill="none" points="239.679,262.171 238.055,256.178 236.73,250.43 235.665,244.919 234.826,239.635 234.185,234.567 233.714,229.704 233.391,225.03 233.195,220.534 233.109,216.199 233.116,212.011 233.203,207.953 233.357,204.007 233.568,200.154 233.827,196.374 234.125,192.64 234.456,188.924 234.812,185.186 235.189,181.375 235.583,177.412 235.988,173.166 236.401,168.366 236.82,162.217 236.82,140.835 236.401,134.687 235.988,129.887 235.583,125.64 235.189,121.677 234.812,117.866 234.456,114.129 234.125,110.412 233.827,106.679 233.568,102.898 233.357,99.0457 233.203,95.0999 233.116,91.0416 233.109,86.8533 233.195,82.5187 233.391,78.0221 233.714,73.349 234.185,68.4851 234.826,63.4175 235.665,58.1337 236.73,52.6227 238.055,46.8745 239.679,40.8812" stroke="#000000" stroke-dasharray="1,3,1,3,1,3,1,3" stroke-linecap="butt" stroke-linejoin="round" stroke-width="0.6"/>
   <g font-family="FreeSans" font-size="10" font-style="normal" font-weight="normal" transform="translate(239.679,45.3812) rotate(-0,-0,-4.5)" xml:space="preserve">
    <text fill="rgb(0,0,0)" x="0 6 9 15 " y="-0">0.4 </text>
    <text fill="rgb(0,0,0)" x="18 " y="-0">π</text>
    <text fill="rgb(0,0,0)" x="24 27 " y="-0">/T</text>
   </g>
   <polyline fill="none" points="207.371,267.865 207.519,260.096 207.926,252.844 208.539,246.071 209.315,239.739 210.218,233.812 211.217,228.254 212.287,223.032 213.407,218.114 214.558,213.469 215.727,209.065 216.902,204.876 218.073,200.871 219.231,197.022 220.372,193.299 221.491,189.673 222.582,186.106 223.645,182.558 224.677,178.974 225.676,175.279 226.642,171.347 227.574,166.928 228.472,161.293 228.472,141.759 227.574,136.124 226.642,131.705 225.676,127.773 224.677,124.078 223.645,120.495 222.582,116.947 221.491,113.38 220.372,109.753 219.231,106.031 218.073,102.182 216.902,98.1768 215.727,93.987 214.558,89.5838 213.407,84.9381 212.287,80.02 211.217,74.7984 210.218,69.2409 209.315,63.3138 208.539,56.9819 207.926,50.2086 207.519,42.9565 207.371,35.1872" stroke="#000000" stroke-dasharray="1,3,1,3,1,3,1,3" stroke-linecap="butt" stroke-linejoin="round" stroke-width="0.6"/>
   <g font-family="FreeSans" font-size="10" font-style="normal" font-weight="normal" transform="translate(207.371,39.6872) rotate(-0,-0,-4.5)" xml:space="preserve">
    <text fill="rgb(0,0,0)" x="0 6 9 15 " y="-0">0.5 </text>
    <text fill="rgb(0,0,0)" x="18 " y="-0">π</text>
    <text fill="rgb(0,0,0)" x="24 27 " y="-0">/T</text>
   </g>
   <polyline fill="none" points="175.063,262.171 177.802,253.425 180.618,245.479 183.462,238.249 186.294,231.657 189.085,225.631 191.812,220.105 194.459,215.022 197.015,210.327 199.471,205.972 201.824,201.911 204.071,198.103 206.212,194.509 208.248,191.094 210.18,187.821 212.013,184.656 213.75,181.56 215.395,178.491 216.951,175.398 218.423,172.209 219.816,168.811 221.134,164.98 222.381,160.074 222.381,142.978 221.134,138.072 219.816,134.242 218.423,130.843 216.951,127.654 215.395,124.561 213.75,121.493 212.013,118.397 210.18,115.231 208.248,111.959 206.212,108.543 204.071,104.95 201.824,101.142 199.471,97.0807 197.015,92.7251 194.459,88.0302 191.812,82.9471 189.085,77.4219 186.294,71.3955 183.462,64.803 180.618,57.573 177.802,49.6274 175.063,40.8812" stroke="#000000" stroke-dasharray="1,3,1,3,1,3,1,3" stroke-linecap="butt" stroke-linejoin="round" stroke-width="0.6"/>
   <g font-family="FreeSans" font-size="10" font-style="normal" font-weight="normal" transform="translate(175.063,45.3812) rotate(-0,-0,-4.5)" xml:space="preserve">
    <text fill="rgb(0,0,0)" x="0 6 9 15 " y="-0">0.6 </text>
    <text fill="rgb(0,0,0)" x="18 " y="-0">π</text>
    <text fill="rgb(0,0,0)" x="24 27 " y="-0">/T</text>
   </g>
   <polyline fill="none" points="145.918,245.646 151.749,237.098 157.327,229.564 162.627,222.904 167.636,216.996 172.352,211.731 176.776,207.016 180.917,202.77 184.785,198.922 188.392,195.408 191.754,192.175 194.883,189.174 197.797,186.363 200.508,183.702 203.032,181.155 205.381,178.687 207.571,176.263 209.611,173.844 211.515,171.383 213.292,168.818 214.954,166.052 216.508,162.891 217.964,158.784 217.964,144.269 216.508,140.162 214.954,137.001 213.292,134.234 211.515,131.669 209.611,129.209 207.571,126.789 205.381,124.365 203.032,121.897 200.508,119.35 197.797,116.69 194.883,113.878 191.754,110.878 188.392,107.644 184.785,104.131 180.917,100.282 176.776,96.0361 172.352,91.3215 167.636,86.0567 162.627,80.1482 157.327,73.4884 151.749,65.9544 145.918,57.406" stroke="#000000" stroke-dasharray="1,3,1,3,1,3,1,3" stroke-linecap="butt" stroke-linejoin="round" stroke-width="0.6"/>
   <g font-family="FreeSans" font-size="10" font-style="normal" font-weight="normal" transform="translate(145.918,61.906) rotate(-0,-0,-4.5)" xml:space="preserve">
    <text fill="rgb(0,0,0)" x="0 6 9 15 " y="-0">0.7 </text>
    <text fill="rgb(0,0,0)" x="18 " y="-0">π</text>
    <text fill="rgb(0,0,0)" x="24 27 " y="-0">/T</text>
   </g>
   <polyline fill="none" points="122.788,219.909 131.777,212.955 140.054,207.073 147.653,202.075 154.614,197.802 160.981,194.122 166.798,190.923 172.112,188.113 176.965,185.617 181.398,183.368 185.451,181.314 189.159,179.409 192.555,177.615 195.669,175.896 198.529,174.223 201.16,172.568 203.584,170.903 205.821,169.196 207.89,167.411 209.807,165.496 211.586,163.372 213.241,160.878 214.783,157.549 214.783,145.503 213.241,142.175 211.586,139.68 209.807,137.556 207.89,135.642 205.821,133.857 203.584,132.15 201.16,130.484 198.529,128.829 195.669,127.156 192.555,125.438 189.159,123.643 185.451,121.738 181.398,119.684 176.965,117.436 172.112,114.939 166.798,112.13 160.981,108.931 154.614,105.25 147.653,100.977 140.054,95.9792 131.777,90.0978 122.788,83.1439" stroke="#000000" stroke-dasharray="1,3,1,3,1,3,1,3" stroke-linecap="butt" stroke-linejoin="round" stroke-width="0.6"/>
   <g font-family="FreeSans" font-size="10" font-style="normal" font-weight="normal" transform="translate(122.788,87.6439) rotate(-0,-0,-4.5)" xml:space="preserve">
    <text fill="rgb(0,0,0)" x="0 6 9 15 " y="-0">0.8 </text>
    <text fill="rgb(0,0,0)" x="18 " y="-0">π</text>
    <text fill="rgb(0,0,0)" x="24 27 " y="-0">/T</text>
   </g>
   <polyline fill="none" points="107.938,187.477 119.648,183.539 130.121,180.503 139.481,178.156 147.844,176.33 155.319,174.892 162.005,173.736 167.994,172.779 173.367,171.958 178.196,171.221 182.545,170.53 186.472,169.852 190.027,169.163 193.253,168.443 196.189,167.674 198.869,166.84 201.322,165.926 203.574,164.911 205.647,163.77 207.561,162.468 209.332,160.94 210.977,159.057 212.508,156.435 212.508,146.617 210.977,143.996 209.332,142.112 207.561,140.584 205.647,139.282 203.574,138.142 201.322,137.127 198.869,136.212 196.189,135.378 193.253,134.61 190.027,133.89 186.472,133.201 182.545,132.523 178.196,131.831 173.367,131.094 167.994,130.273 162.005,129.317 155.319,128.161 147.844,126.723 139.481,124.897 130.121,122.55 119.648,119.514 107.938,115.575" stroke="#000000" stroke-dasharray="1,3,1,3,1,3,1,3" stroke-linecap="butt" stroke-linejoin="round" stroke-width="0.6"/>
   <g font-family="FreeSans" font-size="10" font-style="normal" font-weight="normal" transform="translate(107.938,120.075) rotate(-0,-0,-4.5)" xml:space="preserve">
    <text fill="rgb(0,0,0)" x="0 6 9 15 " y="-0">0.9 </text>
    <text fill="rgb(0,0,0)" x="18 " y="-0">π</text>
    <text fill="rgb(0,0,0)" x="24 27 " y="-0">/T</text>
   </g>
   <polyline fill="none" points="102.821,151.526 116.319,151.835 128.079,152.602 138.337,153.638 147.299,154.807 155.146,156.008 162.037,157.172 168.105,158.252 173.469,159.215 178.227,160.043 182.465,160.724 186.254,161.253 189.658,161.628 192.728,161.849 195.508,161.916 198.037,161.83 200.347,161.589 202.466,161.187 204.416,160.613 206.217,159.844 207.888,158.833 209.442,157.479 210.893,155.469 210.893,147.584 209.442,145.574 207.888,144.219 206.217,143.209 204.416,142.439 202.466,141.865 200.347,141.464 198.037,141.223 195.508,141.137 192.728,141.204 189.658,141.424 186.254,141.799 182.465,142.328 178.227,143.009 173.469,143.837 168.105,144.801 162.037,145.88 155.146,147.044 147.299,148.246 138.337,149.414 128.079,150.451 116.319,151.218 102.821,151.526" stroke="#000000" stroke-dasharray="1,3,1,3,1,3,1,3" stroke-linecap="butt" stroke-linejoin="round" stroke-width="0.6"/>
   <g font-family="FreeSans" font-size="10" font-style="normal" font-weight="normal" transform="translate(102.821,156.026) rotate(-0,-0,-4.5)" xml:space="preserve">
    <text fill="rgb(0,0,0)" x="0 6 9 15 " y="-0">1.0 </text>
    <text fill="rgb(0,0,0)" x="18 " y="-0">π</text>
    <text fill="rgb(0,0,0)" x="24 27 " y="-0">/T</text>
   </g>
   <polyline fill="none" points="311.921,151.526 311.715,144.221 311.096,136.945 310.069,129.726 308.636,122.594 306.804,115.575 304.579,108.699 301.97,101.991 298.989,95.4795 295.645,89.1887 291.954,83.1439 287.928,77.3689 283.584,71.8867 278.94,66.7187 274.013,61.8855 268.824,57.406 263.391,53.2979 257.738,49.5776 251.886,46.2595 245.858,43.3569 239.679,40.8812 233.371,38.8422 226.962,37.2479 220.474,36.1046 213.936,35.4168 207.371,35.1872 200.806,35.4168 194.267,36.1046 187.78,37.2479 181.37,38.8422 175.063,40.8812 168.883,43.3569 162.856,46.2595 157.003,49.5776 151.35,53.2979 145.918,57.406 140.728,61.8855 135.801,66.7187 131.157,71.8867 126.814,77.3689 122.788,83.1439 119.096,89.1887 115.753,95.4795 112.771,101.991 110.163,108.699 107.938,115.575 106.105,122.594 104.673,129.726 103.645,136.945 103.027,144.221 102.821,151.526" stroke="#000000" stroke-dasharray="1,3,1,3,1,3,1,3" stroke-linecap="butt" stroke-linejoin="round" stroke-width="0.6"/>
   <polyline fill="none" points="311.921,151.526 311.715,158.831 311.096,166.107 310.069,173.326 308.636,180.459 306.804,187.477 304.579,194.353 301.97,201.061 298.989,207.573 295.645,213.864 291.954,219.909 287.928,225.684 283.584,231.166 278.94,236.334 274.013,241.167 268.824,245.646 263.391,249.755 257.738,253.475 251.886,256.793 245.858,259.696 239.679,262.171 233.371,264.21 226.962,265.805 220.474,266.948 213.936,267.636 207.371,267.865 200.806,267.636 194.267,266.948 187.78,265.805 181.37,264.21 175.063,262.171 168.883,259.696 162.856,256.793 157.003,253.475 151.35,249.755 145.918,245.646 140.728,241.167 135.801,236.334 131.157,231.166 126.814,225.684 122.788,219.909 119.096,213.864 115.753,207.573 112.771,201.061 110.163,194.353 107.938,187.477 106.105,180.459 104.673,173.326 103.645,166.107 103.027,158.831 102.821,151.526" stroke="#000000" stroke-dasharray="1,3,1,3,1,3,1,3" stroke-linecap="butt" stroke-linejoin="round" stroke-width="0.6"/>
   <g font-family="FreeSans" font-size="10" font-style="normal" font-weight="normal" transform="translate(226.962,41.2479) rotate(-0,-0,-4)" xml:space="preserve">
    <text fill="rgb(0,0,0)" x="0 6 9 " y="-0">0.0</text>
   </g>
   <polyline fill="none" points="311.921,151.526 311.063,144.303 309.809,137.199 308.169,130.24 306.155,123.45 303.778,116.856 301.052,110.48 297.994,104.345 294.618,98.4715 290.942,92.8793 286.984,87.5869 282.763,82.6115 278.3,77.9683 273.614,73.6717 268.726,69.7341 263.66,66.1664 258.435,62.978 253.076,60.1767 247.604,57.7686 242.043,55.7584 236.415,54.1488 230.744,52.9412 225.052,52.1353 219.361,51.7293 213.695,51.7198 208.074,52.1018 202.521,52.8689 197.057,54.0134 191.701,55.5261 186.473,57.3963 181.393,59.6124 176.478,62.1612 171.745,65.0287 167.211,68.1996 162.892,71.6577 158.801,75.3859 154.951,79.3661 151.355,83.5796 148.024,88.007 144.966,92.6282 142.192,97.4227 139.709,102.369 137.521,107.447 135.635,112.635 134.053,117.91 132.779,123.251 131.814,128.636 131.157,134.043 130.807,139.452 130.761,144.841 131.017,150.188 131.017,150.188 131.027,150.322 131.037,150.456 131.048,150.59 131.059,150.724 131.07,150.858 131.081,150.991 131.093,151.125 131.104,151.259 131.116,151.393 131.128,151.526" stroke="#000000" stroke-dasharray="1,3,1,3,1,3,1,3" stroke-linecap="butt" stroke-linejoin="round" stroke-width="0.6"/>
   <polyline fill="none" points="311.921,151.526 311.063,158.749 309.809,165.853 308.169,172.813 306.155,179.602 303.778,186.196 301.052,192.572 297.994,198.707 294.618,204.581 290.942,210.173 286.984,215.466 282.763,220.441 278.3,225.084 273.614,229.381 268.726,233.318 263.66,236.886 258.435,240.074 253.076,242.876 247.604,245.284 242.043,247.294 236.415,248.904 230.744,250.111 225.052,250.917 219.361,251.323 213.695,251.333 208.074,250.951 202.521,250.184 197.057,249.039 191.701,247.526 186.473,245.656 181.393,243.44 176.478,240.891 171.745,238.024 167.211,234.853 162.892,231.395 158.801,227.667 154.951,223.686 151.355,219.473 148.024,215.045 144.966,210.424 142.192,205.63 139.709,200.683 137.521,195.605 135.635,190.418 134.053,185.143 132.779,179.802 131.814,174.417 131.157,169.009 130.807,163.6 130.761,158.212 131.017,152.864 131.017,152.864 131.027,152.73 131.037,152.596 131.048,152.462 131.059,152.329 131.07,152.195 131.081,152.061 131.093,151.927 131.104,151.794 131.116,151.66 131.128,151.526" stroke="#000000" stroke-dasharray="1,3,1,3,1,3,1,3" stroke-linecap="butt" stroke-linejoin="round" stroke-width="0.6"/>
   <g font-family="FreeSans" font-size="10" font-style="normal" font-weight="normal" transform="translate(230.744,56.9412) rotate(-0,-0,-4)" xml:space="preserve">
    <text fill="rgb(0,0,0)" x="0 6 9 " y="-0">0.1</text>
   </g>
   <polyline fill="none" points="311.921,151.526 310.42,144.458 308.554,137.593 306.341,130.952 303.796,124.557 300.939,118.425 297.788,112.575 294.363,107.021 290.684,101.779 286.772,96.8607 282.647,92.2776 278.331,88.0392 273.846,84.1534 269.213,80.6266 264.454,77.4637 259.591,74.668 254.645,72.2411 249.637,70.1835 244.589,68.494 239.521,67.17 234.454,66.2077 229.407,65.6018 224.399,65.3457 219.449,65.432 214.575,65.8516 209.794,66.5947 205.122,67.6503 200.575,69.0067 196.167,70.651 191.912,72.5697 187.823,74.7485 183.912,77.1725 180.189,79.826 176.665,82.6932 173.347,85.7574 170.245,89.002 167.364,92.4097 164.711,95.9632 162.29,99.645 160.104,103.438 158.158,107.324 156.451,111.285 154.985,115.306 153.759,119.367 152.773,123.454 152.025,127.548 151.51,131.634 151.226,135.696 151.168,139.719 151.33,143.688 151.707,147.589 151.707,147.589 151.758,147.987 151.811,148.384 151.866,148.78 151.923,149.175 151.983,149.57 152.044,149.963 152.108,150.355 152.174,150.746 152.242,151.137 152.313,151.526" stroke="#000000" stroke-dasharray="1,3,1,3,1,3,1,3" stroke-linecap="butt" stroke-linejoin="round" stroke-width="0.6"/>
   <polyline fill="none" points="311.921,151.526 310.42,158.594 308.554,165.46 306.341,172.1 303.796,178.496 300.939,184.627 297.788,190.478 294.363,196.031 290.684,201.274 286.772,206.192 282.647,210.775 278.331,215.013 273.846,218.899 269.213,222.426 264.454,225.589 259.591,228.385 254.645,230.811 249.637,232.869 244.589,234.558 239.521,235.882 234.454,236.845 229.407,237.451 224.399,237.707 219.449,237.62 214.575,237.201 209.794,236.458 205.122,235.402 200.575,234.046 196.167,232.401 191.912,230.483 187.823,228.304 183.912,225.88 180.189,223.226 176.665,220.359 173.347,217.295 170.245,214.05 167.364,210.643 164.711,207.089 162.29,203.407 160.104,199.615 158.158,195.729 156.451,191.767 154.985,187.747 153.759,183.685 152.773,179.599 152.025,175.505 151.51,171.419 151.226,167.356 151.168,163.333 151.33,159.364 151.707,155.463 151.707,155.463 151.758,155.065 151.811,154.668 151.866,154.272 151.923,153.877 151.983,153.483 152.044,153.09 152.108,152.697 152.174,152.306 152.242,151.916 152.313,151.526" stroke="#000000" stroke-dasharray="1,3,1,3,1,3,1,3" stroke-linecap="butt" stroke-linejoin="round" stroke-width="0.6"/>
   <g font-family="FreeSans" font-size="10" font-style="normal" font-weight="normal" transform="translate(239.521,71.17) rotate(-0,-0,-4)" xml:space="preserve">
    <text fill="rgb(0,0,0)" x="0 6 9 " y="-0">0.2</text>
   </g>
   <polyline fill="none" points="311.921,151.526 309.784,144.687 307.33,138.128 304.58,131.863 301.555,125.907 298.276,120.269 294.768,114.962 291.05,109.992 287.146,105.367 283.077,101.092 278.866,97.171 274.534,93.6052 270.101,90.3956 265.59,87.5415 261.02,85.0408 256.412,82.8901 251.784,81.0849 247.155,79.6192 242.543,78.4863 237.966,77.6782 233.44,77.186 228.98,76.9999 224.601,77.1094 220.318,77.5031 216.143,78.1688 212.089,79.0941 208.166,80.2657 204.385,81.6699 200.756,83.2927 197.286,85.1198 193.985,87.1364 190.857,89.3279 187.908,91.6791 185.145,94.1752 182.569,96.801 180.185,99.5417 177.994,102.382 175.999,105.308 174.198,108.305 172.593,111.358 171.181,114.454 169.963,117.578 168.934,120.719 168.092,123.863 167.433,126.997 166.953,130.111 166.648,133.192 166.512,136.231 166.539,139.216 166.723,142.139 167.057,144.989 167.057,144.989 167.16,145.666 167.271,146.338 167.39,147.004 167.517,147.666 167.652,148.323 167.795,148.974 167.946,149.621 168.105,150.261 168.271,150.897 168.444,151.526" stroke="#000000" stroke-dasharray="1,3,1,3,1,3,1,3" stroke-linecap="butt" stroke-linejoin="round" stroke-width="0.6"/>
   <polyline fill="none" points="311.921,151.526 309.784,158.365 307.33,164.924 304.58,171.189 301.555,177.146 298.276,182.783 294.768,188.091 291.05,193.06 287.146,197.685 283.077,201.96 278.866,205.881 274.534,209.447 270.101,212.657 265.59,215.511 261.02,218.012 256.412,220.162 251.784,221.968 247.155,223.433 242.543,224.566 237.966,225.374 233.44,225.866 228.98,226.053 224.601,225.943 220.318,225.549 216.143,224.884 212.089,223.958 208.166,222.787 204.385,221.383 200.756,219.76 197.286,217.933 193.985,215.916 190.857,213.725 187.908,211.373 185.145,208.877 182.569,206.251 180.185,203.511 177.994,200.67 175.999,197.744 174.198,194.748 172.593,191.695 171.181,188.599 169.963,185.474 168.934,182.333 168.092,179.19 167.433,176.055 166.953,172.941 166.648,169.86 166.512,166.822 166.539,163.836 166.723,160.914 167.057,158.063 167.057,158.063 167.16,157.387 167.271,156.715 167.39,156.048 167.517,155.386 167.652,154.73 167.795,154.078 167.946,153.432 168.105,152.791 168.271,152.156 168.444,151.526" stroke="#000000" stroke-dasharray="1,3,1,3,1,3,1,3" stroke-linecap="butt" stroke-linejoin="round" stroke-width="0.6"/>
   <g font-family="FreeSans" font-size="10" font-style="normal" font-weight="normal" transform="translate(242.543,82.4863) rotate(-0,-0,-4)" xml:space="preserve">
    <text fill="rgb(0,0,0)" x="0 6 9 " y="-0">0.3</text>
   </g>
   <polyline fill="none" points="311.921,151.526 309.157,144.997 306.137,138.812 302.884,132.98 299.424,127.505 295.779,122.391 291.972,117.639 288.026,113.252 283.964,109.226 279.805,105.561 275.572,102.252 271.284,99.2951 266.96,96.6842 262.618,94.4124 258.277,92.4718 253.953,90.8536 249.661,89.5483 245.417,88.5455 241.234,87.8343 237.127,87.4032 233.106,87.2399 229.183,87.3321 225.368,87.6669 221.672,88.231 218.101,89.0112 214.664,89.9937 211.368,91.1648 208.218,92.5109 205.219,94.0182 202.375,95.6729 199.69,97.4614 197.166,99.3704 194.805,101.387 192.608,103.497 190.576,105.689 188.708,107.949 187.003,110.267 185.461,112.63 184.078,115.026 182.853,117.446 181.782,119.878 180.862,122.313 180.089,124.741 179.46,127.153 178.968,129.54 178.61,131.895 178.38,134.211 178.273,136.479 178.283,138.694 178.405,140.85 178.632,142.941 178.632,142.941 178.769,143.871 178.926,144.786 179.103,145.685 179.298,146.569 179.511,147.437 179.743,148.289 179.991,149.124 180.256,149.942 180.537,150.743 180.833,151.526" stroke="#000000" stroke-dasharray="1,3,1,3,1,3,1,3" stroke-linecap="butt" stroke-linejoin="round" stroke-width="0.6"/>
   <polyline fill="none" points="311.921,151.526 309.157,158.056 306.137,164.24 302.884,170.073 299.424,175.548 295.779,180.662 291.972,185.413 288.026,189.801 283.964,193.826 279.805,197.492 275.572,200.801 271.284,203.757 266.96,206.368 262.618,208.64 258.277,210.581 253.953,212.199 249.661,213.504 245.417,214.507 241.234,215.218 237.127,215.649 233.106,215.813 229.183,215.72 225.368,215.386 221.672,214.821 218.101,214.041 214.664,213.059 211.368,211.888 208.218,210.542 205.219,209.034 202.375,207.38 199.69,205.591 197.166,203.682 194.805,201.666 192.608,199.556 190.576,197.364 188.708,195.103 187.003,192.786 185.461,190.423 184.078,188.026 182.853,185.607 181.782,183.174 180.862,180.74 180.089,178.312 179.46,175.9 178.968,173.512 178.61,171.157 178.38,168.842 178.273,166.573 178.283,164.358 178.405,162.203 178.632,160.111 178.632,160.111 178.769,159.182 178.926,158.267 179.103,157.367 179.298,156.483 179.511,155.615 179.743,154.763 179.991,153.928 180.256,153.11 180.537,152.31 180.833,151.526" stroke="#000000" stroke-dasharray="1,3,1,3,1,3,1,3" stroke-linecap="butt" stroke-linejoin="round" stroke-width="0.6"/>
   <g font-family="FreeSans" font-size="10" font-style="normal" font-weight="normal" transform="translate(245.417,92.5455) rotate(-0,-0,-4)" xml:space="preserve">
    <text fill="rgb(0,0,0)" x="0 6 9 " y="-0">0.4</text>
   </g>
   <polyline fill="none" points="311.921,151.526 308.537,145.395 304.973,139.66 301.252,134.32 297.399,129.37 293.436,124.807 289.386,120.625 285.268,116.815 281.103,113.369 276.909,110.28 272.705,107.537 268.508,105.128 264.331,103.044 260.192,101.273 256.102,99.8011 252.075,98.617 248.122,97.7074 244.255,97.0591 240.481,96.6586 236.811,96.4924 233.251,96.5468 229.81,96.8082 226.492,97.2629 223.303,97.8976 220.247,98.6987 217.329,99.6531 214.549,100.748 211.912,101.97 209.418,103.307 207.068,104.748 204.862,106.279 202.8,107.891 200.881,109.571 199.104,111.309 197.467,113.096 195.967,114.92 194.602,116.774 193.369,118.647 192.265,120.532 191.286,122.421 190.428,124.307 189.687,126.181 189.059,128.038 188.539,129.872 188.123,131.678 187.806,133.449 187.583,135.181 187.449,136.871 187.399,138.514 187.429,140.106 187.534,141.645 187.534,141.645 187.663,142.797 187.831,143.915 188.036,144.997 188.276,146.043 188.548,147.052 188.851,148.024 189.183,148.957 189.54,149.852 189.922,150.709 190.326,151.526" stroke="#000000" stroke-dasharray="1,3,1,3,1,3,1,3" stroke-linecap="butt" stroke-linejoin="round" stroke-width="0.6"/>
   <polyline fill="none" points="311.921,151.526 308.537,157.658 304.973,163.393 301.252,168.733 297.399,173.682 293.436,178.245 289.386,182.428 285.268,186.238 281.103,189.683 276.909,192.772 272.705,195.516 268.508,197.924 264.331,200.008 260.192,201.78 256.102,203.251 252.075,204.435 248.122,205.345 244.255,205.993 240.481,206.394 236.811,206.56 233.251,206.506 229.81,206.244 226.492,205.79 223.303,205.155 220.247,204.354 217.329,203.399 214.549,202.305 211.912,201.082 209.418,199.745 207.068,198.305 204.862,196.773 202.8,195.162 200.881,193.481 199.104,191.743 197.467,189.957 195.967,188.132 194.602,186.279 193.369,184.405 192.265,182.52 191.286,180.631 190.428,178.746 189.687,176.871 189.059,175.014 188.539,173.18 188.123,171.375 187.806,169.604 187.583,167.871 187.449,166.182 187.399,164.539 187.429,162.947 187.534,161.407 187.534,161.407 187.663,160.255 187.831,159.137 188.036,158.055 188.276,157.009 188.548,156 188.851,155.029 189.183,154.095 189.54,153.2 189.922,152.344 190.326,151.526" stroke="#000000" stroke-dasharray="1,3,1,3,1,3,1,3" stroke-linecap="butt" stroke-linejoin="round" stroke-width="0.6"/>
   <g font-family="FreeSans" font-size="10" font-style="normal" font-weight="normal" transform="translate(248.122,101.707) rotate(-0,-0,-4)" xml:space="preserve">
    <text fill="rgb(0,0,0)" x="0 6 9 " y="-0">0.5</text>
   </g>
   <polyline fill="none" points="311.921,151.526 307.926,145.897 303.838,140.698 299.681,135.918 295.475,131.544 291.239,127.564 286.992,123.964 282.751,120.731 278.532,117.849 274.348,115.304 270.214,113.083 266.14,111.168 262.14,109.546 258.221,108.201 254.394,107.119 250.667,106.284 247.045,105.682 243.535,105.298 240.143,105.117 236.873,105.126 233.728,105.311 230.711,105.658 227.825,106.154 225.07,106.787 222.449,107.543 219.96,108.412 217.604,109.382 215.38,110.441 213.288,111.58 211.325,112.788 209.489,114.055 207.779,115.373 206.191,116.733 204.724,118.126 203.372,119.545 202.135,120.982 201.007,122.431 199.985,123.886 199.065,125.34 198.244,126.788 197.517,128.224 196.88,129.645 196.33,131.046 195.861,132.423 195.47,133.773 195.153,135.092 194.905,136.378 194.723,137.628 194.602,138.84 194.538,140.012 194.528,141.143 194.528,141.143 194.585,142.497 194.711,143.782 194.901,144.997 195.147,146.141 195.443,147.213 195.782,148.215 196.159,149.146 196.568,150.008 197.004,150.8 197.462,151.526" stroke="#000000" stroke-dasharray="1,3,1,3,1,3,1,3" stroke-linecap="butt" stroke-linejoin="round" stroke-width="0.6"/>
   <polyline fill="none" points="311.921,151.526 307.926,157.155 303.838,162.354 299.681,167.134 295.475,171.508 291.239,175.488 286.992,179.088 282.751,182.322 278.532,185.204 274.348,187.748 270.214,189.97 266.14,191.884 262.14,193.506 258.221,194.851 254.394,195.933 250.667,196.768 247.045,197.37 243.535,197.755 240.143,197.935 236.873,197.926 233.728,197.742 230.711,197.395 227.825,196.898 225.07,196.266 222.449,195.509 219.96,194.64 217.604,193.671 215.38,192.611 213.288,191.472 211.325,190.264 209.489,188.997 207.779,187.679 206.191,186.32 204.724,184.926 203.372,183.508 202.135,182.07 201.007,180.621 199.985,179.167 199.065,177.713 198.244,176.265 197.517,174.828 196.88,173.407 196.33,172.006 195.861,170.629 195.47,169.279 195.153,167.96 194.905,166.674 194.723,165.424 194.602,164.212 194.538,163.04 194.528,161.909 194.528,161.909 194.585,160.556 194.711,159.271 194.901,158.056 195.147,156.912 195.443,155.839 195.782,154.837 196.159,153.906 196.568,153.045 197.004,152.252 197.462,151.526" stroke="#000000" stroke-dasharray="1,3,1,3,1,3,1,3" stroke-linecap="butt" stroke-linejoin="round" stroke-width="0.6"/>
   <g font-family="FreeSans" font-size="10" font-style="normal" font-weight="normal" transform="translate(250.667,110.284) rotate(-0,-0,-4)" xml:space="preserve">
    <text fill="rgb(0,0,0)" x="0 6 9 " y="-0">0.6</text>
   </g>
   <polyline fill="none" points="311.921,151.526 307.321,146.532 302.732,141.978 298.168,137.843 293.646,134.108 289.179,130.753 284.778,127.759 280.456,125.107 276.222,122.779 272.084,120.754 268.05,119.017 264.127,117.549 260.319,116.333 256.632,115.352 253.069,114.59 249.634,114.032 246.329,113.663 243.154,113.468 240.112,113.433 237.202,113.545 234.424,113.791 231.779,114.158 229.263,114.637 226.877,115.214 224.618,115.879 222.484,116.624 220.473,117.437 218.582,118.311 216.807,119.237 215.146,120.207 213.596,121.213 212.153,122.249 210.813,123.309 209.573,124.386 208.429,125.474 207.378,126.57 206.415,127.667 205.536,128.763 204.739,129.852 204.019,130.931 203.372,131.997 202.794,133.047 202.283,134.079 201.834,135.089 201.443,136.077 201.108,137.04 200.825,137.976 200.59,138.885 200.4,139.765 200.253,140.615 200.146,141.435 200.146,141.435 200.036,142.983 200.051,144.405 200.169,145.7 200.373,146.871 200.644,147.92 200.97,148.852 201.335,149.672 201.729,150.386 202.141,151.002 202.563,151.526" stroke="#000000" stroke-dasharray="1,3,1,3,1,3,1,3" stroke-linecap="butt" stroke-linejoin="round" stroke-width="0.6"/>
   <polyline fill="none" points="311.921,151.526 307.321,156.52 302.732,161.075 298.168,165.21 293.646,168.945 289.179,172.299 284.778,175.293 280.456,177.945 276.222,180.274 272.084,182.298 268.05,184.035 264.127,185.504 260.319,186.72 256.632,187.701 253.069,188.462 249.634,189.02 246.329,189.39 243.154,189.585 240.112,189.62 237.202,189.508 234.424,189.262 231.779,188.894 229.263,188.416 226.877,187.839 224.618,187.173 222.484,186.429 220.473,185.615 218.582,184.741 216.807,183.816 215.146,182.846 213.596,181.84 212.153,180.803 210.813,179.744 209.573,178.667 208.429,177.578 207.378,176.483 206.415,175.385 205.536,174.29 204.739,173.201 204.019,172.122 203.372,171.055 202.794,170.005 202.283,168.974 201.834,167.963 201.443,166.975 201.108,166.013 200.825,165.076 200.59,164.167 200.4,163.287 200.253,162.437 200.146,161.617 200.146,161.617 200.036,160.069 200.051,158.648 200.169,157.352 200.373,156.182 200.644,155.133 200.97,154.201 201.335,153.381 201.729,152.666 202.141,152.05 202.563,151.526" stroke="#000000" stroke-dasharray="1,3,1,3,1,3,1,3" stroke-linecap="butt" stroke-linejoin="round" stroke-width="0.6"/>
   <g font-family="FreeSans" font-size="10" font-style="normal" font-weight="normal" transform="translate(249.634,118.032) rotate(-0,-0,-4)" xml:space="preserve">
    <text fill="rgb(0,0,0)" x="0 6 9 " y="-0">0.7</text>
   </g>
   <polyline fill="none" points="311.921,151.526 306.725,147.356 301.653,143.601 296.712,140.234 291.908,137.232 287.246,134.571 282.73,132.228 278.363,130.181 274.148,128.411 270.084,126.896 266.174,125.619 262.417,124.561 258.813,123.706 255.36,123.037 252.058,122.539 248.903,122.197 245.894,121.998 243.029,121.929 240.303,121.978 237.715,122.133 235.26,122.384 232.935,122.72 230.737,123.132 228.661,123.611 226.704,124.149 224.861,124.739 223.129,125.372 221.503,126.044 219.98,126.747 218.555,127.475 217.225,128.224 215.984,128.989 214.83,129.766 213.759,130.55 212.766,131.338 211.847,132.126 211,132.911 210.22,133.692 209.504,134.465 208.848,135.227 208.25,135.979 207.705,136.716 207.212,137.439 206.766,138.145 206.365,138.834 206.006,139.505 205.687,140.157 205.404,140.789 205.156,141.401 204.94,141.993 204.754,142.564 204.754,142.564 204.321,144.315 204.125,145.835 204.105,147.134 204.212,148.226 204.406,149.13 204.655,149.865 204.934,150.453 205.224,150.913 205.511,151.265 205.785,151.526" stroke="#000000" stroke-dasharray="1,3,1,3,1,3,1,3" stroke-linecap="butt" stroke-linejoin="round" stroke-width="0.6"/>
   <polyline fill="none" points="311.921,151.526 306.725,155.696 301.653,159.452 296.712,162.818 291.908,165.82 287.246,168.481 282.73,170.824 278.363,172.871 274.148,174.642 270.084,176.156 266.174,177.433 262.417,178.491 258.813,179.347 255.36,180.016 252.058,180.514 248.903,180.855 245.894,181.054 243.029,181.123 240.303,181.074 237.715,180.919 235.26,180.669 232.935,180.333 230.737,179.921 228.661,179.442 226.704,178.903 224.861,178.314 223.129,177.68 221.503,177.009 219.98,176.306 218.555,175.577 217.225,174.828 215.984,174.063 214.83,173.287 213.759,172.503 212.766,171.715 211.847,170.927 211,170.141 210.22,169.361 209.504,168.588 208.848,167.825 208.25,167.074 207.705,166.336 207.212,165.614 206.766,164.907 206.365,164.218 206.006,163.547 205.687,162.895 205.404,162.263 205.156,161.651 204.94,161.059 204.754,160.489 204.754,160.489 204.321,158.738 204.125,157.217 204.105,155.919 204.212,154.827 204.406,153.923 204.655,153.188 204.934,152.6 205.224,152.14 205.511,151.788 205.785,151.526" stroke="#000000" stroke-dasharray="1,3,1,3,1,3,1,3" stroke-linecap="butt" stroke-linejoin="round" stroke-width="0.6"/>
   <g font-family="FreeSans" font-size="10" font-style="normal" font-weight="normal" transform="translate(252.058,126.539) rotate(-0,-0,-4)" xml:space="preserve">
    <text fill="rgb(0,0,0)" x="0 6 9 " y="-0">0.8</text>
   </g>
   <polyline fill="none" points="311.921,151.526 306.136,148.516 300.601,145.838 295.31,143.468 290.256,141.382 285.434,139.556 280.836,137.97 276.456,136.605 272.286,135.441 268.32,134.462 264.55,133.651 260.971,132.994 257.574,132.476 254.353,132.084 251.301,131.807 248.411,131.633 245.678,131.552 243.094,131.554 240.653,131.63 238.348,131.773 236.175,131.974 234.126,132.226 232.197,132.524 230.381,132.86 228.674,133.231 227.07,133.63 225.563,134.053 224.15,134.496 222.826,134.955 221.585,135.427 220.424,135.908 219.339,136.396 218.325,136.889 217.378,137.384 216.495,137.878 215.673,138.37 214.908,138.859 214.196,139.343 213.535,139.821 212.922,140.291 212.353,140.753 211.827,141.205 211.34,141.648 210.891,142.08 210.477,142.502 210.095,142.912 209.744,143.31 209.421,143.696 209.126,144.07 208.855,144.432 208.608,144.782 208.608,144.782 207.475,146.754 206.917,148.254 206.702,149.354 206.675,150.134 206.743,150.671 206.848,151.027 206.959,151.257 207.06,151.398 207.145,151.481 207.211,151.526" stroke="#000000" stroke-dasharray="1,3,1,3,1,3,1,3" stroke-linecap="butt" stroke-linejoin="round" stroke-width="0.6"/>
   <polyline fill="none" points="311.921,151.526 306.136,154.537 300.601,157.214 295.31,159.584 290.256,161.671 285.434,163.496 280.836,165.082 276.456,166.447 272.286,167.611 268.32,168.591 264.55,169.401 260.971,170.059 257.574,170.577 254.353,170.968 251.301,171.246 248.411,171.419 245.678,171.501 243.094,171.498 240.653,171.422 238.348,171.279 236.175,171.079 234.126,170.826 232.197,170.529 230.381,170.192 228.674,169.822 227.07,169.423 225.563,169 224.15,168.557 222.826,168.098 221.585,167.626 220.424,167.144 219.339,166.656 218.325,166.163 217.378,165.669 216.495,165.175 215.673,164.682 214.908,164.193 214.196,163.709 213.535,163.232 212.922,162.762 212.353,162.3 211.827,161.847 211.34,161.404 210.891,160.972 210.477,160.551 210.095,160.141 209.744,159.743 209.421,159.356 209.126,158.982 208.855,158.62 208.608,158.27 208.608,158.27 207.475,156.299 206.917,154.799 206.702,153.699 206.675,152.918 206.743,152.382 206.848,152.025 206.959,151.796 207.06,151.654 207.145,151.571 207.211,151.526" stroke="#000000" stroke-dasharray="1,3,1,3,1,3,1,3" stroke-linecap="butt" stroke-linejoin="round" stroke-width="0.6"/>
   <g font-family="FreeSans" font-size="10" font-style="normal" font-weight="normal" transform="translate(254.353,136.084) rotate(-0,-0,-4)" xml:space="preserve">
    <text fill="rgb(0,0,0)" x="0 6 9 " y="-0">0.9</text>
   </g>
   <polyline fill="none" points="311.921,151.526 305.554,151.526 299.575,151.526 293.96,151.526 288.686,151.526 283.734,151.526 279.084,151.526 274.717,151.526 270.615,151.526 266.764,151.526 263.147,151.526 259.75,151.526 256.56,151.526 253.565,151.526 250.752,151.526 248.11,151.526 245.629,151.526 243.299,151.526 241.111,151.526 239.056,151.526 237.127,151.526 235.315,151.526 233.613,151.526 232.015,151.526 230.514,151.526 229.105,151.526 227.781,151.526 226.538,151.526 225.371,151.526 224.275,151.526 223.245,151.526 222.278,151.526 221.371,151.526 220.518,151.526 219.717,151.526 218.966,151.526 218.259,151.526 217.596,151.526 216.974,151.526 216.389,151.526 215.84,151.526 215.324,151.526 214.84,151.526 214.385,151.526 213.958,151.526 213.556,151.526 213.18,151.526 212.826,151.526 212.494,151.526 212.182,151.526 211.889,151.526 211.889,151.526 207.371,151.526 207.371,151.526 207.371,151.526 207.371,151.526 207.371,151.526 207.371,151.526 207.371,151.526 207.371,151.526 207.371,151.526 207.371,151.526" stroke="#000000" stroke-dasharray="1,3,1,3,1,3,1,3" stroke-linecap="butt" stroke-linejoin="round" stroke-width="0.6"/>
   <polyline fill="none" points="311.921,151.526 305.554,151.526 299.575,151.526 293.96,151.526 288.686,151.526 283.734,151.526 279.084,151.526 274.717,151.526 270.615,151.526 266.764,151.526 263.147,151.526 259.75,151.526 256.56,151.526 253.565,151.526 250.752,151.526 248.11,151.526 245.629,151.526 243.299,151.526 241.111,151.526 239.056,151.526 237.127,151.526 235.315,151.526 233.613,151.526 232.015,151.526 230.514,151.526 229.105,151.526 227.781,151.526 226.538,151.526 225.371,151.526 224.275,151.526 223.245,151.526 222.278,151.526 221.371,151.526 220.518,151.526 219.717,151.526 218.966,151.526 218.259,151.526 217.596,151.526 216.974,151.526 216.389,151.526 215.84,151.526 215.324,151.526 214.84,151.526 214.385,151.526 213.958,151.526 213.556,151.526 213.18,151.526 212.826,151.526 212.494,151.526 212.182,151.526 211.889,151.526 211.889,151.526 207.371,151.526 207.371,151.526 207.371,151.526 207.371,151.526 207.371,151.526 207.371,151.526 207.371,151.526 207.371,151.526 207.371,151.526 207.371,151.526" stroke="#000000" stroke-dasharray="1,3,1,3,1,3,1,3" stroke-linecap="butt" stroke-linejoin="round" stroke-width="0.6"/>
   <g font-family="FreeSans" font-size="10" font-style="normal" font-weight="normal" transform="translate(253.565,155.526) rotate(-0,-0,-4)" xml:space="preserve">
    <text fill="rgb(0,0,0)" x="0 6 9 " y="-0">1.0</text>
   </g>
  </g>
  <clipPath id="cp00418314">
   <polygon points="0,314 418,314 418,0 0,0"/>
  </clipPath>
  <g clip-path="url(#cp00418314)">
   <polygon fill="#ffffff" points="270.894,77.9305 370.936,77.9305 370.936,31.5638 270.894,31.5638" shape-rendering="crispEdges"/>
   <polyline fill="none" points="270.894,77.9305 370.936,77.9305" stroke="#262626" stroke-dasharray="16,0" stroke-linecap="square" stroke-linejoin="miter" stroke-width="0.5"/>
   <polyline fill="none" points="270.894,31.5638 370.936,31.5638" stroke="#262626" stroke-dasharray="16,0" stroke-linecap="square" stroke-linejoin="miter" stroke-width="0.5"/>
   <polyline fill="none" points="270.894,77.9305 270.894,31.5638" stroke="#262626" stroke-dasharray="16,0" stroke-linecap="square" stroke-linejoin="miter" stroke-width="0.5"/>
   <polyline fill="none" points="370.936,77.9305 370.936,31.5638" stroke="#262626" stroke-dasharray="16,0" stroke-linecap="square" stroke-linejoin="miter" stroke-width="0.5"/>
   <polyline fill="none" points="274.899,40.5691 294.925,40.5691" stroke="#0000ff" stroke-linecap="butt" stroke-linejoin="round" stroke-width="2"/>
   <g font-family="FreeSans" font-size="10" font-style="normal" font-weight="normal" transform="translate(298.931,45.5691) rotate(-0,-0,-5)" xml:space="preserve">
    <text fill="rgb(0,0,0)" x="0 2 7 12 17 " y="-1">locus</text>
   </g>
   <polyline fill="none" points="280.912,51.0743 288.912,59.0744" stroke="#bf0000" stroke-linecap="square" stroke-linejoin="miter" stroke-width="2"/>
   <polyline fill="none" points="280.912,59.0744 288.912,51.0743" stroke="#bf0000" stroke-linecap="square" stroke-linejoin="miter" stroke-width="2"/>
   <g font-family="FreeSans" font-size="10" font-style="normal" font-weight="normal" transform="translate(298.931,60.5744) rotate(-0,-0,-5.5)" xml:space="preserve">
    <text fill="rgb(0,0,0)" x="0 5 11 16 21 24 26 31 36 42 45 51 56 58 63 " y="-2">open loop poles</text>
   </g>
   <polyline fill="none" points="288.912,69.2524 288.516,70.9879 287.406,72.3797 285.802,73.1521 284.022,73.1521 282.418,72.3797 281.308,70.9879 280.912,69.2524 281.308,67.5169 282.418,66.1251 284.022,65.3527 285.802,65.3527 287.406,66.1251 288.516,67.5169 288.912,69.2524" stroke="#00bf00" stroke-linecap="round" stroke-linejoin="round" stroke-width="2"/>
   <g font-family="FreeSans" font-size="10" font-style="normal" font-weight="normal" transform="translate(298.931,72.7524) rotate(-0,-0,-3.5)" xml:space="preserve">
    <text fill="rgb(0,0,0)" x="0 5 10 13 18 " y="-0">zeros</text>
   </g>
  </g>
 </g>
</svg>
